%TF.GenerationSoftware,KiCad,Pcbnew,(6.0.8)*%
%TF.CreationDate,2023-02-13T22:42:50-05:00*%
%TF.ProjectId,miura_board,6d697572-615f-4626-9f61-72642e6b6963,rev?*%
%TF.SameCoordinates,Original*%
%TF.FileFunction,Copper,L3,Inr*%
%TF.FilePolarity,Positive*%
%FSLAX46Y46*%
G04 Gerber Fmt 4.6, Leading zero omitted, Abs format (unit mm)*
G04 Created by KiCad (PCBNEW (6.0.8)) date 2023-02-13 22:42:50*
%MOMM*%
%LPD*%
G01*
G04 APERTURE LIST*
%TA.AperFunction,ComponentPad*%
%ADD10C,3.800000*%
%TD*%
%TA.AperFunction,ComponentPad*%
%ADD11R,1.000000X1.000000*%
%TD*%
%TA.AperFunction,ComponentPad*%
%ADD12O,1.000000X1.000000*%
%TD*%
%TA.AperFunction,ComponentPad*%
%ADD13O,1.000000X2.100000*%
%TD*%
%TA.AperFunction,ComponentPad*%
%ADD14O,1.000000X1.600000*%
%TD*%
%TA.AperFunction,ViaPad*%
%ADD15C,0.800000*%
%TD*%
G04 APERTURE END LIST*
D10*
%TO.N,GND*%
%TO.C,H1*%
X112760000Y-36760000D03*
%TD*%
D11*
%TO.N,+3V3*%
%TO.C,J3*%
X95250000Y-82600000D03*
D12*
%TO.N,MOTOR_SUPPLY*%
X93980000Y-82600000D03*
%TO.N,GND*%
X92710000Y-82600000D03*
%TO.N,SCL*%
X91440000Y-82600000D03*
%TO.N,SDA*%
X90170000Y-82600000D03*
%TD*%
D10*
%TO.N,GND*%
%TO.C,H3*%
X61460000Y-84530000D03*
%TD*%
%TO.N,GND*%
%TO.C,H2*%
X61540000Y-36810000D03*
%TD*%
%TO.N,GND*%
%TO.C,H4*%
X112510000Y-84560000D03*
%TD*%
D13*
%TO.N,GND*%
%TO.C,USB1*%
X106820000Y-77305000D03*
D14*
X98180000Y-81485000D03*
D13*
X98180000Y-77305000D03*
D14*
X106820000Y-81485000D03*
%TD*%
D11*
%TO.N,+3V3*%
%TO.C,J2*%
X63500000Y-74850000D03*
D12*
%TO.N,MOTOR_SUPPLY*%
X63500000Y-73580000D03*
%TO.N,GND*%
X63500000Y-72310000D03*
%TO.N,SCL*%
X63500000Y-71040000D03*
%TO.N,SDA*%
X63500000Y-69770000D03*
%TD*%
D15*
%TO.N,GND*%
X66600000Y-76400000D03*
X64500000Y-57000000D03*
X98580000Y-43830000D03*
X93700000Y-43800000D03*
X105772500Y-40440000D03*
X95250000Y-51500000D03*
X76630000Y-47940000D03*
X99300000Y-64500000D03*
X71100000Y-65300000D03*
X93260000Y-51450000D03*
X104200000Y-66400000D03*
X90100000Y-55400000D03*
X73400000Y-50990000D03*
X64100000Y-60800000D03*
X102330000Y-50620000D03*
X89300000Y-66000000D03*
X81900000Y-54000000D03*
X92800000Y-53100000D03*
X110700000Y-77500000D03*
X89900000Y-78100000D03*
X109400000Y-70200000D03*
X92110000Y-46370000D03*
X99000000Y-74800000D03*
X111072500Y-45840000D03*
X83600000Y-56000000D03*
X109400000Y-72600000D03*
X110800000Y-81400000D03*
X75000000Y-61600000D03*
%TO.N,+3V3*%
X86100000Y-56900000D03*
X103004500Y-74500000D03*
X106400000Y-74100000D03*
X90600000Y-57800000D03*
X91700000Y-70200000D03*
X78300000Y-50800000D03*
%TO.N,TXD0*%
X97000000Y-71200000D03*
X74200000Y-72400000D03*
%TO.N,RXD0*%
X96500000Y-70200000D03*
X74190000Y-71190000D03*
%TO.N,MOTOR_SUPPLY*%
X103400000Y-57300000D03*
%TO.N,SDA*%
X73300000Y-69900000D03*
%TO.N,SCL*%
X84400000Y-65200000D03*
%TO.N,CS*%
X71400000Y-63600000D03*
%TO.N,SCLK*%
X65000000Y-63900000D03*
%TO.N,MISO*%
X64900000Y-65800000D03*
%TO.N,MOSI*%
X63400000Y-63000000D03*
%TO.N,VBUS*%
X103750000Y-73750000D03*
X100000000Y-73900000D03*
%TO.N,unconnected-(C7-Pad2)*%
X96700000Y-68100000D03*
%TD*%
%TA.AperFunction,Conductor*%
%TO.N,+3V3*%
G36*
X110366729Y-37176901D02*
G01*
X110399773Y-37240728D01*
X110403136Y-37258356D01*
X110422555Y-37360154D01*
X110516206Y-37648381D01*
X110517893Y-37651967D01*
X110517895Y-37651971D01*
X110556798Y-37734644D01*
X110645242Y-37922598D01*
X110807630Y-38178480D01*
X111000808Y-38411992D01*
X111221729Y-38619450D01*
X111466910Y-38797584D01*
X111732483Y-38943585D01*
X111736152Y-38945038D01*
X111736157Y-38945040D01*
X111858768Y-38993585D01*
X112014261Y-39055149D01*
X112018083Y-39056130D01*
X112018082Y-39056130D01*
X112122349Y-39082901D01*
X112183355Y-39119216D01*
X112215044Y-39182748D01*
X112207354Y-39253327D01*
X112162398Y-39308771D01*
X111923616Y-39472933D01*
X111923064Y-39473313D01*
X111918916Y-39476046D01*
X111867042Y-39508776D01*
X111846973Y-39531500D01*
X111840451Y-39538885D01*
X111831389Y-39548140D01*
X111816801Y-39561582D01*
X111801840Y-39575367D01*
X111794085Y-39588252D01*
X111780573Y-39606684D01*
X111770622Y-39617951D01*
X111766808Y-39626074D01*
X111766807Y-39626076D01*
X111753549Y-39654315D01*
X111747451Y-39665738D01*
X111726731Y-39700166D01*
X111722902Y-39714716D01*
X111715110Y-39736187D01*
X111708719Y-39749800D01*
X111707338Y-39758670D01*
X111707336Y-39758676D01*
X111702536Y-39789500D01*
X111699890Y-39802172D01*
X111691950Y-39832349D01*
X111691949Y-39832355D01*
X111689667Y-39841029D01*
X111689911Y-39850000D01*
X111691453Y-39906681D01*
X111691500Y-39910107D01*
X111691500Y-44927096D01*
X111671498Y-44995217D01*
X111617842Y-45041710D01*
X111547568Y-45051814D01*
X111514251Y-45042203D01*
X111360819Y-44973891D01*
X111360818Y-44973891D01*
X111354788Y-44971206D01*
X111261387Y-44951353D01*
X111174444Y-44932872D01*
X111174439Y-44932872D01*
X111167987Y-44931500D01*
X110977013Y-44931500D01*
X110970561Y-44932872D01*
X110970556Y-44932872D01*
X110883613Y-44951353D01*
X110790212Y-44971206D01*
X110784182Y-44973891D01*
X110784181Y-44973891D01*
X110621778Y-45046197D01*
X110621776Y-45046198D01*
X110615748Y-45048882D01*
X110461247Y-45161134D01*
X110333460Y-45303056D01*
X110237973Y-45468444D01*
X110178958Y-45650072D01*
X110158996Y-45840000D01*
X110159686Y-45846565D01*
X110176310Y-46004729D01*
X110178958Y-46029928D01*
X110237973Y-46211556D01*
X110241276Y-46217278D01*
X110241277Y-46217279D01*
X110258079Y-46246380D01*
X110333460Y-46376944D01*
X110461247Y-46518866D01*
X110615748Y-46631118D01*
X110621776Y-46633802D01*
X110621778Y-46633803D01*
X110784181Y-46706109D01*
X110790212Y-46708794D01*
X110883613Y-46728647D01*
X110970556Y-46747128D01*
X110970561Y-46747128D01*
X110977013Y-46748500D01*
X111167987Y-46748500D01*
X111174439Y-46747128D01*
X111174444Y-46747128D01*
X111261387Y-46728647D01*
X111354788Y-46708794D01*
X111514250Y-46637797D01*
X111584618Y-46628363D01*
X111648915Y-46658470D01*
X111686729Y-46718559D01*
X111691500Y-46752904D01*
X111691500Y-76930091D01*
X111671498Y-76998212D01*
X111617842Y-77044705D01*
X111547568Y-77054809D01*
X111482988Y-77025315D01*
X111456381Y-76993092D01*
X111442341Y-76968774D01*
X111439040Y-76963056D01*
X111402125Y-76922057D01*
X111315675Y-76826045D01*
X111315674Y-76826044D01*
X111311253Y-76821134D01*
X111156752Y-76708882D01*
X111150724Y-76706198D01*
X111150722Y-76706197D01*
X110988319Y-76633891D01*
X110988318Y-76633891D01*
X110982288Y-76631206D01*
X110888887Y-76611353D01*
X110801944Y-76592872D01*
X110801939Y-76592872D01*
X110795487Y-76591500D01*
X110604513Y-76591500D01*
X110598061Y-76592872D01*
X110598056Y-76592872D01*
X110511113Y-76611353D01*
X110417712Y-76631206D01*
X110411682Y-76633891D01*
X110411681Y-76633891D01*
X110249278Y-76706197D01*
X110249276Y-76706198D01*
X110243248Y-76708882D01*
X110088747Y-76821134D01*
X110084326Y-76826044D01*
X110084325Y-76826045D01*
X109997876Y-76922057D01*
X109960960Y-76963056D01*
X109865473Y-77128444D01*
X109806458Y-77310072D01*
X109805768Y-77316633D01*
X109805768Y-77316635D01*
X109795193Y-77417251D01*
X109786496Y-77500000D01*
X109787186Y-77506565D01*
X109792608Y-77558148D01*
X109806458Y-77689928D01*
X109865473Y-77871556D01*
X109868776Y-77877278D01*
X109868777Y-77877279D01*
X109886417Y-77907832D01*
X109960960Y-78036944D01*
X109965378Y-78041851D01*
X109965379Y-78041852D01*
X109987845Y-78066803D01*
X110088747Y-78178866D01*
X110243248Y-78291118D01*
X110249276Y-78293802D01*
X110249278Y-78293803D01*
X110411681Y-78366109D01*
X110417712Y-78368794D01*
X110511113Y-78388647D01*
X110598056Y-78407128D01*
X110598061Y-78407128D01*
X110604513Y-78408500D01*
X110795487Y-78408500D01*
X110801939Y-78407128D01*
X110801944Y-78407128D01*
X110888887Y-78388647D01*
X110982288Y-78368794D01*
X110988319Y-78366109D01*
X111150722Y-78293803D01*
X111150724Y-78293802D01*
X111156752Y-78291118D01*
X111311253Y-78178866D01*
X111412155Y-78066803D01*
X111434621Y-78041852D01*
X111434622Y-78041851D01*
X111439040Y-78036944D01*
X111456382Y-78006907D01*
X111507764Y-77957915D01*
X111577478Y-77944480D01*
X111643389Y-77970867D01*
X111684570Y-78028699D01*
X111691500Y-78069909D01*
X111691500Y-80704139D01*
X111671498Y-80772260D01*
X111617842Y-80818753D01*
X111547568Y-80828857D01*
X111482988Y-80799363D01*
X111471869Y-80788454D01*
X111411253Y-80721134D01*
X111256752Y-80608882D01*
X111250724Y-80606198D01*
X111250722Y-80606197D01*
X111088319Y-80533891D01*
X111088318Y-80533891D01*
X111082288Y-80531206D01*
X110988888Y-80511353D01*
X110901944Y-80492872D01*
X110901939Y-80492872D01*
X110895487Y-80491500D01*
X110704513Y-80491500D01*
X110698061Y-80492872D01*
X110698056Y-80492872D01*
X110611112Y-80511353D01*
X110517712Y-80531206D01*
X110511682Y-80533891D01*
X110511681Y-80533891D01*
X110349278Y-80606197D01*
X110349276Y-80606198D01*
X110343248Y-80608882D01*
X110188747Y-80721134D01*
X110184329Y-80726041D01*
X110184325Y-80726045D01*
X110100851Y-80818753D01*
X110060960Y-80863056D01*
X110057659Y-80868774D01*
X109985186Y-80994301D01*
X109965473Y-81028444D01*
X109906458Y-81210072D01*
X109886496Y-81400000D01*
X109906458Y-81589928D01*
X109965473Y-81771556D01*
X110060960Y-81936944D01*
X110065378Y-81941851D01*
X110065379Y-81941852D01*
X110176761Y-82065554D01*
X110188747Y-82078866D01*
X110250768Y-82123927D01*
X110292774Y-82154446D01*
X110343248Y-82191118D01*
X110349276Y-82193802D01*
X110349278Y-82193803D01*
X110511681Y-82266109D01*
X110517712Y-82268794D01*
X110611113Y-82288647D01*
X110698056Y-82307128D01*
X110698061Y-82307128D01*
X110704513Y-82308500D01*
X110895487Y-82308500D01*
X110901939Y-82307128D01*
X110901944Y-82307128D01*
X110988887Y-82288647D01*
X111082288Y-82268794D01*
X111088319Y-82266109D01*
X111250722Y-82193803D01*
X111250724Y-82193802D01*
X111256752Y-82191118D01*
X111307227Y-82154446D01*
X111349232Y-82123927D01*
X111411253Y-82078866D01*
X111423239Y-82065554D01*
X111534621Y-81941852D01*
X111534622Y-81941851D01*
X111539040Y-81936944D01*
X111562652Y-81896047D01*
X111614035Y-81847054D01*
X111683748Y-81833618D01*
X111749659Y-81860004D01*
X111767216Y-81876791D01*
X111780007Y-81891636D01*
X111792366Y-81908675D01*
X111802512Y-81925455D01*
X111828771Y-81949550D01*
X111839029Y-81960133D01*
X111862287Y-81987127D01*
X111899637Y-82011336D01*
X111900226Y-82011718D01*
X111946509Y-82065554D01*
X111956340Y-82135867D01*
X111926596Y-82200332D01*
X111863028Y-82239491D01*
X111768096Y-82263865D01*
X111768076Y-82263871D01*
X111764261Y-82264851D01*
X111760592Y-82266304D01*
X111760591Y-82266304D01*
X111486157Y-82374960D01*
X111486152Y-82374962D01*
X111482483Y-82376415D01*
X111479015Y-82378321D01*
X111479014Y-82378322D01*
X111234227Y-82512896D01*
X111216910Y-82522416D01*
X110971729Y-82700550D01*
X110968843Y-82703261D01*
X110968842Y-82703261D01*
X110888906Y-82778326D01*
X110750808Y-82908008D01*
X110660194Y-83017542D01*
X110584971Y-83108471D01*
X110557630Y-83141520D01*
X110395242Y-83397402D01*
X110333494Y-83528624D01*
X110275845Y-83651136D01*
X110266206Y-83671619D01*
X110264980Y-83675391D01*
X110264980Y-83675392D01*
X110189637Y-83907273D01*
X110149563Y-83965879D01*
X110084167Y-83993516D01*
X110014210Y-83981409D01*
X109986397Y-83962779D01*
X109964521Y-83943459D01*
X109954056Y-83933065D01*
X109936272Y-83913202D01*
X109936270Y-83913200D01*
X109930287Y-83906518D01*
X109913632Y-83896167D01*
X109896737Y-83883594D01*
X109888777Y-83876564D01*
X109882049Y-83870622D01*
X109849799Y-83855481D01*
X109836842Y-83848444D01*
X109814203Y-83834374D01*
X109814196Y-83834371D01*
X109806574Y-83829634D01*
X109787687Y-83824375D01*
X109767942Y-83817049D01*
X109759478Y-83813075D01*
X109758324Y-83812533D01*
X109758322Y-83812532D01*
X109750200Y-83808719D01*
X109714991Y-83803237D01*
X109700584Y-83800120D01*
X109666255Y-83790561D01*
X109594400Y-83791489D01*
X109592773Y-83791500D01*
X94382038Y-83791500D01*
X94313917Y-83771498D01*
X94267424Y-83717842D01*
X94257320Y-83647568D01*
X94286814Y-83582988D01*
X94336476Y-83548026D01*
X94340522Y-83546457D01*
X94346463Y-83544798D01*
X94522996Y-83455625D01*
X94678847Y-83333861D01*
X94808078Y-83184145D01*
X94905769Y-83012179D01*
X94968197Y-82824513D01*
X94992985Y-82628295D01*
X94993380Y-82600000D01*
X94974080Y-82403167D01*
X94916916Y-82213831D01*
X94824066Y-82039204D01*
X94749275Y-81947501D01*
X94702960Y-81890713D01*
X94702957Y-81890710D01*
X94699065Y-81885938D01*
X94688017Y-81876798D01*
X94637213Y-81834769D01*
X97171500Y-81834769D01*
X97171800Y-81837825D01*
X97171800Y-81837832D01*
X97173805Y-81858276D01*
X97185920Y-81981833D01*
X97187702Y-81987734D01*
X97187702Y-81987736D01*
X97192413Y-82003339D01*
X97243084Y-82171169D01*
X97335934Y-82345796D01*
X97382725Y-82403167D01*
X97457040Y-82494287D01*
X97457043Y-82494290D01*
X97460935Y-82499062D01*
X97465682Y-82502989D01*
X97465684Y-82502991D01*
X97608575Y-82621201D01*
X97608579Y-82621203D01*
X97613325Y-82625130D01*
X97787299Y-82719198D01*
X97976232Y-82777682D01*
X97982357Y-82778326D01*
X97982358Y-82778326D01*
X98166796Y-82797711D01*
X98166798Y-82797711D01*
X98172925Y-82798355D01*
X98277280Y-82788858D01*
X98363749Y-82780989D01*
X98363752Y-82780988D01*
X98369888Y-82780430D01*
X98375794Y-82778692D01*
X98375798Y-82778691D01*
X98480924Y-82747751D01*
X98559619Y-82724590D01*
X98565077Y-82721737D01*
X98565081Y-82721735D01*
X98667440Y-82668222D01*
X98734890Y-82632960D01*
X98889025Y-82509032D01*
X99016154Y-82357526D01*
X99019121Y-82352128D01*
X99019125Y-82352123D01*
X99108467Y-82189608D01*
X99111433Y-82184213D01*
X99113846Y-82176608D01*
X99169373Y-82001564D01*
X99169373Y-82001563D01*
X99171235Y-81995694D01*
X99188500Y-81841773D01*
X99188500Y-81834769D01*
X105811500Y-81834769D01*
X105811800Y-81837825D01*
X105811800Y-81837832D01*
X105813805Y-81858276D01*
X105825920Y-81981833D01*
X105827702Y-81987734D01*
X105827702Y-81987736D01*
X105832413Y-82003339D01*
X105883084Y-82171169D01*
X105975934Y-82345796D01*
X106022725Y-82403167D01*
X106097040Y-82494287D01*
X106097043Y-82494290D01*
X106100935Y-82499062D01*
X106105682Y-82502989D01*
X106105684Y-82502991D01*
X106248575Y-82621201D01*
X106248579Y-82621203D01*
X106253325Y-82625130D01*
X106427299Y-82719198D01*
X106616232Y-82777682D01*
X106622357Y-82778326D01*
X106622358Y-82778326D01*
X106806796Y-82797711D01*
X106806798Y-82797711D01*
X106812925Y-82798355D01*
X106917280Y-82788858D01*
X107003749Y-82780989D01*
X107003752Y-82780988D01*
X107009888Y-82780430D01*
X107015794Y-82778692D01*
X107015798Y-82778691D01*
X107120924Y-82747751D01*
X107199619Y-82724590D01*
X107205077Y-82721737D01*
X107205081Y-82721735D01*
X107307440Y-82668222D01*
X107374890Y-82632960D01*
X107529025Y-82509032D01*
X107656154Y-82357526D01*
X107659121Y-82352128D01*
X107659125Y-82352123D01*
X107748467Y-82189608D01*
X107751433Y-82184213D01*
X107753846Y-82176608D01*
X107809373Y-82001564D01*
X107809373Y-82001563D01*
X107811235Y-81995694D01*
X107828500Y-81841773D01*
X107828500Y-81135231D01*
X107827814Y-81128227D01*
X107822463Y-81073660D01*
X107814080Y-80988167D01*
X107756916Y-80798831D01*
X107664066Y-80624204D01*
X107590408Y-80533891D01*
X107542960Y-80475713D01*
X107542957Y-80475710D01*
X107539065Y-80470938D01*
X107532724Y-80465692D01*
X107391425Y-80348799D01*
X107391421Y-80348797D01*
X107386675Y-80344870D01*
X107212701Y-80250802D01*
X107023768Y-80192318D01*
X107017643Y-80191674D01*
X107017642Y-80191674D01*
X106833204Y-80172289D01*
X106833202Y-80172289D01*
X106827075Y-80171645D01*
X106744576Y-80179153D01*
X106636251Y-80189011D01*
X106636248Y-80189012D01*
X106630112Y-80189570D01*
X106624206Y-80191308D01*
X106624202Y-80191309D01*
X106519076Y-80222249D01*
X106440381Y-80245410D01*
X106434923Y-80248263D01*
X106434919Y-80248265D01*
X106344147Y-80295720D01*
X106265110Y-80337040D01*
X106110975Y-80460968D01*
X105983846Y-80612474D01*
X105980879Y-80617872D01*
X105980875Y-80617877D01*
X105977397Y-80624204D01*
X105888567Y-80785787D01*
X105886706Y-80791654D01*
X105886705Y-80791656D01*
X105864056Y-80863056D01*
X105828765Y-80974306D01*
X105811500Y-81128227D01*
X105811500Y-81834769D01*
X99188500Y-81834769D01*
X99188500Y-81135231D01*
X99187814Y-81128227D01*
X99182463Y-81073660D01*
X99174080Y-80988167D01*
X99116916Y-80798831D01*
X99024066Y-80624204D01*
X98950408Y-80533891D01*
X98902960Y-80475713D01*
X98902957Y-80475710D01*
X98899065Y-80470938D01*
X98892724Y-80465692D01*
X98751425Y-80348799D01*
X98751421Y-80348797D01*
X98746675Y-80344870D01*
X98572701Y-80250802D01*
X98383768Y-80192318D01*
X98377643Y-80191674D01*
X98377642Y-80191674D01*
X98193204Y-80172289D01*
X98193202Y-80172289D01*
X98187075Y-80171645D01*
X98104576Y-80179153D01*
X97996251Y-80189011D01*
X97996248Y-80189012D01*
X97990112Y-80189570D01*
X97984206Y-80191308D01*
X97984202Y-80191309D01*
X97879076Y-80222249D01*
X97800381Y-80245410D01*
X97794923Y-80248263D01*
X97794919Y-80248265D01*
X97704147Y-80295720D01*
X97625110Y-80337040D01*
X97470975Y-80460968D01*
X97343846Y-80612474D01*
X97340879Y-80617872D01*
X97340875Y-80617877D01*
X97337397Y-80624204D01*
X97248567Y-80785787D01*
X97246706Y-80791654D01*
X97246705Y-80791656D01*
X97224056Y-80863056D01*
X97188765Y-80974306D01*
X97171500Y-81128227D01*
X97171500Y-81834769D01*
X94637213Y-81834769D01*
X94551425Y-81763799D01*
X94551421Y-81763797D01*
X94546675Y-81759870D01*
X94372701Y-81665802D01*
X94183768Y-81607318D01*
X94177643Y-81606674D01*
X94177642Y-81606674D01*
X93993204Y-81587289D01*
X93993202Y-81587289D01*
X93987075Y-81586645D01*
X93904576Y-81594153D01*
X93796251Y-81604011D01*
X93796248Y-81604012D01*
X93790112Y-81604570D01*
X93784206Y-81606308D01*
X93784202Y-81606309D01*
X93687581Y-81634746D01*
X93600381Y-81660410D01*
X93594923Y-81663263D01*
X93594919Y-81663265D01*
X93544215Y-81689773D01*
X93425110Y-81752040D01*
X93420310Y-81755900D01*
X93415153Y-81759274D01*
X93413769Y-81757158D01*
X93358365Y-81780027D01*
X93288512Y-81767334D01*
X93278898Y-81761709D01*
X93276675Y-81759870D01*
X93102701Y-81665802D01*
X92913768Y-81607318D01*
X92907643Y-81606674D01*
X92907642Y-81606674D01*
X92723204Y-81587289D01*
X92723202Y-81587289D01*
X92717075Y-81586645D01*
X92634576Y-81594153D01*
X92526251Y-81604011D01*
X92526248Y-81604012D01*
X92520112Y-81604570D01*
X92514206Y-81606308D01*
X92514202Y-81606309D01*
X92417581Y-81634746D01*
X92330381Y-81660410D01*
X92324923Y-81663263D01*
X92324919Y-81663265D01*
X92274215Y-81689773D01*
X92155110Y-81752040D01*
X92150310Y-81755900D01*
X92145153Y-81759274D01*
X92143769Y-81757158D01*
X92088365Y-81780027D01*
X92018512Y-81767334D01*
X92008898Y-81761709D01*
X92006675Y-81759870D01*
X91832701Y-81665802D01*
X91643768Y-81607318D01*
X91637643Y-81606674D01*
X91637642Y-81606674D01*
X91453204Y-81587289D01*
X91453202Y-81587289D01*
X91447075Y-81586645D01*
X91364576Y-81594153D01*
X91256251Y-81604011D01*
X91256248Y-81604012D01*
X91250112Y-81604570D01*
X91244206Y-81606308D01*
X91244202Y-81606309D01*
X91147581Y-81634746D01*
X91060381Y-81660410D01*
X91054923Y-81663263D01*
X91054919Y-81663265D01*
X91004215Y-81689773D01*
X90885110Y-81752040D01*
X90880310Y-81755900D01*
X90875153Y-81759274D01*
X90873769Y-81757158D01*
X90818365Y-81780027D01*
X90748512Y-81767334D01*
X90738898Y-81761709D01*
X90736675Y-81759870D01*
X90562701Y-81665802D01*
X90373768Y-81607318D01*
X90367643Y-81606674D01*
X90367642Y-81606674D01*
X90183204Y-81587289D01*
X90183202Y-81587289D01*
X90177075Y-81586645D01*
X90094576Y-81594153D01*
X89986251Y-81604011D01*
X89986248Y-81604012D01*
X89980112Y-81604570D01*
X89974206Y-81606308D01*
X89974202Y-81606309D01*
X89877581Y-81634746D01*
X89790381Y-81660410D01*
X89784923Y-81663263D01*
X89784919Y-81663265D01*
X89734215Y-81689773D01*
X89615110Y-81752040D01*
X89460975Y-81875968D01*
X89333846Y-82027474D01*
X89330879Y-82032872D01*
X89330875Y-82032877D01*
X89254850Y-82171169D01*
X89238567Y-82200787D01*
X89236706Y-82206654D01*
X89236705Y-82206656D01*
X89204398Y-82308500D01*
X89178765Y-82389306D01*
X89156719Y-82585851D01*
X89173268Y-82782934D01*
X89177530Y-82797796D01*
X89210008Y-82911060D01*
X89227783Y-82973050D01*
X89230602Y-82978535D01*
X89314890Y-83142540D01*
X89318187Y-83148956D01*
X89441035Y-83303953D01*
X89445728Y-83307947D01*
X89445729Y-83307948D01*
X89576051Y-83418860D01*
X89591650Y-83432136D01*
X89764294Y-83528624D01*
X89770157Y-83530529D01*
X89816747Y-83545667D01*
X89875353Y-83585740D01*
X89902991Y-83651136D01*
X89890885Y-83721093D01*
X89842879Y-83773400D01*
X89777812Y-83791500D01*
X64640366Y-83791500D01*
X64624527Y-83790500D01*
X64591684Y-83786338D01*
X64565635Y-83790500D01*
X64524813Y-83797022D01*
X64522797Y-83797327D01*
X64489462Y-83802101D01*
X64455813Y-83806920D01*
X64451992Y-83808657D01*
X64447851Y-83809319D01*
X64386629Y-83838360D01*
X64384874Y-83839175D01*
X64331205Y-83863576D01*
X64331199Y-83863579D01*
X64323218Y-83867208D01*
X64320039Y-83869947D01*
X64316249Y-83871745D01*
X64309704Y-83877572D01*
X64309697Y-83877577D01*
X64265697Y-83916748D01*
X64264166Y-83918089D01*
X64219676Y-83956425D01*
X64212873Y-83962287D01*
X64207988Y-83969824D01*
X64192729Y-83993364D01*
X64184267Y-84004922D01*
X64052534Y-84164884D01*
X63993792Y-84204751D01*
X63922817Y-84206531D01*
X63862147Y-84169657D01*
X63831505Y-84108393D01*
X63805071Y-83969824D01*
X63797445Y-83929846D01*
X63703794Y-83641619D01*
X63690402Y-83613158D01*
X63649136Y-83525464D01*
X63574758Y-83367402D01*
X63412370Y-83111520D01*
X63219192Y-82878008D01*
X62998271Y-82670550D01*
X62753090Y-82492416D01*
X62629038Y-82424217D01*
X62490986Y-82348322D01*
X62490985Y-82348321D01*
X62487517Y-82346415D01*
X62483848Y-82344962D01*
X62483843Y-82344960D01*
X62209409Y-82236304D01*
X62209408Y-82236304D01*
X62205739Y-82234851D01*
X62201923Y-82233871D01*
X62201907Y-82233866D01*
X62162601Y-82223774D01*
X62101595Y-82187459D01*
X62069907Y-82123927D01*
X62077597Y-82053348D01*
X62119809Y-82003339D01*
X62118528Y-82001834D01*
X62125367Y-81996014D01*
X62132958Y-81991224D01*
X62150340Y-81971542D01*
X62163525Y-81958651D01*
X62183602Y-81941712D01*
X62188563Y-81934230D01*
X62188566Y-81934226D01*
X62199620Y-81917553D01*
X62210193Y-81903772D01*
X62223438Y-81888775D01*
X62223439Y-81888774D01*
X62229378Y-81882049D01*
X62234047Y-81872104D01*
X62240540Y-81858276D01*
X62249579Y-81842200D01*
X62249862Y-81841773D01*
X62264090Y-81820313D01*
X62272683Y-81792627D01*
X62278963Y-81776435D01*
X62291281Y-81750200D01*
X62295321Y-81724251D01*
X62299483Y-81706288D01*
X62307270Y-81681203D01*
X62307847Y-81646181D01*
X62308007Y-81642776D01*
X62308500Y-81639614D01*
X62308500Y-81607673D01*
X62308517Y-81605595D01*
X62309524Y-81544539D01*
X62309672Y-81535565D01*
X62308728Y-81532127D01*
X62308500Y-81528507D01*
X62308500Y-78100000D01*
X88986496Y-78100000D01*
X88987186Y-78106565D01*
X89000607Y-78234255D01*
X89006458Y-78289928D01*
X89065473Y-78471556D01*
X89068776Y-78477278D01*
X89068777Y-78477279D01*
X89085555Y-78506339D01*
X89160960Y-78636944D01*
X89165378Y-78641851D01*
X89165379Y-78641852D01*
X89176852Y-78654594D01*
X89288747Y-78778866D01*
X89312784Y-78796330D01*
X89411918Y-78868355D01*
X89443248Y-78891118D01*
X89449276Y-78893802D01*
X89449278Y-78893803D01*
X89611681Y-78966109D01*
X89617712Y-78968794D01*
X89711113Y-78988647D01*
X89798056Y-79007128D01*
X89798061Y-79007128D01*
X89804513Y-79008500D01*
X89995487Y-79008500D01*
X90001939Y-79007128D01*
X90001944Y-79007128D01*
X90088887Y-78988647D01*
X90182288Y-78968794D01*
X90188319Y-78966109D01*
X90350722Y-78893803D01*
X90350724Y-78893802D01*
X90356752Y-78891118D01*
X90388083Y-78868355D01*
X90487216Y-78796330D01*
X90511253Y-78778866D01*
X90623148Y-78654594D01*
X90634621Y-78641852D01*
X90634622Y-78641851D01*
X90639040Y-78636944D01*
X90714445Y-78506339D01*
X90731223Y-78477279D01*
X90731224Y-78477278D01*
X90734527Y-78471556D01*
X90793542Y-78289928D01*
X90799394Y-78234255D01*
X90812814Y-78106565D01*
X90813504Y-78100000D01*
X90807797Y-78045699D01*
X90794232Y-77916635D01*
X90794232Y-77916633D01*
X90793542Y-77910072D01*
X90791819Y-77904769D01*
X97171500Y-77904769D01*
X97171800Y-77907825D01*
X97171800Y-77907832D01*
X97172530Y-77915273D01*
X97185920Y-78051833D01*
X97243084Y-78241169D01*
X97335934Y-78415796D01*
X97400421Y-78494865D01*
X97457040Y-78564287D01*
X97457043Y-78564290D01*
X97460935Y-78569062D01*
X97465682Y-78572989D01*
X97465684Y-78572991D01*
X97608575Y-78691201D01*
X97608579Y-78691203D01*
X97613325Y-78695130D01*
X97787299Y-78789198D01*
X97976232Y-78847682D01*
X97982357Y-78848326D01*
X97982358Y-78848326D01*
X98166796Y-78867711D01*
X98166798Y-78867711D01*
X98172925Y-78868355D01*
X98255424Y-78860847D01*
X98363749Y-78850989D01*
X98363752Y-78850988D01*
X98369888Y-78850430D01*
X98375794Y-78848692D01*
X98375798Y-78848691D01*
X98480924Y-78817751D01*
X98559619Y-78794590D01*
X98565077Y-78791737D01*
X98565081Y-78791735D01*
X98655853Y-78744280D01*
X98734890Y-78702960D01*
X98889025Y-78579032D01*
X98937400Y-78521381D01*
X98996507Y-78482056D01*
X99067494Y-78480930D01*
X99110448Y-78502278D01*
X99170257Y-78548006D01*
X99170261Y-78548009D01*
X99175678Y-78552150D01*
X99262372Y-78592576D01*
X99333631Y-78625805D01*
X99333634Y-78625806D01*
X99339808Y-78628685D01*
X99346456Y-78630171D01*
X99346459Y-78630172D01*
X99452421Y-78653857D01*
X99516543Y-78668190D01*
X99522088Y-78668500D01*
X99655244Y-78668500D01*
X99790037Y-78653857D01*
X99908190Y-78614094D01*
X99955204Y-78598272D01*
X99955206Y-78598271D01*
X99961675Y-78596094D01*
X100116905Y-78502823D01*
X100121862Y-78498135D01*
X100121865Y-78498133D01*
X100243527Y-78383082D01*
X100243529Y-78383080D01*
X100248485Y-78378393D01*
X100252317Y-78372755D01*
X100252320Y-78372751D01*
X100346442Y-78234255D01*
X100350277Y-78228612D01*
X100417530Y-78060466D01*
X100418644Y-78053738D01*
X100418645Y-78053734D01*
X100445993Y-77888539D01*
X100445993Y-77888536D01*
X100447108Y-77881802D01*
X100442203Y-77788198D01*
X104552892Y-77788198D01*
X104553249Y-77795015D01*
X104553249Y-77795019D01*
X104558151Y-77888539D01*
X104562370Y-77969047D01*
X104564181Y-77975620D01*
X104564181Y-77975623D01*
X104586799Y-78057736D01*
X104610461Y-78143641D01*
X104694922Y-78303836D01*
X104699327Y-78309049D01*
X104699330Y-78309053D01*
X104807406Y-78436943D01*
X104807410Y-78436947D01*
X104811813Y-78442157D01*
X104817237Y-78446304D01*
X104817238Y-78446305D01*
X104950257Y-78548006D01*
X104950261Y-78548009D01*
X104955678Y-78552150D01*
X105042372Y-78592576D01*
X105113631Y-78625805D01*
X105113634Y-78625806D01*
X105119808Y-78628685D01*
X105126456Y-78630171D01*
X105126459Y-78630172D01*
X105232421Y-78653857D01*
X105296543Y-78668190D01*
X105302088Y-78668500D01*
X105435244Y-78668500D01*
X105570037Y-78653857D01*
X105688190Y-78614094D01*
X105735204Y-78598272D01*
X105735206Y-78598271D01*
X105741675Y-78596094D01*
X105896905Y-78502823D01*
X105897329Y-78503528D01*
X105958520Y-78480238D01*
X106027993Y-78494865D01*
X106065992Y-78526218D01*
X106100935Y-78569062D01*
X106105682Y-78572989D01*
X106105684Y-78572991D01*
X106248575Y-78691201D01*
X106248579Y-78691203D01*
X106253325Y-78695130D01*
X106427299Y-78789198D01*
X106616232Y-78847682D01*
X106622357Y-78848326D01*
X106622358Y-78848326D01*
X106806796Y-78867711D01*
X106806798Y-78867711D01*
X106812925Y-78868355D01*
X106895424Y-78860847D01*
X107003749Y-78850989D01*
X107003752Y-78850988D01*
X107009888Y-78850430D01*
X107015794Y-78848692D01*
X107015798Y-78848691D01*
X107120924Y-78817751D01*
X107199619Y-78794590D01*
X107205077Y-78791737D01*
X107205081Y-78791735D01*
X107295853Y-78744280D01*
X107374890Y-78702960D01*
X107529025Y-78579032D01*
X107656154Y-78427526D01*
X107659121Y-78422128D01*
X107659125Y-78422123D01*
X107748467Y-78259608D01*
X107751433Y-78254213D01*
X107753846Y-78246608D01*
X107809373Y-78071564D01*
X107809373Y-78071563D01*
X107811235Y-78065694D01*
X107828500Y-77911773D01*
X107828500Y-76705231D01*
X107827814Y-76698227D01*
X107817194Y-76589928D01*
X107814080Y-76558167D01*
X107756916Y-76368831D01*
X107664066Y-76194204D01*
X107593709Y-76107938D01*
X107542960Y-76045713D01*
X107542957Y-76045710D01*
X107539065Y-76040938D01*
X107531560Y-76034729D01*
X107391425Y-75918799D01*
X107391421Y-75918797D01*
X107386675Y-75914870D01*
X107212701Y-75820802D01*
X107023768Y-75762318D01*
X107017643Y-75761674D01*
X107017642Y-75761674D01*
X106833204Y-75742289D01*
X106833202Y-75742289D01*
X106827075Y-75741645D01*
X106744576Y-75749153D01*
X106636251Y-75759011D01*
X106636248Y-75759012D01*
X106630112Y-75759570D01*
X106624206Y-75761308D01*
X106624202Y-75761309D01*
X106529552Y-75789166D01*
X106440381Y-75815410D01*
X106434923Y-75818263D01*
X106434919Y-75818265D01*
X106358631Y-75858148D01*
X106265110Y-75907040D01*
X106110975Y-76030968D01*
X105983846Y-76182474D01*
X105980879Y-76187872D01*
X105980875Y-76187877D01*
X105902095Y-76331180D01*
X105888567Y-76355787D01*
X105886706Y-76361654D01*
X105886705Y-76361656D01*
X105876624Y-76393435D01*
X105828765Y-76544306D01*
X105811500Y-76698227D01*
X105811500Y-76917862D01*
X105791498Y-76985983D01*
X105737842Y-77032476D01*
X105667568Y-77042580D01*
X105658014Y-77040828D01*
X105488494Y-77002936D01*
X105488495Y-77002936D01*
X105483457Y-77001810D01*
X105477912Y-77001500D01*
X105344756Y-77001500D01*
X105209963Y-77016143D01*
X105095070Y-77054809D01*
X105044796Y-77071728D01*
X105044794Y-77071729D01*
X105038325Y-77073906D01*
X104883095Y-77167177D01*
X104878138Y-77171865D01*
X104878135Y-77171867D01*
X104774188Y-77270166D01*
X104751515Y-77291607D01*
X104747683Y-77297245D01*
X104747680Y-77297249D01*
X104696740Y-77372205D01*
X104649723Y-77441388D01*
X104582470Y-77609534D01*
X104581356Y-77616262D01*
X104581355Y-77616266D01*
X104554007Y-77781461D01*
X104552892Y-77788198D01*
X100442203Y-77788198D01*
X100437987Y-77707766D01*
X100437630Y-77700953D01*
X100434594Y-77689928D01*
X100391352Y-77532941D01*
X100389539Y-77526359D01*
X100305078Y-77366164D01*
X100300673Y-77360951D01*
X100300670Y-77360947D01*
X100192594Y-77233057D01*
X100192590Y-77233053D01*
X100188187Y-77227843D01*
X100182762Y-77223695D01*
X100049743Y-77121994D01*
X100049739Y-77121991D01*
X100044322Y-77117850D01*
X99909130Y-77054809D01*
X99886369Y-77044195D01*
X99886366Y-77044194D01*
X99880192Y-77041315D01*
X99873544Y-77039829D01*
X99873541Y-77039828D01*
X99708494Y-77002936D01*
X99708495Y-77002936D01*
X99703457Y-77001810D01*
X99697912Y-77001500D01*
X99564756Y-77001500D01*
X99429963Y-77016143D01*
X99354688Y-77041476D01*
X99283747Y-77044246D01*
X99222568Y-77008223D01*
X99190577Y-76944842D01*
X99188500Y-76922057D01*
X99188500Y-76705231D01*
X99187814Y-76698227D01*
X99177194Y-76589928D01*
X99174080Y-76558167D01*
X99116916Y-76368831D01*
X99024066Y-76194204D01*
X98953709Y-76107938D01*
X98902960Y-76045713D01*
X98902957Y-76045710D01*
X98899065Y-76040938D01*
X98887014Y-76030968D01*
X98848087Y-75998766D01*
X98751639Y-75918977D01*
X98711902Y-75860144D01*
X98710279Y-75789166D01*
X98747288Y-75728579D01*
X98811178Y-75697618D01*
X98858151Y-75698646D01*
X98892892Y-75706030D01*
X98904513Y-75708500D01*
X99095487Y-75708500D01*
X99101939Y-75707128D01*
X99101944Y-75707128D01*
X99188888Y-75688647D01*
X99282288Y-75668794D01*
X99298828Y-75661430D01*
X99450722Y-75593803D01*
X99450724Y-75593802D01*
X99456752Y-75591118D01*
X99611253Y-75478866D01*
X99739040Y-75336944D01*
X99834527Y-75171556D01*
X99893542Y-74989928D01*
X99900752Y-74921329D01*
X99927765Y-74855673D01*
X99985987Y-74815043D01*
X100026062Y-74808500D01*
X100095487Y-74808500D01*
X100101939Y-74807128D01*
X100101944Y-74807128D01*
X100188888Y-74788647D01*
X100282288Y-74768794D01*
X100288319Y-74766109D01*
X100450722Y-74693803D01*
X100450724Y-74693802D01*
X100456752Y-74691118D01*
X100611253Y-74578866D01*
X100619470Y-74569740D01*
X100734621Y-74441852D01*
X100734622Y-74441851D01*
X100739040Y-74436944D01*
X100834527Y-74271556D01*
X100893542Y-74089928D01*
X100913504Y-73900000D01*
X100909890Y-73865619D01*
X100897739Y-73750000D01*
X102836496Y-73750000D01*
X102837186Y-73756565D01*
X102842841Y-73810365D01*
X102856458Y-73939928D01*
X102915473Y-74121556D01*
X103010960Y-74286944D01*
X103015378Y-74291851D01*
X103015379Y-74291852D01*
X103035196Y-74313861D01*
X103138747Y-74428866D01*
X103151875Y-74438404D01*
X103270786Y-74524798D01*
X103293248Y-74541118D01*
X103299276Y-74543802D01*
X103299278Y-74543803D01*
X103386753Y-74582749D01*
X103467712Y-74618794D01*
X103561112Y-74638647D01*
X103648056Y-74657128D01*
X103648061Y-74657128D01*
X103654513Y-74658500D01*
X103845487Y-74658500D01*
X103851939Y-74657128D01*
X103851944Y-74657128D01*
X103938888Y-74638647D01*
X104032288Y-74618794D01*
X104113247Y-74582749D01*
X104200722Y-74543803D01*
X104200724Y-74543802D01*
X104206752Y-74541118D01*
X104229215Y-74524798D01*
X104348125Y-74438404D01*
X104361253Y-74428866D01*
X104464804Y-74313861D01*
X104484621Y-74291852D01*
X104484622Y-74291851D01*
X104489040Y-74286944D01*
X104584527Y-74121556D01*
X104643542Y-73939928D01*
X104657160Y-73810365D01*
X104662814Y-73756565D01*
X104663504Y-73750000D01*
X104648979Y-73611799D01*
X104644232Y-73566635D01*
X104644232Y-73566633D01*
X104643542Y-73560072D01*
X104584527Y-73378444D01*
X104489040Y-73213056D01*
X104466833Y-73188392D01*
X104365675Y-73076045D01*
X104365674Y-73076044D01*
X104361253Y-73071134D01*
X104206752Y-72958882D01*
X104200724Y-72956198D01*
X104200722Y-72956197D01*
X104038319Y-72883891D01*
X104038318Y-72883891D01*
X104032288Y-72881206D01*
X103927611Y-72858956D01*
X103851944Y-72842872D01*
X103851939Y-72842872D01*
X103845487Y-72841500D01*
X103654513Y-72841500D01*
X103648061Y-72842872D01*
X103648056Y-72842872D01*
X103572389Y-72858956D01*
X103467712Y-72881206D01*
X103461682Y-72883891D01*
X103461681Y-72883891D01*
X103299278Y-72956197D01*
X103299276Y-72956198D01*
X103293248Y-72958882D01*
X103138747Y-73071134D01*
X103134326Y-73076044D01*
X103134325Y-73076045D01*
X103033168Y-73188392D01*
X103010960Y-73213056D01*
X102915473Y-73378444D01*
X102856458Y-73560072D01*
X102855768Y-73566633D01*
X102855768Y-73566635D01*
X102851021Y-73611799D01*
X102836496Y-73750000D01*
X100897739Y-73750000D01*
X100894232Y-73716635D01*
X100894232Y-73716633D01*
X100893542Y-73710072D01*
X100834527Y-73528444D01*
X100739040Y-73363056D01*
X100682416Y-73300168D01*
X100615675Y-73226045D01*
X100615674Y-73226044D01*
X100611253Y-73221134D01*
X100456752Y-73108882D01*
X100450724Y-73106198D01*
X100450722Y-73106197D01*
X100288319Y-73033891D01*
X100288318Y-73033891D01*
X100282288Y-73031206D01*
X100188888Y-73011353D01*
X100101944Y-72992872D01*
X100101939Y-72992872D01*
X100095487Y-72991500D01*
X99904513Y-72991500D01*
X99898061Y-72992872D01*
X99898056Y-72992872D01*
X99811112Y-73011353D01*
X99717712Y-73031206D01*
X99711682Y-73033891D01*
X99711681Y-73033891D01*
X99549278Y-73106197D01*
X99549276Y-73106198D01*
X99543248Y-73108882D01*
X99388747Y-73221134D01*
X99384326Y-73226044D01*
X99384325Y-73226045D01*
X99317585Y-73300168D01*
X99260960Y-73363056D01*
X99165473Y-73528444D01*
X99106458Y-73710072D01*
X99105768Y-73716635D01*
X99105768Y-73716636D01*
X99099248Y-73778671D01*
X99072235Y-73844327D01*
X99014013Y-73884957D01*
X98973938Y-73891500D01*
X98904513Y-73891500D01*
X98898061Y-73892872D01*
X98898056Y-73892872D01*
X98833638Y-73906565D01*
X98717712Y-73931206D01*
X98711682Y-73933891D01*
X98711681Y-73933891D01*
X98549278Y-74006197D01*
X98549276Y-74006198D01*
X98543248Y-74008882D01*
X98388747Y-74121134D01*
X98260960Y-74263056D01*
X98231628Y-74313861D01*
X98173154Y-74415141D01*
X98165473Y-74428444D01*
X98106458Y-74610072D01*
X98086496Y-74800000D01*
X98106458Y-74989928D01*
X98165473Y-75171556D01*
X98260960Y-75336944D01*
X98388747Y-75478866D01*
X98408025Y-75492872D01*
X98465280Y-75534471D01*
X98508634Y-75590694D01*
X98514709Y-75661430D01*
X98481577Y-75724222D01*
X98419757Y-75759133D01*
X98378049Y-75761717D01*
X98277858Y-75751187D01*
X98193203Y-75742289D01*
X98193202Y-75742289D01*
X98187075Y-75741645D01*
X98104576Y-75749153D01*
X97996251Y-75759011D01*
X97996248Y-75759012D01*
X97990112Y-75759570D01*
X97984206Y-75761308D01*
X97984202Y-75761309D01*
X97889552Y-75789166D01*
X97800381Y-75815410D01*
X97794923Y-75818263D01*
X97794919Y-75818265D01*
X97718631Y-75858148D01*
X97625110Y-75907040D01*
X97470975Y-76030968D01*
X97343846Y-76182474D01*
X97340879Y-76187872D01*
X97340875Y-76187877D01*
X97262095Y-76331180D01*
X97248567Y-76355787D01*
X97246706Y-76361654D01*
X97246705Y-76361656D01*
X97236624Y-76393435D01*
X97188765Y-76544306D01*
X97171500Y-76698227D01*
X97171500Y-77904769D01*
X90791819Y-77904769D01*
X90734527Y-77728444D01*
X90639040Y-77563056D01*
X90611925Y-77532941D01*
X90515675Y-77426045D01*
X90515674Y-77426044D01*
X90511253Y-77421134D01*
X90356752Y-77308882D01*
X90350724Y-77306198D01*
X90350722Y-77306197D01*
X90188319Y-77233891D01*
X90188318Y-77233891D01*
X90182288Y-77231206D01*
X90088888Y-77211353D01*
X90001944Y-77192872D01*
X90001939Y-77192872D01*
X89995487Y-77191500D01*
X89804513Y-77191500D01*
X89798061Y-77192872D01*
X89798056Y-77192872D01*
X89711112Y-77211353D01*
X89617712Y-77231206D01*
X89611682Y-77233891D01*
X89611681Y-77233891D01*
X89449278Y-77306197D01*
X89449276Y-77306198D01*
X89443248Y-77308882D01*
X89288747Y-77421134D01*
X89284326Y-77426044D01*
X89284325Y-77426045D01*
X89188076Y-77532941D01*
X89160960Y-77563056D01*
X89065473Y-77728444D01*
X89006458Y-77910072D01*
X89005768Y-77916633D01*
X89005768Y-77916635D01*
X88992203Y-78045699D01*
X88986496Y-78100000D01*
X62308500Y-78100000D01*
X62308500Y-76400000D01*
X65686496Y-76400000D01*
X65687186Y-76406565D01*
X65703765Y-76564301D01*
X65706458Y-76589928D01*
X65765473Y-76771556D01*
X65860960Y-76936944D01*
X65865378Y-76941851D01*
X65865379Y-76941852D01*
X65946977Y-77032476D01*
X65988747Y-77078866D01*
X66143248Y-77191118D01*
X66149276Y-77193802D01*
X66149278Y-77193803D01*
X66237445Y-77233057D01*
X66317712Y-77268794D01*
X66402978Y-77286918D01*
X66498056Y-77307128D01*
X66498061Y-77307128D01*
X66504513Y-77308500D01*
X66695487Y-77308500D01*
X66701939Y-77307128D01*
X66701944Y-77307128D01*
X66797022Y-77286918D01*
X66882288Y-77268794D01*
X66962555Y-77233057D01*
X67050722Y-77193803D01*
X67050724Y-77193802D01*
X67056752Y-77191118D01*
X67211253Y-77078866D01*
X67253023Y-77032476D01*
X67334621Y-76941852D01*
X67334622Y-76941851D01*
X67339040Y-76936944D01*
X67434527Y-76771556D01*
X67493542Y-76589928D01*
X67496236Y-76564301D01*
X67512814Y-76406565D01*
X67513504Y-76400000D01*
X67493542Y-76210072D01*
X67434527Y-76028444D01*
X67339040Y-75863056D01*
X67300995Y-75820802D01*
X67215675Y-75726045D01*
X67215674Y-75726044D01*
X67211253Y-75721134D01*
X67056752Y-75608882D01*
X67050724Y-75606198D01*
X67050722Y-75606197D01*
X66888319Y-75533891D01*
X66888318Y-75533891D01*
X66882288Y-75531206D01*
X66788887Y-75511353D01*
X66701944Y-75492872D01*
X66701939Y-75492872D01*
X66695487Y-75491500D01*
X66504513Y-75491500D01*
X66498061Y-75492872D01*
X66498056Y-75492872D01*
X66411113Y-75511353D01*
X66317712Y-75531206D01*
X66311682Y-75533891D01*
X66311681Y-75533891D01*
X66149278Y-75606197D01*
X66149276Y-75606198D01*
X66143248Y-75608882D01*
X65988747Y-75721134D01*
X65984326Y-75726044D01*
X65984325Y-75726045D01*
X65899006Y-75820802D01*
X65860960Y-75863056D01*
X65765473Y-76028444D01*
X65706458Y-76210072D01*
X65686496Y-76400000D01*
X62308500Y-76400000D01*
X62308500Y-73980233D01*
X62328502Y-73912112D01*
X62382158Y-73865619D01*
X62452432Y-73855515D01*
X62517012Y-73885009D01*
X62553162Y-73941655D01*
X62553816Y-73941396D01*
X62555154Y-73944775D01*
X62555619Y-73945504D01*
X62556082Y-73947120D01*
X62556084Y-73947125D01*
X62557783Y-73953050D01*
X62648187Y-74128956D01*
X62771035Y-74283953D01*
X62921650Y-74412136D01*
X63094294Y-74508624D01*
X63282392Y-74569740D01*
X63478777Y-74593158D01*
X63484912Y-74592686D01*
X63484914Y-74592686D01*
X63669830Y-74578457D01*
X63669834Y-74578456D01*
X63675972Y-74577984D01*
X63866463Y-74524798D01*
X63871967Y-74522018D01*
X63871969Y-74522017D01*
X64037495Y-74438404D01*
X64037497Y-74438403D01*
X64042996Y-74435625D01*
X64198847Y-74313861D01*
X64328078Y-74164145D01*
X64425769Y-73992179D01*
X64488197Y-73804513D01*
X64512985Y-73608295D01*
X64513380Y-73580000D01*
X64494080Y-73383167D01*
X64489735Y-73368774D01*
X64445159Y-73221134D01*
X64436916Y-73193831D01*
X64344066Y-73019204D01*
X64340167Y-73014424D01*
X64339715Y-73013743D01*
X64318676Y-72945935D01*
X64335105Y-72881775D01*
X64422723Y-72727542D01*
X64422725Y-72727537D01*
X64425769Y-72722179D01*
X64488197Y-72534513D01*
X64512985Y-72338295D01*
X64513380Y-72310000D01*
X64494080Y-72113167D01*
X64436916Y-71923831D01*
X64344066Y-71749204D01*
X64340167Y-71744424D01*
X64339715Y-71743743D01*
X64318676Y-71675935D01*
X64335105Y-71611775D01*
X64422723Y-71457542D01*
X64422725Y-71457537D01*
X64425769Y-71452179D01*
X64488197Y-71264513D01*
X64512985Y-71068295D01*
X64513380Y-71040000D01*
X64494080Y-70843167D01*
X64491533Y-70834729D01*
X64448984Y-70693803D01*
X64436916Y-70653831D01*
X64344066Y-70479204D01*
X64340167Y-70474424D01*
X64339715Y-70473743D01*
X64318676Y-70405935D01*
X64335105Y-70341775D01*
X64347570Y-70319834D01*
X64368759Y-70282534D01*
X64422723Y-70187542D01*
X64422725Y-70187537D01*
X64425769Y-70182179D01*
X64488197Y-69994513D01*
X64500137Y-69900000D01*
X72386496Y-69900000D01*
X72387186Y-69906565D01*
X72396430Y-69994513D01*
X72406458Y-70089928D01*
X72465473Y-70271556D01*
X72468776Y-70277278D01*
X72468777Y-70277279D01*
X72502686Y-70336010D01*
X72560960Y-70436944D01*
X72565378Y-70441851D01*
X72565379Y-70441852D01*
X72627761Y-70511134D01*
X72688747Y-70578866D01*
X72843248Y-70691118D01*
X72849276Y-70693802D01*
X72849278Y-70693803D01*
X73011681Y-70766109D01*
X73017712Y-70768794D01*
X73145541Y-70795965D01*
X73198062Y-70807129D01*
X73198064Y-70807129D01*
X73199645Y-70807465D01*
X73199647Y-70807466D01*
X73204513Y-70808500D01*
X73204324Y-70809390D01*
X73264746Y-70834252D01*
X73305374Y-70892476D01*
X73308074Y-70963421D01*
X73305747Y-70971484D01*
X73298498Y-70993792D01*
X73298498Y-70993794D01*
X73296458Y-71000072D01*
X73295768Y-71006633D01*
X73295768Y-71006635D01*
X73289235Y-71068794D01*
X73276496Y-71190000D01*
X73277186Y-71196565D01*
X73295637Y-71372112D01*
X73296458Y-71379928D01*
X73355473Y-71561556D01*
X73358776Y-71567278D01*
X73358777Y-71567279D01*
X73413406Y-71661898D01*
X73450960Y-71726944D01*
X73453038Y-71729252D01*
X73476461Y-71794900D01*
X73459785Y-71865091D01*
X73427429Y-71921134D01*
X73365473Y-72028444D01*
X73306458Y-72210072D01*
X73305768Y-72216633D01*
X73305768Y-72216635D01*
X73304527Y-72228444D01*
X73286496Y-72400000D01*
X73306458Y-72589928D01*
X73365473Y-72771556D01*
X73460960Y-72936944D01*
X73465378Y-72941851D01*
X73465379Y-72941852D01*
X73486466Y-72965271D01*
X73588747Y-73078866D01*
X73687843Y-73150864D01*
X73737107Y-73186656D01*
X73743248Y-73191118D01*
X73749276Y-73193802D01*
X73749278Y-73193803D01*
X73881180Y-73252529D01*
X73917712Y-73268794D01*
X73983365Y-73282749D01*
X74098056Y-73307128D01*
X74098061Y-73307128D01*
X74104513Y-73308500D01*
X74295487Y-73308500D01*
X74301939Y-73307128D01*
X74301944Y-73307128D01*
X74416635Y-73282749D01*
X74482288Y-73268794D01*
X74518820Y-73252529D01*
X74650722Y-73193803D01*
X74650724Y-73193802D01*
X74656752Y-73191118D01*
X74662894Y-73186656D01*
X74712157Y-73150864D01*
X74811253Y-73078866D01*
X74913534Y-72965271D01*
X74934621Y-72941852D01*
X74934622Y-72941851D01*
X74939040Y-72936944D01*
X75034527Y-72771556D01*
X75090269Y-72600000D01*
X108486496Y-72600000D01*
X108487186Y-72606565D01*
X108505129Y-72777279D01*
X108506458Y-72789928D01*
X108565473Y-72971556D01*
X108660960Y-73136944D01*
X108665378Y-73141851D01*
X108665379Y-73141852D01*
X108779678Y-73268794D01*
X108788747Y-73278866D01*
X108887843Y-73350864D01*
X108924180Y-73377264D01*
X108943248Y-73391118D01*
X108949276Y-73393802D01*
X108949278Y-73393803D01*
X109111681Y-73466109D01*
X109117712Y-73468794D01*
X109211112Y-73488647D01*
X109298056Y-73507128D01*
X109298061Y-73507128D01*
X109304513Y-73508500D01*
X109495487Y-73508500D01*
X109501939Y-73507128D01*
X109501944Y-73507128D01*
X109588888Y-73488647D01*
X109682288Y-73468794D01*
X109688319Y-73466109D01*
X109850722Y-73393803D01*
X109850724Y-73393802D01*
X109856752Y-73391118D01*
X109875821Y-73377264D01*
X109912157Y-73350864D01*
X110011253Y-73278866D01*
X110020322Y-73268794D01*
X110134621Y-73141852D01*
X110134622Y-73141851D01*
X110139040Y-73136944D01*
X110234527Y-72971556D01*
X110293542Y-72789928D01*
X110294872Y-72777279D01*
X110312814Y-72606565D01*
X110313504Y-72600000D01*
X110293542Y-72410072D01*
X110234527Y-72228444D01*
X110139040Y-72063056D01*
X110119889Y-72041786D01*
X110015675Y-71926045D01*
X110015674Y-71926044D01*
X110011253Y-71921134D01*
X109856752Y-71808882D01*
X109850724Y-71806198D01*
X109850722Y-71806197D01*
X109688319Y-71733891D01*
X109688318Y-71733891D01*
X109682288Y-71731206D01*
X109588888Y-71711353D01*
X109501944Y-71692872D01*
X109501939Y-71692872D01*
X109495487Y-71691500D01*
X109304513Y-71691500D01*
X109298061Y-71692872D01*
X109298056Y-71692872D01*
X109211112Y-71711353D01*
X109117712Y-71731206D01*
X109111682Y-71733891D01*
X109111681Y-71733891D01*
X108949278Y-71806197D01*
X108949276Y-71806198D01*
X108943248Y-71808882D01*
X108788747Y-71921134D01*
X108784326Y-71926044D01*
X108784325Y-71926045D01*
X108680112Y-72041786D01*
X108660960Y-72063056D01*
X108565473Y-72228444D01*
X108506458Y-72410072D01*
X108486496Y-72600000D01*
X75090269Y-72600000D01*
X75093542Y-72589928D01*
X75113504Y-72400000D01*
X75095473Y-72228444D01*
X75094232Y-72216635D01*
X75094232Y-72216633D01*
X75093542Y-72210072D01*
X75034527Y-72028444D01*
X75008018Y-71982529D01*
X74942340Y-71868771D01*
X74942338Y-71868768D01*
X74939040Y-71863056D01*
X74936962Y-71860748D01*
X74913539Y-71795100D01*
X74930215Y-71724909D01*
X75021223Y-71567279D01*
X75021224Y-71567278D01*
X75024527Y-71561556D01*
X75083542Y-71379928D01*
X75084364Y-71372112D01*
X75102814Y-71196565D01*
X75103504Y-71190000D01*
X75090765Y-71068794D01*
X75084232Y-71006635D01*
X75084232Y-71006633D01*
X75083542Y-71000072D01*
X75024527Y-70818444D01*
X74929040Y-70653056D01*
X74923278Y-70646656D01*
X74805675Y-70516045D01*
X74805674Y-70516044D01*
X74801253Y-70511134D01*
X74646752Y-70398882D01*
X74640724Y-70396198D01*
X74640722Y-70396197D01*
X74478319Y-70323891D01*
X74478318Y-70323891D01*
X74472288Y-70321206D01*
X74338489Y-70292766D01*
X74291938Y-70282871D01*
X74291936Y-70282871D01*
X74290355Y-70282535D01*
X74290353Y-70282534D01*
X74285487Y-70281500D01*
X74285676Y-70280610D01*
X74225254Y-70255748D01*
X74186354Y-70200000D01*
X95586496Y-70200000D01*
X95587186Y-70206565D01*
X95599898Y-70327509D01*
X95606458Y-70389928D01*
X95665473Y-70571556D01*
X95760960Y-70736944D01*
X95765378Y-70741851D01*
X95765379Y-70741852D01*
X95884325Y-70873955D01*
X95888747Y-70878866D01*
X96005127Y-70963421D01*
X96043248Y-70991118D01*
X96041768Y-70993156D01*
X96082935Y-71036338D01*
X96096246Y-71107233D01*
X96086496Y-71200000D01*
X96087186Y-71206565D01*
X96093892Y-71270365D01*
X96106458Y-71389928D01*
X96165473Y-71571556D01*
X96168776Y-71577278D01*
X96168777Y-71577279D01*
X96180457Y-71597509D01*
X96260960Y-71736944D01*
X96265378Y-71741851D01*
X96265379Y-71741852D01*
X96325733Y-71808882D01*
X96388747Y-71878866D01*
X96487843Y-71950864D01*
X96493275Y-71954810D01*
X96543248Y-71991118D01*
X96549276Y-71993802D01*
X96549278Y-71993803D01*
X96704824Y-72063056D01*
X96717712Y-72068794D01*
X96811113Y-72088647D01*
X96898056Y-72107128D01*
X96898061Y-72107128D01*
X96904513Y-72108500D01*
X97095487Y-72108500D01*
X97101939Y-72107128D01*
X97101944Y-72107128D01*
X97188887Y-72088647D01*
X97282288Y-72068794D01*
X97295176Y-72063056D01*
X97450722Y-71993803D01*
X97450724Y-71993802D01*
X97456752Y-71991118D01*
X97506726Y-71954810D01*
X97512157Y-71950864D01*
X97611253Y-71878866D01*
X97674267Y-71808882D01*
X97734621Y-71741852D01*
X97734622Y-71741851D01*
X97739040Y-71736944D01*
X97819543Y-71597509D01*
X97831223Y-71577279D01*
X97831224Y-71577278D01*
X97834527Y-71571556D01*
X97893542Y-71389928D01*
X97906109Y-71270365D01*
X97912814Y-71206565D01*
X97913504Y-71200000D01*
X97899714Y-71068794D01*
X97894232Y-71016635D01*
X97894232Y-71016633D01*
X97893542Y-71010072D01*
X97834527Y-70828444D01*
X97828754Y-70818444D01*
X97756792Y-70693803D01*
X97739040Y-70663056D01*
X97725837Y-70648392D01*
X97615675Y-70526045D01*
X97615674Y-70526044D01*
X97611253Y-70521134D01*
X97456752Y-70408882D01*
X97458232Y-70406844D01*
X97417065Y-70363662D01*
X97403754Y-70292766D01*
X97404806Y-70282763D01*
X97413504Y-70200000D01*
X108486496Y-70200000D01*
X108487186Y-70206565D01*
X108499898Y-70327509D01*
X108506458Y-70389928D01*
X108565473Y-70571556D01*
X108660960Y-70736944D01*
X108665378Y-70741851D01*
X108665379Y-70741852D01*
X108784325Y-70873955D01*
X108788747Y-70878866D01*
X108887843Y-70950864D01*
X108905127Y-70963421D01*
X108943248Y-70991118D01*
X108949276Y-70993802D01*
X108949278Y-70993803D01*
X109053039Y-71040000D01*
X109117712Y-71068794D01*
X109211113Y-71088647D01*
X109298056Y-71107128D01*
X109298061Y-71107128D01*
X109304513Y-71108500D01*
X109495487Y-71108500D01*
X109501939Y-71107128D01*
X109501944Y-71107128D01*
X109588887Y-71088647D01*
X109682288Y-71068794D01*
X109746961Y-71040000D01*
X109850722Y-70993803D01*
X109850724Y-70993802D01*
X109856752Y-70991118D01*
X109894874Y-70963421D01*
X109912157Y-70950864D01*
X110011253Y-70878866D01*
X110015675Y-70873955D01*
X110134621Y-70741852D01*
X110134622Y-70741851D01*
X110139040Y-70736944D01*
X110234527Y-70571556D01*
X110293542Y-70389928D01*
X110300103Y-70327509D01*
X110312814Y-70206565D01*
X110313504Y-70200000D01*
X110293542Y-70010072D01*
X110234527Y-69828444D01*
X110219144Y-69801799D01*
X110142341Y-69668774D01*
X110139040Y-69663056D01*
X110011253Y-69521134D01*
X109856752Y-69408882D01*
X109850724Y-69406198D01*
X109850722Y-69406197D01*
X109688319Y-69333891D01*
X109688318Y-69333891D01*
X109682288Y-69331206D01*
X109588887Y-69311353D01*
X109501944Y-69292872D01*
X109501939Y-69292872D01*
X109495487Y-69291500D01*
X109304513Y-69291500D01*
X109298061Y-69292872D01*
X109298056Y-69292872D01*
X109211113Y-69311353D01*
X109117712Y-69331206D01*
X109111682Y-69333891D01*
X109111681Y-69333891D01*
X108949278Y-69406197D01*
X108949276Y-69406198D01*
X108943248Y-69408882D01*
X108788747Y-69521134D01*
X108660960Y-69663056D01*
X108657659Y-69668774D01*
X108580857Y-69801799D01*
X108565473Y-69828444D01*
X108506458Y-70010072D01*
X108486496Y-70200000D01*
X97413504Y-70200000D01*
X97393542Y-70010072D01*
X97334527Y-69828444D01*
X97319144Y-69801799D01*
X97242341Y-69668774D01*
X97239040Y-69663056D01*
X97111253Y-69521134D01*
X96956752Y-69408882D01*
X96950724Y-69406198D01*
X96950722Y-69406197D01*
X96788319Y-69333891D01*
X96788318Y-69333891D01*
X96782288Y-69331206D01*
X96688887Y-69311353D01*
X96601944Y-69292872D01*
X96601939Y-69292872D01*
X96595487Y-69291500D01*
X96404513Y-69291500D01*
X96398061Y-69292872D01*
X96398056Y-69292872D01*
X96311113Y-69311353D01*
X96217712Y-69331206D01*
X96211682Y-69333891D01*
X96211681Y-69333891D01*
X96049278Y-69406197D01*
X96049276Y-69406198D01*
X96043248Y-69408882D01*
X95888747Y-69521134D01*
X95760960Y-69663056D01*
X95757659Y-69668774D01*
X95680857Y-69801799D01*
X95665473Y-69828444D01*
X95606458Y-70010072D01*
X95586496Y-70200000D01*
X74186354Y-70200000D01*
X74184626Y-70197524D01*
X74181926Y-70126579D01*
X74184253Y-70118516D01*
X74191502Y-70096208D01*
X74191503Y-70096203D01*
X74193542Y-70089928D01*
X74203571Y-69994513D01*
X74212814Y-69906565D01*
X74213504Y-69900000D01*
X74193542Y-69710072D01*
X74134527Y-69528444D01*
X74039040Y-69363056D01*
X73911253Y-69221134D01*
X73756752Y-69108882D01*
X73750724Y-69106198D01*
X73750722Y-69106197D01*
X73588319Y-69033891D01*
X73588318Y-69033891D01*
X73582288Y-69031206D01*
X73488888Y-69011353D01*
X73401944Y-68992872D01*
X73401939Y-68992872D01*
X73395487Y-68991500D01*
X73204513Y-68991500D01*
X73198061Y-68992872D01*
X73198056Y-68992872D01*
X73111112Y-69011353D01*
X73017712Y-69031206D01*
X73011682Y-69033891D01*
X73011681Y-69033891D01*
X72849278Y-69106197D01*
X72849276Y-69106198D01*
X72843248Y-69108882D01*
X72688747Y-69221134D01*
X72560960Y-69363056D01*
X72465473Y-69528444D01*
X72406458Y-69710072D01*
X72386496Y-69900000D01*
X64500137Y-69900000D01*
X64512985Y-69798295D01*
X64513380Y-69770000D01*
X64494080Y-69573167D01*
X64478850Y-69522721D01*
X64444479Y-69408882D01*
X64436916Y-69383831D01*
X64344066Y-69209204D01*
X64273709Y-69122938D01*
X64222960Y-69060713D01*
X64222957Y-69060710D01*
X64219065Y-69055938D01*
X64212724Y-69050692D01*
X64071425Y-68933799D01*
X64071421Y-68933797D01*
X64066675Y-68929870D01*
X63892701Y-68835802D01*
X63703768Y-68777318D01*
X63697643Y-68776674D01*
X63697642Y-68776674D01*
X63513204Y-68757289D01*
X63513202Y-68757289D01*
X63507075Y-68756645D01*
X63424576Y-68764153D01*
X63316251Y-68774011D01*
X63316248Y-68774012D01*
X63310112Y-68774570D01*
X63304206Y-68776308D01*
X63304202Y-68776309D01*
X63199076Y-68807249D01*
X63120381Y-68830410D01*
X63114923Y-68833263D01*
X63114919Y-68833265D01*
X63024147Y-68880720D01*
X62945110Y-68922040D01*
X62790975Y-69045968D01*
X62663846Y-69197474D01*
X62660879Y-69202872D01*
X62660875Y-69202877D01*
X62612155Y-69291500D01*
X62568567Y-69370787D01*
X62566706Y-69376654D01*
X62566705Y-69376656D01*
X62554602Y-69414810D01*
X62514938Y-69473694D01*
X62449736Y-69501786D01*
X62379697Y-69490168D01*
X62327057Y-69442529D01*
X62308500Y-69376711D01*
X62308500Y-68100000D01*
X95786496Y-68100000D01*
X95806458Y-68289928D01*
X95865473Y-68471556D01*
X95960960Y-68636944D01*
X96088747Y-68778866D01*
X96243248Y-68891118D01*
X96249276Y-68893802D01*
X96249278Y-68893803D01*
X96411681Y-68966109D01*
X96417712Y-68968794D01*
X96511113Y-68988647D01*
X96598056Y-69007128D01*
X96598061Y-69007128D01*
X96604513Y-69008500D01*
X96795487Y-69008500D01*
X96801939Y-69007128D01*
X96801944Y-69007128D01*
X96888887Y-68988647D01*
X96982288Y-68968794D01*
X96988319Y-68966109D01*
X97150722Y-68893803D01*
X97150724Y-68893802D01*
X97156752Y-68891118D01*
X97311253Y-68778866D01*
X97439040Y-68636944D01*
X97534527Y-68471556D01*
X97593542Y-68289928D01*
X97613504Y-68100000D01*
X97593542Y-67910072D01*
X97534527Y-67728444D01*
X97439040Y-67563056D01*
X97311253Y-67421134D01*
X97156752Y-67308882D01*
X97150724Y-67306198D01*
X97150722Y-67306197D01*
X96988319Y-67233891D01*
X96988318Y-67233891D01*
X96982288Y-67231206D01*
X96888887Y-67211353D01*
X96801944Y-67192872D01*
X96801939Y-67192872D01*
X96795487Y-67191500D01*
X96604513Y-67191500D01*
X96598061Y-67192872D01*
X96598056Y-67192872D01*
X96511113Y-67211353D01*
X96417712Y-67231206D01*
X96411682Y-67233891D01*
X96411681Y-67233891D01*
X96249278Y-67306197D01*
X96249276Y-67306198D01*
X96243248Y-67308882D01*
X96088747Y-67421134D01*
X95960960Y-67563056D01*
X95865473Y-67728444D01*
X95806458Y-67910072D01*
X95786496Y-68100000D01*
X62308500Y-68100000D01*
X62308500Y-63376207D01*
X62328502Y-63308086D01*
X62382158Y-63261593D01*
X62452432Y-63251489D01*
X62517012Y-63280983D01*
X62554332Y-63337269D01*
X62565473Y-63371556D01*
X62660960Y-63536944D01*
X62788747Y-63678866D01*
X62943248Y-63791118D01*
X62949276Y-63793802D01*
X62949278Y-63793803D01*
X63111681Y-63866109D01*
X63117712Y-63868794D01*
X63211112Y-63888647D01*
X63298056Y-63907128D01*
X63298061Y-63907128D01*
X63304513Y-63908500D01*
X63495487Y-63908500D01*
X63501939Y-63907128D01*
X63501944Y-63907128D01*
X63588888Y-63888647D01*
X63682288Y-63868794D01*
X63688319Y-63866109D01*
X63850722Y-63793803D01*
X63850724Y-63793802D01*
X63856752Y-63791118D01*
X63862093Y-63787237D01*
X63862099Y-63787234D01*
X63888929Y-63767741D01*
X63955796Y-63743882D01*
X64024948Y-63759963D01*
X64074428Y-63810877D01*
X64088299Y-63882848D01*
X64086496Y-63900000D01*
X64087186Y-63906565D01*
X64092608Y-63958148D01*
X64106458Y-64089928D01*
X64165473Y-64271556D01*
X64260960Y-64436944D01*
X64388747Y-64578866D01*
X64543248Y-64691118D01*
X64549276Y-64693802D01*
X64549278Y-64693803D01*
X64591569Y-64712632D01*
X64645665Y-64758612D01*
X64666314Y-64826540D01*
X64646962Y-64894848D01*
X64591568Y-64942846D01*
X64449281Y-65006195D01*
X64449274Y-65006199D01*
X64443248Y-65008882D01*
X64288747Y-65121134D01*
X64284326Y-65126044D01*
X64284325Y-65126045D01*
X64277261Y-65133891D01*
X64160960Y-65263056D01*
X64065473Y-65428444D01*
X64006458Y-65610072D01*
X64005768Y-65616633D01*
X64005768Y-65616635D01*
X63987186Y-65793435D01*
X63986496Y-65800000D01*
X63987186Y-65806565D01*
X63992608Y-65858148D01*
X64006458Y-65989928D01*
X64065473Y-66171556D01*
X64068776Y-66177278D01*
X64068777Y-66177279D01*
X64086803Y-66208500D01*
X64160960Y-66336944D01*
X64288747Y-66478866D01*
X64443248Y-66591118D01*
X64449276Y-66593802D01*
X64449278Y-66593803D01*
X64611681Y-66666109D01*
X64617712Y-66668794D01*
X64683365Y-66682749D01*
X64798056Y-66707128D01*
X64798061Y-66707128D01*
X64804513Y-66708500D01*
X64995487Y-66708500D01*
X65001939Y-66707128D01*
X65001944Y-66707128D01*
X65116635Y-66682749D01*
X65182288Y-66668794D01*
X65188319Y-66666109D01*
X65350722Y-66593803D01*
X65350724Y-66593802D01*
X65356752Y-66591118D01*
X65511253Y-66478866D01*
X65639040Y-66336944D01*
X65713197Y-66208500D01*
X65731223Y-66177279D01*
X65731224Y-66177278D01*
X65734527Y-66171556D01*
X65793542Y-65989928D01*
X65807393Y-65858148D01*
X65812814Y-65806565D01*
X65813504Y-65800000D01*
X65812814Y-65793435D01*
X65794232Y-65616635D01*
X65794232Y-65616633D01*
X65793542Y-65610072D01*
X65734527Y-65428444D01*
X65660370Y-65300000D01*
X70186496Y-65300000D01*
X70187186Y-65306565D01*
X70204235Y-65468774D01*
X70206458Y-65489928D01*
X70265473Y-65671556D01*
X70360960Y-65836944D01*
X70488747Y-65978866D01*
X70643248Y-66091118D01*
X70649276Y-66093802D01*
X70649278Y-66093803D01*
X70809799Y-66165271D01*
X70817712Y-66168794D01*
X70886263Y-66183365D01*
X70998056Y-66207128D01*
X70998061Y-66207128D01*
X71004513Y-66208500D01*
X71195487Y-66208500D01*
X71201939Y-66207128D01*
X71201944Y-66207128D01*
X71313737Y-66183365D01*
X71382288Y-66168794D01*
X71390201Y-66165271D01*
X71550722Y-66093803D01*
X71550724Y-66093802D01*
X71556752Y-66091118D01*
X71711253Y-65978866D01*
X71839040Y-65836944D01*
X71934527Y-65671556D01*
X71993542Y-65489928D01*
X71995766Y-65468774D01*
X72012814Y-65306565D01*
X72013504Y-65300000D01*
X72002994Y-65200000D01*
X83486496Y-65200000D01*
X83487186Y-65206565D01*
X83503955Y-65366109D01*
X83506458Y-65389928D01*
X83565473Y-65571556D01*
X83660960Y-65736944D01*
X83788747Y-65878866D01*
X83887843Y-65950864D01*
X83926385Y-65978866D01*
X83943248Y-65991118D01*
X83949276Y-65993802D01*
X83949278Y-65993803D01*
X84041200Y-66034729D01*
X84117712Y-66068794D01*
X84204479Y-66087237D01*
X84298056Y-66107128D01*
X84298061Y-66107128D01*
X84304513Y-66108500D01*
X84495487Y-66108500D01*
X84501939Y-66107128D01*
X84501944Y-66107128D01*
X84595521Y-66087237D01*
X84682288Y-66068794D01*
X84758800Y-66034729D01*
X84836803Y-66000000D01*
X88386496Y-66000000D01*
X88387186Y-66006565D01*
X88405129Y-66177279D01*
X88406458Y-66189928D01*
X88465473Y-66371556D01*
X88560960Y-66536944D01*
X88565378Y-66541851D01*
X88565379Y-66541852D01*
X88679678Y-66668794D01*
X88688747Y-66678866D01*
X88843248Y-66791118D01*
X88849276Y-66793802D01*
X88849278Y-66793803D01*
X89011681Y-66866109D01*
X89017712Y-66868794D01*
X89111113Y-66888647D01*
X89198056Y-66907128D01*
X89198061Y-66907128D01*
X89204513Y-66908500D01*
X89395487Y-66908500D01*
X89401939Y-66907128D01*
X89401944Y-66907128D01*
X89488887Y-66888647D01*
X89582288Y-66868794D01*
X89588319Y-66866109D01*
X89750722Y-66793803D01*
X89750724Y-66793802D01*
X89756752Y-66791118D01*
X89911253Y-66678866D01*
X89920322Y-66668794D01*
X90034621Y-66541852D01*
X90034622Y-66541851D01*
X90039040Y-66536944D01*
X90118105Y-66400000D01*
X103286496Y-66400000D01*
X103306458Y-66589928D01*
X103365473Y-66771556D01*
X103460960Y-66936944D01*
X103588747Y-67078866D01*
X103743248Y-67191118D01*
X103749276Y-67193802D01*
X103749278Y-67193803D01*
X103839318Y-67233891D01*
X103917712Y-67268794D01*
X104011113Y-67288647D01*
X104098056Y-67307128D01*
X104098061Y-67307128D01*
X104104513Y-67308500D01*
X104295487Y-67308500D01*
X104301939Y-67307128D01*
X104301944Y-67307128D01*
X104388887Y-67288647D01*
X104482288Y-67268794D01*
X104560682Y-67233891D01*
X104650722Y-67193803D01*
X104650724Y-67193802D01*
X104656752Y-67191118D01*
X104811253Y-67078866D01*
X104939040Y-66936944D01*
X105034527Y-66771556D01*
X105093542Y-66589928D01*
X105113504Y-66400000D01*
X105109854Y-66365271D01*
X105094232Y-66216635D01*
X105094232Y-66216633D01*
X105093542Y-66210072D01*
X105034527Y-66028444D01*
X104939040Y-65863056D01*
X104897243Y-65816635D01*
X104815675Y-65726045D01*
X104815674Y-65726044D01*
X104811253Y-65721134D01*
X104656752Y-65608882D01*
X104650724Y-65606198D01*
X104650722Y-65606197D01*
X104488319Y-65533891D01*
X104488318Y-65533891D01*
X104482288Y-65531206D01*
X104388888Y-65511353D01*
X104301944Y-65492872D01*
X104301939Y-65492872D01*
X104295487Y-65491500D01*
X104104513Y-65491500D01*
X104098061Y-65492872D01*
X104098056Y-65492872D01*
X104011112Y-65511353D01*
X103917712Y-65531206D01*
X103911682Y-65533891D01*
X103911681Y-65533891D01*
X103749278Y-65606197D01*
X103749276Y-65606198D01*
X103743248Y-65608882D01*
X103588747Y-65721134D01*
X103584326Y-65726044D01*
X103584325Y-65726045D01*
X103502758Y-65816635D01*
X103460960Y-65863056D01*
X103365473Y-66028444D01*
X103306458Y-66210072D01*
X103305768Y-66216633D01*
X103305768Y-66216635D01*
X103290146Y-66365271D01*
X103286496Y-66400000D01*
X90118105Y-66400000D01*
X90134527Y-66371556D01*
X90193542Y-66189928D01*
X90194872Y-66177279D01*
X90212814Y-66006565D01*
X90213504Y-66000000D01*
X90201181Y-65882749D01*
X90194232Y-65816635D01*
X90194232Y-65816633D01*
X90193542Y-65810072D01*
X90134527Y-65628444D01*
X90039040Y-65463056D01*
X89911253Y-65321134D01*
X89756752Y-65208882D01*
X89750724Y-65206198D01*
X89750722Y-65206197D01*
X89588319Y-65133891D01*
X89588318Y-65133891D01*
X89582288Y-65131206D01*
X89482861Y-65110072D01*
X89401944Y-65092872D01*
X89401939Y-65092872D01*
X89395487Y-65091500D01*
X89204513Y-65091500D01*
X89198061Y-65092872D01*
X89198056Y-65092872D01*
X89117139Y-65110072D01*
X89017712Y-65131206D01*
X89011682Y-65133891D01*
X89011681Y-65133891D01*
X88849278Y-65206197D01*
X88849276Y-65206198D01*
X88843248Y-65208882D01*
X88688747Y-65321134D01*
X88560960Y-65463056D01*
X88465473Y-65628444D01*
X88406458Y-65810072D01*
X88405768Y-65816633D01*
X88405768Y-65816635D01*
X88398819Y-65882749D01*
X88386496Y-66000000D01*
X84836803Y-66000000D01*
X84850722Y-65993803D01*
X84850724Y-65993802D01*
X84856752Y-65991118D01*
X84873616Y-65978866D01*
X84912157Y-65950864D01*
X85011253Y-65878866D01*
X85139040Y-65736944D01*
X85234527Y-65571556D01*
X85293542Y-65389928D01*
X85296046Y-65366109D01*
X85312814Y-65206565D01*
X85313504Y-65200000D01*
X85304052Y-65110072D01*
X85294232Y-65016635D01*
X85294232Y-65016633D01*
X85293542Y-65010072D01*
X85234527Y-64828444D01*
X85139040Y-64663056D01*
X85011253Y-64521134D01*
X84982165Y-64500000D01*
X98386496Y-64500000D01*
X98387186Y-64506565D01*
X98404235Y-64668774D01*
X98406458Y-64689928D01*
X98465473Y-64871556D01*
X98560960Y-65036944D01*
X98688747Y-65178866D01*
X98843248Y-65291118D01*
X98849276Y-65293802D01*
X98849278Y-65293803D01*
X99011681Y-65366109D01*
X99017712Y-65368794D01*
X99086263Y-65383365D01*
X99198056Y-65407128D01*
X99198061Y-65407128D01*
X99204513Y-65408500D01*
X99395487Y-65408500D01*
X99401939Y-65407128D01*
X99401944Y-65407128D01*
X99513737Y-65383365D01*
X99582288Y-65368794D01*
X99588319Y-65366109D01*
X99750722Y-65293803D01*
X99750724Y-65293802D01*
X99756752Y-65291118D01*
X99911253Y-65178866D01*
X100039040Y-65036944D01*
X100134527Y-64871556D01*
X100193542Y-64689928D01*
X100195766Y-64668774D01*
X100212814Y-64506565D01*
X100213504Y-64500000D01*
X100208977Y-64456930D01*
X100194232Y-64316635D01*
X100194232Y-64316633D01*
X100193542Y-64310072D01*
X100134527Y-64128444D01*
X100039040Y-63963056D01*
X99966822Y-63882849D01*
X99915675Y-63826045D01*
X99915674Y-63826044D01*
X99911253Y-63821134D01*
X99756752Y-63708882D01*
X99750724Y-63706198D01*
X99750722Y-63706197D01*
X99588319Y-63633891D01*
X99588318Y-63633891D01*
X99582288Y-63631206D01*
X99466362Y-63606565D01*
X99401944Y-63592872D01*
X99401939Y-63592872D01*
X99395487Y-63591500D01*
X99204513Y-63591500D01*
X99198061Y-63592872D01*
X99198056Y-63592872D01*
X99133638Y-63606565D01*
X99017712Y-63631206D01*
X99011682Y-63633891D01*
X99011681Y-63633891D01*
X98849278Y-63706197D01*
X98849276Y-63706198D01*
X98843248Y-63708882D01*
X98688747Y-63821134D01*
X98684326Y-63826044D01*
X98684325Y-63826045D01*
X98633179Y-63882849D01*
X98560960Y-63963056D01*
X98465473Y-64128444D01*
X98406458Y-64310072D01*
X98405768Y-64316633D01*
X98405768Y-64316635D01*
X98391023Y-64456930D01*
X98386496Y-64500000D01*
X84982165Y-64500000D01*
X84856752Y-64408882D01*
X84850724Y-64406198D01*
X84850722Y-64406197D01*
X84688319Y-64333891D01*
X84688318Y-64333891D01*
X84682288Y-64331206D01*
X84582861Y-64310072D01*
X84501944Y-64292872D01*
X84501939Y-64292872D01*
X84495487Y-64291500D01*
X84304513Y-64291500D01*
X84298061Y-64292872D01*
X84298056Y-64292872D01*
X84217139Y-64310072D01*
X84117712Y-64331206D01*
X84111682Y-64333891D01*
X84111681Y-64333891D01*
X83949278Y-64406197D01*
X83949276Y-64406198D01*
X83943248Y-64408882D01*
X83788747Y-64521134D01*
X83660960Y-64663056D01*
X83565473Y-64828444D01*
X83506458Y-65010072D01*
X83505768Y-65016633D01*
X83505768Y-65016635D01*
X83495948Y-65110072D01*
X83486496Y-65200000D01*
X72002994Y-65200000D01*
X72001181Y-65182749D01*
X71994232Y-65116635D01*
X71994232Y-65116633D01*
X71993542Y-65110072D01*
X71934527Y-64928444D01*
X71839040Y-64763056D01*
X71776686Y-64693805D01*
X71721093Y-64632062D01*
X71690375Y-64568055D01*
X71699140Y-64497601D01*
X71744603Y-64443070D01*
X71763481Y-64432645D01*
X71850719Y-64393805D01*
X71850726Y-64393801D01*
X71856752Y-64391118D01*
X72011253Y-64278866D01*
X72139040Y-64136944D01*
X72234527Y-63971556D01*
X72293542Y-63789928D01*
X72296692Y-63759963D01*
X72312814Y-63606565D01*
X72313504Y-63600000D01*
X72312611Y-63591500D01*
X72294232Y-63416635D01*
X72294232Y-63416633D01*
X72293542Y-63410072D01*
X72234527Y-63228444D01*
X72139040Y-63063056D01*
X72011253Y-62921134D01*
X71856752Y-62808882D01*
X71850724Y-62806198D01*
X71850722Y-62806197D01*
X71688319Y-62733891D01*
X71688318Y-62733891D01*
X71682288Y-62731206D01*
X71588888Y-62711353D01*
X71501944Y-62692872D01*
X71501939Y-62692872D01*
X71495487Y-62691500D01*
X71304513Y-62691500D01*
X71298061Y-62692872D01*
X71298056Y-62692872D01*
X71211112Y-62711353D01*
X71117712Y-62731206D01*
X71111682Y-62733891D01*
X71111681Y-62733891D01*
X70949278Y-62806197D01*
X70949276Y-62806198D01*
X70943248Y-62808882D01*
X70788747Y-62921134D01*
X70660960Y-63063056D01*
X70565473Y-63228444D01*
X70506458Y-63410072D01*
X70505768Y-63416633D01*
X70505768Y-63416635D01*
X70487389Y-63591500D01*
X70486496Y-63600000D01*
X70487186Y-63606565D01*
X70503309Y-63759963D01*
X70506458Y-63789928D01*
X70565473Y-63971556D01*
X70660960Y-64136944D01*
X70665378Y-64141851D01*
X70665379Y-64141852D01*
X70778907Y-64267938D01*
X70809625Y-64331945D01*
X70800860Y-64402399D01*
X70755397Y-64456930D01*
X70736519Y-64467355D01*
X70649281Y-64506195D01*
X70649274Y-64506199D01*
X70643248Y-64508882D01*
X70637907Y-64512762D01*
X70637906Y-64512763D01*
X70619625Y-64526045D01*
X70488747Y-64621134D01*
X70484326Y-64626044D01*
X70484325Y-64626045D01*
X70423316Y-64693803D01*
X70360960Y-64763056D01*
X70265473Y-64928444D01*
X70206458Y-65110072D01*
X70205768Y-65116633D01*
X70205768Y-65116635D01*
X70198819Y-65182749D01*
X70186496Y-65300000D01*
X65660370Y-65300000D01*
X65639040Y-65263056D01*
X65522740Y-65133891D01*
X65515675Y-65126045D01*
X65515674Y-65126044D01*
X65511253Y-65121134D01*
X65356752Y-65008882D01*
X65350724Y-65006198D01*
X65350722Y-65006197D01*
X65308431Y-64987368D01*
X65254335Y-64941388D01*
X65233686Y-64873460D01*
X65253038Y-64805152D01*
X65308432Y-64757154D01*
X65450719Y-64693805D01*
X65450726Y-64693801D01*
X65456752Y-64691118D01*
X65611253Y-64578866D01*
X65739040Y-64436944D01*
X65834527Y-64271556D01*
X65893542Y-64089928D01*
X65907393Y-63958148D01*
X65912814Y-63906565D01*
X65913504Y-63900000D01*
X65893542Y-63710072D01*
X65834527Y-63528444D01*
X65739040Y-63363056D01*
X65647683Y-63261593D01*
X65615675Y-63226045D01*
X65615674Y-63226044D01*
X65611253Y-63221134D01*
X65456752Y-63108882D01*
X65450724Y-63106198D01*
X65450722Y-63106197D01*
X65288319Y-63033891D01*
X65288318Y-63033891D01*
X65282288Y-63031206D01*
X65166348Y-63006562D01*
X65101944Y-62992872D01*
X65101939Y-62992872D01*
X65095487Y-62991500D01*
X64904513Y-62991500D01*
X64898061Y-62992872D01*
X64898056Y-62992872D01*
X64833652Y-63006562D01*
X64717712Y-63031206D01*
X64711682Y-63033891D01*
X64711681Y-63033891D01*
X64549278Y-63106197D01*
X64549276Y-63106198D01*
X64543248Y-63108882D01*
X64537907Y-63112763D01*
X64537901Y-63112766D01*
X64511071Y-63132259D01*
X64444204Y-63156118D01*
X64375052Y-63140037D01*
X64325572Y-63089123D01*
X64311701Y-63017151D01*
X64312814Y-63006562D01*
X64313504Y-63000000D01*
X64293542Y-62810072D01*
X64234527Y-62628444D01*
X64139040Y-62463056D01*
X64076685Y-62393803D01*
X64015675Y-62326045D01*
X64015674Y-62326044D01*
X64011253Y-62321134D01*
X63856752Y-62208882D01*
X63850724Y-62206198D01*
X63850722Y-62206197D01*
X63688319Y-62133891D01*
X63688318Y-62133891D01*
X63682288Y-62131206D01*
X63588888Y-62111353D01*
X63501944Y-62092872D01*
X63501939Y-62092872D01*
X63495487Y-62091500D01*
X63304513Y-62091500D01*
X63298061Y-62092872D01*
X63298056Y-62092872D01*
X63211112Y-62111353D01*
X63117712Y-62131206D01*
X63111682Y-62133891D01*
X63111681Y-62133891D01*
X62949278Y-62206197D01*
X62949276Y-62206198D01*
X62943248Y-62208882D01*
X62788747Y-62321134D01*
X62784326Y-62326044D01*
X62784325Y-62326045D01*
X62723316Y-62393803D01*
X62660960Y-62463056D01*
X62565473Y-62628444D01*
X62563432Y-62634726D01*
X62554333Y-62662730D01*
X62514259Y-62721335D01*
X62448862Y-62748972D01*
X62378906Y-62736865D01*
X62326600Y-62688859D01*
X62308500Y-62623793D01*
X62308500Y-60800000D01*
X63186496Y-60800000D01*
X63187186Y-60806565D01*
X63199228Y-60921134D01*
X63206458Y-60989928D01*
X63265473Y-61171556D01*
X63360960Y-61336944D01*
X63488747Y-61478866D01*
X63643248Y-61591118D01*
X63649276Y-61593802D01*
X63649278Y-61593803D01*
X63811681Y-61666109D01*
X63817712Y-61668794D01*
X63911113Y-61688647D01*
X63998056Y-61707128D01*
X63998061Y-61707128D01*
X64004513Y-61708500D01*
X64195487Y-61708500D01*
X64201939Y-61707128D01*
X64201944Y-61707128D01*
X64288887Y-61688647D01*
X64382288Y-61668794D01*
X64388319Y-61666109D01*
X64536803Y-61600000D01*
X74086496Y-61600000D01*
X74106458Y-61789928D01*
X74165473Y-61971556D01*
X74260960Y-62136944D01*
X74265378Y-62141851D01*
X74265379Y-62141852D01*
X74325733Y-62208882D01*
X74388747Y-62278866D01*
X74543248Y-62391118D01*
X74549276Y-62393802D01*
X74549278Y-62393803D01*
X74704824Y-62463056D01*
X74717712Y-62468794D01*
X74811112Y-62488647D01*
X74898056Y-62507128D01*
X74898061Y-62507128D01*
X74904513Y-62508500D01*
X75095487Y-62508500D01*
X75101939Y-62507128D01*
X75101944Y-62507128D01*
X75188888Y-62488647D01*
X75282288Y-62468794D01*
X75295176Y-62463056D01*
X75450722Y-62393803D01*
X75450724Y-62393802D01*
X75456752Y-62391118D01*
X75611253Y-62278866D01*
X75674267Y-62208882D01*
X75734621Y-62141852D01*
X75734622Y-62141851D01*
X75739040Y-62136944D01*
X75834527Y-61971556D01*
X75893542Y-61789928D01*
X75913504Y-61600000D01*
X75901181Y-61482749D01*
X75894232Y-61416635D01*
X75894232Y-61416633D01*
X75893542Y-61410072D01*
X75834527Y-61228444D01*
X75739040Y-61063056D01*
X75611253Y-60921134D01*
X75456752Y-60808882D01*
X75450724Y-60806198D01*
X75450722Y-60806197D01*
X75288319Y-60733891D01*
X75288318Y-60733891D01*
X75282288Y-60731206D01*
X75188888Y-60711353D01*
X75101944Y-60692872D01*
X75101939Y-60692872D01*
X75095487Y-60691500D01*
X74904513Y-60691500D01*
X74898061Y-60692872D01*
X74898056Y-60692872D01*
X74811112Y-60711353D01*
X74717712Y-60731206D01*
X74711682Y-60733891D01*
X74711681Y-60733891D01*
X74549278Y-60806197D01*
X74549276Y-60806198D01*
X74543248Y-60808882D01*
X74388747Y-60921134D01*
X74260960Y-61063056D01*
X74165473Y-61228444D01*
X74106458Y-61410072D01*
X74105768Y-61416633D01*
X74105768Y-61416635D01*
X74098819Y-61482749D01*
X74086496Y-61600000D01*
X64536803Y-61600000D01*
X64550722Y-61593803D01*
X64550724Y-61593802D01*
X64556752Y-61591118D01*
X64711253Y-61478866D01*
X64839040Y-61336944D01*
X64934527Y-61171556D01*
X64993542Y-60989928D01*
X65000773Y-60921134D01*
X65012814Y-60806565D01*
X65013504Y-60800000D01*
X64993542Y-60610072D01*
X64934527Y-60428444D01*
X64839040Y-60263056D01*
X64711253Y-60121134D01*
X64556752Y-60008882D01*
X64550724Y-60006198D01*
X64550722Y-60006197D01*
X64388319Y-59933891D01*
X64388318Y-59933891D01*
X64382288Y-59931206D01*
X64288888Y-59911353D01*
X64201944Y-59892872D01*
X64201939Y-59892872D01*
X64195487Y-59891500D01*
X64004513Y-59891500D01*
X63998061Y-59892872D01*
X63998056Y-59892872D01*
X63911112Y-59911353D01*
X63817712Y-59931206D01*
X63811682Y-59933891D01*
X63811681Y-59933891D01*
X63649278Y-60006197D01*
X63649276Y-60006198D01*
X63643248Y-60008882D01*
X63488747Y-60121134D01*
X63360960Y-60263056D01*
X63265473Y-60428444D01*
X63206458Y-60610072D01*
X63186496Y-60800000D01*
X62308500Y-60800000D01*
X62308500Y-57000000D01*
X63586496Y-57000000D01*
X63606458Y-57189928D01*
X63665473Y-57371556D01*
X63760960Y-57536944D01*
X63765378Y-57541851D01*
X63765379Y-57541852D01*
X63870333Y-57658415D01*
X63888747Y-57678866D01*
X64043248Y-57791118D01*
X64049276Y-57793802D01*
X64049278Y-57793803D01*
X64133332Y-57831226D01*
X64217712Y-57868794D01*
X64311112Y-57888647D01*
X64398056Y-57907128D01*
X64398061Y-57907128D01*
X64404513Y-57908500D01*
X64595487Y-57908500D01*
X64601939Y-57907128D01*
X64601944Y-57907128D01*
X64688888Y-57888647D01*
X64782288Y-57868794D01*
X64866668Y-57831226D01*
X64950722Y-57793803D01*
X64950724Y-57793802D01*
X64956752Y-57791118D01*
X65111253Y-57678866D01*
X65129667Y-57658415D01*
X65234621Y-57541852D01*
X65234622Y-57541851D01*
X65239040Y-57536944D01*
X65334527Y-57371556D01*
X65357777Y-57300000D01*
X102486496Y-57300000D01*
X102487186Y-57306565D01*
X102492736Y-57359366D01*
X102506458Y-57489928D01*
X102565473Y-57671556D01*
X102660960Y-57836944D01*
X102788747Y-57978866D01*
X102943248Y-58091118D01*
X102949276Y-58093802D01*
X102949278Y-58093803D01*
X103111681Y-58166109D01*
X103117712Y-58168794D01*
X103211113Y-58188647D01*
X103298056Y-58207128D01*
X103298061Y-58207128D01*
X103304513Y-58208500D01*
X103495487Y-58208500D01*
X103501939Y-58207128D01*
X103501944Y-58207128D01*
X103588887Y-58188647D01*
X103682288Y-58168794D01*
X103688319Y-58166109D01*
X103850722Y-58093803D01*
X103850724Y-58093802D01*
X103856752Y-58091118D01*
X104011253Y-57978866D01*
X104139040Y-57836944D01*
X104234527Y-57671556D01*
X104293542Y-57489928D01*
X104307265Y-57359366D01*
X104312814Y-57306565D01*
X104313504Y-57300000D01*
X104304102Y-57210547D01*
X104294232Y-57116635D01*
X104294232Y-57116633D01*
X104293542Y-57110072D01*
X104234527Y-56928444D01*
X104139040Y-56763056D01*
X104124641Y-56747064D01*
X108997707Y-56747064D01*
X109026825Y-56939599D01*
X109029028Y-56945585D01*
X109029029Y-56945591D01*
X109091860Y-57116360D01*
X109091862Y-57116365D01*
X109094063Y-57122346D01*
X109196674Y-57287840D01*
X109330466Y-57429322D01*
X109489975Y-57541011D01*
X109495838Y-57543548D01*
X109662825Y-57615810D01*
X109662829Y-57615811D01*
X109668684Y-57618345D01*
X109674931Y-57619650D01*
X109674934Y-57619651D01*
X109854557Y-57657176D01*
X109854562Y-57657177D01*
X109859293Y-57658165D01*
X109865685Y-57658500D01*
X110008663Y-57658500D01*
X110077951Y-57651462D01*
X110147378Y-57644410D01*
X110147379Y-57644410D01*
X110153727Y-57643765D01*
X110234843Y-57618345D01*
X110333451Y-57587444D01*
X110333456Y-57587442D01*
X110339541Y-57585535D01*
X110437516Y-57531226D01*
X110504271Y-57494223D01*
X110504274Y-57494221D01*
X110509850Y-57491130D01*
X110514691Y-57486981D01*
X110514695Y-57486978D01*
X110652855Y-57368560D01*
X110657698Y-57364409D01*
X110777046Y-57210547D01*
X110790422Y-57183365D01*
X110860200Y-57041556D01*
X110863018Y-57035829D01*
X110874061Y-56993435D01*
X110910492Y-56853575D01*
X110910492Y-56853572D01*
X110912102Y-56847393D01*
X110920934Y-56678866D01*
X110921959Y-56659317D01*
X110921959Y-56659313D01*
X110922293Y-56652936D01*
X110893175Y-56460401D01*
X110890972Y-56454415D01*
X110890971Y-56454409D01*
X110828140Y-56283640D01*
X110828138Y-56283635D01*
X110825937Y-56277654D01*
X110735135Y-56131206D01*
X110726688Y-56117582D01*
X110726687Y-56117581D01*
X110723326Y-56112160D01*
X110589534Y-55970678D01*
X110430025Y-55858989D01*
X110382013Y-55838212D01*
X110257175Y-55784190D01*
X110257171Y-55784189D01*
X110251316Y-55781655D01*
X110245069Y-55780350D01*
X110245066Y-55780349D01*
X110065443Y-55742824D01*
X110065438Y-55742823D01*
X110060707Y-55741835D01*
X110054315Y-55741500D01*
X109911337Y-55741500D01*
X109842049Y-55748538D01*
X109772622Y-55755590D01*
X109772621Y-55755590D01*
X109766273Y-55756235D01*
X109737439Y-55765271D01*
X109586549Y-55812556D01*
X109586544Y-55812558D01*
X109580459Y-55814465D01*
X109504713Y-55856452D01*
X109415729Y-55905777D01*
X109415726Y-55905779D01*
X109410150Y-55908870D01*
X109405309Y-55913019D01*
X109405305Y-55913022D01*
X109377395Y-55936944D01*
X109262302Y-56035591D01*
X109142954Y-56189453D01*
X109140138Y-56195176D01*
X109140136Y-56195179D01*
X109078159Y-56321134D01*
X109056982Y-56364171D01*
X109055373Y-56370349D01*
X109055372Y-56370351D01*
X109018277Y-56512763D01*
X109007898Y-56552607D01*
X109007564Y-56558986D01*
X109001078Y-56682749D01*
X108997707Y-56747064D01*
X104124641Y-56747064D01*
X104011253Y-56621134D01*
X103856752Y-56508882D01*
X103850724Y-56506198D01*
X103850722Y-56506197D01*
X103688319Y-56433891D01*
X103688318Y-56433891D01*
X103682288Y-56431206D01*
X103588888Y-56411353D01*
X103501944Y-56392872D01*
X103501939Y-56392872D01*
X103495487Y-56391500D01*
X103304513Y-56391500D01*
X103298061Y-56392872D01*
X103298056Y-56392872D01*
X103211112Y-56411353D01*
X103117712Y-56431206D01*
X103111682Y-56433891D01*
X103111681Y-56433891D01*
X102949278Y-56506197D01*
X102949276Y-56506198D01*
X102943248Y-56508882D01*
X102788747Y-56621134D01*
X102660960Y-56763056D01*
X102565473Y-56928444D01*
X102506458Y-57110072D01*
X102505768Y-57116633D01*
X102505768Y-57116635D01*
X102495898Y-57210547D01*
X102486496Y-57300000D01*
X65357777Y-57300000D01*
X65393542Y-57189928D01*
X65413504Y-57000000D01*
X65412814Y-56993435D01*
X65394232Y-56816635D01*
X65394232Y-56816633D01*
X65393542Y-56810072D01*
X65334527Y-56628444D01*
X65239040Y-56463056D01*
X65111253Y-56321134D01*
X64956752Y-56208882D01*
X64950724Y-56206198D01*
X64950722Y-56206197D01*
X64788319Y-56133891D01*
X64788318Y-56133891D01*
X64782288Y-56131206D01*
X64670883Y-56107526D01*
X64601944Y-56092872D01*
X64601939Y-56092872D01*
X64595487Y-56091500D01*
X64404513Y-56091500D01*
X64398061Y-56092872D01*
X64398056Y-56092872D01*
X64329117Y-56107526D01*
X64217712Y-56131206D01*
X64211682Y-56133891D01*
X64211681Y-56133891D01*
X64049278Y-56206197D01*
X64049276Y-56206198D01*
X64043248Y-56208882D01*
X63888747Y-56321134D01*
X63760960Y-56463056D01*
X63665473Y-56628444D01*
X63606458Y-56810072D01*
X63605768Y-56816633D01*
X63605768Y-56816635D01*
X63587186Y-56993435D01*
X63586496Y-57000000D01*
X62308500Y-57000000D01*
X62308500Y-56000000D01*
X82686496Y-56000000D01*
X82706458Y-56189928D01*
X82765473Y-56371556D01*
X82860960Y-56536944D01*
X82865378Y-56541851D01*
X82865379Y-56541852D01*
X82971145Y-56659317D01*
X82988747Y-56678866D01*
X83143248Y-56791118D01*
X83149276Y-56793802D01*
X83149278Y-56793803D01*
X83269644Y-56847393D01*
X83317712Y-56868794D01*
X83411112Y-56888647D01*
X83498056Y-56907128D01*
X83498061Y-56907128D01*
X83504513Y-56908500D01*
X83695487Y-56908500D01*
X83701939Y-56907128D01*
X83701944Y-56907128D01*
X83788888Y-56888647D01*
X83882288Y-56868794D01*
X83930356Y-56847393D01*
X84050722Y-56793803D01*
X84050724Y-56793802D01*
X84056752Y-56791118D01*
X84211253Y-56678866D01*
X84228855Y-56659317D01*
X84334621Y-56541852D01*
X84334622Y-56541851D01*
X84339040Y-56536944D01*
X84434527Y-56371556D01*
X84493542Y-56189928D01*
X84513504Y-56000000D01*
X84510037Y-55967015D01*
X84494232Y-55816635D01*
X84494232Y-55816633D01*
X84493542Y-55810072D01*
X84434527Y-55628444D01*
X84339040Y-55463056D01*
X84282264Y-55400000D01*
X89186496Y-55400000D01*
X89187186Y-55406565D01*
X89192608Y-55458148D01*
X89206458Y-55589928D01*
X89265473Y-55771556D01*
X89268776Y-55777278D01*
X89268777Y-55777279D01*
X89271304Y-55781655D01*
X89360960Y-55936944D01*
X89488747Y-56078866D01*
X89643248Y-56191118D01*
X89649276Y-56193802D01*
X89649278Y-56193803D01*
X89811681Y-56266109D01*
X89817712Y-56268794D01*
X89887557Y-56283640D01*
X89998056Y-56307128D01*
X89998061Y-56307128D01*
X90004513Y-56308500D01*
X90195487Y-56308500D01*
X90201939Y-56307128D01*
X90201944Y-56307128D01*
X90312443Y-56283640D01*
X90382288Y-56268794D01*
X90388319Y-56266109D01*
X90550722Y-56193803D01*
X90550724Y-56193802D01*
X90556752Y-56191118D01*
X90711253Y-56078866D01*
X90839040Y-55936944D01*
X90928696Y-55781655D01*
X90931223Y-55777279D01*
X90931224Y-55777278D01*
X90934527Y-55771556D01*
X90993542Y-55589928D01*
X91007393Y-55458148D01*
X91012814Y-55406565D01*
X91013504Y-55400000D01*
X90993542Y-55210072D01*
X90934527Y-55028444D01*
X90839040Y-54863056D01*
X90776685Y-54793803D01*
X90715675Y-54726045D01*
X90715674Y-54726044D01*
X90711253Y-54721134D01*
X90556752Y-54608882D01*
X90550724Y-54606198D01*
X90550722Y-54606197D01*
X90388319Y-54533891D01*
X90388318Y-54533891D01*
X90382288Y-54531206D01*
X90288888Y-54511353D01*
X90201944Y-54492872D01*
X90201939Y-54492872D01*
X90195487Y-54491500D01*
X90004513Y-54491500D01*
X89998061Y-54492872D01*
X89998056Y-54492872D01*
X89911112Y-54511353D01*
X89817712Y-54531206D01*
X89811682Y-54533891D01*
X89811681Y-54533891D01*
X89649278Y-54606197D01*
X89649276Y-54606198D01*
X89643248Y-54608882D01*
X89488747Y-54721134D01*
X89484326Y-54726044D01*
X89484325Y-54726045D01*
X89423316Y-54793803D01*
X89360960Y-54863056D01*
X89265473Y-55028444D01*
X89206458Y-55210072D01*
X89186496Y-55400000D01*
X84282264Y-55400000D01*
X84211253Y-55321134D01*
X84056752Y-55208882D01*
X84050724Y-55206198D01*
X84050722Y-55206197D01*
X83888319Y-55133891D01*
X83888318Y-55133891D01*
X83882288Y-55131206D01*
X83788888Y-55111353D01*
X83701944Y-55092872D01*
X83701939Y-55092872D01*
X83695487Y-55091500D01*
X83504513Y-55091500D01*
X83498061Y-55092872D01*
X83498056Y-55092872D01*
X83411112Y-55111353D01*
X83317712Y-55131206D01*
X83311682Y-55133891D01*
X83311681Y-55133891D01*
X83149278Y-55206197D01*
X83149276Y-55206198D01*
X83143248Y-55208882D01*
X82988747Y-55321134D01*
X82860960Y-55463056D01*
X82765473Y-55628444D01*
X82706458Y-55810072D01*
X82705768Y-55816633D01*
X82705768Y-55816635D01*
X82689963Y-55967015D01*
X82686496Y-56000000D01*
X62308500Y-56000000D01*
X62308500Y-54000000D01*
X80986496Y-54000000D01*
X81006458Y-54189928D01*
X81065473Y-54371556D01*
X81160960Y-54536944D01*
X81165378Y-54541851D01*
X81165379Y-54541852D01*
X81225733Y-54608882D01*
X81288747Y-54678866D01*
X81443248Y-54791118D01*
X81449276Y-54793802D01*
X81449278Y-54793803D01*
X81604824Y-54863056D01*
X81617712Y-54868794D01*
X81711112Y-54888647D01*
X81798056Y-54907128D01*
X81798061Y-54907128D01*
X81804513Y-54908500D01*
X81995487Y-54908500D01*
X82001939Y-54907128D01*
X82001944Y-54907128D01*
X82088887Y-54888647D01*
X82182288Y-54868794D01*
X82195176Y-54863056D01*
X82350722Y-54793803D01*
X82350724Y-54793802D01*
X82356752Y-54791118D01*
X82511253Y-54678866D01*
X82574267Y-54608882D01*
X82634621Y-54541852D01*
X82634622Y-54541851D01*
X82639040Y-54536944D01*
X82734527Y-54371556D01*
X82793542Y-54189928D01*
X82813504Y-54000000D01*
X82793542Y-53810072D01*
X82734527Y-53628444D01*
X82639040Y-53463056D01*
X82511253Y-53321134D01*
X82356752Y-53208882D01*
X82350724Y-53206198D01*
X82350722Y-53206197D01*
X82188319Y-53133891D01*
X82188318Y-53133891D01*
X82182288Y-53131206D01*
X82066362Y-53106565D01*
X82035477Y-53100000D01*
X91886496Y-53100000D01*
X91906458Y-53289928D01*
X91965473Y-53471556D01*
X92060960Y-53636944D01*
X92188747Y-53778866D01*
X92343248Y-53891118D01*
X92349276Y-53893802D01*
X92349278Y-53893803D01*
X92511681Y-53966109D01*
X92517712Y-53968794D01*
X92611112Y-53988647D01*
X92698056Y-54007128D01*
X92698061Y-54007128D01*
X92704513Y-54008500D01*
X92895487Y-54008500D01*
X92901939Y-54007128D01*
X92901944Y-54007128D01*
X92988888Y-53988647D01*
X93082288Y-53968794D01*
X93088319Y-53966109D01*
X93250722Y-53893803D01*
X93250724Y-53893802D01*
X93256752Y-53891118D01*
X93411253Y-53778866D01*
X93539040Y-53636944D01*
X93634527Y-53471556D01*
X93693542Y-53289928D01*
X93713504Y-53100000D01*
X93693542Y-52910072D01*
X93634527Y-52728444D01*
X93539040Y-52563056D01*
X93498941Y-52518521D01*
X93468225Y-52454516D01*
X93476988Y-52384063D01*
X93522451Y-52329531D01*
X93542689Y-52319695D01*
X93542288Y-52318794D01*
X93710722Y-52243803D01*
X93710724Y-52243802D01*
X93716752Y-52241118D01*
X93871253Y-52128866D01*
X93958943Y-52031476D01*
X93994621Y-51991852D01*
X93994625Y-51991847D01*
X93999040Y-51986944D01*
X94069288Y-51865271D01*
X94091223Y-51827279D01*
X94091224Y-51827278D01*
X94094527Y-51821556D01*
X94127044Y-51721478D01*
X94167118Y-51662874D01*
X94232514Y-51635237D01*
X94302471Y-51647344D01*
X94354777Y-51695350D01*
X94366710Y-51721479D01*
X94415473Y-51871556D01*
X94510960Y-52036944D01*
X94515378Y-52041851D01*
X94515379Y-52041852D01*
X94589305Y-52123955D01*
X94638747Y-52178866D01*
X94793248Y-52291118D01*
X94799276Y-52293802D01*
X94799278Y-52293803D01*
X94857433Y-52319695D01*
X94967712Y-52368794D01*
X95039547Y-52384063D01*
X95148056Y-52407128D01*
X95148061Y-52407128D01*
X95154513Y-52408500D01*
X95345487Y-52408500D01*
X95351939Y-52407128D01*
X95351944Y-52407128D01*
X95460453Y-52384063D01*
X95532288Y-52368794D01*
X95642567Y-52319695D01*
X95700722Y-52293803D01*
X95700724Y-52293802D01*
X95706752Y-52291118D01*
X95861253Y-52178866D01*
X95910695Y-52123955D01*
X95984621Y-52041852D01*
X95984622Y-52041851D01*
X95989040Y-52036944D01*
X96084527Y-51871556D01*
X96143542Y-51689928D01*
X96146386Y-51662874D01*
X96162814Y-51506565D01*
X96163504Y-51500000D01*
X96157559Y-51443435D01*
X96144232Y-51316635D01*
X96144232Y-51316633D01*
X96143542Y-51310072D01*
X96084527Y-51128444D01*
X95989040Y-50963056D01*
X95949169Y-50918774D01*
X95865675Y-50826045D01*
X95865674Y-50826044D01*
X95861253Y-50821134D01*
X95762157Y-50749136D01*
X95712094Y-50712763D01*
X95712093Y-50712762D01*
X95706752Y-50708882D01*
X95700724Y-50706198D01*
X95700722Y-50706197D01*
X95538319Y-50633891D01*
X95538318Y-50633891D01*
X95532288Y-50631206D01*
X95479568Y-50620000D01*
X101416496Y-50620000D01*
X101417186Y-50626565D01*
X101432381Y-50771134D01*
X101436458Y-50809928D01*
X101495473Y-50991556D01*
X101590960Y-51156944D01*
X101595378Y-51161851D01*
X101595379Y-51161852D01*
X101655407Y-51228520D01*
X101718747Y-51298866D01*
X101873248Y-51411118D01*
X101879276Y-51413802D01*
X101879278Y-51413803D01*
X101975324Y-51456565D01*
X102047712Y-51488794D01*
X102131318Y-51506565D01*
X102228056Y-51527128D01*
X102228061Y-51527128D01*
X102234513Y-51528500D01*
X102425487Y-51528500D01*
X102431939Y-51527128D01*
X102431944Y-51527128D01*
X102528682Y-51506565D01*
X102612288Y-51488794D01*
X102684676Y-51456565D01*
X102780722Y-51413803D01*
X102780724Y-51413802D01*
X102786752Y-51411118D01*
X102941253Y-51298866D01*
X103004593Y-51228520D01*
X103064621Y-51161852D01*
X103064622Y-51161851D01*
X103069040Y-51156944D01*
X103164527Y-50991556D01*
X103223542Y-50809928D01*
X103227620Y-50771134D01*
X103242814Y-50626565D01*
X103243504Y-50620000D01*
X103235398Y-50542872D01*
X103224232Y-50436635D01*
X103224232Y-50436633D01*
X103223542Y-50430072D01*
X103164527Y-50248444D01*
X103069040Y-50083056D01*
X102946593Y-49947064D01*
X108997707Y-49947064D01*
X109026825Y-50139599D01*
X109029028Y-50145585D01*
X109029029Y-50145591D01*
X109091860Y-50316360D01*
X109091862Y-50316365D01*
X109094063Y-50322346D01*
X109196674Y-50487840D01*
X109201055Y-50492473D01*
X109201056Y-50492474D01*
X109320179Y-50618444D01*
X109330466Y-50629322D01*
X109335696Y-50632984D01*
X109335697Y-50632985D01*
X109372682Y-50658882D01*
X109489975Y-50741011D01*
X109495838Y-50743548D01*
X109662825Y-50815810D01*
X109662829Y-50815811D01*
X109668684Y-50818345D01*
X109674931Y-50819650D01*
X109674934Y-50819651D01*
X109854557Y-50857176D01*
X109854562Y-50857177D01*
X109859293Y-50858165D01*
X109865685Y-50858500D01*
X110008663Y-50858500D01*
X110077951Y-50851462D01*
X110147378Y-50844410D01*
X110147379Y-50844410D01*
X110153727Y-50843765D01*
X110210272Y-50826045D01*
X110333451Y-50787444D01*
X110333456Y-50787442D01*
X110339541Y-50785535D01*
X110470824Y-50712763D01*
X110504271Y-50694223D01*
X110504274Y-50694221D01*
X110509850Y-50691130D01*
X110514691Y-50686981D01*
X110514695Y-50686978D01*
X110652855Y-50568560D01*
X110657698Y-50564409D01*
X110777046Y-50410547D01*
X110817779Y-50327768D01*
X110860200Y-50241556D01*
X110863018Y-50235829D01*
X110872642Y-50198882D01*
X110910492Y-50053575D01*
X110910492Y-50053572D01*
X110912102Y-50047393D01*
X110922293Y-49852936D01*
X110893175Y-49660401D01*
X110890972Y-49654415D01*
X110890971Y-49654409D01*
X110828140Y-49483640D01*
X110828138Y-49483635D01*
X110825937Y-49477654D01*
X110723326Y-49312160D01*
X110589534Y-49170678D01*
X110430025Y-49058989D01*
X110382013Y-49038212D01*
X110257175Y-48984190D01*
X110257171Y-48984189D01*
X110251316Y-48981655D01*
X110245069Y-48980350D01*
X110245066Y-48980349D01*
X110065443Y-48942824D01*
X110065438Y-48942823D01*
X110060707Y-48941835D01*
X110054315Y-48941500D01*
X109911337Y-48941500D01*
X109842049Y-48948538D01*
X109772622Y-48955590D01*
X109772621Y-48955590D01*
X109766273Y-48956235D01*
X109709939Y-48973889D01*
X109586549Y-49012556D01*
X109586544Y-49012558D01*
X109580459Y-49014465D01*
X109504713Y-49056452D01*
X109415729Y-49105777D01*
X109415726Y-49105779D01*
X109410150Y-49108870D01*
X109405309Y-49113019D01*
X109405305Y-49113022D01*
X109342311Y-49167015D01*
X109262302Y-49235591D01*
X109142954Y-49389453D01*
X109140138Y-49395176D01*
X109140136Y-49395179D01*
X109096608Y-49483640D01*
X109056982Y-49564171D01*
X109055373Y-49570349D01*
X109055372Y-49570351D01*
X109018606Y-49711500D01*
X109007898Y-49752607D01*
X108997707Y-49947064D01*
X102946593Y-49947064D01*
X102945675Y-49946045D01*
X102945674Y-49946044D01*
X102941253Y-49941134D01*
X102819859Y-49852936D01*
X102792094Y-49832763D01*
X102792093Y-49832762D01*
X102786752Y-49828882D01*
X102780724Y-49826198D01*
X102780722Y-49826197D01*
X102618319Y-49753891D01*
X102618318Y-49753891D01*
X102612288Y-49751206D01*
X102518888Y-49731353D01*
X102431944Y-49712872D01*
X102431939Y-49712872D01*
X102425487Y-49711500D01*
X102234513Y-49711500D01*
X102228061Y-49712872D01*
X102228056Y-49712872D01*
X102141112Y-49731353D01*
X102047712Y-49751206D01*
X102041682Y-49753891D01*
X102041681Y-49753891D01*
X101879278Y-49826197D01*
X101879276Y-49826198D01*
X101873248Y-49828882D01*
X101867907Y-49832762D01*
X101867906Y-49832763D01*
X101840141Y-49852936D01*
X101718747Y-49941134D01*
X101714326Y-49946044D01*
X101714325Y-49946045D01*
X101713408Y-49947064D01*
X101590960Y-50083056D01*
X101495473Y-50248444D01*
X101436458Y-50430072D01*
X101435768Y-50436633D01*
X101435768Y-50436635D01*
X101424602Y-50542872D01*
X101416496Y-50620000D01*
X95479568Y-50620000D01*
X95438887Y-50611353D01*
X95351944Y-50592872D01*
X95351939Y-50592872D01*
X95345487Y-50591500D01*
X95154513Y-50591500D01*
X95148061Y-50592872D01*
X95148056Y-50592872D01*
X95061113Y-50611353D01*
X94967712Y-50631206D01*
X94961682Y-50633891D01*
X94961681Y-50633891D01*
X94799278Y-50706197D01*
X94799276Y-50706198D01*
X94793248Y-50708882D01*
X94787907Y-50712762D01*
X94787906Y-50712763D01*
X94737843Y-50749136D01*
X94638747Y-50821134D01*
X94634326Y-50826044D01*
X94634325Y-50826045D01*
X94550832Y-50918774D01*
X94510960Y-50963056D01*
X94415473Y-51128444D01*
X94413432Y-51134726D01*
X94382956Y-51228521D01*
X94342882Y-51287126D01*
X94277486Y-51314763D01*
X94207529Y-51302656D01*
X94155223Y-51254650D01*
X94143290Y-51228520D01*
X94110773Y-51128444D01*
X94094527Y-51078444D01*
X93999040Y-50913056D01*
X93948726Y-50857176D01*
X93875675Y-50776045D01*
X93875674Y-50776044D01*
X93871253Y-50771134D01*
X93716752Y-50658882D01*
X93710724Y-50656198D01*
X93710722Y-50656197D01*
X93548319Y-50583891D01*
X93548318Y-50583891D01*
X93542288Y-50581206D01*
X93448888Y-50561353D01*
X93361944Y-50542872D01*
X93361939Y-50542872D01*
X93355487Y-50541500D01*
X93164513Y-50541500D01*
X93158061Y-50542872D01*
X93158056Y-50542872D01*
X93071112Y-50561353D01*
X92977712Y-50581206D01*
X92971682Y-50583891D01*
X92971681Y-50583891D01*
X92809278Y-50656197D01*
X92809276Y-50656198D01*
X92803248Y-50658882D01*
X92648747Y-50771134D01*
X92644326Y-50776044D01*
X92644325Y-50776045D01*
X92571275Y-50857176D01*
X92520960Y-50913056D01*
X92425473Y-51078444D01*
X92366458Y-51260072D01*
X92365768Y-51266633D01*
X92365768Y-51266635D01*
X92350583Y-51411118D01*
X92346496Y-51450000D01*
X92347186Y-51456565D01*
X92354747Y-51528500D01*
X92366458Y-51639928D01*
X92425473Y-51821556D01*
X92428776Y-51827278D01*
X92428777Y-51827279D01*
X92450712Y-51865271D01*
X92520960Y-51986944D01*
X92561059Y-52031479D01*
X92591775Y-52095484D01*
X92583012Y-52165937D01*
X92537549Y-52220469D01*
X92517311Y-52230305D01*
X92517712Y-52231206D01*
X92349278Y-52306197D01*
X92349276Y-52306198D01*
X92343248Y-52308882D01*
X92188747Y-52421134D01*
X92060960Y-52563056D01*
X91965473Y-52728444D01*
X91906458Y-52910072D01*
X91886496Y-53100000D01*
X82035477Y-53100000D01*
X82001944Y-53092872D01*
X82001939Y-53092872D01*
X81995487Y-53091500D01*
X81804513Y-53091500D01*
X81798061Y-53092872D01*
X81798056Y-53092872D01*
X81733638Y-53106565D01*
X81617712Y-53131206D01*
X81611682Y-53133891D01*
X81611681Y-53133891D01*
X81449278Y-53206197D01*
X81449276Y-53206198D01*
X81443248Y-53208882D01*
X81288747Y-53321134D01*
X81160960Y-53463056D01*
X81065473Y-53628444D01*
X81006458Y-53810072D01*
X80986496Y-54000000D01*
X62308500Y-54000000D01*
X62308500Y-50990000D01*
X72486496Y-50990000D01*
X72506458Y-51179928D01*
X72565473Y-51361556D01*
X72660960Y-51526944D01*
X72665378Y-51531851D01*
X72665379Y-51531852D01*
X72783352Y-51662874D01*
X72788747Y-51668866D01*
X72943248Y-51781118D01*
X72949276Y-51783802D01*
X72949278Y-51783803D01*
X73111681Y-51856109D01*
X73117712Y-51858794D01*
X73204677Y-51877279D01*
X73298056Y-51897128D01*
X73298061Y-51897128D01*
X73304513Y-51898500D01*
X73495487Y-51898500D01*
X73501939Y-51897128D01*
X73501944Y-51897128D01*
X73595323Y-51877279D01*
X73682288Y-51858794D01*
X73688319Y-51856109D01*
X73850722Y-51783803D01*
X73850724Y-51783802D01*
X73856752Y-51781118D01*
X74011253Y-51668866D01*
X74016648Y-51662874D01*
X74134621Y-51531852D01*
X74134622Y-51531851D01*
X74139040Y-51526944D01*
X74234527Y-51361556D01*
X74293542Y-51179928D01*
X74313504Y-50990000D01*
X74293542Y-50800072D01*
X74234527Y-50618444D01*
X74212236Y-50579834D01*
X74161798Y-50492474D01*
X74139040Y-50453056D01*
X74124255Y-50436635D01*
X74015675Y-50316045D01*
X74015674Y-50316044D01*
X74011253Y-50311134D01*
X73856752Y-50198882D01*
X73850724Y-50196198D01*
X73850722Y-50196197D01*
X73688319Y-50123891D01*
X73688318Y-50123891D01*
X73682288Y-50121206D01*
X73588887Y-50101353D01*
X73501944Y-50082872D01*
X73501939Y-50082872D01*
X73495487Y-50081500D01*
X73304513Y-50081500D01*
X73298061Y-50082872D01*
X73298056Y-50082872D01*
X73211112Y-50101353D01*
X73117712Y-50121206D01*
X73111682Y-50123891D01*
X73111681Y-50123891D01*
X72949278Y-50196197D01*
X72949276Y-50196198D01*
X72943248Y-50198882D01*
X72788747Y-50311134D01*
X72784326Y-50316044D01*
X72784325Y-50316045D01*
X72675746Y-50436635D01*
X72660960Y-50453056D01*
X72638202Y-50492474D01*
X72587765Y-50579834D01*
X72565473Y-50618444D01*
X72506458Y-50800072D01*
X72486496Y-50990000D01*
X62308500Y-50990000D01*
X62308500Y-47940000D01*
X75716496Y-47940000D01*
X75736458Y-48129928D01*
X75795473Y-48311556D01*
X75890960Y-48476944D01*
X76018747Y-48618866D01*
X76173248Y-48731118D01*
X76179276Y-48733802D01*
X76179278Y-48733803D01*
X76341681Y-48806109D01*
X76347712Y-48808794D01*
X76441112Y-48828647D01*
X76528056Y-48847128D01*
X76528061Y-48847128D01*
X76534513Y-48848500D01*
X76725487Y-48848500D01*
X76731939Y-48847128D01*
X76731944Y-48847128D01*
X76818887Y-48828647D01*
X76912288Y-48808794D01*
X76918319Y-48806109D01*
X77080722Y-48733803D01*
X77080724Y-48733802D01*
X77086752Y-48731118D01*
X77241253Y-48618866D01*
X77369040Y-48476944D01*
X77464527Y-48311556D01*
X77523542Y-48129928D01*
X77543504Y-47940000D01*
X77523542Y-47750072D01*
X77464527Y-47568444D01*
X77369040Y-47403056D01*
X77256890Y-47278500D01*
X77245675Y-47266045D01*
X77245674Y-47266044D01*
X77241253Y-47261134D01*
X77107289Y-47163803D01*
X77092094Y-47152763D01*
X77092093Y-47152762D01*
X77086752Y-47148882D01*
X77080724Y-47146198D01*
X77080722Y-47146197D01*
X76918319Y-47073891D01*
X76918318Y-47073891D01*
X76912288Y-47071206D01*
X76807187Y-47048866D01*
X76731944Y-47032872D01*
X76731939Y-47032872D01*
X76725487Y-47031500D01*
X76534513Y-47031500D01*
X76528061Y-47032872D01*
X76528056Y-47032872D01*
X76452813Y-47048866D01*
X76347712Y-47071206D01*
X76341682Y-47073891D01*
X76341681Y-47073891D01*
X76179278Y-47146197D01*
X76179276Y-47146198D01*
X76173248Y-47148882D01*
X76167907Y-47152762D01*
X76167906Y-47152763D01*
X76152711Y-47163803D01*
X76018747Y-47261134D01*
X76014326Y-47266044D01*
X76014325Y-47266045D01*
X76003111Y-47278500D01*
X75890960Y-47403056D01*
X75795473Y-47568444D01*
X75736458Y-47750072D01*
X75716496Y-47940000D01*
X62308500Y-47940000D01*
X62308500Y-46370000D01*
X91196496Y-46370000D01*
X91216458Y-46559928D01*
X91275473Y-46741556D01*
X91370960Y-46906944D01*
X91375378Y-46911851D01*
X91375379Y-46911852D01*
X91484346Y-47032872D01*
X91498747Y-47048866D01*
X91533191Y-47073891D01*
X91636407Y-47148882D01*
X91653248Y-47161118D01*
X91659276Y-47163802D01*
X91659278Y-47163803D01*
X91821681Y-47236109D01*
X91827712Y-47238794D01*
X91914545Y-47257251D01*
X92008056Y-47277128D01*
X92008061Y-47277128D01*
X92014513Y-47278500D01*
X92205487Y-47278500D01*
X92211939Y-47277128D01*
X92211944Y-47277128D01*
X92305455Y-47257251D01*
X92392288Y-47238794D01*
X92398319Y-47236109D01*
X92560722Y-47163803D01*
X92560724Y-47163802D01*
X92566752Y-47161118D01*
X92583594Y-47148882D01*
X92686809Y-47073891D01*
X92721253Y-47048866D01*
X92735654Y-47032872D01*
X92844621Y-46911852D01*
X92844622Y-46911851D01*
X92849040Y-46906944D01*
X92944527Y-46741556D01*
X93003542Y-46559928D01*
X93023504Y-46370000D01*
X93021281Y-46348851D01*
X93004232Y-46186635D01*
X93004232Y-46186633D01*
X93003542Y-46180072D01*
X92944527Y-45998444D01*
X92849040Y-45833056D01*
X92792516Y-45770279D01*
X92725675Y-45696045D01*
X92725674Y-45696044D01*
X92721253Y-45691134D01*
X92566752Y-45578882D01*
X92560724Y-45576198D01*
X92560722Y-45576197D01*
X92398319Y-45503891D01*
X92398318Y-45503891D01*
X92392288Y-45501206D01*
X92298887Y-45481353D01*
X92211944Y-45462872D01*
X92211939Y-45462872D01*
X92205487Y-45461500D01*
X92014513Y-45461500D01*
X92008061Y-45462872D01*
X92008056Y-45462872D01*
X91921112Y-45481353D01*
X91827712Y-45501206D01*
X91821682Y-45503891D01*
X91821681Y-45503891D01*
X91659278Y-45576197D01*
X91659276Y-45576198D01*
X91653248Y-45578882D01*
X91498747Y-45691134D01*
X91494326Y-45696044D01*
X91494325Y-45696045D01*
X91427485Y-45770279D01*
X91370960Y-45833056D01*
X91275473Y-45998444D01*
X91216458Y-46180072D01*
X91215768Y-46186633D01*
X91215768Y-46186635D01*
X91198719Y-46348851D01*
X91196496Y-46370000D01*
X62308500Y-46370000D01*
X62308500Y-39931579D01*
X62309107Y-39919229D01*
X62312350Y-39886305D01*
X62312350Y-39886303D01*
X62313230Y-39877367D01*
X62302332Y-39819557D01*
X62301424Y-39814080D01*
X62294352Y-39764696D01*
X62293080Y-39755813D01*
X62289397Y-39747711D01*
X62289051Y-39746271D01*
X62288444Y-39744353D01*
X62287897Y-39742974D01*
X62286249Y-39734231D01*
X62259550Y-39681775D01*
X62257163Y-39676818D01*
X62232792Y-39623218D01*
X62226983Y-39616476D01*
X62226248Y-39615192D01*
X62225132Y-39613528D01*
X62224216Y-39612354D01*
X62220178Y-39604420D01*
X62214023Y-39597883D01*
X62214021Y-39597880D01*
X62179845Y-39561582D01*
X62176129Y-39557457D01*
X62143573Y-39519674D01*
X62137713Y-39512873D01*
X62099097Y-39487843D01*
X62090274Y-39481570D01*
X61977613Y-39393945D01*
X61936121Y-39336335D01*
X61932363Y-39265438D01*
X61967532Y-39203764D01*
X62023635Y-39172445D01*
X62281915Y-39106131D01*
X62281918Y-39106130D01*
X62285739Y-39105149D01*
X62289409Y-39103696D01*
X62563843Y-38995040D01*
X62563848Y-38995038D01*
X62567517Y-38993585D01*
X62570986Y-38991678D01*
X62829618Y-38849493D01*
X62829621Y-38849491D01*
X62833090Y-38847584D01*
X63078271Y-38669450D01*
X63299192Y-38461992D01*
X63492370Y-38228480D01*
X63654758Y-37972598D01*
X63783794Y-37698381D01*
X63794153Y-37666501D01*
X63868105Y-37438900D01*
X63877445Y-37410154D01*
X63880797Y-37392585D01*
X63888797Y-37350644D01*
X63921209Y-37287477D01*
X63982626Y-37251862D01*
X64053548Y-37255104D01*
X64113365Y-37298653D01*
X64177541Y-37384221D01*
X64183301Y-37392582D01*
X64208776Y-37432958D01*
X64248702Y-37468219D01*
X64254358Y-37473533D01*
X64292048Y-37511198D01*
X64299924Y-37515506D01*
X64305442Y-37519639D01*
X64311223Y-37523436D01*
X64317951Y-37529378D01*
X64366173Y-37552018D01*
X64373083Y-37555526D01*
X64419836Y-37581101D01*
X64428598Y-37583024D01*
X64435064Y-37585446D01*
X64441677Y-37587468D01*
X64449800Y-37591281D01*
X64502446Y-37599478D01*
X64510075Y-37600908D01*
X64562106Y-37612329D01*
X64613688Y-37608795D01*
X64622300Y-37608500D01*
X78966225Y-37608500D01*
X79034346Y-37628502D01*
X79080839Y-37682158D01*
X79092225Y-37734356D01*
X79101491Y-45832563D01*
X79101489Y-45833475D01*
X79101408Y-45846843D01*
X79101024Y-45909721D01*
X79103491Y-45918351D01*
X79103491Y-45918354D01*
X79109249Y-45938501D01*
X79112807Y-45955120D01*
X79113624Y-45960775D01*
X79117085Y-45984751D01*
X79120809Y-45992916D01*
X79127589Y-46007783D01*
X79134095Y-46025437D01*
X79138582Y-46041136D01*
X79138585Y-46041142D01*
X79141051Y-46049771D01*
X79145841Y-46057363D01*
X79145842Y-46057365D01*
X79157025Y-46075090D01*
X79165101Y-46090037D01*
X79172645Y-46106576D01*
X79177525Y-46117277D01*
X79183393Y-46124071D01*
X79194066Y-46136429D01*
X79205271Y-46151554D01*
X79213984Y-46165364D01*
X79213987Y-46165367D01*
X79218776Y-46172958D01*
X79225504Y-46178900D01*
X79241212Y-46192773D01*
X79253163Y-46204857D01*
X79272730Y-46227513D01*
X79293996Y-46241263D01*
X79308973Y-46252618D01*
X79327951Y-46269378D01*
X79355046Y-46282099D01*
X79369899Y-46290338D01*
X79395049Y-46306599D01*
X79419321Y-46313828D01*
X79436892Y-46320526D01*
X79459800Y-46331281D01*
X79489374Y-46335886D01*
X79505951Y-46339627D01*
X79534647Y-46348173D01*
X79562697Y-46348312D01*
X79568960Y-46348343D01*
X79569532Y-46348367D01*
X79570386Y-46348500D01*
X79600303Y-46348500D01*
X79600928Y-46348502D01*
X79677009Y-46348880D01*
X79677014Y-46348880D01*
X79680303Y-46348896D01*
X79681415Y-46348577D01*
X79682531Y-46348500D01*
X86700303Y-46348500D01*
X86700928Y-46348502D01*
X86780303Y-46348896D01*
X86808375Y-46340838D01*
X86825274Y-46337220D01*
X86834599Y-46335885D01*
X86845299Y-46334353D01*
X86845301Y-46334352D01*
X86854187Y-46333080D01*
X86862359Y-46329365D01*
X86862364Y-46329363D01*
X86877898Y-46322300D01*
X86895283Y-46315892D01*
X86920307Y-46308709D01*
X86944987Y-46293097D01*
X86960193Y-46284882D01*
X86978605Y-46276511D01*
X86978611Y-46276507D01*
X86986782Y-46272792D01*
X86993581Y-46266933D01*
X86993585Y-46266931D01*
X87006509Y-46255794D01*
X87021401Y-46244762D01*
X87035821Y-46235641D01*
X87035824Y-46235638D01*
X87043405Y-46230843D01*
X87049334Y-46224114D01*
X87049339Y-46224110D01*
X87062719Y-46208925D01*
X87075002Y-46196777D01*
X87097127Y-46177713D01*
X87102010Y-46170180D01*
X87102015Y-46170174D01*
X87111295Y-46155857D01*
X87122486Y-46141095D01*
X87133765Y-46128294D01*
X87133766Y-46128293D01*
X87139700Y-46121558D01*
X87152083Y-46095103D01*
X87160458Y-46080005D01*
X87176352Y-46055485D01*
X87178924Y-46046886D01*
X87178926Y-46046881D01*
X87183815Y-46030534D01*
X87190413Y-46013224D01*
X87197648Y-45997767D01*
X87197648Y-45997766D01*
X87201453Y-45989638D01*
X87205913Y-45960774D01*
X87209716Y-45943920D01*
X87218086Y-45915934D01*
X87218297Y-45881390D01*
X87218340Y-45880362D01*
X87218545Y-45879032D01*
X87218509Y-45847336D01*
X87218511Y-45846424D01*
X87218948Y-45774851D01*
X87218976Y-45770279D01*
X87218525Y-45768703D01*
X87218417Y-45767127D01*
X87216166Y-43800000D01*
X92786496Y-43800000D01*
X92806458Y-43989928D01*
X92865473Y-44171556D01*
X92868776Y-44177278D01*
X92868777Y-44177279D01*
X92886098Y-44207279D01*
X92960960Y-44336944D01*
X92965378Y-44341851D01*
X92965379Y-44341852D01*
X92987972Y-44366944D01*
X93088747Y-44478866D01*
X93243248Y-44591118D01*
X93249276Y-44593802D01*
X93249278Y-44593803D01*
X93310629Y-44621118D01*
X93417712Y-44668794D01*
X93511113Y-44688647D01*
X93598056Y-44707128D01*
X93598061Y-44707128D01*
X93604513Y-44708500D01*
X93795487Y-44708500D01*
X93801939Y-44707128D01*
X93801944Y-44707128D01*
X93888888Y-44688647D01*
X93982288Y-44668794D01*
X94089371Y-44621118D01*
X94150722Y-44593803D01*
X94150724Y-44593802D01*
X94156752Y-44591118D01*
X94311253Y-44478866D01*
X94412028Y-44366944D01*
X94434621Y-44341852D01*
X94434622Y-44341851D01*
X94439040Y-44336944D01*
X94513902Y-44207279D01*
X94531223Y-44177279D01*
X94531224Y-44177278D01*
X94534527Y-44171556D01*
X94593542Y-43989928D01*
X94610351Y-43830000D01*
X97666496Y-43830000D01*
X97686458Y-44019928D01*
X97745473Y-44201556D01*
X97840960Y-44366944D01*
X97968747Y-44508866D01*
X98123248Y-44621118D01*
X98129276Y-44623802D01*
X98129278Y-44623803D01*
X98233412Y-44670166D01*
X98297712Y-44698794D01*
X98391113Y-44718647D01*
X98478056Y-44737128D01*
X98478061Y-44737128D01*
X98484513Y-44738500D01*
X98675487Y-44738500D01*
X98681939Y-44737128D01*
X98681944Y-44737128D01*
X98768887Y-44718647D01*
X98862288Y-44698794D01*
X98926588Y-44670166D01*
X99030722Y-44623803D01*
X99030724Y-44623802D01*
X99036752Y-44621118D01*
X99191253Y-44508866D01*
X99319040Y-44366944D01*
X99414527Y-44201556D01*
X99473542Y-44019928D01*
X99493504Y-43830000D01*
X99473542Y-43640072D01*
X99414527Y-43458444D01*
X99397207Y-43428444D01*
X99322341Y-43298774D01*
X99319040Y-43293056D01*
X99297177Y-43268774D01*
X99195675Y-43156045D01*
X99195674Y-43156044D01*
X99191253Y-43151134D01*
X99036752Y-43038882D01*
X99030724Y-43036198D01*
X99030722Y-43036197D01*
X98868319Y-42963891D01*
X98868318Y-42963891D01*
X98862288Y-42961206D01*
X98768888Y-42941353D01*
X98681944Y-42922872D01*
X98681939Y-42922872D01*
X98675487Y-42921500D01*
X98484513Y-42921500D01*
X98478061Y-42922872D01*
X98478056Y-42922872D01*
X98391112Y-42941353D01*
X98297712Y-42961206D01*
X98291682Y-42963891D01*
X98291681Y-42963891D01*
X98129278Y-43036197D01*
X98129276Y-43036198D01*
X98123248Y-43038882D01*
X97968747Y-43151134D01*
X97964326Y-43156044D01*
X97964325Y-43156045D01*
X97862824Y-43268774D01*
X97840960Y-43293056D01*
X97837659Y-43298774D01*
X97762794Y-43428444D01*
X97745473Y-43458444D01*
X97686458Y-43640072D01*
X97666496Y-43830000D01*
X94610351Y-43830000D01*
X94613504Y-43800000D01*
X94593542Y-43610072D01*
X94534527Y-43428444D01*
X94439040Y-43263056D01*
X94311253Y-43121134D01*
X94156752Y-43008882D01*
X94150724Y-43006198D01*
X94150722Y-43006197D01*
X93988319Y-42933891D01*
X93988318Y-42933891D01*
X93982288Y-42931206D01*
X93888888Y-42911353D01*
X93801944Y-42892872D01*
X93801939Y-42892872D01*
X93795487Y-42891500D01*
X93604513Y-42891500D01*
X93598061Y-42892872D01*
X93598056Y-42892872D01*
X93511112Y-42911353D01*
X93417712Y-42931206D01*
X93411682Y-42933891D01*
X93411681Y-42933891D01*
X93249278Y-43006197D01*
X93249276Y-43006198D01*
X93243248Y-43008882D01*
X93088747Y-43121134D01*
X92960960Y-43263056D01*
X92865473Y-43428444D01*
X92806458Y-43610072D01*
X92786496Y-43800000D01*
X87216166Y-43800000D01*
X87212322Y-40440000D01*
X104858996Y-40440000D01*
X104878958Y-40629928D01*
X104937973Y-40811556D01*
X105033460Y-40976944D01*
X105161247Y-41118866D01*
X105315748Y-41231118D01*
X105321776Y-41233802D01*
X105321778Y-41233803D01*
X105484181Y-41306109D01*
X105490212Y-41308794D01*
X105583613Y-41328647D01*
X105670556Y-41347128D01*
X105670561Y-41347128D01*
X105677013Y-41348500D01*
X105867987Y-41348500D01*
X105874439Y-41347128D01*
X105874444Y-41347128D01*
X105961387Y-41328647D01*
X106054788Y-41308794D01*
X106060819Y-41306109D01*
X106223222Y-41233803D01*
X106223224Y-41233802D01*
X106229252Y-41231118D01*
X106383753Y-41118866D01*
X106511540Y-40976944D01*
X106607027Y-40811556D01*
X106666042Y-40629928D01*
X106686004Y-40440000D01*
X106666042Y-40250072D01*
X106607027Y-40068444D01*
X106511540Y-39903056D01*
X106496458Y-39886305D01*
X106388175Y-39766045D01*
X106388174Y-39766044D01*
X106383753Y-39761134D01*
X106229252Y-39648882D01*
X106223224Y-39646198D01*
X106223222Y-39646197D01*
X106060819Y-39573891D01*
X106060818Y-39573891D01*
X106054788Y-39571206D01*
X105946272Y-39548140D01*
X105874444Y-39532872D01*
X105874439Y-39532872D01*
X105867987Y-39531500D01*
X105677013Y-39531500D01*
X105670561Y-39532872D01*
X105670556Y-39532872D01*
X105598728Y-39548140D01*
X105490212Y-39571206D01*
X105484182Y-39573891D01*
X105484181Y-39573891D01*
X105321778Y-39646197D01*
X105321776Y-39646198D01*
X105315748Y-39648882D01*
X105161247Y-39761134D01*
X105156826Y-39766044D01*
X105156825Y-39766045D01*
X105048543Y-39886305D01*
X105033460Y-39903056D01*
X104937973Y-40068444D01*
X104878958Y-40250072D01*
X104858996Y-40440000D01*
X87212322Y-40440000D01*
X87211904Y-40074729D01*
X87209226Y-37734643D01*
X87229150Y-37666501D01*
X87282753Y-37619946D01*
X87335226Y-37608500D01*
X109568421Y-37608500D01*
X109580771Y-37609107D01*
X109613695Y-37612350D01*
X109613697Y-37612350D01*
X109622633Y-37613230D01*
X109680443Y-37602332D01*
X109685920Y-37601424D01*
X109744187Y-37593080D01*
X109752289Y-37589397D01*
X109753729Y-37589051D01*
X109755647Y-37588444D01*
X109757026Y-37587897D01*
X109765769Y-37586249D01*
X109773764Y-37582180D01*
X109773766Y-37582179D01*
X109818221Y-37559552D01*
X109823182Y-37557163D01*
X109876782Y-37532792D01*
X109883524Y-37526983D01*
X109884808Y-37526248D01*
X109886472Y-37525132D01*
X109887646Y-37524216D01*
X109895580Y-37520178D01*
X109902117Y-37514023D01*
X109902120Y-37514021D01*
X109938418Y-37479845D01*
X109942543Y-37476129D01*
X109980326Y-37443573D01*
X109987127Y-37437713D01*
X110012154Y-37399101D01*
X110018426Y-37390279D01*
X110019976Y-37388287D01*
X110176547Y-37186981D01*
X110234157Y-37145490D01*
X110305055Y-37141732D01*
X110366729Y-37176901D01*
G37*
%TD.AperFunction*%
%TD*%
M02*
