%TF.GenerationSoftware,KiCad,Pcbnew,(6.0.8)*%
%TF.CreationDate,2023-02-13T22:45:08-05:00*%
%TF.ProjectId,miura_board,6d697572-615f-4626-9f61-72642e6b6963,rev?*%
%TF.SameCoordinates,Original*%
%TF.FileFunction,Drillmap*%
%TF.FilePolarity,Positive*%
%FSLAX45Y45*%
G04 Gerber Fmt 4.5, Leading zero omitted, Abs format (unit mm)*
G04 Created by KiCad (PCBNEW (6.0.8)) date 2023-02-13 22:45:08*
%MOMM*%
%LPD*%
G01*
G04 APERTURE LIST*
%ADD10C,0.100000*%
%ADD11C,0.200000*%
%ADD12C,0.040000*%
%ADD13C,0.060000*%
%ADD14C,0.065000*%
%ADD15C,0.220000*%
G04 APERTURE END LIST*
D10*
X6339999Y-3550000D02*
G75*
G03*
X6000000Y-3850000I-192151J-124895D01*
G01*
X6460000Y-3710000D02*
X7960000Y-3710000D01*
X6180000Y-8160000D02*
X6020000Y-8260000D01*
X6460000Y-8430000D02*
X10960000Y-8430000D01*
X10960000Y-3710000D02*
X11100000Y-3530000D01*
X6020002Y-8260004D02*
G75*
G03*
X6320000Y-8600000I124898J-192146D01*
G01*
X6460000Y-8430000D02*
X6320000Y-8600000D01*
X7960000Y-3710000D02*
X7961000Y-4584000D01*
X8670000Y-3710000D02*
X10960000Y-3710000D01*
X6340000Y-3550000D02*
X6460000Y-3710000D01*
X8671000Y-4584000D02*
X7961000Y-4584000D01*
X11380001Y-3880003D02*
G75*
G03*
X11100000Y-3530000I-105461J202633D01*
G01*
X11220000Y-8160000D02*
X11400000Y-8280000D01*
X11220000Y-8160000D02*
X11220000Y-3990000D01*
X8670000Y-3710000D02*
X8671000Y-4584000D01*
X6000000Y-3850000D02*
X6180000Y-3990000D01*
X6180000Y-8160000D02*
X6180000Y-3990000D01*
X11220000Y-3990000D02*
X11380000Y-3880000D01*
X10960000Y-8430000D02*
X11060000Y-8580000D01*
X11060000Y-8580000D02*
G75*
G03*
X11400000Y-8280000I192150J124897D01*
G01*
D11*
D12*
X6320000Y-6280000D02*
X6360000Y-6320000D01*
X6360000Y-6280000D02*
X6320000Y-6320000D01*
X6390000Y-6060000D02*
X6430000Y-6100000D01*
X6430000Y-6060000D02*
X6390000Y-6100000D01*
X6430000Y-5680000D02*
X6470000Y-5720000D01*
X6470000Y-5680000D02*
X6430000Y-5720000D01*
X6470000Y-6560000D02*
X6510000Y-6600000D01*
X6510000Y-6560000D02*
X6470000Y-6600000D01*
X6480000Y-6370000D02*
X6520000Y-6410000D01*
X6520000Y-6370000D02*
X6480000Y-6410000D01*
X6640000Y-7620000D02*
X6680000Y-7660000D01*
X6680000Y-7620000D02*
X6640000Y-7660000D01*
X7090000Y-6510000D02*
X7130000Y-6550000D01*
X7130000Y-6510000D02*
X7090000Y-6550000D01*
X7120000Y-6340000D02*
X7160000Y-6380000D01*
X7160000Y-6340000D02*
X7120000Y-6380000D01*
X7310000Y-6970000D02*
X7350000Y-7010000D01*
X7350000Y-6970000D02*
X7310000Y-7010000D01*
X7320000Y-5079000D02*
X7360000Y-5119000D01*
X7360000Y-5079000D02*
X7320000Y-5119000D01*
X7399000Y-7099000D02*
X7439000Y-7139000D01*
X7439000Y-7099000D02*
X7399000Y-7139000D01*
X7400000Y-7220000D02*
X7440000Y-7260000D01*
X7440000Y-7220000D02*
X7400000Y-7260000D01*
X7480000Y-6140000D02*
X7520000Y-6180000D01*
X7520000Y-6140000D02*
X7480000Y-6180000D01*
X7643000Y-4774000D02*
X7683000Y-4814000D01*
X7683000Y-4774000D02*
X7643000Y-4814000D01*
X7810000Y-5060000D02*
X7850000Y-5100000D01*
X7850000Y-5060000D02*
X7810000Y-5100000D01*
X8170000Y-5380000D02*
X8210000Y-5420000D01*
X8210000Y-5380000D02*
X8170000Y-5420000D01*
X8340000Y-5580000D02*
X8380000Y-5620000D01*
X8380000Y-5580000D02*
X8340000Y-5620000D01*
X8420000Y-6500000D02*
X8460000Y-6540000D01*
X8460000Y-6500000D02*
X8420000Y-6540000D01*
X8590000Y-5670000D02*
X8630000Y-5710000D01*
X8630000Y-5670000D02*
X8590000Y-5710000D01*
X8910000Y-6580000D02*
X8950000Y-6620000D01*
X8950000Y-6580000D02*
X8910000Y-6620000D01*
X8970000Y-7790000D02*
X9010000Y-7830000D01*
X9010000Y-7790000D02*
X8970000Y-7830000D01*
X8990000Y-5520000D02*
X9030000Y-5560000D01*
X9030000Y-5520000D02*
X8990000Y-5560000D01*
X9040000Y-5760000D02*
X9080000Y-5800000D01*
X9080000Y-5760000D02*
X9040000Y-5800000D01*
X9150000Y-7000000D02*
X9190000Y-7040000D01*
X9190000Y-7000000D02*
X9150000Y-7040000D01*
X9191000Y-4617000D02*
X9231000Y-4657000D01*
X9231000Y-4617000D02*
X9191000Y-4657000D01*
X9260000Y-5290000D02*
X9300000Y-5330000D01*
X9300000Y-5290000D02*
X9260000Y-5330000D01*
X9306000Y-5125000D02*
X9346000Y-5165000D01*
X9346000Y-5125000D02*
X9306000Y-5165000D01*
X9350000Y-4360000D02*
X9390000Y-4400000D01*
X9390000Y-4360000D02*
X9350000Y-4400000D01*
X9505000Y-5130000D02*
X9545000Y-5170000D01*
X9545000Y-5130000D02*
X9505000Y-5170000D01*
X9630000Y-7000000D02*
X9670000Y-7040000D01*
X9670000Y-7000000D02*
X9630000Y-7040000D01*
X9650000Y-6790000D02*
X9690000Y-6830000D01*
X9690000Y-6790000D02*
X9650000Y-6830000D01*
X9680000Y-7100000D02*
X9720000Y-7140000D01*
X9720000Y-7100000D02*
X9680000Y-7140000D01*
X9838000Y-4363000D02*
X9878000Y-4403000D01*
X9878000Y-4363000D02*
X9838000Y-4403000D01*
X9880000Y-7460000D02*
X9920000Y-7500000D01*
X9920000Y-7460000D02*
X9880000Y-7500000D01*
X9910000Y-6430000D02*
X9950000Y-6470000D01*
X9950000Y-6430000D02*
X9910000Y-6470000D01*
X9980000Y-7370000D02*
X10020000Y-7410000D01*
X10020000Y-7370000D02*
X9980000Y-7410000D01*
X10213000Y-5042000D02*
X10253000Y-5082000D01*
X10253000Y-5042000D02*
X10213000Y-5082000D01*
X10280450Y-7430000D02*
X10320450Y-7470000D01*
X10320450Y-7430000D02*
X10280450Y-7470000D01*
X10320000Y-5710000D02*
X10360000Y-5750000D01*
X10360000Y-5710000D02*
X10320000Y-5750000D01*
X10355000Y-7355000D02*
X10395000Y-7395000D01*
X10395000Y-7355000D02*
X10355000Y-7395000D01*
X10400000Y-6620000D02*
X10440000Y-6660000D01*
X10440000Y-6620000D02*
X10400000Y-6660000D01*
X10557250Y-4024000D02*
X10597250Y-4064000D01*
X10597250Y-4024000D02*
X10557250Y-4064000D01*
X10620000Y-7390000D02*
X10660000Y-7430000D01*
X10660000Y-7390000D02*
X10620000Y-7430000D01*
X10920000Y-7000000D02*
X10960000Y-7040000D01*
X10960000Y-7000000D02*
X10920000Y-7040000D01*
X10920000Y-7240000D02*
X10960000Y-7280000D01*
X10960000Y-7240000D02*
X10920000Y-7280000D01*
X11050000Y-7730000D02*
X11090000Y-7770000D01*
X11090000Y-7730000D02*
X11050000Y-7770000D01*
X11060000Y-8120000D02*
X11100000Y-8160000D01*
X11100000Y-8120000D02*
X11060000Y-8160000D01*
X11087250Y-4564000D02*
X11127250Y-4604000D01*
X11127250Y-4564000D02*
X11087250Y-4604000D01*
D13*
X9848000Y-7730500D02*
G75*
G03*
X9848000Y-7730500I-30000J0D01*
G01*
D11*
X9788000Y-7675500D02*
X9788000Y-7785500D01*
X9848000Y-7675500D02*
X9848000Y-7785500D01*
X9788000Y-7785500D02*
G75*
G03*
X9848000Y-7785500I30000J0D01*
G01*
X9848000Y-7675500D02*
G75*
G03*
X9788000Y-7675500I-30000J0D01*
G01*
D13*
X9848000Y-8148500D02*
G75*
G03*
X9848000Y-8148500I-30000J0D01*
G01*
D11*
X9788000Y-8118500D02*
X9788000Y-8178500D01*
X9848000Y-8118500D02*
X9848000Y-8178500D01*
X9788000Y-8178500D02*
G75*
G03*
X9848000Y-8178500I30000J0D01*
G01*
X9848000Y-8118500D02*
G75*
G03*
X9788000Y-8118500I-30000J0D01*
G01*
D13*
X10712000Y-7730500D02*
G75*
G03*
X10712000Y-7730500I-30000J0D01*
G01*
D11*
X10652000Y-7675500D02*
X10652000Y-7785500D01*
X10712000Y-7675500D02*
X10712000Y-7785500D01*
X10652000Y-7785500D02*
G75*
G03*
X10712000Y-7785500I30000J0D01*
G01*
X10712000Y-7675500D02*
G75*
G03*
X10652000Y-7675500I-30000J0D01*
G01*
D13*
X10712000Y-8148500D02*
G75*
G03*
X10712000Y-8148500I-30000J0D01*
G01*
D11*
X10652000Y-8118500D02*
X10652000Y-8178500D01*
X10712000Y-8118500D02*
X10712000Y-8178500D01*
X10652000Y-8178500D02*
G75*
G03*
X10712000Y-8178500I30000J0D01*
G01*
X10712000Y-8118500D02*
G75*
G03*
X10652000Y-8118500I-30000J0D01*
G01*
D14*
X6350000Y-6944500D02*
X6350000Y-7009500D01*
X6317500Y-6977000D02*
X6382500Y-6977000D01*
X6350000Y-7071500D02*
X6350000Y-7136500D01*
X6317500Y-7104000D02*
X6382500Y-7104000D01*
X6350000Y-7198500D02*
X6350000Y-7263500D01*
X6317500Y-7231000D02*
X6382500Y-7231000D01*
X6350000Y-7325500D02*
X6350000Y-7390500D01*
X6317500Y-7358000D02*
X6382500Y-7358000D01*
X6350000Y-7452500D02*
X6350000Y-7517500D01*
X6317500Y-7485000D02*
X6382500Y-7485000D01*
X9017000Y-8227500D02*
X9017000Y-8292500D01*
X8984500Y-8260000D02*
X9049500Y-8260000D01*
X9144000Y-8227500D02*
X9144000Y-8292500D01*
X9111500Y-8260000D02*
X9176500Y-8260000D01*
X9271000Y-8227500D02*
X9271000Y-8292500D01*
X9238500Y-8260000D02*
X9303500Y-8260000D01*
X9398000Y-8227500D02*
X9398000Y-8292500D01*
X9365500Y-8260000D02*
X9430500Y-8260000D01*
X9525000Y-8227500D02*
X9525000Y-8292500D01*
X9492500Y-8260000D02*
X9557500Y-8260000D01*
D15*
X6223782Y-8530783D02*
X6223782Y-8375217D01*
X6068217Y-8375217D01*
X6068217Y-8530783D01*
X6223782Y-8530783D01*
X6231782Y-3758782D02*
X6231782Y-3603217D01*
X6076217Y-3603217D01*
X6076217Y-3758782D01*
X6231782Y-3758782D01*
X11328782Y-8533783D02*
X11328782Y-8378217D01*
X11173218Y-8378217D01*
X11173218Y-8533783D01*
X11328782Y-8533783D01*
X11353782Y-3753782D02*
X11353782Y-3598217D01*
X11198217Y-3598217D01*
X11198217Y-3753782D01*
X11353782Y-3753782D01*
D11*
X6168347Y-8999753D02*
X6168347Y-8799753D01*
X6215966Y-8799753D01*
X6244538Y-8809277D01*
X6263585Y-8828325D01*
X6273109Y-8847372D01*
X6282633Y-8885467D01*
X6282633Y-8914039D01*
X6273109Y-8952134D01*
X6263585Y-8971182D01*
X6244538Y-8990229D01*
X6215966Y-8999753D01*
X6168347Y-8999753D01*
X6368347Y-8999753D02*
X6368347Y-8866420D01*
X6368347Y-8904515D02*
X6377871Y-8885467D01*
X6387395Y-8875944D01*
X6406443Y-8866420D01*
X6425490Y-8866420D01*
X6492157Y-8999753D02*
X6492157Y-8866420D01*
X6492157Y-8799753D02*
X6482633Y-8809277D01*
X6492157Y-8818801D01*
X6501681Y-8809277D01*
X6492157Y-8799753D01*
X6492157Y-8818801D01*
X6615966Y-8999753D02*
X6596919Y-8990229D01*
X6587395Y-8971182D01*
X6587395Y-8799753D01*
X6720728Y-8999753D02*
X6701681Y-8990229D01*
X6692157Y-8971182D01*
X6692157Y-8799753D01*
X6949300Y-8999753D02*
X6949300Y-8799753D01*
X7015966Y-8942610D01*
X7082633Y-8799753D01*
X7082633Y-8999753D01*
X7263585Y-8999753D02*
X7263585Y-8894991D01*
X7254062Y-8875944D01*
X7235014Y-8866420D01*
X7196919Y-8866420D01*
X7177871Y-8875944D01*
X7263585Y-8990229D02*
X7244538Y-8999753D01*
X7196919Y-8999753D01*
X7177871Y-8990229D01*
X7168347Y-8971182D01*
X7168347Y-8952134D01*
X7177871Y-8933086D01*
X7196919Y-8923563D01*
X7244538Y-8923563D01*
X7263585Y-8914039D01*
X7358824Y-8866420D02*
X7358824Y-9066420D01*
X7358824Y-8875944D02*
X7377871Y-8866420D01*
X7415966Y-8866420D01*
X7435014Y-8875944D01*
X7444538Y-8885467D01*
X7454062Y-8904515D01*
X7454062Y-8961658D01*
X7444538Y-8980705D01*
X7435014Y-8990229D01*
X7415966Y-8999753D01*
X7377871Y-8999753D01*
X7358824Y-8990229D01*
X7539776Y-8980705D02*
X7549300Y-8990229D01*
X7539776Y-8999753D01*
X7530252Y-8990229D01*
X7539776Y-8980705D01*
X7539776Y-8999753D01*
X7539776Y-8875944D02*
X7549300Y-8885467D01*
X7539776Y-8894991D01*
X7530252Y-8885467D01*
X7539776Y-8875944D01*
X7539776Y-8894991D01*
D12*
X5870728Y-9309277D02*
X5910728Y-9349277D01*
X5910728Y-9309277D02*
X5870728Y-9349277D01*
D11*
X6206443Y-9219753D02*
X6225490Y-9219753D01*
X6244538Y-9229277D01*
X6254062Y-9238801D01*
X6263585Y-9257848D01*
X6273109Y-9295944D01*
X6273109Y-9343563D01*
X6263585Y-9381658D01*
X6254062Y-9400705D01*
X6244538Y-9410229D01*
X6225490Y-9419753D01*
X6206443Y-9419753D01*
X6187395Y-9410229D01*
X6177871Y-9400705D01*
X6168347Y-9381658D01*
X6158824Y-9343563D01*
X6158824Y-9295944D01*
X6168347Y-9257848D01*
X6177871Y-9238801D01*
X6187395Y-9229277D01*
X6206443Y-9219753D01*
X6358824Y-9400705D02*
X6368347Y-9410229D01*
X6358824Y-9419753D01*
X6349300Y-9410229D01*
X6358824Y-9400705D01*
X6358824Y-9419753D01*
X6539776Y-9286420D02*
X6539776Y-9419753D01*
X6492157Y-9210229D02*
X6444538Y-9353086D01*
X6568347Y-9353086D01*
X6682633Y-9219753D02*
X6701681Y-9219753D01*
X6720728Y-9229277D01*
X6730252Y-9238801D01*
X6739776Y-9257848D01*
X6749300Y-9295944D01*
X6749300Y-9343563D01*
X6739776Y-9381658D01*
X6730252Y-9400705D01*
X6720728Y-9410229D01*
X6701681Y-9419753D01*
X6682633Y-9419753D01*
X6663585Y-9410229D01*
X6654062Y-9400705D01*
X6644538Y-9381658D01*
X6635014Y-9343563D01*
X6635014Y-9295944D01*
X6644538Y-9257848D01*
X6654062Y-9238801D01*
X6663585Y-9229277D01*
X6682633Y-9219753D01*
X6873109Y-9219753D02*
X6892157Y-9219753D01*
X6911204Y-9229277D01*
X6920728Y-9238801D01*
X6930252Y-9257848D01*
X6939776Y-9295944D01*
X6939776Y-9343563D01*
X6930252Y-9381658D01*
X6920728Y-9400705D01*
X6911204Y-9410229D01*
X6892157Y-9419753D01*
X6873109Y-9419753D01*
X6854062Y-9410229D01*
X6844538Y-9400705D01*
X6835014Y-9381658D01*
X6825490Y-9343563D01*
X6825490Y-9295944D01*
X6835014Y-9257848D01*
X6844538Y-9238801D01*
X6854062Y-9229277D01*
X6873109Y-9219753D01*
X7025490Y-9419753D02*
X7025490Y-9286420D01*
X7025490Y-9305467D02*
X7035014Y-9295944D01*
X7054062Y-9286420D01*
X7082633Y-9286420D01*
X7101681Y-9295944D01*
X7111204Y-9314991D01*
X7111204Y-9419753D01*
X7111204Y-9314991D02*
X7120728Y-9295944D01*
X7139776Y-9286420D01*
X7168347Y-9286420D01*
X7187395Y-9295944D01*
X7196919Y-9314991D01*
X7196919Y-9419753D01*
X7292157Y-9419753D02*
X7292157Y-9286420D01*
X7292157Y-9305467D02*
X7301681Y-9295944D01*
X7320728Y-9286420D01*
X7349300Y-9286420D01*
X7368347Y-9295944D01*
X7377871Y-9314991D01*
X7377871Y-9419753D01*
X7377871Y-9314991D02*
X7387395Y-9295944D01*
X7406443Y-9286420D01*
X7435014Y-9286420D01*
X7454062Y-9295944D01*
X7463585Y-9314991D01*
X7463585Y-9419753D01*
X7854062Y-9210229D02*
X7682633Y-9467372D01*
X8111204Y-9219753D02*
X8130252Y-9219753D01*
X8149300Y-9229277D01*
X8158824Y-9238801D01*
X8168347Y-9257848D01*
X8177871Y-9295944D01*
X8177871Y-9343563D01*
X8168347Y-9381658D01*
X8158824Y-9400705D01*
X8149300Y-9410229D01*
X8130252Y-9419753D01*
X8111204Y-9419753D01*
X8092157Y-9410229D01*
X8082633Y-9400705D01*
X8073109Y-9381658D01*
X8063585Y-9343563D01*
X8063585Y-9295944D01*
X8073109Y-9257848D01*
X8082633Y-9238801D01*
X8092157Y-9229277D01*
X8111204Y-9219753D01*
X8263585Y-9400705D02*
X8273109Y-9410229D01*
X8263585Y-9419753D01*
X8254062Y-9410229D01*
X8263585Y-9400705D01*
X8263585Y-9419753D01*
X8396919Y-9219753D02*
X8415966Y-9219753D01*
X8435014Y-9229277D01*
X8444538Y-9238801D01*
X8454062Y-9257848D01*
X8463586Y-9295944D01*
X8463586Y-9343563D01*
X8454062Y-9381658D01*
X8444538Y-9400705D01*
X8435014Y-9410229D01*
X8415966Y-9419753D01*
X8396919Y-9419753D01*
X8377871Y-9410229D01*
X8368347Y-9400705D01*
X8358824Y-9381658D01*
X8349300Y-9343563D01*
X8349300Y-9295944D01*
X8358824Y-9257848D01*
X8368347Y-9238801D01*
X8377871Y-9229277D01*
X8396919Y-9219753D01*
X8654062Y-9419753D02*
X8539776Y-9419753D01*
X8596919Y-9419753D02*
X8596919Y-9219753D01*
X8577871Y-9248325D01*
X8558824Y-9267372D01*
X8539776Y-9276896D01*
X8835014Y-9219753D02*
X8739776Y-9219753D01*
X8730252Y-9314991D01*
X8739776Y-9305467D01*
X8758824Y-9295944D01*
X8806443Y-9295944D01*
X8825490Y-9305467D01*
X8835014Y-9314991D01*
X8844538Y-9334039D01*
X8844538Y-9381658D01*
X8835014Y-9400705D01*
X8825490Y-9410229D01*
X8806443Y-9419753D01*
X8758824Y-9419753D01*
X8739776Y-9410229D01*
X8730252Y-9400705D01*
X8911205Y-9219753D02*
X9044538Y-9219753D01*
X8958824Y-9419753D01*
X9111205Y-9219753D02*
X9111205Y-9257848D01*
X9187395Y-9219753D02*
X9187395Y-9257848D01*
X9482633Y-9495944D02*
X9473109Y-9486420D01*
X9454062Y-9457848D01*
X9444538Y-9438801D01*
X9435014Y-9410229D01*
X9425490Y-9362610D01*
X9425490Y-9324515D01*
X9435014Y-9276896D01*
X9444538Y-9248325D01*
X9454062Y-9229277D01*
X9473109Y-9200705D01*
X9482633Y-9191182D01*
X9644538Y-9286420D02*
X9644538Y-9419753D01*
X9596919Y-9210229D02*
X9549300Y-9353086D01*
X9673109Y-9353086D01*
X9777871Y-9305467D02*
X9758824Y-9295944D01*
X9749300Y-9286420D01*
X9739776Y-9267372D01*
X9739776Y-9257848D01*
X9749300Y-9238801D01*
X9758824Y-9229277D01*
X9777871Y-9219753D01*
X9815966Y-9219753D01*
X9835014Y-9229277D01*
X9844538Y-9238801D01*
X9854062Y-9257848D01*
X9854062Y-9267372D01*
X9844538Y-9286420D01*
X9835014Y-9295944D01*
X9815966Y-9305467D01*
X9777871Y-9305467D01*
X9758824Y-9314991D01*
X9749300Y-9324515D01*
X9739776Y-9343563D01*
X9739776Y-9381658D01*
X9749300Y-9400705D01*
X9758824Y-9410229D01*
X9777871Y-9419753D01*
X9815966Y-9419753D01*
X9835014Y-9410229D01*
X9844538Y-9400705D01*
X9854062Y-9381658D01*
X9854062Y-9343563D01*
X9844538Y-9324515D01*
X9835014Y-9314991D01*
X9815966Y-9305467D01*
X10092157Y-9419753D02*
X10092157Y-9219753D01*
X10177871Y-9419753D02*
X10177871Y-9314991D01*
X10168347Y-9295944D01*
X10149300Y-9286420D01*
X10120728Y-9286420D01*
X10101681Y-9295944D01*
X10092157Y-9305467D01*
X10301681Y-9419753D02*
X10282633Y-9410229D01*
X10273109Y-9400705D01*
X10263586Y-9381658D01*
X10263586Y-9324515D01*
X10273109Y-9305467D01*
X10282633Y-9295944D01*
X10301681Y-9286420D01*
X10330252Y-9286420D01*
X10349300Y-9295944D01*
X10358824Y-9305467D01*
X10368347Y-9324515D01*
X10368347Y-9381658D01*
X10358824Y-9400705D01*
X10349300Y-9410229D01*
X10330252Y-9419753D01*
X10301681Y-9419753D01*
X10482633Y-9419753D02*
X10463586Y-9410229D01*
X10454062Y-9391182D01*
X10454062Y-9219753D01*
X10635014Y-9410229D02*
X10615966Y-9419753D01*
X10577871Y-9419753D01*
X10558824Y-9410229D01*
X10549300Y-9391182D01*
X10549300Y-9314991D01*
X10558824Y-9295944D01*
X10577871Y-9286420D01*
X10615966Y-9286420D01*
X10635014Y-9295944D01*
X10644538Y-9314991D01*
X10644538Y-9334039D01*
X10549300Y-9353086D01*
X10720728Y-9410229D02*
X10739776Y-9419753D01*
X10777871Y-9419753D01*
X10796919Y-9410229D01*
X10806443Y-9391182D01*
X10806443Y-9381658D01*
X10796919Y-9362610D01*
X10777871Y-9353086D01*
X10749300Y-9353086D01*
X10730252Y-9343563D01*
X10720728Y-9324515D01*
X10720728Y-9314991D01*
X10730252Y-9295944D01*
X10749300Y-9286420D01*
X10777871Y-9286420D01*
X10796919Y-9295944D01*
X10873109Y-9495944D02*
X10882633Y-9486420D01*
X10901681Y-9457848D01*
X10911205Y-9438801D01*
X10920728Y-9410229D01*
X10930252Y-9362610D01*
X10930252Y-9324515D01*
X10920728Y-9276896D01*
X10911205Y-9248325D01*
X10901681Y-9229277D01*
X10882633Y-9200705D01*
X10873109Y-9191182D01*
D13*
X5910728Y-9593277D02*
G75*
G03*
X5910728Y-9593277I-30000J0D01*
G01*
D11*
X6206443Y-9483753D02*
X6225490Y-9483753D01*
X6244538Y-9493277D01*
X6254062Y-9502801D01*
X6263585Y-9521848D01*
X6273109Y-9559944D01*
X6273109Y-9607563D01*
X6263585Y-9645658D01*
X6254062Y-9664705D01*
X6244538Y-9674229D01*
X6225490Y-9683753D01*
X6206443Y-9683753D01*
X6187395Y-9674229D01*
X6177871Y-9664705D01*
X6168347Y-9645658D01*
X6158824Y-9607563D01*
X6158824Y-9559944D01*
X6168347Y-9521848D01*
X6177871Y-9502801D01*
X6187395Y-9493277D01*
X6206443Y-9483753D01*
X6358824Y-9664705D02*
X6368347Y-9674229D01*
X6358824Y-9683753D01*
X6349300Y-9674229D01*
X6358824Y-9664705D01*
X6358824Y-9683753D01*
X6539776Y-9483753D02*
X6501681Y-9483753D01*
X6482633Y-9493277D01*
X6473109Y-9502801D01*
X6454062Y-9531372D01*
X6444538Y-9569467D01*
X6444538Y-9645658D01*
X6454062Y-9664705D01*
X6463585Y-9674229D01*
X6482633Y-9683753D01*
X6520728Y-9683753D01*
X6539776Y-9674229D01*
X6549300Y-9664705D01*
X6558824Y-9645658D01*
X6558824Y-9598039D01*
X6549300Y-9578991D01*
X6539776Y-9569467D01*
X6520728Y-9559944D01*
X6482633Y-9559944D01*
X6463585Y-9569467D01*
X6454062Y-9578991D01*
X6444538Y-9598039D01*
X6682633Y-9483753D02*
X6701681Y-9483753D01*
X6720728Y-9493277D01*
X6730252Y-9502801D01*
X6739776Y-9521848D01*
X6749300Y-9559944D01*
X6749300Y-9607563D01*
X6739776Y-9645658D01*
X6730252Y-9664705D01*
X6720728Y-9674229D01*
X6701681Y-9683753D01*
X6682633Y-9683753D01*
X6663585Y-9674229D01*
X6654062Y-9664705D01*
X6644538Y-9645658D01*
X6635014Y-9607563D01*
X6635014Y-9559944D01*
X6644538Y-9521848D01*
X6654062Y-9502801D01*
X6663585Y-9493277D01*
X6682633Y-9483753D01*
X6873109Y-9483753D02*
X6892157Y-9483753D01*
X6911204Y-9493277D01*
X6920728Y-9502801D01*
X6930252Y-9521848D01*
X6939776Y-9559944D01*
X6939776Y-9607563D01*
X6930252Y-9645658D01*
X6920728Y-9664705D01*
X6911204Y-9674229D01*
X6892157Y-9683753D01*
X6873109Y-9683753D01*
X6854062Y-9674229D01*
X6844538Y-9664705D01*
X6835014Y-9645658D01*
X6825490Y-9607563D01*
X6825490Y-9559944D01*
X6835014Y-9521848D01*
X6844538Y-9502801D01*
X6854062Y-9493277D01*
X6873109Y-9483753D01*
X7025490Y-9683753D02*
X7025490Y-9550420D01*
X7025490Y-9569467D02*
X7035014Y-9559944D01*
X7054062Y-9550420D01*
X7082633Y-9550420D01*
X7101681Y-9559944D01*
X7111204Y-9578991D01*
X7111204Y-9683753D01*
X7111204Y-9578991D02*
X7120728Y-9559944D01*
X7139776Y-9550420D01*
X7168347Y-9550420D01*
X7187395Y-9559944D01*
X7196919Y-9578991D01*
X7196919Y-9683753D01*
X7292157Y-9683753D02*
X7292157Y-9550420D01*
X7292157Y-9569467D02*
X7301681Y-9559944D01*
X7320728Y-9550420D01*
X7349300Y-9550420D01*
X7368347Y-9559944D01*
X7377871Y-9578991D01*
X7377871Y-9683753D01*
X7377871Y-9578991D02*
X7387395Y-9559944D01*
X7406443Y-9550420D01*
X7435014Y-9550420D01*
X7454062Y-9559944D01*
X7463585Y-9578991D01*
X7463585Y-9683753D01*
X7854062Y-9474229D02*
X7682633Y-9731372D01*
X8111204Y-9483753D02*
X8130252Y-9483753D01*
X8149300Y-9493277D01*
X8158824Y-9502801D01*
X8168347Y-9521848D01*
X8177871Y-9559944D01*
X8177871Y-9607563D01*
X8168347Y-9645658D01*
X8158824Y-9664705D01*
X8149300Y-9674229D01*
X8130252Y-9683753D01*
X8111204Y-9683753D01*
X8092157Y-9674229D01*
X8082633Y-9664705D01*
X8073109Y-9645658D01*
X8063585Y-9607563D01*
X8063585Y-9559944D01*
X8073109Y-9521848D01*
X8082633Y-9502801D01*
X8092157Y-9493277D01*
X8111204Y-9483753D01*
X8263585Y-9664705D02*
X8273109Y-9674229D01*
X8263585Y-9683753D01*
X8254062Y-9674229D01*
X8263585Y-9664705D01*
X8263585Y-9683753D01*
X8396919Y-9483753D02*
X8415966Y-9483753D01*
X8435014Y-9493277D01*
X8444538Y-9502801D01*
X8454062Y-9521848D01*
X8463586Y-9559944D01*
X8463586Y-9607563D01*
X8454062Y-9645658D01*
X8444538Y-9664705D01*
X8435014Y-9674229D01*
X8415966Y-9683753D01*
X8396919Y-9683753D01*
X8377871Y-9674229D01*
X8368347Y-9664705D01*
X8358824Y-9645658D01*
X8349300Y-9607563D01*
X8349300Y-9559944D01*
X8358824Y-9521848D01*
X8368347Y-9502801D01*
X8377871Y-9493277D01*
X8396919Y-9483753D01*
X8539776Y-9502801D02*
X8549300Y-9493277D01*
X8568347Y-9483753D01*
X8615966Y-9483753D01*
X8635014Y-9493277D01*
X8644538Y-9502801D01*
X8654062Y-9521848D01*
X8654062Y-9540896D01*
X8644538Y-9569467D01*
X8530252Y-9683753D01*
X8654062Y-9683753D01*
X8720728Y-9483753D02*
X8844538Y-9483753D01*
X8777871Y-9559944D01*
X8806443Y-9559944D01*
X8825490Y-9569467D01*
X8835014Y-9578991D01*
X8844538Y-9598039D01*
X8844538Y-9645658D01*
X8835014Y-9664705D01*
X8825490Y-9674229D01*
X8806443Y-9683753D01*
X8749300Y-9683753D01*
X8730252Y-9674229D01*
X8720728Y-9664705D01*
X9015966Y-9483753D02*
X8977871Y-9483753D01*
X8958824Y-9493277D01*
X8949300Y-9502801D01*
X8930252Y-9531372D01*
X8920728Y-9569467D01*
X8920728Y-9645658D01*
X8930252Y-9664705D01*
X8939776Y-9674229D01*
X8958824Y-9683753D01*
X8996919Y-9683753D01*
X9015966Y-9674229D01*
X9025490Y-9664705D01*
X9035014Y-9645658D01*
X9035014Y-9598039D01*
X9025490Y-9578991D01*
X9015966Y-9569467D01*
X8996919Y-9559944D01*
X8958824Y-9559944D01*
X8939776Y-9569467D01*
X8930252Y-9578991D01*
X8920728Y-9598039D01*
X9111205Y-9483753D02*
X9111205Y-9521848D01*
X9187395Y-9483753D02*
X9187395Y-9521848D01*
X9482633Y-9759944D02*
X9473109Y-9750420D01*
X9454062Y-9721848D01*
X9444538Y-9702801D01*
X9435014Y-9674229D01*
X9425490Y-9626610D01*
X9425490Y-9588515D01*
X9435014Y-9540896D01*
X9444538Y-9512325D01*
X9454062Y-9493277D01*
X9473109Y-9464705D01*
X9482633Y-9455182D01*
X9596919Y-9483753D02*
X9615966Y-9483753D01*
X9635014Y-9493277D01*
X9644538Y-9502801D01*
X9654062Y-9521848D01*
X9663586Y-9559944D01*
X9663586Y-9607563D01*
X9654062Y-9645658D01*
X9644538Y-9664705D01*
X9635014Y-9674229D01*
X9615966Y-9683753D01*
X9596919Y-9683753D01*
X9577871Y-9674229D01*
X9568347Y-9664705D01*
X9558824Y-9645658D01*
X9549300Y-9607563D01*
X9549300Y-9559944D01*
X9558824Y-9521848D01*
X9568347Y-9502801D01*
X9577871Y-9493277D01*
X9596919Y-9483753D01*
X9901681Y-9683753D02*
X9901681Y-9483753D01*
X9987395Y-9683753D02*
X9987395Y-9578991D01*
X9977871Y-9559944D01*
X9958824Y-9550420D01*
X9930252Y-9550420D01*
X9911205Y-9559944D01*
X9901681Y-9569467D01*
X10111205Y-9683753D02*
X10092157Y-9674229D01*
X10082633Y-9664705D01*
X10073109Y-9645658D01*
X10073109Y-9588515D01*
X10082633Y-9569467D01*
X10092157Y-9559944D01*
X10111205Y-9550420D01*
X10139776Y-9550420D01*
X10158824Y-9559944D01*
X10168347Y-9569467D01*
X10177871Y-9588515D01*
X10177871Y-9645658D01*
X10168347Y-9664705D01*
X10158824Y-9674229D01*
X10139776Y-9683753D01*
X10111205Y-9683753D01*
X10292157Y-9683753D02*
X10273109Y-9674229D01*
X10263586Y-9655182D01*
X10263586Y-9483753D01*
X10444538Y-9674229D02*
X10425490Y-9683753D01*
X10387395Y-9683753D01*
X10368347Y-9674229D01*
X10358824Y-9655182D01*
X10358824Y-9578991D01*
X10368347Y-9559944D01*
X10387395Y-9550420D01*
X10425490Y-9550420D01*
X10444538Y-9559944D01*
X10454062Y-9578991D01*
X10454062Y-9598039D01*
X10358824Y-9617086D01*
X10530252Y-9674229D02*
X10549300Y-9683753D01*
X10587395Y-9683753D01*
X10606443Y-9674229D01*
X10615966Y-9655182D01*
X10615966Y-9645658D01*
X10606443Y-9626610D01*
X10587395Y-9617086D01*
X10558824Y-9617086D01*
X10539776Y-9607563D01*
X10530252Y-9588515D01*
X10530252Y-9578991D01*
X10539776Y-9559944D01*
X10558824Y-9550420D01*
X10587395Y-9550420D01*
X10606443Y-9559944D01*
X10854062Y-9607563D02*
X11006443Y-9607563D01*
X10930252Y-9683753D02*
X10930252Y-9531372D01*
X11339776Y-9550420D02*
X11339776Y-9683753D01*
X11292157Y-9474229D02*
X11244538Y-9617086D01*
X11368347Y-9617086D01*
X11587395Y-9674229D02*
X11606443Y-9683753D01*
X11644538Y-9683753D01*
X11663585Y-9674229D01*
X11673109Y-9655182D01*
X11673109Y-9645658D01*
X11663585Y-9626610D01*
X11644538Y-9617086D01*
X11615966Y-9617086D01*
X11596919Y-9607563D01*
X11587395Y-9588515D01*
X11587395Y-9578991D01*
X11596919Y-9559944D01*
X11615966Y-9550420D01*
X11644538Y-9550420D01*
X11663585Y-9559944D01*
X11787395Y-9683753D02*
X11768347Y-9674229D01*
X11758824Y-9655182D01*
X11758824Y-9483753D01*
X11892157Y-9683753D02*
X11873109Y-9674229D01*
X11863585Y-9664705D01*
X11854062Y-9645658D01*
X11854062Y-9588515D01*
X11863585Y-9569467D01*
X11873109Y-9559944D01*
X11892157Y-9550420D01*
X11920728Y-9550420D01*
X11939776Y-9559944D01*
X11949300Y-9569467D01*
X11958824Y-9588515D01*
X11958824Y-9645658D01*
X11949300Y-9664705D01*
X11939776Y-9674229D01*
X11920728Y-9683753D01*
X11892157Y-9683753D01*
X12015966Y-9550420D02*
X12092157Y-9550420D01*
X12044538Y-9483753D02*
X12044538Y-9655182D01*
X12054062Y-9674229D01*
X12073109Y-9683753D01*
X12092157Y-9683753D01*
X12149300Y-9674229D02*
X12168347Y-9683753D01*
X12206443Y-9683753D01*
X12225490Y-9674229D01*
X12235014Y-9655182D01*
X12235014Y-9645658D01*
X12225490Y-9626610D01*
X12206443Y-9617086D01*
X12177871Y-9617086D01*
X12158824Y-9607563D01*
X12149300Y-9588515D01*
X12149300Y-9578991D01*
X12158824Y-9559944D01*
X12177871Y-9550420D01*
X12206443Y-9550420D01*
X12225490Y-9559944D01*
X12301681Y-9759944D02*
X12311204Y-9750420D01*
X12330252Y-9721848D01*
X12339776Y-9702801D01*
X12349300Y-9674229D01*
X12358824Y-9626610D01*
X12358824Y-9588515D01*
X12349300Y-9540896D01*
X12339776Y-9512325D01*
X12330252Y-9493277D01*
X12311204Y-9464705D01*
X12301681Y-9455182D01*
D14*
X5878228Y-9824777D02*
X5878228Y-9889777D01*
X5845728Y-9857277D02*
X5910728Y-9857277D01*
D11*
X6206443Y-9747753D02*
X6225490Y-9747753D01*
X6244538Y-9757277D01*
X6254062Y-9766801D01*
X6263585Y-9785848D01*
X6273109Y-9823944D01*
X6273109Y-9871563D01*
X6263585Y-9909658D01*
X6254062Y-9928705D01*
X6244538Y-9938229D01*
X6225490Y-9947753D01*
X6206443Y-9947753D01*
X6187395Y-9938229D01*
X6177871Y-9928705D01*
X6168347Y-9909658D01*
X6158824Y-9871563D01*
X6158824Y-9823944D01*
X6168347Y-9785848D01*
X6177871Y-9766801D01*
X6187395Y-9757277D01*
X6206443Y-9747753D01*
X6358824Y-9928705D02*
X6368347Y-9938229D01*
X6358824Y-9947753D01*
X6349300Y-9938229D01*
X6358824Y-9928705D01*
X6358824Y-9947753D01*
X6539776Y-9747753D02*
X6501681Y-9747753D01*
X6482633Y-9757277D01*
X6473109Y-9766801D01*
X6454062Y-9795372D01*
X6444538Y-9833467D01*
X6444538Y-9909658D01*
X6454062Y-9928705D01*
X6463585Y-9938229D01*
X6482633Y-9947753D01*
X6520728Y-9947753D01*
X6539776Y-9938229D01*
X6549300Y-9928705D01*
X6558824Y-9909658D01*
X6558824Y-9862039D01*
X6549300Y-9842991D01*
X6539776Y-9833467D01*
X6520728Y-9823944D01*
X6482633Y-9823944D01*
X6463585Y-9833467D01*
X6454062Y-9842991D01*
X6444538Y-9862039D01*
X6739776Y-9747753D02*
X6644538Y-9747753D01*
X6635014Y-9842991D01*
X6644538Y-9833467D01*
X6663585Y-9823944D01*
X6711204Y-9823944D01*
X6730252Y-9833467D01*
X6739776Y-9842991D01*
X6749300Y-9862039D01*
X6749300Y-9909658D01*
X6739776Y-9928705D01*
X6730252Y-9938229D01*
X6711204Y-9947753D01*
X6663585Y-9947753D01*
X6644538Y-9938229D01*
X6635014Y-9928705D01*
X6873109Y-9747753D02*
X6892157Y-9747753D01*
X6911204Y-9757277D01*
X6920728Y-9766801D01*
X6930252Y-9785848D01*
X6939776Y-9823944D01*
X6939776Y-9871563D01*
X6930252Y-9909658D01*
X6920728Y-9928705D01*
X6911204Y-9938229D01*
X6892157Y-9947753D01*
X6873109Y-9947753D01*
X6854062Y-9938229D01*
X6844538Y-9928705D01*
X6835014Y-9909658D01*
X6825490Y-9871563D01*
X6825490Y-9823944D01*
X6835014Y-9785848D01*
X6844538Y-9766801D01*
X6854062Y-9757277D01*
X6873109Y-9747753D01*
X7025490Y-9947753D02*
X7025490Y-9814420D01*
X7025490Y-9833467D02*
X7035014Y-9823944D01*
X7054062Y-9814420D01*
X7082633Y-9814420D01*
X7101681Y-9823944D01*
X7111204Y-9842991D01*
X7111204Y-9947753D01*
X7111204Y-9842991D02*
X7120728Y-9823944D01*
X7139776Y-9814420D01*
X7168347Y-9814420D01*
X7187395Y-9823944D01*
X7196919Y-9842991D01*
X7196919Y-9947753D01*
X7292157Y-9947753D02*
X7292157Y-9814420D01*
X7292157Y-9833467D02*
X7301681Y-9823944D01*
X7320728Y-9814420D01*
X7349300Y-9814420D01*
X7368347Y-9823944D01*
X7377871Y-9842991D01*
X7377871Y-9947753D01*
X7377871Y-9842991D02*
X7387395Y-9823944D01*
X7406443Y-9814420D01*
X7435014Y-9814420D01*
X7454062Y-9823944D01*
X7463585Y-9842991D01*
X7463585Y-9947753D01*
X7854062Y-9738229D02*
X7682633Y-9995372D01*
X8111204Y-9747753D02*
X8130252Y-9747753D01*
X8149300Y-9757277D01*
X8158824Y-9766801D01*
X8168347Y-9785848D01*
X8177871Y-9823944D01*
X8177871Y-9871563D01*
X8168347Y-9909658D01*
X8158824Y-9928705D01*
X8149300Y-9938229D01*
X8130252Y-9947753D01*
X8111204Y-9947753D01*
X8092157Y-9938229D01*
X8082633Y-9928705D01*
X8073109Y-9909658D01*
X8063585Y-9871563D01*
X8063585Y-9823944D01*
X8073109Y-9785848D01*
X8082633Y-9766801D01*
X8092157Y-9757277D01*
X8111204Y-9747753D01*
X8263585Y-9928705D02*
X8273109Y-9938229D01*
X8263585Y-9947753D01*
X8254062Y-9938229D01*
X8263585Y-9928705D01*
X8263585Y-9947753D01*
X8396919Y-9747753D02*
X8415966Y-9747753D01*
X8435014Y-9757277D01*
X8444538Y-9766801D01*
X8454062Y-9785848D01*
X8463586Y-9823944D01*
X8463586Y-9871563D01*
X8454062Y-9909658D01*
X8444538Y-9928705D01*
X8435014Y-9938229D01*
X8415966Y-9947753D01*
X8396919Y-9947753D01*
X8377871Y-9938229D01*
X8368347Y-9928705D01*
X8358824Y-9909658D01*
X8349300Y-9871563D01*
X8349300Y-9823944D01*
X8358824Y-9785848D01*
X8368347Y-9766801D01*
X8377871Y-9757277D01*
X8396919Y-9747753D01*
X8539776Y-9766801D02*
X8549300Y-9757277D01*
X8568347Y-9747753D01*
X8615966Y-9747753D01*
X8635014Y-9757277D01*
X8644538Y-9766801D01*
X8654062Y-9785848D01*
X8654062Y-9804896D01*
X8644538Y-9833467D01*
X8530252Y-9947753D01*
X8654062Y-9947753D01*
X8835014Y-9747753D02*
X8739776Y-9747753D01*
X8730252Y-9842991D01*
X8739776Y-9833467D01*
X8758824Y-9823944D01*
X8806443Y-9823944D01*
X8825490Y-9833467D01*
X8835014Y-9842991D01*
X8844538Y-9862039D01*
X8844538Y-9909658D01*
X8835014Y-9928705D01*
X8825490Y-9938229D01*
X8806443Y-9947753D01*
X8758824Y-9947753D01*
X8739776Y-9938229D01*
X8730252Y-9928705D01*
X9015966Y-9747753D02*
X8977871Y-9747753D01*
X8958824Y-9757277D01*
X8949300Y-9766801D01*
X8930252Y-9795372D01*
X8920728Y-9833467D01*
X8920728Y-9909658D01*
X8930252Y-9928705D01*
X8939776Y-9938229D01*
X8958824Y-9947753D01*
X8996919Y-9947753D01*
X9015966Y-9938229D01*
X9025490Y-9928705D01*
X9035014Y-9909658D01*
X9035014Y-9862039D01*
X9025490Y-9842991D01*
X9015966Y-9833467D01*
X8996919Y-9823944D01*
X8958824Y-9823944D01*
X8939776Y-9833467D01*
X8930252Y-9842991D01*
X8920728Y-9862039D01*
X9111205Y-9747753D02*
X9111205Y-9785848D01*
X9187395Y-9747753D02*
X9187395Y-9785848D01*
X9482633Y-10023944D02*
X9473109Y-10014420D01*
X9454062Y-9985848D01*
X9444538Y-9966801D01*
X9435014Y-9938229D01*
X9425490Y-9890610D01*
X9425490Y-9852515D01*
X9435014Y-9804896D01*
X9444538Y-9776325D01*
X9454062Y-9757277D01*
X9473109Y-9728705D01*
X9482633Y-9719182D01*
X9663586Y-9947753D02*
X9549300Y-9947753D01*
X9606443Y-9947753D02*
X9606443Y-9747753D01*
X9587395Y-9776325D01*
X9568347Y-9795372D01*
X9549300Y-9804896D01*
X9787395Y-9747753D02*
X9806443Y-9747753D01*
X9825490Y-9757277D01*
X9835014Y-9766801D01*
X9844538Y-9785848D01*
X9854062Y-9823944D01*
X9854062Y-9871563D01*
X9844538Y-9909658D01*
X9835014Y-9928705D01*
X9825490Y-9938229D01*
X9806443Y-9947753D01*
X9787395Y-9947753D01*
X9768347Y-9938229D01*
X9758824Y-9928705D01*
X9749300Y-9909658D01*
X9739776Y-9871563D01*
X9739776Y-9823944D01*
X9749300Y-9785848D01*
X9758824Y-9766801D01*
X9768347Y-9757277D01*
X9787395Y-9747753D01*
X10092157Y-9947753D02*
X10092157Y-9747753D01*
X10177871Y-9947753D02*
X10177871Y-9842991D01*
X10168347Y-9823944D01*
X10149300Y-9814420D01*
X10120728Y-9814420D01*
X10101681Y-9823944D01*
X10092157Y-9833467D01*
X10301681Y-9947753D02*
X10282633Y-9938229D01*
X10273109Y-9928705D01*
X10263586Y-9909658D01*
X10263586Y-9852515D01*
X10273109Y-9833467D01*
X10282633Y-9823944D01*
X10301681Y-9814420D01*
X10330252Y-9814420D01*
X10349300Y-9823944D01*
X10358824Y-9833467D01*
X10368347Y-9852515D01*
X10368347Y-9909658D01*
X10358824Y-9928705D01*
X10349300Y-9938229D01*
X10330252Y-9947753D01*
X10301681Y-9947753D01*
X10482633Y-9947753D02*
X10463586Y-9938229D01*
X10454062Y-9919182D01*
X10454062Y-9747753D01*
X10635014Y-9938229D02*
X10615966Y-9947753D01*
X10577871Y-9947753D01*
X10558824Y-9938229D01*
X10549300Y-9919182D01*
X10549300Y-9842991D01*
X10558824Y-9823944D01*
X10577871Y-9814420D01*
X10615966Y-9814420D01*
X10635014Y-9823944D01*
X10644538Y-9842991D01*
X10644538Y-9862039D01*
X10549300Y-9881086D01*
X10720728Y-9938229D02*
X10739776Y-9947753D01*
X10777871Y-9947753D01*
X10796919Y-9938229D01*
X10806443Y-9919182D01*
X10806443Y-9909658D01*
X10796919Y-9890610D01*
X10777871Y-9881086D01*
X10749300Y-9881086D01*
X10730252Y-9871563D01*
X10720728Y-9852515D01*
X10720728Y-9842991D01*
X10730252Y-9823944D01*
X10749300Y-9814420D01*
X10777871Y-9814420D01*
X10796919Y-9823944D01*
X10873109Y-10023944D02*
X10882633Y-10014420D01*
X10901681Y-9985848D01*
X10911205Y-9966801D01*
X10920728Y-9938229D01*
X10930252Y-9890610D01*
X10930252Y-9852515D01*
X10920728Y-9804896D01*
X10911205Y-9776325D01*
X10901681Y-9757277D01*
X10882633Y-9728705D01*
X10873109Y-9719182D01*
X5881440Y-10191988D02*
X5881440Y-10050566D01*
X5740017Y-10050566D01*
X5740017Y-10191988D01*
X5881440Y-10191988D01*
X6158824Y-10030801D02*
X6168347Y-10021277D01*
X6187395Y-10011753D01*
X6235014Y-10011753D01*
X6254062Y-10021277D01*
X6263585Y-10030801D01*
X6273109Y-10049848D01*
X6273109Y-10068896D01*
X6263585Y-10097467D01*
X6149300Y-10211753D01*
X6273109Y-10211753D01*
X6358824Y-10192705D02*
X6368347Y-10202229D01*
X6358824Y-10211753D01*
X6349300Y-10202229D01*
X6358824Y-10192705D01*
X6358824Y-10211753D01*
X6444538Y-10030801D02*
X6454062Y-10021277D01*
X6473109Y-10011753D01*
X6520728Y-10011753D01*
X6539776Y-10021277D01*
X6549300Y-10030801D01*
X6558824Y-10049848D01*
X6558824Y-10068896D01*
X6549300Y-10097467D01*
X6435014Y-10211753D01*
X6558824Y-10211753D01*
X6682633Y-10011753D02*
X6701681Y-10011753D01*
X6720728Y-10021277D01*
X6730252Y-10030801D01*
X6739776Y-10049848D01*
X6749300Y-10087944D01*
X6749300Y-10135563D01*
X6739776Y-10173658D01*
X6730252Y-10192705D01*
X6720728Y-10202229D01*
X6701681Y-10211753D01*
X6682633Y-10211753D01*
X6663585Y-10202229D01*
X6654062Y-10192705D01*
X6644538Y-10173658D01*
X6635014Y-10135563D01*
X6635014Y-10087944D01*
X6644538Y-10049848D01*
X6654062Y-10030801D01*
X6663585Y-10021277D01*
X6682633Y-10011753D01*
X6873109Y-10011753D02*
X6892157Y-10011753D01*
X6911204Y-10021277D01*
X6920728Y-10030801D01*
X6930252Y-10049848D01*
X6939776Y-10087944D01*
X6939776Y-10135563D01*
X6930252Y-10173658D01*
X6920728Y-10192705D01*
X6911204Y-10202229D01*
X6892157Y-10211753D01*
X6873109Y-10211753D01*
X6854062Y-10202229D01*
X6844538Y-10192705D01*
X6835014Y-10173658D01*
X6825490Y-10135563D01*
X6825490Y-10087944D01*
X6835014Y-10049848D01*
X6844538Y-10030801D01*
X6854062Y-10021277D01*
X6873109Y-10011753D01*
X7025490Y-10211753D02*
X7025490Y-10078420D01*
X7025490Y-10097467D02*
X7035014Y-10087944D01*
X7054062Y-10078420D01*
X7082633Y-10078420D01*
X7101681Y-10087944D01*
X7111204Y-10106991D01*
X7111204Y-10211753D01*
X7111204Y-10106991D02*
X7120728Y-10087944D01*
X7139776Y-10078420D01*
X7168347Y-10078420D01*
X7187395Y-10087944D01*
X7196919Y-10106991D01*
X7196919Y-10211753D01*
X7292157Y-10211753D02*
X7292157Y-10078420D01*
X7292157Y-10097467D02*
X7301681Y-10087944D01*
X7320728Y-10078420D01*
X7349300Y-10078420D01*
X7368347Y-10087944D01*
X7377871Y-10106991D01*
X7377871Y-10211753D01*
X7377871Y-10106991D02*
X7387395Y-10087944D01*
X7406443Y-10078420D01*
X7435014Y-10078420D01*
X7454062Y-10087944D01*
X7463585Y-10106991D01*
X7463585Y-10211753D01*
X7854062Y-10002229D02*
X7682633Y-10259372D01*
X8111204Y-10011753D02*
X8130252Y-10011753D01*
X8149300Y-10021277D01*
X8158824Y-10030801D01*
X8168347Y-10049848D01*
X8177871Y-10087944D01*
X8177871Y-10135563D01*
X8168347Y-10173658D01*
X8158824Y-10192705D01*
X8149300Y-10202229D01*
X8130252Y-10211753D01*
X8111204Y-10211753D01*
X8092157Y-10202229D01*
X8082633Y-10192705D01*
X8073109Y-10173658D01*
X8063585Y-10135563D01*
X8063585Y-10087944D01*
X8073109Y-10049848D01*
X8082633Y-10030801D01*
X8092157Y-10021277D01*
X8111204Y-10011753D01*
X8263585Y-10192705D02*
X8273109Y-10202229D01*
X8263585Y-10211753D01*
X8254062Y-10202229D01*
X8263585Y-10192705D01*
X8263585Y-10211753D01*
X8396919Y-10011753D02*
X8415966Y-10011753D01*
X8435014Y-10021277D01*
X8444538Y-10030801D01*
X8454062Y-10049848D01*
X8463586Y-10087944D01*
X8463586Y-10135563D01*
X8454062Y-10173658D01*
X8444538Y-10192705D01*
X8435014Y-10202229D01*
X8415966Y-10211753D01*
X8396919Y-10211753D01*
X8377871Y-10202229D01*
X8368347Y-10192705D01*
X8358824Y-10173658D01*
X8349300Y-10135563D01*
X8349300Y-10087944D01*
X8358824Y-10049848D01*
X8368347Y-10030801D01*
X8377871Y-10021277D01*
X8396919Y-10011753D01*
X8577871Y-10097467D02*
X8558824Y-10087944D01*
X8549300Y-10078420D01*
X8539776Y-10059372D01*
X8539776Y-10049848D01*
X8549300Y-10030801D01*
X8558824Y-10021277D01*
X8577871Y-10011753D01*
X8615966Y-10011753D01*
X8635014Y-10021277D01*
X8644538Y-10030801D01*
X8654062Y-10049848D01*
X8654062Y-10059372D01*
X8644538Y-10078420D01*
X8635014Y-10087944D01*
X8615966Y-10097467D01*
X8577871Y-10097467D01*
X8558824Y-10106991D01*
X8549300Y-10116515D01*
X8539776Y-10135563D01*
X8539776Y-10173658D01*
X8549300Y-10192705D01*
X8558824Y-10202229D01*
X8577871Y-10211753D01*
X8615966Y-10211753D01*
X8635014Y-10202229D01*
X8644538Y-10192705D01*
X8654062Y-10173658D01*
X8654062Y-10135563D01*
X8644538Y-10116515D01*
X8635014Y-10106991D01*
X8615966Y-10097467D01*
X8825490Y-10011753D02*
X8787395Y-10011753D01*
X8768347Y-10021277D01*
X8758824Y-10030801D01*
X8739776Y-10059372D01*
X8730252Y-10097467D01*
X8730252Y-10173658D01*
X8739776Y-10192705D01*
X8749300Y-10202229D01*
X8768347Y-10211753D01*
X8806443Y-10211753D01*
X8825490Y-10202229D01*
X8835014Y-10192705D01*
X8844538Y-10173658D01*
X8844538Y-10126039D01*
X8835014Y-10106991D01*
X8825490Y-10097467D01*
X8806443Y-10087944D01*
X8768347Y-10087944D01*
X8749300Y-10097467D01*
X8739776Y-10106991D01*
X8730252Y-10126039D01*
X9015966Y-10011753D02*
X8977871Y-10011753D01*
X8958824Y-10021277D01*
X8949300Y-10030801D01*
X8930252Y-10059372D01*
X8920728Y-10097467D01*
X8920728Y-10173658D01*
X8930252Y-10192705D01*
X8939776Y-10202229D01*
X8958824Y-10211753D01*
X8996919Y-10211753D01*
X9015966Y-10202229D01*
X9025490Y-10192705D01*
X9035014Y-10173658D01*
X9035014Y-10126039D01*
X9025490Y-10106991D01*
X9015966Y-10097467D01*
X8996919Y-10087944D01*
X8958824Y-10087944D01*
X8939776Y-10097467D01*
X8930252Y-10106991D01*
X8920728Y-10126039D01*
X9111205Y-10011753D02*
X9111205Y-10049848D01*
X9187395Y-10011753D02*
X9187395Y-10049848D01*
X9482633Y-10287944D02*
X9473109Y-10278420D01*
X9454062Y-10249848D01*
X9444538Y-10230801D01*
X9435014Y-10202229D01*
X9425490Y-10154610D01*
X9425490Y-10116515D01*
X9435014Y-10068896D01*
X9444538Y-10040325D01*
X9454062Y-10021277D01*
X9473109Y-9992705D01*
X9482633Y-9983182D01*
X9644538Y-10078420D02*
X9644538Y-10211753D01*
X9596919Y-10002229D02*
X9549300Y-10145086D01*
X9673109Y-10145086D01*
X9901681Y-10211753D02*
X9901681Y-10011753D01*
X9987395Y-10211753D02*
X9987395Y-10106991D01*
X9977871Y-10087944D01*
X9958824Y-10078420D01*
X9930252Y-10078420D01*
X9911205Y-10087944D01*
X9901681Y-10097467D01*
X10111205Y-10211753D02*
X10092157Y-10202229D01*
X10082633Y-10192705D01*
X10073109Y-10173658D01*
X10073109Y-10116515D01*
X10082633Y-10097467D01*
X10092157Y-10087944D01*
X10111205Y-10078420D01*
X10139776Y-10078420D01*
X10158824Y-10087944D01*
X10168347Y-10097467D01*
X10177871Y-10116515D01*
X10177871Y-10173658D01*
X10168347Y-10192705D01*
X10158824Y-10202229D01*
X10139776Y-10211753D01*
X10111205Y-10211753D01*
X10292157Y-10211753D02*
X10273109Y-10202229D01*
X10263586Y-10183182D01*
X10263586Y-10011753D01*
X10444538Y-10202229D02*
X10425490Y-10211753D01*
X10387395Y-10211753D01*
X10368347Y-10202229D01*
X10358824Y-10183182D01*
X10358824Y-10106991D01*
X10368347Y-10087944D01*
X10387395Y-10078420D01*
X10425490Y-10078420D01*
X10444538Y-10087944D01*
X10454062Y-10106991D01*
X10454062Y-10126039D01*
X10358824Y-10145086D01*
X10530252Y-10202229D02*
X10549300Y-10211753D01*
X10587395Y-10211753D01*
X10606443Y-10202229D01*
X10615966Y-10183182D01*
X10615966Y-10173658D01*
X10606443Y-10154610D01*
X10587395Y-10145086D01*
X10558824Y-10145086D01*
X10539776Y-10135563D01*
X10530252Y-10116515D01*
X10530252Y-10106991D01*
X10539776Y-10087944D01*
X10558824Y-10078420D01*
X10587395Y-10078420D01*
X10606443Y-10087944D01*
X10682633Y-10287944D02*
X10692157Y-10278420D01*
X10711205Y-10249848D01*
X10720728Y-10230801D01*
X10730252Y-10202229D01*
X10739776Y-10154610D01*
X10739776Y-10116515D01*
X10730252Y-10068896D01*
X10720728Y-10040325D01*
X10711205Y-10021277D01*
X10692157Y-9992705D01*
X10682633Y-9983182D01*
M02*
