%TF.GenerationSoftware,KiCad,Pcbnew,(6.0.8)*%
%TF.CreationDate,2023-02-13T22:42:51-05:00*%
%TF.ProjectId,miura_board,6d697572-615f-4626-9f61-72642e6b6963,rev?*%
%TF.SameCoordinates,Original*%
%TF.FileFunction,Profile,NP*%
%FSLAX46Y46*%
G04 Gerber Fmt 4.6, Leading zero omitted, Abs format (unit mm)*
G04 Created by KiCad (PCBNEW (6.0.8)) date 2023-02-13 22:42:51*
%MOMM*%
%LPD*%
G01*
G04 APERTURE LIST*
%TA.AperFunction,Profile*%
%ADD10C,0.100000*%
%TD*%
G04 APERTURE END LIST*
D10*
X63399994Y-35500004D02*
G75*
G03*
X60000000Y-38500000I-1921514J-1248946D01*
G01*
X64600000Y-37100000D02*
X79600000Y-37100000D01*
X61800000Y-81600000D02*
X60200000Y-82600000D01*
X64600000Y-84300000D02*
X109600000Y-84300000D01*
X109600000Y-37100000D02*
X111000000Y-35300000D01*
X60200024Y-82600037D02*
G75*
G03*
X63200000Y-86000000I1248976J-1921463D01*
G01*
X64600000Y-84300000D02*
X63200000Y-86000000D01*
X79600000Y-37100000D02*
X79610000Y-45840000D01*
X86700000Y-37100000D02*
X109600000Y-37100000D01*
X63400000Y-35500000D02*
X64600000Y-37100000D01*
X86710000Y-45840000D02*
X79610000Y-45840000D01*
X113800014Y-38800027D02*
G75*
G03*
X111000000Y-35300000I-1054614J2026327D01*
G01*
X112200000Y-81600000D02*
X114000000Y-82800000D01*
X112200000Y-81600000D02*
X112200000Y-39900000D01*
X86700000Y-37100000D02*
X86710000Y-45840000D01*
X60000000Y-38500000D02*
X61800000Y-39900000D01*
X61800000Y-81600000D02*
X61800000Y-39900000D01*
X112200000Y-39900000D02*
X113800000Y-38800000D01*
X109600000Y-84300000D02*
X110600000Y-85800000D01*
X110600004Y-85799998D02*
G75*
G03*
X114000000Y-82800000I1921496J1248968D01*
G01*
M02*
