%TF.GenerationSoftware,KiCad,Pcbnew,(6.0.8)*%
%TF.CreationDate,2022-11-27T13:06:36-05:00*%
%TF.ProjectId,miura_board,6d697572-615f-4626-9f61-72642e6b6963,rev?*%
%TF.SameCoordinates,Original*%
%TF.FileFunction,Copper,L4,Bot*%
%TF.FilePolarity,Positive*%
%FSLAX46Y46*%
G04 Gerber Fmt 4.6, Leading zero omitted, Abs format (unit mm)*
G04 Created by KiCad (PCBNEW (6.0.8)) date 2022-11-27 13:06:36*
%MOMM*%
%LPD*%
G01*
G04 APERTURE LIST*
G04 Aperture macros list*
%AMRoundRect*
0 Rectangle with rounded corners*
0 $1 Rounding radius*
0 $2 $3 $4 $5 $6 $7 $8 $9 X,Y pos of 4 corners*
0 Add a 4 corners polygon primitive as box body*
4,1,4,$2,$3,$4,$5,$6,$7,$8,$9,$2,$3,0*
0 Add four circle primitives for the rounded corners*
1,1,$1+$1,$2,$3*
1,1,$1+$1,$4,$5*
1,1,$1+$1,$6,$7*
1,1,$1+$1,$8,$9*
0 Add four rect primitives between the rounded corners*
20,1,$1+$1,$2,$3,$4,$5,0*
20,1,$1+$1,$4,$5,$6,$7,0*
20,1,$1+$1,$6,$7,$8,$9,0*
20,1,$1+$1,$8,$9,$2,$3,0*%
G04 Aperture macros list end*
%TA.AperFunction,SMDPad,CuDef*%
%ADD10RoundRect,0.225000X-0.250000X0.225000X-0.250000X-0.225000X0.250000X-0.225000X0.250000X0.225000X0*%
%TD*%
%TA.AperFunction,ComponentPad*%
%ADD11R,2.200000X2.200000*%
%TD*%
%TA.AperFunction,ComponentPad*%
%ADD12C,2.200000*%
%TD*%
%TA.AperFunction,SMDPad,CuDef*%
%ADD13RoundRect,0.100000X-0.637500X-0.100000X0.637500X-0.100000X0.637500X0.100000X-0.637500X0.100000X0*%
%TD*%
%TA.AperFunction,ComponentPad*%
%ADD14C,3.800000*%
%TD*%
%TA.AperFunction,SMDPad,CuDef*%
%ADD15RoundRect,0.100000X0.637500X0.100000X-0.637500X0.100000X-0.637500X-0.100000X0.637500X-0.100000X0*%
%TD*%
%TA.AperFunction,SMDPad,CuDef*%
%ADD16RoundRect,0.225000X-0.225000X-0.250000X0.225000X-0.250000X0.225000X0.250000X-0.225000X0.250000X0*%
%TD*%
%TA.AperFunction,ComponentPad*%
%ADD17R,1.700000X1.700000*%
%TD*%
%TA.AperFunction,ComponentPad*%
%ADD18O,1.700000X1.700000*%
%TD*%
%TA.AperFunction,SMDPad,CuDef*%
%ADD19RoundRect,0.225000X0.250000X-0.225000X0.250000X0.225000X-0.250000X0.225000X-0.250000X-0.225000X0*%
%TD*%
%TA.AperFunction,SMDPad,CuDef*%
%ADD20RoundRect,0.225000X0.225000X0.250000X-0.225000X0.250000X-0.225000X-0.250000X0.225000X-0.250000X0*%
%TD*%
%TA.AperFunction,SMDPad,CuDef*%
%ADD21RoundRect,0.100000X-0.100000X0.637500X-0.100000X-0.637500X0.100000X-0.637500X0.100000X0.637500X0*%
%TD*%
%TA.AperFunction,ViaPad*%
%ADD22C,0.800000*%
%TD*%
%TA.AperFunction,Conductor*%
%ADD23C,0.250000*%
%TD*%
G04 APERTURE END LIST*
D10*
%TO.P,C22,1*%
%TO.N,GND*%
X89500000Y-67925000D03*
%TO.P,C22,2*%
%TO.N,Net-(C22-Pad2)*%
X89500000Y-69475000D03*
%TD*%
D11*
%TO.P,J7,1,Pin_1*%
%TO.N,/IO34*%
X105030000Y-80600000D03*
D12*
%TO.P,J7,2,Pin_2*%
%TO.N,/IO35*%
X107570000Y-80600000D03*
%TD*%
%TO.P,J2,2,Pin_2*%
%TO.N,/IO2*%
X65400000Y-44440000D03*
D11*
%TO.P,J2,1,Pin_1*%
%TO.N,/IO15*%
X65400000Y-41900000D03*
%TD*%
D10*
%TO.P,C20,2*%
%TO.N,Net-(C20-Pad2)*%
X98400000Y-64375000D03*
%TO.P,C20,1*%
%TO.N,GND*%
X98400000Y-62825000D03*
%TD*%
D13*
%TO.P,U8,1,nSLEEP*%
%TO.N,+3V3*%
X79837500Y-69775000D03*
%TO.P,U8,2,AOUT1*%
%TO.N,/IO25*%
X79837500Y-69125000D03*
%TO.P,U8,3,AISEN*%
%TO.N,GND*%
X79837500Y-68475000D03*
%TO.P,U8,4,AOUT2*%
%TO.N,/IO26*%
X79837500Y-67825000D03*
%TO.P,U8,5,BOUT2*%
%TO.N,/IO14*%
X79837500Y-67175000D03*
%TO.P,U8,6,BISEN*%
%TO.N,GND*%
X79837500Y-66525000D03*
%TO.P,U8,7,BOUT1*%
%TO.N,/IO27*%
X79837500Y-65875000D03*
%TO.P,U8,8,nFAULT*%
%TO.N,unconnected-(U8-Pad8)*%
X79837500Y-65225000D03*
%TO.P,U8,9,BIN1*%
%TO.N,MOTOR_B31_IN*%
X85562500Y-65225000D03*
%TO.P,U8,10,BIN2*%
%TO.N,MOTOR_B32_IN*%
X85562500Y-65875000D03*
%TO.P,U8,11,VCP*%
%TO.N,Net-(C21-Pad2)*%
X85562500Y-66525000D03*
%TO.P,U8,12,VM*%
%TO.N,MOTOR_SUPPLY*%
X85562500Y-67175000D03*
%TO.P,U8,13,GND*%
%TO.N,GND*%
X85562500Y-67825000D03*
%TO.P,U8,14,VINT*%
%TO.N,Net-(C22-Pad2)*%
X85562500Y-68475000D03*
%TO.P,U8,15,AIN2*%
%TO.N,MOTOR_A32_IN*%
X85562500Y-69125000D03*
%TO.P,U8,16,AIN1*%
%TO.N,MOTOR_A31_IN*%
X85562500Y-69775000D03*
%TD*%
D14*
%TO.P,H4,1,1*%
%TO.N,GND*%
X61500000Y-84500000D03*
%TD*%
D15*
%TO.P,U4,1,nSLEEP*%
%TO.N,+3V3*%
X102656250Y-66125000D03*
%TO.P,U4,2,AOUT1*%
%TO.N,/IO33*%
X102656250Y-66775000D03*
%TO.P,U4,3,AISEN*%
%TO.N,GND*%
X102656250Y-67425000D03*
%TO.P,U4,4,AOUT2*%
%TO.N,/IO32*%
X102656250Y-68075000D03*
%TO.P,U4,5,BOUT2*%
%TO.N,/IO35*%
X102656250Y-68725000D03*
%TO.P,U4,6,BISEN*%
%TO.N,GND*%
X102656250Y-69375000D03*
%TO.P,U4,7,BOUT1*%
%TO.N,/IO34*%
X102656250Y-70025000D03*
%TO.P,U4,8,nFAULT*%
%TO.N,unconnected-(U4-Pad8)*%
X102656250Y-70675000D03*
%TO.P,U4,9,BIN1*%
%TO.N,MOTOR_A22_IN*%
X96931250Y-70675000D03*
%TO.P,U4,10,BIN2*%
%TO.N,MOTOR_A21_IN*%
X96931250Y-70025000D03*
%TO.P,U4,11,VCP*%
%TO.N,Net-(C19-Pad2)*%
X96931250Y-69375000D03*
%TO.P,U4,12,VM*%
%TO.N,MOTOR_SUPPLY*%
X96931250Y-68725000D03*
%TO.P,U4,13,GND*%
%TO.N,GND*%
X96931250Y-68075000D03*
%TO.P,U4,14,VINT*%
%TO.N,Net-(C20-Pad2)*%
X96931250Y-67425000D03*
%TO.P,U4,15,AIN2*%
%TO.N,MOTOR_B22_IN*%
X96931250Y-66775000D03*
%TO.P,U4,16,AIN1*%
%TO.N,MOTOR_B21_IN*%
X96931250Y-66125000D03*
%TD*%
D16*
%TO.P,C17,1*%
%TO.N,MOTOR_SUPPLY*%
X80625000Y-57400000D03*
%TO.P,C17,2*%
%TO.N,Net-(C17-Pad2)*%
X82175000Y-57400000D03*
%TD*%
D17*
%TO.P,J4,1,Pin_1*%
%TO.N,TXD0*%
X63680000Y-79800000D03*
D18*
%TO.P,J4,2,Pin_2*%
%TO.N,RXD0*%
X63680000Y-77260000D03*
%TO.P,J4,3,Pin_3*%
%TO.N,GND*%
X63680000Y-74720000D03*
%TO.P,J4,4,Pin_4*%
%TO.N,+3V3*%
X63680000Y-72180000D03*
%TD*%
D19*
%TO.P,C18,2*%
%TO.N,Net-(C18-Pad2)*%
X76700000Y-53225000D03*
%TO.P,C18,1*%
%TO.N,GND*%
X76700000Y-54775000D03*
%TD*%
D20*
%TO.P,C21,1*%
%TO.N,MOTOR_SUPPLY*%
X89375000Y-65800000D03*
%TO.P,C21,2*%
%TO.N,Net-(C21-Pad2)*%
X87825000Y-65800000D03*
%TD*%
D14*
%TO.P,H1,1,1*%
%TO.N,GND*%
X112700000Y-36800000D03*
%TD*%
D21*
%TO.P,U3,1,nSLEEP*%
%TO.N,+3V3*%
X78325000Y-48937500D03*
%TO.P,U3,2,AOUT1*%
%TO.N,/IO2*%
X78975000Y-48937500D03*
%TO.P,U3,3,AISEN*%
%TO.N,GND*%
X79625000Y-48937500D03*
%TO.P,U3,4,AOUT2*%
%TO.N,/IO15*%
X80275000Y-48937500D03*
%TO.P,U3,5,BOUT2*%
%TO.N,/IO13*%
X80925000Y-48937500D03*
%TO.P,U3,6,BISEN*%
%TO.N,GND*%
X81575000Y-48937500D03*
%TO.P,U3,7,BOUT1*%
%TO.N,/IO12*%
X82225000Y-48937500D03*
%TO.P,U3,8,nFAULT*%
%TO.N,unconnected-(U3-Pad8)*%
X82875000Y-48937500D03*
%TO.P,U3,9,BIN1*%
%TO.N,MOTOR_B11_IN*%
X82875000Y-54662500D03*
%TO.P,U3,10,BIN2*%
%TO.N,MOTOR_B12_IN*%
X82225000Y-54662500D03*
%TO.P,U3,11,VCP*%
%TO.N,Net-(C17-Pad2)*%
X81575000Y-54662500D03*
%TO.P,U3,12,VM*%
%TO.N,MOTOR_SUPPLY*%
X80925000Y-54662500D03*
%TO.P,U3,13,GND*%
%TO.N,GND*%
X80275000Y-54662500D03*
%TO.P,U3,14,VINT*%
%TO.N,Net-(C18-Pad2)*%
X79625000Y-54662500D03*
%TO.P,U3,15,AIN2*%
%TO.N,MOTOR_A12_IN*%
X78975000Y-54662500D03*
%TO.P,U3,16,AIN1*%
%TO.N,MOTOR_A11_IN*%
X78325000Y-54662500D03*
%TD*%
D20*
%TO.P,C19,2*%
%TO.N,Net-(C19-Pad2)*%
X97570000Y-72500000D03*
%TO.P,C19,1*%
%TO.N,MOTOR_SUPPLY*%
X99120000Y-72500000D03*
%TD*%
D11*
%TO.P,J3,1,Pin_1*%
%TO.N,/IO32*%
X108600000Y-69570000D03*
D12*
%TO.P,J3,2,Pin_2*%
%TO.N,/IO33*%
X108600000Y-67030000D03*
%TD*%
D14*
%TO.P,H3,1,1*%
%TO.N,GND*%
X61500000Y-36800000D03*
%TD*%
D11*
%TO.P,J8,1,Pin_1*%
%TO.N,/IO14*%
X108600000Y-62170000D03*
D12*
%TO.P,J8,2,Pin_2*%
%TO.N,/IO27*%
X108600000Y-59630000D03*
%TD*%
D11*
%TO.P,J5,1,Pin_1*%
%TO.N,VBAT*%
X90300000Y-39130000D03*
D12*
%TO.P,J5,2,Pin_2*%
%TO.N,GND*%
X90300000Y-41670000D03*
%TD*%
D14*
%TO.P,H2,1,1*%
%TO.N,GND*%
X112500000Y-84548970D03*
%TD*%
D12*
%TO.P,J1,2,Pin_2*%
%TO.N,/IO25*%
X65400000Y-51270000D03*
D11*
%TO.P,J1,1,Pin_1*%
%TO.N,/IO26*%
X65400000Y-48730000D03*
%TD*%
%TO.P,J6,1,Pin_1*%
%TO.N,/IO12*%
X77600000Y-40700000D03*
D12*
%TO.P,J6,2,Pin_2*%
%TO.N,/IO13*%
X75060000Y-40700000D03*
%TD*%
D22*
%TO.N,+3V3*%
X102500000Y-64800000D03*
%TO.N,GND*%
X72700000Y-56100000D03*
%TO.N,+3V3*%
X67100000Y-63000000D03*
%TO.N,GND*%
X69900000Y-71000000D03*
X66700000Y-71200000D03*
X64400000Y-66900000D03*
X62700000Y-63200000D03*
X64000000Y-62000000D03*
%TO.N,+3V3*%
X64900000Y-69400000D03*
%TO.N,SCL*%
X71100000Y-70200000D03*
%TO.N,GND*%
X69200000Y-56800000D03*
X63400000Y-56900000D03*
X72700000Y-76700000D03*
%TO.N,SCL*%
X72000000Y-74200000D03*
%TO.N,GND*%
X85500000Y-72200000D03*
X90900000Y-70700000D03*
X78600000Y-51500000D03*
X87800000Y-52800000D03*
%TO.N,+3V3*%
X76800000Y-49600000D03*
X93200000Y-80200000D03*
%TO.N,/IO14*%
X104600000Y-78200000D03*
%TO.N,/IO27*%
X104800000Y-75800000D03*
%TO.N,GND*%
X77000000Y-68300000D03*
X77800000Y-66100000D03*
%TO.N,+3V3*%
X79900000Y-71200000D03*
%TO.N,GND*%
X89800000Y-56200000D03*
%TO.N,MOTOR_A32_IN*%
X87800000Y-69800000D03*
%TO.N,MOTOR_A31_IN*%
X88200000Y-71100000D03*
%TO.N,GND*%
X90300000Y-76700000D03*
X99300000Y-75600000D03*
%TO.N,MOTOR_B31_IN*%
X87100000Y-63100000D03*
%TO.N,MOTOR_B32_IN*%
X85500000Y-62100000D03*
%TO.N,GND*%
X76700000Y-56300000D03*
%TO.N,MOTOR_B11_IN*%
X88700000Y-61000000D03*
%TO.N,MOTOR_B12_IN*%
X86800000Y-61300000D03*
%TO.N,MOTOR_SUPPLY*%
X81200000Y-44300000D03*
%TO.N,MOTOR_A12_IN*%
X79500000Y-56500000D03*
%TO.N,MOTOR_A11_IN*%
X78300000Y-56500000D03*
%TO.N,GND*%
X96800000Y-62800000D03*
%TO.N,MOTOR_A22_IN*%
X94993750Y-70400000D03*
%TO.N,MOTOR_A21_IN*%
X95093750Y-69100000D03*
%TO.N,MOTOR_B22_IN*%
X95093750Y-67800000D03*
%TO.N,MOTOR_B21_IN*%
X94993750Y-66500000D03*
%TO.N,GND*%
X98900000Y-68100000D03*
X101093750Y-67400000D03*
X105300000Y-49000000D03*
X105300000Y-54200000D03*
X74900000Y-47400000D03*
X83500000Y-44300000D03*
%TO.N,+3V3*%
X103700000Y-54200000D03*
%TO.N,GND*%
X94100000Y-48850000D03*
X88300000Y-48850000D03*
X97300000Y-82500000D03*
X99400000Y-82500000D03*
X95200000Y-82600000D03*
X90300000Y-48850000D03*
X92300000Y-48850000D03*
X103000000Y-46450000D03*
X101400000Y-82500000D03*
%TD*%
D23*
%TO.N,/IO34*%
X106200000Y-79430000D02*
X105030000Y-80600000D01*
X106200000Y-72100000D02*
X106200000Y-79430000D01*
X104125000Y-70025000D02*
X106200000Y-72100000D01*
X102656250Y-70025000D02*
X104125000Y-70025000D01*
%TO.N,GND*%
X100175000Y-69375000D02*
X98900000Y-68100000D01*
X102656250Y-69375000D02*
X100175000Y-69375000D01*
X98875000Y-68075000D02*
X98900000Y-68100000D01*
X96931250Y-68075000D02*
X98875000Y-68075000D01*
%TO.N,+3V3*%
X102656250Y-64956250D02*
X102500000Y-64800000D01*
X102656250Y-66125000D02*
X102656250Y-64956250D01*
%TO.N,/IO33*%
X108345000Y-66775000D02*
X108600000Y-67030000D01*
X102656250Y-66775000D02*
X108345000Y-66775000D01*
%TO.N,/IO32*%
X102656250Y-68075000D02*
X107105000Y-68075000D01*
%TO.N,/IO35*%
X103525000Y-68725000D02*
X102656250Y-68725000D01*
%TO.N,Net-(C20-Pad2)*%
X98400000Y-65668750D02*
X98393750Y-65675000D01*
X98400000Y-64375000D02*
X98400000Y-65668750D01*
%TO.N,MOTOR_SUPPLY*%
X99120000Y-73205000D02*
X99120000Y-72500000D01*
X98625000Y-73700000D02*
X99120000Y-73205000D01*
X94300000Y-73700000D02*
X98625000Y-73700000D01*
X92050000Y-71450000D02*
X94300000Y-73700000D01*
X92000000Y-71450000D02*
X92050000Y-71450000D01*
X92000000Y-66150000D02*
X92000000Y-71450000D01*
X87426041Y-55325000D02*
X92000000Y-59898959D01*
X84200000Y-53476041D02*
X86048959Y-55325000D01*
X86048959Y-55325000D02*
X87426041Y-55325000D01*
X84200000Y-50500000D02*
X84200000Y-53476041D01*
X92000000Y-59898959D02*
X92000000Y-65550000D01*
%TO.N,/IO32*%
X107105000Y-68075000D02*
X108600000Y-69570000D01*
%TO.N,/IO35*%
X107570000Y-72770000D02*
X107570000Y-80600000D01*
X103525000Y-68725000D02*
X107570000Y-72770000D01*
%TO.N,MOTOR_SUPPLY*%
X99125000Y-69731250D02*
X99125000Y-72495000D01*
X99125000Y-72495000D02*
X99120000Y-72500000D01*
X98118750Y-68725000D02*
X99125000Y-69731250D01*
%TO.N,Net-(C19-Pad2)*%
X97968750Y-69375000D02*
X98293750Y-69700000D01*
X98293750Y-71776250D02*
X97570000Y-72500000D01*
X96931250Y-69375000D02*
X97968750Y-69375000D01*
X98293750Y-69700000D02*
X98293750Y-71776250D01*
%TO.N,MOTOR_SUPPLY*%
X91700000Y-65800000D02*
X91725000Y-65775000D01*
X89375000Y-65800000D02*
X91700000Y-65800000D01*
%TO.N,SCL*%
X71100000Y-73300000D02*
X71100000Y-70200000D01*
X72000000Y-74200000D02*
X71100000Y-73300000D01*
%TO.N,/IO12*%
X77600000Y-42400000D02*
X77600000Y-40700000D01*
X82225000Y-47025000D02*
X77600000Y-42400000D01*
%TO.N,/IO13*%
X75060000Y-41860000D02*
X76300000Y-43100000D01*
X75060000Y-40700000D02*
X75060000Y-41860000D01*
%TO.N,/IO26*%
X70330000Y-48730000D02*
X65500000Y-48730000D01*
X74600000Y-53000000D02*
X70330000Y-48730000D01*
X74600000Y-64700000D02*
X74600000Y-53000000D01*
%TO.N,/IO25*%
X69370000Y-51270000D02*
X65500000Y-51270000D01*
X71475000Y-53375000D02*
X69370000Y-51270000D01*
X71475000Y-66975000D02*
X71475000Y-53375000D01*
X73625000Y-69125000D02*
X71475000Y-66975000D01*
%TO.N,/IO2*%
X65960000Y-44900000D02*
X65500000Y-44440000D01*
X75626041Y-44900000D02*
X65960000Y-44900000D01*
X78975000Y-48248959D02*
X75626041Y-44900000D01*
X78975000Y-48937500D02*
X78975000Y-48248959D01*
%TO.N,/IO15*%
X69500000Y-41900000D02*
X65500000Y-41900000D01*
X71600000Y-44000000D02*
X69500000Y-41900000D01*
X80275000Y-48248959D02*
X76026041Y-44000000D01*
X80275000Y-48937500D02*
X80275000Y-48248959D01*
X76026041Y-44000000D02*
X71600000Y-44000000D01*
%TO.N,GND*%
X90900000Y-68300000D02*
X90900000Y-70700000D01*
X90500000Y-67900000D02*
X90900000Y-68300000D01*
X89525000Y-67900000D02*
X90500000Y-67900000D01*
X89500000Y-67925000D02*
X89525000Y-67900000D01*
X89400000Y-67825000D02*
X89500000Y-67925000D01*
X85562500Y-67825000D02*
X89400000Y-67825000D01*
%TO.N,Net-(C22-Pad2)*%
X87775000Y-68475000D02*
X85562500Y-68475000D01*
X89500000Y-69475000D02*
X88775000Y-69475000D01*
X88775000Y-69475000D02*
X87775000Y-68475000D01*
%TO.N,GND*%
X79275000Y-51475000D02*
X79625000Y-51825000D01*
X79125000Y-51475000D02*
X79275000Y-51475000D01*
X79625000Y-51825000D02*
X79625000Y-51475000D01*
X79625000Y-52625000D02*
X79625000Y-51825000D01*
X79325000Y-51475000D02*
X79125000Y-51475000D01*
X79625000Y-51175000D02*
X79325000Y-51475000D01*
X79725000Y-50925000D02*
X79975000Y-50675000D01*
X79625000Y-50925000D02*
X79725000Y-50925000D01*
X79625000Y-50925000D02*
X79625000Y-50675000D01*
X79625000Y-51175000D02*
X79625000Y-50925000D01*
X79625000Y-50325000D02*
X79975000Y-50675000D01*
X80075000Y-50675000D02*
X79625000Y-50675000D01*
X80925000Y-50675000D02*
X80075000Y-50675000D01*
X79975000Y-50675000D02*
X80075000Y-50675000D01*
X79625000Y-50325000D02*
X79625000Y-48937500D01*
X79625000Y-50675000D02*
X79625000Y-50325000D01*
X81575000Y-50025000D02*
X80925000Y-50675000D01*
X79625000Y-51475000D02*
X79625000Y-51175000D01*
X79125000Y-51475000D02*
X78625000Y-51475000D01*
X79625000Y-51475000D02*
X79125000Y-51475000D01*
X78625000Y-51475000D02*
X78600000Y-51500000D01*
X80275000Y-53275000D02*
X79625000Y-52625000D01*
X80275000Y-54662500D02*
X80275000Y-53275000D01*
X81575000Y-48937500D02*
X81575000Y-50025000D01*
%TO.N,/IO13*%
X80925000Y-47725000D02*
X76300000Y-43100000D01*
X80925000Y-48937500D02*
X80925000Y-47725000D01*
%TO.N,/IO12*%
X82225000Y-48937500D02*
X82225000Y-47025000D01*
%TO.N,+3V3*%
X77462500Y-48937500D02*
X76800000Y-49600000D01*
X78325000Y-48937500D02*
X77462500Y-48937500D01*
%TO.N,/IO14*%
X104325000Y-78475000D02*
X104600000Y-78200000D01*
X104325000Y-78500000D02*
X104325000Y-78475000D01*
%TO.N,/IO27*%
X82600000Y-65800000D02*
X79912500Y-65800000D01*
X79912500Y-65800000D02*
X79837500Y-65875000D01*
X83900000Y-72200000D02*
X83900000Y-67100000D01*
X90200000Y-78500000D02*
X83900000Y-72200000D01*
X102700000Y-78500000D02*
X90200000Y-78500000D01*
X104800000Y-76400000D02*
X102700000Y-78500000D01*
X104800000Y-75800000D02*
X104800000Y-76400000D01*
X83900000Y-67100000D02*
X82600000Y-65800000D01*
%TO.N,/IO14*%
X103525000Y-79300000D02*
X104325000Y-78500000D01*
X101500000Y-79300000D02*
X103525000Y-79300000D01*
X90000000Y-79300000D02*
X101500000Y-79300000D01*
X83100000Y-72400000D02*
X90000000Y-79300000D01*
%TO.N,MOTOR_SUPPLY*%
X92000000Y-66050000D02*
X92000000Y-66150000D01*
X92000000Y-65800000D02*
X92000000Y-66150000D01*
X91725000Y-65775000D02*
X92000000Y-66050000D01*
X92000000Y-65550000D02*
X92000000Y-65800000D01*
X91725000Y-65775000D02*
X91975000Y-65775000D01*
X91950000Y-65550000D02*
X92000000Y-65550000D01*
X91725000Y-65775000D02*
X91950000Y-65550000D01*
X91975000Y-65775000D02*
X92000000Y-65800000D01*
%TO.N,GND*%
X77175000Y-68475000D02*
X77000000Y-68300000D01*
X79837500Y-68475000D02*
X77175000Y-68475000D01*
%TO.N,/IO25*%
X79837500Y-69125000D02*
X73625000Y-69125000D01*
%TO.N,GND*%
X78225000Y-66525000D02*
X77800000Y-66100000D01*
X79837500Y-66525000D02*
X78225000Y-66525000D01*
%TO.N,/IO26*%
X79812500Y-67800000D02*
X77700000Y-67800000D01*
X79837500Y-67825000D02*
X79812500Y-67800000D01*
X77700000Y-67800000D02*
X74600000Y-64700000D01*
%TO.N,+3V3*%
X79837500Y-71137500D02*
X79900000Y-71200000D01*
X79837500Y-69775000D02*
X79837500Y-71137500D01*
%TO.N,MOTOR_A32_IN*%
X87125000Y-69125000D02*
X87800000Y-69800000D01*
X85562500Y-69125000D02*
X87125000Y-69125000D01*
%TO.N,MOTOR_A31_IN*%
X86887500Y-71100000D02*
X88200000Y-71100000D01*
X85562500Y-69775000D02*
X86887500Y-71100000D01*
%TO.N,MOTOR_B31_IN*%
X86500000Y-63100000D02*
X87100000Y-63100000D01*
X85562500Y-64037500D02*
X86500000Y-63100000D01*
%TO.N,/IO14*%
X81800000Y-67200000D02*
X83100000Y-68500000D01*
X79862500Y-67200000D02*
X81800000Y-67200000D01*
X83100000Y-68500000D02*
X83100000Y-72400000D01*
X79837500Y-67175000D02*
X79862500Y-67200000D01*
%TO.N,MOTOR_B32_IN*%
X84600000Y-62100000D02*
X85500000Y-62100000D01*
X83800000Y-65550000D02*
X83800000Y-62900000D01*
X84125000Y-65875000D02*
X83800000Y-65550000D01*
X85562500Y-65875000D02*
X84125000Y-65875000D01*
X83800000Y-62900000D02*
X84600000Y-62100000D01*
%TO.N,MOTOR_B31_IN*%
X85562500Y-65225000D02*
X85562500Y-64037500D01*
%TO.N,MOTOR_SUPPLY*%
X88100000Y-67175000D02*
X85562500Y-67175000D01*
X89375000Y-65900000D02*
X88100000Y-67175000D01*
%TO.N,Net-(C21-Pad2)*%
X87200000Y-66525000D02*
X87825000Y-65900000D01*
X85562500Y-66525000D02*
X87200000Y-66525000D01*
%TO.N,GND*%
X76700000Y-54775000D02*
X76700000Y-56300000D01*
%TO.N,Net-(C18-Pad2)*%
X79625000Y-53973959D02*
X79625000Y-54662500D01*
X78876041Y-53225000D02*
X79625000Y-53973959D01*
X76700000Y-53225000D02*
X78876041Y-53225000D01*
%TO.N,MOTOR_B11_IN*%
X88100000Y-60400000D02*
X88700000Y-61000000D01*
X85200000Y-60400000D02*
X87400000Y-60400000D01*
X87400000Y-60400000D02*
X88100000Y-60400000D01*
X84400000Y-59600000D02*
X85200000Y-60400000D01*
X84400000Y-57000000D02*
X84400000Y-59600000D01*
X82875000Y-55475000D02*
X84200000Y-56800000D01*
X84200000Y-56800000D02*
X84400000Y-57000000D01*
X82875000Y-54662500D02*
X82875000Y-55475000D01*
%TO.N,MOTOR_B12_IN*%
X84200000Y-61300000D02*
X86800000Y-61300000D01*
X83700000Y-57000000D02*
X83700000Y-60800000D01*
X83700000Y-60800000D02*
X84200000Y-61300000D01*
X83000000Y-56300000D02*
X83700000Y-57000000D01*
X82225000Y-55525000D02*
X83000000Y-56300000D01*
X82225000Y-54662500D02*
X82225000Y-55525000D01*
%TO.N,Net-(C17-Pad2)*%
X81575000Y-56800000D02*
X82175000Y-57400000D01*
X81575000Y-54662500D02*
X81575000Y-56800000D01*
%TO.N,MOTOR_SUPPLY*%
X80925000Y-57100000D02*
X80625000Y-57400000D01*
X80925000Y-54662500D02*
X80925000Y-57100000D01*
X98118750Y-68725000D02*
X96931250Y-68725000D01*
X81200000Y-44600000D02*
X81200000Y-44300000D01*
X84200000Y-47600000D02*
X81200000Y-44600000D01*
X84200000Y-50500000D02*
X84200000Y-47600000D01*
X83800000Y-50900000D02*
X84200000Y-50500000D01*
X80925000Y-52226041D02*
X82251041Y-50900000D01*
X82251041Y-50900000D02*
X83800000Y-50900000D01*
X80925000Y-54662500D02*
X80925000Y-52226041D01*
%TO.N,MOTOR_A12_IN*%
X78975000Y-55975000D02*
X79500000Y-56500000D01*
X78975000Y-54662500D02*
X78975000Y-55975000D01*
%TO.N,MOTOR_A11_IN*%
X78325000Y-56475000D02*
X78300000Y-56500000D01*
X78325000Y-54662500D02*
X78325000Y-56475000D01*
%TO.N,GND*%
X96825000Y-62825000D02*
X96800000Y-62800000D01*
X98400000Y-62825000D02*
X96825000Y-62825000D01*
%TO.N,Net-(C20-Pad2)*%
X98393750Y-66700000D02*
X98393750Y-65675000D01*
X97668750Y-67425000D02*
X98393750Y-66700000D01*
X96931250Y-67425000D02*
X97668750Y-67425000D01*
%TO.N,MOTOR_A22_IN*%
X95268750Y-70675000D02*
X94993750Y-70400000D01*
X96931250Y-70675000D02*
X95268750Y-70675000D01*
%TO.N,MOTOR_A21_IN*%
X96018750Y-70025000D02*
X95093750Y-69100000D01*
X96931250Y-70025000D02*
X96018750Y-70025000D01*
%TO.N,MOTOR_B22_IN*%
X96118750Y-66775000D02*
X95093750Y-67800000D01*
X96931250Y-66775000D02*
X96118750Y-66775000D01*
%TO.N,MOTOR_B21_IN*%
X95368750Y-66125000D02*
X94993750Y-66500000D01*
X96931250Y-66125000D02*
X95368750Y-66125000D01*
%TO.N,GND*%
X102762500Y-67425000D02*
X101025000Y-67425000D01*
%TD*%
M02*
