M48
; DRILL file {KiCad (6.0.8)} date Mon Feb 13 22:44:56 2023
; FORMAT={-:-/ absolute / metric / decimal}
; #@! TF.CreationDate,2023-02-13T22:44:56-05:00
; #@! TF.GenerationSoftware,Kicad,Pcbnew,(6.0.8)
; #@! TF.FileFunction,Plated,1,4,PTH
FMAT,2
METRIC
; #@! TA.AperFunction,Plated,PTH,ViaDrill
T1C0.400
; #@! TA.AperFunction,Plated,PTH,ComponentDrill
T2C0.600
; #@! TA.AperFunction,Plated,PTH,ComponentDrill
T3C0.650
; #@! TA.AperFunction,Plated,PTH,ComponentDrill
T4C2.200
%
G90
G05
T1
X63.4Y-63.0
X64.1Y-60.8
X64.5Y-57.0
X64.9Y-65.8
X65.0Y-63.9
X66.6Y-76.4
X71.1Y-65.3
X71.4Y-63.6
X73.3Y-69.9
X73.4Y-50.99
X74.19Y-71.19
X74.2Y-72.4
X75.0Y-61.6
X76.63Y-47.94
X78.3Y-50.8
X81.9Y-54.0
X83.6Y-56.0
X84.4Y-65.2
X86.1Y-56.9
X89.3Y-66.0
X89.9Y-78.1
X90.1Y-55.4
X90.6Y-57.8
X91.7Y-70.2
X92.11Y-46.37
X92.8Y-53.1
X93.26Y-51.45
X93.7Y-43.8
X95.25Y-51.5
X96.5Y-70.2
X96.7Y-68.1
X97.0Y-71.2
X98.58Y-43.83
X99.0Y-74.8
X99.3Y-64.5
X100.0Y-73.9
X102.33Y-50.62
X103.004Y-74.5
X103.4Y-57.3
X103.75Y-73.75
X104.2Y-66.4
X105.772Y-40.44
X106.4Y-74.1
X109.4Y-70.2
X109.4Y-72.6
X110.7Y-77.5
X110.8Y-81.4
X111.072Y-45.84
T3
X63.5Y-69.77
X63.5Y-71.04
X63.5Y-72.31
X63.5Y-73.58
X63.5Y-74.85
X90.17Y-82.6
X91.44Y-82.6
X92.71Y-82.6
X93.98Y-82.6
X95.25Y-82.6
T4
X61.46Y-84.53
X61.54Y-36.81
X112.51Y-84.56
X112.76Y-36.76
T2
X98.18Y-76.755G85X98.18Y-77.855
G05
X98.18Y-81.185G85X98.18Y-81.785
G05
X106.82Y-76.755G85X106.82Y-77.855
G05
X106.82Y-81.185G85X106.82Y-81.785
G05
T0
M30
