%TF.GenerationSoftware,KiCad,Pcbnew,(6.0.8)*%
%TF.CreationDate,2023-02-13T22:42:50-05:00*%
%TF.ProjectId,miura_board,6d697572-615f-4626-9f61-72642e6b6963,rev?*%
%TF.SameCoordinates,Original*%
%TF.FileFunction,Copper,L4,Bot*%
%TF.FilePolarity,Positive*%
%FSLAX46Y46*%
G04 Gerber Fmt 4.6, Leading zero omitted, Abs format (unit mm)*
G04 Created by KiCad (PCBNEW (6.0.8)) date 2023-02-13 22:42:50*
%MOMM*%
%LPD*%
G01*
G04 APERTURE LIST*
G04 Aperture macros list*
%AMRoundRect*
0 Rectangle with rounded corners*
0 $1 Rounding radius*
0 $2 $3 $4 $5 $6 $7 $8 $9 X,Y pos of 4 corners*
0 Add a 4 corners polygon primitive as box body*
4,1,4,$2,$3,$4,$5,$6,$7,$8,$9,$2,$3,0*
0 Add four circle primitives for the rounded corners*
1,1,$1+$1,$2,$3*
1,1,$1+$1,$4,$5*
1,1,$1+$1,$6,$7*
1,1,$1+$1,$8,$9*
0 Add four rect primitives between the rounded corners*
20,1,$1+$1,$2,$3,$4,$5,0*
20,1,$1+$1,$4,$5,$6,$7,0*
20,1,$1+$1,$6,$7,$8,$9,0*
20,1,$1+$1,$8,$9,$2,$3,0*%
G04 Aperture macros list end*
%TA.AperFunction,ComponentPad*%
%ADD10C,3.800000*%
%TD*%
%TA.AperFunction,ComponentPad*%
%ADD11R,1.000000X1.000000*%
%TD*%
%TA.AperFunction,ComponentPad*%
%ADD12O,1.000000X1.000000*%
%TD*%
%TA.AperFunction,ComponentPad*%
%ADD13O,1.000000X2.100000*%
%TD*%
%TA.AperFunction,ComponentPad*%
%ADD14O,1.000000X1.600000*%
%TD*%
%TA.AperFunction,SMDPad,CuDef*%
%ADD15RoundRect,0.075000X-0.350000X-0.075000X0.350000X-0.075000X0.350000X0.075000X-0.350000X0.075000X0*%
%TD*%
%TA.AperFunction,SMDPad,CuDef*%
%ADD16RoundRect,0.075000X-0.075000X0.350000X-0.075000X-0.350000X0.075000X-0.350000X0.075000X0.350000X0*%
%TD*%
%TA.AperFunction,SMDPad,CuDef*%
%ADD17RoundRect,0.225000X-0.225000X-0.250000X0.225000X-0.250000X0.225000X0.250000X-0.225000X0.250000X0*%
%TD*%
%TA.AperFunction,SMDPad,CuDef*%
%ADD18RoundRect,0.225000X-0.250000X0.225000X-0.250000X-0.225000X0.250000X-0.225000X0.250000X0.225000X0*%
%TD*%
%TA.AperFunction,SMDPad,CuDef*%
%ADD19RoundRect,0.200000X0.200000X0.275000X-0.200000X0.275000X-0.200000X-0.275000X0.200000X-0.275000X0*%
%TD*%
%TA.AperFunction,SMDPad,CuDef*%
%ADD20R,1.350000X1.900000*%
%TD*%
%TA.AperFunction,SMDPad,CuDef*%
%ADD21R,1.350000X1.550000*%
%TD*%
%TA.AperFunction,SMDPad,CuDef*%
%ADD22R,1.800000X1.170000*%
%TD*%
%TA.AperFunction,SMDPad,CuDef*%
%ADD23R,1.000000X1.200000*%
%TD*%
%TA.AperFunction,SMDPad,CuDef*%
%ADD24R,1.100000X0.750000*%
%TD*%
%TA.AperFunction,SMDPad,CuDef*%
%ADD25R,1.100000X0.850000*%
%TD*%
%TA.AperFunction,SMDPad,CuDef*%
%ADD26RoundRect,0.225000X0.250000X-0.225000X0.250000X0.225000X-0.250000X0.225000X-0.250000X-0.225000X0*%
%TD*%
%TA.AperFunction,ViaPad*%
%ADD27C,0.800000*%
%TD*%
%TA.AperFunction,Conductor*%
%ADD28C,0.250000*%
%TD*%
%TA.AperFunction,Conductor*%
%ADD29C,0.800000*%
%TD*%
%TA.AperFunction,Conductor*%
%ADD30C,0.300000*%
%TD*%
G04 APERTURE END LIST*
D10*
%TO.P,H1,1,1*%
%TO.N,GND*%
X112760000Y-36760000D03*
%TD*%
D11*
%TO.P,J3,1,Pin_1*%
%TO.N,+3V3*%
X95250000Y-82600000D03*
D12*
%TO.P,J3,2,Pin_2*%
%TO.N,MOTOR_SUPPLY*%
X93980000Y-82600000D03*
%TO.P,J3,3,Pin_3*%
%TO.N,GND*%
X92710000Y-82600000D03*
%TO.P,J3,4,Pin_4*%
%TO.N,SCL*%
X91440000Y-82600000D03*
%TO.P,J3,5,Pin_5*%
%TO.N,SDA*%
X90170000Y-82600000D03*
%TD*%
D10*
%TO.P,H3,1,1*%
%TO.N,GND*%
X61460000Y-84530000D03*
%TD*%
%TO.P,H2,1,1*%
%TO.N,GND*%
X61540000Y-36810000D03*
%TD*%
%TO.P,H4,1,1*%
%TO.N,GND*%
X112510000Y-84560000D03*
%TD*%
D13*
%TO.P,USB1,13,SHIELD*%
%TO.N,GND*%
X106820000Y-77305000D03*
D14*
X98180000Y-81485000D03*
D13*
X98180000Y-77305000D03*
D14*
X106820000Y-81485000D03*
%TD*%
D11*
%TO.P,J2,1,Pin_1*%
%TO.N,+3V3*%
X63500000Y-74850000D03*
D12*
%TO.P,J2,2,Pin_2*%
%TO.N,MOTOR_SUPPLY*%
X63500000Y-73580000D03*
%TO.P,J2,3,Pin_3*%
%TO.N,GND*%
X63500000Y-72310000D03*
%TO.P,J2,4,Pin_4*%
%TO.N,SCL*%
X63500000Y-71040000D03*
%TO.P,J2,5,Pin_5*%
%TO.N,SDA*%
X63500000Y-69770000D03*
%TD*%
D15*
%TO.P,U6,1,CLKIN*%
%TO.N,unconnected-(U6-Pad1)*%
X84950000Y-61650000D03*
%TO.P,U6,2,NC*%
%TO.N,unconnected-(U6-Pad2)*%
X84950000Y-61150000D03*
%TO.P,U6,3,NC*%
%TO.N,unconnected-(U6-Pad3)*%
X84950000Y-60650000D03*
%TO.P,U6,4,NC*%
%TO.N,unconnected-(U6-Pad4)*%
X84950000Y-60150000D03*
%TO.P,U6,5,NC*%
%TO.N,unconnected-(U6-Pad5)*%
X84950000Y-59650000D03*
%TO.P,U6,6,AUX_SDA*%
%TO.N,unconnected-(U6-Pad6)*%
X84950000Y-59150000D03*
D16*
%TO.P,U6,7,AUX_SCL*%
%TO.N,unconnected-(U6-Pad7)*%
X85650000Y-58450000D03*
%TO.P,U6,8,VDDIO*%
%TO.N,+3V3*%
X86150000Y-58450000D03*
%TO.P,U6,9,AD0*%
%TO.N,unconnected-(U6-Pad9)*%
X86650000Y-58450000D03*
%TO.P,U6,10,REGOUT*%
%TO.N,Net-(C16-Pad1)*%
X87150000Y-58450000D03*
%TO.P,U6,11,FSYNC*%
%TO.N,GND*%
X87650000Y-58450000D03*
%TO.P,U6,12,INT*%
%TO.N,unconnected-(U6-Pad12)*%
X88150000Y-58450000D03*
D15*
%TO.P,U6,13,VDD*%
%TO.N,+3V3*%
X88850000Y-59150000D03*
%TO.P,U6,14,NC*%
%TO.N,unconnected-(U6-Pad14)*%
X88850000Y-59650000D03*
%TO.P,U6,15,NC*%
%TO.N,unconnected-(U6-Pad15)*%
X88850000Y-60150000D03*
%TO.P,U6,16,NC*%
%TO.N,unconnected-(U6-Pad16)*%
X88850000Y-60650000D03*
%TO.P,U6,17,NC*%
%TO.N,unconnected-(U6-Pad17)*%
X88850000Y-61150000D03*
%TO.P,U6,18,GND*%
%TO.N,GND*%
X88850000Y-61650000D03*
D16*
%TO.P,U6,19,NC*%
%TO.N,unconnected-(U6-Pad19)*%
X88150000Y-62350000D03*
%TO.P,U6,20,CPOUT*%
%TO.N,Net-(C29-Pad1)*%
X87650000Y-62350000D03*
%TO.P,U6,21,NC*%
%TO.N,unconnected-(U6-Pad21)*%
X87150000Y-62350000D03*
%TO.P,U6,22,NC*%
%TO.N,unconnected-(U6-Pad22)*%
X86650000Y-62350000D03*
%TO.P,U6,23,SCL*%
%TO.N,SCL*%
X86150000Y-62350000D03*
%TO.P,U6,24,SDA*%
%TO.N,SDA*%
X85650000Y-62350000D03*
%TD*%
D17*
%TO.P,C16,1*%
%TO.N,Net-(C16-Pad1)*%
X87125000Y-55300000D03*
%TO.P,C16,2*%
%TO.N,GND*%
X88675000Y-55300000D03*
%TD*%
D18*
%TO.P,C26,1*%
%TO.N,+3V3*%
X92600000Y-59725000D03*
%TO.P,C26,2*%
%TO.N,GND*%
X92600000Y-61275000D03*
%TD*%
D19*
%TO.P,R2,1*%
%TO.N,+3V3*%
X78425000Y-54200000D03*
%TO.P,R2,2*%
%TO.N,Net-(J1-Pad10)*%
X76775000Y-54200000D03*
%TD*%
D20*
%TO.P,J1,11,SHIELD*%
%TO.N,GND*%
X77762500Y-65730000D03*
D21*
X67062500Y-56435000D03*
D22*
X67287500Y-67755000D03*
D20*
X77762500Y-59760000D03*
D23*
%TO.P,J1,10,DET_A*%
%TO.N,Net-(J1-Pad10)*%
X76787500Y-56260000D03*
%TO.P,J1,9,DET_B*%
%TO.N,unconnected-(J1-Pad9)*%
X73087500Y-56260000D03*
D24*
%TO.P,J1,8,DAT1*%
%TO.N,unconnected-(J1-Pad8)*%
X66937500Y-66545000D03*
D25*
%TO.P,J1,7,DAT0*%
%TO.N,MISO*%
X66937500Y-65495000D03*
%TO.P,J1,6,VSS*%
%TO.N,GND*%
X66937500Y-64395000D03*
%TO.P,J1,5,CLK*%
%TO.N,SCLK*%
X66937500Y-63295000D03*
%TO.P,J1,4,VDD*%
%TO.N,+3V3*%
X66937500Y-62195000D03*
%TO.P,J1,3,CMD*%
%TO.N,MOSI*%
X66937500Y-61095000D03*
%TO.P,J1,2,DAT3/CD*%
%TO.N,CS*%
X66937500Y-59995000D03*
%TO.P,J1,1,DAT2*%
%TO.N,unconnected-(J1-Pad1)*%
X66937500Y-58895000D03*
%TD*%
D26*
%TO.P,C17,1*%
%TO.N,GND*%
X66800000Y-71875000D03*
%TO.P,C17,2*%
%TO.N,+3V3*%
X66800000Y-70325000D03*
%TD*%
D17*
%TO.P,C29,1*%
%TO.N,Net-(C29-Pad1)*%
X87825000Y-64500000D03*
%TO.P,C29,2*%
%TO.N,GND*%
X89375000Y-64500000D03*
%TD*%
D18*
%TO.P,C15,1*%
%TO.N,+3V3*%
X90600000Y-59625000D03*
%TO.P,C15,2*%
%TO.N,GND*%
X90600000Y-61175000D03*
%TD*%
D27*
%TO.N,GND*%
X66600000Y-76400000D03*
X64500000Y-57000000D03*
X98580000Y-43830000D03*
X93700000Y-43800000D03*
X105772500Y-40440000D03*
X95250000Y-51500000D03*
X76630000Y-47940000D03*
X99300000Y-64500000D03*
X71100000Y-65300000D03*
X93260000Y-51450000D03*
X104200000Y-66400000D03*
X90100000Y-55400000D03*
X73400000Y-50990000D03*
X64100000Y-60800000D03*
X102330000Y-50620000D03*
X89300000Y-66000000D03*
X81900000Y-54000000D03*
X92800000Y-53100000D03*
X110700000Y-77500000D03*
X89900000Y-78100000D03*
X109400000Y-70200000D03*
X92110000Y-46370000D03*
X99000000Y-74800000D03*
X111072500Y-45840000D03*
X83600000Y-56000000D03*
X109400000Y-72600000D03*
X110800000Y-81400000D03*
X75000000Y-61600000D03*
%TO.N,+3V3*%
X86100000Y-56900000D03*
X103004500Y-74500000D03*
X106400000Y-74100000D03*
X90600000Y-57800000D03*
X91700000Y-70200000D03*
X78300000Y-50800000D03*
%TO.N,TXD0*%
X97000000Y-71200000D03*
X74200000Y-72400000D03*
%TO.N,RXD0*%
X96500000Y-70200000D03*
X74190000Y-71190000D03*
%TO.N,MOTOR_SUPPLY*%
X103400000Y-57300000D03*
%TO.N,SDA*%
X73300000Y-69900000D03*
%TO.N,SCL*%
X84400000Y-65200000D03*
%TO.N,CS*%
X71400000Y-63600000D03*
%TO.N,SCLK*%
X65000000Y-63900000D03*
%TO.N,MISO*%
X64900000Y-65800000D03*
%TO.N,MOSI*%
X63400000Y-63000000D03*
%TO.N,VBUS*%
X103750000Y-73750000D03*
X100000000Y-73900000D03*
%TO.N,unconnected-(C7-Pad2)*%
X96700000Y-68100000D03*
%TD*%
D28*
%TO.N,GND*%
X67287500Y-67755000D02*
X69545000Y-67755000D01*
X89375000Y-64500000D02*
X89375000Y-65925000D01*
X90125000Y-61650000D02*
X90600000Y-61175000D01*
X67062500Y-56435000D02*
X65065000Y-56435000D01*
X89375000Y-65925000D02*
X89300000Y-66000000D01*
X87650000Y-57375000D02*
X88675000Y-56350000D01*
X65065000Y-56435000D02*
X64500000Y-57000000D01*
X71100000Y-66200000D02*
X71100000Y-65300000D01*
X90600000Y-61175000D02*
X92500000Y-61175000D01*
X77762500Y-65730000D02*
X77762500Y-59760000D01*
X77762500Y-59760000D02*
X78060000Y-59760000D01*
X69545000Y-67755000D02*
X71100000Y-66200000D01*
X88675000Y-56350000D02*
X88675000Y-55300000D01*
X88675000Y-55300000D02*
X90000000Y-55300000D01*
D29*
X63500000Y-72310000D02*
X66365000Y-72310000D01*
D28*
X89375000Y-62175000D02*
X89375000Y-64500000D01*
X75000000Y-60800000D02*
X75000000Y-61600000D01*
X92500000Y-61175000D02*
X92600000Y-61275000D01*
X90000000Y-55300000D02*
X90100000Y-55400000D01*
X76040000Y-59760000D02*
X75000000Y-60800000D01*
X88850000Y-61650000D02*
X89375000Y-62175000D01*
D29*
X66365000Y-72310000D02*
X66800000Y-71875000D01*
D28*
X88850000Y-61650000D02*
X90125000Y-61650000D01*
X66937500Y-64395000D02*
X70195000Y-64395000D01*
X87650000Y-58450000D02*
X87650000Y-57375000D01*
X70195000Y-64395000D02*
X71100000Y-65300000D01*
X77762500Y-59760000D02*
X76040000Y-59760000D01*
%TO.N,Net-(C29-Pad1)*%
X87650000Y-62350000D02*
X87650000Y-64325000D01*
X87650000Y-64325000D02*
X87825000Y-64500000D01*
%TO.N,+3V3*%
X63600000Y-68200000D02*
X63800000Y-68400000D01*
X65725000Y-70325000D02*
X66800000Y-70325000D01*
X86150000Y-58450000D02*
X86150000Y-56950000D01*
X88900000Y-59100000D02*
X90075000Y-59100000D01*
X90600000Y-59625000D02*
X92500000Y-59625000D01*
X62300000Y-73650000D02*
X63500000Y-74850000D01*
X86150000Y-56950000D02*
X86100000Y-56900000D01*
X63400000Y-68400000D02*
X62300000Y-69500000D01*
X62300000Y-69500000D02*
X62300000Y-73650000D01*
X63800000Y-68400000D02*
X65725000Y-70325000D01*
X63800000Y-68400000D02*
X63400000Y-68400000D01*
X88850000Y-59150000D02*
X88900000Y-59100000D01*
X78425000Y-54200000D02*
X78425000Y-50925000D01*
X78425000Y-50925000D02*
X78300000Y-50800000D01*
X65505000Y-62195000D02*
X63600000Y-64100000D01*
X90600000Y-59625000D02*
X90600000Y-57800000D01*
X92500000Y-59625000D02*
X92600000Y-59725000D01*
X90075000Y-59100000D02*
X90600000Y-59625000D01*
X63600000Y-64100000D02*
X63600000Y-68200000D01*
X66937500Y-62195000D02*
X65505000Y-62195000D01*
X63600000Y-68200000D02*
X63400000Y-68400000D01*
%TO.N,Net-(C16-Pad1)*%
X87125000Y-58425000D02*
X87125000Y-55300000D01*
X87150000Y-58450000D02*
X87125000Y-58425000D01*
%TO.N,TXD0*%
X96800000Y-71200000D02*
X97000000Y-71200000D01*
X95800000Y-72400000D02*
X97000000Y-71200000D01*
X74200000Y-72400000D02*
X95800000Y-72400000D01*
%TO.N,RXD0*%
X95600000Y-71100000D02*
X74280000Y-71100000D01*
X95600000Y-71100000D02*
X96500000Y-70200000D01*
X74280000Y-71100000D02*
X74190000Y-71190000D01*
D30*
%TO.N,MOTOR_SUPPLY*%
X65300000Y-78200000D02*
X71000000Y-83900000D01*
X71000000Y-83900000D02*
X92680000Y-83900000D01*
X64207106Y-73580000D02*
X65300000Y-74672894D01*
X63500000Y-73580000D02*
X64207106Y-73580000D01*
X65300000Y-74672894D02*
X65300000Y-78200000D01*
X103400000Y-65860661D02*
X103400000Y-57300000D01*
X93980000Y-76220000D02*
X93980000Y-75280661D01*
X92680000Y-83900000D02*
X93980000Y-82600000D01*
X93980000Y-75280661D02*
X103400000Y-65860661D01*
X93980000Y-82600000D02*
X93980000Y-76220000D01*
D28*
%TO.N,SDA*%
X73300000Y-75600000D02*
X80300000Y-82600000D01*
X85650000Y-62850000D02*
X83500000Y-65000000D01*
X73300000Y-69900000D02*
X73300000Y-75600000D01*
X83500000Y-67100000D02*
X80700000Y-69900000D01*
X80700000Y-69900000D02*
X73300000Y-69900000D01*
X80300000Y-82600000D02*
X90170000Y-82600000D01*
X85650000Y-62350000D02*
X85650000Y-62850000D01*
X83500000Y-65000000D02*
X83500000Y-67100000D01*
%TO.N,SCL*%
X84400000Y-65200000D02*
X86150000Y-63450000D01*
X86150000Y-63450000D02*
X86150000Y-62350000D01*
%TO.N,CS*%
X70695000Y-59995000D02*
X66937500Y-59995000D01*
X71400000Y-60700000D02*
X70695000Y-59995000D01*
X71400000Y-63600000D02*
X71400000Y-60700000D01*
%TO.N,SCLK*%
X66937500Y-63295000D02*
X65605000Y-63295000D01*
X65605000Y-63295000D02*
X65000000Y-63900000D01*
%TO.N,MISO*%
X66937500Y-65495000D02*
X65205000Y-65495000D01*
X65205000Y-65495000D02*
X64900000Y-65800000D01*
%TO.N,MOSI*%
X65305000Y-61095000D02*
X66937500Y-61095000D01*
X63400000Y-63000000D02*
X65305000Y-61095000D01*
%TO.N,Net-(J1-Pad10)*%
X76775000Y-56247500D02*
X76787500Y-56260000D01*
X76775000Y-54200000D02*
X76775000Y-56247500D01*
%TO.N,VBUS*%
X100000000Y-73900000D02*
X100125000Y-73775000D01*
X100125000Y-73775000D02*
X103725000Y-73775000D01*
X103725000Y-73775000D02*
X103750000Y-73750000D01*
%TD*%
M02*
