%TF.GenerationSoftware,KiCad,Pcbnew,(6.0.8)*%
%TF.CreationDate,2022-11-27T13:06:36-05:00*%
%TF.ProjectId,miura_board,6d697572-615f-4626-9f61-72642e6b6963,rev?*%
%TF.SameCoordinates,Original*%
%TF.FileFunction,Copper,L1,Top*%
%TF.FilePolarity,Positive*%
%FSLAX46Y46*%
G04 Gerber Fmt 4.6, Leading zero omitted, Abs format (unit mm)*
G04 Created by KiCad (PCBNEW (6.0.8)) date 2022-11-27 13:06:36*
%MOMM*%
%LPD*%
G01*
G04 APERTURE LIST*
G04 Aperture macros list*
%AMRoundRect*
0 Rectangle with rounded corners*
0 $1 Rounding radius*
0 $2 $3 $4 $5 $6 $7 $8 $9 X,Y pos of 4 corners*
0 Add a 4 corners polygon primitive as box body*
4,1,4,$2,$3,$4,$5,$6,$7,$8,$9,$2,$3,0*
0 Add four circle primitives for the rounded corners*
1,1,$1+$1,$2,$3*
1,1,$1+$1,$4,$5*
1,1,$1+$1,$6,$7*
1,1,$1+$1,$8,$9*
0 Add four rect primitives between the rounded corners*
20,1,$1+$1,$2,$3,$4,$5,0*
20,1,$1+$1,$4,$5,$6,$7,0*
20,1,$1+$1,$6,$7,$8,$9,0*
20,1,$1+$1,$8,$9,$2,$3,0*%
G04 Aperture macros list end*
%TA.AperFunction,SMDPad,CuDef*%
%ADD10RoundRect,0.225000X0.250000X-0.225000X0.250000X0.225000X-0.250000X0.225000X-0.250000X-0.225000X0*%
%TD*%
%TA.AperFunction,SMDPad,CuDef*%
%ADD11RoundRect,0.225000X-0.250000X0.225000X-0.250000X-0.225000X0.250000X-0.225000X0.250000X0.225000X0*%
%TD*%
%TA.AperFunction,ComponentPad*%
%ADD12R,2.200000X2.200000*%
%TD*%
%TA.AperFunction,ComponentPad*%
%ADD13C,2.200000*%
%TD*%
%TA.AperFunction,SMDPad,CuDef*%
%ADD14R,3.556000X3.556000*%
%TD*%
%TA.AperFunction,SMDPad,CuDef*%
%ADD15O,2.500000X0.900000*%
%TD*%
%TA.AperFunction,SMDPad,CuDef*%
%ADD16O,0.900000X2.500000*%
%TD*%
%TA.AperFunction,SMDPad,CuDef*%
%ADD17R,1.000000X2.750000*%
%TD*%
%TA.AperFunction,ComponentPad*%
%ADD18C,3.800000*%
%TD*%
%TA.AperFunction,SMDPad,CuDef*%
%ADD19RoundRect,0.225000X-0.225000X-0.250000X0.225000X-0.250000X0.225000X0.250000X-0.225000X0.250000X0*%
%TD*%
%TA.AperFunction,ComponentPad*%
%ADD20R,1.700000X1.700000*%
%TD*%
%TA.AperFunction,ComponentPad*%
%ADD21O,1.700000X1.700000*%
%TD*%
%TA.AperFunction,SMDPad,CuDef*%
%ADD22RoundRect,0.225000X0.335876X0.017678X0.017678X0.335876X-0.335876X-0.017678X-0.017678X-0.335876X0*%
%TD*%
%TA.AperFunction,SMDPad,CuDef*%
%ADD23RoundRect,0.237500X0.237500X-0.250000X0.237500X0.250000X-0.237500X0.250000X-0.237500X-0.250000X0*%
%TD*%
%TA.AperFunction,SMDPad,CuDef*%
%ADD24RoundRect,0.075000X0.194454X0.300520X-0.300520X-0.194454X-0.194454X-0.300520X0.300520X0.194454X0*%
%TD*%
%TA.AperFunction,SMDPad,CuDef*%
%ADD25RoundRect,0.075000X-0.300520X0.194454X0.194454X-0.300520X0.300520X-0.194454X-0.194454X0.300520X0*%
%TD*%
%TA.AperFunction,SMDPad,CuDef*%
%ADD26R,2.750000X1.000000*%
%TD*%
%TA.AperFunction,SMDPad,CuDef*%
%ADD27R,1.500000X2.000000*%
%TD*%
%TA.AperFunction,SMDPad,CuDef*%
%ADD28R,3.800000X2.000000*%
%TD*%
%TA.AperFunction,SMDPad,CuDef*%
%ADD29R,1.200000X2.200000*%
%TD*%
%TA.AperFunction,SMDPad,CuDef*%
%ADD30R,5.800000X6.400000*%
%TD*%
%TA.AperFunction,ViaPad*%
%ADD31C,0.800000*%
%TD*%
%TA.AperFunction,Conductor*%
%ADD32C,0.250000*%
%TD*%
%TA.AperFunction,Conductor*%
%ADD33C,0.300000*%
%TD*%
%TA.AperFunction,Conductor*%
%ADD34C,0.800000*%
%TD*%
G04 APERTURE END LIST*
D10*
%TO.P,C7,2*%
%TO.N,GND*%
X103400000Y-70625000D03*
%TO.P,C7,1*%
%TO.N,Net-(C7-Pad1)*%
X103400000Y-72175000D03*
%TD*%
D11*
%TO.P,C1,1*%
%TO.N,VBAT*%
X92300000Y-45900000D03*
%TO.P,C1,2*%
%TO.N,GND*%
X92300000Y-47450000D03*
%TD*%
D12*
%TO.P,J7,1,Pin_1*%
%TO.N,/IO34*%
X105030000Y-80600000D03*
D13*
%TO.P,J7,2,Pin_2*%
%TO.N,/IO35*%
X107570000Y-80600000D03*
%TD*%
%TO.P,J2,2,Pin_2*%
%TO.N,/IO2*%
X65400000Y-44440000D03*
D12*
%TO.P,J2,1,Pin_1*%
%TO.N,/IO15*%
X65400000Y-41900000D03*
%TD*%
D11*
%TO.P,C4,1*%
%TO.N,VBAT*%
X94100000Y-45875000D03*
%TO.P,C4,2*%
%TO.N,GND*%
X94100000Y-47425000D03*
%TD*%
D14*
%TO.P,U1,39,GND-PAD*%
%TO.N,GND*%
X85100000Y-69500000D03*
D15*
%TO.P,U1,38,GND*%
X75000000Y-76700000D03*
%TO.P,U1,37,IO23*%
%TO.N,unconnected-(U1-Pad37)*%
X75000000Y-75430000D03*
%TO.P,U1,36,IO22*%
%TO.N,SCL*%
X75000000Y-74160000D03*
%TO.P,U1,35,TXD0*%
%TO.N,TXD0*%
X75000000Y-72890000D03*
%TO.P,U1,34,RXD0*%
%TO.N,RXD0*%
X75000000Y-71620000D03*
%TO.P,U1,33,IO21*%
%TO.N,SDA*%
X75000000Y-70350000D03*
%TO.P,U1,32,NC*%
%TO.N,unconnected-(U1-Pad32)*%
X75000000Y-69080000D03*
%TO.P,U1,31,IO19*%
%TO.N,unconnected-(U1-Pad31)*%
X75000000Y-67810000D03*
%TO.P,U1,30,IO18*%
%TO.N,unconnected-(U1-Pad30)*%
X75000000Y-66540000D03*
%TO.P,U1,29,IO5*%
%TO.N,unconnected-(U1-Pad29)*%
X75000000Y-65270000D03*
%TO.P,U1,28,IO17*%
%TO.N,unconnected-(U1-Pad28)*%
X75000000Y-64000000D03*
%TO.P,U1,27,IO16*%
%TO.N,unconnected-(U1-Pad27)*%
X75000000Y-62730000D03*
%TO.P,U1,26,IO4*%
%TO.N,unconnected-(U1-Pad26)*%
X75000000Y-61460000D03*
%TO.P,U1,25,IO0*%
%TO.N,Net-(C14-Pad1)*%
X75000000Y-60190000D03*
D16*
%TO.P,U1,24,IO2*%
%TO.N,MOTOR_A11_IN*%
X78285000Y-58700000D03*
%TO.P,U1,23,IO15*%
%TO.N,MOTOR_A12_IN*%
X79555000Y-58700000D03*
%TO.P,U1,22,SD1*%
%TO.N,unconnected-(U1-Pad22)*%
X80825000Y-58700000D03*
%TO.P,U1,21,SDO*%
%TO.N,unconnected-(U1-Pad21)*%
X82095000Y-58700000D03*
%TO.P,U1,20,CLK*%
%TO.N,unconnected-(U1-Pad20)*%
X83365000Y-58700000D03*
%TO.P,U1,19,CMD*%
%TO.N,unconnected-(U1-Pad19)*%
X84635000Y-58700000D03*
%TO.P,U1,18,SD3*%
%TO.N,unconnected-(U1-Pad18)*%
X85905000Y-58700000D03*
%TO.P,U1,17,SD2*%
%TO.N,unconnected-(U1-Pad17)*%
X87175000Y-58700000D03*
%TO.P,U1,16,IO13*%
%TO.N,MOTOR_B12_IN*%
X88445000Y-58700000D03*
%TO.P,U1,15,GND*%
%TO.N,GND*%
X89715000Y-58700000D03*
D15*
%TO.P,U1,14,IO12*%
%TO.N,MOTOR_B11_IN*%
X93000000Y-60190000D03*
%TO.P,U1,13,IO14*%
%TO.N,MOTOR_B32_IN*%
X93000000Y-61460000D03*
%TO.P,U1,12,IO27*%
%TO.N,MOTOR_B31_IN*%
X93000000Y-62730000D03*
%TO.P,U1,11,IO26*%
%TO.N,MOTOR_A32_IN*%
X93000000Y-64000000D03*
%TO.P,U1,10,IO25*%
%TO.N,MOTOR_A31_IN*%
X93000000Y-65270000D03*
%TO.P,U1,9,IO33*%
%TO.N,MOTOR_B21_IN*%
X93000000Y-66540000D03*
%TO.P,U1,8,IO32*%
%TO.N,MOTOR_B22_IN*%
X93000000Y-67810000D03*
%TO.P,U1,7,IO35*%
%TO.N,MOTOR_A21_IN*%
X93000000Y-69080000D03*
%TO.P,U1,6,IO34*%
%TO.N,MOTOR_A22_IN*%
X93000000Y-70350000D03*
%TO.P,U1,5,SENSOR_VN*%
%TO.N,unconnected-(U1-Pad5)*%
X93000000Y-71620000D03*
%TO.P,U1,4,SENSOR_VP*%
%TO.N,unconnected-(U1-Pad4)*%
X93000000Y-72890000D03*
%TO.P,U1,3,EN*%
%TO.N,Net-(C7-Pad1)*%
X93000000Y-74160000D03*
%TO.P,U1,2,3V3*%
%TO.N,+3V3*%
X93000000Y-75430000D03*
%TO.P,U1,1,GND*%
%TO.N,GND*%
X93000000Y-76700000D03*
%TD*%
D10*
%TO.P,C14,1*%
%TO.N,Net-(C14-Pad1)*%
X71700000Y-59275000D03*
%TO.P,C14,2*%
%TO.N,GND*%
X71700000Y-57725000D03*
%TD*%
D11*
%TO.P,C11,1*%
%TO.N,+3V3*%
X99400000Y-79025000D03*
%TO.P,C11,2*%
%TO.N,GND*%
X99400000Y-80575000D03*
%TD*%
D17*
%TO.P,SW1,1,1*%
%TO.N,Net-(C7-Pad1)*%
X97020000Y-69820000D03*
X97020000Y-75580000D03*
%TO.P,SW1,2,2*%
%TO.N,GND*%
X101020000Y-75580000D03*
X101020000Y-69820000D03*
%TD*%
D11*
%TO.P,C3,1*%
%TO.N,VBAT*%
X88300000Y-45875000D03*
%TO.P,C3,2*%
%TO.N,GND*%
X88300000Y-47425000D03*
%TD*%
D18*
%TO.P,H4,1,1*%
%TO.N,GND*%
X61500000Y-84500000D03*
%TD*%
D19*
%TO.P,C8,1*%
%TO.N,+3V3*%
X103750000Y-50350000D03*
%TO.P,C8,2*%
%TO.N,GND*%
X105300000Y-50350000D03*
%TD*%
D20*
%TO.P,J4,1,Pin_1*%
%TO.N,TXD0*%
X63680000Y-79800000D03*
D21*
%TO.P,J4,2,Pin_2*%
%TO.N,RXD0*%
X63680000Y-77260000D03*
%TO.P,J4,3,Pin_3*%
%TO.N,GND*%
X63680000Y-74720000D03*
%TO.P,J4,4,Pin_4*%
%TO.N,+3V3*%
X63680000Y-72180000D03*
%TD*%
D11*
%TO.P,C6,2*%
%TO.N,GND*%
X76400000Y-47375000D03*
%TO.P,C6,1*%
%TO.N,MOTOR_SUPPLY*%
X76400000Y-45825000D03*
%TD*%
D18*
%TO.P,H1,1,1*%
%TO.N,GND*%
X112700000Y-36800000D03*
%TD*%
D22*
%TO.P,C15,2*%
%TO.N,GND*%
X64951992Y-62951992D03*
%TO.P,C15,1*%
%TO.N,+3V3*%
X66048008Y-64048008D03*
%TD*%
D11*
%TO.P,C5,2*%
%TO.N,GND*%
X78800000Y-47375000D03*
%TO.P,C5,1*%
%TO.N,MOTOR_SUPPLY*%
X78800000Y-45825000D03*
%TD*%
D12*
%TO.P,J3,1,Pin_1*%
%TO.N,/IO32*%
X108600000Y-69570000D03*
D13*
%TO.P,J3,2,Pin_2*%
%TO.N,/IO33*%
X108600000Y-67030000D03*
%TD*%
D11*
%TO.P,C10,1*%
%TO.N,+3V3*%
X101500000Y-79025000D03*
%TO.P,C10,2*%
%TO.N,GND*%
X101500000Y-80575000D03*
%TD*%
D18*
%TO.P,H3,1,1*%
%TO.N,GND*%
X61500000Y-36800000D03*
%TD*%
D23*
%TO.P,R1,1*%
%TO.N,+3V3*%
X103400000Y-75912500D03*
%TO.P,R1,2*%
%TO.N,Net-(C7-Pad1)*%
X103400000Y-74087500D03*
%TD*%
D24*
%TO.P,U6,1,CLKIN*%
%TO.N,unconnected-(U6-Pad1)*%
X70462742Y-67405025D03*
%TO.P,U6,2,NC*%
%TO.N,unconnected-(U6-Pad2)*%
X70109188Y-67051472D03*
%TO.P,U6,3,NC*%
%TO.N,unconnected-(U6-Pad3)*%
X69755635Y-66697918D03*
%TO.P,U6,4,NC*%
%TO.N,unconnected-(U6-Pad4)*%
X69402082Y-66344365D03*
%TO.P,U6,5,NC*%
%TO.N,unconnected-(U6-Pad5)*%
X69048528Y-65990812D03*
%TO.P,U6,6,AUX_SDA*%
%TO.N,unconnected-(U6-Pad6)*%
X68694975Y-65637258D03*
D25*
%TO.P,U6,7,AUX_SCL*%
%TO.N,unconnected-(U6-Pad7)*%
X67705025Y-65637258D03*
%TO.P,U6,8,VDDIO*%
%TO.N,+3V3*%
X67351472Y-65990812D03*
%TO.P,U6,9,AD0*%
%TO.N,unconnected-(U6-Pad9)*%
X66997918Y-66344365D03*
%TO.P,U6,10,REGOUT*%
%TO.N,Net-(C16-Pad1)*%
X66644365Y-66697918D03*
%TO.P,U6,11,FSYNC*%
%TO.N,GND*%
X66290812Y-67051472D03*
%TO.P,U6,12,INT*%
%TO.N,unconnected-(U6-Pad12)*%
X65937258Y-67405025D03*
D24*
%TO.P,U6,13,VDD*%
%TO.N,+3V3*%
X65937258Y-68394975D03*
%TO.P,U6,14,NC*%
%TO.N,unconnected-(U6-Pad14)*%
X66290812Y-68748528D03*
%TO.P,U6,15,NC*%
%TO.N,unconnected-(U6-Pad15)*%
X66644365Y-69102082D03*
%TO.P,U6,16,NC*%
%TO.N,unconnected-(U6-Pad16)*%
X66997918Y-69455635D03*
%TO.P,U6,17,NC*%
%TO.N,unconnected-(U6-Pad17)*%
X67351472Y-69809188D03*
%TO.P,U6,18,GND*%
%TO.N,GND*%
X67705025Y-70162742D03*
D25*
%TO.P,U6,19,NC*%
%TO.N,unconnected-(U6-Pad19)*%
X68694975Y-70162742D03*
%TO.P,U6,20,CPOUT*%
%TO.N,GND*%
X69048528Y-69809188D03*
%TO.P,U6,21,NC*%
%TO.N,unconnected-(U6-Pad21)*%
X69402082Y-69455635D03*
%TO.P,U6,22,NC*%
%TO.N,unconnected-(U6-Pad22)*%
X69755635Y-69102082D03*
%TO.P,U6,23,SCL*%
%TO.N,SCL*%
X70109188Y-68748528D03*
%TO.P,U6,24,SDA*%
%TO.N,SDA*%
X70462742Y-68394975D03*
%TD*%
D12*
%TO.P,J8,1,Pin_1*%
%TO.N,/IO14*%
X108600000Y-62170000D03*
D13*
%TO.P,J8,2,Pin_2*%
%TO.N,/IO27*%
X108600000Y-59630000D03*
%TD*%
D26*
%TO.P,SW2,2,2*%
%TO.N,GND*%
X69180000Y-55400000D03*
X63420000Y-55400000D03*
%TO.P,SW2,1,1*%
%TO.N,Net-(C14-Pad1)*%
X63420000Y-59400000D03*
X69180000Y-59400000D03*
%TD*%
D11*
%TO.P,C12,1*%
%TO.N,+3V3*%
X97300000Y-79025000D03*
%TO.P,C12,2*%
%TO.N,GND*%
X97300000Y-80575000D03*
%TD*%
D27*
%TO.P,U5,1,ADJ*%
%TO.N,GND*%
X101100000Y-46400000D03*
%TO.P,U5,2,VO*%
%TO.N,+3V3*%
X98800000Y-46400000D03*
D28*
X98800000Y-52700000D03*
D27*
%TO.P,U5,3,VI*%
%TO.N,VBAT*%
X96500000Y-46400000D03*
%TD*%
D12*
%TO.P,J5,1,Pin_1*%
%TO.N,VBAT*%
X90300000Y-39130000D03*
D13*
%TO.P,J5,2,Pin_2*%
%TO.N,GND*%
X90300000Y-41670000D03*
%TD*%
D19*
%TO.P,C9,1*%
%TO.N,+3V3*%
X103750000Y-52750000D03*
%TO.P,C9,2*%
%TO.N,GND*%
X105300000Y-52750000D03*
%TD*%
D11*
%TO.P,C2,1*%
%TO.N,VBAT*%
X90300000Y-45875000D03*
%TO.P,C2,2*%
%TO.N,GND*%
X90300000Y-47425000D03*
%TD*%
D18*
%TO.P,H2,1,1*%
%TO.N,GND*%
X112500000Y-84548970D03*
%TD*%
D29*
%TO.P,U7,1,IN*%
%TO.N,VBAT*%
X85780000Y-46400000D03*
%TO.P,U7,2,GND*%
%TO.N,GND*%
X83500000Y-46400000D03*
D30*
X83500000Y-52700000D03*
D29*
%TO.P,U7,3,OUT*%
%TO.N,MOTOR_SUPPLY*%
X81220000Y-46400000D03*
%TD*%
D22*
%TO.P,C16,2*%
%TO.N,GND*%
X63751992Y-64151992D03*
%TO.P,C16,1*%
%TO.N,Net-(C16-Pad1)*%
X64848008Y-65248008D03*
%TD*%
D13*
%TO.P,J1,2,Pin_2*%
%TO.N,/IO25*%
X65400000Y-51270000D03*
D12*
%TO.P,J1,1,Pin_1*%
%TO.N,/IO26*%
X65400000Y-48730000D03*
%TD*%
%TO.P,J6,1,Pin_1*%
%TO.N,/IO12*%
X77600000Y-40700000D03*
D13*
%TO.P,J6,2,Pin_2*%
%TO.N,/IO13*%
X75060000Y-40700000D03*
%TD*%
D11*
%TO.P,C13,1*%
%TO.N,+3V3*%
X95200000Y-79025000D03*
%TO.P,C13,2*%
%TO.N,GND*%
X95200000Y-80575000D03*
%TD*%
D31*
%TO.N,+3V3*%
X102500000Y-64800000D03*
%TO.N,GND*%
X72700000Y-56100000D03*
%TO.N,+3V3*%
X67100000Y-63000000D03*
%TO.N,GND*%
X69900000Y-71000000D03*
X66700000Y-71200000D03*
X64400000Y-66900000D03*
X62700000Y-63200000D03*
X64000000Y-62000000D03*
%TO.N,+3V3*%
X64900000Y-69400000D03*
%TO.N,SCL*%
X71100000Y-70200000D03*
%TO.N,GND*%
X69200000Y-56800000D03*
X63400000Y-56900000D03*
X72700000Y-76700000D03*
%TO.N,SCL*%
X72000000Y-74200000D03*
%TO.N,GND*%
X85500000Y-72200000D03*
X90900000Y-70700000D03*
X78600000Y-51500000D03*
X87800000Y-52800000D03*
%TO.N,+3V3*%
X76800000Y-49600000D03*
X93200000Y-80200000D03*
%TO.N,/IO14*%
X104600000Y-78200000D03*
%TO.N,/IO27*%
X104800000Y-75800000D03*
%TO.N,GND*%
X77000000Y-68300000D03*
X77800000Y-66100000D03*
%TO.N,+3V3*%
X79900000Y-71200000D03*
%TO.N,GND*%
X89800000Y-56200000D03*
%TO.N,MOTOR_A32_IN*%
X87800000Y-69800000D03*
%TO.N,MOTOR_A31_IN*%
X88200000Y-71100000D03*
%TO.N,GND*%
X90300000Y-76700000D03*
X99300000Y-75600000D03*
%TO.N,MOTOR_B31_IN*%
X87100000Y-63100000D03*
%TO.N,MOTOR_B32_IN*%
X85500000Y-62100000D03*
%TO.N,GND*%
X76700000Y-56300000D03*
%TO.N,MOTOR_B11_IN*%
X88700000Y-61000000D03*
%TO.N,MOTOR_B12_IN*%
X86800000Y-61300000D03*
%TO.N,MOTOR_SUPPLY*%
X81200000Y-44300000D03*
%TO.N,MOTOR_A12_IN*%
X79500000Y-56500000D03*
%TO.N,MOTOR_A11_IN*%
X78300000Y-56500000D03*
%TO.N,GND*%
X96800000Y-62800000D03*
%TO.N,MOTOR_A22_IN*%
X94993750Y-70400000D03*
%TO.N,MOTOR_A21_IN*%
X95093750Y-69100000D03*
%TO.N,MOTOR_B22_IN*%
X95093750Y-67800000D03*
%TO.N,MOTOR_B21_IN*%
X94993750Y-66500000D03*
%TO.N,GND*%
X98900000Y-68100000D03*
X101093750Y-67400000D03*
X105300000Y-49000000D03*
X105300000Y-54200000D03*
X74900000Y-47400000D03*
X83500000Y-44300000D03*
%TO.N,+3V3*%
X103700000Y-54200000D03*
%TO.N,GND*%
X94100000Y-48850000D03*
X88300000Y-48850000D03*
X97300000Y-82500000D03*
X99400000Y-82500000D03*
X95200000Y-82600000D03*
X90300000Y-48850000D03*
X92300000Y-48850000D03*
X103000000Y-46450000D03*
X101400000Y-82500000D03*
%TD*%
D32*
%TO.N,RXD0*%
X72660000Y-71620000D02*
X67020000Y-77260000D01*
%TO.N,TXD0*%
X72284695Y-72890000D02*
X65374695Y-79800000D01*
%TO.N,RXD0*%
X63680000Y-77260000D02*
X67020000Y-77260000D01*
%TO.N,TXD0*%
X65374695Y-79800000D02*
X63680000Y-79800000D01*
X75000000Y-72890000D02*
X72284695Y-72890000D01*
%TO.N,RXD0*%
X75000000Y-71620000D02*
X72660000Y-71620000D01*
%TO.N,GND*%
X101020000Y-67473750D02*
X101093750Y-67400000D01*
X101020000Y-69820000D02*
X101020000Y-67473750D01*
%TO.N,MOTOR_A22_IN*%
X93050000Y-70400000D02*
X93000000Y-70350000D01*
X94993750Y-70400000D02*
X93050000Y-70400000D01*
%TO.N,MOTOR_A21_IN*%
X93020000Y-69100000D02*
X93000000Y-69080000D01*
X95093750Y-69100000D02*
X93020000Y-69100000D01*
%TO.N,MOTOR_B22_IN*%
X93010000Y-67800000D02*
X93000000Y-67810000D01*
X95093750Y-67800000D02*
X93010000Y-67800000D01*
%TO.N,MOTOR_B21_IN*%
X93040000Y-66500000D02*
X93000000Y-66540000D01*
X94993750Y-66500000D02*
X93040000Y-66500000D01*
%TO.N,GND*%
X71700000Y-57100000D02*
X72700000Y-56100000D01*
X71700000Y-57725000D02*
X71700000Y-57100000D01*
D33*
%TO.N,Net-(C14-Pad1)*%
X72375000Y-59275000D02*
X71700000Y-59275000D01*
X73290000Y-60190000D02*
X72375000Y-59275000D01*
X75000000Y-60190000D02*
X73290000Y-60190000D01*
D32*
%TO.N,+3V3*%
X66051992Y-64048008D02*
X67100000Y-63000000D01*
X66048008Y-64048008D02*
X66051992Y-64048008D01*
X66048008Y-64722703D02*
X66048008Y-64048008D01*
X67316117Y-65990812D02*
X66048008Y-64722703D01*
X67351472Y-65990812D02*
X67316117Y-65990812D01*
%TO.N,GND*%
X69900000Y-70660660D02*
X69900000Y-71000000D01*
X69048528Y-69809188D02*
X69900000Y-70660660D01*
X67705025Y-70194975D02*
X66700000Y-71200000D01*
X67705025Y-70162742D02*
X67705025Y-70194975D01*
X64595495Y-66704505D02*
X64400000Y-66900000D01*
X65943845Y-66704505D02*
X64595495Y-66704505D01*
X66290812Y-67051472D02*
X65943845Y-66704505D01*
X63651992Y-64151992D02*
X62700000Y-63200000D01*
X63751992Y-64151992D02*
X63651992Y-64151992D01*
X64951992Y-62951992D02*
X64000000Y-62000000D01*
%TO.N,Net-(C16-Pad1)*%
X65800000Y-66200000D02*
X64848008Y-65248008D01*
X66146447Y-66200000D02*
X65800000Y-66200000D01*
X66644365Y-66697918D02*
X66146447Y-66200000D01*
%TO.N,+3V3*%
X65905025Y-68394975D02*
X64900000Y-69400000D01*
X65937258Y-68394975D02*
X65905025Y-68394975D01*
%TO.N,SCL*%
X71100000Y-69774695D02*
X71100000Y-70200000D01*
X70109188Y-68783883D02*
X71100000Y-69774695D01*
X70109188Y-68748528D02*
X70109188Y-68783883D01*
%TO.N,SDA*%
X75000000Y-70350000D02*
X72417767Y-70350000D01*
X72417767Y-70350000D02*
X70462742Y-68394975D01*
%TO.N,GND*%
X69180000Y-56780000D02*
X69200000Y-56800000D01*
X69180000Y-55400000D02*
X69180000Y-56780000D01*
X63420000Y-56880000D02*
X63400000Y-56900000D01*
X63420000Y-55400000D02*
X63420000Y-56880000D01*
%TO.N,Net-(C14-Pad1)*%
X69180000Y-59400000D02*
X71295000Y-59400000D01*
X63420000Y-59400000D02*
X69180000Y-59400000D01*
%TO.N,SCL*%
X72000000Y-74200000D02*
X72040000Y-74160000D01*
X72040000Y-74160000D02*
X75000000Y-74160000D01*
%TO.N,GND*%
X85100000Y-71800000D02*
X85500000Y-72200000D01*
X85100000Y-69500000D02*
X85100000Y-71800000D01*
D34*
%TO.N,MOTOR_SUPPLY*%
X78800000Y-45825000D02*
X76400000Y-45825000D01*
D32*
%TO.N,GND*%
X87700000Y-52700000D02*
X87800000Y-52800000D01*
X83500000Y-52700000D02*
X87700000Y-52700000D01*
D33*
%TO.N,+3V3*%
X94375000Y-79025000D02*
X93200000Y-80200000D01*
X95200000Y-79025000D02*
X94375000Y-79025000D01*
D32*
%TO.N,/IO14*%
X105800000Y-77000000D02*
X105800000Y-64970000D01*
X104600000Y-78200000D02*
X105800000Y-77000000D01*
%TO.N,/IO27*%
X104800000Y-75800000D02*
X104800000Y-61874366D01*
X104800000Y-61874366D02*
X105237183Y-61437183D01*
X105237183Y-61437183D02*
X107044366Y-59630000D01*
%TO.N,/IO14*%
X108600000Y-62170000D02*
X105800000Y-64970000D01*
%TO.N,/IO27*%
X107044366Y-59630000D02*
X108600000Y-59630000D01*
%TO.N,GND*%
X89715000Y-56285000D02*
X89800000Y-56200000D01*
X89715000Y-58700000D02*
X89715000Y-56285000D01*
%TO.N,MOTOR_A32_IN*%
X89900000Y-65000000D02*
X90900000Y-64000000D01*
X89900000Y-67700000D02*
X89900000Y-65000000D01*
X87800000Y-69800000D02*
X89900000Y-67700000D01*
X90900000Y-64000000D02*
X93000000Y-64000000D01*
%TO.N,MOTOR_A31_IN*%
X88200000Y-71100000D02*
X90700000Y-68600000D01*
X90700000Y-68600000D02*
X90700000Y-68400000D01*
X91530000Y-65270000D02*
X93000000Y-65270000D01*
X90700000Y-68400000D02*
X90700000Y-66100000D01*
X90700000Y-66100000D02*
X91530000Y-65270000D01*
%TO.N,MOTOR_B31_IN*%
X90300000Y-63000000D02*
X90570000Y-62730000D01*
X90570000Y-62730000D02*
X93000000Y-62730000D01*
X87200000Y-63000000D02*
X90300000Y-63000000D01*
X87100000Y-63100000D02*
X87200000Y-63000000D01*
%TO.N,MOTOR_B32_IN*%
X89740000Y-61460000D02*
X93000000Y-61460000D01*
X89100000Y-62100000D02*
X89740000Y-61460000D01*
X85500000Y-62100000D02*
X89100000Y-62100000D01*
%TO.N,MOTOR_B11_IN*%
X90910000Y-60190000D02*
X93000000Y-60190000D01*
X88700000Y-61000000D02*
X90100000Y-61000000D01*
X90100000Y-61000000D02*
X90910000Y-60190000D01*
%TO.N,MOTOR_B12_IN*%
X88445000Y-59655000D02*
X88445000Y-58700000D01*
X86800000Y-61300000D02*
X88445000Y-59655000D01*
D34*
%TO.N,MOTOR_SUPPLY*%
X81220000Y-44320000D02*
X81200000Y-44300000D01*
X81220000Y-46400000D02*
X81220000Y-44320000D01*
D32*
%TO.N,MOTOR_A12_IN*%
X79500000Y-58645000D02*
X79555000Y-58700000D01*
X79500000Y-56500000D02*
X79500000Y-58645000D01*
%TO.N,MOTOR_A11_IN*%
X78300000Y-56500000D02*
X78300000Y-58685000D01*
D34*
%TO.N,VBAT*%
X93730000Y-39130000D02*
X90300000Y-39130000D01*
X96500000Y-41900000D02*
X93730000Y-39130000D01*
X96500000Y-46400000D02*
X96500000Y-41900000D01*
D32*
%TO.N,GND*%
X105300000Y-50350000D02*
X105300000Y-49000000D01*
X105300000Y-52750000D02*
X105300000Y-54200000D01*
X105300000Y-50350000D02*
X105300000Y-52750000D01*
D34*
X74925000Y-47375000D02*
X74900000Y-47400000D01*
X76400000Y-47375000D02*
X74925000Y-47375000D01*
D32*
X83500000Y-46400000D02*
X83500000Y-44300000D01*
D34*
%TO.N,VBAT*%
X95975000Y-45875000D02*
X96500000Y-46400000D01*
X94100000Y-45875000D02*
X95975000Y-45875000D01*
%TO.N,+3V3*%
X103750000Y-54150000D02*
X103700000Y-54200000D01*
X103750000Y-52750000D02*
X103750000Y-54150000D01*
%TO.N,VBAT*%
X88300000Y-45875000D02*
X86305000Y-45875000D01*
X86305000Y-45875000D02*
X85780000Y-46400000D01*
%TO.N,MOTOR_SUPPLY*%
X80620000Y-45800000D02*
X81220000Y-46400000D01*
X78700000Y-45800000D02*
X80620000Y-45800000D01*
%TO.N,+3V3*%
X103750000Y-52750000D02*
X103750000Y-50350000D01*
X103700000Y-52700000D02*
X103750000Y-52750000D01*
X98800000Y-52700000D02*
X103700000Y-52700000D01*
D33*
X103400000Y-77900000D02*
X103400000Y-75912500D01*
X102275000Y-79025000D02*
X103400000Y-77900000D01*
X101500000Y-79025000D02*
X102275000Y-79025000D01*
D32*
%TO.N,Net-(C7-Pad1)*%
X94860000Y-74160000D02*
X93000000Y-74160000D01*
X96280000Y-75580000D02*
X94860000Y-74160000D01*
X97020000Y-75580000D02*
X96280000Y-75580000D01*
X98600000Y-74700000D02*
X97720000Y-75580000D01*
X97720000Y-75580000D02*
X97020000Y-75580000D01*
X98600000Y-74000000D02*
X98600000Y-74700000D01*
X98600000Y-74000000D02*
X100425000Y-72175000D01*
X103400000Y-72175000D02*
X100425000Y-72175000D01*
%TO.N,GND*%
X102595000Y-69820000D02*
X103400000Y-70625000D01*
X101020000Y-69820000D02*
X102595000Y-69820000D01*
X99320000Y-75580000D02*
X99300000Y-75600000D01*
X101020000Y-75580000D02*
X99320000Y-75580000D01*
D33*
%TO.N,+3V3*%
X95200000Y-75800000D02*
X94830000Y-75430000D01*
X94830000Y-75430000D02*
X93000000Y-75430000D01*
X95200000Y-79025000D02*
X95200000Y-75800000D01*
D32*
%TO.N,GND*%
X94100000Y-47425000D02*
X94100000Y-48850000D01*
X63420000Y-55300000D02*
X69180000Y-55300000D01*
X88300000Y-47425000D02*
X88300000Y-48850000D01*
D33*
X93000000Y-76700000D02*
X90300000Y-76700000D01*
D34*
X78800000Y-47375000D02*
X76400000Y-47375000D01*
X101100000Y-46400000D02*
X102950000Y-46400000D01*
D32*
X75000000Y-76700000D02*
X72700000Y-76700000D01*
D33*
X99400000Y-80575000D02*
X99400000Y-82500000D01*
D32*
X92300000Y-47450000D02*
X92300000Y-48850000D01*
D33*
X101500000Y-80575000D02*
X101500000Y-82400000D01*
X95200000Y-80575000D02*
X95200000Y-82600000D01*
X101500000Y-82400000D02*
X101400000Y-82500000D01*
X97300000Y-80575000D02*
X97300000Y-82500000D01*
D32*
X90300000Y-47425000D02*
X90300000Y-48850000D01*
D34*
X102950000Y-46400000D02*
X103000000Y-46450000D01*
%TO.N,+3V3*%
X98800000Y-46400000D02*
X98800000Y-52700000D01*
D33*
X95200000Y-79025000D02*
X101500000Y-79025000D01*
%TO.N,Net-(C7-Pad1)*%
X97020000Y-75580000D02*
X97020000Y-69820000D01*
X103400000Y-72143750D02*
X103400000Y-74056250D01*
D34*
%TO.N,VBAT*%
X88300000Y-45875000D02*
X94100000Y-45875000D01*
%TD*%
M02*
