%TF.GenerationSoftware,KiCad,Pcbnew,(6.0.8)*%
%TF.CreationDate,2023-02-13T22:42:50-05:00*%
%TF.ProjectId,miura_board,6d697572-615f-4626-9f61-72642e6b6963,rev?*%
%TF.SameCoordinates,Original*%
%TF.FileFunction,Copper,L2,Inr*%
%TF.FilePolarity,Positive*%
%FSLAX46Y46*%
G04 Gerber Fmt 4.6, Leading zero omitted, Abs format (unit mm)*
G04 Created by KiCad (PCBNEW (6.0.8)) date 2023-02-13 22:42:50*
%MOMM*%
%LPD*%
G01*
G04 APERTURE LIST*
%TA.AperFunction,ComponentPad*%
%ADD10C,3.800000*%
%TD*%
%TA.AperFunction,ComponentPad*%
%ADD11R,1.000000X1.000000*%
%TD*%
%TA.AperFunction,ComponentPad*%
%ADD12O,1.000000X1.000000*%
%TD*%
%TA.AperFunction,ComponentPad*%
%ADD13O,1.000000X2.100000*%
%TD*%
%TA.AperFunction,ComponentPad*%
%ADD14O,1.000000X1.600000*%
%TD*%
%TA.AperFunction,ViaPad*%
%ADD15C,0.800000*%
%TD*%
G04 APERTURE END LIST*
D10*
%TO.N,GND*%
%TO.C,H1*%
X112760000Y-36760000D03*
%TD*%
D11*
%TO.N,+3V3*%
%TO.C,J3*%
X95250000Y-82600000D03*
D12*
%TO.N,MOTOR_SUPPLY*%
X93980000Y-82600000D03*
%TO.N,GND*%
X92710000Y-82600000D03*
%TO.N,SCL*%
X91440000Y-82600000D03*
%TO.N,SDA*%
X90170000Y-82600000D03*
%TD*%
D10*
%TO.N,GND*%
%TO.C,H3*%
X61460000Y-84530000D03*
%TD*%
%TO.N,GND*%
%TO.C,H2*%
X61540000Y-36810000D03*
%TD*%
%TO.N,GND*%
%TO.C,H4*%
X112510000Y-84560000D03*
%TD*%
D13*
%TO.N,GND*%
%TO.C,USB1*%
X106820000Y-77305000D03*
D14*
X98180000Y-81485000D03*
D13*
X98180000Y-77305000D03*
D14*
X106820000Y-81485000D03*
%TD*%
D11*
%TO.N,+3V3*%
%TO.C,J2*%
X63500000Y-74850000D03*
D12*
%TO.N,MOTOR_SUPPLY*%
X63500000Y-73580000D03*
%TO.N,GND*%
X63500000Y-72310000D03*
%TO.N,SCL*%
X63500000Y-71040000D03*
%TO.N,SDA*%
X63500000Y-69770000D03*
%TD*%
D15*
%TO.N,GND*%
X66600000Y-76400000D03*
X64500000Y-57000000D03*
X98580000Y-43830000D03*
X93700000Y-43800000D03*
X105772500Y-40440000D03*
X95250000Y-51500000D03*
X76630000Y-47940000D03*
X99300000Y-64500000D03*
X71100000Y-65300000D03*
X93260000Y-51450000D03*
X104200000Y-66400000D03*
X90100000Y-55400000D03*
X73400000Y-50990000D03*
X64100000Y-60800000D03*
X102330000Y-50620000D03*
X89300000Y-66000000D03*
X81900000Y-54000000D03*
X92800000Y-53100000D03*
X110700000Y-77500000D03*
X89900000Y-78100000D03*
X109400000Y-70200000D03*
X92110000Y-46370000D03*
X99000000Y-74800000D03*
X111072500Y-45840000D03*
X83600000Y-56000000D03*
X109400000Y-72600000D03*
X110800000Y-81400000D03*
X75000000Y-61600000D03*
%TO.N,+3V3*%
X86100000Y-56900000D03*
X103004500Y-74500000D03*
X106400000Y-74100000D03*
X90600000Y-57800000D03*
X91700000Y-70200000D03*
X78300000Y-50800000D03*
%TO.N,TXD0*%
X97000000Y-71200000D03*
X74200000Y-72400000D03*
%TO.N,RXD0*%
X96500000Y-70200000D03*
X74190000Y-71190000D03*
%TO.N,MOTOR_SUPPLY*%
X103400000Y-57300000D03*
%TO.N,SDA*%
X73300000Y-69900000D03*
%TO.N,SCL*%
X84400000Y-65200000D03*
%TO.N,CS*%
X71400000Y-63600000D03*
%TO.N,SCLK*%
X65000000Y-63900000D03*
%TO.N,MISO*%
X64900000Y-65800000D03*
%TO.N,MOSI*%
X63400000Y-63000000D03*
%TO.N,VBUS*%
X103750000Y-73750000D03*
X100000000Y-73900000D03*
%TO.N,unconnected-(C7-Pad2)*%
X96700000Y-68100000D03*
%TD*%
%TA.AperFunction,Conductor*%
%TO.N,GND*%
G36*
X61609382Y-34975016D02*
G01*
X61710759Y-34981530D01*
X61728611Y-34983968D01*
X61960471Y-35032730D01*
X61977792Y-35037690D01*
X62200333Y-35119026D01*
X62216770Y-35126405D01*
X62294442Y-35168186D01*
X62425430Y-35238648D01*
X62440631Y-35248286D01*
X62631161Y-35389151D01*
X62644840Y-35400865D01*
X62813320Y-35567456D01*
X62825192Y-35581006D01*
X62842129Y-35603382D01*
X62948618Y-35744067D01*
X62957647Y-35759304D01*
X62962199Y-35766498D01*
X62965875Y-35774688D01*
X62971701Y-35781516D01*
X63000618Y-35815406D01*
X63005568Y-35821591D01*
X63163985Y-36032813D01*
X64098972Y-37279461D01*
X64177541Y-37384220D01*
X64183301Y-37392582D01*
X64208776Y-37432958D01*
X64225890Y-37448072D01*
X64248702Y-37468219D01*
X64254358Y-37473533D01*
X64292048Y-37511198D01*
X64299924Y-37515506D01*
X64305442Y-37519639D01*
X64311223Y-37523436D01*
X64317951Y-37529378D01*
X64366173Y-37552018D01*
X64373083Y-37555526D01*
X64419836Y-37581101D01*
X64428598Y-37583024D01*
X64435064Y-37585446D01*
X64441677Y-37587468D01*
X64449800Y-37591281D01*
X64502446Y-37599478D01*
X64510075Y-37600908D01*
X64562106Y-37612329D01*
X64613688Y-37608795D01*
X64622300Y-37608500D01*
X78966225Y-37608500D01*
X79034346Y-37628502D01*
X79080839Y-37682158D01*
X79092225Y-37734356D01*
X79101491Y-45832677D01*
X79101489Y-45833591D01*
X79101024Y-45909721D01*
X79103490Y-45918351D01*
X79103491Y-45918355D01*
X79109249Y-45938501D01*
X79112807Y-45955120D01*
X79113624Y-45960775D01*
X79117085Y-45984751D01*
X79120809Y-45992916D01*
X79127589Y-46007783D01*
X79134095Y-46025437D01*
X79138582Y-46041136D01*
X79138585Y-46041142D01*
X79141051Y-46049771D01*
X79145841Y-46057363D01*
X79145842Y-46057365D01*
X79157025Y-46075090D01*
X79165101Y-46090037D01*
X79172645Y-46106576D01*
X79177525Y-46117277D01*
X79183393Y-46124071D01*
X79194066Y-46136429D01*
X79205271Y-46151554D01*
X79213984Y-46165364D01*
X79213987Y-46165367D01*
X79218776Y-46172958D01*
X79225504Y-46178900D01*
X79241212Y-46192773D01*
X79253163Y-46204857D01*
X79272730Y-46227513D01*
X79293996Y-46241263D01*
X79308973Y-46252618D01*
X79327951Y-46269378D01*
X79355046Y-46282099D01*
X79369899Y-46290338D01*
X79395049Y-46306599D01*
X79419321Y-46313828D01*
X79436892Y-46320526D01*
X79459800Y-46331281D01*
X79489374Y-46335886D01*
X79505951Y-46339627D01*
X79534647Y-46348173D01*
X79562697Y-46348312D01*
X79568960Y-46348343D01*
X79569532Y-46348367D01*
X79570386Y-46348500D01*
X79600303Y-46348500D01*
X79600928Y-46348502D01*
X79677009Y-46348880D01*
X79677014Y-46348880D01*
X79680303Y-46348896D01*
X79681415Y-46348577D01*
X79682531Y-46348500D01*
X86700303Y-46348500D01*
X86700928Y-46348502D01*
X86780303Y-46348896D01*
X86808375Y-46340838D01*
X86825274Y-46337220D01*
X86834599Y-46335885D01*
X86845299Y-46334353D01*
X86845301Y-46334352D01*
X86854187Y-46333080D01*
X86862359Y-46329365D01*
X86862364Y-46329363D01*
X86877898Y-46322300D01*
X86895283Y-46315892D01*
X86920307Y-46308709D01*
X86944987Y-46293097D01*
X86960193Y-46284882D01*
X86978605Y-46276511D01*
X86978611Y-46276507D01*
X86986782Y-46272792D01*
X86993581Y-46266933D01*
X86993585Y-46266931D01*
X87006509Y-46255794D01*
X87021401Y-46244762D01*
X87035821Y-46235641D01*
X87035824Y-46235638D01*
X87043405Y-46230843D01*
X87049334Y-46224114D01*
X87049339Y-46224110D01*
X87062719Y-46208925D01*
X87075002Y-46196777D01*
X87097127Y-46177713D01*
X87102010Y-46170180D01*
X87102015Y-46170174D01*
X87111295Y-46155857D01*
X87122486Y-46141095D01*
X87133765Y-46128294D01*
X87133766Y-46128293D01*
X87139700Y-46121558D01*
X87152083Y-46095103D01*
X87160458Y-46080005D01*
X87176352Y-46055485D01*
X87178924Y-46046886D01*
X87178926Y-46046881D01*
X87183815Y-46030534D01*
X87190413Y-46013224D01*
X87197648Y-45997767D01*
X87197648Y-45997766D01*
X87201453Y-45989638D01*
X87205913Y-45960774D01*
X87209716Y-45943920D01*
X87218086Y-45915934D01*
X87218297Y-45881390D01*
X87218340Y-45880362D01*
X87218545Y-45879032D01*
X87218509Y-45847336D01*
X87218511Y-45846424D01*
X87218948Y-45774851D01*
X87218976Y-45770279D01*
X87218525Y-45768703D01*
X87218417Y-45767127D01*
X87211668Y-39868542D01*
X87209226Y-37734643D01*
X87229150Y-37666501D01*
X87282753Y-37619946D01*
X87335226Y-37608500D01*
X109568421Y-37608500D01*
X109580771Y-37609107D01*
X109613695Y-37612350D01*
X109613697Y-37612350D01*
X109622633Y-37613230D01*
X109680443Y-37602332D01*
X109685920Y-37601424D01*
X109744187Y-37593080D01*
X109752289Y-37589397D01*
X109753729Y-37589051D01*
X109755647Y-37588444D01*
X109757026Y-37587897D01*
X109765769Y-37586249D01*
X109773764Y-37582180D01*
X109773766Y-37582179D01*
X109818221Y-37559552D01*
X109823182Y-37557163D01*
X109876782Y-37532792D01*
X109883524Y-37526983D01*
X109884808Y-37526248D01*
X109886472Y-37525132D01*
X109887646Y-37524216D01*
X109895580Y-37520178D01*
X109902117Y-37514023D01*
X109902120Y-37514021D01*
X109938418Y-37479845D01*
X109942543Y-37476129D01*
X109980326Y-37443573D01*
X109987127Y-37437713D01*
X110012154Y-37399101D01*
X110018426Y-37390279D01*
X110019976Y-37388287D01*
X111074233Y-36032813D01*
X111363230Y-35661246D01*
X111380069Y-35643471D01*
X111381671Y-35642080D01*
X111381673Y-35642078D01*
X111388448Y-35636194D01*
X111393301Y-35628642D01*
X111396837Y-35623140D01*
X111412539Y-35603382D01*
X111557116Y-35454824D01*
X111570387Y-35442986D01*
X111754628Y-35300667D01*
X111769425Y-35290821D01*
X111971886Y-35175847D01*
X111987910Y-35168189D01*
X112204529Y-35082868D01*
X112221494Y-35077535D01*
X112388678Y-35037690D01*
X112447953Y-35023563D01*
X112465499Y-35020671D01*
X112697311Y-34999118D01*
X112715078Y-34998725D01*
X112869420Y-35006223D01*
X112947625Y-35010022D01*
X112965282Y-35012137D01*
X113009706Y-35020671D01*
X113193900Y-35056056D01*
X113211079Y-35060634D01*
X113431252Y-35136307D01*
X113447619Y-35143259D01*
X113654937Y-35249169D01*
X113670160Y-35258354D01*
X113860511Y-35392403D01*
X113874280Y-35403632D01*
X114043869Y-35563149D01*
X114055925Y-35576212D01*
X114201359Y-35758005D01*
X114211460Y-35772640D01*
X114329852Y-35973097D01*
X114337792Y-35989009D01*
X114426783Y-36204133D01*
X114432404Y-36221005D01*
X114490222Y-36446517D01*
X114493412Y-36464011D01*
X114518907Y-36695418D01*
X114519602Y-36713188D01*
X114512264Y-36945876D01*
X114510451Y-36963564D01*
X114474134Y-37171672D01*
X114470428Y-37192906D01*
X114466143Y-37210160D01*
X114406257Y-37394553D01*
X114394229Y-37431589D01*
X114387557Y-37448071D01*
X114307128Y-37612350D01*
X114285188Y-37657163D01*
X114276263Y-37672539D01*
X114231550Y-37738385D01*
X114145477Y-37865139D01*
X114134475Y-37879107D01*
X114091586Y-37926288D01*
X113977874Y-38051378D01*
X113965013Y-38063660D01*
X113785718Y-38212169D01*
X113771273Y-38222507D01*
X113644933Y-38300054D01*
X113600777Y-38327157D01*
X113583225Y-38335376D01*
X113576915Y-38338563D01*
X113568411Y-38341432D01*
X113506248Y-38384870D01*
X113505535Y-38385365D01*
X112239586Y-39255704D01*
X111923064Y-39473313D01*
X111918916Y-39476046D01*
X111867042Y-39508776D01*
X111843467Y-39535470D01*
X111840451Y-39538885D01*
X111831389Y-39548140D01*
X111816801Y-39561582D01*
X111801840Y-39575367D01*
X111794085Y-39588252D01*
X111780573Y-39606684D01*
X111770622Y-39617951D01*
X111766808Y-39626074D01*
X111766807Y-39626076D01*
X111753549Y-39654315D01*
X111747451Y-39665738D01*
X111726731Y-39700166D01*
X111722902Y-39714716D01*
X111715110Y-39736187D01*
X111708719Y-39749800D01*
X111707338Y-39758670D01*
X111707336Y-39758676D01*
X111702536Y-39789500D01*
X111699890Y-39802172D01*
X111691950Y-39832349D01*
X111691949Y-39832355D01*
X111689667Y-39841029D01*
X111689911Y-39850000D01*
X111691453Y-39906681D01*
X111691500Y-39910107D01*
X111691500Y-81590437D01*
X111691460Y-81593604D01*
X111689790Y-81660026D01*
X111692093Y-81668706D01*
X111698927Y-81694465D01*
X111701868Y-81708913D01*
X111706920Y-81744187D01*
X111710636Y-81752360D01*
X111710637Y-81752363D01*
X111715035Y-81762035D01*
X111722119Y-81781869D01*
X111727145Y-81800811D01*
X111731787Y-81808488D01*
X111731790Y-81808495D01*
X111745579Y-81831299D01*
X111752457Y-81844342D01*
X111763489Y-81868604D01*
X111763491Y-81868608D01*
X111767208Y-81876782D01*
X111780005Y-81891634D01*
X111792366Y-81908675D01*
X111802512Y-81925455D01*
X111828771Y-81949550D01*
X111839029Y-81960133D01*
X111862287Y-81987127D01*
X111922652Y-82026255D01*
X111923939Y-82027101D01*
X113048479Y-82776793D01*
X113658459Y-83183446D01*
X113661415Y-83185696D01*
X113663800Y-83188443D01*
X113676726Y-83196750D01*
X113696566Y-83212533D01*
X113848049Y-83360238D01*
X113860017Y-83373706D01*
X114004330Y-83561618D01*
X114014251Y-83576651D01*
X114130293Y-83783235D01*
X114137962Y-83799517D01*
X114223350Y-84020533D01*
X114228625Y-84037761D01*
X114281615Y-84268688D01*
X114284379Y-84286493D01*
X114303889Y-84522622D01*
X114304085Y-84540637D01*
X114289719Y-84777127D01*
X114287344Y-84794986D01*
X114239391Y-85027027D01*
X114234496Y-85044352D01*
X114233880Y-85046056D01*
X114153940Y-85267171D01*
X114146619Y-85283633D01*
X114035109Y-85492682D01*
X114025514Y-85507932D01*
X114012763Y-85525307D01*
X113885323Y-85698945D01*
X113873659Y-85712662D01*
X113707653Y-85881730D01*
X113694149Y-85893645D01*
X113505736Y-86037300D01*
X113490664Y-86047172D01*
X113387175Y-86104830D01*
X113304579Y-86150847D01*
X113283686Y-86162487D01*
X113267359Y-86170108D01*
X113046055Y-86254720D01*
X113028810Y-86259935D01*
X112797686Y-86312121D01*
X112779899Y-86314819D01*
X112543685Y-86333508D01*
X112525679Y-86333641D01*
X112289229Y-86318449D01*
X112271380Y-86316011D01*
X112039520Y-86267251D01*
X112022201Y-86262293D01*
X111799665Y-86180961D01*
X111783228Y-86173582D01*
X111770773Y-86166882D01*
X111574567Y-86061341D01*
X111559359Y-86051698D01*
X111368834Y-85910840D01*
X111355154Y-85899124D01*
X111186674Y-85732537D01*
X111174801Y-85718986D01*
X111166217Y-85707645D01*
X111097588Y-85616980D01*
X111051387Y-85555944D01*
X111042325Y-85540652D01*
X111037798Y-85533498D01*
X111034122Y-85525307D01*
X111011033Y-85498248D01*
X111002044Y-85486354D01*
X110028410Y-84025903D01*
X110026686Y-84023246D01*
X109996014Y-83974634D01*
X109991224Y-83967042D01*
X109964521Y-83943459D01*
X109954056Y-83933065D01*
X109936272Y-83913202D01*
X109936270Y-83913200D01*
X109930287Y-83906518D01*
X109913632Y-83896167D01*
X109896737Y-83883594D01*
X109888777Y-83876564D01*
X109882049Y-83870622D01*
X109849799Y-83855481D01*
X109836842Y-83848444D01*
X109814203Y-83834374D01*
X109814196Y-83834371D01*
X109806574Y-83829634D01*
X109787687Y-83824375D01*
X109767942Y-83817049D01*
X109759478Y-83813075D01*
X109758324Y-83812533D01*
X109758322Y-83812532D01*
X109750200Y-83808719D01*
X109714991Y-83803237D01*
X109700584Y-83800120D01*
X109666255Y-83790561D01*
X109594400Y-83791489D01*
X109592773Y-83791500D01*
X96046592Y-83791500D01*
X95978471Y-83771498D01*
X95931978Y-83717842D01*
X95921874Y-83647568D01*
X95951368Y-83582988D01*
X95986082Y-83554981D01*
X95988304Y-83553764D01*
X95996705Y-83550615D01*
X96113261Y-83463261D01*
X96200615Y-83346705D01*
X96251745Y-83210316D01*
X96258500Y-83148134D01*
X96258500Y-82051866D01*
X96251745Y-81989684D01*
X96200615Y-81853295D01*
X96113261Y-81736739D01*
X95996705Y-81649385D01*
X95860316Y-81598255D01*
X95798134Y-81591500D01*
X94701866Y-81591500D01*
X94639684Y-81598255D01*
X94503295Y-81649385D01*
X94496116Y-81654766D01*
X94488237Y-81659079D01*
X94487023Y-81656861D01*
X94433072Y-81677018D01*
X94376127Y-81667654D01*
X94372701Y-81665802D01*
X94183768Y-81607318D01*
X94177643Y-81606674D01*
X94177642Y-81606674D01*
X93993204Y-81587289D01*
X93993202Y-81587289D01*
X93987075Y-81586645D01*
X93910608Y-81593604D01*
X93796251Y-81604011D01*
X93796248Y-81604012D01*
X93790112Y-81604570D01*
X93784206Y-81606308D01*
X93784202Y-81606309D01*
X93687581Y-81634746D01*
X93600381Y-81660410D01*
X93594923Y-81663263D01*
X93594919Y-81663265D01*
X93521590Y-81701601D01*
X93425110Y-81752040D01*
X93270975Y-81875968D01*
X93143846Y-82027474D01*
X93140879Y-82032872D01*
X93140875Y-82032877D01*
X93062918Y-82174682D01*
X93048567Y-82200787D01*
X93046706Y-82206654D01*
X93046705Y-82206656D01*
X92998098Y-82359884D01*
X92988765Y-82389306D01*
X92966719Y-82585851D01*
X92983268Y-82782934D01*
X93037783Y-82973050D01*
X93040602Y-82978535D01*
X93124890Y-83142540D01*
X93128187Y-83148956D01*
X93251035Y-83303953D01*
X93255728Y-83307947D01*
X93255729Y-83307948D01*
X93386051Y-83418860D01*
X93401650Y-83432136D01*
X93574294Y-83528624D01*
X93580157Y-83530529D01*
X93626747Y-83545667D01*
X93685353Y-83585740D01*
X93712991Y-83651136D01*
X93700885Y-83721093D01*
X93652879Y-83773400D01*
X93587812Y-83791500D01*
X91842038Y-83791500D01*
X91773917Y-83771498D01*
X91727424Y-83717842D01*
X91717320Y-83647568D01*
X91746814Y-83582988D01*
X91796476Y-83548026D01*
X91800522Y-83546457D01*
X91806463Y-83544798D01*
X91957227Y-83468642D01*
X91977495Y-83458404D01*
X91977497Y-83458403D01*
X91982996Y-83455625D01*
X92138847Y-83333861D01*
X92252269Y-83202460D01*
X92264049Y-83188813D01*
X92264050Y-83188811D01*
X92268078Y-83184145D01*
X92365769Y-83012179D01*
X92428197Y-82824513D01*
X92452985Y-82628295D01*
X92453380Y-82600000D01*
X92434080Y-82403167D01*
X92376916Y-82213831D01*
X92284066Y-82039204D01*
X92196245Y-81931525D01*
X92162960Y-81890713D01*
X92162957Y-81890710D01*
X92159065Y-81885938D01*
X92152724Y-81880692D01*
X92011425Y-81763799D01*
X92011421Y-81763797D01*
X92006675Y-81759870D01*
X91832701Y-81665802D01*
X91643768Y-81607318D01*
X91637643Y-81606674D01*
X91637642Y-81606674D01*
X91453204Y-81587289D01*
X91453202Y-81587289D01*
X91447075Y-81586645D01*
X91370608Y-81593604D01*
X91256251Y-81604011D01*
X91256248Y-81604012D01*
X91250112Y-81604570D01*
X91244206Y-81606308D01*
X91244202Y-81606309D01*
X91147581Y-81634746D01*
X91060381Y-81660410D01*
X91054923Y-81663263D01*
X91054919Y-81663265D01*
X90981590Y-81701601D01*
X90885110Y-81752040D01*
X90880310Y-81755900D01*
X90875153Y-81759274D01*
X90873769Y-81757158D01*
X90818365Y-81780027D01*
X90748512Y-81767334D01*
X90738898Y-81761709D01*
X90736675Y-81759870D01*
X90562701Y-81665802D01*
X90373768Y-81607318D01*
X90367643Y-81606674D01*
X90367642Y-81606674D01*
X90183204Y-81587289D01*
X90183202Y-81587289D01*
X90177075Y-81586645D01*
X90100608Y-81593604D01*
X89986251Y-81604011D01*
X89986248Y-81604012D01*
X89980112Y-81604570D01*
X89974206Y-81606308D01*
X89974202Y-81606309D01*
X89877581Y-81634746D01*
X89790381Y-81660410D01*
X89784923Y-81663263D01*
X89784919Y-81663265D01*
X89711590Y-81701601D01*
X89615110Y-81752040D01*
X89460975Y-81875968D01*
X89333846Y-82027474D01*
X89330879Y-82032872D01*
X89330875Y-82032877D01*
X89252918Y-82174682D01*
X89238567Y-82200787D01*
X89236706Y-82206654D01*
X89236705Y-82206656D01*
X89188098Y-82359884D01*
X89178765Y-82389306D01*
X89156719Y-82585851D01*
X89173268Y-82782934D01*
X89227783Y-82973050D01*
X89230602Y-82978535D01*
X89314890Y-83142540D01*
X89318187Y-83148956D01*
X89441035Y-83303953D01*
X89445728Y-83307947D01*
X89445729Y-83307948D01*
X89576051Y-83418860D01*
X89591650Y-83432136D01*
X89764294Y-83528624D01*
X89770157Y-83530529D01*
X89816747Y-83545667D01*
X89875353Y-83585740D01*
X89902991Y-83651136D01*
X89890885Y-83721093D01*
X89842879Y-83773400D01*
X89777812Y-83791500D01*
X64640366Y-83791500D01*
X64624527Y-83790500D01*
X64591684Y-83786338D01*
X64565635Y-83790500D01*
X64524813Y-83797022D01*
X64522797Y-83797327D01*
X64489462Y-83802101D01*
X64455813Y-83806920D01*
X64451992Y-83808657D01*
X64447851Y-83809319D01*
X64386629Y-83838360D01*
X64384874Y-83839175D01*
X64331205Y-83863576D01*
X64331199Y-83863579D01*
X64323218Y-83867208D01*
X64320039Y-83869947D01*
X64316249Y-83871745D01*
X64309704Y-83877572D01*
X64309697Y-83877577D01*
X64265697Y-83916748D01*
X64264166Y-83918089D01*
X64219676Y-83956425D01*
X64212873Y-83962287D01*
X64207988Y-83969824D01*
X64192729Y-83993364D01*
X64184261Y-84004929D01*
X63757926Y-84522622D01*
X62841336Y-85635624D01*
X62826693Y-85650655D01*
X62818338Y-85657910D01*
X62818336Y-85657913D01*
X62811560Y-85663797D01*
X62806707Y-85671348D01*
X62806703Y-85671353D01*
X62803255Y-85676718D01*
X62787472Y-85696558D01*
X62639768Y-85848040D01*
X62626301Y-85860007D01*
X62567098Y-85905473D01*
X62438393Y-86004314D01*
X62423356Y-86014238D01*
X62216786Y-86130270D01*
X62200487Y-86137948D01*
X61979474Y-86223334D01*
X61962261Y-86228604D01*
X61731324Y-86281594D01*
X61713528Y-86284356D01*
X61477402Y-86303866D01*
X61459387Y-86304062D01*
X61275330Y-86292881D01*
X61222901Y-86289696D01*
X61205042Y-86287321D01*
X61187100Y-86283613D01*
X60973010Y-86239369D01*
X60955678Y-86234472D01*
X60768724Y-86166882D01*
X60732863Y-86153917D01*
X60716405Y-86146598D01*
X60507351Y-86035084D01*
X60492117Y-86025500D01*
X60301100Y-85885305D01*
X60287384Y-85873642D01*
X60118319Y-85707639D01*
X60106404Y-85694135D01*
X59962751Y-85505726D01*
X59952879Y-85490654D01*
X59837566Y-85283681D01*
X59829945Y-85267355D01*
X59745334Y-85046056D01*
X59740119Y-85028810D01*
X59687933Y-84797696D01*
X59685232Y-84779882D01*
X59666546Y-84543704D01*
X59666412Y-84525688D01*
X59681602Y-84289244D01*
X59684040Y-84271392D01*
X59732798Y-84039538D01*
X59737757Y-84022217D01*
X59775812Y-83918089D01*
X59819087Y-83799681D01*
X59826461Y-83783255D01*
X59938696Y-83574601D01*
X59948343Y-83559384D01*
X60022998Y-83458404D01*
X60089201Y-83368858D01*
X60100912Y-83355183D01*
X60267498Y-83186700D01*
X60281047Y-83174829D01*
X60311826Y-83151531D01*
X60444220Y-83051313D01*
X60458924Y-83042600D01*
X60458921Y-83042596D01*
X60466508Y-83037795D01*
X60474698Y-83034119D01*
X60494569Y-83017163D01*
X60509570Y-83006166D01*
X62007933Y-82069689D01*
X62008801Y-82069226D01*
X62009771Y-82068949D01*
X62078493Y-82025589D01*
X62100467Y-82011855D01*
X62101007Y-82011399D01*
X62101336Y-82011176D01*
X62117203Y-82001165D01*
X62132958Y-81991224D01*
X62140853Y-81982285D01*
X62143322Y-81979488D01*
X62150340Y-81971542D01*
X62163525Y-81958651D01*
X62183602Y-81941712D01*
X62188563Y-81934230D01*
X62188566Y-81934226D01*
X62199620Y-81917553D01*
X62210193Y-81903772D01*
X62223438Y-81888775D01*
X62223439Y-81888774D01*
X62229378Y-81882049D01*
X62240540Y-81858276D01*
X62249579Y-81842200D01*
X62264090Y-81820313D01*
X62272683Y-81792627D01*
X62278963Y-81776435D01*
X62291281Y-81750200D01*
X62295321Y-81724251D01*
X62299483Y-81706288D01*
X62307270Y-81681203D01*
X62307847Y-81646181D01*
X62308007Y-81642776D01*
X62308500Y-81639614D01*
X62308500Y-81607673D01*
X62308517Y-81605595D01*
X62309524Y-81544539D01*
X62309672Y-81535565D01*
X62308728Y-81532127D01*
X62308500Y-81528507D01*
X62308500Y-77788198D01*
X98772892Y-77788198D01*
X98773249Y-77795015D01*
X98773249Y-77795019D01*
X98778151Y-77888539D01*
X98782370Y-77969047D01*
X98784181Y-77975620D01*
X98784181Y-77975623D01*
X98807551Y-78060466D01*
X98830461Y-78143641D01*
X98914922Y-78303836D01*
X98919327Y-78309049D01*
X98919330Y-78309053D01*
X99027406Y-78436943D01*
X99027410Y-78436947D01*
X99031813Y-78442157D01*
X99037237Y-78446304D01*
X99037238Y-78446305D01*
X99170257Y-78548006D01*
X99170261Y-78548009D01*
X99175678Y-78552150D01*
X99262372Y-78592576D01*
X99333631Y-78625805D01*
X99333634Y-78625806D01*
X99339808Y-78628685D01*
X99346456Y-78630171D01*
X99346459Y-78630172D01*
X99452421Y-78653857D01*
X99516543Y-78668190D01*
X99522088Y-78668500D01*
X99655244Y-78668500D01*
X99790037Y-78653857D01*
X99908190Y-78614094D01*
X99955204Y-78598272D01*
X99955206Y-78598271D01*
X99961675Y-78596094D01*
X100116905Y-78502823D01*
X100121862Y-78498135D01*
X100121865Y-78498133D01*
X100243527Y-78383082D01*
X100243529Y-78383080D01*
X100248485Y-78378393D01*
X100252317Y-78372755D01*
X100252320Y-78372751D01*
X100346442Y-78234255D01*
X100350277Y-78228612D01*
X100417530Y-78060466D01*
X100418644Y-78053738D01*
X100418645Y-78053734D01*
X100445993Y-77888539D01*
X100445993Y-77888536D01*
X100447108Y-77881802D01*
X100442203Y-77788198D01*
X104552892Y-77788198D01*
X104553249Y-77795015D01*
X104553249Y-77795019D01*
X104558151Y-77888539D01*
X104562370Y-77969047D01*
X104564181Y-77975620D01*
X104564181Y-77975623D01*
X104587551Y-78060466D01*
X104610461Y-78143641D01*
X104694922Y-78303836D01*
X104699327Y-78309049D01*
X104699330Y-78309053D01*
X104807406Y-78436943D01*
X104807410Y-78436947D01*
X104811813Y-78442157D01*
X104817237Y-78446304D01*
X104817238Y-78446305D01*
X104950257Y-78548006D01*
X104950261Y-78548009D01*
X104955678Y-78552150D01*
X105042372Y-78592576D01*
X105113631Y-78625805D01*
X105113634Y-78625806D01*
X105119808Y-78628685D01*
X105126456Y-78630171D01*
X105126459Y-78630172D01*
X105232421Y-78653857D01*
X105296543Y-78668190D01*
X105302088Y-78668500D01*
X105435244Y-78668500D01*
X105570037Y-78653857D01*
X105688190Y-78614094D01*
X105735204Y-78598272D01*
X105735206Y-78598271D01*
X105741675Y-78596094D01*
X105896905Y-78502823D01*
X105901862Y-78498135D01*
X105901865Y-78498133D01*
X106023527Y-78383082D01*
X106023529Y-78383080D01*
X106028485Y-78378393D01*
X106032317Y-78372755D01*
X106032320Y-78372751D01*
X106126442Y-78234255D01*
X106130277Y-78228612D01*
X106197530Y-78060466D01*
X106198644Y-78053738D01*
X106198645Y-78053734D01*
X106225993Y-77888539D01*
X106225993Y-77888536D01*
X106227108Y-77881802D01*
X106222203Y-77788198D01*
X106217987Y-77707766D01*
X106217630Y-77700953D01*
X106194304Y-77616266D01*
X106171352Y-77532941D01*
X106169539Y-77526359D01*
X106085078Y-77366164D01*
X106080673Y-77360951D01*
X106080670Y-77360947D01*
X105972594Y-77233057D01*
X105972590Y-77233053D01*
X105968187Y-77227843D01*
X105962762Y-77223695D01*
X105829743Y-77121994D01*
X105829739Y-77121991D01*
X105824322Y-77117850D01*
X105719186Y-77068825D01*
X105666369Y-77044195D01*
X105666366Y-77044194D01*
X105660192Y-77041315D01*
X105653544Y-77039829D01*
X105653541Y-77039828D01*
X105488494Y-77002936D01*
X105488495Y-77002936D01*
X105483457Y-77001810D01*
X105477912Y-77001500D01*
X105344756Y-77001500D01*
X105209963Y-77016143D01*
X105126609Y-77044195D01*
X105044796Y-77071728D01*
X105044794Y-77071729D01*
X105038325Y-77073906D01*
X104883095Y-77167177D01*
X104878138Y-77171865D01*
X104878135Y-77171867D01*
X104823329Y-77223695D01*
X104751515Y-77291607D01*
X104747683Y-77297245D01*
X104747680Y-77297249D01*
X104696740Y-77372205D01*
X104649723Y-77441388D01*
X104582470Y-77609534D01*
X104581356Y-77616262D01*
X104581355Y-77616266D01*
X104554007Y-77781461D01*
X104552892Y-77788198D01*
X100442203Y-77788198D01*
X100437987Y-77707766D01*
X100437630Y-77700953D01*
X100414304Y-77616266D01*
X100391352Y-77532941D01*
X100389539Y-77526359D01*
X100305078Y-77366164D01*
X100300673Y-77360951D01*
X100300670Y-77360947D01*
X100192594Y-77233057D01*
X100192590Y-77233053D01*
X100188187Y-77227843D01*
X100182762Y-77223695D01*
X100049743Y-77121994D01*
X100049739Y-77121991D01*
X100044322Y-77117850D01*
X99939186Y-77068825D01*
X99886369Y-77044195D01*
X99886366Y-77044194D01*
X99880192Y-77041315D01*
X99873544Y-77039829D01*
X99873541Y-77039828D01*
X99708494Y-77002936D01*
X99708495Y-77002936D01*
X99703457Y-77001810D01*
X99697912Y-77001500D01*
X99564756Y-77001500D01*
X99429963Y-77016143D01*
X99346609Y-77044195D01*
X99264796Y-77071728D01*
X99264794Y-77071729D01*
X99258325Y-77073906D01*
X99103095Y-77167177D01*
X99098138Y-77171865D01*
X99098135Y-77171867D01*
X99043329Y-77223695D01*
X98971515Y-77291607D01*
X98967683Y-77297245D01*
X98967680Y-77297249D01*
X98916740Y-77372205D01*
X98869723Y-77441388D01*
X98802470Y-77609534D01*
X98801356Y-77616262D01*
X98801355Y-77616266D01*
X98774007Y-77781461D01*
X98772892Y-77788198D01*
X62308500Y-77788198D01*
X62308500Y-75646592D01*
X62328502Y-75578471D01*
X62382158Y-75531978D01*
X62452432Y-75521874D01*
X62517012Y-75551368D01*
X62545019Y-75586082D01*
X62546236Y-75588304D01*
X62549385Y-75596705D01*
X62636739Y-75713261D01*
X62753295Y-75800615D01*
X62889684Y-75851745D01*
X62951866Y-75858500D01*
X64048134Y-75858500D01*
X64110316Y-75851745D01*
X64246705Y-75800615D01*
X64363261Y-75713261D01*
X64450615Y-75596705D01*
X64501745Y-75460316D01*
X64508500Y-75398134D01*
X64508500Y-74301866D01*
X64501745Y-74239684D01*
X64450615Y-74103295D01*
X64445229Y-74096109D01*
X64440921Y-74088240D01*
X64442942Y-74087133D01*
X64422506Y-74032443D01*
X64428621Y-73983606D01*
X64456433Y-73900000D01*
X99086496Y-73900000D01*
X99087186Y-73906565D01*
X99100741Y-74035530D01*
X99106458Y-74089928D01*
X99165473Y-74271556D01*
X99168776Y-74277278D01*
X99168777Y-74277279D01*
X99184086Y-74303794D01*
X99260960Y-74436944D01*
X99265378Y-74441851D01*
X99265379Y-74441852D01*
X99357176Y-74543803D01*
X99388747Y-74578866D01*
X99543248Y-74691118D01*
X99549276Y-74693802D01*
X99549278Y-74693803D01*
X99593191Y-74713354D01*
X99717712Y-74768794D01*
X99783365Y-74782749D01*
X99898056Y-74807128D01*
X99898061Y-74807128D01*
X99904513Y-74808500D01*
X100095487Y-74808500D01*
X100101939Y-74807128D01*
X100101944Y-74807128D01*
X100216635Y-74782749D01*
X100282288Y-74768794D01*
X100406809Y-74713354D01*
X100450722Y-74693803D01*
X100450724Y-74693802D01*
X100456752Y-74691118D01*
X100611253Y-74578866D01*
X100642824Y-74543803D01*
X100682264Y-74500000D01*
X102090996Y-74500000D01*
X102091686Y-74506565D01*
X102103626Y-74620164D01*
X102110958Y-74689928D01*
X102169973Y-74871556D01*
X102265460Y-75036944D01*
X102393247Y-75178866D01*
X102547748Y-75291118D01*
X102553776Y-75293802D01*
X102553778Y-75293803D01*
X102716181Y-75366109D01*
X102722212Y-75368794D01*
X102815613Y-75388647D01*
X102902556Y-75407128D01*
X102902561Y-75407128D01*
X102909013Y-75408500D01*
X103099987Y-75408500D01*
X103106439Y-75407128D01*
X103106444Y-75407128D01*
X103193387Y-75388647D01*
X103286788Y-75368794D01*
X103292819Y-75366109D01*
X103455222Y-75293803D01*
X103455224Y-75293802D01*
X103461252Y-75291118D01*
X103615753Y-75178866D01*
X103743540Y-75036944D01*
X103839027Y-74871556D01*
X103890431Y-74713353D01*
X103930503Y-74654748D01*
X103984062Y-74629045D01*
X104032288Y-74618794D01*
X104132999Y-74573955D01*
X104200722Y-74543803D01*
X104200724Y-74543802D01*
X104206752Y-74541118D01*
X104361253Y-74428866D01*
X104462306Y-74316635D01*
X104484621Y-74291852D01*
X104484622Y-74291851D01*
X104489040Y-74286944D01*
X104584527Y-74121556D01*
X104591531Y-74100000D01*
X105486496Y-74100000D01*
X105487186Y-74106565D01*
X105505129Y-74277279D01*
X105506458Y-74289928D01*
X105565473Y-74471556D01*
X105660960Y-74636944D01*
X105665378Y-74641851D01*
X105665379Y-74641852D01*
X105779678Y-74768794D01*
X105788747Y-74778866D01*
X105943248Y-74891118D01*
X105949276Y-74893802D01*
X105949278Y-74893803D01*
X106111681Y-74966109D01*
X106117712Y-74968794D01*
X106211113Y-74988647D01*
X106298056Y-75007128D01*
X106298061Y-75007128D01*
X106304513Y-75008500D01*
X106495487Y-75008500D01*
X106501939Y-75007128D01*
X106501944Y-75007128D01*
X106588887Y-74988647D01*
X106682288Y-74968794D01*
X106688319Y-74966109D01*
X106850722Y-74893803D01*
X106850724Y-74893802D01*
X106856752Y-74891118D01*
X107011253Y-74778866D01*
X107020322Y-74768794D01*
X107134621Y-74641852D01*
X107134622Y-74641851D01*
X107139040Y-74636944D01*
X107234527Y-74471556D01*
X107293542Y-74289928D01*
X107294872Y-74277279D01*
X107312814Y-74106565D01*
X107313504Y-74100000D01*
X107293542Y-73910072D01*
X107234527Y-73728444D01*
X107139040Y-73563056D01*
X107130701Y-73553794D01*
X107015675Y-73426045D01*
X107015674Y-73426044D01*
X107011253Y-73421134D01*
X106856752Y-73308882D01*
X106850724Y-73306198D01*
X106850722Y-73306197D01*
X106688319Y-73233891D01*
X106688318Y-73233891D01*
X106682288Y-73231206D01*
X106588887Y-73211353D01*
X106501944Y-73192872D01*
X106501939Y-73192872D01*
X106495487Y-73191500D01*
X106304513Y-73191500D01*
X106298061Y-73192872D01*
X106298056Y-73192872D01*
X106211113Y-73211353D01*
X106117712Y-73231206D01*
X106111682Y-73233891D01*
X106111681Y-73233891D01*
X105949278Y-73306197D01*
X105949276Y-73306198D01*
X105943248Y-73308882D01*
X105788747Y-73421134D01*
X105784326Y-73426044D01*
X105784325Y-73426045D01*
X105669300Y-73553794D01*
X105660960Y-73563056D01*
X105565473Y-73728444D01*
X105506458Y-73910072D01*
X105486496Y-74100000D01*
X104591531Y-74100000D01*
X104643542Y-73939928D01*
X104655512Y-73826045D01*
X104662814Y-73756565D01*
X104663504Y-73750000D01*
X104658648Y-73703794D01*
X104644232Y-73566635D01*
X104644232Y-73566633D01*
X104643542Y-73560072D01*
X104584527Y-73378444D01*
X104489040Y-73213056D01*
X104466833Y-73188392D01*
X104365675Y-73076045D01*
X104365674Y-73076044D01*
X104361253Y-73071134D01*
X104206752Y-72958882D01*
X104200724Y-72956198D01*
X104200722Y-72956197D01*
X104038319Y-72883891D01*
X104038318Y-72883891D01*
X104032288Y-72881206D01*
X103935778Y-72860692D01*
X103851944Y-72842872D01*
X103851939Y-72842872D01*
X103845487Y-72841500D01*
X103654513Y-72841500D01*
X103648061Y-72842872D01*
X103648056Y-72842872D01*
X103564222Y-72860692D01*
X103467712Y-72881206D01*
X103461682Y-72883891D01*
X103461681Y-72883891D01*
X103299278Y-72956197D01*
X103299276Y-72956198D01*
X103293248Y-72958882D01*
X103138747Y-73071134D01*
X103134326Y-73076044D01*
X103134325Y-73076045D01*
X103033168Y-73188392D01*
X103010960Y-73213056D01*
X102915473Y-73378444D01*
X102868595Y-73522721D01*
X102864070Y-73536646D01*
X102823997Y-73595252D01*
X102770438Y-73620955D01*
X102722212Y-73631206D01*
X102716183Y-73633890D01*
X102716184Y-73633890D01*
X102553778Y-73706197D01*
X102553776Y-73706198D01*
X102547748Y-73708882D01*
X102393247Y-73821134D01*
X102388826Y-73826044D01*
X102388825Y-73826045D01*
X102286285Y-73939928D01*
X102265460Y-73963056D01*
X102169973Y-74128444D01*
X102110958Y-74310072D01*
X102110268Y-74316633D01*
X102110268Y-74316635D01*
X102094646Y-74465271D01*
X102090996Y-74500000D01*
X100682264Y-74500000D01*
X100734621Y-74441852D01*
X100734622Y-74441851D01*
X100739040Y-74436944D01*
X100815914Y-74303794D01*
X100831223Y-74277279D01*
X100831224Y-74277278D01*
X100834527Y-74271556D01*
X100893542Y-74089928D01*
X100899260Y-74035530D01*
X100912814Y-73906565D01*
X100913504Y-73900000D01*
X100895473Y-73728444D01*
X100894232Y-73716635D01*
X100894232Y-73716633D01*
X100893542Y-73710072D01*
X100834527Y-73528444D01*
X100739040Y-73363056D01*
X100682416Y-73300168D01*
X100615675Y-73226045D01*
X100615674Y-73226044D01*
X100611253Y-73221134D01*
X100456752Y-73108882D01*
X100450724Y-73106198D01*
X100450722Y-73106197D01*
X100288319Y-73033891D01*
X100288318Y-73033891D01*
X100282288Y-73031206D01*
X100188888Y-73011353D01*
X100101944Y-72992872D01*
X100101939Y-72992872D01*
X100095487Y-72991500D01*
X99904513Y-72991500D01*
X99898061Y-72992872D01*
X99898056Y-72992872D01*
X99811112Y-73011353D01*
X99717712Y-73031206D01*
X99711682Y-73033891D01*
X99711681Y-73033891D01*
X99549278Y-73106197D01*
X99549276Y-73106198D01*
X99543248Y-73108882D01*
X99388747Y-73221134D01*
X99384326Y-73226044D01*
X99384325Y-73226045D01*
X99317585Y-73300168D01*
X99260960Y-73363056D01*
X99165473Y-73528444D01*
X99106458Y-73710072D01*
X99105768Y-73716633D01*
X99105768Y-73716635D01*
X99104527Y-73728444D01*
X99086496Y-73900000D01*
X64456433Y-73900000D01*
X64482668Y-73821134D01*
X64488197Y-73804513D01*
X64512985Y-73608295D01*
X64513380Y-73580000D01*
X64494080Y-73383167D01*
X64489735Y-73368774D01*
X64445159Y-73221134D01*
X64436916Y-73193831D01*
X64344066Y-73019204D01*
X64272313Y-72931226D01*
X64222960Y-72870713D01*
X64222957Y-72870710D01*
X64219065Y-72865938D01*
X64212724Y-72860692D01*
X64071425Y-72743799D01*
X64071421Y-72743797D01*
X64066675Y-72739870D01*
X63892701Y-72645802D01*
X63703768Y-72587318D01*
X63697643Y-72586674D01*
X63697642Y-72586674D01*
X63513204Y-72567289D01*
X63513202Y-72567289D01*
X63507075Y-72566645D01*
X63424576Y-72574153D01*
X63316251Y-72584011D01*
X63316248Y-72584012D01*
X63310112Y-72584570D01*
X63304206Y-72586308D01*
X63304202Y-72586309D01*
X63199076Y-72617249D01*
X63120381Y-72640410D01*
X63114923Y-72643263D01*
X63114919Y-72643265D01*
X63024147Y-72690720D01*
X62945110Y-72732040D01*
X62790975Y-72855968D01*
X62663846Y-73007474D01*
X62660879Y-73012872D01*
X62660875Y-73012877D01*
X62627298Y-73073955D01*
X62568567Y-73180787D01*
X62566706Y-73186654D01*
X62566705Y-73186656D01*
X62554602Y-73224810D01*
X62514938Y-73283694D01*
X62449736Y-73311786D01*
X62379697Y-73300168D01*
X62327057Y-73252529D01*
X62308500Y-73186711D01*
X62308500Y-71440233D01*
X62328502Y-71372112D01*
X62382158Y-71325619D01*
X62452432Y-71315515D01*
X62517012Y-71345009D01*
X62553162Y-71401655D01*
X62553816Y-71401396D01*
X62555154Y-71404775D01*
X62555619Y-71405504D01*
X62556082Y-71407120D01*
X62556084Y-71407125D01*
X62557783Y-71413050D01*
X62560602Y-71418535D01*
X62639245Y-71571556D01*
X62648187Y-71588956D01*
X62771035Y-71743953D01*
X62775728Y-71747947D01*
X62775729Y-71747948D01*
X62909703Y-71861968D01*
X62921650Y-71872136D01*
X63094294Y-71968624D01*
X63282392Y-72029740D01*
X63478777Y-72053158D01*
X63484912Y-72052686D01*
X63484914Y-72052686D01*
X63669830Y-72038457D01*
X63669834Y-72038456D01*
X63675972Y-72037984D01*
X63866463Y-71984798D01*
X63871967Y-71982018D01*
X63871969Y-71982017D01*
X64037495Y-71898404D01*
X64037497Y-71898403D01*
X64042996Y-71895625D01*
X64198847Y-71773861D01*
X64328078Y-71624145D01*
X64425769Y-71452179D01*
X64488197Y-71264513D01*
X64512985Y-71068295D01*
X64513380Y-71040000D01*
X64494080Y-70843167D01*
X64491533Y-70834729D01*
X64448984Y-70693803D01*
X64436916Y-70653831D01*
X64344066Y-70479204D01*
X64340167Y-70474424D01*
X64339715Y-70473743D01*
X64318676Y-70405935D01*
X64335105Y-70341775D01*
X64347570Y-70319834D01*
X64368759Y-70282534D01*
X64422723Y-70187542D01*
X64422725Y-70187537D01*
X64425769Y-70182179D01*
X64488197Y-69994513D01*
X64500137Y-69900000D01*
X72386496Y-69900000D01*
X72387186Y-69906565D01*
X72396430Y-69994513D01*
X72406458Y-70089928D01*
X72465473Y-70271556D01*
X72468776Y-70277278D01*
X72468777Y-70277279D01*
X72502686Y-70336010D01*
X72560960Y-70436944D01*
X72565378Y-70441851D01*
X72565379Y-70441852D01*
X72627761Y-70511134D01*
X72688747Y-70578866D01*
X72843248Y-70691118D01*
X72849276Y-70693802D01*
X72849278Y-70693803D01*
X73011681Y-70766109D01*
X73017712Y-70768794D01*
X73145541Y-70795965D01*
X73198062Y-70807129D01*
X73198064Y-70807129D01*
X73199645Y-70807465D01*
X73199647Y-70807466D01*
X73204513Y-70808500D01*
X73204324Y-70809390D01*
X73264746Y-70834252D01*
X73305374Y-70892476D01*
X73308074Y-70963421D01*
X73305747Y-70971484D01*
X73298498Y-70993792D01*
X73298498Y-70993794D01*
X73296458Y-71000072D01*
X73295768Y-71006633D01*
X73295768Y-71006635D01*
X73289235Y-71068794D01*
X73276496Y-71190000D01*
X73277186Y-71196565D01*
X73295637Y-71372112D01*
X73296458Y-71379928D01*
X73355473Y-71561556D01*
X73358776Y-71567278D01*
X73358777Y-71567279D01*
X73388514Y-71618784D01*
X73450960Y-71726944D01*
X73453038Y-71729252D01*
X73476461Y-71794900D01*
X73459785Y-71865091D01*
X73365473Y-72028444D01*
X73306458Y-72210072D01*
X73286496Y-72400000D01*
X73287186Y-72406565D01*
X73304079Y-72567289D01*
X73306458Y-72589928D01*
X73365473Y-72771556D01*
X73460960Y-72936944D01*
X73465378Y-72941851D01*
X73465379Y-72941852D01*
X73510082Y-72991500D01*
X73588747Y-73078866D01*
X73635402Y-73112763D01*
X73737107Y-73186656D01*
X73743248Y-73191118D01*
X73749276Y-73193802D01*
X73749278Y-73193803D01*
X73839318Y-73233891D01*
X73917712Y-73268794D01*
X73987811Y-73283694D01*
X74098056Y-73307128D01*
X74098061Y-73307128D01*
X74104513Y-73308500D01*
X74295487Y-73308500D01*
X74301939Y-73307128D01*
X74301944Y-73307128D01*
X74412189Y-73283694D01*
X74482288Y-73268794D01*
X74560682Y-73233891D01*
X74650722Y-73193803D01*
X74650724Y-73193802D01*
X74656752Y-73191118D01*
X74662894Y-73186656D01*
X74764598Y-73112763D01*
X74811253Y-73078866D01*
X74889918Y-72991500D01*
X74934621Y-72941852D01*
X74934622Y-72941851D01*
X74939040Y-72936944D01*
X75034527Y-72771556D01*
X75093542Y-72589928D01*
X75095922Y-72567289D01*
X75112814Y-72406565D01*
X75113504Y-72400000D01*
X75093542Y-72210072D01*
X75034527Y-72028444D01*
X75009328Y-71984798D01*
X74942340Y-71868771D01*
X74942338Y-71868768D01*
X74939040Y-71863056D01*
X74936962Y-71860748D01*
X74913539Y-71795100D01*
X74930215Y-71724909D01*
X75021223Y-71567279D01*
X75021224Y-71567278D01*
X75024527Y-71561556D01*
X75083542Y-71379928D01*
X75084364Y-71372112D01*
X75102814Y-71196565D01*
X75103504Y-71190000D01*
X75090765Y-71068794D01*
X75084232Y-71006635D01*
X75084232Y-71006633D01*
X75083542Y-71000072D01*
X75024527Y-70818444D01*
X74929040Y-70653056D01*
X74923278Y-70646656D01*
X74805675Y-70516045D01*
X74805674Y-70516044D01*
X74801253Y-70511134D01*
X74646752Y-70398882D01*
X74640724Y-70396198D01*
X74640722Y-70396197D01*
X74478319Y-70323891D01*
X74478318Y-70323891D01*
X74472288Y-70321206D01*
X74338489Y-70292766D01*
X74291938Y-70282871D01*
X74291936Y-70282871D01*
X74290355Y-70282535D01*
X74290353Y-70282534D01*
X74285487Y-70281500D01*
X74285676Y-70280610D01*
X74225254Y-70255748D01*
X74186354Y-70200000D01*
X90786496Y-70200000D01*
X90787186Y-70206565D01*
X90799898Y-70327509D01*
X90806458Y-70389928D01*
X90865473Y-70571556D01*
X90960960Y-70736944D01*
X90965378Y-70741851D01*
X90965379Y-70741852D01*
X91084325Y-70873955D01*
X91088747Y-70878866D01*
X91187843Y-70950864D01*
X91205127Y-70963421D01*
X91243248Y-70991118D01*
X91249276Y-70993802D01*
X91249278Y-70993803D01*
X91353039Y-71040000D01*
X91417712Y-71068794D01*
X91511113Y-71088647D01*
X91598056Y-71107128D01*
X91598061Y-71107128D01*
X91604513Y-71108500D01*
X91795487Y-71108500D01*
X91801939Y-71107128D01*
X91801944Y-71107128D01*
X91888887Y-71088647D01*
X91982288Y-71068794D01*
X92046961Y-71040000D01*
X92150722Y-70993803D01*
X92150724Y-70993802D01*
X92156752Y-70991118D01*
X92194874Y-70963421D01*
X92212157Y-70950864D01*
X92311253Y-70878866D01*
X92315675Y-70873955D01*
X92434621Y-70741852D01*
X92434622Y-70741851D01*
X92439040Y-70736944D01*
X92534527Y-70571556D01*
X92593542Y-70389928D01*
X92600103Y-70327509D01*
X92612814Y-70206565D01*
X92613504Y-70200000D01*
X95586496Y-70200000D01*
X95587186Y-70206565D01*
X95599898Y-70327509D01*
X95606458Y-70389928D01*
X95665473Y-70571556D01*
X95760960Y-70736944D01*
X95765378Y-70741851D01*
X95765379Y-70741852D01*
X95884325Y-70873955D01*
X95888747Y-70878866D01*
X96005127Y-70963421D01*
X96043248Y-70991118D01*
X96041768Y-70993156D01*
X96082935Y-71036338D01*
X96096246Y-71107233D01*
X96086496Y-71200000D01*
X96087186Y-71206565D01*
X96093892Y-71270365D01*
X96106458Y-71389928D01*
X96165473Y-71571556D01*
X96168776Y-71577278D01*
X96168777Y-71577279D01*
X96175519Y-71588956D01*
X96260960Y-71736944D01*
X96388747Y-71878866D01*
X96406589Y-71891829D01*
X96536833Y-71986457D01*
X96543248Y-71991118D01*
X96549276Y-71993802D01*
X96549278Y-71993803D01*
X96711681Y-72066109D01*
X96717712Y-72068794D01*
X96811113Y-72088647D01*
X96898056Y-72107128D01*
X96898061Y-72107128D01*
X96904513Y-72108500D01*
X97095487Y-72108500D01*
X97101939Y-72107128D01*
X97101944Y-72107128D01*
X97188887Y-72088647D01*
X97282288Y-72068794D01*
X97288319Y-72066109D01*
X97450722Y-71993803D01*
X97450724Y-71993802D01*
X97456752Y-71991118D01*
X97463168Y-71986457D01*
X97593411Y-71891829D01*
X97611253Y-71878866D01*
X97739040Y-71736944D01*
X97824481Y-71588956D01*
X97831223Y-71577279D01*
X97831224Y-71577278D01*
X97834527Y-71571556D01*
X97893542Y-71389928D01*
X97906109Y-71270365D01*
X97912814Y-71206565D01*
X97913504Y-71200000D01*
X97899714Y-71068794D01*
X97894232Y-71016635D01*
X97894232Y-71016633D01*
X97893542Y-71010072D01*
X97834527Y-70828444D01*
X97828754Y-70818444D01*
X97756792Y-70693803D01*
X97739040Y-70663056D01*
X97725837Y-70648392D01*
X97615675Y-70526045D01*
X97615674Y-70526044D01*
X97611253Y-70521134D01*
X97456752Y-70408882D01*
X97458232Y-70406844D01*
X97417065Y-70363662D01*
X97403754Y-70292766D01*
X97404806Y-70282763D01*
X97413504Y-70200000D01*
X97393542Y-70010072D01*
X97334527Y-69828444D01*
X97319144Y-69801799D01*
X97242341Y-69668774D01*
X97239040Y-69663056D01*
X97111253Y-69521134D01*
X96956752Y-69408882D01*
X96950724Y-69406198D01*
X96950722Y-69406197D01*
X96788319Y-69333891D01*
X96788318Y-69333891D01*
X96782288Y-69331206D01*
X96688887Y-69311353D01*
X96601944Y-69292872D01*
X96601939Y-69292872D01*
X96595487Y-69291500D01*
X96404513Y-69291500D01*
X96398061Y-69292872D01*
X96398056Y-69292872D01*
X96311113Y-69311353D01*
X96217712Y-69331206D01*
X96211682Y-69333891D01*
X96211681Y-69333891D01*
X96049278Y-69406197D01*
X96049276Y-69406198D01*
X96043248Y-69408882D01*
X95888747Y-69521134D01*
X95760960Y-69663056D01*
X95757659Y-69668774D01*
X95680857Y-69801799D01*
X95665473Y-69828444D01*
X95606458Y-70010072D01*
X95586496Y-70200000D01*
X92613504Y-70200000D01*
X92593542Y-70010072D01*
X92534527Y-69828444D01*
X92519144Y-69801799D01*
X92442341Y-69668774D01*
X92439040Y-69663056D01*
X92311253Y-69521134D01*
X92156752Y-69408882D01*
X92150724Y-69406198D01*
X92150722Y-69406197D01*
X91988319Y-69333891D01*
X91988318Y-69333891D01*
X91982288Y-69331206D01*
X91888887Y-69311353D01*
X91801944Y-69292872D01*
X91801939Y-69292872D01*
X91795487Y-69291500D01*
X91604513Y-69291500D01*
X91598061Y-69292872D01*
X91598056Y-69292872D01*
X91511113Y-69311353D01*
X91417712Y-69331206D01*
X91411682Y-69333891D01*
X91411681Y-69333891D01*
X91249278Y-69406197D01*
X91249276Y-69406198D01*
X91243248Y-69408882D01*
X91088747Y-69521134D01*
X90960960Y-69663056D01*
X90957659Y-69668774D01*
X90880857Y-69801799D01*
X90865473Y-69828444D01*
X90806458Y-70010072D01*
X90786496Y-70200000D01*
X74186354Y-70200000D01*
X74184626Y-70197524D01*
X74181926Y-70126579D01*
X74184253Y-70118516D01*
X74191502Y-70096208D01*
X74191503Y-70096203D01*
X74193542Y-70089928D01*
X74203571Y-69994513D01*
X74212814Y-69906565D01*
X74213504Y-69900000D01*
X74193542Y-69710072D01*
X74134527Y-69528444D01*
X74039040Y-69363056D01*
X73911253Y-69221134D01*
X73756752Y-69108882D01*
X73750724Y-69106198D01*
X73750722Y-69106197D01*
X73588319Y-69033891D01*
X73588318Y-69033891D01*
X73582288Y-69031206D01*
X73488888Y-69011353D01*
X73401944Y-68992872D01*
X73401939Y-68992872D01*
X73395487Y-68991500D01*
X73204513Y-68991500D01*
X73198061Y-68992872D01*
X73198056Y-68992872D01*
X73111112Y-69011353D01*
X73017712Y-69031206D01*
X73011682Y-69033891D01*
X73011681Y-69033891D01*
X72849278Y-69106197D01*
X72849276Y-69106198D01*
X72843248Y-69108882D01*
X72688747Y-69221134D01*
X72560960Y-69363056D01*
X72465473Y-69528444D01*
X72406458Y-69710072D01*
X72386496Y-69900000D01*
X64500137Y-69900000D01*
X64512985Y-69798295D01*
X64513380Y-69770000D01*
X64494080Y-69573167D01*
X64478850Y-69522721D01*
X64444479Y-69408882D01*
X64436916Y-69383831D01*
X64344066Y-69209204D01*
X64273709Y-69122938D01*
X64222960Y-69060713D01*
X64222957Y-69060710D01*
X64219065Y-69055938D01*
X64212724Y-69050692D01*
X64071425Y-68933799D01*
X64071421Y-68933797D01*
X64066675Y-68929870D01*
X63892701Y-68835802D01*
X63703768Y-68777318D01*
X63697643Y-68776674D01*
X63697642Y-68776674D01*
X63513204Y-68757289D01*
X63513202Y-68757289D01*
X63507075Y-68756645D01*
X63424576Y-68764153D01*
X63316251Y-68774011D01*
X63316248Y-68774012D01*
X63310112Y-68774570D01*
X63304206Y-68776308D01*
X63304202Y-68776309D01*
X63199076Y-68807249D01*
X63120381Y-68830410D01*
X63114923Y-68833263D01*
X63114919Y-68833265D01*
X63024147Y-68880720D01*
X62945110Y-68922040D01*
X62790975Y-69045968D01*
X62663846Y-69197474D01*
X62660879Y-69202872D01*
X62660875Y-69202877D01*
X62612155Y-69291500D01*
X62568567Y-69370787D01*
X62566706Y-69376654D01*
X62566705Y-69376656D01*
X62554602Y-69414810D01*
X62514938Y-69473694D01*
X62449736Y-69501786D01*
X62379697Y-69490168D01*
X62327057Y-69442529D01*
X62308500Y-69376711D01*
X62308500Y-68100000D01*
X95786496Y-68100000D01*
X95806458Y-68289928D01*
X95865473Y-68471556D01*
X95960960Y-68636944D01*
X96088747Y-68778866D01*
X96243248Y-68891118D01*
X96249276Y-68893802D01*
X96249278Y-68893803D01*
X96411681Y-68966109D01*
X96417712Y-68968794D01*
X96511113Y-68988647D01*
X96598056Y-69007128D01*
X96598061Y-69007128D01*
X96604513Y-69008500D01*
X96795487Y-69008500D01*
X96801939Y-69007128D01*
X96801944Y-69007128D01*
X96888887Y-68988647D01*
X96982288Y-68968794D01*
X96988319Y-68966109D01*
X97150722Y-68893803D01*
X97150724Y-68893802D01*
X97156752Y-68891118D01*
X97311253Y-68778866D01*
X97439040Y-68636944D01*
X97534527Y-68471556D01*
X97593542Y-68289928D01*
X97613504Y-68100000D01*
X97593542Y-67910072D01*
X97534527Y-67728444D01*
X97439040Y-67563056D01*
X97311253Y-67421134D01*
X97156752Y-67308882D01*
X97150724Y-67306198D01*
X97150722Y-67306197D01*
X96988319Y-67233891D01*
X96988318Y-67233891D01*
X96982288Y-67231206D01*
X96888887Y-67211353D01*
X96801944Y-67192872D01*
X96801939Y-67192872D01*
X96795487Y-67191500D01*
X96604513Y-67191500D01*
X96598061Y-67192872D01*
X96598056Y-67192872D01*
X96511113Y-67211353D01*
X96417712Y-67231206D01*
X96411682Y-67233891D01*
X96411681Y-67233891D01*
X96249278Y-67306197D01*
X96249276Y-67306198D01*
X96243248Y-67308882D01*
X96088747Y-67421134D01*
X95960960Y-67563056D01*
X95865473Y-67728444D01*
X95806458Y-67910072D01*
X95786496Y-68100000D01*
X62308500Y-68100000D01*
X62308500Y-63376207D01*
X62328502Y-63308086D01*
X62382158Y-63261593D01*
X62452432Y-63251489D01*
X62517012Y-63280983D01*
X62554332Y-63337269D01*
X62565473Y-63371556D01*
X62660960Y-63536944D01*
X62788747Y-63678866D01*
X62943248Y-63791118D01*
X62949276Y-63793802D01*
X62949278Y-63793803D01*
X63111681Y-63866109D01*
X63117712Y-63868794D01*
X63211112Y-63888647D01*
X63298056Y-63907128D01*
X63298061Y-63907128D01*
X63304513Y-63908500D01*
X63495487Y-63908500D01*
X63501939Y-63907128D01*
X63501944Y-63907128D01*
X63588888Y-63888647D01*
X63682288Y-63868794D01*
X63688319Y-63866109D01*
X63850722Y-63793803D01*
X63850724Y-63793802D01*
X63856752Y-63791118D01*
X63862093Y-63787237D01*
X63862099Y-63787234D01*
X63888929Y-63767741D01*
X63955796Y-63743882D01*
X64024948Y-63759963D01*
X64074428Y-63810877D01*
X64088299Y-63882848D01*
X64086496Y-63900000D01*
X64106458Y-64089928D01*
X64165473Y-64271556D01*
X64260960Y-64436944D01*
X64388747Y-64578866D01*
X64543248Y-64691118D01*
X64549276Y-64693802D01*
X64549278Y-64693803D01*
X64591569Y-64712632D01*
X64645665Y-64758612D01*
X64666314Y-64826540D01*
X64646962Y-64894848D01*
X64591568Y-64942846D01*
X64449281Y-65006195D01*
X64449274Y-65006199D01*
X64443248Y-65008882D01*
X64288747Y-65121134D01*
X64160960Y-65263056D01*
X64065473Y-65428444D01*
X64006458Y-65610072D01*
X64005768Y-65616633D01*
X64005768Y-65616635D01*
X63987186Y-65793435D01*
X63986496Y-65800000D01*
X64006458Y-65989928D01*
X64065473Y-66171556D01*
X64160960Y-66336944D01*
X64288747Y-66478866D01*
X64443248Y-66591118D01*
X64449276Y-66593802D01*
X64449278Y-66593803D01*
X64611681Y-66666109D01*
X64617712Y-66668794D01*
X64711112Y-66688647D01*
X64798056Y-66707128D01*
X64798061Y-66707128D01*
X64804513Y-66708500D01*
X64995487Y-66708500D01*
X65001939Y-66707128D01*
X65001944Y-66707128D01*
X65088888Y-66688647D01*
X65182288Y-66668794D01*
X65188319Y-66666109D01*
X65350722Y-66593803D01*
X65350724Y-66593802D01*
X65356752Y-66591118D01*
X65511253Y-66478866D01*
X65639040Y-66336944D01*
X65734527Y-66171556D01*
X65793542Y-65989928D01*
X65813504Y-65800000D01*
X65812814Y-65793435D01*
X65794232Y-65616635D01*
X65794232Y-65616633D01*
X65793542Y-65610072D01*
X65734527Y-65428444D01*
X65639040Y-65263056D01*
X65582264Y-65200000D01*
X83486496Y-65200000D01*
X83487186Y-65206565D01*
X83492608Y-65258148D01*
X83506458Y-65389928D01*
X83565473Y-65571556D01*
X83660960Y-65736944D01*
X83788747Y-65878866D01*
X83943248Y-65991118D01*
X83949276Y-65993802D01*
X83949278Y-65993803D01*
X84111681Y-66066109D01*
X84117712Y-66068794D01*
X84211113Y-66088647D01*
X84298056Y-66107128D01*
X84298061Y-66107128D01*
X84304513Y-66108500D01*
X84495487Y-66108500D01*
X84501939Y-66107128D01*
X84501944Y-66107128D01*
X84588887Y-66088647D01*
X84682288Y-66068794D01*
X84688319Y-66066109D01*
X84850722Y-65993803D01*
X84850724Y-65993802D01*
X84856752Y-65991118D01*
X85011253Y-65878866D01*
X85139040Y-65736944D01*
X85234527Y-65571556D01*
X85293542Y-65389928D01*
X85307393Y-65258148D01*
X85312814Y-65206565D01*
X85313504Y-65200000D01*
X85293542Y-65010072D01*
X85234527Y-64828444D01*
X85139040Y-64663056D01*
X85011253Y-64521134D01*
X84856752Y-64408882D01*
X84850724Y-64406198D01*
X84850722Y-64406197D01*
X84688319Y-64333891D01*
X84688318Y-64333891D01*
X84682288Y-64331206D01*
X84588888Y-64311353D01*
X84501944Y-64292872D01*
X84501939Y-64292872D01*
X84495487Y-64291500D01*
X84304513Y-64291500D01*
X84298061Y-64292872D01*
X84298056Y-64292872D01*
X84211112Y-64311353D01*
X84117712Y-64331206D01*
X84111682Y-64333891D01*
X84111681Y-64333891D01*
X83949278Y-64406197D01*
X83949276Y-64406198D01*
X83943248Y-64408882D01*
X83788747Y-64521134D01*
X83660960Y-64663056D01*
X83565473Y-64828444D01*
X83506458Y-65010072D01*
X83486496Y-65200000D01*
X65582264Y-65200000D01*
X65511253Y-65121134D01*
X65356752Y-65008882D01*
X65350724Y-65006198D01*
X65350722Y-65006197D01*
X65308431Y-64987368D01*
X65254335Y-64941388D01*
X65233686Y-64873460D01*
X65253038Y-64805152D01*
X65308432Y-64757154D01*
X65450719Y-64693805D01*
X65450726Y-64693801D01*
X65456752Y-64691118D01*
X65611253Y-64578866D01*
X65739040Y-64436944D01*
X65834527Y-64271556D01*
X65893542Y-64089928D01*
X65913504Y-63900000D01*
X65893542Y-63710072D01*
X65857777Y-63600000D01*
X70486496Y-63600000D01*
X70487186Y-63606565D01*
X70503309Y-63759963D01*
X70506458Y-63789928D01*
X70565473Y-63971556D01*
X70660960Y-64136944D01*
X70788747Y-64278866D01*
X70943248Y-64391118D01*
X70949276Y-64393802D01*
X70949278Y-64393803D01*
X71033332Y-64431226D01*
X71117712Y-64468794D01*
X71211112Y-64488647D01*
X71298056Y-64507128D01*
X71298061Y-64507128D01*
X71304513Y-64508500D01*
X71495487Y-64508500D01*
X71501939Y-64507128D01*
X71501944Y-64507128D01*
X71588888Y-64488647D01*
X71682288Y-64468794D01*
X71766668Y-64431226D01*
X71850722Y-64393803D01*
X71850724Y-64393802D01*
X71856752Y-64391118D01*
X72011253Y-64278866D01*
X72139040Y-64136944D01*
X72234527Y-63971556D01*
X72293542Y-63789928D01*
X72296692Y-63759963D01*
X72312814Y-63606565D01*
X72313504Y-63600000D01*
X72312814Y-63593435D01*
X72294232Y-63416635D01*
X72294232Y-63416633D01*
X72293542Y-63410072D01*
X72234527Y-63228444D01*
X72139040Y-63063056D01*
X72011253Y-62921134D01*
X71856752Y-62808882D01*
X71850724Y-62806198D01*
X71850722Y-62806197D01*
X71688319Y-62733891D01*
X71688318Y-62733891D01*
X71682288Y-62731206D01*
X71588888Y-62711353D01*
X71501944Y-62692872D01*
X71501939Y-62692872D01*
X71495487Y-62691500D01*
X71304513Y-62691500D01*
X71298061Y-62692872D01*
X71298056Y-62692872D01*
X71211112Y-62711353D01*
X71117712Y-62731206D01*
X71111682Y-62733891D01*
X71111681Y-62733891D01*
X70949278Y-62806197D01*
X70949276Y-62806198D01*
X70943248Y-62808882D01*
X70788747Y-62921134D01*
X70660960Y-63063056D01*
X70565473Y-63228444D01*
X70506458Y-63410072D01*
X70505768Y-63416633D01*
X70505768Y-63416635D01*
X70487186Y-63593435D01*
X70486496Y-63600000D01*
X65857777Y-63600000D01*
X65834527Y-63528444D01*
X65739040Y-63363056D01*
X65647683Y-63261593D01*
X65615675Y-63226045D01*
X65615674Y-63226044D01*
X65611253Y-63221134D01*
X65456752Y-63108882D01*
X65450724Y-63106198D01*
X65450722Y-63106197D01*
X65288319Y-63033891D01*
X65288318Y-63033891D01*
X65282288Y-63031206D01*
X65166348Y-63006562D01*
X65101944Y-62992872D01*
X65101939Y-62992872D01*
X65095487Y-62991500D01*
X64904513Y-62991500D01*
X64898061Y-62992872D01*
X64898056Y-62992872D01*
X64833652Y-63006562D01*
X64717712Y-63031206D01*
X64711682Y-63033891D01*
X64711681Y-63033891D01*
X64549278Y-63106197D01*
X64549276Y-63106198D01*
X64543248Y-63108882D01*
X64537907Y-63112763D01*
X64537901Y-63112766D01*
X64511071Y-63132259D01*
X64444204Y-63156118D01*
X64375052Y-63140037D01*
X64325572Y-63089123D01*
X64311701Y-63017151D01*
X64312814Y-63006562D01*
X64313504Y-63000000D01*
X64293542Y-62810072D01*
X64234527Y-62628444D01*
X64139040Y-62463056D01*
X64011253Y-62321134D01*
X63856752Y-62208882D01*
X63850724Y-62206198D01*
X63850722Y-62206197D01*
X63688319Y-62133891D01*
X63688318Y-62133891D01*
X63682288Y-62131206D01*
X63588888Y-62111353D01*
X63501944Y-62092872D01*
X63501939Y-62092872D01*
X63495487Y-62091500D01*
X63304513Y-62091500D01*
X63298061Y-62092872D01*
X63298056Y-62092872D01*
X63211112Y-62111353D01*
X63117712Y-62131206D01*
X63111682Y-62133891D01*
X63111681Y-62133891D01*
X62949278Y-62206197D01*
X62949276Y-62206198D01*
X62943248Y-62208882D01*
X62788747Y-62321134D01*
X62660960Y-62463056D01*
X62565473Y-62628444D01*
X62563432Y-62634726D01*
X62554333Y-62662730D01*
X62514259Y-62721335D01*
X62448862Y-62748972D01*
X62378906Y-62736865D01*
X62326600Y-62688859D01*
X62308500Y-62623793D01*
X62308500Y-56900000D01*
X85186496Y-56900000D01*
X85206458Y-57089928D01*
X85265473Y-57271556D01*
X85268776Y-57277278D01*
X85268777Y-57277279D01*
X85277550Y-57292474D01*
X85360960Y-57436944D01*
X85365378Y-57441851D01*
X85365379Y-57441852D01*
X85484325Y-57573955D01*
X85488747Y-57578866D01*
X85643248Y-57691118D01*
X85649276Y-57693802D01*
X85649278Y-57693803D01*
X85811681Y-57766109D01*
X85817712Y-57768794D01*
X85911112Y-57788647D01*
X85998056Y-57807128D01*
X85998061Y-57807128D01*
X86004513Y-57808500D01*
X86195487Y-57808500D01*
X86201939Y-57807128D01*
X86201944Y-57807128D01*
X86235478Y-57800000D01*
X89686496Y-57800000D01*
X89706458Y-57989928D01*
X89765473Y-58171556D01*
X89768776Y-58177278D01*
X89768777Y-58177279D01*
X89786803Y-58208500D01*
X89860960Y-58336944D01*
X89988747Y-58478866D01*
X90143248Y-58591118D01*
X90149276Y-58593802D01*
X90149278Y-58593803D01*
X90311681Y-58666109D01*
X90317712Y-58668794D01*
X90411112Y-58688647D01*
X90498056Y-58707128D01*
X90498061Y-58707128D01*
X90504513Y-58708500D01*
X90695487Y-58708500D01*
X90701939Y-58707128D01*
X90701944Y-58707128D01*
X90788888Y-58688647D01*
X90882288Y-58668794D01*
X90888319Y-58666109D01*
X91050722Y-58593803D01*
X91050724Y-58593802D01*
X91056752Y-58591118D01*
X91211253Y-58478866D01*
X91339040Y-58336944D01*
X91413197Y-58208500D01*
X91431223Y-58177279D01*
X91431224Y-58177278D01*
X91434527Y-58171556D01*
X91493542Y-57989928D01*
X91513504Y-57800000D01*
X91493542Y-57610072D01*
X91434527Y-57428444D01*
X91360370Y-57300000D01*
X102486496Y-57300000D01*
X102487186Y-57306565D01*
X102492736Y-57359366D01*
X102506458Y-57489928D01*
X102565473Y-57671556D01*
X102660960Y-57836944D01*
X102788747Y-57978866D01*
X102943248Y-58091118D01*
X102949276Y-58093802D01*
X102949278Y-58093803D01*
X103109799Y-58165271D01*
X103117712Y-58168794D01*
X103211113Y-58188647D01*
X103298056Y-58207128D01*
X103298061Y-58207128D01*
X103304513Y-58208500D01*
X103495487Y-58208500D01*
X103501939Y-58207128D01*
X103501944Y-58207128D01*
X103588887Y-58188647D01*
X103682288Y-58168794D01*
X103690201Y-58165271D01*
X103850722Y-58093803D01*
X103850724Y-58093802D01*
X103856752Y-58091118D01*
X104011253Y-57978866D01*
X104139040Y-57836944D01*
X104234527Y-57671556D01*
X104293542Y-57489928D01*
X104307265Y-57359366D01*
X104312814Y-57306565D01*
X104313504Y-57300000D01*
X104304102Y-57210547D01*
X104294232Y-57116635D01*
X104294232Y-57116633D01*
X104293542Y-57110072D01*
X104234527Y-56928444D01*
X104213990Y-56892872D01*
X104142341Y-56768774D01*
X104139040Y-56763056D01*
X104124641Y-56747064D01*
X108997707Y-56747064D01*
X109026825Y-56939599D01*
X109029028Y-56945585D01*
X109029029Y-56945591D01*
X109091860Y-57116360D01*
X109091862Y-57116365D01*
X109094063Y-57122346D01*
X109097425Y-57127768D01*
X109184853Y-57268774D01*
X109196674Y-57287840D01*
X109330466Y-57429322D01*
X109335696Y-57432984D01*
X109335697Y-57432985D01*
X109407648Y-57483365D01*
X109489975Y-57541011D01*
X109495838Y-57543548D01*
X109662825Y-57615810D01*
X109662829Y-57615811D01*
X109668684Y-57618345D01*
X109674931Y-57619650D01*
X109674934Y-57619651D01*
X109854557Y-57657176D01*
X109854562Y-57657177D01*
X109859293Y-57658165D01*
X109865685Y-57658500D01*
X110008663Y-57658500D01*
X110077951Y-57651462D01*
X110147378Y-57644410D01*
X110147379Y-57644410D01*
X110153727Y-57643765D01*
X110240300Y-57616635D01*
X110333451Y-57587444D01*
X110333456Y-57587442D01*
X110339541Y-57585535D01*
X110426475Y-57537346D01*
X110504271Y-57494223D01*
X110504274Y-57494221D01*
X110509850Y-57491130D01*
X110514691Y-57486981D01*
X110514695Y-57486978D01*
X110652855Y-57368560D01*
X110657698Y-57364409D01*
X110777046Y-57210547D01*
X110817779Y-57127768D01*
X110860200Y-57041556D01*
X110863018Y-57035829D01*
X110870737Y-57006197D01*
X110910492Y-56853575D01*
X110910492Y-56853572D01*
X110912102Y-56847393D01*
X110922293Y-56652936D01*
X110893175Y-56460401D01*
X110890972Y-56454415D01*
X110890971Y-56454409D01*
X110828140Y-56283640D01*
X110828138Y-56283635D01*
X110825937Y-56277654D01*
X110723326Y-56112160D01*
X110589534Y-55970678D01*
X110430025Y-55858989D01*
X110382013Y-55838212D01*
X110257175Y-55784190D01*
X110257171Y-55784189D01*
X110251316Y-55781655D01*
X110245069Y-55780350D01*
X110245066Y-55780349D01*
X110065443Y-55742824D01*
X110065438Y-55742823D01*
X110060707Y-55741835D01*
X110054315Y-55741500D01*
X109911337Y-55741500D01*
X109842049Y-55748538D01*
X109772622Y-55755590D01*
X109772621Y-55755590D01*
X109766273Y-55756235D01*
X109709939Y-55773889D01*
X109586549Y-55812556D01*
X109586544Y-55812558D01*
X109580459Y-55814465D01*
X109504713Y-55856452D01*
X109415729Y-55905777D01*
X109415726Y-55905779D01*
X109410150Y-55908870D01*
X109405309Y-55913019D01*
X109405305Y-55913022D01*
X109342311Y-55967015D01*
X109262302Y-56035591D01*
X109142954Y-56189453D01*
X109140138Y-56195176D01*
X109140136Y-56195179D01*
X109096608Y-56283640D01*
X109056982Y-56364171D01*
X109055373Y-56370349D01*
X109055372Y-56370351D01*
X109015683Y-56522721D01*
X109007898Y-56552607D01*
X109007564Y-56558986D01*
X108999302Y-56716635D01*
X108997707Y-56747064D01*
X104124641Y-56747064D01*
X104097243Y-56716635D01*
X104015675Y-56626045D01*
X104015674Y-56626044D01*
X104011253Y-56621134D01*
X103856752Y-56508882D01*
X103850724Y-56506198D01*
X103850722Y-56506197D01*
X103688319Y-56433891D01*
X103688318Y-56433891D01*
X103682288Y-56431206D01*
X103588888Y-56411353D01*
X103501944Y-56392872D01*
X103501939Y-56392872D01*
X103495487Y-56391500D01*
X103304513Y-56391500D01*
X103298061Y-56392872D01*
X103298056Y-56392872D01*
X103211112Y-56411353D01*
X103117712Y-56431206D01*
X103111682Y-56433891D01*
X103111681Y-56433891D01*
X102949278Y-56506197D01*
X102949276Y-56506198D01*
X102943248Y-56508882D01*
X102788747Y-56621134D01*
X102784326Y-56626044D01*
X102784325Y-56626045D01*
X102702758Y-56716635D01*
X102660960Y-56763056D01*
X102657659Y-56768774D01*
X102586011Y-56892872D01*
X102565473Y-56928444D01*
X102506458Y-57110072D01*
X102505768Y-57116633D01*
X102505768Y-57116635D01*
X102495898Y-57210547D01*
X102486496Y-57300000D01*
X91360370Y-57300000D01*
X91339040Y-57263056D01*
X91211253Y-57121134D01*
X91056752Y-57008882D01*
X91050724Y-57006198D01*
X91050722Y-57006197D01*
X90888319Y-56933891D01*
X90888318Y-56933891D01*
X90882288Y-56931206D01*
X90766362Y-56906565D01*
X90701944Y-56892872D01*
X90701939Y-56892872D01*
X90695487Y-56891500D01*
X90504513Y-56891500D01*
X90498061Y-56892872D01*
X90498056Y-56892872D01*
X90433638Y-56906565D01*
X90317712Y-56931206D01*
X90311682Y-56933891D01*
X90311681Y-56933891D01*
X90149278Y-57006197D01*
X90149276Y-57006198D01*
X90143248Y-57008882D01*
X89988747Y-57121134D01*
X89860960Y-57263056D01*
X89765473Y-57428444D01*
X89706458Y-57610072D01*
X89686496Y-57800000D01*
X86235478Y-57800000D01*
X86288888Y-57788647D01*
X86382288Y-57768794D01*
X86388319Y-57766109D01*
X86550722Y-57693803D01*
X86550724Y-57693802D01*
X86556752Y-57691118D01*
X86711253Y-57578866D01*
X86715675Y-57573955D01*
X86834621Y-57441852D01*
X86834622Y-57441851D01*
X86839040Y-57436944D01*
X86922450Y-57292474D01*
X86931223Y-57277279D01*
X86931224Y-57277278D01*
X86934527Y-57271556D01*
X86993542Y-57089928D01*
X87013504Y-56900000D01*
X86993542Y-56710072D01*
X86934527Y-56528444D01*
X86839040Y-56363056D01*
X86711253Y-56221134D01*
X86612157Y-56149136D01*
X86562094Y-56112763D01*
X86562093Y-56112762D01*
X86556752Y-56108882D01*
X86550724Y-56106198D01*
X86550722Y-56106197D01*
X86388319Y-56033891D01*
X86388318Y-56033891D01*
X86382288Y-56031206D01*
X86288888Y-56011353D01*
X86201944Y-55992872D01*
X86201939Y-55992872D01*
X86195487Y-55991500D01*
X86004513Y-55991500D01*
X85998061Y-55992872D01*
X85998056Y-55992872D01*
X85911112Y-56011353D01*
X85817712Y-56031206D01*
X85811682Y-56033891D01*
X85811681Y-56033891D01*
X85649278Y-56106197D01*
X85649276Y-56106198D01*
X85643248Y-56108882D01*
X85637907Y-56112762D01*
X85637906Y-56112763D01*
X85587843Y-56149136D01*
X85488747Y-56221134D01*
X85360960Y-56363056D01*
X85265473Y-56528444D01*
X85206458Y-56710072D01*
X85186496Y-56900000D01*
X62308500Y-56900000D01*
X62308500Y-50800000D01*
X77386496Y-50800000D01*
X77387186Y-50806565D01*
X77392645Y-50858500D01*
X77406458Y-50989928D01*
X77465473Y-51171556D01*
X77560960Y-51336944D01*
X77688747Y-51478866D01*
X77843248Y-51591118D01*
X77849276Y-51593802D01*
X77849278Y-51593803D01*
X78011681Y-51666109D01*
X78017712Y-51668794D01*
X78111113Y-51688647D01*
X78198056Y-51707128D01*
X78198061Y-51707128D01*
X78204513Y-51708500D01*
X78395487Y-51708500D01*
X78401939Y-51707128D01*
X78401944Y-51707128D01*
X78488888Y-51688647D01*
X78582288Y-51668794D01*
X78588319Y-51666109D01*
X78750722Y-51593803D01*
X78750724Y-51593802D01*
X78756752Y-51591118D01*
X78911253Y-51478866D01*
X79039040Y-51336944D01*
X79134527Y-51171556D01*
X79193542Y-50989928D01*
X79207356Y-50858500D01*
X79212814Y-50806565D01*
X79213504Y-50800000D01*
X79202387Y-50694223D01*
X79194232Y-50616635D01*
X79194232Y-50616633D01*
X79193542Y-50610072D01*
X79134527Y-50428444D01*
X79039040Y-50263056D01*
X79019682Y-50241556D01*
X78915675Y-50126045D01*
X78915674Y-50126044D01*
X78911253Y-50121134D01*
X78756752Y-50008882D01*
X78750724Y-50006198D01*
X78750722Y-50006197D01*
X78617906Y-49947064D01*
X108997707Y-49947064D01*
X109026825Y-50139599D01*
X109029028Y-50145585D01*
X109029029Y-50145591D01*
X109091860Y-50316360D01*
X109091862Y-50316365D01*
X109094063Y-50322346D01*
X109196674Y-50487840D01*
X109201055Y-50492473D01*
X109201056Y-50492474D01*
X109312262Y-50610072D01*
X109330466Y-50629322D01*
X109489975Y-50741011D01*
X109495838Y-50743548D01*
X109662825Y-50815810D01*
X109662829Y-50815811D01*
X109668684Y-50818345D01*
X109674931Y-50819650D01*
X109674934Y-50819651D01*
X109854557Y-50857176D01*
X109854562Y-50857177D01*
X109859293Y-50858165D01*
X109865685Y-50858500D01*
X110008663Y-50858500D01*
X110077951Y-50851462D01*
X110147378Y-50844410D01*
X110147379Y-50844410D01*
X110153727Y-50843765D01*
X110234843Y-50818345D01*
X110333451Y-50787444D01*
X110333456Y-50787442D01*
X110339541Y-50785535D01*
X110426475Y-50737346D01*
X110504271Y-50694223D01*
X110504274Y-50694221D01*
X110509850Y-50691130D01*
X110514691Y-50686981D01*
X110514695Y-50686978D01*
X110652855Y-50568560D01*
X110657698Y-50564409D01*
X110777046Y-50410547D01*
X110817779Y-50327768D01*
X110860200Y-50241556D01*
X110863018Y-50235829D01*
X110864628Y-50229649D01*
X110910492Y-50053575D01*
X110910492Y-50053572D01*
X110912102Y-50047393D01*
X110922293Y-49852936D01*
X110893175Y-49660401D01*
X110890972Y-49654415D01*
X110890971Y-49654409D01*
X110828140Y-49483640D01*
X110828138Y-49483635D01*
X110825937Y-49477654D01*
X110723326Y-49312160D01*
X110589534Y-49170678D01*
X110430025Y-49058989D01*
X110382013Y-49038212D01*
X110257175Y-48984190D01*
X110257171Y-48984189D01*
X110251316Y-48981655D01*
X110245069Y-48980350D01*
X110245066Y-48980349D01*
X110065443Y-48942824D01*
X110065438Y-48942823D01*
X110060707Y-48941835D01*
X110054315Y-48941500D01*
X109911337Y-48941500D01*
X109842049Y-48948538D01*
X109772622Y-48955590D01*
X109772621Y-48955590D01*
X109766273Y-48956235D01*
X109709939Y-48973889D01*
X109586549Y-49012556D01*
X109586544Y-49012558D01*
X109580459Y-49014465D01*
X109504713Y-49056452D01*
X109415729Y-49105777D01*
X109415726Y-49105779D01*
X109410150Y-49108870D01*
X109405309Y-49113019D01*
X109405305Y-49113022D01*
X109342311Y-49167015D01*
X109262302Y-49235591D01*
X109142954Y-49389453D01*
X109140138Y-49395176D01*
X109140136Y-49395179D01*
X109096608Y-49483640D01*
X109056982Y-49564171D01*
X109055373Y-49570349D01*
X109055372Y-49570351D01*
X109033477Y-49654409D01*
X109007898Y-49752607D01*
X108997707Y-49947064D01*
X78617906Y-49947064D01*
X78588319Y-49933891D01*
X78588318Y-49933891D01*
X78582288Y-49931206D01*
X78488888Y-49911353D01*
X78401944Y-49892872D01*
X78401939Y-49892872D01*
X78395487Y-49891500D01*
X78204513Y-49891500D01*
X78198061Y-49892872D01*
X78198056Y-49892872D01*
X78111112Y-49911353D01*
X78017712Y-49931206D01*
X78011682Y-49933891D01*
X78011681Y-49933891D01*
X77849278Y-50006197D01*
X77849276Y-50006198D01*
X77843248Y-50008882D01*
X77688747Y-50121134D01*
X77684326Y-50126044D01*
X77684325Y-50126045D01*
X77580319Y-50241556D01*
X77560960Y-50263056D01*
X77465473Y-50428444D01*
X77406458Y-50610072D01*
X77405768Y-50616633D01*
X77405768Y-50616635D01*
X77397613Y-50694223D01*
X77386496Y-50800000D01*
X62308500Y-50800000D01*
X62308500Y-39931579D01*
X62309107Y-39919229D01*
X62312350Y-39886305D01*
X62312350Y-39886303D01*
X62313230Y-39877367D01*
X62302332Y-39819557D01*
X62301424Y-39814080D01*
X62294352Y-39764696D01*
X62293080Y-39755813D01*
X62289397Y-39747711D01*
X62289051Y-39746271D01*
X62288444Y-39744353D01*
X62287897Y-39742974D01*
X62286249Y-39734231D01*
X62259550Y-39681775D01*
X62257163Y-39676818D01*
X62232792Y-39623218D01*
X62226983Y-39616476D01*
X62226248Y-39615192D01*
X62225132Y-39613528D01*
X62224216Y-39612354D01*
X62220178Y-39604420D01*
X62214023Y-39597883D01*
X62214021Y-39597880D01*
X62179845Y-39561582D01*
X62176129Y-39557457D01*
X62143573Y-39519674D01*
X62137713Y-39512873D01*
X62099097Y-39487843D01*
X62090274Y-39481570D01*
X61794282Y-39251354D01*
X60361250Y-38136774D01*
X60343476Y-38119937D01*
X60336195Y-38111553D01*
X60323276Y-38103250D01*
X60303436Y-38087468D01*
X60151942Y-37939756D01*
X60139974Y-37926288D01*
X59995664Y-37738385D01*
X59985739Y-37723348D01*
X59869697Y-37516768D01*
X59862019Y-37500468D01*
X59776632Y-37279461D01*
X59771357Y-37262233D01*
X59718365Y-37031304D01*
X59715601Y-37013499D01*
X59696089Y-36777368D01*
X59695893Y-36759353D01*
X59710257Y-36522862D01*
X59712632Y-36505001D01*
X59760584Y-36272967D01*
X59765483Y-36255629D01*
X59846036Y-36032813D01*
X59853357Y-36016350D01*
X59856069Y-36011267D01*
X59964868Y-35807299D01*
X59974462Y-35792050D01*
X59994341Y-35764965D01*
X60114655Y-35601035D01*
X60126318Y-35587319D01*
X60292326Y-35418249D01*
X60305830Y-35406334D01*
X60444418Y-35300667D01*
X60494248Y-35262674D01*
X60509317Y-35252805D01*
X60716297Y-35137490D01*
X60732623Y-35129869D01*
X60953930Y-35045256D01*
X60971176Y-35040041D01*
X61202287Y-34987858D01*
X61220101Y-34985156D01*
X61296300Y-34979128D01*
X61456302Y-34966470D01*
X61474313Y-34966337D01*
X61609382Y-34975016D01*
G37*
%TD.AperFunction*%
%TD*%
M02*
