%TF.GenerationSoftware,KiCad,Pcbnew,(6.0.8)*%
%TF.CreationDate,2023-02-13T22:42:50-05:00*%
%TF.ProjectId,miura_board,6d697572-615f-4626-9f61-72642e6b6963,rev?*%
%TF.SameCoordinates,Original*%
%TF.FileFunction,Soldermask,Top*%
%TF.FilePolarity,Negative*%
%FSLAX46Y46*%
G04 Gerber Fmt 4.6, Leading zero omitted, Abs format (unit mm)*
G04 Created by KiCad (PCBNEW (6.0.8)) date 2023-02-13 22:42:50*
%MOMM*%
%LPD*%
G01*
G04 APERTURE LIST*
G04 Aperture macros list*
%AMRoundRect*
0 Rectangle with rounded corners*
0 $1 Rounding radius*
0 $2 $3 $4 $5 $6 $7 $8 $9 X,Y pos of 4 corners*
0 Add a 4 corners polygon primitive as box body*
4,1,4,$2,$3,$4,$5,$6,$7,$8,$9,$2,$3,0*
0 Add four circle primitives for the rounded corners*
1,1,$1+$1,$2,$3*
1,1,$1+$1,$4,$5*
1,1,$1+$1,$6,$7*
1,1,$1+$1,$8,$9*
0 Add four rect primitives between the rounded corners*
20,1,$1+$1,$2,$3,$4,$5,0*
20,1,$1+$1,$4,$5,$6,$7,0*
20,1,$1+$1,$6,$7,$8,$9,0*
20,1,$1+$1,$8,$9,$2,$3,0*%
G04 Aperture macros list end*
%ADD10RoundRect,0.225000X-0.250000X0.225000X-0.250000X-0.225000X0.250000X-0.225000X0.250000X0.225000X0*%
%ADD11R,1.500000X2.000000*%
%ADD12R,3.800000X2.000000*%
%ADD13RoundRect,0.200000X0.275000X-0.200000X0.275000X0.200000X-0.275000X0.200000X-0.275000X-0.200000X0*%
%ADD14RoundRect,0.218750X-0.218750X-0.256250X0.218750X-0.256250X0.218750X0.256250X-0.218750X0.256250X0*%
%ADD15R,2.000000X1.500000*%
%ADD16R,2.000000X3.800000*%
%ADD17C,3.800000*%
%ADD18RoundRect,0.062500X0.062500X-0.337500X0.062500X0.337500X-0.062500X0.337500X-0.062500X-0.337500X0*%
%ADD19RoundRect,0.062500X0.337500X-0.062500X0.337500X0.062500X-0.337500X0.062500X-0.337500X-0.062500X0*%
%ADD20R,3.350000X3.350000*%
%ADD21RoundRect,0.225000X0.225000X0.250000X-0.225000X0.250000X-0.225000X-0.250000X0.225000X-0.250000X0*%
%ADD22R,1.000000X1.000000*%
%ADD23O,1.000000X1.000000*%
%ADD24RoundRect,0.225000X-0.225000X-0.250000X0.225000X-0.250000X0.225000X0.250000X-0.225000X0.250000X0*%
%ADD25R,1.000000X2.750000*%
%ADD26O,2.500000X0.900000*%
%ADD27O,0.900000X2.500000*%
%ADD28R,6.000000X6.000000*%
%ADD29RoundRect,0.200000X0.200000X0.275000X-0.200000X0.275000X-0.200000X-0.275000X0.200000X-0.275000X0*%
%ADD30R,4.599940X0.998220*%
%ADD31R,3.398520X1.597660*%
%ADD32RoundRect,0.150000X-0.512500X-0.150000X0.512500X-0.150000X0.512500X0.150000X-0.512500X0.150000X0*%
%ADD33RoundRect,0.237500X0.250000X0.237500X-0.250000X0.237500X-0.250000X-0.237500X0.250000X-0.237500X0*%
%ADD34R,2.750000X1.000000*%
%ADD35C,0.650000*%
%ADD36R,0.600000X1.450000*%
%ADD37R,0.300000X1.450000*%
%ADD38RoundRect,0.237500X-0.250000X-0.237500X0.250000X-0.237500X0.250000X0.237500X-0.250000X0.237500X0*%
%ADD39RoundRect,0.218750X-0.256250X0.218750X-0.256250X-0.218750X0.256250X-0.218750X0.256250X0.218750X0*%
%ADD40C,0.900000*%
%ADD41R,2.500000X1.250000*%
G04 APERTURE END LIST*
D10*
%TO.C,C10*%
X93900000Y-74925000D03*
X93900000Y-76475000D03*
%TD*%
D11*
%TO.C,U2*%
X102460000Y-48550000D03*
X100160000Y-48550000D03*
D12*
X100160000Y-54850000D03*
D11*
X97860000Y-48550000D03*
%TD*%
D10*
%TO.C,C5*%
X99500000Y-57425000D03*
X99500000Y-58975000D03*
%TD*%
D13*
%TO.C,R6*%
X103372500Y-39965000D03*
X103372500Y-38315000D03*
%TD*%
D14*
%TO.C,D1*%
X106085000Y-38340000D03*
X107660000Y-38340000D03*
%TD*%
D15*
%TO.C,U5*%
X90850000Y-53100000D03*
D16*
X84550000Y-50800000D03*
D15*
X90850000Y-50800000D03*
X90850000Y-48500000D03*
%TD*%
D17*
%TO.C,H1*%
X112760000Y-36760000D03*
%TD*%
D13*
%TO.C,R5*%
X107672500Y-42365000D03*
X107672500Y-40715000D03*
%TD*%
D10*
%TO.C,C14*%
X65700000Y-59625000D03*
X65700000Y-61175000D03*
%TD*%
D18*
%TO.C,U3*%
X100280000Y-72550000D03*
X100780000Y-72550000D03*
X101280000Y-72550000D03*
X101780000Y-72550000D03*
X102280000Y-72550000D03*
X102780000Y-72550000D03*
X103280000Y-72550000D03*
D19*
X104230000Y-71600000D03*
X104230000Y-71100000D03*
X104230000Y-70600000D03*
X104230000Y-70100000D03*
X104230000Y-69600000D03*
X104230000Y-69100000D03*
X104230000Y-68600000D03*
D18*
X103280000Y-67650000D03*
X102780000Y-67650000D03*
X102280000Y-67650000D03*
X101780000Y-67650000D03*
X101280000Y-67650000D03*
X100780000Y-67650000D03*
X100280000Y-67650000D03*
D19*
X99330000Y-68600000D03*
X99330000Y-69100000D03*
X99330000Y-69600000D03*
X99330000Y-70100000D03*
X99330000Y-70600000D03*
X99330000Y-71100000D03*
X99330000Y-71600000D03*
D20*
X101780000Y-70100000D03*
%TD*%
D10*
%TO.C,C6*%
X101800000Y-57425000D03*
X101800000Y-58975000D03*
%TD*%
%TO.C,C2*%
X95260000Y-48515000D03*
X95260000Y-50065000D03*
%TD*%
D21*
%TO.C,C4*%
X95215000Y-46570000D03*
X93665000Y-46570000D03*
%TD*%
D22*
%TO.C,J3*%
X95250000Y-82600000D03*
D23*
X93980000Y-82600000D03*
X92710000Y-82600000D03*
X91440000Y-82600000D03*
X90170000Y-82600000D03*
%TD*%
D24*
%TO.C,C7*%
X93725000Y-68100000D03*
X95275000Y-68100000D03*
%TD*%
%TO.C,C19*%
X106425000Y-70200000D03*
X107975000Y-70200000D03*
%TD*%
D25*
%TO.C,S1*%
X92180000Y-64485000D03*
X92180000Y-58735000D03*
X96180000Y-64485000D03*
X96180000Y-58735000D03*
%TD*%
D26*
%TO.C,U1*%
X86890000Y-76270000D03*
X86890000Y-75000000D03*
X86890000Y-73730000D03*
X86890000Y-72460000D03*
X86890000Y-71190000D03*
X86890000Y-69920000D03*
X86890000Y-68650000D03*
X86890000Y-67380000D03*
X86890000Y-66110000D03*
X86890000Y-64840000D03*
X86890000Y-63570000D03*
X86890000Y-62300000D03*
X86890000Y-61030000D03*
X86890000Y-59760000D03*
D27*
X83605000Y-58270000D03*
X82335000Y-58270000D03*
X81065000Y-58270000D03*
X79795000Y-58270000D03*
X78525000Y-58270000D03*
X77255000Y-58270000D03*
X75985000Y-58270000D03*
X74715000Y-58270000D03*
X73445000Y-58270000D03*
X72175000Y-58270000D03*
D26*
X68890000Y-59760000D03*
X68890000Y-61030000D03*
X68890000Y-62300000D03*
X68890000Y-63570000D03*
X68890000Y-64840000D03*
X68890000Y-66110000D03*
X68890000Y-67380000D03*
X68890000Y-68650000D03*
X68890000Y-69920000D03*
X68890000Y-71190000D03*
X68890000Y-72460000D03*
X68890000Y-73730000D03*
X68890000Y-75000000D03*
X68890000Y-76270000D03*
D28*
X78190000Y-68570000D03*
%TD*%
D24*
%TO.C,C18*%
X109497500Y-44240000D03*
X111047500Y-44240000D03*
%TD*%
%TO.C,C20*%
X106425000Y-72600000D03*
X107975000Y-72600000D03*
%TD*%
D10*
%TO.C,C9*%
X82000000Y-50825000D03*
X82000000Y-52375000D03*
%TD*%
D29*
%TO.C,R7*%
X76645000Y-49640000D03*
X74995000Y-49640000D03*
%TD*%
D30*
%TO.C,J6*%
X93698240Y-40401780D03*
X93698240Y-42398220D03*
D31*
X88501400Y-44798520D03*
X88501400Y-38001480D03*
%TD*%
D32*
%TO.C,U4*%
X103335000Y-42490000D03*
X103335000Y-43440000D03*
X103335000Y-44390000D03*
X105610000Y-44390000D03*
X105610000Y-42490000D03*
%TD*%
D33*
%TO.C,R1*%
X91712500Y-71900000D03*
X89887500Y-71900000D03*
%TD*%
D10*
%TO.C,C13*%
X95900000Y-74925000D03*
X95900000Y-76475000D03*
%TD*%
D17*
%TO.C,H3*%
X61460000Y-84530000D03*
%TD*%
D10*
%TO.C,C8*%
X79900000Y-50825000D03*
X79900000Y-52375000D03*
%TD*%
D17*
%TO.C,H2*%
X61540000Y-36810000D03*
%TD*%
%TO.C,H4*%
X112510000Y-84560000D03*
%TD*%
D34*
%TO.C,S2*%
X64345000Y-51070000D03*
X70095000Y-51070000D03*
X64345000Y-55070000D03*
X70095000Y-55070000D03*
%TD*%
D35*
%TO.C,USB1*%
X99610000Y-77835000D03*
X105390000Y-77835000D03*
D36*
X99275000Y-76390000D03*
X100050000Y-76390000D03*
D37*
X100750000Y-76390000D03*
X101250000Y-76390000D03*
X101750000Y-76390000D03*
X102250000Y-76390000D03*
X102750000Y-76390000D03*
X103250000Y-76390000D03*
X103750000Y-76390000D03*
X104250000Y-76390000D03*
D36*
X104950000Y-76390000D03*
X105725000Y-76390000D03*
%TD*%
D38*
%TO.C,R4*%
X108887500Y-76100000D03*
X110712500Y-76100000D03*
%TD*%
D22*
%TO.C,J2*%
X63500000Y-74850000D03*
D23*
X63500000Y-73580000D03*
X63500000Y-72310000D03*
X63500000Y-71040000D03*
X63500000Y-69770000D03*
%TD*%
D39*
%TO.C,D2*%
X74820000Y-52690000D03*
X74820000Y-54265000D03*
%TD*%
D24*
%TO.C,C1*%
X97745000Y-45320000D03*
X99295000Y-45320000D03*
%TD*%
D10*
%TO.C,C12*%
X89900000Y-74925000D03*
X89900000Y-76475000D03*
%TD*%
D40*
%TO.C,SW1*%
X109960000Y-56700000D03*
X109960000Y-49900000D03*
D41*
X107210000Y-55800000D03*
X107210000Y-53300000D03*
X107210000Y-50800000D03*
%TD*%
D10*
%TO.C,C3*%
X93240000Y-48505000D03*
X93240000Y-50055000D03*
%TD*%
D38*
%TO.C,R3*%
X108887500Y-79900000D03*
X110712500Y-79900000D03*
%TD*%
D10*
%TO.C,C11*%
X91900000Y-74925000D03*
X91900000Y-76475000D03*
%TD*%
M02*
