%FSLAX45Y45*%
G04 Gerber Fmt 4.5, Leading zero omitted, Abs format (unit mm)*
G04 Created by KiCad (PCBNEW (6.0.2-0)) date 2023-02-28 15:21:22*
%MOMM*%
%LPD*%
G01*
G04 APERTURE LIST*
%TA.AperFunction,Profile*%
%ADD10C,0.200000*%
%TD*%
%ADD11C,0.200000*%
%ADD12C,0.065000*%
G04 APERTURE END LIST*
D10*
X4191000Y-7637000D02*
G75*
G03*
X3867000Y-7811000I-109872J-184067D01*
G01*
X3873050Y-10578000D02*
X3867000Y-7811000D01*
X8413000Y-10576000D02*
G75*
G03*
X8545000Y-10146000I12850J231316D01*
G01*
X3873050Y-10578000D02*
X8413000Y-10576000D01*
X4191000Y-7637000D02*
X8545000Y-10146000D01*
D11*
D12*
X4479000Y-9752500D02*
X4544000Y-9817500D01*
X4544000Y-9752500D02*
X4479000Y-9817500D01*
X4479000Y-10330500D02*
X4544000Y-10395500D01*
X4544000Y-10330500D02*
X4479000Y-10395500D01*
D11*
X4114619Y-10898476D02*
X4114619Y-10698476D01*
X4162238Y-10698476D01*
X4190809Y-10708000D01*
X4209857Y-10727048D01*
X4219381Y-10746095D01*
X4228905Y-10784190D01*
X4228905Y-10812762D01*
X4219381Y-10850857D01*
X4209857Y-10869905D01*
X4190809Y-10888952D01*
X4162238Y-10898476D01*
X4114619Y-10898476D01*
X4314619Y-10898476D02*
X4314619Y-10765143D01*
X4314619Y-10803238D02*
X4324143Y-10784190D01*
X4333667Y-10774667D01*
X4352714Y-10765143D01*
X4371762Y-10765143D01*
X4438429Y-10898476D02*
X4438429Y-10765143D01*
X4438429Y-10698476D02*
X4428905Y-10708000D01*
X4438429Y-10717524D01*
X4447952Y-10708000D01*
X4438429Y-10698476D01*
X4438429Y-10717524D01*
X4562238Y-10898476D02*
X4543190Y-10888952D01*
X4533667Y-10869905D01*
X4533667Y-10698476D01*
X4667000Y-10898476D02*
X4647952Y-10888952D01*
X4638429Y-10869905D01*
X4638429Y-10698476D01*
X4895571Y-10898476D02*
X4895571Y-10698476D01*
X4962238Y-10841333D01*
X5028905Y-10698476D01*
X5028905Y-10898476D01*
X5209857Y-10898476D02*
X5209857Y-10793714D01*
X5200333Y-10774667D01*
X5181286Y-10765143D01*
X5143190Y-10765143D01*
X5124143Y-10774667D01*
X5209857Y-10888952D02*
X5190810Y-10898476D01*
X5143190Y-10898476D01*
X5124143Y-10888952D01*
X5114619Y-10869905D01*
X5114619Y-10850857D01*
X5124143Y-10831810D01*
X5143190Y-10822286D01*
X5190810Y-10822286D01*
X5209857Y-10812762D01*
X5305095Y-10765143D02*
X5305095Y-10965143D01*
X5305095Y-10774667D02*
X5324143Y-10765143D01*
X5362238Y-10765143D01*
X5381286Y-10774667D01*
X5390810Y-10784190D01*
X5400333Y-10803238D01*
X5400333Y-10860381D01*
X5390810Y-10879429D01*
X5381286Y-10888952D01*
X5362238Y-10898476D01*
X5324143Y-10898476D01*
X5305095Y-10888952D01*
X5486048Y-10879429D02*
X5495571Y-10888952D01*
X5486048Y-10898476D01*
X5476524Y-10888952D01*
X5486048Y-10879429D01*
X5486048Y-10898476D01*
X5486048Y-10774667D02*
X5495571Y-10784190D01*
X5486048Y-10793714D01*
X5476524Y-10784190D01*
X5486048Y-10774667D01*
X5486048Y-10793714D01*
D12*
X3792000Y-11195500D02*
X3857000Y-11260500D01*
X3857000Y-11195500D02*
X3792000Y-11260500D01*
D11*
X4152714Y-11118476D02*
X4171762Y-11118476D01*
X4190809Y-11128000D01*
X4200333Y-11137524D01*
X4209857Y-11156571D01*
X4219381Y-11194667D01*
X4219381Y-11242286D01*
X4209857Y-11280381D01*
X4200333Y-11299428D01*
X4190809Y-11308952D01*
X4171762Y-11318476D01*
X4152714Y-11318476D01*
X4133667Y-11308952D01*
X4124143Y-11299428D01*
X4114619Y-11280381D01*
X4105095Y-11242286D01*
X4105095Y-11194667D01*
X4114619Y-11156571D01*
X4124143Y-11137524D01*
X4133667Y-11128000D01*
X4152714Y-11118476D01*
X4305095Y-11299428D02*
X4314619Y-11308952D01*
X4305095Y-11318476D01*
X4295571Y-11308952D01*
X4305095Y-11299428D01*
X4305095Y-11318476D01*
X4486048Y-11118476D02*
X4447952Y-11118476D01*
X4428905Y-11128000D01*
X4419381Y-11137524D01*
X4400333Y-11166095D01*
X4390810Y-11204190D01*
X4390810Y-11280381D01*
X4400333Y-11299428D01*
X4409857Y-11308952D01*
X4428905Y-11318476D01*
X4467000Y-11318476D01*
X4486048Y-11308952D01*
X4495571Y-11299428D01*
X4505095Y-11280381D01*
X4505095Y-11232762D01*
X4495571Y-11213714D01*
X4486048Y-11204190D01*
X4467000Y-11194667D01*
X4428905Y-11194667D01*
X4409857Y-11204190D01*
X4400333Y-11213714D01*
X4390810Y-11232762D01*
X4686048Y-11118476D02*
X4590810Y-11118476D01*
X4581286Y-11213714D01*
X4590810Y-11204190D01*
X4609857Y-11194667D01*
X4657476Y-11194667D01*
X4676524Y-11204190D01*
X4686048Y-11213714D01*
X4695571Y-11232762D01*
X4695571Y-11280381D01*
X4686048Y-11299428D01*
X4676524Y-11308952D01*
X4657476Y-11318476D01*
X4609857Y-11318476D01*
X4590810Y-11308952D01*
X4581286Y-11299428D01*
X4819381Y-11118476D02*
X4838429Y-11118476D01*
X4857476Y-11128000D01*
X4867000Y-11137524D01*
X4876524Y-11156571D01*
X4886048Y-11194667D01*
X4886048Y-11242286D01*
X4876524Y-11280381D01*
X4867000Y-11299428D01*
X4857476Y-11308952D01*
X4838429Y-11318476D01*
X4819381Y-11318476D01*
X4800333Y-11308952D01*
X4790810Y-11299428D01*
X4781286Y-11280381D01*
X4771762Y-11242286D01*
X4771762Y-11194667D01*
X4781286Y-11156571D01*
X4790810Y-11137524D01*
X4800333Y-11128000D01*
X4819381Y-11118476D01*
X4971762Y-11318476D02*
X4971762Y-11185143D01*
X4971762Y-11204190D02*
X4981286Y-11194667D01*
X5000333Y-11185143D01*
X5028905Y-11185143D01*
X5047952Y-11194667D01*
X5057476Y-11213714D01*
X5057476Y-11318476D01*
X5057476Y-11213714D02*
X5067000Y-11194667D01*
X5086048Y-11185143D01*
X5114619Y-11185143D01*
X5133667Y-11194667D01*
X5143190Y-11213714D01*
X5143190Y-11318476D01*
X5238429Y-11318476D02*
X5238429Y-11185143D01*
X5238429Y-11204190D02*
X5247952Y-11194667D01*
X5267000Y-11185143D01*
X5295571Y-11185143D01*
X5314619Y-11194667D01*
X5324143Y-11213714D01*
X5324143Y-11318476D01*
X5324143Y-11213714D02*
X5333667Y-11194667D01*
X5352714Y-11185143D01*
X5381286Y-11185143D01*
X5400333Y-11194667D01*
X5409857Y-11213714D01*
X5409857Y-11318476D01*
X5800333Y-11108952D02*
X5628905Y-11366095D01*
X6057476Y-11118476D02*
X6076524Y-11118476D01*
X6095571Y-11128000D01*
X6105095Y-11137524D01*
X6114619Y-11156571D01*
X6124143Y-11194667D01*
X6124143Y-11242286D01*
X6114619Y-11280381D01*
X6105095Y-11299428D01*
X6095571Y-11308952D01*
X6076524Y-11318476D01*
X6057476Y-11318476D01*
X6038428Y-11308952D01*
X6028905Y-11299428D01*
X6019381Y-11280381D01*
X6009857Y-11242286D01*
X6009857Y-11194667D01*
X6019381Y-11156571D01*
X6028905Y-11137524D01*
X6038428Y-11128000D01*
X6057476Y-11118476D01*
X6209857Y-11299428D02*
X6219381Y-11308952D01*
X6209857Y-11318476D01*
X6200333Y-11308952D01*
X6209857Y-11299428D01*
X6209857Y-11318476D01*
X6343190Y-11118476D02*
X6362238Y-11118476D01*
X6381286Y-11128000D01*
X6390809Y-11137524D01*
X6400333Y-11156571D01*
X6409857Y-11194667D01*
X6409857Y-11242286D01*
X6400333Y-11280381D01*
X6390809Y-11299428D01*
X6381286Y-11308952D01*
X6362238Y-11318476D01*
X6343190Y-11318476D01*
X6324143Y-11308952D01*
X6314619Y-11299428D01*
X6305095Y-11280381D01*
X6295571Y-11242286D01*
X6295571Y-11194667D01*
X6305095Y-11156571D01*
X6314619Y-11137524D01*
X6324143Y-11128000D01*
X6343190Y-11118476D01*
X6486048Y-11137524D02*
X6495571Y-11128000D01*
X6514619Y-11118476D01*
X6562238Y-11118476D01*
X6581286Y-11128000D01*
X6590809Y-11137524D01*
X6600333Y-11156571D01*
X6600333Y-11175619D01*
X6590809Y-11204190D01*
X6476524Y-11318476D01*
X6600333Y-11318476D01*
X6781286Y-11118476D02*
X6686048Y-11118476D01*
X6676524Y-11213714D01*
X6686048Y-11204190D01*
X6705095Y-11194667D01*
X6752714Y-11194667D01*
X6771762Y-11204190D01*
X6781286Y-11213714D01*
X6790809Y-11232762D01*
X6790809Y-11280381D01*
X6781286Y-11299428D01*
X6771762Y-11308952D01*
X6752714Y-11318476D01*
X6705095Y-11318476D01*
X6686048Y-11308952D01*
X6676524Y-11299428D01*
X6962238Y-11118476D02*
X6924143Y-11118476D01*
X6905095Y-11128000D01*
X6895571Y-11137524D01*
X6876524Y-11166095D01*
X6867000Y-11204190D01*
X6867000Y-11280381D01*
X6876524Y-11299428D01*
X6886048Y-11308952D01*
X6905095Y-11318476D01*
X6943190Y-11318476D01*
X6962238Y-11308952D01*
X6971762Y-11299428D01*
X6981286Y-11280381D01*
X6981286Y-11232762D01*
X6971762Y-11213714D01*
X6962238Y-11204190D01*
X6943190Y-11194667D01*
X6905095Y-11194667D01*
X6886048Y-11204190D01*
X6876524Y-11213714D01*
X6867000Y-11232762D01*
X7057476Y-11118476D02*
X7057476Y-11156571D01*
X7133667Y-11118476D02*
X7133667Y-11156571D01*
X7428905Y-11394667D02*
X7419381Y-11385143D01*
X7400333Y-11356571D01*
X7390809Y-11337524D01*
X7381286Y-11308952D01*
X7371762Y-11261333D01*
X7371762Y-11223238D01*
X7381286Y-11175619D01*
X7390809Y-11147048D01*
X7400333Y-11128000D01*
X7419381Y-11099429D01*
X7428905Y-11089905D01*
X7495571Y-11137524D02*
X7505095Y-11128000D01*
X7524143Y-11118476D01*
X7571762Y-11118476D01*
X7590809Y-11128000D01*
X7600333Y-11137524D01*
X7609857Y-11156571D01*
X7609857Y-11175619D01*
X7600333Y-11204190D01*
X7486048Y-11318476D01*
X7609857Y-11318476D01*
X7847952Y-11318476D02*
X7847952Y-11118476D01*
X7933667Y-11318476D02*
X7933667Y-11213714D01*
X7924143Y-11194667D01*
X7905095Y-11185143D01*
X7876524Y-11185143D01*
X7857476Y-11194667D01*
X7847952Y-11204190D01*
X8057476Y-11318476D02*
X8038428Y-11308952D01*
X8028905Y-11299428D01*
X8019381Y-11280381D01*
X8019381Y-11223238D01*
X8028905Y-11204190D01*
X8038428Y-11194667D01*
X8057476Y-11185143D01*
X8086048Y-11185143D01*
X8105095Y-11194667D01*
X8114619Y-11204190D01*
X8124143Y-11223238D01*
X8124143Y-11280381D01*
X8114619Y-11299428D01*
X8105095Y-11308952D01*
X8086048Y-11318476D01*
X8057476Y-11318476D01*
X8238428Y-11318476D02*
X8219381Y-11308952D01*
X8209857Y-11289905D01*
X8209857Y-11118476D01*
X8390810Y-11308952D02*
X8371762Y-11318476D01*
X8333667Y-11318476D01*
X8314619Y-11308952D01*
X8305095Y-11289905D01*
X8305095Y-11213714D01*
X8314619Y-11194667D01*
X8333667Y-11185143D01*
X8371762Y-11185143D01*
X8390810Y-11194667D01*
X8400333Y-11213714D01*
X8400333Y-11232762D01*
X8305095Y-11251809D01*
X8476524Y-11308952D02*
X8495571Y-11318476D01*
X8533667Y-11318476D01*
X8552714Y-11308952D01*
X8562238Y-11289905D01*
X8562238Y-11280381D01*
X8552714Y-11261333D01*
X8533667Y-11251809D01*
X8505095Y-11251809D01*
X8486048Y-11242286D01*
X8476524Y-11223238D01*
X8476524Y-11213714D01*
X8486048Y-11194667D01*
X8505095Y-11185143D01*
X8533667Y-11185143D01*
X8552714Y-11194667D01*
X8628905Y-11394667D02*
X8638429Y-11385143D01*
X8657476Y-11356571D01*
X8667000Y-11337524D01*
X8676524Y-11308952D01*
X8686048Y-11261333D01*
X8686048Y-11223238D01*
X8676524Y-11175619D01*
X8667000Y-11147048D01*
X8657476Y-11128000D01*
X8638429Y-11099429D01*
X8628905Y-11089905D01*
X8990810Y-11394667D02*
X8981286Y-11385143D01*
X8962238Y-11356571D01*
X8952714Y-11337524D01*
X8943190Y-11308952D01*
X8933667Y-11261333D01*
X8933667Y-11223238D01*
X8943190Y-11175619D01*
X8952714Y-11147048D01*
X8962238Y-11128000D01*
X8981286Y-11099429D01*
X8990810Y-11089905D01*
X9067000Y-11185143D02*
X9067000Y-11318476D01*
X9067000Y-11204190D02*
X9076524Y-11194667D01*
X9095571Y-11185143D01*
X9124143Y-11185143D01*
X9143190Y-11194667D01*
X9152714Y-11213714D01*
X9152714Y-11318476D01*
X9276524Y-11318476D02*
X9257476Y-11308952D01*
X9247952Y-11299428D01*
X9238429Y-11280381D01*
X9238429Y-11223238D01*
X9247952Y-11204190D01*
X9257476Y-11194667D01*
X9276524Y-11185143D01*
X9305095Y-11185143D01*
X9324143Y-11194667D01*
X9333667Y-11204190D01*
X9343190Y-11223238D01*
X9343190Y-11280381D01*
X9333667Y-11299428D01*
X9324143Y-11308952D01*
X9305095Y-11318476D01*
X9276524Y-11318476D01*
X9400333Y-11185143D02*
X9476524Y-11185143D01*
X9428905Y-11118476D02*
X9428905Y-11289905D01*
X9438429Y-11308952D01*
X9457476Y-11318476D01*
X9476524Y-11318476D01*
X9695571Y-11185143D02*
X9695571Y-11385143D01*
X9695571Y-11194667D02*
X9714619Y-11185143D01*
X9752714Y-11185143D01*
X9771762Y-11194667D01*
X9781286Y-11204190D01*
X9790810Y-11223238D01*
X9790810Y-11280381D01*
X9781286Y-11299428D01*
X9771762Y-11308952D01*
X9752714Y-11318476D01*
X9714619Y-11318476D01*
X9695571Y-11308952D01*
X9905095Y-11318476D02*
X9886048Y-11308952D01*
X9876524Y-11289905D01*
X9876524Y-11118476D01*
X10067000Y-11318476D02*
X10067000Y-11213714D01*
X10057476Y-11194667D01*
X10038429Y-11185143D01*
X10000333Y-11185143D01*
X9981286Y-11194667D01*
X10067000Y-11308952D02*
X10047952Y-11318476D01*
X10000333Y-11318476D01*
X9981286Y-11308952D01*
X9971762Y-11289905D01*
X9971762Y-11270857D01*
X9981286Y-11251809D01*
X10000333Y-11242286D01*
X10047952Y-11242286D01*
X10067000Y-11232762D01*
X10133667Y-11185143D02*
X10209857Y-11185143D01*
X10162238Y-11118476D02*
X10162238Y-11289905D01*
X10171762Y-11308952D01*
X10190810Y-11318476D01*
X10209857Y-11318476D01*
X10352714Y-11308952D02*
X10333667Y-11318476D01*
X10295571Y-11318476D01*
X10276524Y-11308952D01*
X10267000Y-11289905D01*
X10267000Y-11213714D01*
X10276524Y-11194667D01*
X10295571Y-11185143D01*
X10333667Y-11185143D01*
X10352714Y-11194667D01*
X10362238Y-11213714D01*
X10362238Y-11232762D01*
X10267000Y-11251809D01*
X10533667Y-11318476D02*
X10533667Y-11118476D01*
X10533667Y-11308952D02*
X10514619Y-11318476D01*
X10476524Y-11318476D01*
X10457476Y-11308952D01*
X10447952Y-11299428D01*
X10438429Y-11280381D01*
X10438429Y-11223238D01*
X10447952Y-11204190D01*
X10457476Y-11194667D01*
X10476524Y-11185143D01*
X10514619Y-11185143D01*
X10533667Y-11194667D01*
X10609857Y-11394667D02*
X10619381Y-11385143D01*
X10638429Y-11356571D01*
X10647952Y-11337524D01*
X10657476Y-11308952D01*
X10667000Y-11261333D01*
X10667000Y-11223238D01*
X10657476Y-11175619D01*
X10647952Y-11147048D01*
X10638429Y-11128000D01*
X10619381Y-11099429D01*
X10609857Y-11089905D01*
M02*
