G04 #@! TF.GenerationSoftware,KiCad,Pcbnew,(6.0.2-0)*
G04 #@! TF.CreationDate,2023-03-22T16:23:10-04:00*
G04 #@! TF.ProjectId,motor_board,6d6f746f-725f-4626-9f61-72642e6b6963,rev?*
G04 #@! TF.SameCoordinates,Original*
G04 #@! TF.FileFunction,Copper,L1,Top*
G04 #@! TF.FilePolarity,Positive*
%FSLAX46Y46*%
G04 Gerber Fmt 4.6, Leading zero omitted, Abs format (unit mm)*
G04 Created by KiCad (PCBNEW (6.0.2-0)) date 2023-03-22 16:23:10*
%MOMM*%
%LPD*%
G01*
G04 APERTURE LIST*
G04 Aperture macros list*
%AMRoundRect*
0 Rectangle with rounded corners*
0 $1 Rounding radius*
0 $2 $3 $4 $5 $6 $7 $8 $9 X,Y pos of 4 corners*
0 Add a 4 corners polygon primitive as box body*
4,1,4,$2,$3,$4,$5,$6,$7,$8,$9,$2,$3,0*
0 Add four circle primitives for the rounded corners*
1,1,$1+$1,$2,$3*
1,1,$1+$1,$4,$5*
1,1,$1+$1,$6,$7*
1,1,$1+$1,$8,$9*
0 Add four rect primitives between the rounded corners*
20,1,$1+$1,$2,$3,$4,$5,0*
20,1,$1+$1,$4,$5,$6,$7,0*
20,1,$1+$1,$6,$7,$8,$9,0*
20,1,$1+$1,$8,$9,$2,$3,0*%
%AMHorizOval*
0 Thick line with rounded ends*
0 $1 width*
0 $2 $3 position (X,Y) of the first rounded end (center of the circle)*
0 $4 $5 position (X,Y) of the second rounded end (center of the circle)*
0 Add line between two ends*
20,1,$1,$2,$3,$4,$5,0*
0 Add two circle primitives to create the rounded ends*
1,1,$1,$2,$3*
1,1,$1,$4,$5*%
%AMRotRect*
0 Rectangle, with rotation*
0 The origin of the aperture is its center*
0 $1 length*
0 $2 width*
0 $3 Rotation angle, in degrees counterclockwise*
0 Add horizontal line*
21,1,$1,$2,0,0,$3*%
G04 Aperture macros list end*
G04 #@! TA.AperFunction,SMDPad,CuDef*
%ADD10RoundRect,0.135000X-0.135000X-0.185000X0.135000X-0.185000X0.135000X0.185000X-0.135000X0.185000X0*%
G04 #@! TD*
G04 #@! TA.AperFunction,SMDPad,CuDef*
%ADD11RotRect,1.500000X0.550000X60.000000*%
G04 #@! TD*
G04 #@! TA.AperFunction,SMDPad,CuDef*
%ADD12RotRect,1.500000X0.550000X150.000000*%
G04 #@! TD*
G04 #@! TA.AperFunction,SMDPad,CuDef*
%ADD13RoundRect,0.135000X0.135000X0.185000X-0.135000X0.185000X-0.135000X-0.185000X0.135000X-0.185000X0*%
G04 #@! TD*
G04 #@! TA.AperFunction,SMDPad,CuDef*
%ADD14RoundRect,0.140000X-0.077224X0.206244X-0.217224X-0.036244X0.077224X-0.206244X0.217224X0.036244X0*%
G04 #@! TD*
G04 #@! TA.AperFunction,ComponentPad*
%ADD15C,3.800000*%
G04 #@! TD*
G04 #@! TA.AperFunction,SMDPad,CuDef*
%ADD16RotRect,1.400000X1.200000X240.000000*%
G04 #@! TD*
G04 #@! TA.AperFunction,ComponentPad*
%ADD17R,1.000000X1.000000*%
G04 #@! TD*
G04 #@! TA.AperFunction,ComponentPad*
%ADD18O,1.000000X1.000000*%
G04 #@! TD*
G04 #@! TA.AperFunction,SMDPad,CuDef*
%ADD19RoundRect,0.147500X-0.147500X-0.172500X0.147500X-0.172500X0.147500X0.172500X-0.147500X0.172500X0*%
G04 #@! TD*
G04 #@! TA.AperFunction,SMDPad,CuDef*
%ADD20RoundRect,0.140000X0.140000X0.170000X-0.140000X0.170000X-0.140000X-0.170000X0.140000X-0.170000X0*%
G04 #@! TD*
G04 #@! TA.AperFunction,SMDPad,CuDef*
%ADD21R,1.450000X0.600000*%
G04 #@! TD*
G04 #@! TA.AperFunction,SMDPad,CuDef*
%ADD22R,1.450000X0.300000*%
G04 #@! TD*
G04 #@! TA.AperFunction,ComponentPad*
%ADD23O,2.100000X1.000000*%
G04 #@! TD*
G04 #@! TA.AperFunction,ComponentPad*
%ADD24O,1.600000X1.000000*%
G04 #@! TD*
G04 #@! TA.AperFunction,SMDPad,CuDef*
%ADD25RoundRect,0.140000X0.206244X0.077224X-0.036244X0.217224X-0.206244X-0.077224X0.036244X-0.217224X0*%
G04 #@! TD*
G04 #@! TA.AperFunction,ComponentPad*
%ADD26RotRect,1.000000X1.000000X60.000000*%
G04 #@! TD*
G04 #@! TA.AperFunction,ComponentPad*
%ADD27HorizOval,1.000000X0.000000X0.000000X0.000000X0.000000X0*%
G04 #@! TD*
G04 #@! TA.AperFunction,SMDPad,CuDef*
%ADD28RoundRect,0.140000X-0.206244X-0.077224X0.036244X-0.217224X0.206244X0.077224X-0.036244X0.217224X0*%
G04 #@! TD*
G04 #@! TA.AperFunction,SMDPad,CuDef*
%ADD29RotRect,2.750000X1.000000X150.000000*%
G04 #@! TD*
G04 #@! TA.AperFunction,ViaPad*
%ADD30C,0.800000*%
G04 #@! TD*
G04 #@! TA.AperFunction,Conductor*
%ADD31C,0.250000*%
G04 #@! TD*
G04 #@! TA.AperFunction,Conductor*
%ADD32C,0.200000*%
G04 #@! TD*
G04 APERTURE END LIST*
D10*
X48220000Y-101360000D03*
X49240000Y-101360000D03*
D11*
X49435898Y-97366345D03*
X50128719Y-97766345D03*
X50821539Y-98166345D03*
X51514359Y-98566345D03*
X52207180Y-98966345D03*
X52900000Y-99366345D03*
X53592820Y-99766345D03*
X54285641Y-100166345D03*
X54978461Y-100566345D03*
X55671281Y-100966345D03*
X56364102Y-101366345D03*
D12*
X58686345Y-100744102D03*
X59086345Y-100051281D03*
X59486345Y-99358461D03*
X59886345Y-98665641D03*
X60286345Y-97972820D03*
X60686345Y-97280000D03*
X61086345Y-96587180D03*
X61486345Y-95894359D03*
X61886345Y-95201539D03*
X62286345Y-94508719D03*
X62686345Y-93815898D03*
D11*
X62064102Y-91493655D03*
X61371281Y-91093655D03*
X60678461Y-90693655D03*
X59985641Y-90293655D03*
X59292820Y-89893655D03*
X58600000Y-89493655D03*
X57907180Y-89093655D03*
X57214359Y-88693655D03*
X56521539Y-88293655D03*
X55828719Y-87893655D03*
X55135898Y-87493655D03*
D12*
X52813655Y-88115898D03*
X52413655Y-88808719D03*
X52013655Y-89501539D03*
X51613655Y-90194359D03*
X51213655Y-90887180D03*
X50813655Y-91580000D03*
X50413655Y-92272820D03*
X50013655Y-92965641D03*
X49613655Y-93658461D03*
X49213655Y-94351281D03*
X48813655Y-95044102D03*
D13*
X46980000Y-90270000D03*
X45960000Y-90270000D03*
D14*
X51040000Y-87044308D03*
X50560000Y-87875692D03*
D15*
X84010000Y-103390000D03*
D16*
X63963878Y-97982372D03*
X62863878Y-99887628D03*
X64336122Y-100737628D03*
X65436122Y-98832372D03*
D17*
X66085000Y-104290000D03*
D18*
X67355000Y-104290000D03*
X68625000Y-104290000D03*
X69895000Y-104290000D03*
X71165000Y-104290000D03*
X72435000Y-104290000D03*
D19*
X48105000Y-90270000D03*
X49075000Y-90270000D03*
D20*
X46590000Y-95050000D03*
X45630000Y-95050000D03*
D21*
X46560000Y-97515000D03*
X46560000Y-98290000D03*
D22*
X46560000Y-98990000D03*
X46560000Y-99490000D03*
X46560000Y-99990000D03*
X46560000Y-100490000D03*
X46560000Y-100990000D03*
X46560000Y-101490000D03*
X46560000Y-101990000D03*
X46560000Y-102490000D03*
D21*
X46560000Y-103190000D03*
X46560000Y-103965000D03*
D23*
X45645000Y-105060000D03*
D24*
X41465000Y-96420000D03*
X41465000Y-105060000D03*
D23*
X45645000Y-96420000D03*
D25*
X63515692Y-102170000D03*
X62684308Y-101690000D03*
D10*
X48220000Y-100240000D03*
X49240000Y-100240000D03*
D14*
X49900000Y-86354308D03*
X49420000Y-87185692D03*
D25*
X47995692Y-92730000D03*
X47164308Y-92250000D03*
D17*
X40800000Y-94035000D03*
D18*
X40800000Y-92765000D03*
X40800000Y-91495000D03*
X40800000Y-90225000D03*
X40800000Y-88955000D03*
X40800000Y-87685000D03*
D25*
X52135692Y-101070000D03*
X51304308Y-100590000D03*
D26*
X45660369Y-80422500D03*
D27*
X46760221Y-81057500D03*
X47860074Y-81692500D03*
X48959926Y-82327500D03*
X50059778Y-82962500D03*
X51159630Y-83597500D03*
D26*
X66730000Y-92490000D03*
D27*
X67829852Y-93125000D03*
X68929705Y-93760000D03*
X70029557Y-94395000D03*
X71129409Y-95030000D03*
D28*
X65464308Y-96890000D03*
X66295692Y-97370000D03*
D17*
X58705000Y-104110000D03*
D18*
X57435000Y-104110000D03*
X56165000Y-104110000D03*
X54895000Y-104110000D03*
X53625000Y-104110000D03*
X52355000Y-104110000D03*
D15*
X41200000Y-78870000D03*
D29*
X72845847Y-100492051D03*
X77834153Y-103372051D03*
X74845847Y-97027949D03*
X79834153Y-99907949D03*
D30*
X61050000Y-100510000D03*
X63610000Y-92050000D03*
X70980000Y-98090000D03*
X51900000Y-93470000D03*
X66580000Y-99870000D03*
X44840000Y-90600000D03*
X58340000Y-97750000D03*
X53650000Y-86570000D03*
X69160000Y-101440000D03*
X60860000Y-92380000D03*
X47400000Y-84620000D03*
X63560000Y-93270000D03*
X70180000Y-100300000D03*
X41540000Y-98770000D03*
X55300000Y-98760000D03*
X57180000Y-100070000D03*
X40150000Y-99640000D03*
X53190000Y-90710000D03*
X54940000Y-94190000D03*
X54030000Y-89770000D03*
X57160000Y-94820000D03*
X56400000Y-90040000D03*
X72450000Y-102480000D03*
X54010000Y-97860000D03*
X47970000Y-98040000D03*
X76500000Y-105230000D03*
X62130000Y-104280000D03*
X59840000Y-93840000D03*
X58850000Y-94410000D03*
X59540000Y-95640000D03*
X59860000Y-91760000D03*
X61260000Y-89240000D03*
X60150000Y-88350000D03*
X48160000Y-85360000D03*
X48880000Y-84310000D03*
D31*
X49613655Y-93658461D02*
X47995692Y-92730000D01*
X47164308Y-92250000D02*
X46850000Y-92730000D01*
X50560000Y-87875692D02*
X52413655Y-88808719D01*
X46980000Y-93100000D02*
X49213655Y-94351281D01*
X61110000Y-99460000D02*
X61050000Y-100510000D01*
X59886345Y-98665641D02*
X61110000Y-99460000D01*
X46850000Y-92730000D02*
X46980000Y-93100000D01*
X51304308Y-100590000D02*
X51511936Y-100382372D01*
X49420000Y-87185692D02*
X50560000Y-87875692D01*
X51511936Y-100382372D02*
X51511936Y-99677884D01*
X51511936Y-99677884D02*
X52207180Y-98982640D01*
X52207180Y-98982640D02*
X52207180Y-98966345D01*
X60686345Y-97280000D02*
X61740000Y-97880000D01*
X65070000Y-96680000D02*
X64600000Y-96770000D01*
X64600000Y-96770000D02*
X63963878Y-97982372D01*
X65070000Y-96680000D02*
X65464308Y-96890000D01*
X63050000Y-97510000D02*
X63963878Y-97982372D01*
X61740000Y-97880000D02*
X63050000Y-97510000D01*
X48813655Y-95044102D02*
X52730000Y-97470000D01*
X58630000Y-98870000D02*
X58340000Y-97750000D01*
X51130000Y-104830000D02*
X50770000Y-103400000D01*
X52135692Y-100146949D02*
X52908148Y-99374493D01*
X60800000Y-91990000D02*
X60860000Y-92380000D01*
X51690000Y-105330000D02*
X51130000Y-104830000D01*
X53080000Y-97700000D02*
X53390000Y-98430000D01*
X52135692Y-101070000D02*
X52135692Y-100146949D01*
X52730000Y-97470000D02*
X53080000Y-97700000D01*
X56165000Y-104110000D02*
X56180000Y-104900000D01*
X50770000Y-103400000D02*
X52135692Y-101070000D01*
X56180000Y-104900000D02*
X55890000Y-105380000D01*
X51040000Y-87044308D02*
X52813655Y-88115898D01*
X55135898Y-87493655D02*
X53650000Y-86570000D01*
X55890000Y-105380000D02*
X51690000Y-105330000D01*
X52813655Y-88115898D02*
X53650000Y-86570000D01*
X61371281Y-91093655D02*
X60800000Y-91990000D01*
X59486345Y-99358461D02*
X58630000Y-98870000D01*
X49900000Y-86354308D02*
X51040000Y-87044308D01*
X53390000Y-98430000D02*
X52900000Y-99366345D01*
X63515692Y-102170000D02*
X64336122Y-100737628D01*
X64120000Y-99370000D02*
X64336122Y-100737628D01*
X61890000Y-98920000D02*
X62540000Y-98520000D01*
X60286345Y-97972820D02*
X61890000Y-98920000D01*
X62540000Y-98520000D02*
X64120000Y-99370000D01*
X61486345Y-95894359D02*
X62510000Y-96440000D01*
X62960000Y-96310000D02*
X65440000Y-92580000D01*
X62510000Y-96440000D02*
X62960000Y-96310000D01*
X65440000Y-92580000D02*
X66730000Y-92490000D01*
X66820000Y-93580000D02*
X67829852Y-93125000D01*
X62290000Y-97200000D02*
X63260000Y-96900000D01*
X61086345Y-96587180D02*
X62290000Y-97200000D01*
X65520000Y-93550000D02*
X66820000Y-93580000D01*
X63260000Y-96900000D02*
X65520000Y-93550000D01*
X39390000Y-96650000D02*
X39390000Y-93710000D01*
X55900000Y-99170000D02*
X56270000Y-99890000D01*
X41540000Y-98770000D02*
X41510000Y-98770000D01*
X56270000Y-99890000D02*
X55671281Y-100966345D01*
X39740000Y-93280000D02*
X40800000Y-92765000D01*
X55300000Y-98760000D02*
X55900000Y-99170000D01*
X41510000Y-98770000D02*
X39390000Y-96650000D01*
X39390000Y-93710000D02*
X39740000Y-93280000D01*
X56364102Y-101366345D02*
X57180000Y-100070000D01*
X40800000Y-91495000D02*
X39040000Y-93320000D01*
X40150000Y-99640000D02*
X38910000Y-99040000D01*
X39040000Y-93320000D02*
X38930000Y-93430000D01*
X38930000Y-93430000D02*
X38910000Y-99040000D01*
X54978461Y-100566345D02*
X54260000Y-101670000D01*
X54260000Y-101670000D02*
X54250000Y-102950000D01*
X54250000Y-102950000D02*
X54895000Y-104110000D01*
X53630000Y-101630000D02*
X53625000Y-104110000D01*
X54285641Y-100166345D02*
X53630000Y-101630000D01*
X54940000Y-94190000D02*
X53190000Y-90710000D01*
X57160000Y-94820000D02*
X54030000Y-89770000D01*
X49410000Y-81710000D02*
X48959926Y-82327500D01*
X59450000Y-87880000D02*
X58600000Y-89493655D01*
X59140000Y-86900000D02*
X59450000Y-87880000D01*
X50460000Y-81700000D02*
X49410000Y-81710000D01*
X59060000Y-86690000D02*
X50460000Y-81700000D01*
X59140000Y-86900000D02*
X59060000Y-86690000D01*
X58110000Y-86930000D02*
X58000000Y-86750000D01*
X50880000Y-82470000D02*
X50460000Y-82410000D01*
X57890000Y-86550000D02*
X50880000Y-82470000D01*
X58110000Y-86930000D02*
X58570000Y-87880000D01*
X58570000Y-87880000D02*
X57907180Y-89093655D01*
X50460000Y-82410000D02*
X50059778Y-82962500D01*
X58000000Y-86750000D02*
X57890000Y-86550000D01*
X61580000Y-105220000D02*
X60280000Y-104180000D01*
X66970000Y-105390000D02*
X61580000Y-105220000D01*
X60290000Y-102140000D02*
X60030000Y-101560000D01*
X67355000Y-104290000D02*
X67340000Y-105150000D01*
X60030000Y-101560000D02*
X58686345Y-100744102D01*
X67340000Y-105150000D02*
X66970000Y-105390000D01*
X60280000Y-104180000D02*
X60290000Y-102140000D01*
X56400000Y-90040000D02*
X57214359Y-88693655D01*
X72435000Y-104290000D02*
X72450000Y-102480000D01*
X46560000Y-100490000D02*
X47970000Y-100490000D01*
X47970000Y-100490000D02*
X48220000Y-100240000D01*
D32*
X49710000Y-100030000D02*
X50821539Y-98166345D01*
X49710000Y-100030000D02*
X49240000Y-100240000D01*
D31*
X47850000Y-100990000D02*
X48220000Y-101360000D01*
X46560000Y-100990000D02*
X47850000Y-100990000D01*
D32*
X50220000Y-100680000D02*
X51514359Y-98566345D01*
X49240000Y-101360000D02*
X50220000Y-100680000D01*
D31*
X46590000Y-95050000D02*
X47980000Y-96160000D01*
X47970000Y-98040000D02*
X47980000Y-96160000D01*
X54010000Y-97860000D02*
X54270000Y-98520000D01*
X54270000Y-98520000D02*
X53592820Y-99766345D01*
X46560000Y-98290000D02*
X47970000Y-98040000D01*
X77834153Y-103372051D02*
X72845847Y-100492051D01*
X61100000Y-102440000D02*
X61070000Y-103390000D01*
X59086345Y-100051281D02*
X60530000Y-101090000D01*
X61070000Y-103390000D02*
X62130000Y-104280000D01*
X60530000Y-101090000D02*
X61100000Y-102440000D01*
X76500000Y-105230000D02*
X77834153Y-103372051D01*
X60520000Y-94200000D02*
X61230000Y-93950000D01*
X59840000Y-93840000D02*
X60520000Y-94200000D01*
X61230000Y-93950000D02*
X62286345Y-94508719D01*
X60930000Y-94680000D02*
X61886345Y-95201539D01*
X60070000Y-95030000D02*
X60930000Y-94680000D01*
X58850000Y-94410000D02*
X60070000Y-95030000D01*
X58410000Y-95270000D02*
X58010000Y-94290000D01*
X58220000Y-93790000D02*
X58670000Y-92760000D01*
X61440000Y-93410000D02*
X61830000Y-93320000D01*
X58010000Y-94290000D02*
X58220000Y-93790000D01*
X61830000Y-93320000D02*
X62686345Y-93815898D01*
X59480000Y-92420000D02*
X61260000Y-93470000D01*
X58670000Y-92760000D02*
X59270000Y-92510000D01*
X59540000Y-95640000D02*
X58410000Y-95270000D01*
X59270000Y-92510000D02*
X59480000Y-92420000D01*
X61260000Y-93470000D02*
X61440000Y-93410000D01*
X59860000Y-91760000D02*
X60678461Y-90693655D01*
X60560000Y-89260000D02*
X59985641Y-90293655D01*
X61260000Y-89240000D02*
X60560000Y-89260000D01*
X60150000Y-88350000D02*
X59292820Y-89893655D01*
X56230000Y-86840000D02*
X56210000Y-87260000D01*
X52830000Y-84810000D02*
X56230000Y-86840000D01*
X55828719Y-87893655D02*
X56210000Y-87260000D01*
X49990000Y-84730000D02*
X51160000Y-85430000D01*
X51160000Y-85430000D02*
X52830000Y-84810000D01*
X48160000Y-85360000D02*
X49990000Y-84730000D01*
X57080000Y-87390000D02*
X57200000Y-87200000D01*
X52610000Y-84030000D02*
X57110000Y-86760000D01*
X48880000Y-84310000D02*
X49970000Y-83970000D01*
X51160000Y-84670000D02*
X52610000Y-84030000D01*
X57200000Y-87200000D02*
X57110000Y-86760000D01*
X49970000Y-83970000D02*
X51160000Y-84670000D01*
X56521539Y-88293655D02*
X57080000Y-87390000D01*
X50070000Y-90270000D02*
X49075000Y-90270000D01*
X51213655Y-90887180D02*
X50070000Y-90270000D01*
X48105000Y-90270000D02*
X46980000Y-90270000D01*
G04 #@! TA.AperFunction,Conductor*
G36*
X43656785Y-77963994D02*
G01*
X43670647Y-77970885D01*
X45458354Y-79001054D01*
X45507390Y-79052396D01*
X45520883Y-79122099D01*
X45494551Y-79188031D01*
X45436753Y-79229261D01*
X45410472Y-79235326D01*
X45353306Y-79242193D01*
X45353303Y-79242194D01*
X45344394Y-79243264D01*
X45329096Y-79249805D01*
X45218718Y-79296998D01*
X45218716Y-79296999D01*
X45210465Y-79300527D01*
X45203531Y-79306232D01*
X45203532Y-79306232D01*
X45104095Y-79388054D01*
X45104093Y-79388056D01*
X45097990Y-79393078D01*
X45061049Y-79443552D01*
X44512915Y-80392948D01*
X44487674Y-80450177D01*
X44486378Y-80457964D01*
X44486377Y-80457967D01*
X44468011Y-80568318D01*
X44463760Y-80593858D01*
X44464831Y-80602772D01*
X44475790Y-80693995D01*
X44481133Y-80738475D01*
X44538396Y-80872404D01*
X44544101Y-80879337D01*
X44623252Y-80975527D01*
X44630947Y-80984879D01*
X44681421Y-81021820D01*
X45630817Y-81569954D01*
X45688046Y-81595195D01*
X45695833Y-81596491D01*
X45695836Y-81596492D01*
X45822869Y-81617635D01*
X45822871Y-81617635D01*
X45831727Y-81619109D01*
X45840642Y-81618038D01*
X45840910Y-81618006D01*
X45841174Y-81618050D01*
X45849616Y-81618242D01*
X45849588Y-81619460D01*
X45910930Y-81629741D01*
X45954683Y-81664842D01*
X46027426Y-81756621D01*
X46031256Y-81761453D01*
X46181871Y-81889636D01*
X46354515Y-81986124D01*
X46542613Y-82047240D01*
X46738998Y-82070658D01*
X46745133Y-82070186D01*
X46745135Y-82070186D01*
X46816600Y-82064687D01*
X46830111Y-82063647D01*
X46899566Y-82078364D01*
X46951844Y-82131681D01*
X47008261Y-82241456D01*
X47131109Y-82396453D01*
X47281724Y-82524636D01*
X47454368Y-82621124D01*
X47642466Y-82682240D01*
X47838851Y-82705658D01*
X47844986Y-82705186D01*
X47844988Y-82705186D01*
X47908064Y-82700332D01*
X47929963Y-82698647D01*
X47999418Y-82713364D01*
X48051696Y-82766681D01*
X48108113Y-82876456D01*
X48230961Y-83031453D01*
X48381576Y-83159636D01*
X48386953Y-83162641D01*
X48538188Y-83247164D01*
X48587893Y-83297858D01*
X48602301Y-83367377D01*
X48576837Y-83433650D01*
X48527965Y-83472259D01*
X48429281Y-83516195D01*
X48429274Y-83516199D01*
X48423248Y-83518882D01*
X48268747Y-83631134D01*
X48140960Y-83773056D01*
X48137661Y-83778769D01*
X48137658Y-83778774D01*
X48104235Y-83836665D01*
X48052852Y-83885658D01*
X47983138Y-83899094D01*
X47921055Y-83875601D01*
X47862094Y-83832763D01*
X47862093Y-83832762D01*
X47856752Y-83828882D01*
X47850724Y-83826198D01*
X47850722Y-83826197D01*
X47688319Y-83753891D01*
X47688318Y-83753891D01*
X47682288Y-83751206D01*
X47588888Y-83731353D01*
X47501944Y-83712872D01*
X47501939Y-83712872D01*
X47495487Y-83711500D01*
X47304513Y-83711500D01*
X47298061Y-83712872D01*
X47298056Y-83712872D01*
X47211112Y-83731353D01*
X47117712Y-83751206D01*
X47111682Y-83753891D01*
X47111681Y-83753891D01*
X46949278Y-83826197D01*
X46949276Y-83826198D01*
X46943248Y-83828882D01*
X46937907Y-83832762D01*
X46937906Y-83832763D01*
X46887843Y-83869136D01*
X46788747Y-83941134D01*
X46784326Y-83946044D01*
X46784325Y-83946045D01*
X46772379Y-83959313D01*
X46660960Y-84083056D01*
X46565473Y-84248444D01*
X46506458Y-84430072D01*
X46486496Y-84620000D01*
X46506458Y-84809928D01*
X46565473Y-84991556D01*
X46660960Y-85156944D01*
X46788747Y-85298866D01*
X46943248Y-85411118D01*
X46949276Y-85413802D01*
X46949278Y-85413803D01*
X47111681Y-85486109D01*
X47117712Y-85488794D01*
X47124167Y-85490166D01*
X47124176Y-85490169D01*
X47185001Y-85503098D01*
X47247474Y-85536826D01*
X47278636Y-85587408D01*
X47325473Y-85731556D01*
X47420960Y-85896944D01*
X47425378Y-85901851D01*
X47425379Y-85901852D01*
X47536751Y-86025543D01*
X47548747Y-86038866D01*
X47620262Y-86090825D01*
X47664564Y-86123012D01*
X47703248Y-86151118D01*
X47709276Y-86153802D01*
X47709278Y-86153803D01*
X47871681Y-86226109D01*
X47877712Y-86228794D01*
X47971113Y-86248647D01*
X48058056Y-86267128D01*
X48058061Y-86267128D01*
X48064513Y-86268500D01*
X48255487Y-86268500D01*
X48261939Y-86267128D01*
X48261944Y-86267128D01*
X48348887Y-86248647D01*
X48442288Y-86228794D01*
X48448319Y-86226109D01*
X48610722Y-86153803D01*
X48610724Y-86153802D01*
X48616752Y-86151118D01*
X48655437Y-86123012D01*
X48699738Y-86090825D01*
X48771253Y-86038866D01*
X48783249Y-86025543D01*
X48894621Y-85901852D01*
X48894622Y-85901851D01*
X48899040Y-85896944D01*
X48962945Y-85786258D01*
X49014328Y-85737265D01*
X49031050Y-85730120D01*
X49067134Y-85717698D01*
X49138056Y-85714437D01*
X49199482Y-85750037D01*
X49231910Y-85813195D01*
X49225045Y-85883859D01*
X49217267Y-85899836D01*
X49088416Y-86123012D01*
X49072537Y-86156303D01*
X49071004Y-86162545D01*
X49071002Y-86162550D01*
X49051069Y-86243705D01*
X49033454Y-86315422D01*
X49033537Y-86323349D01*
X49033658Y-86334886D01*
X49014371Y-86403212D01*
X48969521Y-86445978D01*
X48960260Y-86451197D01*
X48947627Y-86460579D01*
X48857146Y-86547345D01*
X48850129Y-86559580D01*
X48854776Y-86566066D01*
X49095474Y-86705033D01*
X49142245Y-86752297D01*
X49158011Y-86780277D01*
X49163493Y-86785993D01*
X49163494Y-86785995D01*
X49217143Y-86841939D01*
X49271418Y-86898536D01*
X49286792Y-86909102D01*
X49299767Y-86918020D01*
X49299776Y-86918026D01*
X49301815Y-86919427D01*
X49709685Y-87154911D01*
X49711909Y-87155972D01*
X49711917Y-87155976D01*
X49726317Y-87162844D01*
X49742976Y-87170790D01*
X49749225Y-87172325D01*
X49749228Y-87172326D01*
X49894398Y-87207984D01*
X49894403Y-87207985D01*
X49902095Y-87209874D01*
X49910022Y-87209791D01*
X49934210Y-87209538D01*
X49998528Y-87226412D01*
X50208898Y-87347868D01*
X50255668Y-87395130D01*
X50298011Y-87470277D01*
X50303493Y-87475993D01*
X50303494Y-87475995D01*
X50309506Y-87482264D01*
X50411418Y-87588536D01*
X50426792Y-87599102D01*
X50439767Y-87608020D01*
X50439776Y-87608026D01*
X50441815Y-87609427D01*
X50849685Y-87844911D01*
X50851909Y-87845972D01*
X50851917Y-87845976D01*
X50861063Y-87850338D01*
X50882976Y-87860790D01*
X50889225Y-87862325D01*
X50889228Y-87862326D01*
X51034398Y-87897984D01*
X51034403Y-87897985D01*
X51042095Y-87899874D01*
X51050022Y-87899791D01*
X51074210Y-87899538D01*
X51138528Y-87916412D01*
X51341464Y-88033577D01*
X51356899Y-88037322D01*
X51365708Y-88034273D01*
X51436624Y-88030896D01*
X51472079Y-88045502D01*
X51478575Y-88049427D01*
X51526532Y-88101778D01*
X51530380Y-88112033D01*
X51530412Y-88112019D01*
X51570342Y-88205408D01*
X51578732Y-88275907D01*
X51547675Y-88339750D01*
X51487031Y-88376668D01*
X51469520Y-88380043D01*
X51368673Y-88392158D01*
X51306940Y-88418553D01*
X51236442Y-88426943D01*
X51236246Y-88426903D01*
X51233966Y-88427692D01*
X51224519Y-88438083D01*
X51163895Y-88475033D01*
X51092919Y-88473343D01*
X51068286Y-88462445D01*
X50668659Y-88231720D01*
X50653224Y-88227975D01*
X50651484Y-88228578D01*
X50646197Y-88234394D01*
X50395758Y-88668166D01*
X50392123Y-88683152D01*
X50400237Y-88689965D01*
X50409403Y-88693239D01*
X50554454Y-88728866D01*
X50570080Y-88730674D01*
X50717937Y-88729126D01*
X50733530Y-88726990D01*
X50763990Y-88718828D01*
X50834966Y-88720516D01*
X50893763Y-88760309D01*
X50921712Y-88825573D01*
X50909939Y-88895587D01*
X50905722Y-88903534D01*
X50824743Y-89043794D01*
X50762195Y-89152131D01*
X50736954Y-89209360D01*
X50734733Y-89208380D01*
X50720312Y-89233360D01*
X50722270Y-89234793D01*
X50685329Y-89285267D01*
X50541167Y-89534963D01*
X50484033Y-89633922D01*
X50432651Y-89682915D01*
X50362937Y-89696351D01*
X50319418Y-89682942D01*
X50319378Y-89683042D01*
X50318094Y-89682533D01*
X50314217Y-89681339D01*
X50314116Y-89681283D01*
X50305060Y-89676305D01*
X50270958Y-89667549D01*
X50256823Y-89663018D01*
X50256055Y-89662721D01*
X50223976Y-89650308D01*
X50216108Y-89649376D01*
X50216107Y-89649376D01*
X50194904Y-89646865D01*
X50178390Y-89643781D01*
X50157711Y-89638472D01*
X50157710Y-89638472D01*
X50150030Y-89636500D01*
X50114812Y-89636500D01*
X50099995Y-89635626D01*
X50095351Y-89635076D01*
X50065026Y-89631485D01*
X50057175Y-89632539D01*
X50057173Y-89632539D01*
X50036012Y-89635380D01*
X50019247Y-89636500D01*
X49741415Y-89636500D01*
X49673294Y-89616498D01*
X49652320Y-89599595D01*
X49627763Y-89575038D01*
X49617307Y-89568854D01*
X49491923Y-89494703D01*
X49491921Y-89494702D01*
X49485100Y-89490668D01*
X49477489Y-89488457D01*
X49477487Y-89488456D01*
X49407420Y-89468100D01*
X49325937Y-89444427D01*
X49319532Y-89443923D01*
X49319527Y-89443922D01*
X49291203Y-89441693D01*
X49291195Y-89441693D01*
X49288747Y-89441500D01*
X49075130Y-89441500D01*
X48861254Y-89441501D01*
X48824063Y-89444427D01*
X48762375Y-89462349D01*
X48672513Y-89488456D01*
X48672511Y-89488457D01*
X48664900Y-89490668D01*
X48654140Y-89497032D01*
X48585326Y-89514492D01*
X48525861Y-89497032D01*
X48515100Y-89490668D01*
X48507489Y-89488457D01*
X48507487Y-89488456D01*
X48437420Y-89468100D01*
X48355937Y-89444427D01*
X48349532Y-89443923D01*
X48349527Y-89443922D01*
X48321203Y-89441693D01*
X48321195Y-89441693D01*
X48318747Y-89441500D01*
X48105130Y-89441500D01*
X47891254Y-89441501D01*
X47854063Y-89444427D01*
X47792375Y-89462349D01*
X47702513Y-89488456D01*
X47702511Y-89488457D01*
X47694900Y-89490668D01*
X47688075Y-89494704D01*
X47688071Y-89494706D01*
X47598679Y-89547572D01*
X47529863Y-89565032D01*
X47470401Y-89547572D01*
X47379425Y-89493769D01*
X47379421Y-89493767D01*
X47372596Y-89489731D01*
X47364985Y-89487520D01*
X47364983Y-89487519D01*
X47222644Y-89446166D01*
X47222645Y-89446166D01*
X47216466Y-89444371D01*
X47210059Y-89443867D01*
X47210055Y-89443866D01*
X47182444Y-89441693D01*
X47182438Y-89441693D01*
X47179989Y-89441500D01*
X46980122Y-89441500D01*
X46780012Y-89441501D01*
X46743534Y-89444371D01*
X46646730Y-89472495D01*
X46595017Y-89487519D01*
X46595015Y-89487520D01*
X46587404Y-89489731D01*
X46533647Y-89521523D01*
X46464834Y-89538982D01*
X46405370Y-89521522D01*
X46359220Y-89494229D01*
X46344783Y-89487981D01*
X46231395Y-89455039D01*
X46217295Y-89455079D01*
X46214000Y-89462349D01*
X46214000Y-89932458D01*
X46208997Y-89967610D01*
X46206166Y-89977353D01*
X46206165Y-89977360D01*
X46204371Y-89983534D01*
X46203867Y-89989941D01*
X46203866Y-89989945D01*
X46201693Y-90017556D01*
X46201500Y-90020011D01*
X46201501Y-90519988D01*
X46204371Y-90556466D01*
X46206167Y-90562648D01*
X46206168Y-90562653D01*
X46208997Y-90572390D01*
X46214000Y-90607542D01*
X46214000Y-91071900D01*
X46217973Y-91085431D01*
X46225871Y-91086566D01*
X46344783Y-91052019D01*
X46359220Y-91045771D01*
X46405370Y-91018478D01*
X46474187Y-91001018D01*
X46533646Y-91018477D01*
X46587404Y-91050269D01*
X46595015Y-91052480D01*
X46595017Y-91052481D01*
X46661858Y-91071900D01*
X46743534Y-91095629D01*
X46749941Y-91096133D01*
X46749945Y-91096134D01*
X46777556Y-91098307D01*
X46777562Y-91098307D01*
X46780011Y-91098500D01*
X46979878Y-91098500D01*
X47179988Y-91098499D01*
X47216466Y-91095629D01*
X47313270Y-91067505D01*
X47364983Y-91052481D01*
X47364985Y-91052480D01*
X47372596Y-91050269D01*
X47379421Y-91046233D01*
X47379425Y-91046231D01*
X47470401Y-90992428D01*
X47539217Y-90974968D01*
X47598679Y-90992428D01*
X47688071Y-91045294D01*
X47688075Y-91045296D01*
X47694900Y-91049332D01*
X47702511Y-91051543D01*
X47702513Y-91051544D01*
X47753196Y-91066268D01*
X47854063Y-91095573D01*
X47860468Y-91096077D01*
X47860473Y-91096078D01*
X47888797Y-91098307D01*
X47888805Y-91098307D01*
X47891253Y-91098500D01*
X48104870Y-91098500D01*
X48318746Y-91098499D01*
X48355937Y-91095573D01*
X48454017Y-91067078D01*
X48507487Y-91051544D01*
X48507489Y-91051543D01*
X48515100Y-91049332D01*
X48525860Y-91042968D01*
X48594674Y-91025508D01*
X48654139Y-91042968D01*
X48664900Y-91049332D01*
X48672511Y-91051543D01*
X48672513Y-91051544D01*
X48723196Y-91066268D01*
X48824063Y-91095573D01*
X48830468Y-91096077D01*
X48830473Y-91096078D01*
X48858797Y-91098307D01*
X48858805Y-91098307D01*
X48861253Y-91098500D01*
X49074870Y-91098500D01*
X49288746Y-91098499D01*
X49325937Y-91095573D01*
X49405741Y-91072388D01*
X49476738Y-91072591D01*
X49536354Y-91111145D01*
X49565662Y-91175810D01*
X49556179Y-91244232D01*
X49536954Y-91287821D01*
X49534733Y-91286841D01*
X49520312Y-91311821D01*
X49522270Y-91313254D01*
X49485329Y-91363728D01*
X49162195Y-91923412D01*
X49136954Y-91980641D01*
X49134720Y-91979656D01*
X49120298Y-92004632D01*
X49122270Y-92006075D01*
X49085329Y-92056549D01*
X48967820Y-92260080D01*
X48955397Y-92281598D01*
X48904015Y-92330591D01*
X48834301Y-92344027D01*
X48768390Y-92317641D01*
X48736505Y-92280452D01*
X48730590Y-92269955D01*
X48726700Y-92263051D01*
X48719659Y-92255708D01*
X48643684Y-92176483D01*
X48613293Y-92144791D01*
X48597545Y-92133968D01*
X48584944Y-92125307D01*
X48584935Y-92125301D01*
X48582896Y-92123900D01*
X48226988Y-91918416D01*
X48224764Y-91917355D01*
X48224756Y-91917351D01*
X48199503Y-91905306D01*
X48199500Y-91905305D01*
X48193697Y-91902537D01*
X48187455Y-91901004D01*
X48187450Y-91901002D01*
X48070100Y-91872179D01*
X48034578Y-91863454D01*
X48015113Y-91863658D01*
X47946788Y-91844371D01*
X47904022Y-91799521D01*
X47898803Y-91790260D01*
X47889421Y-91777627D01*
X47802655Y-91687146D01*
X47790420Y-91680129D01*
X47783934Y-91684776D01*
X47644967Y-91925474D01*
X47597703Y-91972245D01*
X47569723Y-91988011D01*
X47564007Y-91993493D01*
X47564005Y-91993494D01*
X47504253Y-92050795D01*
X47451464Y-92101418D01*
X47447815Y-92106728D01*
X47431980Y-92129767D01*
X47431974Y-92129776D01*
X47430573Y-92131815D01*
X47195089Y-92539685D01*
X47194028Y-92541909D01*
X47194024Y-92541917D01*
X47190393Y-92549530D01*
X47179210Y-92572976D01*
X47177675Y-92579225D01*
X47177674Y-92579228D01*
X47142016Y-92724398D01*
X47142015Y-92724403D01*
X47140126Y-92732095D01*
X47140209Y-92740022D01*
X47140462Y-92764210D01*
X47123588Y-92828528D01*
X46987499Y-93064241D01*
X46984174Y-93077946D01*
X46990447Y-93082879D01*
X47117780Y-93114154D01*
X47133409Y-93115962D01*
X47144038Y-93115851D01*
X47212364Y-93135140D01*
X47255128Y-93179990D01*
X47264684Y-93196949D01*
X47270168Y-93202668D01*
X47270169Y-93202669D01*
X47308222Y-93242350D01*
X47378091Y-93315209D01*
X47386817Y-93321206D01*
X47406440Y-93334693D01*
X47406449Y-93334699D01*
X47408488Y-93336100D01*
X47764396Y-93541584D01*
X47766620Y-93542645D01*
X47766628Y-93542649D01*
X47791881Y-93554694D01*
X47791884Y-93554695D01*
X47797687Y-93557463D01*
X47803929Y-93558996D01*
X47803934Y-93558998D01*
X47892540Y-93580761D01*
X47956806Y-93596546D01*
X48120646Y-93594831D01*
X48144941Y-93588321D01*
X48215915Y-93590009D01*
X48240265Y-93600743D01*
X48292651Y-93630805D01*
X48341779Y-93682059D01*
X48345792Y-93690553D01*
X48370342Y-93747970D01*
X48378732Y-93818469D01*
X48347675Y-93882313D01*
X48287032Y-93919231D01*
X48269520Y-93922606D01*
X48168673Y-93934721D01*
X48123621Y-93953984D01*
X48120613Y-93955270D01*
X48050113Y-93963659D01*
X48021804Y-93953474D01*
X47997449Y-93947566D01*
X47995710Y-93948168D01*
X47990423Y-93953984D01*
X47964359Y-93999127D01*
X47961273Y-94005211D01*
X47937435Y-94059254D01*
X47935054Y-94058204D01*
X47920534Y-94083265D01*
X47922270Y-94084536D01*
X47885329Y-94135010D01*
X47605087Y-94620403D01*
X47569718Y-94681664D01*
X47518336Y-94730657D01*
X47448622Y-94744093D01*
X47382711Y-94717707D01*
X47339602Y-94653818D01*
X47332105Y-94628014D01*
X47329894Y-94620403D01*
X47316513Y-94597776D01*
X47250522Y-94486192D01*
X47246488Y-94479371D01*
X47130629Y-94363512D01*
X47029115Y-94303477D01*
X46996420Y-94284141D01*
X46996419Y-94284141D01*
X46989597Y-94280106D01*
X46981986Y-94277895D01*
X46981984Y-94277894D01*
X46908144Y-94256442D01*
X46832254Y-94234394D01*
X46825849Y-94233890D01*
X46825844Y-94233889D01*
X46797940Y-94231693D01*
X46797932Y-94231693D01*
X46795484Y-94231500D01*
X46384516Y-94231500D01*
X46382068Y-94231693D01*
X46382060Y-94231693D01*
X46354156Y-94233889D01*
X46354151Y-94233890D01*
X46347746Y-94234394D01*
X46271856Y-94256442D01*
X46198016Y-94277894D01*
X46198014Y-94277895D01*
X46190403Y-94280106D01*
X46183576Y-94284143D01*
X46183577Y-94284143D01*
X46173647Y-94290015D01*
X46104830Y-94307474D01*
X46045372Y-94290016D01*
X46036222Y-94284605D01*
X46021784Y-94278357D01*
X45901395Y-94243381D01*
X45887295Y-94243421D01*
X45884000Y-94250691D01*
X45884000Y-94528621D01*
X45866454Y-94592760D01*
X45850106Y-94620403D01*
X45847895Y-94628014D01*
X45847894Y-94628016D01*
X45843129Y-94644418D01*
X45804394Y-94777746D01*
X45803890Y-94784151D01*
X45803889Y-94784156D01*
X45803260Y-94792149D01*
X45801500Y-94814516D01*
X45801500Y-95285484D01*
X45801693Y-95287932D01*
X45801693Y-95287940D01*
X45803184Y-95306876D01*
X45804394Y-95322254D01*
X45829139Y-95407429D01*
X45846947Y-95468722D01*
X45850106Y-95479597D01*
X45881455Y-95532605D01*
X45899000Y-95596741D01*
X45899000Y-97145874D01*
X45878998Y-97213995D01*
X45825342Y-97260488D01*
X45755068Y-97270592D01*
X45694461Y-97241176D01*
X45693187Y-97242843D01*
X45554743Y-97136994D01*
X45554739Y-97136991D01*
X45549322Y-97132850D01*
X45543142Y-97129968D01*
X45543140Y-97129967D01*
X45463750Y-97092947D01*
X45410465Y-97046030D01*
X45391000Y-96978752D01*
X45391000Y-96692115D01*
X45386525Y-96676876D01*
X45385135Y-96675671D01*
X45377452Y-96674000D01*
X44137076Y-96674000D01*
X44123545Y-96677973D01*
X44122425Y-96685768D01*
X44154138Y-96793521D01*
X44158731Y-96804889D01*
X44244607Y-96969154D01*
X44251321Y-96979415D01*
X44367468Y-97123873D01*
X44376045Y-97132632D01*
X44428110Y-97176319D01*
X44467436Y-97235428D01*
X44468563Y-97306416D01*
X44451331Y-97343663D01*
X44374723Y-97456388D01*
X44307470Y-97624534D01*
X44306356Y-97631262D01*
X44306355Y-97631266D01*
X44279007Y-97796461D01*
X44277892Y-97803198D01*
X44278249Y-97810015D01*
X44278249Y-97810019D01*
X44283918Y-97918186D01*
X44287370Y-97984047D01*
X44289181Y-97990620D01*
X44289181Y-97990623D01*
X44332196Y-98146788D01*
X44335461Y-98158641D01*
X44419922Y-98318836D01*
X44424327Y-98324049D01*
X44424330Y-98324053D01*
X44532406Y-98451943D01*
X44532410Y-98451947D01*
X44536813Y-98457157D01*
X44542237Y-98461304D01*
X44542238Y-98461305D01*
X44675257Y-98563006D01*
X44675261Y-98563009D01*
X44680678Y-98567150D01*
X44763733Y-98605879D01*
X44838631Y-98640805D01*
X44838634Y-98640806D01*
X44844808Y-98643685D01*
X44851456Y-98645171D01*
X44851459Y-98645172D01*
X44978816Y-98673639D01*
X45021543Y-98683190D01*
X45027088Y-98683500D01*
X45160244Y-98683500D01*
X45186892Y-98680605D01*
X45256774Y-98693133D01*
X45308790Y-98741453D01*
X45326500Y-98805868D01*
X45326500Y-99188134D01*
X45326869Y-99191529D01*
X45326869Y-99191533D01*
X45330656Y-99226393D01*
X45330656Y-99253606D01*
X45326500Y-99291866D01*
X45326500Y-99688134D01*
X45326869Y-99691529D01*
X45326869Y-99691533D01*
X45330656Y-99726393D01*
X45330656Y-99753606D01*
X45326500Y-99791866D01*
X45326500Y-100188134D01*
X45326869Y-100191529D01*
X45326869Y-100191533D01*
X45330656Y-100226393D01*
X45330656Y-100253606D01*
X45326500Y-100291866D01*
X45326500Y-100688134D01*
X45326869Y-100691529D01*
X45326869Y-100691533D01*
X45330656Y-100726393D01*
X45330656Y-100753606D01*
X45326500Y-100791866D01*
X45326500Y-101188134D01*
X45326869Y-101191529D01*
X45326869Y-101191533D01*
X45330656Y-101226393D01*
X45330656Y-101253606D01*
X45326500Y-101291866D01*
X45326500Y-101688134D01*
X45326869Y-101691529D01*
X45326869Y-101691533D01*
X45330656Y-101726393D01*
X45330656Y-101753607D01*
X45327168Y-101785721D01*
X45326500Y-101791866D01*
X45326500Y-102188134D01*
X45326869Y-102191529D01*
X45326869Y-102191533D01*
X45330656Y-102226393D01*
X45330656Y-102253606D01*
X45329961Y-102260004D01*
X45327180Y-102285610D01*
X45326500Y-102291866D01*
X45326500Y-102670500D01*
X45306498Y-102738621D01*
X45252842Y-102785114D01*
X45200500Y-102796500D01*
X45069756Y-102796500D01*
X45066359Y-102796869D01*
X45033761Y-102800410D01*
X44934963Y-102811143D01*
X44833519Y-102845283D01*
X44769796Y-102866728D01*
X44769794Y-102866729D01*
X44763325Y-102868906D01*
X44608095Y-102962177D01*
X44603138Y-102966865D01*
X44603135Y-102966867D01*
X44482670Y-103080786D01*
X44476515Y-103086607D01*
X44472683Y-103092245D01*
X44472680Y-103092249D01*
X44387922Y-103216967D01*
X44374723Y-103236388D01*
X44307470Y-103404534D01*
X44306356Y-103411262D01*
X44306355Y-103411266D01*
X44280744Y-103565968D01*
X44277892Y-103583198D01*
X44278249Y-103590015D01*
X44278249Y-103590019D01*
X44284579Y-103710787D01*
X44287370Y-103764047D01*
X44289181Y-103770620D01*
X44289181Y-103770623D01*
X44312571Y-103855538D01*
X44335461Y-103938641D01*
X44419922Y-104098836D01*
X44424327Y-104104049D01*
X44424330Y-104104053D01*
X44442694Y-104125783D01*
X44471386Y-104190724D01*
X44460413Y-104260868D01*
X44426092Y-104304754D01*
X44386067Y-104337397D01*
X44377363Y-104346041D01*
X44259216Y-104488856D01*
X44252356Y-104499027D01*
X44164196Y-104662076D01*
X44159444Y-104673381D01*
X44123750Y-104788692D01*
X44123544Y-104802795D01*
X44130299Y-104806000D01*
X45372885Y-104806000D01*
X45388124Y-104801525D01*
X45389329Y-104800135D01*
X45391000Y-104792452D01*
X45391000Y-104505830D01*
X45411002Y-104437709D01*
X45463218Y-104392257D01*
X45466675Y-104391094D01*
X45480802Y-104382606D01*
X45582002Y-104321799D01*
X45621905Y-104297823D01*
X45626862Y-104293135D01*
X45626865Y-104293133D01*
X45676303Y-104246381D01*
X45686427Y-104236807D01*
X45749664Y-104204535D01*
X45820311Y-104211575D01*
X45875937Y-104255691D01*
X45899000Y-104328355D01*
X45899000Y-104787885D01*
X45903475Y-104803124D01*
X45904865Y-104804329D01*
X45912548Y-104806000D01*
X46287885Y-104806000D01*
X46303124Y-104801525D01*
X46304329Y-104800135D01*
X46306000Y-104792452D01*
X46306000Y-104124500D01*
X46326002Y-104056379D01*
X46379658Y-104009886D01*
X46432000Y-103998500D01*
X46735916Y-103998500D01*
X46804037Y-104018502D01*
X46850530Y-104072158D01*
X46860634Y-104142432D01*
X46831141Y-104207012D01*
X46815671Y-104224865D01*
X46814000Y-104232548D01*
X46814000Y-104787885D01*
X46818475Y-104803124D01*
X46819865Y-104804329D01*
X46827548Y-104806000D01*
X47152924Y-104806000D01*
X47187157Y-104795948D01*
X47214927Y-104778102D01*
X47250424Y-104772999D01*
X47329669Y-104772999D01*
X47336490Y-104772629D01*
X47387352Y-104767105D01*
X47402604Y-104763479D01*
X47523054Y-104718324D01*
X47538649Y-104709786D01*
X47640724Y-104633285D01*
X47653285Y-104620724D01*
X47729786Y-104518649D01*
X47738324Y-104503054D01*
X47783478Y-104382606D01*
X47787105Y-104367351D01*
X47792631Y-104316486D01*
X47793000Y-104309672D01*
X47793000Y-104237115D01*
X47788525Y-104221876D01*
X47787135Y-104220671D01*
X47779452Y-104219000D01*
X47484165Y-104219000D01*
X47416044Y-104198998D01*
X47369551Y-104145342D01*
X47359447Y-104075068D01*
X47388941Y-104010488D01*
X47439936Y-103975018D01*
X47523295Y-103943768D01*
X47523296Y-103943767D01*
X47531705Y-103940615D01*
X47648261Y-103853261D01*
X47653643Y-103846080D01*
X47724109Y-103752058D01*
X47780969Y-103709543D01*
X47789436Y-103706727D01*
X47790123Y-103706525D01*
X47791328Y-103705135D01*
X47792999Y-103697452D01*
X47792999Y-103620331D01*
X47792630Y-103613523D01*
X47790448Y-103593429D01*
X47790449Y-103566218D01*
X47793131Y-103541531D01*
X47793500Y-103538134D01*
X47793500Y-102841866D01*
X47786745Y-102779684D01*
X47789174Y-102779420D01*
X47789174Y-102750580D01*
X47786745Y-102750316D01*
X47793131Y-102691531D01*
X47793500Y-102688134D01*
X47793500Y-102298235D01*
X47813502Y-102230114D01*
X47867158Y-102183621D01*
X47937432Y-102173517D01*
X47954646Y-102177236D01*
X47983534Y-102185629D01*
X47989941Y-102186133D01*
X47989945Y-102186134D01*
X48017556Y-102188307D01*
X48017562Y-102188307D01*
X48020011Y-102188500D01*
X48219878Y-102188500D01*
X48419988Y-102188499D01*
X48456466Y-102185629D01*
X48578424Y-102150197D01*
X48604983Y-102142481D01*
X48604985Y-102142480D01*
X48612596Y-102140269D01*
X48619421Y-102136233D01*
X48619425Y-102136231D01*
X48665861Y-102108769D01*
X48734677Y-102091309D01*
X48794139Y-102108769D01*
X48840575Y-102136231D01*
X48840579Y-102136233D01*
X48847404Y-102140269D01*
X48855015Y-102142480D01*
X48855017Y-102142481D01*
X48923476Y-102162370D01*
X49003534Y-102185629D01*
X49009941Y-102186133D01*
X49009945Y-102186134D01*
X49037556Y-102188307D01*
X49037562Y-102188307D01*
X49040011Y-102188500D01*
X49239878Y-102188500D01*
X49439988Y-102188499D01*
X49476466Y-102185629D01*
X49598424Y-102150197D01*
X49624983Y-102142481D01*
X49624985Y-102142480D01*
X49632596Y-102140269D01*
X49658946Y-102124686D01*
X49765720Y-102061540D01*
X49772541Y-102057506D01*
X49887506Y-101942541D01*
X49919116Y-101889092D01*
X49966234Y-101809419D01*
X49966234Y-101809418D01*
X49970269Y-101802596D01*
X49973387Y-101791866D01*
X50009319Y-101668185D01*
X50015629Y-101646466D01*
X50016696Y-101632916D01*
X50017935Y-101617165D01*
X50043220Y-101550823D01*
X50071717Y-101523530D01*
X50209377Y-101428011D01*
X50502470Y-101224640D01*
X50508079Y-101221185D01*
X50513022Y-101219285D01*
X50565548Y-101181098D01*
X50632408Y-101157219D01*
X50653107Y-101162101D01*
X50676748Y-101160908D01*
X50684683Y-101155223D01*
X50968114Y-100664306D01*
X51267073Y-100146494D01*
X51318455Y-100097501D01*
X51388169Y-100084065D01*
X51454080Y-100110451D01*
X51495262Y-100168283D01*
X51502192Y-100209494D01*
X51502192Y-100556493D01*
X51485311Y-100619493D01*
X51335089Y-100879685D01*
X51334028Y-100881909D01*
X51334024Y-100881917D01*
X51329113Y-100892213D01*
X51319210Y-100912976D01*
X51317675Y-100919225D01*
X51317674Y-100919228D01*
X51282016Y-101064398D01*
X51282015Y-101064403D01*
X51280126Y-101072095D01*
X51280209Y-101080022D01*
X51280462Y-101104210D01*
X51263588Y-101168528D01*
X51127499Y-101404241D01*
X51123754Y-101419677D01*
X51131754Y-101442791D01*
X51135131Y-101513707D01*
X51121386Y-101547715D01*
X50578790Y-102473435D01*
X50377387Y-102817048D01*
X50263139Y-103011965D01*
X50259073Y-103018151D01*
X50255185Y-103022252D01*
X50251333Y-103029182D01*
X50251332Y-103029183D01*
X50220518Y-103084615D01*
X50219093Y-103087111D01*
X50207200Y-103107402D01*
X50203309Y-103114041D01*
X50201750Y-103117683D01*
X50199967Y-103121216D01*
X50199860Y-103121162D01*
X50197304Y-103126375D01*
X50177417Y-103162150D01*
X50175408Y-103169823D01*
X50175408Y-103169824D01*
X50171454Y-103184928D01*
X50165395Y-103202603D01*
X50156127Y-103224253D01*
X50154918Y-103232086D01*
X50154917Y-103232089D01*
X50149883Y-103264701D01*
X50147251Y-103277386D01*
X50142497Y-103295548D01*
X50136883Y-103316992D01*
X50136846Y-103324918D01*
X50136772Y-103340548D01*
X50135298Y-103359177D01*
X50131707Y-103382439D01*
X50132483Y-103390322D01*
X50132483Y-103390328D01*
X50135717Y-103423166D01*
X50136323Y-103436099D01*
X50136130Y-103477048D01*
X50140291Y-103493576D01*
X50141878Y-103499879D01*
X50145085Y-103518295D01*
X50146420Y-103531850D01*
X50147392Y-103541727D01*
X50150107Y-103549177D01*
X50150108Y-103549181D01*
X50161406Y-103580182D01*
X50165211Y-103592566D01*
X50500929Y-104926113D01*
X50504254Y-104945802D01*
X50505980Y-104965371D01*
X50518569Y-105001040D01*
X50520893Y-105007627D01*
X50524258Y-105018781D01*
X50525398Y-105023307D01*
X50526839Y-105026997D01*
X50535340Y-105048769D01*
X50536787Y-105052660D01*
X50552190Y-105096300D01*
X50553110Y-105098908D01*
X50556920Y-105169802D01*
X50521797Y-105231503D01*
X50458893Y-105264419D01*
X50434349Y-105266844D01*
X44573457Y-105269426D01*
X39363171Y-105271722D01*
X39295042Y-105251750D01*
X39248525Y-105198115D01*
X39237116Y-105145997D01*
X39236366Y-104802795D01*
X40193544Y-104802795D01*
X40200299Y-104806000D01*
X41192885Y-104806000D01*
X41208124Y-104801525D01*
X41209329Y-104800135D01*
X41211000Y-104792452D01*
X41211000Y-104787885D01*
X41719000Y-104787885D01*
X41723475Y-104803124D01*
X41724865Y-104804329D01*
X41732548Y-104806000D01*
X42722924Y-104806000D01*
X42736455Y-104802027D01*
X42737575Y-104794232D01*
X42705862Y-104686479D01*
X42701269Y-104675111D01*
X42615393Y-104510846D01*
X42608679Y-104500585D01*
X42492532Y-104356127D01*
X42483954Y-104347368D01*
X42341961Y-104228222D01*
X42331841Y-104221292D01*
X42169415Y-104131998D01*
X42158142Y-104127166D01*
X41981462Y-104071120D01*
X41969468Y-104068570D01*
X41825239Y-104052393D01*
X41818215Y-104052000D01*
X41737115Y-104052000D01*
X41721876Y-104056475D01*
X41720671Y-104057865D01*
X41719000Y-104065548D01*
X41719000Y-104787885D01*
X41211000Y-104787885D01*
X41211000Y-104070115D01*
X41206525Y-104054876D01*
X41205135Y-104053671D01*
X41197452Y-104052000D01*
X41118343Y-104052000D01*
X41112195Y-104052301D01*
X40974397Y-104065812D01*
X40962362Y-104068195D01*
X40784924Y-104121767D01*
X40773584Y-104126441D01*
X40609923Y-104213460D01*
X40599706Y-104220249D01*
X40456067Y-104337397D01*
X40447363Y-104346041D01*
X40329216Y-104488856D01*
X40322356Y-104499027D01*
X40234196Y-104662076D01*
X40229444Y-104673381D01*
X40193750Y-104788692D01*
X40193544Y-104802795D01*
X39236366Y-104802795D01*
X39226522Y-100300620D01*
X39246375Y-100232456D01*
X39299929Y-100185846D01*
X39370181Y-100175589D01*
X39434826Y-100204940D01*
X39446155Y-100216032D01*
X39511376Y-100288467D01*
X39530606Y-100309824D01*
X39538747Y-100318866D01*
X39693248Y-100431118D01*
X39699276Y-100433802D01*
X39699278Y-100433803D01*
X39786670Y-100472712D01*
X39867712Y-100508794D01*
X39961113Y-100528647D01*
X40048056Y-100547128D01*
X40048061Y-100547128D01*
X40054513Y-100548500D01*
X40245487Y-100548500D01*
X40251939Y-100547128D01*
X40251944Y-100547128D01*
X40338887Y-100528647D01*
X40432288Y-100508794D01*
X40513330Y-100472712D01*
X40600722Y-100433803D01*
X40600724Y-100433802D01*
X40606752Y-100431118D01*
X40761253Y-100318866D01*
X40765675Y-100313955D01*
X40884621Y-100181852D01*
X40884622Y-100181851D01*
X40889040Y-100176944D01*
X40972977Y-100031562D01*
X40981223Y-100017279D01*
X40981224Y-100017278D01*
X40984527Y-100011556D01*
X41043542Y-99829928D01*
X41047543Y-99791866D01*
X41054179Y-99728722D01*
X41081192Y-99663065D01*
X41139414Y-99622435D01*
X41210359Y-99619732D01*
X41230736Y-99626784D01*
X41251681Y-99636109D01*
X41257712Y-99638794D01*
X41351112Y-99658647D01*
X41438056Y-99677128D01*
X41438061Y-99677128D01*
X41444513Y-99678500D01*
X41635487Y-99678500D01*
X41641939Y-99677128D01*
X41641944Y-99677128D01*
X41728888Y-99658647D01*
X41822288Y-99638794D01*
X41828319Y-99636109D01*
X41990722Y-99563803D01*
X41990724Y-99563802D01*
X41996752Y-99561118D01*
X42043091Y-99527451D01*
X42059004Y-99515889D01*
X42151253Y-99448866D01*
X42155675Y-99443955D01*
X42274621Y-99311852D01*
X42274622Y-99311851D01*
X42279040Y-99306944D01*
X42374527Y-99141556D01*
X42433542Y-98959928D01*
X42434888Y-98947128D01*
X42452814Y-98776565D01*
X42453504Y-98770000D01*
X42443835Y-98678003D01*
X42434232Y-98586635D01*
X42434232Y-98586633D01*
X42433542Y-98580072D01*
X42374527Y-98398444D01*
X42368754Y-98388444D01*
X42306641Y-98280863D01*
X42279040Y-98233056D01*
X42239440Y-98189075D01*
X42155675Y-98096045D01*
X42155674Y-98096044D01*
X42151253Y-98091134D01*
X42035222Y-98006832D01*
X42002094Y-97982763D01*
X42002093Y-97982762D01*
X41996752Y-97978882D01*
X41990724Y-97976198D01*
X41990722Y-97976197D01*
X41828319Y-97903891D01*
X41828318Y-97903891D01*
X41822288Y-97901206D01*
X41701888Y-97875614D01*
X41641944Y-97862872D01*
X41641939Y-97862872D01*
X41635487Y-97861500D01*
X41549594Y-97861500D01*
X41481473Y-97841498D01*
X41460499Y-97824595D01*
X41222045Y-97586141D01*
X41188019Y-97523829D01*
X41193084Y-97453014D01*
X41208127Y-97427661D01*
X41211000Y-97414452D01*
X41211000Y-97409885D01*
X41719000Y-97409885D01*
X41723475Y-97425124D01*
X41724865Y-97426329D01*
X41732548Y-97428000D01*
X41811657Y-97428000D01*
X41817805Y-97427699D01*
X41955603Y-97414188D01*
X41967638Y-97411805D01*
X42145076Y-97358233D01*
X42156416Y-97353559D01*
X42320077Y-97266540D01*
X42330294Y-97259751D01*
X42473933Y-97142603D01*
X42482637Y-97133959D01*
X42600784Y-96991144D01*
X42607644Y-96980973D01*
X42695804Y-96817924D01*
X42700556Y-96806619D01*
X42736250Y-96691308D01*
X42736456Y-96677205D01*
X42729701Y-96674000D01*
X41737115Y-96674000D01*
X41721876Y-96678475D01*
X41720671Y-96679865D01*
X41719000Y-96687548D01*
X41719000Y-97409885D01*
X41211000Y-97409885D01*
X41211000Y-96147885D01*
X41719000Y-96147885D01*
X41723475Y-96163124D01*
X41724865Y-96164329D01*
X41732548Y-96166000D01*
X42722924Y-96166000D01*
X42733839Y-96162795D01*
X44123544Y-96162795D01*
X44130299Y-96166000D01*
X45372885Y-96166000D01*
X45388124Y-96161525D01*
X45389329Y-96160135D01*
X45391000Y-96152452D01*
X45391000Y-95926115D01*
X45381104Y-95892412D01*
X45376000Y-95856914D01*
X45376000Y-95322115D01*
X45371525Y-95306876D01*
X45370135Y-95305671D01*
X45362452Y-95304000D01*
X44861576Y-95304000D01*
X44846781Y-95308344D01*
X44844938Y-95318774D01*
X44846133Y-95325320D01*
X44838695Y-95395926D01*
X44794266Y-95451302D01*
X44758602Y-95468580D01*
X44714921Y-95481768D01*
X44703584Y-95486441D01*
X44539923Y-95573460D01*
X44529706Y-95580249D01*
X44386067Y-95697397D01*
X44377363Y-95706041D01*
X44259216Y-95848856D01*
X44252356Y-95859027D01*
X44164196Y-96022076D01*
X44159444Y-96033381D01*
X44123750Y-96148692D01*
X44123544Y-96162795D01*
X42733839Y-96162795D01*
X42736455Y-96162027D01*
X42737575Y-96154232D01*
X42705862Y-96046479D01*
X42701269Y-96035111D01*
X42615393Y-95870846D01*
X42608679Y-95860585D01*
X42492532Y-95716127D01*
X42483954Y-95707368D01*
X42341961Y-95588222D01*
X42331841Y-95581292D01*
X42169415Y-95491998D01*
X42158142Y-95487166D01*
X41981462Y-95431120D01*
X41969468Y-95428570D01*
X41825239Y-95412393D01*
X41818215Y-95412000D01*
X41737115Y-95412000D01*
X41721876Y-95416475D01*
X41720671Y-95417865D01*
X41719000Y-95425548D01*
X41719000Y-96147885D01*
X41211000Y-96147885D01*
X41211000Y-95430115D01*
X41206525Y-95414876D01*
X41205135Y-95413671D01*
X41197452Y-95412000D01*
X41118343Y-95412000D01*
X41112195Y-95412301D01*
X40974397Y-95425812D01*
X40962362Y-95428195D01*
X40784924Y-95481767D01*
X40773584Y-95486441D01*
X40609923Y-95573460D01*
X40599706Y-95580249D01*
X40456067Y-95697397D01*
X40447363Y-95706041D01*
X40329216Y-95848856D01*
X40322356Y-95859027D01*
X40260336Y-95973730D01*
X40210341Y-96024139D01*
X40141030Y-96039516D01*
X40074408Y-96014980D01*
X40031627Y-95958320D01*
X40023500Y-95913801D01*
X40023500Y-95155170D01*
X40043502Y-95087049D01*
X40097158Y-95040556D01*
X40167432Y-95030452D01*
X40178647Y-95032588D01*
X40197643Y-95037105D01*
X40248514Y-95042631D01*
X40255328Y-95043000D01*
X40527885Y-95043000D01*
X40543124Y-95038525D01*
X40544329Y-95037135D01*
X40546000Y-95029452D01*
X40546000Y-95024884D01*
X41054000Y-95024884D01*
X41058475Y-95040123D01*
X41059865Y-95041328D01*
X41067548Y-95042999D01*
X41344669Y-95042999D01*
X41351490Y-95042629D01*
X41402352Y-95037105D01*
X41417604Y-95033479D01*
X41538054Y-94988324D01*
X41553649Y-94979786D01*
X41655724Y-94903285D01*
X41668285Y-94890724D01*
X41744786Y-94788649D01*
X41749735Y-94779609D01*
X44845232Y-94779609D01*
X44848052Y-94793031D01*
X44859513Y-94796000D01*
X45357885Y-94796000D01*
X45373124Y-94791525D01*
X45374329Y-94790135D01*
X45376000Y-94782452D01*
X45376000Y-94256442D01*
X45372027Y-94242911D01*
X45364129Y-94241776D01*
X45238216Y-94278357D01*
X45223780Y-94284604D01*
X45096501Y-94359876D01*
X45084074Y-94369516D01*
X44979516Y-94474074D01*
X44969876Y-94486501D01*
X44894604Y-94613780D01*
X44888357Y-94628216D01*
X44846688Y-94771641D01*
X44845232Y-94779609D01*
X41749735Y-94779609D01*
X41753324Y-94773054D01*
X41798478Y-94652606D01*
X41802105Y-94637351D01*
X41807631Y-94586486D01*
X41808000Y-94579672D01*
X41808000Y-94307115D01*
X41803525Y-94291876D01*
X41802135Y-94290671D01*
X41794452Y-94289000D01*
X41072115Y-94289000D01*
X41056876Y-94293475D01*
X41055671Y-94294865D01*
X41054000Y-94302548D01*
X41054000Y-95024884D01*
X40546000Y-95024884D01*
X40546000Y-93907000D01*
X40566002Y-93838879D01*
X40619658Y-93792386D01*
X40672000Y-93781000D01*
X41789884Y-93781000D01*
X41805123Y-93776525D01*
X41806328Y-93775135D01*
X41807999Y-93767452D01*
X41807999Y-93490331D01*
X41807629Y-93483510D01*
X41802105Y-93432648D01*
X41798479Y-93417396D01*
X41753324Y-93296946D01*
X41740478Y-93273483D01*
X41742602Y-93272320D01*
X41722313Y-93218007D01*
X41728429Y-93169183D01*
X41786250Y-92995365D01*
X41788197Y-92989513D01*
X41812985Y-92793295D01*
X41813380Y-92765000D01*
X41794080Y-92568167D01*
X41785878Y-92540999D01*
X41750410Y-92423525D01*
X41736916Y-92378831D01*
X41673776Y-92260080D01*
X46309326Y-92260080D01*
X46310874Y-92407937D01*
X46313009Y-92423525D01*
X46351283Y-92566363D01*
X46357219Y-92580909D01*
X46429816Y-92709746D01*
X46439192Y-92722370D01*
X46525961Y-92812854D01*
X46538196Y-92819871D01*
X46544682Y-92815224D01*
X46808280Y-92358659D01*
X46812025Y-92343224D01*
X46811422Y-92341484D01*
X46805606Y-92336197D01*
X46371834Y-92085758D01*
X46356848Y-92082123D01*
X46350035Y-92090237D01*
X46346761Y-92099403D01*
X46311134Y-92244454D01*
X46309326Y-92260080D01*
X41673776Y-92260080D01*
X41644066Y-92204204D01*
X41640167Y-92199424D01*
X41639715Y-92198743D01*
X41618676Y-92130935D01*
X41635105Y-92066775D01*
X41722723Y-91912542D01*
X41722725Y-91912537D01*
X41725769Y-91907179D01*
X41788197Y-91719513D01*
X41798686Y-91636484D01*
X46615606Y-91636484D01*
X46624050Y-91644788D01*
X47055648Y-91893972D01*
X47071083Y-91897717D01*
X47072823Y-91897114D01*
X47078110Y-91891298D01*
X47341117Y-91435759D01*
X47344442Y-91422054D01*
X47338168Y-91417121D01*
X47210836Y-91385846D01*
X47195208Y-91384038D01*
X47047345Y-91385586D01*
X47031770Y-91387719D01*
X46888931Y-91425992D01*
X46874374Y-91431932D01*
X46745544Y-91504526D01*
X46732919Y-91513902D01*
X46625118Y-91617279D01*
X46619874Y-91623451D01*
X46615606Y-91636484D01*
X41798686Y-91636484D01*
X41812985Y-91523295D01*
X41813380Y-91495000D01*
X41794080Y-91298167D01*
X41790957Y-91287821D01*
X41770162Y-91218947D01*
X41736916Y-91108831D01*
X41644066Y-90934204D01*
X41640167Y-90929424D01*
X41639715Y-90928743D01*
X41618676Y-90860935D01*
X41635105Y-90796775D01*
X41722723Y-90642542D01*
X41722725Y-90642537D01*
X41725769Y-90637179D01*
X41758095Y-90540003D01*
X45183579Y-90540003D01*
X45184363Y-90549977D01*
X45186662Y-90562564D01*
X45227981Y-90704783D01*
X45234230Y-90719222D01*
X45308854Y-90845405D01*
X45318501Y-90857841D01*
X45422159Y-90961499D01*
X45434595Y-90971146D01*
X45560778Y-91045770D01*
X45575217Y-91052019D01*
X45688605Y-91084961D01*
X45702705Y-91084921D01*
X45706000Y-91077651D01*
X45706000Y-90542115D01*
X45701525Y-90526876D01*
X45700135Y-90525671D01*
X45692452Y-90524000D01*
X45200434Y-90524000D01*
X45185639Y-90528344D01*
X45183579Y-90540003D01*
X41758095Y-90540003D01*
X41788197Y-90449513D01*
X41812985Y-90253295D01*
X41813380Y-90225000D01*
X41794080Y-90028167D01*
X41790877Y-90017556D01*
X41784955Y-89997943D01*
X45183740Y-89997943D01*
X45186910Y-90013030D01*
X45198374Y-90016000D01*
X45687885Y-90016000D01*
X45703124Y-90011525D01*
X45704329Y-90010135D01*
X45706000Y-90002452D01*
X45706000Y-89468100D01*
X45702027Y-89454569D01*
X45694129Y-89453434D01*
X45575217Y-89487981D01*
X45560778Y-89494230D01*
X45434595Y-89568854D01*
X45422159Y-89578501D01*
X45318501Y-89682159D01*
X45308854Y-89694595D01*
X45234230Y-89820778D01*
X45227981Y-89835217D01*
X45186662Y-89977436D01*
X45184363Y-89990023D01*
X45183740Y-89997943D01*
X41784955Y-89997943D01*
X41738697Y-89844731D01*
X41736916Y-89838831D01*
X41644066Y-89664204D01*
X41640167Y-89659424D01*
X41639715Y-89658743D01*
X41618676Y-89590935D01*
X41635105Y-89526775D01*
X41648580Y-89503056D01*
X41657406Y-89487519D01*
X41722723Y-89372542D01*
X41722725Y-89372537D01*
X41725769Y-89367179D01*
X41788197Y-89179513D01*
X41812985Y-88983295D01*
X41813380Y-88955000D01*
X41794080Y-88758167D01*
X41790140Y-88745115D01*
X41738697Y-88574731D01*
X41736916Y-88568831D01*
X41644066Y-88394204D01*
X41640167Y-88389424D01*
X41639715Y-88388743D01*
X41618676Y-88320935D01*
X41635105Y-88256775D01*
X41649339Y-88231720D01*
X41664286Y-88205408D01*
X41722723Y-88102542D01*
X41722725Y-88102537D01*
X41725769Y-88097179D01*
X41760374Y-87993152D01*
X49252123Y-87993152D01*
X49260237Y-87999965D01*
X49269403Y-88003239D01*
X49414454Y-88038866D01*
X49430080Y-88040674D01*
X49577938Y-88039126D01*
X49591410Y-88037281D01*
X49661615Y-88047855D01*
X49714958Y-88094706D01*
X49730214Y-88129505D01*
X49735992Y-88151069D01*
X49741932Y-88165626D01*
X49814526Y-88294456D01*
X49823902Y-88307081D01*
X49927279Y-88414882D01*
X49933451Y-88420126D01*
X49946484Y-88424394D01*
X49954788Y-88415950D01*
X50203972Y-87984352D01*
X50207717Y-87968917D01*
X50207114Y-87967177D01*
X50201298Y-87961890D01*
X49751442Y-87702164D01*
X49702449Y-87650781D01*
X49698762Y-87642173D01*
X49691997Y-87636023D01*
X49528659Y-87541720D01*
X49513224Y-87537975D01*
X49511484Y-87538578D01*
X49506196Y-87544394D01*
X49255758Y-87978166D01*
X49252123Y-87993152D01*
X41760374Y-87993152D01*
X41788197Y-87909513D01*
X41812985Y-87713295D01*
X41813380Y-87685000D01*
X41794080Y-87488167D01*
X41736916Y-87298831D01*
X41660330Y-87154792D01*
X48554038Y-87154792D01*
X48555586Y-87302655D01*
X48557719Y-87318230D01*
X48595992Y-87461069D01*
X48601932Y-87475626D01*
X48674526Y-87604456D01*
X48683902Y-87617081D01*
X48787279Y-87724882D01*
X48793451Y-87730126D01*
X48806484Y-87734394D01*
X48814788Y-87725950D01*
X49063972Y-87294352D01*
X49067717Y-87278917D01*
X49067114Y-87277177D01*
X49061298Y-87271890D01*
X48605759Y-87008883D01*
X48592054Y-87005558D01*
X48587121Y-87011832D01*
X48555846Y-87139164D01*
X48554038Y-87154792D01*
X41660330Y-87154792D01*
X41644066Y-87124204D01*
X41572882Y-87036924D01*
X41522960Y-86975713D01*
X41522957Y-86975710D01*
X41519065Y-86970938D01*
X41512724Y-86965692D01*
X41371425Y-86848799D01*
X41371421Y-86848797D01*
X41366675Y-86844870D01*
X41192701Y-86750802D01*
X41003768Y-86692318D01*
X40997643Y-86691674D01*
X40997642Y-86691674D01*
X40813204Y-86672289D01*
X40813202Y-86672289D01*
X40807075Y-86671645D01*
X40724576Y-86679153D01*
X40616251Y-86689011D01*
X40616248Y-86689012D01*
X40610112Y-86689570D01*
X40604206Y-86691308D01*
X40604202Y-86691309D01*
X40557572Y-86705033D01*
X40420381Y-86745410D01*
X40414923Y-86748263D01*
X40414919Y-86748265D01*
X40335108Y-86789990D01*
X40245110Y-86837040D01*
X40090975Y-86960968D01*
X39963846Y-87112474D01*
X39960879Y-87117872D01*
X39960875Y-87117877D01*
X39910485Y-87209538D01*
X39868567Y-87285787D01*
X39866706Y-87291654D01*
X39866705Y-87291656D01*
X39812231Y-87463379D01*
X39808765Y-87474306D01*
X39786719Y-87670851D01*
X39787235Y-87676995D01*
X39801335Y-87844911D01*
X39803268Y-87867934D01*
X39812403Y-87899791D01*
X39854860Y-88047855D01*
X39857783Y-88058050D01*
X39868189Y-88078298D01*
X39910216Y-88160072D01*
X39948187Y-88233956D01*
X39952016Y-88238787D01*
X39953839Y-88241088D01*
X39954414Y-88242509D01*
X39955353Y-88243966D01*
X39955076Y-88244144D01*
X39980474Y-88306898D01*
X39967301Y-88376662D01*
X39963846Y-88382474D01*
X39868567Y-88555787D01*
X39866706Y-88561654D01*
X39866705Y-88561656D01*
X39828164Y-88683152D01*
X39808765Y-88744306D01*
X39786719Y-88940851D01*
X39787235Y-88946995D01*
X39799751Y-89096045D01*
X39803268Y-89137934D01*
X39816869Y-89185365D01*
X39846365Y-89288230D01*
X39857783Y-89328050D01*
X39860602Y-89333535D01*
X39945205Y-89498153D01*
X39948187Y-89503956D01*
X39952016Y-89508787D01*
X39953839Y-89511088D01*
X39954414Y-89512509D01*
X39955353Y-89513966D01*
X39955076Y-89514144D01*
X39980474Y-89576898D01*
X39967301Y-89646662D01*
X39963846Y-89652474D01*
X39868567Y-89825787D01*
X39866706Y-89831654D01*
X39866705Y-89831656D01*
X39820487Y-89977353D01*
X39808765Y-90014306D01*
X39805883Y-90040000D01*
X39787682Y-90202270D01*
X39786719Y-90210851D01*
X39787235Y-90216995D01*
X39801346Y-90385040D01*
X39803268Y-90407934D01*
X39812584Y-90440423D01*
X39847608Y-90562564D01*
X39857783Y-90598050D01*
X39948187Y-90773956D01*
X39952016Y-90778787D01*
X39953839Y-90781088D01*
X39954414Y-90782509D01*
X39955353Y-90783966D01*
X39955076Y-90784144D01*
X39980474Y-90846898D01*
X39967301Y-90916662D01*
X39963846Y-90922474D01*
X39868567Y-91095787D01*
X39866706Y-91101654D01*
X39866705Y-91101656D01*
X39844912Y-91170356D01*
X39808765Y-91284306D01*
X39786719Y-91480851D01*
X39790578Y-91526799D01*
X39793702Y-91564004D01*
X39779471Y-91633560D01*
X39758840Y-91662014D01*
X39424894Y-92008293D01*
X39363211Y-92043441D01*
X39292315Y-92039661D01*
X39234717Y-91998151D01*
X39208705Y-91932092D01*
X39208200Y-91921102D01*
X39187363Y-82391623D01*
X39183761Y-80744394D01*
X39690314Y-80744394D01*
X39699143Y-80756014D01*
X39903970Y-80904830D01*
X39910650Y-80909070D01*
X40169234Y-81051228D01*
X40176369Y-81054585D01*
X40450746Y-81163219D01*
X40458237Y-81165653D01*
X40744059Y-81239039D01*
X40751830Y-81240521D01*
X41044570Y-81277503D01*
X41052460Y-81278000D01*
X41347540Y-81278000D01*
X41355430Y-81277503D01*
X41648170Y-81240521D01*
X41655941Y-81239039D01*
X41941763Y-81165653D01*
X41949254Y-81163219D01*
X42223631Y-81054585D01*
X42230766Y-81051228D01*
X42489350Y-80909070D01*
X42496030Y-80904830D01*
X42701230Y-80755744D01*
X42709653Y-80744821D01*
X42702749Y-80731960D01*
X41212810Y-79242020D01*
X41198869Y-79234408D01*
X41197034Y-79234539D01*
X41190420Y-79238790D01*
X39696927Y-80732284D01*
X39690314Y-80744394D01*
X39183761Y-80744394D01*
X39183237Y-80504516D01*
X39203090Y-80436351D01*
X39256644Y-80389741D01*
X39312115Y-80378273D01*
X39327342Y-80378621D01*
X39338778Y-80372011D01*
X41110905Y-78599885D01*
X41173217Y-78565859D01*
X41244033Y-78570924D01*
X41289095Y-78599885D01*
X43060119Y-80370908D01*
X43073381Y-80378150D01*
X43083485Y-80370962D01*
X43149437Y-80291241D01*
X43154091Y-80284835D01*
X43312195Y-80035703D01*
X43316007Y-80028770D01*
X43441639Y-79761787D01*
X43444554Y-79754424D01*
X43535733Y-79473805D01*
X43537704Y-79466128D01*
X43592992Y-79176297D01*
X43593985Y-79168436D01*
X43612512Y-78873958D01*
X43612512Y-78866042D01*
X43593985Y-78571564D01*
X43592992Y-78563703D01*
X43537704Y-78273872D01*
X43535733Y-78266195D01*
X43487904Y-78118992D01*
X43485877Y-78048024D01*
X43522539Y-77987227D01*
X43586251Y-77955901D01*
X43656785Y-77963994D01*
G37*
G04 #@! TD.AperFunction*
G04 #@! TA.AperFunction,Conductor*
G36*
X67418650Y-94050567D02*
G01*
X67418770Y-94050619D01*
X67424146Y-94053624D01*
X67612244Y-94114740D01*
X67808629Y-94138158D01*
X67814764Y-94137686D01*
X67814766Y-94137686D01*
X67886231Y-94132187D01*
X67899742Y-94131147D01*
X67969197Y-94145864D01*
X68021475Y-94199181D01*
X68068158Y-94290015D01*
X68077892Y-94308956D01*
X68200740Y-94463953D01*
X68205433Y-94467947D01*
X68205434Y-94467948D01*
X68341744Y-94583956D01*
X68351355Y-94592136D01*
X68523999Y-94688624D01*
X68712097Y-94749740D01*
X68908482Y-94773158D01*
X68914617Y-94772686D01*
X68914619Y-94772686D01*
X68977695Y-94767832D01*
X68999594Y-94766147D01*
X69069049Y-94780864D01*
X69121327Y-94834181D01*
X69177744Y-94943956D01*
X69300592Y-95098953D01*
X69305285Y-95102947D01*
X69305286Y-95102948D01*
X69409401Y-95191556D01*
X69451207Y-95227136D01*
X69623851Y-95323624D01*
X69811949Y-95384740D01*
X70008334Y-95408158D01*
X70014469Y-95407686D01*
X70014472Y-95407686D01*
X70099988Y-95401106D01*
X70169442Y-95415824D01*
X70221721Y-95469141D01*
X70275203Y-95573207D01*
X70281844Y-95583512D01*
X70396977Y-95728772D01*
X70405499Y-95737597D01*
X70406512Y-95738459D01*
X70418621Y-95743859D01*
X70429989Y-95733431D01*
X70782439Y-95122970D01*
X70973439Y-94792149D01*
X71024821Y-94743156D01*
X71094535Y-94729720D01*
X71145558Y-94746030D01*
X72086759Y-95289433D01*
X72100464Y-95292758D01*
X72107208Y-95284181D01*
X72115168Y-95260253D01*
X72117888Y-95248281D01*
X72141448Y-95061784D01*
X72141940Y-95054757D01*
X72142237Y-95033523D01*
X72141942Y-95026494D01*
X72123597Y-94839397D01*
X72121214Y-94827362D01*
X72067642Y-94649924D01*
X72062966Y-94638579D01*
X72033923Y-94583956D01*
X72019604Y-94514419D01*
X72045152Y-94448179D01*
X72102457Y-94406266D01*
X72173325Y-94401989D01*
X72208084Y-94415633D01*
X73648686Y-95245782D01*
X73697721Y-95297123D01*
X73711214Y-95366826D01*
X73684882Y-95432758D01*
X73651235Y-95462613D01*
X73631503Y-95474611D01*
X73532174Y-95556344D01*
X73521400Y-95567748D01*
X73491187Y-95609029D01*
X73487455Y-95614753D01*
X73351179Y-95850790D01*
X73347434Y-95866225D01*
X73348037Y-95867965D01*
X73353853Y-95873252D01*
X74752877Y-96680979D01*
X76587883Y-97740420D01*
X76603318Y-97744165D01*
X76605058Y-97743562D01*
X76610345Y-97737746D01*
X76748908Y-97497747D01*
X76751995Y-97491664D01*
X76772642Y-97444852D01*
X76777130Y-97429824D01*
X76798249Y-97302938D01*
X76798855Y-97276225D01*
X76820398Y-97208575D01*
X76875095Y-97163312D01*
X76945580Y-97154806D01*
X76987730Y-97169912D01*
X78374225Y-97968882D01*
X78641889Y-98123124D01*
X78690925Y-98174466D01*
X78704418Y-98244169D01*
X78678086Y-98310101D01*
X78641241Y-98338377D01*
X78642663Y-98340716D01*
X78619804Y-98354615D01*
X78520480Y-98436344D01*
X78509706Y-98447748D01*
X78479493Y-98489029D01*
X78475761Y-98494753D01*
X78339485Y-98730790D01*
X78335740Y-98746225D01*
X78336343Y-98747965D01*
X78342159Y-98753252D01*
X79741183Y-99560979D01*
X81576189Y-100620420D01*
X81591624Y-100624165D01*
X81593364Y-100623562D01*
X81598651Y-100617746D01*
X81737214Y-100377747D01*
X81740301Y-100371664D01*
X81760948Y-100324852D01*
X81765436Y-100309824D01*
X81786555Y-100182938D01*
X81787162Y-100156192D01*
X81789335Y-100156241D01*
X81799061Y-100098208D01*
X81846788Y-100045648D01*
X81915355Y-100027234D01*
X81975337Y-100044029D01*
X83344548Y-100833039D01*
X83366887Y-100845912D01*
X83415923Y-100897254D01*
X83429416Y-100966957D01*
X83403084Y-101032889D01*
X83345286Y-101074119D01*
X83335312Y-101077124D01*
X83268251Y-101094342D01*
X83260746Y-101096781D01*
X82986369Y-101205415D01*
X82979234Y-101208772D01*
X82720650Y-101350930D01*
X82713970Y-101355170D01*
X82508770Y-101504256D01*
X82500347Y-101515179D01*
X82507251Y-101528040D01*
X84280115Y-103300905D01*
X84314141Y-103363217D01*
X84309076Y-103434033D01*
X84280115Y-103479095D01*
X82543377Y-105215833D01*
X82481065Y-105249859D01*
X82454338Y-105252738D01*
X79061061Y-105254233D01*
X78802625Y-105254347D01*
X78767321Y-105243998D01*
X78745319Y-105253463D01*
X78730209Y-105254379D01*
X77529628Y-105254908D01*
X77461499Y-105234936D01*
X77414982Y-105181301D01*
X77404263Y-105142076D01*
X77401461Y-105115411D01*
X77414234Y-105045573D01*
X77424424Y-105028750D01*
X77727806Y-104606257D01*
X77783787Y-104562591D01*
X77854488Y-104556122D01*
X77893153Y-104570631D01*
X78562373Y-104957005D01*
X78619602Y-104982246D01*
X78627391Y-104983542D01*
X78627393Y-104983543D01*
X78750838Y-105004089D01*
X78763070Y-105010006D01*
X78767017Y-105007467D01*
X78787541Y-105003246D01*
X78898989Y-104989858D01*
X78898992Y-104989857D01*
X78907901Y-104988787D01*
X79041829Y-104931524D01*
X79048762Y-104925819D01*
X79048764Y-104925818D01*
X79148199Y-104843997D01*
X79148201Y-104843995D01*
X79154304Y-104838973D01*
X79191245Y-104788499D01*
X79739379Y-103839103D01*
X79764620Y-103781874D01*
X79767588Y-103764047D01*
X79787060Y-103647051D01*
X79787060Y-103647049D01*
X79788534Y-103638193D01*
X79771162Y-103493576D01*
X79741057Y-103423166D01*
X79728569Y-103393958D01*
X81597488Y-103393958D01*
X81616015Y-103688436D01*
X81617008Y-103696297D01*
X81672296Y-103986128D01*
X81674267Y-103993805D01*
X81765446Y-104274424D01*
X81768361Y-104281787D01*
X81893993Y-104548770D01*
X81897805Y-104555703D01*
X82055908Y-104804833D01*
X82060563Y-104811241D01*
X82125521Y-104889761D01*
X82138040Y-104898217D01*
X82148778Y-104892011D01*
X83637980Y-103402810D01*
X83645592Y-103388869D01*
X83645461Y-103387034D01*
X83641210Y-103380420D01*
X82149881Y-101889092D01*
X82136619Y-101881850D01*
X82126515Y-101889038D01*
X82060563Y-101968759D01*
X82055909Y-101975165D01*
X81897805Y-102224297D01*
X81893993Y-102231230D01*
X81768361Y-102498213D01*
X81765446Y-102505576D01*
X81674267Y-102786195D01*
X81672296Y-102793872D01*
X81617008Y-103083703D01*
X81616015Y-103091564D01*
X81597488Y-103386042D01*
X81597488Y-103393958D01*
X79728569Y-103393958D01*
X79717429Y-103367904D01*
X79717427Y-103367901D01*
X79713898Y-103359647D01*
X79650309Y-103282369D01*
X79626371Y-103253277D01*
X79626369Y-103253275D01*
X79621347Y-103247172D01*
X79570873Y-103210231D01*
X77105933Y-101787097D01*
X77048704Y-101761856D01*
X77040917Y-101760560D01*
X77040914Y-101760559D01*
X76913881Y-101739416D01*
X76913879Y-101739416D01*
X76905023Y-101737942D01*
X76860023Y-101743348D01*
X76769317Y-101754244D01*
X76769314Y-101754245D01*
X76760405Y-101755315D01*
X76626477Y-101812578D01*
X76619543Y-101818284D01*
X76600551Y-101833911D01*
X76535240Y-101861748D01*
X76465246Y-101849856D01*
X76457493Y-101845733D01*
X74856006Y-100921114D01*
X74843166Y-100907648D01*
X79555437Y-100907648D01*
X79556040Y-100909388D01*
X79561856Y-100914675D01*
X80559627Y-101490739D01*
X80565710Y-101493825D01*
X80612522Y-101514472D01*
X80627550Y-101518960D01*
X80754436Y-101540079D01*
X80772208Y-101540482D01*
X80898861Y-101525268D01*
X80916023Y-101520669D01*
X81033309Y-101470521D01*
X81048502Y-101461283D01*
X81147826Y-101379554D01*
X81158600Y-101368150D01*
X81188813Y-101326869D01*
X81192545Y-101321145D01*
X81328821Y-101085108D01*
X81332566Y-101069673D01*
X81331963Y-101067933D01*
X81326147Y-101062646D01*
X79942813Y-100263977D01*
X79927378Y-100260232D01*
X79925638Y-100260835D01*
X79920351Y-100266651D01*
X79559182Y-100892213D01*
X79555437Y-100907648D01*
X74843166Y-100907648D01*
X74807013Y-100869732D01*
X74793577Y-100800018D01*
X74794714Y-100791324D01*
X74800228Y-100758193D01*
X74782856Y-100613576D01*
X74758449Y-100556493D01*
X74729123Y-100487904D01*
X74729121Y-100487901D01*
X74725592Y-100479647D01*
X74677760Y-100421518D01*
X74638065Y-100373277D01*
X74638063Y-100373275D01*
X74633041Y-100367172D01*
X74582567Y-100330231D01*
X73405640Y-99650732D01*
X77881348Y-99650732D01*
X77896562Y-99777385D01*
X77901161Y-99794547D01*
X77951309Y-99911833D01*
X77960547Y-99927026D01*
X78042276Y-100026350D01*
X78053680Y-100037124D01*
X78094961Y-100067337D01*
X78100685Y-100071068D01*
X79094494Y-100644844D01*
X79109929Y-100648589D01*
X79111669Y-100647986D01*
X79116956Y-100642170D01*
X79478125Y-100016609D01*
X79481870Y-100001174D01*
X79481267Y-99999434D01*
X79475451Y-99994147D01*
X78092117Y-99195478D01*
X78076682Y-99191733D01*
X78074942Y-99192336D01*
X78069655Y-99198152D01*
X77931092Y-99438151D01*
X77928005Y-99444234D01*
X77907358Y-99491046D01*
X77902870Y-99506074D01*
X77881751Y-99632960D01*
X77881348Y-99650732D01*
X73405640Y-99650732D01*
X72117627Y-98907097D01*
X72060398Y-98881856D01*
X72052611Y-98880560D01*
X72052608Y-98880559D01*
X71925575Y-98859416D01*
X71925573Y-98859416D01*
X71916717Y-98857942D01*
X71871717Y-98863348D01*
X71781011Y-98874244D01*
X71781008Y-98874245D01*
X71772099Y-98875315D01*
X71638171Y-98932578D01*
X71631238Y-98938283D01*
X71631236Y-98938284D01*
X71531801Y-99020105D01*
X71531799Y-99020107D01*
X71525696Y-99025129D01*
X71488755Y-99075603D01*
X71487047Y-99078562D01*
X71487044Y-99078566D01*
X71111048Y-99729810D01*
X71059665Y-99778803D01*
X70989952Y-99792239D01*
X70924041Y-99765853D01*
X70908293Y-99751120D01*
X70795675Y-99626045D01*
X70795674Y-99626044D01*
X70791253Y-99621134D01*
X70670025Y-99533056D01*
X70642094Y-99512763D01*
X70642093Y-99512762D01*
X70636752Y-99508882D01*
X70630724Y-99506198D01*
X70630722Y-99506197D01*
X70468319Y-99433891D01*
X70468318Y-99433891D01*
X70462288Y-99431206D01*
X70368887Y-99411353D01*
X70281944Y-99392872D01*
X70281939Y-99392872D01*
X70275487Y-99391500D01*
X70084513Y-99391500D01*
X70078061Y-99392872D01*
X70078056Y-99392872D01*
X69991113Y-99411353D01*
X69897712Y-99431206D01*
X69891682Y-99433891D01*
X69891681Y-99433891D01*
X69729278Y-99506197D01*
X69729276Y-99506198D01*
X69723248Y-99508882D01*
X69717907Y-99512762D01*
X69717906Y-99512763D01*
X69689975Y-99533056D01*
X69568747Y-99621134D01*
X69564326Y-99626044D01*
X69564325Y-99626045D01*
X69490651Y-99707869D01*
X69440960Y-99763056D01*
X69345473Y-99928444D01*
X69286458Y-100110072D01*
X69285768Y-100116633D01*
X69285768Y-100116635D01*
X69274232Y-100226393D01*
X69266496Y-100300000D01*
X69267186Y-100306565D01*
X69276200Y-100392330D01*
X69263428Y-100462168D01*
X69214926Y-100514015D01*
X69150890Y-100531500D01*
X69064513Y-100531500D01*
X69058061Y-100532872D01*
X69058056Y-100532872D01*
X68971112Y-100551353D01*
X68877712Y-100571206D01*
X68871682Y-100573891D01*
X68871681Y-100573891D01*
X68709278Y-100646197D01*
X68709276Y-100646198D01*
X68703248Y-100648882D01*
X68697907Y-100652762D01*
X68697906Y-100652763D01*
X68672040Y-100671556D01*
X68548747Y-100761134D01*
X68544326Y-100766044D01*
X68544325Y-100766045D01*
X68439994Y-100881917D01*
X68420960Y-100903056D01*
X68325473Y-101068444D01*
X68266458Y-101250072D01*
X68265768Y-101256633D01*
X68265768Y-101256635D01*
X68255412Y-101355170D01*
X68246496Y-101440000D01*
X68247186Y-101446565D01*
X68265117Y-101617165D01*
X68266458Y-101629928D01*
X68325473Y-101811556D01*
X68328776Y-101817278D01*
X68328777Y-101817279D01*
X68351912Y-101857350D01*
X68420960Y-101976944D01*
X68425378Y-101981851D01*
X68425379Y-101981852D01*
X68540636Y-102109858D01*
X68548747Y-102118866D01*
X68599533Y-102155764D01*
X68696745Y-102226393D01*
X68703248Y-102231118D01*
X68709276Y-102233802D01*
X68709278Y-102233803D01*
X68871681Y-102306109D01*
X68877712Y-102308794D01*
X68963477Y-102327024D01*
X69058056Y-102347128D01*
X69058061Y-102347128D01*
X69064513Y-102348500D01*
X69255487Y-102348500D01*
X69261939Y-102347128D01*
X69261944Y-102347128D01*
X69356523Y-102327024D01*
X69442288Y-102308794D01*
X69448319Y-102306109D01*
X69610722Y-102233803D01*
X69610724Y-102233802D01*
X69616752Y-102231118D01*
X69623256Y-102226393D01*
X69720467Y-102155764D01*
X69771253Y-102118866D01*
X69779364Y-102109858D01*
X69894621Y-101981852D01*
X69894622Y-101981851D01*
X69899040Y-101976944D01*
X69968088Y-101857350D01*
X69991223Y-101817279D01*
X69991224Y-101817278D01*
X69994527Y-101811556D01*
X70053542Y-101629928D01*
X70054884Y-101617165D01*
X70072814Y-101446565D01*
X70073504Y-101440000D01*
X70064588Y-101355170D01*
X70063800Y-101347670D01*
X70076572Y-101277832D01*
X70125074Y-101225985D01*
X70189110Y-101208500D01*
X70275487Y-101208500D01*
X70281939Y-101207128D01*
X70281944Y-101207128D01*
X70387381Y-101184716D01*
X70462288Y-101168794D01*
X70477321Y-101162101D01*
X70630722Y-101093803D01*
X70630724Y-101093802D01*
X70636752Y-101091118D01*
X70645465Y-101084788D01*
X70729729Y-101023566D01*
X70791253Y-100978866D01*
X70824672Y-100941750D01*
X70914621Y-100841852D01*
X70914622Y-100841851D01*
X70919040Y-100836944D01*
X70982835Y-100726448D01*
X71034218Y-100677455D01*
X71103931Y-100664019D01*
X71154953Y-100680329D01*
X72321677Y-101353937D01*
X72370669Y-101405318D01*
X72384105Y-101475032D01*
X72357719Y-101540943D01*
X72299887Y-101582125D01*
X72284874Y-101586301D01*
X72174176Y-101609831D01*
X72174167Y-101609834D01*
X72167712Y-101611206D01*
X72161682Y-101613891D01*
X72161681Y-101613891D01*
X71999278Y-101686197D01*
X71999276Y-101686198D01*
X71993248Y-101688882D01*
X71987907Y-101692762D01*
X71987906Y-101692763D01*
X71984515Y-101695227D01*
X71838747Y-101801134D01*
X71834326Y-101806044D01*
X71834325Y-101806045D01*
X71747686Y-101902268D01*
X71710960Y-101943056D01*
X71615473Y-102108444D01*
X71556458Y-102290072D01*
X71555768Y-102296633D01*
X71555768Y-102296635D01*
X71550461Y-102347128D01*
X71536496Y-102480000D01*
X71537186Y-102486565D01*
X71554433Y-102650658D01*
X71556458Y-102669928D01*
X71615473Y-102851556D01*
X71618776Y-102857278D01*
X71618777Y-102857279D01*
X71625490Y-102868906D01*
X71710960Y-103016944D01*
X71715375Y-103021847D01*
X71715379Y-103021852D01*
X71778341Y-103091778D01*
X71809058Y-103155786D01*
X71810701Y-103177133D01*
X71810619Y-103187018D01*
X71809871Y-103277386D01*
X71809834Y-103281809D01*
X71789268Y-103349761D01*
X71735229Y-103395808D01*
X71664874Y-103405330D01*
X71623909Y-103391600D01*
X71563127Y-103358735D01*
X71563120Y-103358732D01*
X71557701Y-103355802D01*
X71368768Y-103297318D01*
X71362643Y-103296674D01*
X71362642Y-103296674D01*
X71178204Y-103277289D01*
X71178202Y-103277289D01*
X71172075Y-103276645D01*
X71109179Y-103282369D01*
X70981251Y-103294011D01*
X70981248Y-103294012D01*
X70975112Y-103294570D01*
X70969206Y-103296308D01*
X70969202Y-103296309D01*
X70864076Y-103327249D01*
X70785381Y-103350410D01*
X70779923Y-103353263D01*
X70779919Y-103353265D01*
X70715326Y-103387034D01*
X70610110Y-103442040D01*
X70605310Y-103445900D01*
X70600153Y-103449274D01*
X70598769Y-103447158D01*
X70543365Y-103470027D01*
X70473512Y-103457334D01*
X70463898Y-103451709D01*
X70461675Y-103449870D01*
X70287701Y-103355802D01*
X70098768Y-103297318D01*
X70092643Y-103296674D01*
X70092642Y-103296674D01*
X69908204Y-103277289D01*
X69908202Y-103277289D01*
X69902075Y-103276645D01*
X69839179Y-103282369D01*
X69711251Y-103294011D01*
X69711248Y-103294012D01*
X69705112Y-103294570D01*
X69699206Y-103296308D01*
X69699202Y-103296309D01*
X69594076Y-103327249D01*
X69515381Y-103350410D01*
X69509923Y-103353263D01*
X69509919Y-103353265D01*
X69445326Y-103387034D01*
X69340110Y-103442040D01*
X69335310Y-103445900D01*
X69330153Y-103449274D01*
X69328769Y-103447158D01*
X69273365Y-103470027D01*
X69203512Y-103457334D01*
X69193898Y-103451709D01*
X69191675Y-103449870D01*
X69017701Y-103355802D01*
X68828768Y-103297318D01*
X68822643Y-103296674D01*
X68822642Y-103296674D01*
X68638204Y-103277289D01*
X68638202Y-103277289D01*
X68632075Y-103276645D01*
X68569179Y-103282369D01*
X68441251Y-103294011D01*
X68441248Y-103294012D01*
X68435112Y-103294570D01*
X68429206Y-103296308D01*
X68429202Y-103296309D01*
X68324076Y-103327249D01*
X68245381Y-103350410D01*
X68239923Y-103353263D01*
X68239919Y-103353265D01*
X68175326Y-103387034D01*
X68070110Y-103442040D01*
X68065310Y-103445900D01*
X68060153Y-103449274D01*
X68058769Y-103447158D01*
X68003365Y-103470027D01*
X67933512Y-103457334D01*
X67923898Y-103451709D01*
X67921675Y-103449870D01*
X67747701Y-103355802D01*
X67558768Y-103297318D01*
X67552643Y-103296674D01*
X67552642Y-103296674D01*
X67368204Y-103277289D01*
X67368202Y-103277289D01*
X67362075Y-103276645D01*
X67299179Y-103282369D01*
X67171251Y-103294011D01*
X67171248Y-103294012D01*
X67165112Y-103294570D01*
X67159206Y-103296308D01*
X67159202Y-103296309D01*
X66981293Y-103348670D01*
X66975381Y-103350410D01*
X66969916Y-103353267D01*
X66969304Y-103353587D01*
X66968950Y-103353657D01*
X66964209Y-103355573D01*
X66963845Y-103354672D01*
X66899668Y-103367422D01*
X66847645Y-103347462D01*
X66846517Y-103349522D01*
X66823054Y-103336676D01*
X66702606Y-103291522D01*
X66687351Y-103287895D01*
X66636486Y-103282369D01*
X66629672Y-103282000D01*
X66357115Y-103282000D01*
X66341876Y-103286475D01*
X66340671Y-103287865D01*
X66339000Y-103295548D01*
X66339000Y-104418000D01*
X66318998Y-104486121D01*
X66265342Y-104532614D01*
X66213000Y-104544000D01*
X65095116Y-104544000D01*
X65079877Y-104548475D01*
X65078672Y-104549865D01*
X65077001Y-104557548D01*
X65077001Y-104566444D01*
X65056999Y-104634565D01*
X65003343Y-104681058D01*
X64947029Y-104692381D01*
X64588023Y-104681058D01*
X63139220Y-104635363D01*
X63071765Y-104613224D01*
X63026986Y-104558129D01*
X63019103Y-104487572D01*
X63020314Y-104482708D01*
X63020128Y-104482668D01*
X63021501Y-104476210D01*
X63023542Y-104469928D01*
X63024251Y-104463190D01*
X63042814Y-104286565D01*
X63043504Y-104280000D01*
X63037093Y-104219000D01*
X63024232Y-104096635D01*
X63024232Y-104096633D01*
X63023542Y-104090072D01*
X63000087Y-104017885D01*
X65077000Y-104017885D01*
X65081475Y-104033124D01*
X65082865Y-104034329D01*
X65090548Y-104036000D01*
X65812885Y-104036000D01*
X65828124Y-104031525D01*
X65829329Y-104030135D01*
X65831000Y-104022452D01*
X65831000Y-103300116D01*
X65826525Y-103284877D01*
X65825135Y-103283672D01*
X65817452Y-103282001D01*
X65540331Y-103282001D01*
X65533510Y-103282371D01*
X65482648Y-103287895D01*
X65467396Y-103291521D01*
X65346946Y-103336676D01*
X65331351Y-103345214D01*
X65229276Y-103421715D01*
X65216715Y-103434276D01*
X65140214Y-103536351D01*
X65131676Y-103551946D01*
X65086522Y-103672394D01*
X65082895Y-103687649D01*
X65077369Y-103738514D01*
X65077000Y-103745328D01*
X65077000Y-104017885D01*
X63000087Y-104017885D01*
X62964527Y-103908444D01*
X62958724Y-103898392D01*
X62906178Y-103807381D01*
X62869040Y-103743056D01*
X62836148Y-103706525D01*
X62745675Y-103606045D01*
X62745674Y-103606044D01*
X62741253Y-103601134D01*
X62605475Y-103502485D01*
X62592094Y-103492763D01*
X62592093Y-103492762D01*
X62586752Y-103488882D01*
X62580724Y-103486198D01*
X62580722Y-103486197D01*
X62418319Y-103413891D01*
X62418318Y-103413891D01*
X62412288Y-103411206D01*
X62314065Y-103390328D01*
X62231944Y-103372872D01*
X62231939Y-103372872D01*
X62225487Y-103371500D01*
X62079039Y-103371500D01*
X62010918Y-103351498D01*
X61998018Y-103341997D01*
X61797908Y-103173980D01*
X61759738Y-103141932D01*
X61720430Y-103082810D01*
X61714822Y-103041458D01*
X61732326Y-102487173D01*
X61732933Y-102478178D01*
X61737557Y-102433505D01*
X61737557Y-102433502D01*
X61738373Y-102425618D01*
X61729588Y-102366773D01*
X61728766Y-102360021D01*
X61727550Y-102347128D01*
X61726201Y-102332835D01*
X61723923Y-102308694D01*
X61723922Y-102308691D01*
X61723178Y-102300803D01*
X61720494Y-102293344D01*
X61718766Y-102285610D01*
X61718850Y-102285591D01*
X61718137Y-102282761D01*
X61718054Y-102282784D01*
X61715912Y-102275156D01*
X61714741Y-102267314D01*
X61711659Y-102260014D01*
X61711656Y-102260004D01*
X61691600Y-102212504D01*
X61689126Y-102206173D01*
X61679827Y-102180332D01*
X61675583Y-102109463D01*
X61676127Y-102108494D01*
X61632389Y-102068735D01*
X61623901Y-102052165D01*
X61475243Y-101700080D01*
X61829326Y-101700080D01*
X61830874Y-101847937D01*
X61833010Y-101863533D01*
X61861684Y-101970543D01*
X61860204Y-102032726D01*
X61900122Y-102063336D01*
X61908158Y-102075817D01*
X61949814Y-102149743D01*
X61959192Y-102162370D01*
X62045961Y-102252854D01*
X62058196Y-102259871D01*
X62064682Y-102255224D01*
X62328280Y-101798659D01*
X62332025Y-101783224D01*
X62331422Y-101781484D01*
X62325606Y-101776197D01*
X61891834Y-101525758D01*
X61876848Y-101522123D01*
X61870035Y-101530237D01*
X61866761Y-101539403D01*
X61831134Y-101684454D01*
X61829326Y-101700080D01*
X61475243Y-101700080D01*
X61144209Y-100916052D01*
X61140842Y-100905031D01*
X61140371Y-100905187D01*
X61137885Y-100897655D01*
X61136364Y-100889877D01*
X61132955Y-100882718D01*
X61109297Y-100833039D01*
X61106979Y-100827877D01*
X61099649Y-100810517D01*
X61098109Y-100806869D01*
X61093501Y-100798917D01*
X61088761Y-100789917D01*
X61070957Y-100752530D01*
X61070956Y-100752528D01*
X61067546Y-100745368D01*
X61057868Y-100733779D01*
X61045568Y-100716198D01*
X61038001Y-100703139D01*
X61032445Y-100697484D01*
X61032441Y-100697478D01*
X61003416Y-100667933D01*
X60996586Y-100660395D01*
X60970033Y-100628597D01*
X60970031Y-100628595D01*
X60964952Y-100622513D01*
X60958522Y-100617886D01*
X60958516Y-100617881D01*
X60952698Y-100613695D01*
X60936409Y-100599723D01*
X60931391Y-100594616D01*
X60925833Y-100588958D01*
X60883576Y-100563458D01*
X60875087Y-100557855D01*
X60523902Y-100305175D01*
X60480289Y-100249154D01*
X60473886Y-100178446D01*
X60488371Y-100139902D01*
X60737805Y-99707869D01*
X60763046Y-99650640D01*
X60765039Y-99651519D01*
X60779512Y-99626442D01*
X60777358Y-99624866D01*
X60812249Y-99577192D01*
X60815961Y-99571498D01*
X60839748Y-99530298D01*
X60843492Y-99514865D01*
X60842889Y-99513125D01*
X60827050Y-99498726D01*
X60827888Y-99497804D01*
X60788931Y-99456948D01*
X60775824Y-99414240D01*
X60770660Y-99371258D01*
X60770659Y-99371253D01*
X60769588Y-99362341D01*
X60766058Y-99354084D01*
X60729658Y-99268951D01*
X60721268Y-99198452D01*
X60752325Y-99134609D01*
X60812969Y-99097691D01*
X60830479Y-99094316D01*
X60878667Y-99088527D01*
X60948686Y-99100262D01*
X60957760Y-99105132D01*
X61511626Y-99432266D01*
X61529196Y-99444790D01*
X61534396Y-99449215D01*
X61534399Y-99449217D01*
X61540431Y-99454349D01*
X61585115Y-99476136D01*
X61593960Y-99480896D01*
X61602146Y-99485730D01*
X61614450Y-99491046D01*
X61622754Y-99494634D01*
X61627995Y-99497043D01*
X61648081Y-99506836D01*
X61700546Y-99554668D01*
X61718823Y-99623272D01*
X61701982Y-99683091D01*
X61529822Y-99981281D01*
X61504581Y-100038510D01*
X61503285Y-100046299D01*
X61503284Y-100046301D01*
X61486608Y-100146494D01*
X61480666Y-100182191D01*
X61481737Y-100191105D01*
X61496495Y-100313955D01*
X61498039Y-100326809D01*
X61501569Y-100335065D01*
X61540979Y-100427237D01*
X61555302Y-100460737D01*
X61647854Y-100573212D01*
X61654228Y-100577877D01*
X61654229Y-100577878D01*
X61695580Y-100608143D01*
X61695586Y-100608147D01*
X61698327Y-100610153D01*
X62122919Y-100855291D01*
X62171911Y-100906672D01*
X62185347Y-100976386D01*
X62158961Y-101042297D01*
X62147129Y-101055350D01*
X62145119Y-101057278D01*
X62139874Y-101063451D01*
X62135606Y-101076484D01*
X62144050Y-101084788D01*
X62591338Y-101343030D01*
X62850712Y-101492780D01*
X62899705Y-101544162D01*
X62913141Y-101613876D01*
X62896831Y-101664899D01*
X62715089Y-101979685D01*
X62699210Y-102012976D01*
X62697675Y-102019225D01*
X62697674Y-102019228D01*
X62662016Y-102164398D01*
X62662015Y-102164403D01*
X62660126Y-102172095D01*
X62660209Y-102180022D01*
X62660462Y-102204210D01*
X62643588Y-102268528D01*
X62507499Y-102504241D01*
X62504174Y-102517946D01*
X62510447Y-102522879D01*
X62637780Y-102554154D01*
X62653409Y-102555962D01*
X62664038Y-102555851D01*
X62732364Y-102575140D01*
X62775128Y-102619990D01*
X62784684Y-102636949D01*
X62790168Y-102642668D01*
X62790169Y-102642669D01*
X62837026Y-102691531D01*
X62898091Y-102755209D01*
X62912337Y-102765000D01*
X62926440Y-102774693D01*
X62926449Y-102774699D01*
X62928488Y-102776100D01*
X63284396Y-102981584D01*
X63286620Y-102982645D01*
X63286628Y-102982649D01*
X63311881Y-102994694D01*
X63311884Y-102994695D01*
X63317687Y-102997463D01*
X63323929Y-102998996D01*
X63323934Y-102998998D01*
X63420789Y-103022787D01*
X63476806Y-103036546D01*
X63640646Y-103034831D01*
X63798913Y-102992423D01*
X63805817Y-102988533D01*
X63805819Y-102988532D01*
X63934757Y-102915879D01*
X63941661Y-102911989D01*
X64059920Y-102798582D01*
X64074517Y-102777343D01*
X64079404Y-102770233D01*
X64079410Y-102770224D01*
X64080811Y-102768185D01*
X64316295Y-102360315D01*
X64321931Y-102348500D01*
X64324228Y-102343683D01*
X64332174Y-102327024D01*
X64350695Y-102251621D01*
X64386369Y-102190238D01*
X64449566Y-102157885D01*
X64476215Y-102157574D01*
X64476256Y-102155764D01*
X64485224Y-102155968D01*
X64494083Y-102157442D01*
X64638700Y-102140070D01*
X64720282Y-102105188D01*
X64764374Y-102086336D01*
X64764376Y-102086335D01*
X64772629Y-102082806D01*
X64781123Y-102075817D01*
X64850937Y-102018369D01*
X64885103Y-101990255D01*
X64891206Y-101981917D01*
X64920024Y-101942541D01*
X64922044Y-101939781D01*
X65670178Y-100643975D01*
X65695419Y-100586746D01*
X65700228Y-100557855D01*
X65717860Y-100451923D01*
X65717860Y-100451920D01*
X65719334Y-100443065D01*
X65707748Y-100346621D01*
X65719483Y-100276601D01*
X65767210Y-100224041D01*
X65783313Y-100215739D01*
X65864373Y-100181080D01*
X65872629Y-100177550D01*
X65985103Y-100084999D01*
X65998030Y-100067337D01*
X66020023Y-100037286D01*
X66022044Y-100034525D01*
X66770178Y-98738719D01*
X66795419Y-98681490D01*
X66797522Y-98668857D01*
X66817860Y-98546667D01*
X66817860Y-98546664D01*
X66819334Y-98537809D01*
X66808515Y-98447748D01*
X66803032Y-98402103D01*
X66803031Y-98402100D01*
X66801961Y-98393191D01*
X66785467Y-98354615D01*
X66748230Y-98267523D01*
X66748229Y-98267521D01*
X66744698Y-98259263D01*
X66738992Y-98252329D01*
X66734329Y-98244659D01*
X66736084Y-98243592D01*
X66712845Y-98189075D01*
X66724735Y-98119081D01*
X66750769Y-98083382D01*
X66808888Y-98027648D01*
X74567131Y-98027648D01*
X74567734Y-98029388D01*
X74573550Y-98034675D01*
X75571321Y-98610739D01*
X75577404Y-98613825D01*
X75624216Y-98634472D01*
X75639244Y-98638960D01*
X75766130Y-98660079D01*
X75783902Y-98660482D01*
X75910555Y-98645268D01*
X75927717Y-98640669D01*
X76045003Y-98590521D01*
X76060196Y-98581283D01*
X76159520Y-98499554D01*
X76170294Y-98488150D01*
X76200507Y-98446869D01*
X76204239Y-98441145D01*
X76340515Y-98205108D01*
X76344260Y-98189673D01*
X76343657Y-98187933D01*
X76337841Y-98182646D01*
X74954507Y-97383977D01*
X74939072Y-97380232D01*
X74937332Y-97380835D01*
X74932045Y-97386651D01*
X74570876Y-98012213D01*
X74567131Y-98027648D01*
X66808888Y-98027648D01*
X66834882Y-98002721D01*
X66840126Y-97996549D01*
X66844394Y-97983516D01*
X66835950Y-97975212D01*
X66388662Y-97716970D01*
X66129288Y-97567220D01*
X66080295Y-97515838D01*
X66066859Y-97446124D01*
X66083169Y-97395101D01*
X66089157Y-97384729D01*
X66151484Y-97276776D01*
X66647975Y-97276776D01*
X66648578Y-97278516D01*
X66654394Y-97283803D01*
X67088166Y-97534242D01*
X67103152Y-97537877D01*
X67109965Y-97529763D01*
X67113239Y-97520597D01*
X67148866Y-97375546D01*
X67150674Y-97359920D01*
X67149126Y-97212063D01*
X67146991Y-97196475D01*
X67108717Y-97053637D01*
X67102781Y-97039091D01*
X67030184Y-96910254D01*
X67020808Y-96897630D01*
X66934039Y-96807146D01*
X66921804Y-96800129D01*
X66915318Y-96804776D01*
X66651720Y-97261341D01*
X66647975Y-97276776D01*
X66151484Y-97276776D01*
X66264911Y-97080315D01*
X66280790Y-97047024D01*
X66282739Y-97039091D01*
X66317984Y-96895602D01*
X66317985Y-96895597D01*
X66319874Y-96887905D01*
X66319538Y-96855790D01*
X66336412Y-96791472D01*
X66348386Y-96770732D01*
X72893042Y-96770732D01*
X72908256Y-96897385D01*
X72912855Y-96914547D01*
X72963003Y-97031833D01*
X72972239Y-97047024D01*
X73053970Y-97146350D01*
X73065374Y-97157124D01*
X73106655Y-97187337D01*
X73112379Y-97191068D01*
X74106188Y-97764844D01*
X74121623Y-97768589D01*
X74123363Y-97767986D01*
X74128650Y-97762170D01*
X74489819Y-97136609D01*
X74493564Y-97121174D01*
X74492961Y-97119434D01*
X74487145Y-97114147D01*
X73103811Y-96315478D01*
X73088376Y-96311733D01*
X73086636Y-96312336D01*
X73081349Y-96318152D01*
X72942786Y-96558151D01*
X72939699Y-96564234D01*
X72919052Y-96611046D01*
X72914564Y-96626074D01*
X72893445Y-96752960D01*
X72893042Y-96770732D01*
X66348386Y-96770732D01*
X66472501Y-96555759D01*
X66475826Y-96542054D01*
X66469553Y-96537121D01*
X66342220Y-96505846D01*
X66326591Y-96504038D01*
X66315962Y-96504149D01*
X66247636Y-96484860D01*
X66204872Y-96440010D01*
X66201374Y-96433803D01*
X66195316Y-96423051D01*
X66081909Y-96304791D01*
X66060391Y-96290002D01*
X66053560Y-96285307D01*
X66053551Y-96285301D01*
X66051512Y-96283900D01*
X65695604Y-96078416D01*
X65693380Y-96077355D01*
X65693372Y-96077351D01*
X65668119Y-96065306D01*
X65668116Y-96065305D01*
X65662313Y-96062537D01*
X65656071Y-96061004D01*
X65656066Y-96061002D01*
X65518522Y-96027219D01*
X65503194Y-96023454D01*
X65455827Y-96023950D01*
X65347277Y-96025086D01*
X65347276Y-96025086D01*
X65339354Y-96025169D01*
X65242578Y-96051100D01*
X65190270Y-96053035D01*
X65189207Y-96052691D01*
X65181298Y-96052199D01*
X65128363Y-96048906D01*
X65122056Y-96048354D01*
X65069396Y-96042411D01*
X65069394Y-96042411D01*
X65061517Y-96041522D01*
X65053666Y-96042620D01*
X65045741Y-96042725D01*
X65045738Y-96042472D01*
X65045266Y-96042490D01*
X65045282Y-96042742D01*
X65037374Y-96043245D01*
X65029458Y-96042753D01*
X65021667Y-96044245D01*
X65021666Y-96044245D01*
X64969607Y-96054214D01*
X64963361Y-96055249D01*
X64910850Y-96062592D01*
X64910847Y-96062593D01*
X64903001Y-96063690D01*
X64895672Y-96066705D01*
X64888019Y-96068779D01*
X64887953Y-96068534D01*
X64875610Y-96072213D01*
X64836788Y-96079647D01*
X64766121Y-96072813D01*
X64710367Y-96028859D01*
X64700678Y-96000754D01*
X70866825Y-96000754D01*
X70875162Y-96007309D01*
X70906046Y-96017344D01*
X70918027Y-96019978D01*
X71102085Y-96041926D01*
X71114334Y-96042183D01*
X71299151Y-96027962D01*
X71311231Y-96025831D01*
X71489746Y-95975988D01*
X71501196Y-95971548D01*
X71666635Y-95887979D01*
X71676994Y-95881404D01*
X71823054Y-95767290D01*
X71831932Y-95758836D01*
X71837345Y-95752566D01*
X71842764Y-95740640D01*
X71832217Y-95729060D01*
X71238069Y-95386028D01*
X71222634Y-95382283D01*
X71220894Y-95382886D01*
X71215607Y-95388702D01*
X70870150Y-95987049D01*
X70866825Y-96000754D01*
X64700678Y-96000754D01*
X64687227Y-95961739D01*
X64704048Y-95892764D01*
X64708631Y-95885439D01*
X65788596Y-94284605D01*
X65813016Y-94248407D01*
X65867695Y-94203122D01*
X65920376Y-94192908D01*
X66784006Y-94212838D01*
X66791085Y-94213200D01*
X66841671Y-94217222D01*
X66841673Y-94217222D01*
X66849573Y-94217850D01*
X66857385Y-94216493D01*
X66857386Y-94216493D01*
X66902453Y-94208665D01*
X66911110Y-94207469D01*
X66940361Y-94204457D01*
X66964486Y-94201973D01*
X66974570Y-94198247D01*
X66996674Y-94192296D01*
X67007270Y-94190456D01*
X67056225Y-94168399D01*
X67064264Y-94165108D01*
X67114626Y-94146500D01*
X67121146Y-94141989D01*
X67121150Y-94141987D01*
X67123474Y-94140379D01*
X67143403Y-94129120D01*
X67316450Y-94051152D01*
X67386774Y-94041405D01*
X67418650Y-94050567D01*
G37*
G04 #@! TD.AperFunction*
G04 #@! TA.AperFunction,Conductor*
G36*
X52947764Y-101528312D02*
G01*
X52988946Y-101586144D01*
X52995753Y-101632916D01*
X52994611Y-101658770D01*
X52993585Y-101681989D01*
X52995216Y-101689749D01*
X52995862Y-101697652D01*
X52995240Y-101697703D01*
X52996341Y-101708457D01*
X52993539Y-103098182D01*
X52973399Y-103166262D01*
X52919650Y-103212647D01*
X52849356Y-103222609D01*
X52807611Y-103208764D01*
X52752929Y-103179198D01*
X52741619Y-103174444D01*
X52626308Y-103138750D01*
X52612205Y-103138544D01*
X52609000Y-103145299D01*
X52609000Y-104238000D01*
X52588998Y-104306121D01*
X52535342Y-104352614D01*
X52483000Y-104364000D01*
X52227000Y-104364000D01*
X52158879Y-104343998D01*
X52112386Y-104290342D01*
X52101000Y-104238000D01*
X52101000Y-103152076D01*
X52097027Y-103138545D01*
X52089232Y-103137425D01*
X51981479Y-103169138D01*
X51970111Y-103173731D01*
X51878825Y-103221454D01*
X51809190Y-103235288D01*
X51743129Y-103209278D01*
X51701617Y-103151682D01*
X51697834Y-103080786D01*
X51711747Y-103046077D01*
X51714455Y-103041458D01*
X52357452Y-101944443D01*
X52409154Y-101895789D01*
X52413132Y-101893972D01*
X52418913Y-101892423D01*
X52425818Y-101888532D01*
X52425821Y-101888531D01*
X52516401Y-101837491D01*
X52561661Y-101811989D01*
X52679920Y-101698582D01*
X52696771Y-101674064D01*
X52699404Y-101670233D01*
X52699410Y-101670224D01*
X52700811Y-101668185D01*
X52760758Y-101564354D01*
X52812139Y-101515362D01*
X52881853Y-101501926D01*
X52947764Y-101528312D01*
G37*
G04 #@! TD.AperFunction*
G04 #@! TA.AperFunction,Conductor*
G36*
X52556237Y-91366623D02*
G01*
X52571985Y-91381356D01*
X52578747Y-91388866D01*
X52670535Y-91455554D01*
X52713807Y-91486993D01*
X52733248Y-91501118D01*
X52739274Y-91503801D01*
X52739281Y-91503805D01*
X52879609Y-91566282D01*
X52933705Y-91612262D01*
X52940927Y-91624778D01*
X54054341Y-93838879D01*
X54058097Y-93846349D01*
X54070832Y-93916195D01*
X54065363Y-93941888D01*
X54046458Y-94000072D01*
X54045768Y-94006633D01*
X54045768Y-94006635D01*
X54034606Y-94112836D01*
X54026496Y-94190000D01*
X54027186Y-94196565D01*
X54045364Y-94369516D01*
X54046458Y-94379928D01*
X54105473Y-94561556D01*
X54200960Y-94726944D01*
X54205378Y-94731851D01*
X54205379Y-94731852D01*
X54302213Y-94839397D01*
X54328747Y-94868866D01*
X54483248Y-94981118D01*
X54489276Y-94983802D01*
X54489278Y-94983803D01*
X54651681Y-95056109D01*
X54657712Y-95058794D01*
X54751113Y-95078647D01*
X54838056Y-95097128D01*
X54838061Y-95097128D01*
X54844513Y-95098500D01*
X55035487Y-95098500D01*
X55041939Y-95097128D01*
X55041944Y-95097128D01*
X55128887Y-95078647D01*
X55222288Y-95058794D01*
X55228319Y-95056109D01*
X55390722Y-94983803D01*
X55390724Y-94983802D01*
X55396752Y-94981118D01*
X55551253Y-94868866D01*
X55577787Y-94839397D01*
X55674621Y-94731852D01*
X55674622Y-94731851D01*
X55679040Y-94726944D01*
X55774527Y-94561556D01*
X55833542Y-94379928D01*
X55834637Y-94369516D01*
X55839777Y-94320607D01*
X55866791Y-94254950D01*
X55925012Y-94214321D01*
X55995957Y-94211618D01*
X56057101Y-94247700D01*
X56072182Y-94267397D01*
X56191015Y-94459123D01*
X56248161Y-94551324D01*
X56267047Y-94619763D01*
X56266374Y-94630867D01*
X56246496Y-94820000D01*
X56247186Y-94826565D01*
X56263223Y-94979145D01*
X56266458Y-95009928D01*
X56325473Y-95191556D01*
X56420960Y-95356944D01*
X56425378Y-95361851D01*
X56425379Y-95361852D01*
X56524542Y-95471984D01*
X56548747Y-95498866D01*
X56703248Y-95611118D01*
X56709276Y-95613802D01*
X56709278Y-95613803D01*
X56871681Y-95686109D01*
X56877712Y-95688794D01*
X56959295Y-95706135D01*
X57058056Y-95727128D01*
X57058061Y-95727128D01*
X57064513Y-95728500D01*
X57255487Y-95728500D01*
X57261939Y-95727128D01*
X57261944Y-95727128D01*
X57360705Y-95706135D01*
X57442288Y-95688794D01*
X57448319Y-95686109D01*
X57610722Y-95613803D01*
X57610724Y-95613802D01*
X57616752Y-95611118D01*
X57648266Y-95588222D01*
X57685329Y-95561294D01*
X57752197Y-95537435D01*
X57821348Y-95553516D01*
X57869941Y-95602778D01*
X57888760Y-95637193D01*
X57892563Y-95644147D01*
X57895375Y-95647156D01*
X57897396Y-95650741D01*
X57902882Y-95656461D01*
X57949400Y-95704964D01*
X57950509Y-95706135D01*
X58001866Y-95761074D01*
X58005338Y-95763288D01*
X58008187Y-95766259D01*
X58014925Y-95770436D01*
X58072093Y-95805878D01*
X58073457Y-95806735D01*
X58136813Y-95847144D01*
X58140724Y-95848425D01*
X58144225Y-95850595D01*
X58216131Y-95873124D01*
X58217486Y-95873559D01*
X58675175Y-96023422D01*
X58733689Y-96063627D01*
X58745084Y-96080163D01*
X58800960Y-96176944D01*
X58805378Y-96181851D01*
X58805379Y-96181852D01*
X58898530Y-96285307D01*
X58928747Y-96318866D01*
X59083248Y-96431118D01*
X59089276Y-96433802D01*
X59089278Y-96433803D01*
X59251681Y-96506109D01*
X59257712Y-96508794D01*
X59375487Y-96533828D01*
X59438057Y-96547128D01*
X59438060Y-96547128D01*
X59444513Y-96548500D01*
X59450904Y-96548500D01*
X59516488Y-96575481D01*
X59557119Y-96633702D01*
X59559824Y-96704647D01*
X59546782Y-96736780D01*
X59499934Y-96817924D01*
X59434885Y-96930592D01*
X59409644Y-96987821D01*
X59407423Y-96986841D01*
X59393002Y-97011821D01*
X59394960Y-97013254D01*
X59358019Y-97063728D01*
X59283083Y-97193521D01*
X59231702Y-97242513D01*
X59161988Y-97255949D01*
X59096077Y-97229563D01*
X59079654Y-97212503D01*
X59079040Y-97213056D01*
X58955675Y-97076045D01*
X58955674Y-97076044D01*
X58951253Y-97071134D01*
X58835234Y-96986841D01*
X58802094Y-96962763D01*
X58802093Y-96962762D01*
X58796752Y-96958882D01*
X58790724Y-96956198D01*
X58790722Y-96956197D01*
X58628319Y-96883891D01*
X58628318Y-96883891D01*
X58622288Y-96881206D01*
X58502716Y-96855790D01*
X58441944Y-96842872D01*
X58441939Y-96842872D01*
X58435487Y-96841500D01*
X58244513Y-96841500D01*
X58238061Y-96842872D01*
X58238056Y-96842872D01*
X58177284Y-96855790D01*
X58057712Y-96881206D01*
X58051682Y-96883891D01*
X58051681Y-96883891D01*
X57889278Y-96956197D01*
X57889276Y-96956198D01*
X57883248Y-96958882D01*
X57877907Y-96962762D01*
X57877906Y-96962763D01*
X57844766Y-96986841D01*
X57728747Y-97071134D01*
X57724326Y-97076044D01*
X57724325Y-97076045D01*
X57615890Y-97196475D01*
X57600960Y-97213056D01*
X57505473Y-97378444D01*
X57446458Y-97560072D01*
X57445768Y-97566633D01*
X57445768Y-97566635D01*
X57435414Y-97665147D01*
X57426496Y-97750000D01*
X57427186Y-97756565D01*
X57443560Y-97912351D01*
X57446458Y-97939928D01*
X57505473Y-98121556D01*
X57600960Y-98286944D01*
X57605378Y-98291851D01*
X57605379Y-98291852D01*
X57707014Y-98404729D01*
X57728747Y-98428866D01*
X57734089Y-98432747D01*
X57734091Y-98432749D01*
X57855539Y-98520986D01*
X57898893Y-98577208D01*
X57903454Y-98591335D01*
X57995580Y-98947128D01*
X57997022Y-98952699D01*
X57998752Y-98964133D01*
X57999236Y-98964049D01*
X58000599Y-98971859D01*
X58000972Y-98979777D01*
X58003303Y-98987354D01*
X58019467Y-99039898D01*
X58021014Y-99045363D01*
X58025719Y-99063534D01*
X58025722Y-99063545D01*
X58026715Y-99067378D01*
X58028179Y-99071055D01*
X58028182Y-99071063D01*
X58030134Y-99075964D01*
X58033504Y-99085528D01*
X58048035Y-99132761D01*
X58052176Y-99139519D01*
X58052178Y-99139523D01*
X58055890Y-99145580D01*
X58065514Y-99164792D01*
X58068143Y-99171394D01*
X58068146Y-99171399D01*
X58069892Y-99175784D01*
X58069893Y-99175787D01*
X58071076Y-99178757D01*
X58070597Y-99178948D01*
X58084863Y-99243034D01*
X58068261Y-99297654D01*
X58060064Y-99311852D01*
X58014080Y-99391500D01*
X58013863Y-99391875D01*
X57962481Y-99440868D01*
X57892767Y-99454305D01*
X57826856Y-99427918D01*
X57811112Y-99413190D01*
X57791253Y-99391134D01*
X57667506Y-99301226D01*
X57642094Y-99282763D01*
X57642093Y-99282762D01*
X57636752Y-99278882D01*
X57630724Y-99276198D01*
X57630722Y-99276197D01*
X57468319Y-99203891D01*
X57468318Y-99203891D01*
X57462288Y-99201206D01*
X57357573Y-99178948D01*
X57281944Y-99162872D01*
X57281939Y-99162872D01*
X57275487Y-99161500D01*
X57084513Y-99161500D01*
X57078061Y-99162872D01*
X57078056Y-99162872D01*
X57002427Y-99178948D01*
X56897712Y-99201206D01*
X56891685Y-99203889D01*
X56891677Y-99203892D01*
X56787308Y-99250360D01*
X56716941Y-99259794D01*
X56652644Y-99229687D01*
X56623992Y-99192844D01*
X56616753Y-99178756D01*
X56464501Y-98882482D01*
X56464161Y-98881816D01*
X56452073Y-98857942D01*
X56429033Y-98812438D01*
X56406258Y-98786471D01*
X56397023Y-98774578D01*
X56377509Y-98746076D01*
X56371547Y-98740857D01*
X56371545Y-98740854D01*
X56354972Y-98726344D01*
X56343244Y-98714627D01*
X56328718Y-98698065D01*
X56328716Y-98698063D01*
X56323491Y-98692106D01*
X56294969Y-98672616D01*
X56283065Y-98663391D01*
X56279743Y-98660482D01*
X56257081Y-98640642D01*
X56250009Y-98637069D01*
X56243434Y-98632634D01*
X56245096Y-98630171D01*
X56203516Y-98591161D01*
X56192290Y-98566219D01*
X56153796Y-98447748D01*
X56134527Y-98388444D01*
X56039040Y-98223056D01*
X56008444Y-98189075D01*
X55915675Y-98086045D01*
X55915674Y-98086044D01*
X55911253Y-98081134D01*
X55812157Y-98009136D01*
X55762094Y-97972763D01*
X55762093Y-97972762D01*
X55756752Y-97968882D01*
X55750724Y-97966198D01*
X55750722Y-97966197D01*
X55588319Y-97893891D01*
X55588318Y-97893891D01*
X55582288Y-97891206D01*
X55488887Y-97871353D01*
X55401944Y-97852872D01*
X55401939Y-97852872D01*
X55395487Y-97851500D01*
X55204513Y-97851500D01*
X55198061Y-97852872D01*
X55198056Y-97852872D01*
X55065650Y-97881016D01*
X54994859Y-97875614D01*
X54938226Y-97832797D01*
X54914143Y-97770939D01*
X54913503Y-97764844D01*
X54903542Y-97670072D01*
X54844527Y-97488444D01*
X54826020Y-97456388D01*
X54784213Y-97383977D01*
X54749040Y-97323056D01*
X54713697Y-97283803D01*
X54625675Y-97186045D01*
X54625674Y-97186044D01*
X54621253Y-97181134D01*
X54522157Y-97109136D01*
X54472094Y-97072763D01*
X54472093Y-97072762D01*
X54466752Y-97068882D01*
X54460724Y-97066198D01*
X54460722Y-97066197D01*
X54298319Y-96993891D01*
X54298318Y-96993891D01*
X54292288Y-96991206D01*
X54188542Y-96969154D01*
X54111944Y-96952872D01*
X54111939Y-96952872D01*
X54105487Y-96951500D01*
X53914513Y-96951500D01*
X53908061Y-96952872D01*
X53908056Y-96952872D01*
X53831458Y-96969154D01*
X53727712Y-96991206D01*
X53721682Y-96993891D01*
X53721681Y-96993891D01*
X53559278Y-97066197D01*
X53559276Y-97066198D01*
X53553248Y-97068882D01*
X53490687Y-97114336D01*
X53423821Y-97138193D01*
X53354669Y-97122113D01*
X53347431Y-97117698D01*
X53143526Y-96983704D01*
X53136195Y-96978350D01*
X53131629Y-96973592D01*
X53072230Y-96936798D01*
X53069386Y-96934983D01*
X53047901Y-96920865D01*
X53044596Y-96918693D01*
X53041041Y-96916951D01*
X53037605Y-96914990D01*
X53037620Y-96914964D01*
X53031659Y-96911668D01*
X51316848Y-95849464D01*
X50152473Y-95128216D01*
X50105095Y-95075340D01*
X50097813Y-95055603D01*
X50096898Y-95047982D01*
X50093368Y-95039725D01*
X50056968Y-94954592D01*
X50048578Y-94884093D01*
X50079635Y-94820250D01*
X50140279Y-94783332D01*
X50157790Y-94779957D01*
X50258637Y-94767842D01*
X50306697Y-94747293D01*
X50377196Y-94738903D01*
X50405505Y-94749088D01*
X50429860Y-94754997D01*
X50431600Y-94754394D01*
X50436887Y-94748578D01*
X50462951Y-94703435D01*
X50466037Y-94697351D01*
X50489875Y-94643308D01*
X50492391Y-94644418D01*
X50506819Y-94619329D01*
X50505040Y-94618027D01*
X50523989Y-94592136D01*
X50541981Y-94567553D01*
X50865115Y-94007869D01*
X50890356Y-93950640D01*
X50892577Y-93951620D01*
X50906998Y-93926640D01*
X50905040Y-93925207D01*
X50936433Y-93882313D01*
X50941981Y-93874733D01*
X51265115Y-93315049D01*
X51290356Y-93257820D01*
X51292590Y-93258805D01*
X51307012Y-93233829D01*
X51305040Y-93232386D01*
X51329325Y-93199204D01*
X51341981Y-93181912D01*
X51665115Y-92622228D01*
X51690356Y-92564999D01*
X51692577Y-92565979D01*
X51706998Y-92540999D01*
X51705040Y-92539566D01*
X51729581Y-92506035D01*
X51741981Y-92489092D01*
X52065115Y-91929408D01*
X52090356Y-91872179D01*
X52092577Y-91873159D01*
X52106998Y-91848179D01*
X52105040Y-91846746D01*
X52139960Y-91799033D01*
X52141981Y-91796272D01*
X52158088Y-91768375D01*
X52332111Y-91466958D01*
X52369230Y-91402666D01*
X52420613Y-91353673D01*
X52490326Y-91340237D01*
X52556237Y-91366623D01*
G37*
G04 #@! TD.AperFunction*
G04 #@! TA.AperFunction,Conductor*
G36*
X46756121Y-96687002D02*
G01*
X46802614Y-96740658D01*
X46814000Y-96793000D01*
X46814000Y-97355500D01*
X46793998Y-97423621D01*
X46740342Y-97470114D01*
X46688000Y-97481500D01*
X46432000Y-97481500D01*
X46363879Y-97461498D01*
X46317386Y-97407842D01*
X46306000Y-97355500D01*
X46306000Y-96793000D01*
X46326002Y-96724879D01*
X46379658Y-96678386D01*
X46432000Y-96667000D01*
X46688000Y-96667000D01*
X46756121Y-96687002D01*
G37*
G04 #@! TD.AperFunction*
G04 #@! TA.AperFunction,Conductor*
G36*
X62258368Y-88682092D02*
G01*
X63995370Y-89683042D01*
X66428864Y-91085347D01*
X66477899Y-91136688D01*
X66491392Y-91206391D01*
X66465060Y-91272323D01*
X66413358Y-91309204D01*
X66414025Y-91310764D01*
X66288349Y-91364498D01*
X66288347Y-91364499D01*
X66280096Y-91368027D01*
X66273162Y-91373732D01*
X66273163Y-91373732D01*
X66173726Y-91455554D01*
X66173724Y-91455556D01*
X66167621Y-91460578D01*
X66130680Y-91511052D01*
X65940401Y-91840625D01*
X65932141Y-91854932D01*
X65880759Y-91903925D01*
X65831792Y-91917626D01*
X65440290Y-91944940D01*
X65430386Y-91945631D01*
X65418936Y-91945908D01*
X65373467Y-91944940D01*
X65365747Y-91946748D01*
X65308373Y-91960185D01*
X65304096Y-91961109D01*
X65238543Y-91974078D01*
X65231393Y-91977502D01*
X65229598Y-91978099D01*
X65228648Y-91978368D01*
X65228022Y-91978588D01*
X65227140Y-91978962D01*
X65225338Y-91979631D01*
X65217624Y-91981438D01*
X65210599Y-91985108D01*
X65210598Y-91985108D01*
X65158387Y-92012381D01*
X65154474Y-92014339D01*
X65101340Y-92039786D01*
X65101332Y-92039791D01*
X65094185Y-92043214D01*
X65088107Y-92048312D01*
X65086517Y-92049337D01*
X65085683Y-92049822D01*
X65085107Y-92050207D01*
X65084338Y-92050795D01*
X65082786Y-92051873D01*
X65075754Y-92055546D01*
X65069861Y-92060849D01*
X65069856Y-92060852D01*
X65026042Y-92100275D01*
X65022741Y-92103143D01*
X64977634Y-92140981D01*
X64971557Y-92146079D01*
X64966939Y-92152527D01*
X64965661Y-92153907D01*
X64964961Y-92154597D01*
X64964507Y-92155105D01*
X64963918Y-92155853D01*
X64962666Y-92157303D01*
X64956772Y-92162606D01*
X64952382Y-92169209D01*
X64919760Y-92218274D01*
X64917273Y-92221877D01*
X64878362Y-92276208D01*
X64875492Y-92283604D01*
X64874588Y-92285275D01*
X64868689Y-92295086D01*
X64733475Y-92498452D01*
X64540929Y-92788047D01*
X64486556Y-92833699D01*
X64416133Y-92842708D01*
X64352019Y-92812214D01*
X64326885Y-92781285D01*
X64306960Y-92746774D01*
X64299040Y-92733056D01*
X64265009Y-92695260D01*
X64175675Y-92596045D01*
X64175674Y-92596044D01*
X64171253Y-92591134D01*
X64016752Y-92478882D01*
X64010724Y-92476198D01*
X64010722Y-92476197D01*
X63848319Y-92403891D01*
X63848318Y-92403891D01*
X63842288Y-92401206D01*
X63742522Y-92380000D01*
X63661944Y-92362872D01*
X63661939Y-92362872D01*
X63655487Y-92361500D01*
X63464513Y-92361500D01*
X63458061Y-92362872D01*
X63458056Y-92362872D01*
X63377478Y-92380000D01*
X63277712Y-92401206D01*
X63271682Y-92403891D01*
X63271681Y-92403891D01*
X63109278Y-92476197D01*
X63109276Y-92476198D01*
X63103248Y-92478882D01*
X62948747Y-92591134D01*
X62944326Y-92596044D01*
X62944325Y-92596045D01*
X62854992Y-92695260D01*
X62820960Y-92733056D01*
X62773171Y-92815829D01*
X62721790Y-92864821D01*
X62652076Y-92878258D01*
X62601053Y-92861947D01*
X62567731Y-92842708D01*
X62393069Y-92741867D01*
X62344076Y-92690484D01*
X62330640Y-92620771D01*
X62346950Y-92569748D01*
X62606142Y-92120814D01*
X62609887Y-92105379D01*
X62609284Y-92103639D01*
X62603468Y-92098352D01*
X62157072Y-91840625D01*
X62031931Y-91768375D01*
X61982938Y-91716993D01*
X61969502Y-91647279D01*
X61985812Y-91596256D01*
X62000929Y-91570072D01*
X62098872Y-91400430D01*
X62416385Y-91400430D01*
X62416988Y-91402170D01*
X62422804Y-91407457D01*
X62853510Y-91656126D01*
X62868945Y-91659871D01*
X62870685Y-91659268D01*
X62875972Y-91653452D01*
X63139536Y-91196947D01*
X63142622Y-91190864D01*
X63163269Y-91144052D01*
X63167757Y-91129024D01*
X63188876Y-91002138D01*
X63189279Y-90984366D01*
X63174065Y-90857713D01*
X63169466Y-90840551D01*
X63119318Y-90723265D01*
X63110080Y-90708072D01*
X63028347Y-90608742D01*
X63016953Y-90597977D01*
X62975653Y-90567751D01*
X62969959Y-90564039D01*
X62928759Y-90540252D01*
X62913326Y-90536508D01*
X62911586Y-90537111D01*
X62906299Y-90542927D01*
X62420130Y-91384995D01*
X62416385Y-91400430D01*
X62098872Y-91400430D01*
X62448879Y-90794201D01*
X62474120Y-90736972D01*
X62475417Y-90729181D01*
X62496561Y-90602149D01*
X62496561Y-90602146D01*
X62498035Y-90593291D01*
X62480662Y-90448673D01*
X62460113Y-90400613D01*
X62451724Y-90330113D01*
X62461909Y-90301804D01*
X62467817Y-90277449D01*
X62467215Y-90275710D01*
X62461399Y-90270423D01*
X62416256Y-90244359D01*
X62410172Y-90241273D01*
X62356129Y-90217435D01*
X62357179Y-90215054D01*
X62332118Y-90200534D01*
X62330847Y-90202270D01*
X62283134Y-90167350D01*
X62280373Y-90165329D01*
X62277414Y-90163621D01*
X62277410Y-90163618D01*
X61999927Y-90003413D01*
X61950934Y-89952030D01*
X61937498Y-89882317D01*
X61963884Y-89816406D01*
X61969280Y-89809996D01*
X61999040Y-89776944D01*
X62070903Y-89652474D01*
X62091223Y-89617279D01*
X62091224Y-89617278D01*
X62094527Y-89611556D01*
X62153542Y-89429928D01*
X62156191Y-89404729D01*
X62172814Y-89246565D01*
X62173504Y-89240000D01*
X62153542Y-89050072D01*
X62094527Y-88868444D01*
X62086341Y-88854265D01*
X62069601Y-88785272D01*
X62092819Y-88718179D01*
X62148625Y-88674290D01*
X62219300Y-88667539D01*
X62258368Y-88682092D01*
G37*
G04 #@! TD.AperFunction*
M02*
