G04 #@! TF.GenerationSoftware,KiCad,Pcbnew,(6.0.2-0)*
G04 #@! TF.CreationDate,2023-03-22T16:23:11-04:00*
G04 #@! TF.ProjectId,motor_board,6d6f746f-725f-4626-9f61-72642e6b6963,rev?*
G04 #@! TF.SameCoordinates,Original*
G04 #@! TF.FileFunction,Legend,Bot*
G04 #@! TF.FilePolarity,Positive*
%FSLAX46Y46*%
G04 Gerber Fmt 4.6, Leading zero omitted, Abs format (unit mm)*
G04 Created by KiCad (PCBNEW (6.0.2-0)) date 2023-03-22 16:23:11*
%MOMM*%
%LPD*%
G01*
G04 APERTURE LIST*
G04 Aperture macros list*
%AMRoundRect*
0 Rectangle with rounded corners*
0 $1 Rounding radius*
0 $2 $3 $4 $5 $6 $7 $8 $9 X,Y pos of 4 corners*
0 Add a 4 corners polygon primitive as box body*
4,1,4,$2,$3,$4,$5,$6,$7,$8,$9,$2,$3,0*
0 Add four circle primitives for the rounded corners*
1,1,$1+$1,$2,$3*
1,1,$1+$1,$4,$5*
1,1,$1+$1,$6,$7*
1,1,$1+$1,$8,$9*
0 Add four rect primitives between the rounded corners*
20,1,$1+$1,$2,$3,$4,$5,0*
20,1,$1+$1,$4,$5,$6,$7,0*
20,1,$1+$1,$6,$7,$8,$9,0*
20,1,$1+$1,$8,$9,$2,$3,0*%
%AMHorizOval*
0 Thick line with rounded ends*
0 $1 width*
0 $2 $3 position (X,Y) of the first rounded end (center of the circle)*
0 $4 $5 position (X,Y) of the second rounded end (center of the circle)*
0 Add line between two ends*
20,1,$1,$2,$3,$4,$5,0*
0 Add two circle primitives to create the rounded ends*
1,1,$1,$2,$3*
1,1,$1,$4,$5*%
%AMRotRect*
0 Rectangle, with rotation*
0 The origin of the aperture is its center*
0 $1 length*
0 $2 width*
0 $3 Rotation angle, in degrees counterclockwise*
0 Add horizontal line*
21,1,$1,$2,0,0,$3*%
G04 Aperture macros list end*
%ADD10C,0.150000*%
%ADD11C,0.120000*%
%ADD12C,3.800000*%
%ADD13R,1.000000X1.000000*%
%ADD14O,1.000000X1.000000*%
%ADD15C,0.650000*%
%ADD16O,2.100000X1.000000*%
%ADD17O,1.600000X1.000000*%
%ADD18RotRect,1.000000X1.000000X60.000000*%
%ADD19HorizOval,1.000000X0.000000X0.000000X0.000000X0.000000X0*%
%ADD20RoundRect,0.140000X-0.140000X-0.170000X0.140000X-0.170000X0.140000X0.170000X-0.140000X0.170000X0*%
%ADD21RoundRect,0.140000X0.170000X-0.140000X0.170000X0.140000X-0.170000X0.140000X-0.170000X-0.140000X0*%
%ADD22RoundRect,0.140000X0.140000X0.170000X-0.140000X0.170000X-0.140000X-0.170000X0.140000X-0.170000X0*%
%ADD23RoundRect,0.100000X-0.637500X-0.100000X0.637500X-0.100000X0.637500X0.100000X-0.637500X0.100000X0*%
%ADD24RoundRect,0.100000X0.100000X-0.637500X0.100000X0.637500X-0.100000X0.637500X-0.100000X-0.637500X0*%
G04 APERTURE END LIST*
D10*
X69024536Y-102160000D02*
G75*
G03*
X69024536Y-102160000I-134536J0D01*
G01*
X42286301Y-92640000D02*
G75*
G03*
X42286301Y-92640000I-106301J0D01*
G01*
D11*
X65102164Y-93850000D02*
X65317836Y-93850000D01*
X65102164Y-94570000D02*
X65317836Y-94570000D01*
X69580000Y-97707836D02*
X69580000Y-97492164D01*
X68860000Y-97707836D02*
X68860000Y-97492164D01*
X49077836Y-93110000D02*
X48862164Y-93110000D01*
X49077836Y-92390000D02*
X48862164Y-92390000D01*
X50040000Y-88727836D02*
X50040000Y-88512164D01*
X50760000Y-88727836D02*
X50760000Y-88512164D01*
X45990000Y-92165000D02*
X42390000Y-92165000D01*
X45990000Y-86695000D02*
X48190000Y-86695000D01*
X45990000Y-86695000D02*
X43790000Y-86695000D01*
X45990000Y-92165000D02*
X48190000Y-92165000D01*
X68415000Y-98580000D02*
X68415000Y-96380000D01*
X62945000Y-98580000D02*
X62945000Y-100780000D01*
X68415000Y-98580000D02*
X68415000Y-102180000D01*
X62945000Y-98580000D02*
X62945000Y-96380000D01*
X46987836Y-85690000D02*
X46772164Y-85690000D01*
X46987836Y-86410000D02*
X46772164Y-86410000D01*
X69797836Y-98750000D02*
X69582164Y-98750000D01*
X69797836Y-99470000D02*
X69582164Y-99470000D01*
%LPC*%
D12*
X84010000Y-103390000D03*
D13*
X66085000Y-104290000D03*
D14*
X67355000Y-104290000D03*
X68625000Y-104290000D03*
X69895000Y-104290000D03*
X71165000Y-104290000D03*
X72435000Y-104290000D03*
D15*
X45115000Y-97850000D03*
X45115000Y-103630000D03*
D16*
X45645000Y-105060000D03*
D17*
X41465000Y-96420000D03*
X41465000Y-105060000D03*
D16*
X45645000Y-96420000D03*
D13*
X40800000Y-94035000D03*
D14*
X40800000Y-92765000D03*
X40800000Y-91495000D03*
X40800000Y-90225000D03*
X40800000Y-88955000D03*
X40800000Y-87685000D03*
D18*
X45660369Y-80422500D03*
D19*
X46760221Y-81057500D03*
X47860074Y-81692500D03*
X48959926Y-82327500D03*
X50059778Y-82962500D03*
X51159630Y-83597500D03*
D18*
X66730000Y-92490000D03*
D19*
X67829852Y-93125000D03*
X68929705Y-93760000D03*
X70029557Y-94395000D03*
X71129409Y-95030000D03*
D13*
X58705000Y-104110000D03*
D14*
X57435000Y-104110000D03*
X56165000Y-104110000D03*
X54895000Y-104110000D03*
X53625000Y-104110000D03*
X52355000Y-104110000D03*
D12*
X41200000Y-78870000D03*
D20*
X64730000Y-94210000D03*
X65690000Y-94210000D03*
D21*
X69220000Y-98080000D03*
X69220000Y-97120000D03*
D22*
X49450000Y-92750000D03*
X48490000Y-92750000D03*
D21*
X50400000Y-89100000D03*
X50400000Y-88140000D03*
D23*
X43127500Y-91705000D03*
X43127500Y-91055000D03*
X43127500Y-90405000D03*
X43127500Y-89755000D03*
X43127500Y-89105000D03*
X43127500Y-88455000D03*
X43127500Y-87805000D03*
X43127500Y-87155000D03*
X48852500Y-87155000D03*
X48852500Y-87805000D03*
X48852500Y-88455000D03*
X48852500Y-89105000D03*
X48852500Y-89755000D03*
X48852500Y-90405000D03*
X48852500Y-91055000D03*
X48852500Y-91705000D03*
D24*
X67955000Y-101442500D03*
X67305000Y-101442500D03*
X66655000Y-101442500D03*
X66005000Y-101442500D03*
X65355000Y-101442500D03*
X64705000Y-101442500D03*
X64055000Y-101442500D03*
X63405000Y-101442500D03*
X63405000Y-95717500D03*
X64055000Y-95717500D03*
X64705000Y-95717500D03*
X65355000Y-95717500D03*
X66005000Y-95717500D03*
X66655000Y-95717500D03*
X67305000Y-95717500D03*
X67955000Y-95717500D03*
D22*
X47360000Y-86050000D03*
X46400000Y-86050000D03*
X70170000Y-99110000D03*
X69210000Y-99110000D03*
M02*
