M48
; DRILL file {KiCad (6.0.2-0)} date Wednesday, March 22, 2023 at 05:56:35 PM
; FORMAT={-:-/ absolute / metric / decimal}
; #@! TF.CreationDate,2023-03-22T17:56:35-04:00
; #@! TF.GenerationSoftware,Kicad,Pcbnew,(6.0.2-0)
; #@! TF.FileFunction,Plated,1,4,PTH
FMAT,2
METRIC
; #@! TA.AperFunction,Plated,PTH,ViaDrill
T1C0.400
; #@! TA.AperFunction,Plated,PTH,ComponentDrill
T2C0.600
; #@! TA.AperFunction,Plated,PTH,ComponentDrill
T3C0.650
; #@! TA.AperFunction,Plated,PTH,ComponentDrill
T4C2.200
%
G90
G05
T1
X40.15Y-99.64
X41.5Y-83.17
X41.54Y-98.77
X44.84Y-90.6
X46.19Y-84.86
X47.38Y-86.07
X47.97Y-98.04
X48.21Y-85.3
X51.9Y-93.47
X52.85Y-86.98
X53.19Y-90.71
X53.59Y-86.19
X54.01Y-97.86
X54.52Y-91.01
X54.94Y-94.19
X55.3Y-98.76
X56.4Y-90.04
X57.16Y-94.82
X57.18Y-100.07
X58.34Y-97.75
X58.85Y-94.41
X59.54Y-95.64
X59.84Y-93.84
X59.86Y-91.76
X60.15Y-88.35
X60.86Y-92.38
X61.05Y-100.51
X61.26Y-89.24
X62.13Y-104.28
X63.56Y-93.27
X63.61Y-92.05
X66.58Y-99.87
X69.16Y-101.44
X70.18Y-100.3
X70.98Y-98.09
X72.45Y-102.48
X76.5Y-105.23
T3
X40.8Y-87.685
X40.8Y-88.955
X40.8Y-90.225
X40.8Y-91.495
X40.8Y-92.765
X40.8Y-94.035
X45.66Y-80.422
X46.76Y-81.057
X47.86Y-81.692
X48.96Y-82.328
X50.06Y-82.962
X51.16Y-83.597
X52.355Y-104.11
X53.625Y-104.11
X54.895Y-104.11
X56.165Y-104.11
X57.435Y-104.11
X58.705Y-104.11
X66.085Y-104.29
X66.73Y-92.49
X67.355Y-104.29
X67.83Y-93.125
X68.625Y-104.29
X68.93Y-93.76
X69.895Y-104.29
X70.03Y-94.395
X71.129Y-95.03
X71.165Y-104.29
X72.435Y-104.29
T4
X41.2Y-78.87
X84.01Y-103.39
T2
X41.765Y-96.42G85X41.165Y-96.42
G05
X41.765Y-105.06G85X41.165Y-105.06
G05
X46.195Y-96.42G85X45.095Y-96.42
G05
X46.195Y-105.06G85X45.095Y-105.06
G05
T0
M30
