G04 #@! TF.GenerationSoftware,KiCad,Pcbnew,(6.0.2-0)*
G04 #@! TF.CreationDate,2023-03-22T17:56:30-04:00*
G04 #@! TF.ProjectId,motor_board,6d6f746f-725f-4626-9f61-72642e6b6963,rev?*
G04 #@! TF.SameCoordinates,Original*
G04 #@! TF.FileFunction,Copper,L4,Bot*
G04 #@! TF.FilePolarity,Positive*
%FSLAX46Y46*%
G04 Gerber Fmt 4.6, Leading zero omitted, Abs format (unit mm)*
G04 Created by KiCad (PCBNEW (6.0.2-0)) date 2023-03-22 17:56:30*
%MOMM*%
%LPD*%
G01*
G04 APERTURE LIST*
G04 Aperture macros list*
%AMRoundRect*
0 Rectangle with rounded corners*
0 $1 Rounding radius*
0 $2 $3 $4 $5 $6 $7 $8 $9 X,Y pos of 4 corners*
0 Add a 4 corners polygon primitive as box body*
4,1,4,$2,$3,$4,$5,$6,$7,$8,$9,$2,$3,0*
0 Add four circle primitives for the rounded corners*
1,1,$1+$1,$2,$3*
1,1,$1+$1,$4,$5*
1,1,$1+$1,$6,$7*
1,1,$1+$1,$8,$9*
0 Add four rect primitives between the rounded corners*
20,1,$1+$1,$2,$3,$4,$5,0*
20,1,$1+$1,$4,$5,$6,$7,0*
20,1,$1+$1,$6,$7,$8,$9,0*
20,1,$1+$1,$8,$9,$2,$3,0*%
%AMHorizOval*
0 Thick line with rounded ends*
0 $1 width*
0 $2 $3 position (X,Y) of the first rounded end (center of the circle)*
0 $4 $5 position (X,Y) of the second rounded end (center of the circle)*
0 Add line between two ends*
20,1,$1,$2,$3,$4,$5,0*
0 Add two circle primitives to create the rounded ends*
1,1,$1,$2,$3*
1,1,$1,$4,$5*%
%AMRotRect*
0 Rectangle, with rotation*
0 The origin of the aperture is its center*
0 $1 length*
0 $2 width*
0 $3 Rotation angle, in degrees counterclockwise*
0 Add horizontal line*
21,1,$1,$2,0,0,$3*%
G04 Aperture macros list end*
G04 #@! TA.AperFunction,ComponentPad*
%ADD10C,3.800000*%
G04 #@! TD*
G04 #@! TA.AperFunction,ComponentPad*
%ADD11R,1.000000X1.000000*%
G04 #@! TD*
G04 #@! TA.AperFunction,ComponentPad*
%ADD12O,1.000000X1.000000*%
G04 #@! TD*
G04 #@! TA.AperFunction,ComponentPad*
%ADD13O,2.100000X1.000000*%
G04 #@! TD*
G04 #@! TA.AperFunction,ComponentPad*
%ADD14O,1.600000X1.000000*%
G04 #@! TD*
G04 #@! TA.AperFunction,ComponentPad*
%ADD15RotRect,1.000000X1.000000X60.000000*%
G04 #@! TD*
G04 #@! TA.AperFunction,ComponentPad*
%ADD16HorizOval,1.000000X0.000000X0.000000X0.000000X0.000000X0*%
G04 #@! TD*
G04 #@! TA.AperFunction,SMDPad,CuDef*
%ADD17RoundRect,0.140000X-0.140000X-0.170000X0.140000X-0.170000X0.140000X0.170000X-0.140000X0.170000X0*%
G04 #@! TD*
G04 #@! TA.AperFunction,SMDPad,CuDef*
%ADD18RoundRect,0.140000X0.170000X-0.140000X0.170000X0.140000X-0.170000X0.140000X-0.170000X-0.140000X0*%
G04 #@! TD*
G04 #@! TA.AperFunction,SMDPad,CuDef*
%ADD19RoundRect,0.140000X0.140000X0.170000X-0.140000X0.170000X-0.140000X-0.170000X0.140000X-0.170000X0*%
G04 #@! TD*
G04 #@! TA.AperFunction,SMDPad,CuDef*
%ADD20RoundRect,0.100000X-0.637500X-0.100000X0.637500X-0.100000X0.637500X0.100000X-0.637500X0.100000X0*%
G04 #@! TD*
G04 #@! TA.AperFunction,SMDPad,CuDef*
%ADD21RoundRect,0.100000X0.100000X-0.637500X0.100000X0.637500X-0.100000X0.637500X-0.100000X-0.637500X0*%
G04 #@! TD*
G04 #@! TA.AperFunction,ViaPad*
%ADD22C,0.800000*%
G04 #@! TD*
G04 #@! TA.AperFunction,Conductor*
%ADD23C,0.250000*%
G04 #@! TD*
G04 APERTURE END LIST*
D10*
X84010000Y-103390000D03*
D11*
X66085000Y-104290000D03*
D12*
X67355000Y-104290000D03*
X68625000Y-104290000D03*
X69895000Y-104290000D03*
X71165000Y-104290000D03*
X72435000Y-104290000D03*
D13*
X45645000Y-105060000D03*
D14*
X41465000Y-96420000D03*
X41465000Y-105060000D03*
D13*
X45645000Y-96420000D03*
D11*
X40800000Y-94035000D03*
D12*
X40800000Y-92765000D03*
X40800000Y-91495000D03*
X40800000Y-90225000D03*
X40800000Y-88955000D03*
X40800000Y-87685000D03*
D15*
X45660369Y-80422500D03*
D16*
X46760221Y-81057500D03*
X47860074Y-81692500D03*
X48959926Y-82327500D03*
X50059778Y-82962500D03*
X51159630Y-83597500D03*
D15*
X66730000Y-92490000D03*
D16*
X67829852Y-93125000D03*
X68929705Y-93760000D03*
X70029557Y-94395000D03*
X71129409Y-95030000D03*
D11*
X58705000Y-104110000D03*
D12*
X57435000Y-104110000D03*
X56165000Y-104110000D03*
X54895000Y-104110000D03*
X53625000Y-104110000D03*
X52355000Y-104110000D03*
D10*
X41200000Y-78870000D03*
D17*
X64730000Y-94210000D03*
X65690000Y-94210000D03*
D18*
X69220000Y-98080000D03*
X69220000Y-97120000D03*
D19*
X49450000Y-92750000D03*
X48490000Y-92750000D03*
D18*
X50400000Y-89100000D03*
X50400000Y-88140000D03*
D20*
X43127500Y-91705000D03*
X43127500Y-91055000D03*
X43127500Y-90405000D03*
X43127500Y-89755000D03*
X43127500Y-89105000D03*
X43127500Y-88455000D03*
X43127500Y-87805000D03*
X43127500Y-87155000D03*
X48852500Y-87155000D03*
X48852500Y-87805000D03*
X48852500Y-88455000D03*
X48852500Y-89105000D03*
X48852500Y-89755000D03*
X48852500Y-90405000D03*
X48852500Y-91055000D03*
X48852500Y-91705000D03*
D21*
X67955000Y-101442500D03*
X67305000Y-101442500D03*
X66655000Y-101442500D03*
X66005000Y-101442500D03*
X65355000Y-101442500D03*
X64705000Y-101442500D03*
X64055000Y-101442500D03*
X63405000Y-101442500D03*
X63405000Y-95717500D03*
X64055000Y-95717500D03*
X64705000Y-95717500D03*
X65355000Y-95717500D03*
X66005000Y-95717500D03*
X66655000Y-95717500D03*
X67305000Y-95717500D03*
X67955000Y-95717500D03*
D19*
X46400000Y-86070000D03*
X45440000Y-86070000D03*
X70170000Y-99110000D03*
X69210000Y-99110000D03*
D22*
X53590000Y-86190000D03*
X41500000Y-83170000D03*
X61050000Y-100510000D03*
X63610000Y-92050000D03*
X70980000Y-98090000D03*
X51900000Y-93470000D03*
X66580000Y-99870000D03*
X44840000Y-90600000D03*
X58340000Y-97750000D03*
X52850000Y-86980000D03*
X69160000Y-101440000D03*
X60860000Y-92380000D03*
X46190000Y-84860000D03*
X63560000Y-93270000D03*
X70180000Y-100300000D03*
X41540000Y-98770000D03*
X55300000Y-98760000D03*
X57180000Y-100070000D03*
X40150000Y-99640000D03*
X53190000Y-90710000D03*
X54940000Y-94190000D03*
X54520000Y-91010000D03*
X57160000Y-94820000D03*
X56400000Y-90040000D03*
X72450000Y-102480000D03*
X54010000Y-97860000D03*
X47970000Y-98040000D03*
X76500000Y-105230000D03*
X62130000Y-104280000D03*
X59840000Y-93840000D03*
X58850000Y-94410000D03*
X59540000Y-95640000D03*
X59860000Y-91760000D03*
X61260000Y-89240000D03*
X60150000Y-88350000D03*
X47380000Y-86070000D03*
X48210000Y-85300000D03*
D23*
X54520000Y-91010000D02*
X52110000Y-88600000D01*
X52110000Y-88600000D02*
X52110000Y-86700000D01*
X52110000Y-86700000D02*
X49630000Y-84300000D01*
X49630000Y-84300000D02*
X46680000Y-82490000D01*
X46680000Y-82490000D02*
X46320000Y-81800000D01*
X46320000Y-81800000D02*
X46760221Y-81057500D01*
X48700000Y-84740000D02*
X45220000Y-82420000D01*
X51250000Y-87290000D02*
X48700000Y-84740000D01*
X45220000Y-82420000D02*
X45110000Y-81520000D01*
X48210000Y-85300000D02*
X48210000Y-86512500D01*
X48210000Y-86512500D02*
X48852500Y-87155000D01*
X47700000Y-86800000D02*
X47700000Y-87400000D01*
X47700000Y-87400000D02*
X47990000Y-87800000D01*
X47380000Y-86480000D02*
X47700000Y-86800000D01*
X47380000Y-86070000D02*
X47380000Y-86480000D01*
X47990000Y-87800000D02*
X48852500Y-87805000D01*
X51310000Y-88500000D02*
X51250000Y-87290000D01*
X53190000Y-90710000D02*
X51310000Y-88500000D01*
X45300000Y-81130000D02*
X45110000Y-81520000D01*
X45300000Y-81130000D02*
X45660369Y-80422500D01*
X46190000Y-84860000D02*
X46400000Y-85070000D01*
X46400000Y-85070000D02*
X46400000Y-86070000D01*
X48852500Y-89105000D02*
X47760000Y-89080000D01*
X47760000Y-89080000D02*
X46400000Y-87720000D01*
X46400000Y-87720000D02*
X46400000Y-86070000D01*
X67120000Y-97980000D02*
X67270000Y-98100000D01*
X65700000Y-94130000D02*
X66010000Y-94620000D01*
X49450000Y-92750000D02*
X50560000Y-92750000D01*
X66020000Y-97130000D02*
X67120000Y-97980000D01*
X43127500Y-88455000D02*
X44470000Y-88450000D01*
X50560000Y-92750000D02*
X51900000Y-93470000D01*
X66580000Y-99870000D02*
X66655000Y-99945000D01*
X66655000Y-99945000D02*
X66655000Y-101442500D01*
X64410000Y-93160000D02*
X64050000Y-92700000D01*
X66005000Y-95717500D02*
X66020000Y-97130000D01*
X43127500Y-90405000D02*
X44840000Y-90600000D01*
X66010000Y-94620000D02*
X66005000Y-95717500D01*
X48852500Y-89755000D02*
X47640000Y-89750000D01*
X67270000Y-98100000D02*
X69220000Y-98080000D01*
X64705000Y-101442500D02*
X64690000Y-100180000D01*
X65320000Y-93730000D02*
X64410000Y-93160000D01*
X65690000Y-94210000D02*
X65320000Y-93730000D01*
X64050000Y-92700000D02*
X63610000Y-92050000D01*
X69220000Y-98080000D02*
X70980000Y-98090000D01*
X47640000Y-89750000D02*
X47150000Y-89750000D01*
X41770000Y-91320000D02*
X42110000Y-91710000D01*
X67955000Y-101442500D02*
X69160000Y-101440000D01*
X41530000Y-90230000D02*
X41770000Y-90490000D01*
X42110000Y-91710000D02*
X43127500Y-91705000D01*
X40800000Y-90225000D02*
X41530000Y-90230000D01*
X41770000Y-90490000D02*
X41770000Y-91320000D01*
X65340000Y-94790000D02*
X65355000Y-95717500D01*
X70170000Y-99110000D02*
X70180000Y-100300000D01*
X64740000Y-94130000D02*
X65340000Y-94790000D01*
X64730000Y-94210000D02*
X63560000Y-93270000D01*
X48852500Y-89105000D02*
X50360000Y-89070000D01*
X49890000Y-88110000D02*
X50360000Y-88110000D01*
X48852500Y-88455000D02*
X49610000Y-88470000D01*
X49610000Y-88470000D02*
X49890000Y-88110000D01*
X47400000Y-92300000D02*
X47810000Y-92760000D01*
X48852500Y-90405000D02*
X47740000Y-90390000D01*
X47810000Y-92760000D02*
X48490000Y-92750000D01*
X47740000Y-90390000D02*
X47370000Y-90640000D01*
X47370000Y-90640000D02*
X47400000Y-92300000D01*
X64040000Y-102520000D02*
X64660000Y-103260000D01*
X64660000Y-103260000D02*
X67710000Y-103220000D01*
X67710000Y-103220000D02*
X68625000Y-104290000D01*
X64055000Y-101442500D02*
X64040000Y-102520000D01*
X64705000Y-95717500D02*
X64720000Y-96960000D01*
X64720000Y-96960000D02*
X67670000Y-99120000D01*
X67670000Y-99120000D02*
X69210000Y-99110000D01*
X66655000Y-95717500D02*
X66650000Y-96820000D01*
X66960000Y-97080000D02*
X69220000Y-97120000D01*
X66650000Y-96820000D02*
X66960000Y-97080000D01*
X41540000Y-98770000D02*
X55300000Y-98760000D01*
X57180000Y-100070000D02*
X40150000Y-99640000D01*
X40800000Y-88955000D02*
X43127500Y-89105000D01*
X40800000Y-87685000D02*
X43127500Y-87805000D01*
X45710000Y-89760000D02*
X43127500Y-89755000D01*
X57820000Y-98800000D02*
X50160000Y-93560000D01*
X58705000Y-104110000D02*
X58640000Y-99750000D01*
X47810000Y-93560000D02*
X46640000Y-92360000D01*
X58640000Y-99750000D02*
X58140000Y-99150000D01*
X58140000Y-99150000D02*
X57820000Y-98800000D01*
X50160000Y-93560000D02*
X47810000Y-93560000D01*
X46590000Y-90670000D02*
X45710000Y-89760000D01*
X46640000Y-92360000D02*
X46590000Y-90670000D01*
X58010000Y-102760000D02*
X58000000Y-99780000D01*
X44560000Y-91870000D02*
X44010000Y-91050000D01*
X47530000Y-94050000D02*
X50030000Y-94050000D01*
X45570000Y-91910000D02*
X44560000Y-91870000D01*
X57435000Y-104110000D02*
X58010000Y-102760000D01*
X47400000Y-93920000D02*
X47530000Y-94050000D01*
X46110000Y-92470000D02*
X45570000Y-91910000D01*
X50030000Y-94050000D02*
X57540000Y-99250000D01*
X46110000Y-92470000D02*
X47400000Y-93920000D01*
X58000000Y-99780000D02*
X57540000Y-99250000D01*
X44010000Y-91050000D02*
X43127500Y-91055000D01*
X58600000Y-96950000D02*
X54940000Y-94190000D01*
X60090000Y-96900000D02*
X58600000Y-96950000D01*
X65990000Y-100340000D02*
X63641786Y-98058214D01*
X61580000Y-98050000D02*
X60090000Y-96900000D01*
X63641786Y-98058214D02*
X61580000Y-98050000D01*
X66005000Y-101442500D02*
X65990000Y-100340000D01*
X67310000Y-99930000D02*
X67310000Y-99490000D01*
X59150000Y-96370000D02*
X57160000Y-94820000D01*
X67310000Y-99490000D02*
X64620000Y-97450000D01*
X61950000Y-97470000D02*
X60400000Y-96360000D01*
X60400000Y-96360000D02*
X59150000Y-96370000D01*
X64430000Y-97460000D02*
X61950000Y-97470000D01*
X67305000Y-101442500D02*
X67310000Y-99930000D01*
X64620000Y-97450000D02*
X64430000Y-97460000D01*
X59000000Y-87350000D02*
X57410000Y-89760000D01*
X72450000Y-102480000D02*
X72580000Y-95060000D01*
X71920000Y-94230000D02*
X71300000Y-93600000D01*
X57410000Y-89760000D02*
X56400000Y-90040000D01*
X60170000Y-87260000D02*
X59000000Y-87350000D01*
X71300000Y-93600000D02*
X61340000Y-87900000D01*
X72580000Y-95060000D02*
X71920000Y-94230000D01*
X61340000Y-87900000D02*
X60170000Y-87260000D01*
X65360000Y-102550000D02*
X65700000Y-102790000D01*
X71170000Y-103390000D02*
X71165000Y-104290000D01*
X65700000Y-102790000D02*
X69910000Y-102740000D01*
X65355000Y-101442500D02*
X65360000Y-102550000D01*
X69910000Y-102740000D02*
X71170000Y-103390000D01*
X47970000Y-98040000D02*
X54010000Y-97860000D01*
X64070000Y-105310000D02*
X76500000Y-105230000D01*
X62130000Y-104280000D02*
X64070000Y-105310000D01*
X50450000Y-91040000D02*
X59840000Y-93840000D01*
X48852500Y-91055000D02*
X50450000Y-91040000D01*
X48852500Y-91705000D02*
X58850000Y-94410000D01*
X60100000Y-95270000D02*
X59540000Y-95640000D01*
X63405000Y-95717500D02*
X62520000Y-95280000D01*
X62520000Y-95280000D02*
X60100000Y-95270000D01*
X59770000Y-92840000D02*
X59700000Y-92270000D01*
X62140000Y-93170000D02*
X60330000Y-93180000D01*
X59700000Y-92270000D02*
X59860000Y-91760000D01*
X62290000Y-93330000D02*
X62140000Y-93170000D01*
X60330000Y-93180000D02*
X59770000Y-92840000D01*
X63010000Y-94060000D02*
X62290000Y-93330000D01*
X63750000Y-94060000D02*
X63010000Y-94060000D01*
X64055000Y-95717500D02*
X64070000Y-94410000D01*
X64070000Y-94410000D02*
X63750000Y-94060000D01*
X67330000Y-94460000D02*
X64640000Y-92720000D01*
X64620000Y-91200000D02*
X64620000Y-90940000D01*
X67305000Y-95717500D02*
X67330000Y-94460000D01*
X64620000Y-90940000D02*
X61260000Y-89240000D01*
X64640000Y-92720000D02*
X64620000Y-91200000D01*
X61510000Y-88540000D02*
X60150000Y-88350000D01*
X65470000Y-92720000D02*
X65420000Y-90770000D01*
X67930000Y-94160000D02*
X65470000Y-92720000D01*
X67920000Y-94450000D02*
X67930000Y-94160000D01*
X67955000Y-95717500D02*
X67920000Y-94450000D01*
X65420000Y-90770000D02*
X61510000Y-88540000D01*
G04 #@! TA.AperFunction,Conductor*
G36*
X39434825Y-100204940D02*
G01*
X39446155Y-100216032D01*
X39538747Y-100318866D01*
X39693248Y-100431118D01*
X39699276Y-100433802D01*
X39699278Y-100433803D01*
X39860886Y-100505755D01*
X39867712Y-100508794D01*
X39961113Y-100528647D01*
X40048056Y-100547128D01*
X40048061Y-100547128D01*
X40054513Y-100548500D01*
X40245487Y-100548500D01*
X40251939Y-100547128D01*
X40251944Y-100547128D01*
X40338887Y-100528647D01*
X40432288Y-100508794D01*
X40439114Y-100505755D01*
X40600722Y-100433803D01*
X40600724Y-100433802D01*
X40606752Y-100431118D01*
X40660690Y-100391930D01*
X40761253Y-100318866D01*
X40762155Y-100320108D01*
X40819067Y-100292796D01*
X40842551Y-100291189D01*
X56458729Y-100685490D01*
X56526324Y-100707205D01*
X56549181Y-100727136D01*
X56568747Y-100748866D01*
X56723248Y-100861118D01*
X56729276Y-100863802D01*
X56729278Y-100863803D01*
X56804411Y-100897254D01*
X56897712Y-100938794D01*
X56989551Y-100958315D01*
X57078056Y-100977128D01*
X57078061Y-100977128D01*
X57084513Y-100978500D01*
X57244940Y-100978500D01*
X57313061Y-100998502D01*
X57359554Y-101052158D01*
X57370939Y-101104077D01*
X57375979Y-102605791D01*
X57365903Y-102655589D01*
X57183007Y-103084996D01*
X57137911Y-103139830D01*
X57102660Y-103156494D01*
X57061301Y-103168667D01*
X57061295Y-103168669D01*
X57055381Y-103170410D01*
X57049923Y-103173263D01*
X57049919Y-103173265D01*
X56954135Y-103223340D01*
X56880110Y-103262040D01*
X56875310Y-103265900D01*
X56870153Y-103269274D01*
X56868769Y-103267158D01*
X56813365Y-103290027D01*
X56743512Y-103277334D01*
X56733898Y-103271709D01*
X56731675Y-103269870D01*
X56557701Y-103175802D01*
X56368768Y-103117318D01*
X56362643Y-103116674D01*
X56362642Y-103116674D01*
X56178204Y-103097289D01*
X56178202Y-103097289D01*
X56172075Y-103096645D01*
X56108421Y-103102438D01*
X55981251Y-103114011D01*
X55981248Y-103114012D01*
X55975112Y-103114570D01*
X55969206Y-103116308D01*
X55969202Y-103116309D01*
X55864076Y-103147249D01*
X55785381Y-103170410D01*
X55779923Y-103173263D01*
X55779919Y-103173265D01*
X55684135Y-103223340D01*
X55610110Y-103262040D01*
X55605310Y-103265900D01*
X55600153Y-103269274D01*
X55598769Y-103267158D01*
X55543365Y-103290027D01*
X55473512Y-103277334D01*
X55463898Y-103271709D01*
X55461675Y-103269870D01*
X55287701Y-103175802D01*
X55098768Y-103117318D01*
X55092643Y-103116674D01*
X55092642Y-103116674D01*
X54908204Y-103097289D01*
X54908202Y-103097289D01*
X54902075Y-103096645D01*
X54838421Y-103102438D01*
X54711251Y-103114011D01*
X54711248Y-103114012D01*
X54705112Y-103114570D01*
X54699206Y-103116308D01*
X54699202Y-103116309D01*
X54594076Y-103147249D01*
X54515381Y-103170410D01*
X54509923Y-103173263D01*
X54509919Y-103173265D01*
X54414135Y-103223340D01*
X54340110Y-103262040D01*
X54335310Y-103265900D01*
X54330153Y-103269274D01*
X54328769Y-103267158D01*
X54273365Y-103290027D01*
X54203512Y-103277334D01*
X54193898Y-103271709D01*
X54191675Y-103269870D01*
X54017701Y-103175802D01*
X53828768Y-103117318D01*
X53822643Y-103116674D01*
X53822642Y-103116674D01*
X53638204Y-103097289D01*
X53638202Y-103097289D01*
X53632075Y-103096645D01*
X53568421Y-103102438D01*
X53441251Y-103114011D01*
X53441248Y-103114012D01*
X53435112Y-103114570D01*
X53429206Y-103116308D01*
X53429202Y-103116309D01*
X53324076Y-103147249D01*
X53245381Y-103170410D01*
X53239923Y-103173263D01*
X53239919Y-103173265D01*
X53144135Y-103223340D01*
X53070110Y-103262040D01*
X53065310Y-103265900D01*
X53060153Y-103269274D01*
X53058849Y-103267281D01*
X53002977Y-103290354D01*
X52933122Y-103277674D01*
X52919186Y-103269522D01*
X52915980Y-103267360D01*
X52752924Y-103179196D01*
X52741619Y-103174444D01*
X52626308Y-103138750D01*
X52612205Y-103138544D01*
X52609000Y-103145299D01*
X52609000Y-104238000D01*
X52588998Y-104306121D01*
X52535342Y-104352614D01*
X52483000Y-104364000D01*
X51397282Y-104364000D01*
X51383751Y-104367973D01*
X51382601Y-104375975D01*
X51411552Y-104476941D01*
X51416067Y-104488345D01*
X51500794Y-104653207D01*
X51507435Y-104663512D01*
X51622568Y-104808772D01*
X51631091Y-104817598D01*
X51772245Y-104937730D01*
X51782317Y-104944730D01*
X51935288Y-105030222D01*
X51984994Y-105080915D01*
X51999402Y-105150434D01*
X51973939Y-105216707D01*
X51916687Y-105258693D01*
X51873874Y-105266210D01*
X46459113Y-105268596D01*
X39363171Y-105271722D01*
X39295042Y-105251750D01*
X39248525Y-105198115D01*
X39237116Y-105145998D01*
X39236398Y-104817598D01*
X39236366Y-104802795D01*
X40193544Y-104802795D01*
X40200299Y-104806000D01*
X41192885Y-104806000D01*
X41208124Y-104801525D01*
X41209329Y-104800135D01*
X41211000Y-104792452D01*
X41211000Y-104787885D01*
X41719000Y-104787885D01*
X41723475Y-104803124D01*
X41724865Y-104804329D01*
X41732548Y-104806000D01*
X42722924Y-104806000D01*
X42733839Y-104802795D01*
X44123544Y-104802795D01*
X44130299Y-104806000D01*
X47152924Y-104806000D01*
X47166455Y-104802027D01*
X47167575Y-104794232D01*
X47135862Y-104686479D01*
X47131269Y-104675111D01*
X47045393Y-104510846D01*
X47038679Y-104500585D01*
X46922532Y-104356127D01*
X46913954Y-104347368D01*
X46771961Y-104228222D01*
X46761841Y-104221292D01*
X46599415Y-104131998D01*
X46588142Y-104127166D01*
X46411462Y-104071120D01*
X46399468Y-104068570D01*
X46255239Y-104052393D01*
X46248215Y-104052000D01*
X46030023Y-104052000D01*
X45961902Y-104031998D01*
X45915409Y-103978342D01*
X45905305Y-103908068D01*
X45913034Y-103879208D01*
X45914717Y-103875000D01*
X45922530Y-103855466D01*
X45922966Y-103852831D01*
X51383202Y-103852831D01*
X51389763Y-103856000D01*
X52082885Y-103856000D01*
X52098124Y-103851525D01*
X52099329Y-103850135D01*
X52101000Y-103842452D01*
X52101000Y-103152076D01*
X52097027Y-103138545D01*
X52089232Y-103137425D01*
X51981479Y-103169138D01*
X51970111Y-103173731D01*
X51805846Y-103259607D01*
X51795585Y-103266321D01*
X51651127Y-103382468D01*
X51642368Y-103391046D01*
X51523222Y-103533039D01*
X51516292Y-103543159D01*
X51426998Y-103705585D01*
X51422166Y-103716858D01*
X51383506Y-103838731D01*
X51383202Y-103852831D01*
X45922966Y-103852831D01*
X45923644Y-103848738D01*
X45923645Y-103848734D01*
X45950993Y-103683539D01*
X45950993Y-103683536D01*
X45952108Y-103676802D01*
X45951584Y-103666793D01*
X45942987Y-103502766D01*
X45942630Y-103495953D01*
X45940683Y-103488882D01*
X45896352Y-103327941D01*
X45894539Y-103321359D01*
X45810078Y-103161164D01*
X45805673Y-103155951D01*
X45805670Y-103155947D01*
X45697594Y-103028057D01*
X45697590Y-103028053D01*
X45693187Y-103022843D01*
X45687762Y-103018695D01*
X45554743Y-102916994D01*
X45554739Y-102916991D01*
X45549322Y-102912850D01*
X45432442Y-102858348D01*
X45391369Y-102839195D01*
X45391366Y-102839194D01*
X45385192Y-102836315D01*
X45378544Y-102834829D01*
X45378541Y-102834828D01*
X45213494Y-102797936D01*
X45213495Y-102797936D01*
X45208457Y-102796810D01*
X45202912Y-102796500D01*
X45069756Y-102796500D01*
X44934963Y-102811143D01*
X44816810Y-102850906D01*
X44769796Y-102866728D01*
X44769794Y-102866729D01*
X44763325Y-102868906D01*
X44608095Y-102962177D01*
X44603138Y-102966865D01*
X44603135Y-102966867D01*
X44538429Y-103028057D01*
X44476515Y-103086607D01*
X44472683Y-103092245D01*
X44472680Y-103092249D01*
X44413906Y-103178732D01*
X44374723Y-103236388D01*
X44307470Y-103404534D01*
X44306356Y-103411262D01*
X44306355Y-103411266D01*
X44280858Y-103565283D01*
X44277892Y-103583198D01*
X44278249Y-103590015D01*
X44278249Y-103590019D01*
X44282901Y-103678783D01*
X44287370Y-103764047D01*
X44289181Y-103770620D01*
X44289181Y-103770623D01*
X44325873Y-103903831D01*
X44335461Y-103938641D01*
X44419922Y-104098836D01*
X44424327Y-104104049D01*
X44424330Y-104104053D01*
X44442694Y-104125783D01*
X44471386Y-104190724D01*
X44460413Y-104260868D01*
X44426092Y-104304754D01*
X44386067Y-104337397D01*
X44377363Y-104346041D01*
X44259216Y-104488856D01*
X44252356Y-104499027D01*
X44164196Y-104662076D01*
X44159444Y-104673381D01*
X44123750Y-104788692D01*
X44123544Y-104802795D01*
X42733839Y-104802795D01*
X42736455Y-104802027D01*
X42737575Y-104794232D01*
X42705862Y-104686479D01*
X42701269Y-104675111D01*
X42615393Y-104510846D01*
X42608679Y-104500585D01*
X42492532Y-104356127D01*
X42483954Y-104347368D01*
X42341961Y-104228222D01*
X42331841Y-104221292D01*
X42169415Y-104131998D01*
X42158142Y-104127166D01*
X41981462Y-104071120D01*
X41969468Y-104068570D01*
X41825239Y-104052393D01*
X41818215Y-104052000D01*
X41737115Y-104052000D01*
X41721876Y-104056475D01*
X41720671Y-104057865D01*
X41719000Y-104065548D01*
X41719000Y-104787885D01*
X41211000Y-104787885D01*
X41211000Y-104070115D01*
X41206525Y-104054876D01*
X41205135Y-104053671D01*
X41197452Y-104052000D01*
X41118343Y-104052000D01*
X41112195Y-104052301D01*
X40974397Y-104065812D01*
X40962362Y-104068195D01*
X40784924Y-104121767D01*
X40773584Y-104126441D01*
X40609923Y-104213460D01*
X40599706Y-104220249D01*
X40456067Y-104337397D01*
X40447363Y-104346041D01*
X40329216Y-104488856D01*
X40322356Y-104499027D01*
X40234196Y-104662076D01*
X40229444Y-104673381D01*
X40193750Y-104788692D01*
X40193544Y-104802795D01*
X39236366Y-104802795D01*
X39226522Y-100300619D01*
X39246374Y-100232456D01*
X39299928Y-100185846D01*
X39370180Y-100175589D01*
X39434825Y-100204940D01*
G37*
G04 #@! TD.AperFunction*
G04 #@! TA.AperFunction,Conductor*
G36*
X59906841Y-97560016D02*
G01*
X59919299Y-97568493D01*
X61162647Y-98528125D01*
X61172278Y-98536363D01*
X61202624Y-98565087D01*
X61209550Y-98568931D01*
X61209556Y-98568935D01*
X61264308Y-98599319D01*
X61267044Y-98600883D01*
X61320991Y-98632611D01*
X61320996Y-98632613D01*
X61327826Y-98636630D01*
X61335266Y-98638772D01*
X61335804Y-98638995D01*
X61342577Y-98642754D01*
X61350245Y-98644755D01*
X61350249Y-98644757D01*
X61410833Y-98660569D01*
X61413873Y-98661403D01*
X61444828Y-98670315D01*
X61481638Y-98680913D01*
X61489378Y-98681138D01*
X61489951Y-98681220D01*
X61497447Y-98683176D01*
X61505374Y-98683208D01*
X61505377Y-98683208D01*
X61567979Y-98683457D01*
X61571130Y-98683509D01*
X61607131Y-98684553D01*
X61641629Y-98685554D01*
X61647650Y-98684193D01*
X61655954Y-98683808D01*
X62107747Y-98685608D01*
X63332797Y-98690488D01*
X63400835Y-98710761D01*
X63420098Y-98726121D01*
X64857482Y-100122842D01*
X64866808Y-100131904D01*
X64901724Y-100193721D01*
X64905000Y-100222268D01*
X64905000Y-100244431D01*
X64884998Y-100312552D01*
X64855706Y-100344391D01*
X64821013Y-100371013D01*
X64815988Y-100377562D01*
X64804961Y-100391932D01*
X64747622Y-100433798D01*
X64676751Y-100438018D01*
X64614848Y-100403253D01*
X64605038Y-100391930D01*
X64594017Y-100377567D01*
X64594012Y-100377562D01*
X64588987Y-100371013D01*
X64554295Y-100344392D01*
X64512428Y-100287054D01*
X64505000Y-100244431D01*
X64505000Y-100223035D01*
X64500956Y-100209264D01*
X64487417Y-100207235D01*
X64454467Y-100211572D01*
X64438652Y-100215810D01*
X64428874Y-100219860D01*
X64358285Y-100227450D01*
X64332436Y-100219861D01*
X64313850Y-100212162D01*
X64305662Y-100211084D01*
X64198972Y-100197038D01*
X64198971Y-100197038D01*
X64194885Y-100196500D01*
X64055017Y-100196500D01*
X63915116Y-100196501D01*
X63911031Y-100197039D01*
X63911027Y-100197039D01*
X63804337Y-100211084D01*
X63804335Y-100211084D01*
X63796150Y-100212162D01*
X63778219Y-100219589D01*
X63707630Y-100227179D01*
X63681782Y-100219590D01*
X63678339Y-100218163D01*
X63671480Y-100215322D01*
X63671477Y-100215321D01*
X63663850Y-100212162D01*
X63655662Y-100211084D01*
X63548972Y-100197038D01*
X63548971Y-100197038D01*
X63544885Y-100196500D01*
X63405017Y-100196500D01*
X63265116Y-100196501D01*
X63261031Y-100197039D01*
X63261027Y-100197039D01*
X63154337Y-100211084D01*
X63154335Y-100211084D01*
X63146150Y-100212162D01*
X63100495Y-100231073D01*
X63005752Y-100270316D01*
X63005750Y-100270317D01*
X62998124Y-100273476D01*
X62991574Y-100278502D01*
X62935934Y-100321197D01*
X62871013Y-100371013D01*
X62865988Y-100377562D01*
X62865984Y-100377566D01*
X62824893Y-100431118D01*
X62773476Y-100498125D01*
X62712162Y-100646150D01*
X62696500Y-100765115D01*
X62696501Y-102119884D01*
X62697039Y-102123969D01*
X62697039Y-102123973D01*
X62704244Y-102178702D01*
X62712162Y-102238850D01*
X62773476Y-102386876D01*
X62778502Y-102393426D01*
X62844934Y-102480000D01*
X62871013Y-102513987D01*
X62877563Y-102519013D01*
X62877566Y-102519016D01*
X62934569Y-102562755D01*
X62998125Y-102611524D01*
X63146150Y-102672838D01*
X63154338Y-102673916D01*
X63171733Y-102676206D01*
X63265115Y-102688500D01*
X63338956Y-102688500D01*
X63407077Y-102708502D01*
X63452619Y-102760125D01*
X63454877Y-102764845D01*
X63459000Y-102774472D01*
X63473405Y-102812390D01*
X63473407Y-102812394D01*
X63476220Y-102819798D01*
X63480787Y-102826271D01*
X63485414Y-102832830D01*
X63496130Y-102851111D01*
X63503012Y-102865502D01*
X63508102Y-102871577D01*
X63534166Y-102902685D01*
X63540543Y-102910972D01*
X63568489Y-102950585D01*
X63574526Y-102955722D01*
X63574532Y-102955729D01*
X63580635Y-102960923D01*
X63595555Y-102975958D01*
X64145405Y-103632229D01*
X64154315Y-103644247D01*
X64169041Y-103666793D01*
X64169044Y-103666797D01*
X64173380Y-103673435D01*
X64230633Y-103725803D01*
X64231074Y-103726209D01*
X64287909Y-103778917D01*
X64289855Y-103779971D01*
X64291486Y-103781463D01*
X64359861Y-103817893D01*
X64360475Y-103818223D01*
X64428649Y-103855150D01*
X64430796Y-103855687D01*
X64432746Y-103856726D01*
X64439935Y-103858472D01*
X64439936Y-103858472D01*
X64508001Y-103875000D01*
X64508841Y-103875207D01*
X64576734Y-103892188D01*
X64576738Y-103892188D01*
X64583925Y-103893986D01*
X64586131Y-103893972D01*
X64588284Y-103894495D01*
X64595706Y-103894398D01*
X64595709Y-103894398D01*
X64665701Y-103893480D01*
X64666567Y-103893471D01*
X64697981Y-103893275D01*
X64743981Y-103892988D01*
X64745665Y-103892544D01*
X64747569Y-103892406D01*
X64949348Y-103889760D01*
X65017725Y-103908867D01*
X65064917Y-103961908D01*
X65077000Y-104015749D01*
X65077000Y-104017885D01*
X65081475Y-104033124D01*
X65082865Y-104034329D01*
X65090548Y-104036000D01*
X66213000Y-104036000D01*
X66281121Y-104056002D01*
X66327614Y-104109658D01*
X66339000Y-104162000D01*
X66339000Y-104418000D01*
X66318998Y-104486121D01*
X66265342Y-104532614D01*
X66213000Y-104544000D01*
X65095116Y-104544000D01*
X65079877Y-104548475D01*
X65078672Y-104549865D01*
X65074122Y-104570783D01*
X65069661Y-104569813D01*
X65056999Y-104612936D01*
X65003343Y-104659429D01*
X64951814Y-104670812D01*
X64582417Y-104673189D01*
X64257636Y-104675279D01*
X64197739Y-104660569D01*
X63559667Y-104321799D01*
X63047766Y-104050017D01*
X62996980Y-104000407D01*
X62987019Y-103977666D01*
X62966569Y-103914728D01*
X62966568Y-103914726D01*
X62964527Y-103908444D01*
X62869040Y-103743056D01*
X62811169Y-103678783D01*
X62745675Y-103606045D01*
X62745674Y-103606044D01*
X62741253Y-103601134D01*
X62642157Y-103529136D01*
X62592094Y-103492763D01*
X62592093Y-103492762D01*
X62586752Y-103488882D01*
X62580724Y-103486198D01*
X62580722Y-103486197D01*
X62418319Y-103413891D01*
X62418318Y-103413891D01*
X62412288Y-103411206D01*
X62309431Y-103389343D01*
X62231944Y-103372872D01*
X62231939Y-103372872D01*
X62225487Y-103371500D01*
X62034513Y-103371500D01*
X62028061Y-103372872D01*
X62028056Y-103372872D01*
X61950569Y-103389343D01*
X61847712Y-103411206D01*
X61841682Y-103413891D01*
X61841681Y-103413891D01*
X61679278Y-103486197D01*
X61679276Y-103486198D01*
X61673248Y-103488882D01*
X61667907Y-103492762D01*
X61667906Y-103492763D01*
X61617843Y-103529136D01*
X61518747Y-103601134D01*
X61514326Y-103606044D01*
X61514325Y-103606045D01*
X61448832Y-103678783D01*
X61390960Y-103743056D01*
X61347775Y-103817854D01*
X61301277Y-103898392D01*
X61295473Y-103908444D01*
X61236458Y-104090072D01*
X61235768Y-104096633D01*
X61235768Y-104096635D01*
X61222776Y-104220249D01*
X61216496Y-104280000D01*
X61236458Y-104469928D01*
X61295473Y-104651556D01*
X61298776Y-104657278D01*
X61298777Y-104657279D01*
X61309288Y-104675484D01*
X61390960Y-104816944D01*
X61395378Y-104821851D01*
X61395379Y-104821852D01*
X61499716Y-104937730D01*
X61518747Y-104958866D01*
X61572036Y-104997583D01*
X61622177Y-105034013D01*
X61665531Y-105090236D01*
X61671606Y-105160972D01*
X61638474Y-105223764D01*
X61576654Y-105258675D01*
X61548175Y-105261949D01*
X60357139Y-105262473D01*
X59560171Y-105262824D01*
X59492042Y-105242852D01*
X59445525Y-105189217D01*
X59435391Y-105118947D01*
X59464855Y-105054353D01*
X59484551Y-105035998D01*
X59493003Y-105029664D01*
X59568261Y-104973261D01*
X59655615Y-104856705D01*
X59706745Y-104720316D01*
X59713500Y-104658134D01*
X59713500Y-103561866D01*
X59706745Y-103499684D01*
X59655615Y-103363295D01*
X59568261Y-103246739D01*
X59477520Y-103178732D01*
X59458887Y-103164767D01*
X59458884Y-103164765D01*
X59451705Y-103159385D01*
X59404159Y-103141561D01*
X59347394Y-103098920D01*
X59322402Y-103025457D01*
X59273850Y-99768734D01*
X59274057Y-99759398D01*
X59276658Y-99715531D01*
X59276658Y-99715530D01*
X59277127Y-99707619D01*
X59265581Y-99648248D01*
X59264507Y-99641850D01*
X59257148Y-99589848D01*
X59256038Y-99582001D01*
X59253010Y-99574676D01*
X59250924Y-99567025D01*
X59251116Y-99566973D01*
X59250750Y-99565754D01*
X59250561Y-99565816D01*
X59248084Y-99558284D01*
X59246571Y-99550504D01*
X59220624Y-99495873D01*
X59217992Y-99489942D01*
X59197932Y-99441403D01*
X59194904Y-99434076D01*
X59190149Y-99427731D01*
X59186228Y-99420845D01*
X59186399Y-99420748D01*
X59185740Y-99419657D01*
X59185575Y-99419763D01*
X59181304Y-99413086D01*
X59177902Y-99405924D01*
X59139197Y-99359479D01*
X59135174Y-99354391D01*
X59103657Y-99312343D01*
X59098905Y-99306003D01*
X59092725Y-99301044D01*
X59087209Y-99295343D01*
X59087351Y-99295206D01*
X59077927Y-99285954D01*
X58676782Y-98804580D01*
X58670211Y-98794808D01*
X58669842Y-98795069D01*
X58665269Y-98788595D01*
X58661543Y-98781598D01*
X58656194Y-98775747D01*
X58652298Y-98770232D01*
X58629334Y-98703052D01*
X58646335Y-98634121D01*
X58703964Y-98582430D01*
X58790722Y-98543803D01*
X58790724Y-98543802D01*
X58796752Y-98541118D01*
X58806873Y-98533765D01*
X58873781Y-98485153D01*
X58951253Y-98428866D01*
X59033093Y-98337973D01*
X59074621Y-98291852D01*
X59074622Y-98291851D01*
X59079040Y-98286944D01*
X59166173Y-98136026D01*
X59171223Y-98127279D01*
X59171224Y-98127278D01*
X59174527Y-98121556D01*
X59233542Y-97939928D01*
X59236866Y-97908307D01*
X59252814Y-97756565D01*
X59253504Y-97750000D01*
X59247949Y-97697149D01*
X59260721Y-97627312D01*
X59309223Y-97575465D01*
X59369033Y-97558050D01*
X59498849Y-97553694D01*
X59838088Y-97542310D01*
X59906841Y-97560016D01*
G37*
G04 #@! TD.AperFunction*
G04 #@! TA.AperFunction,Conductor*
G36*
X73399870Y-95102401D02*
G01*
X83351324Y-100836944D01*
X83366887Y-100845912D01*
X83415923Y-100897254D01*
X83429416Y-100966957D01*
X83403084Y-101032889D01*
X83345286Y-101074119D01*
X83335312Y-101077124D01*
X83268251Y-101094342D01*
X83260746Y-101096781D01*
X82986369Y-101205415D01*
X82979234Y-101208772D01*
X82720650Y-101350930D01*
X82713970Y-101355170D01*
X82508770Y-101504256D01*
X82500347Y-101515179D01*
X82507251Y-101528040D01*
X84280115Y-103300905D01*
X84314141Y-103363217D01*
X84309076Y-103434033D01*
X84280115Y-103479095D01*
X82543377Y-105215833D01*
X82481065Y-105249859D01*
X82454338Y-105252738D01*
X79498525Y-105254040D01*
X77529628Y-105254908D01*
X77461499Y-105234936D01*
X77414982Y-105181301D01*
X77404263Y-105142078D01*
X77402144Y-105121911D01*
X77397776Y-105080358D01*
X77394232Y-105046635D01*
X77394232Y-105046633D01*
X77393542Y-105040072D01*
X77334527Y-104858444D01*
X77239040Y-104693056D01*
X77219012Y-104670812D01*
X77115675Y-104556045D01*
X77115674Y-104556044D01*
X77111253Y-104551134D01*
X76990209Y-104463190D01*
X76962094Y-104442763D01*
X76962093Y-104442762D01*
X76956752Y-104438882D01*
X76950724Y-104436198D01*
X76950722Y-104436197D01*
X76788319Y-104363891D01*
X76788318Y-104363891D01*
X76782288Y-104361206D01*
X76688888Y-104341353D01*
X76601944Y-104322872D01*
X76601939Y-104322872D01*
X76595487Y-104321500D01*
X76404513Y-104321500D01*
X76398061Y-104322872D01*
X76398056Y-104322872D01*
X76311112Y-104341353D01*
X76217712Y-104361206D01*
X76211682Y-104363891D01*
X76211681Y-104363891D01*
X76049278Y-104436197D01*
X76049276Y-104436198D01*
X76043248Y-104438882D01*
X76037907Y-104442762D01*
X76037906Y-104442763D01*
X75995383Y-104473658D01*
X75888747Y-104551134D01*
X75884333Y-104556036D01*
X75884331Y-104556038D01*
X75881321Y-104559381D01*
X75820874Y-104596620D01*
X75788497Y-104601066D01*
X73554174Y-104615447D01*
X73485927Y-104595884D01*
X73439090Y-104542529D01*
X73428358Y-104473658D01*
X73447985Y-104318295D01*
X73448380Y-104290000D01*
X73429080Y-104093167D01*
X73421541Y-104068195D01*
X73394208Y-103977666D01*
X73371916Y-103903831D01*
X73279066Y-103729204D01*
X73178556Y-103605967D01*
X73157960Y-103580713D01*
X73157957Y-103580710D01*
X73154065Y-103575938D01*
X73149316Y-103572009D01*
X73006425Y-103453799D01*
X73006421Y-103453797D01*
X73001675Y-103449870D01*
X72991701Y-103444477D01*
X72982199Y-103439339D01*
X72936444Y-103393958D01*
X81597488Y-103393958D01*
X81616015Y-103688436D01*
X81617008Y-103696297D01*
X81672296Y-103986128D01*
X81674267Y-103993805D01*
X81765446Y-104274424D01*
X81768361Y-104281787D01*
X81893993Y-104548770D01*
X81897805Y-104555703D01*
X82055908Y-104804833D01*
X82060563Y-104811241D01*
X82125521Y-104889761D01*
X82138040Y-104898217D01*
X82148778Y-104892011D01*
X83637980Y-103402810D01*
X83645592Y-103388869D01*
X83645461Y-103387034D01*
X83641210Y-103380420D01*
X82149881Y-101889092D01*
X82136619Y-101881850D01*
X82126515Y-101889038D01*
X82060563Y-101968759D01*
X82055909Y-101975165D01*
X81897805Y-102224297D01*
X81893993Y-102231230D01*
X81768361Y-102498213D01*
X81765446Y-102505576D01*
X81674267Y-102786195D01*
X81672296Y-102793872D01*
X81617008Y-103083703D01*
X81616015Y-103091564D01*
X81597488Y-103386042D01*
X81597488Y-103393958D01*
X72936444Y-103393958D01*
X72931791Y-103389343D01*
X72916415Y-103320032D01*
X72940952Y-103253410D01*
X72968067Y-103226570D01*
X73039812Y-103174444D01*
X73055909Y-103162749D01*
X73055911Y-103162747D01*
X73061253Y-103158866D01*
X73073469Y-103145299D01*
X73184621Y-103021852D01*
X73184622Y-103021851D01*
X73189040Y-103016944D01*
X73274510Y-102868906D01*
X73281223Y-102857279D01*
X73281224Y-102857278D01*
X73284527Y-102851556D01*
X73343542Y-102669928D01*
X73348194Y-102625672D01*
X73362814Y-102486565D01*
X73363504Y-102480000D01*
X73343542Y-102290072D01*
X73284527Y-102108444D01*
X73280627Y-102101688D01*
X73207578Y-101975165D01*
X73189040Y-101943056D01*
X73128052Y-101875322D01*
X73097335Y-101811315D01*
X73095707Y-101788811D01*
X73210980Y-95209364D01*
X73232173Y-95141605D01*
X73286634Y-95096059D01*
X73357075Y-95087188D01*
X73399870Y-95102401D01*
G37*
G04 #@! TD.AperFunction*
G04 #@! TA.AperFunction,Conductor*
G36*
X71145558Y-94746030D02*
G01*
X71367260Y-94874030D01*
X71416253Y-94925413D01*
X71429689Y-94995126D01*
X71413379Y-95046149D01*
X70870150Y-95987049D01*
X70866825Y-96000754D01*
X70875161Y-96007309D01*
X70906046Y-96017344D01*
X70918027Y-96019978D01*
X71102085Y-96041926D01*
X71114334Y-96042183D01*
X71299151Y-96027962D01*
X71311231Y-96025831D01*
X71489746Y-95975988D01*
X71501196Y-95971548D01*
X71666635Y-95887979D01*
X71676989Y-95881408D01*
X71727368Y-95842047D01*
X71793363Y-95815869D01*
X71863033Y-95829526D01*
X71914260Y-95878682D01*
X71930923Y-95943541D01*
X71856080Y-100215322D01*
X71828914Y-101765874D01*
X71807721Y-101833634D01*
X71796573Y-101847973D01*
X71710960Y-101943056D01*
X71692422Y-101975165D01*
X71619374Y-102101688D01*
X71615473Y-102108444D01*
X71556458Y-102290072D01*
X71536496Y-102480000D01*
X71537186Y-102486565D01*
X71555015Y-102656199D01*
X71542243Y-102726037D01*
X71493741Y-102777884D01*
X71424908Y-102795278D01*
X71371939Y-102781347D01*
X71230732Y-102708502D01*
X70205325Y-102179522D01*
X70203870Y-102178758D01*
X70137993Y-102143555D01*
X70101289Y-102134594D01*
X70087904Y-102130527D01*
X70052423Y-102117551D01*
X70044535Y-102116766D01*
X70044533Y-102116765D01*
X70029926Y-102115311D01*
X70025850Y-102114905D01*
X70008392Y-102111915D01*
X70007456Y-102111686D01*
X69946041Y-102076068D01*
X69913631Y-102012901D01*
X69920517Y-101942239D01*
X69928274Y-101926309D01*
X69994527Y-101811556D01*
X70053542Y-101629928D01*
X70065603Y-101515179D01*
X70072814Y-101446565D01*
X70073504Y-101440000D01*
X70064588Y-101355170D01*
X70063800Y-101347670D01*
X70076572Y-101277832D01*
X70125074Y-101225985D01*
X70189110Y-101208500D01*
X70275487Y-101208500D01*
X70281939Y-101207128D01*
X70281944Y-101207128D01*
X70368888Y-101188647D01*
X70462288Y-101168794D01*
X70468319Y-101166109D01*
X70630722Y-101093803D01*
X70630724Y-101093802D01*
X70636752Y-101091118D01*
X70791253Y-100978866D01*
X70919040Y-100836944D01*
X70977314Y-100736010D01*
X71011223Y-100677279D01*
X71011224Y-100677278D01*
X71014527Y-100671556D01*
X71073542Y-100489928D01*
X71079442Y-100433798D01*
X71092814Y-100306565D01*
X71093504Y-100300000D01*
X71091245Y-100278505D01*
X71074232Y-100116635D01*
X71074232Y-100116633D01*
X71073542Y-100110072D01*
X71014527Y-99928444D01*
X70996143Y-99896601D01*
X70922343Y-99768777D01*
X70919040Y-99763056D01*
X70914620Y-99758147D01*
X70914617Y-99758143D01*
X70895688Y-99737120D01*
X70864971Y-99673113D01*
X70873735Y-99602659D01*
X70880863Y-99588685D01*
X70909894Y-99539597D01*
X70955606Y-99382254D01*
X70957399Y-99359484D01*
X70958307Y-99347940D01*
X70958307Y-99347932D01*
X70958500Y-99345484D01*
X70958500Y-98874516D01*
X70956788Y-98852763D01*
X70956111Y-98844156D01*
X70956110Y-98844151D01*
X70955606Y-98837746D01*
X70909894Y-98680403D01*
X70898658Y-98661403D01*
X70830522Y-98546192D01*
X70826488Y-98539371D01*
X70710629Y-98423512D01*
X70619915Y-98369864D01*
X70576420Y-98344141D01*
X70576419Y-98344141D01*
X70569597Y-98340106D01*
X70561986Y-98337895D01*
X70561984Y-98337894D01*
X70511005Y-98323084D01*
X70412254Y-98294394D01*
X70405849Y-98293890D01*
X70405844Y-98293889D01*
X70377940Y-98291693D01*
X70377932Y-98291693D01*
X70375484Y-98291500D01*
X69964516Y-98291500D01*
X69962068Y-98291693D01*
X69962060Y-98291693D01*
X69934156Y-98293889D01*
X69934151Y-98293890D01*
X69927746Y-98294394D01*
X69808641Y-98328997D01*
X69773488Y-98334000D01*
X69606512Y-98334000D01*
X69571359Y-98328997D01*
X69452254Y-98294394D01*
X69445849Y-98293890D01*
X69445844Y-98293889D01*
X69417940Y-98291693D01*
X69417932Y-98291693D01*
X69415484Y-98291500D01*
X69004516Y-98291500D01*
X69002068Y-98291693D01*
X69002060Y-98291693D01*
X68974156Y-98293889D01*
X68974151Y-98293890D01*
X68967746Y-98294394D01*
X68848641Y-98328997D01*
X68813488Y-98334000D01*
X68426442Y-98334000D01*
X68412911Y-98337973D01*
X68408326Y-98369864D01*
X68404874Y-98369368D01*
X68402592Y-98400685D01*
X68359969Y-98457463D01*
X68293415Y-98482185D01*
X68285428Y-98482490D01*
X67916942Y-98484883D01*
X67848694Y-98465324D01*
X67841701Y-98460557D01*
X67138621Y-97945760D01*
X67095475Y-97889378D01*
X67089661Y-97818619D01*
X67123024Y-97755951D01*
X67184973Y-97721268D01*
X67215287Y-97718118D01*
X68290596Y-97737150D01*
X68358350Y-97758353D01*
X68394167Y-97794706D01*
X68411799Y-97821970D01*
X68420691Y-97826000D01*
X68698621Y-97826000D01*
X68762760Y-97843546D01*
X68790403Y-97859894D01*
X68798014Y-97862105D01*
X68798016Y-97862106D01*
X68800653Y-97862872D01*
X68947746Y-97905606D01*
X68954151Y-97906110D01*
X68954156Y-97906111D01*
X68982060Y-97908307D01*
X68982068Y-97908307D01*
X68984516Y-97908500D01*
X69455484Y-97908500D01*
X69457932Y-97908307D01*
X69457940Y-97908307D01*
X69485844Y-97906111D01*
X69485849Y-97906110D01*
X69492254Y-97905606D01*
X69639347Y-97862872D01*
X69641984Y-97862106D01*
X69641986Y-97862105D01*
X69649597Y-97859894D01*
X69677240Y-97843546D01*
X69741379Y-97826000D01*
X70013558Y-97826000D01*
X70027089Y-97822027D01*
X70028224Y-97814129D01*
X69991643Y-97688216D01*
X69985395Y-97673778D01*
X69979984Y-97664628D01*
X69962526Y-97595812D01*
X69979985Y-97536353D01*
X69985857Y-97526423D01*
X69989894Y-97519597D01*
X69993039Y-97508774D01*
X70016505Y-97428000D01*
X70035606Y-97362254D01*
X70036291Y-97353559D01*
X70038307Y-97327940D01*
X70038307Y-97327932D01*
X70038500Y-97325484D01*
X70038500Y-96914516D01*
X70038307Y-96912060D01*
X70036111Y-96884156D01*
X70036110Y-96884151D01*
X70035606Y-96877746D01*
X69989894Y-96720403D01*
X69906488Y-96579371D01*
X69790629Y-96463512D01*
X69783808Y-96459478D01*
X69656420Y-96384141D01*
X69656419Y-96384141D01*
X69649597Y-96380106D01*
X69641986Y-96377895D01*
X69641984Y-96377894D01*
X69591005Y-96363084D01*
X69492254Y-96334394D01*
X69485849Y-96333890D01*
X69485844Y-96333889D01*
X69457940Y-96331693D01*
X69457932Y-96331693D01*
X69455484Y-96331500D01*
X68984516Y-96331500D01*
X68982068Y-96331693D01*
X68982060Y-96331693D01*
X68954156Y-96333889D01*
X68954151Y-96333890D01*
X68947746Y-96334394D01*
X68941574Y-96336187D01*
X68941569Y-96336188D01*
X68877176Y-96354896D01*
X68824651Y-96370156D01*
X68753657Y-96369953D01*
X68694040Y-96331399D01*
X68664732Y-96266735D01*
X68663500Y-96249159D01*
X68663499Y-95044239D01*
X68663499Y-95040116D01*
X68662626Y-95033479D01*
X68648916Y-94929339D01*
X68647838Y-94921150D01*
X68645303Y-94915030D01*
X68646977Y-94844809D01*
X68686774Y-94786015D01*
X68752039Y-94758070D01*
X68781911Y-94758065D01*
X68908482Y-94773158D01*
X68914617Y-94772686D01*
X68914619Y-94772686D01*
X68977695Y-94767832D01*
X68999594Y-94766147D01*
X69069049Y-94780864D01*
X69121327Y-94834181D01*
X69177744Y-94943956D01*
X69300592Y-95098953D01*
X69305285Y-95102947D01*
X69305286Y-95102948D01*
X69328286Y-95122522D01*
X69451207Y-95227136D01*
X69623851Y-95323624D01*
X69811949Y-95384740D01*
X70008334Y-95408158D01*
X70014469Y-95407686D01*
X70014472Y-95407686D01*
X70099988Y-95401106D01*
X70169442Y-95415824D01*
X70221721Y-95469141D01*
X70275203Y-95573207D01*
X70281844Y-95583512D01*
X70396977Y-95728772D01*
X70405499Y-95737597D01*
X70406512Y-95738459D01*
X70418621Y-95743859D01*
X70429989Y-95733431D01*
X70973439Y-94792149D01*
X71024821Y-94743156D01*
X71094535Y-94729720D01*
X71145558Y-94746030D01*
G37*
G04 #@! TD.AperFunction*
G04 #@! TA.AperFunction,Conductor*
G36*
X43656785Y-77963994D02*
G01*
X43670647Y-77970885D01*
X45458354Y-79001054D01*
X45507390Y-79052396D01*
X45520883Y-79122099D01*
X45494551Y-79188031D01*
X45436753Y-79229261D01*
X45410472Y-79235326D01*
X45353306Y-79242193D01*
X45353303Y-79242194D01*
X45344394Y-79243264D01*
X45329096Y-79249805D01*
X45218718Y-79296998D01*
X45218716Y-79296999D01*
X45210465Y-79300527D01*
X45203531Y-79306232D01*
X45203532Y-79306232D01*
X45104095Y-79388054D01*
X45104093Y-79388056D01*
X45097990Y-79393078D01*
X45061049Y-79443552D01*
X44512915Y-80392948D01*
X44487674Y-80450177D01*
X44486378Y-80457964D01*
X44486377Y-80457967D01*
X44468011Y-80568318D01*
X44463760Y-80593858D01*
X44464831Y-80602772D01*
X44475790Y-80693995D01*
X44481133Y-80738475D01*
X44538396Y-80872404D01*
X44544101Y-80879337D01*
X44601556Y-80949161D01*
X44629395Y-81014472D01*
X44617533Y-81084406D01*
X44570344Y-81181266D01*
X44558709Y-81200551D01*
X44556484Y-81203588D01*
X44551696Y-81210123D01*
X44533867Y-81254627D01*
X44532150Y-81258914D01*
X44528458Y-81267243D01*
X44523034Y-81278377D01*
X44521764Y-81282114D01*
X44521760Y-81282123D01*
X44516727Y-81296929D01*
X44514400Y-81303221D01*
X44492173Y-81358703D01*
X44491148Y-81366562D01*
X44489144Y-81374237D01*
X44489032Y-81374208D01*
X44488478Y-81376588D01*
X44488592Y-81376611D01*
X44487001Y-81384381D01*
X44484450Y-81391884D01*
X44483846Y-81399785D01*
X44483845Y-81399788D01*
X44479893Y-81451453D01*
X44479202Y-81458136D01*
X44471470Y-81517417D01*
X44472431Y-81525282D01*
X44472399Y-81533212D01*
X44472283Y-81533212D01*
X44472339Y-81535665D01*
X44472456Y-81535659D01*
X44472847Y-81543572D01*
X44472242Y-81551478D01*
X44482374Y-81608785D01*
X44482645Y-81610320D01*
X44483636Y-81616959D01*
X44510757Y-81838856D01*
X44584526Y-82442422D01*
X44585425Y-82460542D01*
X44585036Y-82477823D01*
X44584858Y-82485747D01*
X44594064Y-82525274D01*
X44595205Y-82530720D01*
X44595535Y-82532487D01*
X44596015Y-82536417D01*
X44597090Y-82540674D01*
X44604040Y-82568205D01*
X44604588Y-82570463D01*
X44621164Y-82641635D01*
X44623905Y-82646899D01*
X44625359Y-82652657D01*
X44629152Y-82659623D01*
X44660269Y-82716771D01*
X44661363Y-82718825D01*
X44691434Y-82776566D01*
X44691437Y-82776571D01*
X44695096Y-82783596D01*
X44699061Y-82788014D01*
X44701901Y-82793229D01*
X44707302Y-82799027D01*
X44707304Y-82799030D01*
X44751678Y-82846668D01*
X44753238Y-82848374D01*
X44802008Y-82902711D01*
X44806951Y-82906006D01*
X44810996Y-82910349D01*
X44872488Y-82949723D01*
X44874410Y-82950979D01*
X46058483Y-83740361D01*
X46104068Y-83794790D01*
X46112990Y-83865224D01*
X46082416Y-83929300D01*
X46022053Y-83966675D01*
X46014788Y-83968446D01*
X45989087Y-83973909D01*
X45907712Y-83991206D01*
X45901682Y-83993891D01*
X45901681Y-83993891D01*
X45739278Y-84066197D01*
X45739276Y-84066198D01*
X45733248Y-84068882D01*
X45578747Y-84181134D01*
X45450960Y-84323056D01*
X45355473Y-84488444D01*
X45296458Y-84670072D01*
X45276496Y-84860000D01*
X45277186Y-84866564D01*
X45277186Y-84866565D01*
X45292867Y-85015757D01*
X45296458Y-85049928D01*
X45307666Y-85084421D01*
X45309545Y-85090205D01*
X45311571Y-85161173D01*
X45274908Y-85221970D01*
X45211195Y-85253295D01*
X45208068Y-85253688D01*
X45191641Y-85256688D01*
X45048216Y-85298357D01*
X45033780Y-85304604D01*
X44906501Y-85379876D01*
X44894074Y-85389516D01*
X44789516Y-85494074D01*
X44779876Y-85506501D01*
X44704604Y-85633780D01*
X44698357Y-85648216D01*
X44656688Y-85791641D01*
X44655232Y-85799609D01*
X44658052Y-85813031D01*
X44669513Y-85816000D01*
X45485500Y-85816000D01*
X45553621Y-85836002D01*
X45600114Y-85889658D01*
X45611500Y-85942000D01*
X45611500Y-86305484D01*
X45611693Y-86307932D01*
X45611693Y-86307940D01*
X45613184Y-86326876D01*
X45614394Y-86342254D01*
X45660106Y-86499597D01*
X45664141Y-86506419D01*
X45664141Y-86506420D01*
X45676454Y-86527240D01*
X45694000Y-86591379D01*
X45694000Y-86863558D01*
X45698475Y-86878797D01*
X45723013Y-86900060D01*
X45761396Y-86959786D01*
X45766500Y-86995284D01*
X45766500Y-87641233D01*
X45765973Y-87652416D01*
X45764298Y-87659909D01*
X45764547Y-87667835D01*
X45764547Y-87667836D01*
X45766438Y-87727986D01*
X45766500Y-87731945D01*
X45766500Y-87759856D01*
X45766997Y-87763790D01*
X45766997Y-87763791D01*
X45767005Y-87763856D01*
X45767938Y-87775693D01*
X45769327Y-87819889D01*
X45774978Y-87839339D01*
X45778987Y-87858700D01*
X45781526Y-87878797D01*
X45784445Y-87886168D01*
X45784445Y-87886170D01*
X45797804Y-87919912D01*
X45801649Y-87931142D01*
X45813982Y-87973593D01*
X45818015Y-87980412D01*
X45818017Y-87980417D01*
X45824293Y-87991028D01*
X45832988Y-88008776D01*
X45840448Y-88027617D01*
X45845110Y-88034033D01*
X45845110Y-88034034D01*
X45866436Y-88063387D01*
X45872952Y-88073307D01*
X45895458Y-88111362D01*
X45909779Y-88125683D01*
X45922619Y-88140716D01*
X45934528Y-88157107D01*
X45940634Y-88162158D01*
X45968605Y-88185298D01*
X45977384Y-88193288D01*
X47256098Y-89472002D01*
X47257700Y-89473803D01*
X47258817Y-89475656D01*
X47308101Y-89524105D01*
X47313645Y-89529555D01*
X47314409Y-89530313D01*
X47340230Y-89556134D01*
X47341898Y-89557428D01*
X47343780Y-89559180D01*
X47361804Y-89576898D01*
X47372959Y-89587864D01*
X47379814Y-89591840D01*
X47379816Y-89591841D01*
X47398040Y-89602410D01*
X47412055Y-89611847D01*
X47434959Y-89629613D01*
X47432946Y-89632208D01*
X47471098Y-89673083D01*
X47483792Y-89742936D01*
X47456705Y-89808562D01*
X47431176Y-89832551D01*
X47380973Y-89868001D01*
X47378852Y-89869466D01*
X47101336Y-90056977D01*
X47054143Y-90088864D01*
X46986501Y-90110429D01*
X46917938Y-90092000D01*
X46893025Y-90072052D01*
X46638221Y-89808562D01*
X46219727Y-89375801D01*
X46212403Y-89366480D01*
X46212065Y-89366758D01*
X46207024Y-89360640D01*
X46202787Y-89353935D01*
X46157315Y-89311068D01*
X46153204Y-89307010D01*
X46137690Y-89290967D01*
X46130136Y-89284901D01*
X46122612Y-89278353D01*
X46086321Y-89244142D01*
X46079384Y-89240311D01*
X46079380Y-89240308D01*
X46073546Y-89237086D01*
X46055579Y-89225042D01*
X46050389Y-89220875D01*
X46044205Y-89215910D01*
X46036984Y-89212641D01*
X46036977Y-89212636D01*
X45998800Y-89195350D01*
X45989860Y-89190867D01*
X45953146Y-89170591D01*
X45953139Y-89170588D01*
X45946209Y-89166761D01*
X45938541Y-89164776D01*
X45938535Y-89164774D01*
X45932079Y-89163103D01*
X45911685Y-89155907D01*
X45898395Y-89149890D01*
X45890587Y-89148519D01*
X45890584Y-89148518D01*
X45863731Y-89143803D01*
X45849292Y-89141267D01*
X45839532Y-89139151D01*
X45791257Y-89126656D01*
X45776666Y-89126628D01*
X45755117Y-89124729D01*
X45740749Y-89122206D01*
X45718788Y-89123911D01*
X45691051Y-89126064D01*
X45681055Y-89126442D01*
X44499255Y-89124154D01*
X44431173Y-89104020D01*
X44384784Y-89050274D01*
X44373499Y-88998154D01*
X44373499Y-88965116D01*
X44369499Y-88934726D01*
X44358916Y-88854337D01*
X44358916Y-88854335D01*
X44357838Y-88846150D01*
X44350140Y-88827565D01*
X44342550Y-88756977D01*
X44350140Y-88731126D01*
X44354189Y-88721351D01*
X44358428Y-88705531D01*
X44362716Y-88672960D01*
X44360505Y-88658778D01*
X44347348Y-88655000D01*
X44325569Y-88655000D01*
X44257448Y-88634998D01*
X44225607Y-88605705D01*
X44198987Y-88571013D01*
X44178068Y-88554961D01*
X44136202Y-88497622D01*
X44131982Y-88426751D01*
X44166747Y-88364848D01*
X44178070Y-88355038D01*
X44192433Y-88344017D01*
X44192437Y-88344013D01*
X44198987Y-88338987D01*
X44225608Y-88304295D01*
X44282946Y-88262428D01*
X44325569Y-88255000D01*
X44346965Y-88255000D01*
X44360736Y-88250956D01*
X44362765Y-88237417D01*
X44358428Y-88204467D01*
X44354190Y-88188652D01*
X44350140Y-88178874D01*
X44342550Y-88108285D01*
X44350140Y-88082434D01*
X44354678Y-88071479D01*
X44357838Y-88063850D01*
X44373500Y-87944885D01*
X44373499Y-87665116D01*
X44372677Y-87658866D01*
X44358916Y-87554337D01*
X44358916Y-87554335D01*
X44357838Y-87546150D01*
X44350411Y-87528219D01*
X44342821Y-87457630D01*
X44350411Y-87431780D01*
X44354678Y-87421480D01*
X44354679Y-87421477D01*
X44357838Y-87413850D01*
X44373500Y-87294885D01*
X44373499Y-87015116D01*
X44370889Y-86995284D01*
X44358916Y-86904337D01*
X44358916Y-86904335D01*
X44357838Y-86896150D01*
X44324510Y-86815689D01*
X44299684Y-86755752D01*
X44299683Y-86755750D01*
X44296524Y-86748124D01*
X44251593Y-86689570D01*
X44204014Y-86627564D01*
X44204013Y-86627563D01*
X44198987Y-86621013D01*
X44192436Y-86615986D01*
X44192434Y-86615984D01*
X44135431Y-86572245D01*
X44071875Y-86523476D01*
X43923850Y-86462162D01*
X43822158Y-86448774D01*
X43808972Y-86447038D01*
X43808971Y-86447038D01*
X43804885Y-86446500D01*
X43127583Y-86446500D01*
X42450116Y-86446501D01*
X42446031Y-86447039D01*
X42446027Y-86447039D01*
X42339337Y-86461084D01*
X42339335Y-86461084D01*
X42331150Y-86462162D01*
X42259636Y-86491784D01*
X42190752Y-86520316D01*
X42190750Y-86520317D01*
X42183124Y-86523476D01*
X42176574Y-86528502D01*
X42082376Y-86600784D01*
X42056013Y-86621013D01*
X42050987Y-86627563D01*
X42050984Y-86627566D01*
X42016667Y-86672289D01*
X41958476Y-86748125D01*
X41897162Y-86896150D01*
X41893021Y-86927608D01*
X41884751Y-86990423D01*
X41856029Y-87055350D01*
X41796764Y-87094442D01*
X41753341Y-87099810D01*
X41674326Y-87095736D01*
X41607326Y-87072253D01*
X41583171Y-87049539D01*
X41522960Y-86975714D01*
X41519065Y-86970938D01*
X41512724Y-86965692D01*
X41371425Y-86848799D01*
X41371421Y-86848797D01*
X41366675Y-86844870D01*
X41192701Y-86750802D01*
X41003768Y-86692318D01*
X40997643Y-86691674D01*
X40997642Y-86691674D01*
X40813204Y-86672289D01*
X40813202Y-86672289D01*
X40807075Y-86671645D01*
X40724576Y-86679153D01*
X40616251Y-86689011D01*
X40616248Y-86689012D01*
X40610112Y-86689570D01*
X40604206Y-86691308D01*
X40604202Y-86691309D01*
X40500504Y-86721829D01*
X40420381Y-86745410D01*
X40414923Y-86748263D01*
X40414919Y-86748265D01*
X40344773Y-86784937D01*
X40245110Y-86837040D01*
X40090975Y-86960968D01*
X39963846Y-87112474D01*
X39960879Y-87117872D01*
X39960875Y-87117877D01*
X39928809Y-87176206D01*
X39868567Y-87285787D01*
X39866706Y-87291654D01*
X39866705Y-87291656D01*
X39847704Y-87351556D01*
X39808765Y-87474306D01*
X39786719Y-87670851D01*
X39787235Y-87676995D01*
X39802493Y-87858700D01*
X39803268Y-87867934D01*
X39819755Y-87925431D01*
X39850897Y-88034034D01*
X39857783Y-88058050D01*
X39860602Y-88063535D01*
X39933032Y-88204467D01*
X39948187Y-88233956D01*
X39952016Y-88238787D01*
X39953839Y-88241088D01*
X39954414Y-88242509D01*
X39955353Y-88243966D01*
X39955076Y-88244144D01*
X39980474Y-88306898D01*
X39967301Y-88376662D01*
X39963846Y-88382474D01*
X39868567Y-88555787D01*
X39866706Y-88561654D01*
X39866705Y-88561656D01*
X39835896Y-88658778D01*
X39808765Y-88744306D01*
X39786719Y-88940851D01*
X39787235Y-88946995D01*
X39802728Y-89131500D01*
X39803268Y-89137934D01*
X39824780Y-89212954D01*
X39852344Y-89309081D01*
X39857783Y-89328050D01*
X39877676Y-89366758D01*
X39910142Y-89429928D01*
X39948187Y-89503956D01*
X39952016Y-89508787D01*
X39953839Y-89511088D01*
X39954414Y-89512509D01*
X39955353Y-89513966D01*
X39955076Y-89514144D01*
X39980474Y-89576898D01*
X39967301Y-89646662D01*
X39963846Y-89652474D01*
X39868567Y-89825787D01*
X39866706Y-89831654D01*
X39866705Y-89831656D01*
X39813898Y-89998124D01*
X39808765Y-90014306D01*
X39786719Y-90210851D01*
X39787235Y-90216995D01*
X39802004Y-90392877D01*
X39803268Y-90407934D01*
X39822906Y-90476421D01*
X39850775Y-90573609D01*
X39857783Y-90598050D01*
X39948187Y-90773956D01*
X39952016Y-90778787D01*
X39953839Y-90781088D01*
X39954414Y-90782509D01*
X39955353Y-90783966D01*
X39955076Y-90784144D01*
X39980474Y-90846898D01*
X39967301Y-90916662D01*
X39963846Y-90922474D01*
X39868567Y-91095787D01*
X39808765Y-91284306D01*
X39786719Y-91480851D01*
X39803268Y-91677934D01*
X39804967Y-91683858D01*
X39852256Y-91848774D01*
X39857783Y-91868050D01*
X39948187Y-92043956D01*
X39952016Y-92048787D01*
X39953839Y-92051088D01*
X39954414Y-92052509D01*
X39955353Y-92053966D01*
X39955076Y-92054144D01*
X39980474Y-92116898D01*
X39967301Y-92186662D01*
X39963846Y-92192474D01*
X39868567Y-92365787D01*
X39866706Y-92371654D01*
X39866705Y-92371656D01*
X39813745Y-92538608D01*
X39808765Y-92554306D01*
X39786719Y-92750851D01*
X39787235Y-92756995D01*
X39799596Y-92904201D01*
X39803268Y-92947934D01*
X39804967Y-92953858D01*
X39836760Y-93064733D01*
X39857783Y-93138050D01*
X39860602Y-93143535D01*
X39864402Y-93150929D01*
X39877750Y-93220660D01*
X39857667Y-93272468D01*
X39859521Y-93273483D01*
X39846677Y-93296942D01*
X39801522Y-93417394D01*
X39797895Y-93432649D01*
X39792369Y-93483514D01*
X39792000Y-93490328D01*
X39792000Y-93762885D01*
X39796475Y-93778124D01*
X39797865Y-93779329D01*
X39805548Y-93781000D01*
X41789884Y-93781000D01*
X41805123Y-93776525D01*
X41806328Y-93775135D01*
X41807999Y-93767452D01*
X41807999Y-93490331D01*
X41807629Y-93483510D01*
X41802105Y-93432648D01*
X41798479Y-93417396D01*
X41753324Y-93296946D01*
X41740478Y-93273483D01*
X41742602Y-93272320D01*
X41722313Y-93218007D01*
X41728429Y-93169183D01*
X41741867Y-93128787D01*
X41788197Y-92989513D01*
X41812985Y-92793295D01*
X41813380Y-92765000D01*
X41794080Y-92568167D01*
X41765754Y-92474347D01*
X41765213Y-92403354D01*
X41803140Y-92343337D01*
X41867495Y-92313353D01*
X41914545Y-92315119D01*
X41956774Y-92324805D01*
X41960601Y-92325683D01*
X41963165Y-92326300D01*
X42025393Y-92341952D01*
X42025396Y-92341952D01*
X42033084Y-92343886D01*
X42039820Y-92343853D01*
X42046378Y-92345357D01*
X42054302Y-92345152D01*
X42057272Y-92345075D01*
X42118443Y-92343492D01*
X42121014Y-92343454D01*
X42146776Y-92343327D01*
X42173547Y-92343196D01*
X42222382Y-92352785D01*
X42323520Y-92394678D01*
X42323523Y-92394679D01*
X42331150Y-92397838D01*
X42339338Y-92398916D01*
X42446021Y-92412961D01*
X42450115Y-92413500D01*
X43127417Y-92413500D01*
X43804884Y-92413499D01*
X43808969Y-92412961D01*
X43808973Y-92412961D01*
X43915663Y-92398916D01*
X43915665Y-92398916D01*
X43923850Y-92397838D01*
X44036498Y-92351178D01*
X44107088Y-92343589D01*
X44161231Y-92367976D01*
X44164530Y-92371329D01*
X44205505Y-92396015D01*
X44213316Y-92400721D01*
X44219748Y-92404868D01*
X44260117Y-92432663D01*
X44260121Y-92432665D01*
X44266652Y-92437162D01*
X44274098Y-92439894D01*
X44275470Y-92440604D01*
X44293467Y-92449230D01*
X44294841Y-92449838D01*
X44301630Y-92453928D01*
X44309221Y-92456201D01*
X44309228Y-92456204D01*
X44356203Y-92470269D01*
X44363462Y-92472685D01*
X44409466Y-92489564D01*
X44416915Y-92492297D01*
X44424810Y-92493092D01*
X44426299Y-92493434D01*
X44445890Y-92497317D01*
X44447372Y-92497564D01*
X44454963Y-92499837D01*
X44462882Y-92500151D01*
X44462884Y-92500151D01*
X44511881Y-92502092D01*
X44519512Y-92502627D01*
X44568277Y-92507536D01*
X44568281Y-92507536D01*
X44576169Y-92508330D01*
X44584004Y-92507138D01*
X44585546Y-92507099D01*
X44607463Y-92505877D01*
X45240055Y-92530930D01*
X45307331Y-92553612D01*
X45325768Y-92569369D01*
X45643406Y-92898770D01*
X45646810Y-92902445D01*
X45976003Y-93272468D01*
X46877827Y-94286147D01*
X46888553Y-94300839D01*
X46891422Y-94304537D01*
X46895458Y-94311362D01*
X46936386Y-94352291D01*
X46941408Y-94357614D01*
X46953188Y-94370854D01*
X46956156Y-94373447D01*
X46956171Y-94373462D01*
X46963941Y-94380250D01*
X46970134Y-94386039D01*
X47026352Y-94442256D01*
X47033888Y-94450538D01*
X47038000Y-94457018D01*
X47043779Y-94462445D01*
X47043780Y-94462446D01*
X47087652Y-94503644D01*
X47090494Y-94506399D01*
X47110230Y-94526135D01*
X47113427Y-94528615D01*
X47122447Y-94536318D01*
X47154679Y-94566586D01*
X47161625Y-94570405D01*
X47161628Y-94570407D01*
X47172434Y-94576348D01*
X47188953Y-94587199D01*
X47204959Y-94599614D01*
X47212228Y-94602759D01*
X47212232Y-94602762D01*
X47245537Y-94617174D01*
X47256187Y-94622391D01*
X47294940Y-94643695D01*
X47302615Y-94645666D01*
X47302616Y-94645666D01*
X47314562Y-94648733D01*
X47333267Y-94655137D01*
X47351855Y-94663181D01*
X47359678Y-94664420D01*
X47359688Y-94664423D01*
X47395524Y-94670099D01*
X47407144Y-94672505D01*
X47442289Y-94681528D01*
X47449970Y-94683500D01*
X47470224Y-94683500D01*
X47489934Y-94685051D01*
X47509943Y-94688220D01*
X47517835Y-94687474D01*
X47553961Y-94684059D01*
X47565819Y-94683500D01*
X49792722Y-94683500D01*
X49864450Y-94705909D01*
X53142972Y-96975991D01*
X53210205Y-97022544D01*
X53254824Y-97077767D01*
X53262504Y-97148347D01*
X53230806Y-97211875D01*
X53169794Y-97248181D01*
X53142230Y-97252079D01*
X51318924Y-97306416D01*
X48659648Y-97385666D01*
X48590963Y-97367702D01*
X48581546Y-97360731D01*
X48581253Y-97361134D01*
X48432094Y-97252763D01*
X48432093Y-97252762D01*
X48426752Y-97248882D01*
X48420724Y-97246198D01*
X48420722Y-97246197D01*
X48258319Y-97173891D01*
X48258318Y-97173891D01*
X48252288Y-97171206D01*
X48158887Y-97151353D01*
X48071944Y-97132872D01*
X48071939Y-97132872D01*
X48065487Y-97131500D01*
X47874513Y-97131500D01*
X47868061Y-97132872D01*
X47868056Y-97132872D01*
X47781113Y-97151353D01*
X47687712Y-97171206D01*
X47681682Y-97173891D01*
X47681681Y-97173891D01*
X47519278Y-97246197D01*
X47519276Y-97246198D01*
X47513248Y-97248882D01*
X47507907Y-97252762D01*
X47507906Y-97252763D01*
X47498288Y-97259751D01*
X47358747Y-97361134D01*
X47354326Y-97366044D01*
X47354325Y-97366045D01*
X47298895Y-97427607D01*
X47230960Y-97503056D01*
X47223213Y-97516474D01*
X47160825Y-97624534D01*
X47135473Y-97668444D01*
X47076458Y-97850072D01*
X47075769Y-97856631D01*
X47075768Y-97856634D01*
X47058624Y-98019752D01*
X47031611Y-98085408D01*
X46973389Y-98126038D01*
X46933408Y-98132581D01*
X46192603Y-98133119D01*
X46061635Y-98133214D01*
X45993500Y-98113261D01*
X45946968Y-98059639D01*
X45937236Y-97986635D01*
X45937665Y-97984047D01*
X45944003Y-97945760D01*
X45950993Y-97903539D01*
X45950993Y-97903536D01*
X45952108Y-97896802D01*
X45949963Y-97855859D01*
X45942987Y-97722766D01*
X45942630Y-97715953D01*
X45940319Y-97707560D01*
X45917449Y-97624534D01*
X45907237Y-97587459D01*
X45908431Y-97516474D01*
X45947814Y-97457401D01*
X46012881Y-97428999D01*
X46028713Y-97428000D01*
X46241657Y-97428000D01*
X46247805Y-97427699D01*
X46385603Y-97414188D01*
X46397638Y-97411805D01*
X46575076Y-97358233D01*
X46586416Y-97353559D01*
X46750077Y-97266540D01*
X46760294Y-97259751D01*
X46903933Y-97142603D01*
X46912637Y-97133959D01*
X47030784Y-96991144D01*
X47037644Y-96980973D01*
X47125804Y-96817924D01*
X47130556Y-96806619D01*
X47166250Y-96691308D01*
X47166456Y-96677205D01*
X47159701Y-96674000D01*
X44137076Y-96674000D01*
X44123545Y-96677973D01*
X44122425Y-96685768D01*
X44154138Y-96793521D01*
X44158731Y-96804889D01*
X44244607Y-96969154D01*
X44251321Y-96979415D01*
X44367468Y-97123873D01*
X44376045Y-97132632D01*
X44428110Y-97176319D01*
X44467436Y-97235428D01*
X44468563Y-97306416D01*
X44451331Y-97343663D01*
X44374723Y-97456388D01*
X44307470Y-97624534D01*
X44306356Y-97631262D01*
X44306355Y-97631266D01*
X44282314Y-97776488D01*
X44277892Y-97803198D01*
X44278249Y-97810015D01*
X44278249Y-97810019D01*
X44280979Y-97862106D01*
X44287370Y-97984047D01*
X44288753Y-97989066D01*
X44279974Y-98058892D01*
X44234441Y-98113364D01*
X44164542Y-98134592D01*
X42247828Y-98135985D01*
X42179692Y-98116032D01*
X42160917Y-98100085D01*
X42160580Y-98100460D01*
X42155668Y-98096037D01*
X42151253Y-98091134D01*
X41996752Y-97978882D01*
X41990724Y-97976198D01*
X41990722Y-97976197D01*
X41828319Y-97903891D01*
X41828318Y-97903891D01*
X41822288Y-97901206D01*
X41728888Y-97881353D01*
X41641944Y-97862872D01*
X41641939Y-97862872D01*
X41635487Y-97861500D01*
X41444513Y-97861500D01*
X41438061Y-97862872D01*
X41438056Y-97862872D01*
X41351112Y-97881353D01*
X41257712Y-97901206D01*
X41251682Y-97903891D01*
X41251681Y-97903891D01*
X41089278Y-97976197D01*
X41089276Y-97976198D01*
X41083248Y-97978882D01*
X40928747Y-98091134D01*
X40800960Y-98233056D01*
X40705473Y-98398444D01*
X40646458Y-98580072D01*
X40645768Y-98586633D01*
X40645768Y-98586635D01*
X40635821Y-98681278D01*
X40608808Y-98746935D01*
X40550586Y-98787565D01*
X40479641Y-98790268D01*
X40459264Y-98783216D01*
X40438319Y-98773891D01*
X40438318Y-98773891D01*
X40432288Y-98771206D01*
X40318103Y-98746935D01*
X40251944Y-98732872D01*
X40251939Y-98732872D01*
X40245487Y-98731500D01*
X40054513Y-98731500D01*
X40048061Y-98732872D01*
X40048056Y-98732872D01*
X39981897Y-98746935D01*
X39867712Y-98771206D01*
X39861682Y-98773891D01*
X39861681Y-98773891D01*
X39699278Y-98846197D01*
X39699276Y-98846198D01*
X39693248Y-98848882D01*
X39538747Y-98961134D01*
X39443274Y-99067167D01*
X39382832Y-99104405D01*
X39311848Y-99103054D01*
X39252863Y-99063540D01*
X39224605Y-98998409D01*
X39223641Y-98983131D01*
X39218618Y-96685768D01*
X40192425Y-96685768D01*
X40224138Y-96793521D01*
X40228731Y-96804889D01*
X40314607Y-96969154D01*
X40321321Y-96979415D01*
X40437468Y-97123873D01*
X40446046Y-97132632D01*
X40588039Y-97251778D01*
X40598159Y-97258708D01*
X40760585Y-97348002D01*
X40771858Y-97352834D01*
X40948538Y-97408880D01*
X40960532Y-97411430D01*
X41104761Y-97427607D01*
X41111785Y-97428000D01*
X41192885Y-97428000D01*
X41208124Y-97423525D01*
X41209329Y-97422135D01*
X41211000Y-97414452D01*
X41211000Y-97409885D01*
X41719000Y-97409885D01*
X41723475Y-97425124D01*
X41724865Y-97426329D01*
X41732548Y-97428000D01*
X41811657Y-97428000D01*
X41817805Y-97427699D01*
X41955603Y-97414188D01*
X41967638Y-97411805D01*
X42145076Y-97358233D01*
X42156416Y-97353559D01*
X42320077Y-97266540D01*
X42330294Y-97259751D01*
X42473933Y-97142603D01*
X42482637Y-97133959D01*
X42600784Y-96991144D01*
X42607644Y-96980973D01*
X42695804Y-96817924D01*
X42700556Y-96806619D01*
X42736250Y-96691308D01*
X42736456Y-96677205D01*
X42729701Y-96674000D01*
X41737115Y-96674000D01*
X41721876Y-96678475D01*
X41720671Y-96679865D01*
X41719000Y-96687548D01*
X41719000Y-97409885D01*
X41211000Y-97409885D01*
X41211000Y-96692115D01*
X41206525Y-96676876D01*
X41205135Y-96675671D01*
X41197452Y-96674000D01*
X40207076Y-96674000D01*
X40193545Y-96677973D01*
X40192425Y-96685768D01*
X39218618Y-96685768D01*
X39217475Y-96162795D01*
X40193544Y-96162795D01*
X40200299Y-96166000D01*
X41192885Y-96166000D01*
X41208124Y-96161525D01*
X41209329Y-96160135D01*
X41211000Y-96152452D01*
X41211000Y-96147885D01*
X41719000Y-96147885D01*
X41723475Y-96163124D01*
X41724865Y-96164329D01*
X41732548Y-96166000D01*
X42722924Y-96166000D01*
X42733839Y-96162795D01*
X44123544Y-96162795D01*
X44130299Y-96166000D01*
X45372885Y-96166000D01*
X45388124Y-96161525D01*
X45389329Y-96160135D01*
X45391000Y-96152452D01*
X45391000Y-96147885D01*
X45899000Y-96147885D01*
X45903475Y-96163124D01*
X45904865Y-96164329D01*
X45912548Y-96166000D01*
X47152924Y-96166000D01*
X47166455Y-96162027D01*
X47167575Y-96154232D01*
X47135862Y-96046479D01*
X47131269Y-96035111D01*
X47045393Y-95870846D01*
X47038679Y-95860585D01*
X46922532Y-95716127D01*
X46913954Y-95707368D01*
X46771961Y-95588222D01*
X46761841Y-95581292D01*
X46599415Y-95491998D01*
X46588142Y-95487166D01*
X46411462Y-95431120D01*
X46399468Y-95428570D01*
X46255239Y-95412393D01*
X46248215Y-95412000D01*
X45917115Y-95412000D01*
X45901876Y-95416475D01*
X45900671Y-95417865D01*
X45899000Y-95425548D01*
X45899000Y-96147885D01*
X45391000Y-96147885D01*
X45391000Y-95430115D01*
X45386525Y-95414876D01*
X45385135Y-95413671D01*
X45377452Y-95412000D01*
X45048343Y-95412000D01*
X45042195Y-95412301D01*
X44904397Y-95425812D01*
X44892362Y-95428195D01*
X44714924Y-95481767D01*
X44703584Y-95486441D01*
X44539923Y-95573460D01*
X44529706Y-95580249D01*
X44386067Y-95697397D01*
X44377363Y-95706041D01*
X44259216Y-95848856D01*
X44252356Y-95859027D01*
X44164196Y-96022076D01*
X44159444Y-96033381D01*
X44123750Y-96148692D01*
X44123544Y-96162795D01*
X42733839Y-96162795D01*
X42736455Y-96162027D01*
X42737575Y-96154232D01*
X42705862Y-96046479D01*
X42701269Y-96035111D01*
X42615393Y-95870846D01*
X42608679Y-95860585D01*
X42492532Y-95716127D01*
X42483954Y-95707368D01*
X42341961Y-95588222D01*
X42331841Y-95581292D01*
X42169415Y-95491998D01*
X42158142Y-95487166D01*
X41981462Y-95431120D01*
X41969468Y-95428570D01*
X41825239Y-95412393D01*
X41818215Y-95412000D01*
X41737115Y-95412000D01*
X41721876Y-95416475D01*
X41720671Y-95417865D01*
X41719000Y-95425548D01*
X41719000Y-96147885D01*
X41211000Y-96147885D01*
X41211000Y-95430115D01*
X41206525Y-95414876D01*
X41205135Y-95413671D01*
X41197452Y-95412000D01*
X41118343Y-95412000D01*
X41112195Y-95412301D01*
X40974397Y-95425812D01*
X40962362Y-95428195D01*
X40784924Y-95481767D01*
X40773584Y-95486441D01*
X40609923Y-95573460D01*
X40599706Y-95580249D01*
X40456067Y-95697397D01*
X40447363Y-95706041D01*
X40329216Y-95848856D01*
X40322356Y-95859027D01*
X40234196Y-96022076D01*
X40229444Y-96033381D01*
X40193750Y-96148692D01*
X40193544Y-96162795D01*
X39217475Y-96162795D01*
X39214013Y-94579669D01*
X39792001Y-94579669D01*
X39792371Y-94586490D01*
X39797895Y-94637352D01*
X39801521Y-94652604D01*
X39846676Y-94773054D01*
X39855214Y-94788649D01*
X39931715Y-94890724D01*
X39944276Y-94903285D01*
X40046351Y-94979786D01*
X40061946Y-94988324D01*
X40182394Y-95033478D01*
X40197649Y-95037105D01*
X40248514Y-95042631D01*
X40255328Y-95043000D01*
X40527885Y-95043000D01*
X40543124Y-95038525D01*
X40544329Y-95037135D01*
X40546000Y-95029452D01*
X40546000Y-95024884D01*
X41054000Y-95024884D01*
X41058475Y-95040123D01*
X41059865Y-95041328D01*
X41067548Y-95042999D01*
X41344669Y-95042999D01*
X41351490Y-95042629D01*
X41402352Y-95037105D01*
X41417604Y-95033479D01*
X41538054Y-94988324D01*
X41553649Y-94979786D01*
X41655724Y-94903285D01*
X41668285Y-94890724D01*
X41744786Y-94788649D01*
X41753324Y-94773054D01*
X41798478Y-94652606D01*
X41802105Y-94637351D01*
X41807631Y-94586486D01*
X41808000Y-94579672D01*
X41808000Y-94307115D01*
X41803525Y-94291876D01*
X41802135Y-94290671D01*
X41794452Y-94289000D01*
X41072115Y-94289000D01*
X41056876Y-94293475D01*
X41055671Y-94294865D01*
X41054000Y-94302548D01*
X41054000Y-95024884D01*
X40546000Y-95024884D01*
X40546000Y-94307115D01*
X40541525Y-94291876D01*
X40540135Y-94290671D01*
X40532452Y-94289000D01*
X39810116Y-94289000D01*
X39794877Y-94293475D01*
X39793672Y-94294865D01*
X39792001Y-94302548D01*
X39792001Y-94579669D01*
X39214013Y-94579669D01*
X39199740Y-88052123D01*
X39195994Y-86338775D01*
X44654937Y-86338775D01*
X44656688Y-86348359D01*
X44698357Y-86491784D01*
X44704604Y-86506220D01*
X44779876Y-86633499D01*
X44789516Y-86645926D01*
X44894074Y-86750484D01*
X44906501Y-86760124D01*
X45033780Y-86835396D01*
X45048216Y-86841643D01*
X45168605Y-86876619D01*
X45182705Y-86876579D01*
X45186000Y-86869309D01*
X45186000Y-86342115D01*
X45181525Y-86326876D01*
X45180135Y-86325671D01*
X45172452Y-86324000D01*
X44671576Y-86324000D01*
X44656781Y-86328344D01*
X44654937Y-86338775D01*
X39195994Y-86338775D01*
X39183761Y-80744394D01*
X39690314Y-80744394D01*
X39699143Y-80756014D01*
X39903970Y-80904830D01*
X39910650Y-80909070D01*
X40169234Y-81051228D01*
X40176369Y-81054585D01*
X40450746Y-81163219D01*
X40458237Y-81165653D01*
X40744059Y-81239039D01*
X40751830Y-81240521D01*
X41044570Y-81277503D01*
X41052460Y-81278000D01*
X41347540Y-81278000D01*
X41355430Y-81277503D01*
X41648170Y-81240521D01*
X41655941Y-81239039D01*
X41941763Y-81165653D01*
X41949254Y-81163219D01*
X42223631Y-81054585D01*
X42230766Y-81051228D01*
X42489350Y-80909070D01*
X42496030Y-80904830D01*
X42701230Y-80755744D01*
X42709653Y-80744821D01*
X42702749Y-80731960D01*
X41212810Y-79242020D01*
X41198869Y-79234408D01*
X41197034Y-79234539D01*
X41190420Y-79238790D01*
X39696927Y-80732284D01*
X39690314Y-80744394D01*
X39183761Y-80744394D01*
X39183237Y-80504516D01*
X39203090Y-80436351D01*
X39256644Y-80389741D01*
X39312115Y-80378273D01*
X39327342Y-80378621D01*
X39338778Y-80372011D01*
X41110905Y-78599885D01*
X41173217Y-78565859D01*
X41244033Y-78570924D01*
X41289095Y-78599885D01*
X43060119Y-80370908D01*
X43073381Y-80378150D01*
X43083485Y-80370962D01*
X43149437Y-80291241D01*
X43154091Y-80284835D01*
X43312195Y-80035703D01*
X43316007Y-80028770D01*
X43441639Y-79761787D01*
X43444554Y-79754424D01*
X43535733Y-79473805D01*
X43537704Y-79466128D01*
X43592992Y-79176297D01*
X43593985Y-79168436D01*
X43612512Y-78873958D01*
X43612512Y-78866042D01*
X43593985Y-78571564D01*
X43592992Y-78563703D01*
X43537704Y-78273872D01*
X43535733Y-78266195D01*
X43487904Y-78118992D01*
X43485877Y-78048024D01*
X43522539Y-77987227D01*
X43586251Y-77955901D01*
X43656785Y-77963994D01*
G37*
G04 #@! TD.AperFunction*
G04 #@! TA.AperFunction,Conductor*
G36*
X50690555Y-92858597D02*
G01*
X53988335Y-93750869D01*
X54048867Y-93787969D01*
X54079732Y-93851905D01*
X54075259Y-93911432D01*
X54046458Y-94000072D01*
X54045768Y-94006633D01*
X54045768Y-94006635D01*
X54027186Y-94183435D01*
X54026496Y-94190000D01*
X54027186Y-94196565D01*
X54039252Y-94311362D01*
X54046458Y-94379928D01*
X54105473Y-94561556D01*
X54108776Y-94567278D01*
X54108777Y-94567279D01*
X54115932Y-94579672D01*
X54200960Y-94726944D01*
X54205378Y-94731851D01*
X54205379Y-94731852D01*
X54307086Y-94844809D01*
X54328747Y-94868866D01*
X54483248Y-94981118D01*
X54489276Y-94983802D01*
X54489278Y-94983803D01*
X54651681Y-95056109D01*
X54657712Y-95058794D01*
X54751113Y-95078647D01*
X54838056Y-95097128D01*
X54838061Y-95097128D01*
X54844513Y-95098500D01*
X55035487Y-95098500D01*
X55037184Y-95098139D01*
X55105243Y-95110585D01*
X55124439Y-95122521D01*
X55614398Y-95491998D01*
X57610798Y-96997480D01*
X57653144Y-97054465D01*
X57657959Y-97125299D01*
X57628570Y-97182392D01*
X57600960Y-97213056D01*
X57581836Y-97246180D01*
X57512632Y-97366045D01*
X57505473Y-97378444D01*
X57446458Y-97560072D01*
X57445834Y-97566009D01*
X57412217Y-97628277D01*
X57350067Y-97662598D01*
X57279228Y-97657870D01*
X57251559Y-97643601D01*
X50586509Y-93084219D01*
X50541578Y-93029249D01*
X50533499Y-92958714D01*
X50564836Y-92895008D01*
X50625642Y-92858357D01*
X50690555Y-92858597D01*
G37*
G04 #@! TD.AperFunction*
G04 #@! TA.AperFunction,Conductor*
G36*
X52180720Y-82874830D02*
G01*
X56015141Y-85084421D01*
X58646567Y-86600785D01*
X58695602Y-86652126D01*
X58709095Y-86721829D01*
X58682763Y-86787761D01*
X58654530Y-86813662D01*
X58650373Y-86815689D01*
X58644570Y-86820628D01*
X58644179Y-86820858D01*
X58640984Y-86823021D01*
X58640978Y-86823025D01*
X58640624Y-86823299D01*
X58633887Y-86826848D01*
X58628016Y-86832168D01*
X58628014Y-86832170D01*
X58583367Y-86872632D01*
X58580417Y-86875223D01*
X58534517Y-86914286D01*
X58528480Y-86919424D01*
X58524090Y-86925647D01*
X58523771Y-86925965D01*
X58521217Y-86928851D01*
X58520934Y-86929215D01*
X58515287Y-86934332D01*
X58477740Y-86991244D01*
X58475525Y-86994489D01*
X58436214Y-87050213D01*
X58433508Y-87057337D01*
X58427849Y-87066863D01*
X57961445Y-87773803D01*
X57037969Y-89173538D01*
X56983760Y-89219382D01*
X56966459Y-89225569D01*
X56950952Y-89229868D01*
X56910166Y-89241174D01*
X56839177Y-89240096D01*
X56825258Y-89234860D01*
X56688319Y-89173891D01*
X56688318Y-89173891D01*
X56682288Y-89171206D01*
X56575550Y-89148518D01*
X56501944Y-89132872D01*
X56501939Y-89132872D01*
X56495487Y-89131500D01*
X56304513Y-89131500D01*
X56298061Y-89132872D01*
X56298056Y-89132872D01*
X56224450Y-89148518D01*
X56117712Y-89171206D01*
X56111682Y-89173891D01*
X56111681Y-89173891D01*
X55949278Y-89246197D01*
X55949276Y-89246198D01*
X55943248Y-89248882D01*
X55788747Y-89361134D01*
X55784326Y-89366044D01*
X55784325Y-89366045D01*
X55681315Y-89480450D01*
X55660960Y-89503056D01*
X55565473Y-89668444D01*
X55506458Y-89850072D01*
X55505768Y-89856633D01*
X55505768Y-89856635D01*
X55488553Y-90020425D01*
X55486496Y-90040000D01*
X55487186Y-90046565D01*
X55505606Y-90221818D01*
X55506458Y-90229928D01*
X55565473Y-90411556D01*
X55568776Y-90417278D01*
X55568777Y-90417279D01*
X55574795Y-90427703D01*
X55660960Y-90576944D01*
X55665378Y-90581851D01*
X55665379Y-90581852D01*
X55774855Y-90703437D01*
X55788747Y-90718866D01*
X55864572Y-90773956D01*
X55937078Y-90826635D01*
X55943248Y-90831118D01*
X55949276Y-90833802D01*
X55949278Y-90833803D01*
X56111681Y-90906109D01*
X56117712Y-90908794D01*
X56211113Y-90928647D01*
X56298056Y-90947128D01*
X56298061Y-90947128D01*
X56304513Y-90948500D01*
X56495487Y-90948500D01*
X56501939Y-90947128D01*
X56501944Y-90947128D01*
X56588887Y-90928647D01*
X56682288Y-90908794D01*
X56688319Y-90906109D01*
X56850722Y-90833803D01*
X56850724Y-90833802D01*
X56856752Y-90831118D01*
X56862923Y-90826635D01*
X56935428Y-90773956D01*
X57011253Y-90718866D01*
X57025145Y-90703437D01*
X57134621Y-90581852D01*
X57134622Y-90581851D01*
X57139040Y-90576944D01*
X57171300Y-90521068D01*
X57222682Y-90472075D01*
X57246758Y-90462648D01*
X57315128Y-90443694D01*
X57565752Y-90374214D01*
X57570229Y-90373061D01*
X57587264Y-90369007D01*
X57626795Y-90359601D01*
X57626798Y-90359600D01*
X57634509Y-90357765D01*
X57641522Y-90354070D01*
X57641524Y-90354069D01*
X57675442Y-90336197D01*
X57685564Y-90331425D01*
X57720935Y-90316632D01*
X57728252Y-90313572D01*
X57734575Y-90308791D01*
X57734580Y-90308788D01*
X57742765Y-90302599D01*
X57760019Y-90291632D01*
X57776113Y-90283152D01*
X57781981Y-90277833D01*
X57781985Y-90277831D01*
X57810401Y-90252077D01*
X57819021Y-90244936D01*
X57838870Y-90229928D01*
X57855922Y-90217034D01*
X57867247Y-90202799D01*
X57881233Y-90187885D01*
X57888840Y-90180991D01*
X57888842Y-90180989D01*
X57894713Y-90175668D01*
X57899078Y-90169052D01*
X57920192Y-90137050D01*
X57926762Y-90127994D01*
X57950634Y-90097988D01*
X57950637Y-90097983D01*
X57955572Y-90091780D01*
X57958811Y-90084542D01*
X57958813Y-90084538D01*
X57963003Y-90075174D01*
X57972841Y-90057248D01*
X58986826Y-88520328D01*
X59023915Y-88464111D01*
X59078125Y-88418265D01*
X59148515Y-88409006D01*
X59212737Y-88439272D01*
X59250401Y-88499454D01*
X59254398Y-88520328D01*
X59256458Y-88539928D01*
X59315473Y-88721556D01*
X59318776Y-88727278D01*
X59318777Y-88727279D01*
X59335923Y-88756977D01*
X59410960Y-88886944D01*
X59415378Y-88891851D01*
X59415379Y-88891852D01*
X59481346Y-88965116D01*
X59538747Y-89028866D01*
X59637843Y-89100864D01*
X59670691Y-89124729D01*
X59693248Y-89141118D01*
X59699276Y-89143802D01*
X59699278Y-89143803D01*
X59854595Y-89212954D01*
X59867712Y-89218794D01*
X59953185Y-89236962D01*
X60048056Y-89257128D01*
X60048061Y-89257128D01*
X60054513Y-89258500D01*
X60234989Y-89258500D01*
X60303110Y-89278502D01*
X60349603Y-89332158D01*
X60360299Y-89371329D01*
X60360770Y-89375805D01*
X60366458Y-89429928D01*
X60425473Y-89611556D01*
X60428776Y-89617278D01*
X60428777Y-89617279D01*
X60453161Y-89659513D01*
X60520960Y-89776944D01*
X60525378Y-89781851D01*
X60525379Y-89781852D01*
X60621405Y-89888500D01*
X60648747Y-89918866D01*
X60747843Y-89990864D01*
X60789804Y-90021350D01*
X60803248Y-90031118D01*
X60809276Y-90033802D01*
X60809278Y-90033803D01*
X60953441Y-90097988D01*
X60977712Y-90108794D01*
X61049782Y-90124113D01*
X61158056Y-90147128D01*
X61158061Y-90147128D01*
X61164513Y-90148500D01*
X61355487Y-90148500D01*
X61361939Y-90147128D01*
X61361944Y-90147128D01*
X61470218Y-90124113D01*
X61521112Y-90113295D01*
X61591902Y-90118697D01*
X61604187Y-90124111D01*
X63893584Y-91282437D01*
X63920059Y-91295832D01*
X63971812Y-91344433D01*
X63989164Y-91406603D01*
X64000633Y-92278302D01*
X63981529Y-92346680D01*
X63928490Y-92393875D01*
X63858355Y-92404903D01*
X63842616Y-92401352D01*
X63842288Y-92401206D01*
X63773422Y-92386568D01*
X63661944Y-92362872D01*
X63661939Y-92362872D01*
X63655487Y-92361500D01*
X63464513Y-92361500D01*
X63458061Y-92362872D01*
X63458056Y-92362872D01*
X63377478Y-92380000D01*
X63277712Y-92401206D01*
X63271682Y-92403891D01*
X63271681Y-92403891D01*
X63109278Y-92476197D01*
X63109276Y-92476198D01*
X63103248Y-92478882D01*
X63097907Y-92482762D01*
X63097906Y-92482763D01*
X63074406Y-92499837D01*
X62948747Y-92591134D01*
X62944326Y-92596044D01*
X62944325Y-92596045D01*
X62829390Y-92723694D01*
X62820960Y-92733056D01*
X62817661Y-92738770D01*
X62816160Y-92740836D01*
X62759937Y-92784189D01*
X62689201Y-92790263D01*
X62628483Y-92759099D01*
X62626218Y-92756995D01*
X62590360Y-92723694D01*
X62584179Y-92717542D01*
X62577607Y-92710531D01*
X62577604Y-92710528D01*
X62574903Y-92707647D01*
X62560736Y-92695907D01*
X62555388Y-92691214D01*
X62547372Y-92683770D01*
X62512462Y-92651348D01*
X62505496Y-92647568D01*
X62499568Y-92643311D01*
X62494889Y-92640147D01*
X62488693Y-92636208D01*
X62482592Y-92631152D01*
X62475425Y-92627772D01*
X62475423Y-92627771D01*
X62429615Y-92606169D01*
X62423286Y-92602963D01*
X62371777Y-92575015D01*
X62364093Y-92573087D01*
X62357288Y-92570436D01*
X62351945Y-92568527D01*
X62344989Y-92566261D01*
X62337822Y-92562881D01*
X62280284Y-92551856D01*
X62273369Y-92550328D01*
X62216529Y-92536068D01*
X62208600Y-92536112D01*
X62201322Y-92535233D01*
X62195713Y-92534716D01*
X62188407Y-92534250D01*
X62180624Y-92532759D01*
X62172713Y-92533250D01*
X62172712Y-92533250D01*
X62155703Y-92534306D01*
X62122143Y-92536389D01*
X62115054Y-92536629D01*
X62026843Y-92537116D01*
X61897549Y-92537830D01*
X61829319Y-92518204D01*
X61782530Y-92464806D01*
X61771543Y-92398664D01*
X61772814Y-92386568D01*
X61772814Y-92386565D01*
X61773504Y-92380000D01*
X61767860Y-92326300D01*
X61754232Y-92196635D01*
X61754232Y-92196633D01*
X61753542Y-92190072D01*
X61694527Y-92008444D01*
X61599040Y-91843056D01*
X61471253Y-91701134D01*
X61316752Y-91588882D01*
X61310724Y-91586198D01*
X61310722Y-91586197D01*
X61148319Y-91513891D01*
X61148318Y-91513891D01*
X61142288Y-91511206D01*
X61028385Y-91486995D01*
X60961944Y-91472872D01*
X60961939Y-91472872D01*
X60955487Y-91471500D01*
X60812576Y-91471500D01*
X60744455Y-91451498D01*
X60697470Y-91396751D01*
X60696568Y-91394725D01*
X60694527Y-91388444D01*
X60599040Y-91223056D01*
X60578216Y-91199928D01*
X60475675Y-91086045D01*
X60475674Y-91086044D01*
X60471253Y-91081134D01*
X60316752Y-90968882D01*
X60310724Y-90966198D01*
X60310722Y-90966197D01*
X60148319Y-90893891D01*
X60148318Y-90893891D01*
X60142288Y-90891206D01*
X60015537Y-90864264D01*
X59961944Y-90852872D01*
X59961939Y-90852872D01*
X59955487Y-90851500D01*
X59764513Y-90851500D01*
X59758061Y-90852872D01*
X59758056Y-90852872D01*
X59704463Y-90864264D01*
X59577712Y-90891206D01*
X59571682Y-90893891D01*
X59571681Y-90893891D01*
X59409278Y-90966197D01*
X59409276Y-90966198D01*
X59403248Y-90968882D01*
X59248747Y-91081134D01*
X59244326Y-91086044D01*
X59244325Y-91086045D01*
X59141785Y-91199928D01*
X59120960Y-91223056D01*
X59025473Y-91388444D01*
X58966458Y-91570072D01*
X58965768Y-91576633D01*
X58965768Y-91576635D01*
X58959106Y-91640020D01*
X58946496Y-91760000D01*
X58966458Y-91949928D01*
X59025473Y-92131556D01*
X59028777Y-92137280D01*
X59028779Y-92137283D01*
X59046568Y-92168095D01*
X59062609Y-92234953D01*
X59062351Y-92236382D01*
X59062929Y-92244283D01*
X59062517Y-92252093D01*
X59062490Y-92259923D01*
X59061469Y-92267785D01*
X59062435Y-92275651D01*
X59062435Y-92275654D01*
X59068944Y-92328650D01*
X59069549Y-92334817D01*
X59074023Y-92396015D01*
X59076549Y-92403531D01*
X59078113Y-92411297D01*
X59077818Y-92411356D01*
X59080611Y-92423663D01*
X59124552Y-92781464D01*
X59113003Y-92851514D01*
X59065415Y-92904201D01*
X58996896Y-92922795D01*
X58963487Y-92917568D01*
X55261216Y-91813589D01*
X55201651Y-91774955D01*
X55172429Y-91710251D01*
X55182828Y-91640020D01*
X55203585Y-91608533D01*
X55254621Y-91551852D01*
X55254622Y-91551851D01*
X55259040Y-91546944D01*
X55354527Y-91381556D01*
X55413542Y-91199928D01*
X55425512Y-91086045D01*
X55432814Y-91016565D01*
X55433504Y-91010000D01*
X55421301Y-90893891D01*
X55414232Y-90826635D01*
X55414232Y-90826633D01*
X55413542Y-90820072D01*
X55354527Y-90638444D01*
X55331206Y-90598050D01*
X55262341Y-90478774D01*
X55259040Y-90473056D01*
X55251967Y-90465200D01*
X55135675Y-90336045D01*
X55135674Y-90336044D01*
X55131253Y-90331134D01*
X55012612Y-90244936D01*
X54982094Y-90222763D01*
X54982093Y-90222762D01*
X54976752Y-90218882D01*
X54970724Y-90216198D01*
X54970722Y-90216197D01*
X54808319Y-90143891D01*
X54808318Y-90143891D01*
X54802288Y-90141206D01*
X54696392Y-90118697D01*
X54621944Y-90102872D01*
X54621939Y-90102872D01*
X54615487Y-90101500D01*
X54559594Y-90101500D01*
X54491473Y-90081498D01*
X54470499Y-90064595D01*
X52780405Y-88374500D01*
X52746379Y-88312188D01*
X52743500Y-88285405D01*
X52743500Y-88014500D01*
X52763502Y-87946379D01*
X52817158Y-87899886D01*
X52869500Y-87888500D01*
X52945487Y-87888500D01*
X52951939Y-87887128D01*
X52951944Y-87887128D01*
X53042242Y-87867934D01*
X53132288Y-87848794D01*
X53138319Y-87846109D01*
X53300722Y-87773803D01*
X53300724Y-87773802D01*
X53306752Y-87771118D01*
X53316748Y-87763856D01*
X53366118Y-87727986D01*
X53461253Y-87658866D01*
X53589040Y-87516944D01*
X53684527Y-87351556D01*
X53743542Y-87169928D01*
X53750078Y-87107747D01*
X53762814Y-86986565D01*
X53763504Y-86980000D01*
X53751266Y-86863558D01*
X53744232Y-86796635D01*
X53744232Y-86796633D01*
X53743542Y-86790072D01*
X53684527Y-86608444D01*
X53680105Y-86600784D01*
X53621684Y-86499597D01*
X53589040Y-86443056D01*
X53503840Y-86348431D01*
X53465675Y-86306045D01*
X53465674Y-86306044D01*
X53461253Y-86301134D01*
X53306752Y-86188882D01*
X53300724Y-86186198D01*
X53300722Y-86186197D01*
X53138319Y-86113891D01*
X53138318Y-86113891D01*
X53132288Y-86111206D01*
X53038887Y-86091353D01*
X52951944Y-86072872D01*
X52951939Y-86072872D01*
X52945487Y-86071500D01*
X52754513Y-86071500D01*
X52748061Y-86072872D01*
X52748056Y-86072872D01*
X52623471Y-86099354D01*
X52567712Y-86111206D01*
X52561679Y-86113892D01*
X52561676Y-86113893D01*
X52539162Y-86123917D01*
X52468795Y-86133351D01*
X52400291Y-86099354D01*
X51083036Y-84824591D01*
X51047994Y-84762845D01*
X51051897Y-84691956D01*
X51093507Y-84634430D01*
X51160992Y-84608418D01*
X51329372Y-84595462D01*
X51341452Y-84593331D01*
X51519967Y-84543488D01*
X51531417Y-84539048D01*
X51696856Y-84455479D01*
X51707215Y-84448904D01*
X51853275Y-84334790D01*
X51862153Y-84326336D01*
X51867566Y-84320066D01*
X51872985Y-84308140D01*
X51862438Y-84296560D01*
X50921779Y-83753470D01*
X50872786Y-83702088D01*
X50859350Y-83632374D01*
X50875660Y-83581351D01*
X51003660Y-83359649D01*
X51055043Y-83310656D01*
X51124756Y-83297220D01*
X51175779Y-83313530D01*
X52116980Y-83856933D01*
X52130685Y-83860258D01*
X52137429Y-83851681D01*
X52145389Y-83827753D01*
X52148109Y-83815781D01*
X52171669Y-83629284D01*
X52172161Y-83622257D01*
X52172458Y-83601023D01*
X52172163Y-83593994D01*
X52153818Y-83406897D01*
X52151435Y-83394862D01*
X52097863Y-83217424D01*
X52093189Y-83206084D01*
X52006558Y-83043154D01*
X51992239Y-82973617D01*
X52017787Y-82907376D01*
X52075092Y-82865463D01*
X52145959Y-82861186D01*
X52180720Y-82874830D01*
G37*
G04 #@! TD.AperFunction*
G04 #@! TA.AperFunction,Conductor*
G36*
X45387564Y-90392877D02*
G01*
X45455646Y-90413011D01*
X45477896Y-90431287D01*
X45930107Y-90898915D01*
X45963083Y-90961789D01*
X45965476Y-90982779D01*
X45971786Y-91196051D01*
X45953807Y-91264733D01*
X45901550Y-91312793D01*
X45831606Y-91324970D01*
X45809706Y-91320484D01*
X45801119Y-91317913D01*
X45785145Y-91311922D01*
X45766481Y-91303440D01*
X45766482Y-91303440D01*
X45759262Y-91300159D01*
X45751460Y-91298777D01*
X45751449Y-91298774D01*
X45723755Y-91293870D01*
X45709588Y-91290507D01*
X45682635Y-91282437D01*
X45682628Y-91282436D01*
X45675037Y-91280163D01*
X45667115Y-91279849D01*
X45667114Y-91279849D01*
X45649720Y-91279160D01*
X45646633Y-91279038D01*
X45629649Y-91277207D01*
X45601656Y-91272250D01*
X45593757Y-91272852D01*
X45593755Y-91272852D01*
X45565694Y-91274991D01*
X45551132Y-91275256D01*
X44970760Y-91252271D01*
X44903484Y-91229589D01*
X44871104Y-91196556D01*
X44566607Y-90742579D01*
X44540243Y-90703272D01*
X44538936Y-90701282D01*
X44499686Y-90640201D01*
X44493878Y-90634808D01*
X44493874Y-90634804D01*
X44470562Y-90613161D01*
X44461276Y-90603576D01*
X44458167Y-90600005D01*
X44428518Y-90535498D01*
X44438450Y-90465200D01*
X44484812Y-90411431D01*
X44553435Y-90391262D01*
X45387564Y-90392877D01*
G37*
G04 #@! TD.AperFunction*
M02*
