G04 #@! TF.GenerationSoftware,KiCad,Pcbnew,(6.0.8)*
G04 #@! TF.CreationDate,2022-10-29T16:07:11-04:00*
G04 #@! TF.ProjectId,miura_board,6d697572-615f-4626-9f61-72642e6b6963,rev?*
G04 #@! TF.SameCoordinates,Original*
G04 #@! TF.FileFunction,Copper,L2,Bot*
G04 #@! TF.FilePolarity,Positive*
%FSLAX46Y46*%
G04 Gerber Fmt 4.6, Leading zero omitted, Abs format (unit mm)*
G04 Created by KiCad (PCBNEW (6.0.8)) date 2022-10-29 16:07:11*
%MOMM*%
%LPD*%
G01*
G04 APERTURE LIST*
G04 #@! TA.AperFunction,ComponentPad*
%ADD10R,2.200000X2.200000*%
G04 #@! TD*
G04 #@! TA.AperFunction,ComponentPad*
%ADD11C,2.200000*%
G04 #@! TD*
G04 #@! TA.AperFunction,ComponentPad*
%ADD12C,3.800000*%
G04 #@! TD*
G04 #@! TA.AperFunction,ComponentPad*
%ADD13R,1.700000X1.700000*%
G04 #@! TD*
G04 #@! TA.AperFunction,ComponentPad*
%ADD14O,1.700000X1.700000*%
G04 #@! TD*
G04 #@! TA.AperFunction,ViaPad*
%ADD15C,0.800000*%
G04 #@! TD*
G04 #@! TA.AperFunction,Conductor*
%ADD16C,0.300000*%
G04 #@! TD*
G04 #@! TA.AperFunction,Conductor*
%ADD17C,0.250000*%
G04 #@! TD*
G04 APERTURE END LIST*
D10*
X107830000Y-81200000D03*
D11*
X110370000Y-81200000D03*
D10*
X64700000Y-36330000D03*
D11*
X64700000Y-38870000D03*
D12*
X63300000Y-82700000D03*
D13*
X63500000Y-78000000D03*
D14*
X63500000Y-75460000D03*
X63500000Y-72920000D03*
X63500000Y-70380000D03*
D12*
X118700000Y-27300000D03*
D10*
X117100000Y-61070000D03*
D11*
X117100000Y-58530000D03*
D12*
X63300000Y-27300000D03*
D10*
X117200000Y-52570000D03*
D11*
X117200000Y-50030000D03*
X101100000Y-36870000D03*
D10*
X101100000Y-34330000D03*
D12*
X118700000Y-82700000D03*
D10*
X64700000Y-44700000D03*
D11*
X64700000Y-47240000D03*
D10*
X84800000Y-28700000D03*
D11*
X82260000Y-28700000D03*
D15*
X118800000Y-38700000D03*
X90300000Y-76700000D03*
X96600000Y-48500000D03*
X112300000Y-45000000D03*
X106500000Y-45000000D03*
X66400000Y-53800000D03*
X118800000Y-36400000D03*
X104200000Y-75600000D03*
X98100000Y-82500000D03*
X63900000Y-60200000D03*
X101000000Y-40200000D03*
X105100000Y-48500000D03*
X100200000Y-82500000D03*
X73000000Y-52800000D03*
X104300000Y-69800000D03*
X89700000Y-56000000D03*
X72700000Y-76700000D03*
X96000000Y-82600000D03*
X90900000Y-45300000D03*
X108500000Y-45000000D03*
X111400000Y-30400000D03*
X67100000Y-68000000D03*
X64600000Y-65900000D03*
X81500000Y-36800000D03*
X84300000Y-72900000D03*
X110500000Y-45000000D03*
X113300000Y-32600000D03*
X113600000Y-70200000D03*
X102200000Y-82500000D03*
X118800000Y-31000000D03*
X101000000Y-52500000D03*
X80600000Y-44400000D03*
X80800000Y-45800000D03*
X72100000Y-38000000D03*
X72100000Y-39300000D03*
X75350500Y-37400000D03*
X85400000Y-47700000D03*
X85400000Y-46400000D03*
X108600000Y-68000000D03*
X95500000Y-67900000D03*
X96800000Y-66400000D03*
X110400000Y-65900000D03*
X109600000Y-71200000D03*
X95500000Y-69100000D03*
X95500000Y-70500000D03*
X108900000Y-72500000D03*
X69500000Y-74200000D03*
X69200000Y-70200000D03*
X95140000Y-74160000D03*
X105000000Y-74000000D03*
X75400000Y-36100000D03*
X89000000Y-50000000D03*
X89000000Y-61400000D03*
X95200000Y-61400000D03*
X92300000Y-48449500D03*
X87700000Y-61200000D03*
X87600000Y-49700000D03*
X86300000Y-49700000D03*
X86300000Y-61200000D03*
D16*
X80600000Y-44400000D02*
X80300000Y-44700000D01*
X80300000Y-44700000D02*
X64700000Y-44700000D01*
X68800000Y-45800000D02*
X67300000Y-47300000D01*
X67300000Y-47300000D02*
X67240000Y-47240000D01*
X80800000Y-45800000D02*
X68800000Y-45800000D01*
X67240000Y-47240000D02*
X64700000Y-47240000D01*
X72100000Y-38000000D02*
X70430000Y-36330000D01*
X70430000Y-36330000D02*
X64700000Y-36330000D01*
X72100000Y-39300000D02*
X71670000Y-38870000D01*
X71670000Y-38870000D02*
X64700000Y-38870000D01*
X75350500Y-37400000D02*
X78400000Y-37400000D01*
X84800000Y-31000000D02*
X84800000Y-28700000D01*
X78400000Y-37400000D02*
X84800000Y-31000000D01*
X117200000Y-52400000D02*
X117200000Y-52570000D01*
X85400000Y-47700000D02*
X112500000Y-47700000D01*
X112500000Y-47700000D02*
X117200000Y-52400000D01*
X113570000Y-46400000D02*
X117200000Y-50030000D01*
X85400000Y-46400000D02*
X113570000Y-46400000D01*
X108600000Y-68000000D02*
X95600000Y-68000000D01*
X95600000Y-68000000D02*
X95500000Y-67900000D01*
X97550000Y-65650000D02*
X96800000Y-66400000D01*
X110150000Y-65650000D02*
X97550000Y-65650000D01*
X110400000Y-65900000D02*
X110150000Y-65650000D01*
X97600000Y-71200000D02*
X95500000Y-69100000D01*
X109600000Y-71200000D02*
X97600000Y-71200000D01*
X97500000Y-72500000D02*
X95500000Y-70500000D01*
X108900000Y-72500000D02*
X97500000Y-72500000D01*
D17*
X69200000Y-70200000D02*
X69200000Y-73900000D01*
X69200000Y-73900000D02*
X69500000Y-74200000D01*
D16*
X105000000Y-74000000D02*
X95300000Y-74000000D01*
X95300000Y-74000000D02*
X95140000Y-74160000D01*
X75400000Y-33400000D02*
X80100000Y-28700000D01*
X75400000Y-36100000D02*
X75400000Y-33400000D01*
X80100000Y-28700000D02*
X82260000Y-28700000D01*
X89000000Y-50000000D02*
X88950000Y-50050000D01*
X88950000Y-50050000D02*
X88950000Y-61350000D01*
X92300000Y-48449500D02*
X95200000Y-51349500D01*
X95200000Y-51349500D02*
X95200000Y-61400000D01*
X87600000Y-61100000D02*
X87700000Y-61200000D01*
X87600000Y-49700000D02*
X87600000Y-61100000D01*
X86300000Y-49700000D02*
X86300000Y-61200000D01*
G04 #@! TA.AperFunction,Conductor*
G36*
X81265645Y-25528502D02*
G01*
X81312138Y-25582158D01*
X81322242Y-25652432D01*
X81308360Y-25694428D01*
X81279486Y-25747830D01*
X81218102Y-25946129D01*
X81217458Y-25952254D01*
X81217458Y-25952255D01*
X81215926Y-25966836D01*
X81196404Y-26152575D01*
X81215218Y-26359303D01*
X81216956Y-26365209D01*
X81216957Y-26365213D01*
X81260473Y-26513068D01*
X81273827Y-26558440D01*
X81369999Y-26742400D01*
X81500071Y-26904177D01*
X81504789Y-26908135D01*
X81504791Y-26908138D01*
X81635881Y-27018136D01*
X81675207Y-27077245D01*
X81676333Y-27148233D01*
X81638902Y-27208561D01*
X81603108Y-27231065D01*
X81589411Y-27236739D01*
X81532072Y-27260489D01*
X81532068Y-27260491D01*
X81527498Y-27262384D01*
X81311624Y-27394672D01*
X81119102Y-27559102D01*
X80954672Y-27751624D01*
X80822384Y-27967498D01*
X80820489Y-27972073D01*
X80820169Y-27972701D01*
X80771422Y-28024317D01*
X80707901Y-28041500D01*
X80182059Y-28041500D01*
X80170203Y-28040941D01*
X80162463Y-28039211D01*
X80154537Y-28039460D01*
X80154536Y-28039460D01*
X80091611Y-28041438D01*
X80087653Y-28041500D01*
X80058568Y-28041500D01*
X80054637Y-28041997D01*
X80054630Y-28041997D01*
X80054179Y-28042054D01*
X80042343Y-28042986D01*
X79996169Y-28044438D01*
X79975579Y-28050420D01*
X79956218Y-28054430D01*
X79949230Y-28055312D01*
X79942796Y-28056125D01*
X79942795Y-28056125D01*
X79934936Y-28057118D01*
X79927571Y-28060034D01*
X79927567Y-28060035D01*
X79891979Y-28074126D01*
X79880769Y-28077965D01*
X79836400Y-28090855D01*
X79817935Y-28101775D01*
X79800195Y-28110466D01*
X79780244Y-28118365D01*
X79742874Y-28145516D01*
X79732952Y-28152033D01*
X79700023Y-28171507D01*
X79700019Y-28171510D01*
X79693193Y-28175547D01*
X79678029Y-28190711D01*
X79662996Y-28203551D01*
X79645643Y-28216159D01*
X79616198Y-28251752D01*
X79608208Y-28260532D01*
X74992395Y-32876345D01*
X74983615Y-32884335D01*
X74983613Y-32884337D01*
X74976920Y-32888584D01*
X74971494Y-32894362D01*
X74971493Y-32894363D01*
X74928396Y-32940257D01*
X74925641Y-32943099D01*
X74905073Y-32963667D01*
X74902356Y-32967170D01*
X74894648Y-32976195D01*
X74863028Y-33009867D01*
X74859207Y-33016818D01*
X74859206Y-33016819D01*
X74852697Y-33028658D01*
X74841843Y-33045182D01*
X74834018Y-33055271D01*
X74828696Y-33062132D01*
X74825549Y-33069404D01*
X74825548Y-33069406D01*
X74810346Y-33104535D01*
X74805124Y-33115195D01*
X74782876Y-33155663D01*
X74777541Y-33176441D01*
X74771142Y-33195131D01*
X74762620Y-33214824D01*
X74761380Y-33222655D01*
X74755394Y-33260448D01*
X74752987Y-33272071D01*
X74741500Y-33316812D01*
X74741500Y-33338259D01*
X74739949Y-33357969D01*
X74736594Y-33379152D01*
X74737340Y-33387043D01*
X74740941Y-33425138D01*
X74741500Y-33436996D01*
X74741500Y-35425241D01*
X74721498Y-35493362D01*
X74709136Y-35509551D01*
X74660960Y-35563056D01*
X74640876Y-35597842D01*
X74581238Y-35701139D01*
X74565473Y-35728444D01*
X74506458Y-35910072D01*
X74505768Y-35916633D01*
X74505768Y-35916635D01*
X74504180Y-35931745D01*
X74486496Y-36100000D01*
X74506458Y-36289928D01*
X74565473Y-36471556D01*
X74660960Y-36636944D01*
X74665379Y-36641852D01*
X74669261Y-36647195D01*
X74667151Y-36648728D01*
X74692816Y-36702249D01*
X74684030Y-36772700D01*
X74662095Y-36806820D01*
X74611460Y-36863056D01*
X74575829Y-36924770D01*
X74527487Y-37008502D01*
X74515973Y-37028444D01*
X74456958Y-37210072D01*
X74456268Y-37216633D01*
X74456268Y-37216635D01*
X74449380Y-37282170D01*
X74436996Y-37400000D01*
X74437686Y-37406565D01*
X74451744Y-37540316D01*
X74456958Y-37589928D01*
X74515973Y-37771556D01*
X74611460Y-37936944D01*
X74615878Y-37941851D01*
X74615879Y-37941852D01*
X74726053Y-38064213D01*
X74739247Y-38078866D01*
X74893748Y-38191118D01*
X74899776Y-38193802D01*
X74899778Y-38193803D01*
X75015194Y-38245189D01*
X75068212Y-38268794D01*
X75156687Y-38287600D01*
X75248556Y-38307128D01*
X75248561Y-38307128D01*
X75255013Y-38308500D01*
X75445987Y-38308500D01*
X75452439Y-38307128D01*
X75452444Y-38307128D01*
X75544313Y-38287600D01*
X75632788Y-38268794D01*
X75685806Y-38245189D01*
X75801222Y-38193803D01*
X75801224Y-38193802D01*
X75807252Y-38191118D01*
X75897123Y-38125823D01*
X75904626Y-38120371D01*
X75956663Y-38082564D01*
X76023531Y-38058706D01*
X76030724Y-38058500D01*
X78317944Y-38058500D01*
X78329800Y-38059059D01*
X78329803Y-38059059D01*
X78337537Y-38060788D01*
X78408369Y-38058562D01*
X78412327Y-38058500D01*
X78441432Y-38058500D01*
X78445832Y-38057944D01*
X78457664Y-38057012D01*
X78503831Y-38055562D01*
X78524421Y-38049580D01*
X78543782Y-38045570D01*
X78550770Y-38044688D01*
X78557204Y-38043875D01*
X78557205Y-38043875D01*
X78565064Y-38042882D01*
X78572429Y-38039966D01*
X78572433Y-38039965D01*
X78608021Y-38025874D01*
X78619231Y-38022035D01*
X78663600Y-38009145D01*
X78682065Y-37998225D01*
X78699805Y-37989534D01*
X78719756Y-37981635D01*
X78757129Y-37954482D01*
X78767048Y-37947967D01*
X78799977Y-37928493D01*
X78799981Y-37928490D01*
X78806807Y-37924453D01*
X78821971Y-37909289D01*
X78837005Y-37896448D01*
X78838511Y-37895354D01*
X78854357Y-37883841D01*
X78883803Y-37848247D01*
X78891792Y-37839468D01*
X85207605Y-31523655D01*
X85216385Y-31515665D01*
X85216387Y-31515663D01*
X85223080Y-31511416D01*
X85271605Y-31459742D01*
X85274359Y-31456901D01*
X85294927Y-31436333D01*
X85297647Y-31432826D01*
X85305353Y-31423804D01*
X85331544Y-31395913D01*
X85336972Y-31390133D01*
X85340794Y-31383181D01*
X85347303Y-31371342D01*
X85358157Y-31354818D01*
X85366445Y-31344132D01*
X85371304Y-31337868D01*
X85378680Y-31320823D01*
X85389654Y-31295465D01*
X85394876Y-31284805D01*
X85413305Y-31251284D01*
X85413306Y-31251282D01*
X85417124Y-31244337D01*
X85422459Y-31223559D01*
X85428858Y-31204869D01*
X85437380Y-31185176D01*
X85444606Y-31139552D01*
X85447013Y-31127929D01*
X85456528Y-31090868D01*
X85458500Y-31083188D01*
X85458500Y-31061741D01*
X85460051Y-31042031D01*
X85462166Y-31028677D01*
X85463406Y-31020848D01*
X85459059Y-30974859D01*
X85458500Y-30963004D01*
X85458500Y-30434500D01*
X85478502Y-30366379D01*
X85532158Y-30319886D01*
X85584500Y-30308500D01*
X85948134Y-30308500D01*
X86010316Y-30301745D01*
X86146705Y-30250615D01*
X86263261Y-30163261D01*
X86350615Y-30046705D01*
X86401745Y-29910316D01*
X86408500Y-29848134D01*
X86408500Y-27551866D01*
X86401745Y-27489684D01*
X86350615Y-27353295D01*
X86263261Y-27236739D01*
X86146705Y-27149385D01*
X86010316Y-27098255D01*
X85948134Y-27091500D01*
X85670978Y-27091500D01*
X85602857Y-27071498D01*
X85556364Y-27017842D01*
X85546260Y-26947568D01*
X85573894Y-26885184D01*
X85614314Y-26836326D01*
X85681783Y-26754770D01*
X85685876Y-26747201D01*
X85777584Y-26577590D01*
X85777586Y-26577585D01*
X85780514Y-26572170D01*
X85841898Y-26373871D01*
X85843429Y-26359303D01*
X85862952Y-26173554D01*
X85862952Y-26173552D01*
X85863596Y-26167425D01*
X85851382Y-26033218D01*
X85845341Y-25966836D01*
X85845340Y-25966833D01*
X85844782Y-25960697D01*
X85842298Y-25952255D01*
X85787912Y-25767469D01*
X85786173Y-25761560D01*
X85778995Y-25747830D01*
X85750266Y-25692876D01*
X85736431Y-25623240D01*
X85762441Y-25557179D01*
X85820037Y-25515667D01*
X85861927Y-25508500D01*
X118650633Y-25508500D01*
X118670018Y-25510000D01*
X118684851Y-25512310D01*
X118684855Y-25512310D01*
X118693724Y-25513691D01*
X118710012Y-25511561D01*
X118734589Y-25510767D01*
X118770364Y-25513112D01*
X118925596Y-25523287D01*
X118941936Y-25525438D01*
X119046164Y-25546170D01*
X119155579Y-25567934D01*
X119171489Y-25572197D01*
X119377756Y-25642215D01*
X119392982Y-25648522D01*
X119488392Y-25695572D01*
X119588347Y-25744864D01*
X119602613Y-25753101D01*
X119624117Y-25767469D01*
X119783726Y-25874117D01*
X119796801Y-25884150D01*
X119960572Y-26027773D01*
X119972227Y-26039428D01*
X120115850Y-26203199D01*
X120125883Y-26216274D01*
X120231187Y-26373871D01*
X120246897Y-26397383D01*
X120255138Y-26411657D01*
X120351478Y-26607018D01*
X120357784Y-26622242D01*
X120427803Y-26828511D01*
X120432066Y-26844421D01*
X120446823Y-26918610D01*
X120474562Y-27058064D01*
X120476713Y-27074404D01*
X120481628Y-27149385D01*
X120487825Y-27243919D01*
X120488763Y-27258236D01*
X120487733Y-27281350D01*
X120487690Y-27284854D01*
X120486309Y-27293724D01*
X120487473Y-27302626D01*
X120487473Y-27302628D01*
X120490436Y-27325283D01*
X120491500Y-27341621D01*
X120491500Y-49022123D01*
X120471498Y-49090244D01*
X120417842Y-49136737D01*
X120347568Y-49146841D01*
X120304799Y-49132538D01*
X120164402Y-49055354D01*
X120159005Y-49052387D01*
X119961139Y-48989621D01*
X119955022Y-48988935D01*
X119955018Y-48988934D01*
X119878402Y-48980341D01*
X119799587Y-48971500D01*
X119687763Y-48971500D01*
X119684707Y-48971800D01*
X119684700Y-48971800D01*
X119539534Y-48986034D01*
X119539531Y-48986035D01*
X119533408Y-48986635D01*
X119425099Y-49019335D01*
X119340593Y-49044848D01*
X119340590Y-49044849D01*
X119334685Y-49046632D01*
X119329240Y-49049527D01*
X119329238Y-49049528D01*
X119156847Y-49141191D01*
X119156845Y-49141192D01*
X119151401Y-49144087D01*
X119121132Y-49168774D01*
X118995311Y-49271390D01*
X118995308Y-49271393D01*
X118990536Y-49275285D01*
X118986608Y-49280033D01*
X118986607Y-49280034D01*
X118882637Y-49405711D01*
X118823803Y-49445449D01*
X118752825Y-49447070D01*
X118692238Y-49410061D01*
X118669144Y-49373613D01*
X118639511Y-49302072D01*
X118639509Y-49302068D01*
X118637616Y-49297498D01*
X118505328Y-49081624D01*
X118340898Y-48889102D01*
X118148376Y-48724672D01*
X117932502Y-48592384D01*
X117927932Y-48590491D01*
X117927928Y-48590489D01*
X117703164Y-48497389D01*
X117703162Y-48497388D01*
X117698591Y-48495495D01*
X117613968Y-48475179D01*
X117457216Y-48437546D01*
X117457210Y-48437545D01*
X117452403Y-48436391D01*
X117200000Y-48416526D01*
X116947597Y-48436391D01*
X116942790Y-48437545D01*
X116942784Y-48437546D01*
X116706215Y-48494341D01*
X116706213Y-48494342D01*
X116701409Y-48495495D01*
X116696845Y-48497385D01*
X116696157Y-48497609D01*
X116625190Y-48499635D01*
X116568129Y-48466870D01*
X114093655Y-45992395D01*
X114085665Y-45983615D01*
X114085663Y-45983613D01*
X114081416Y-45976920D01*
X114029742Y-45928395D01*
X114026901Y-45925641D01*
X114006333Y-45905073D01*
X114002826Y-45902353D01*
X113993804Y-45894647D01*
X113965913Y-45868456D01*
X113960133Y-45863028D01*
X113953181Y-45859206D01*
X113941342Y-45852697D01*
X113924818Y-45841843D01*
X113914132Y-45833555D01*
X113907868Y-45828696D01*
X113900596Y-45825549D01*
X113900594Y-45825548D01*
X113865465Y-45810346D01*
X113854805Y-45805124D01*
X113821284Y-45786695D01*
X113821282Y-45786694D01*
X113814337Y-45782876D01*
X113793559Y-45777541D01*
X113774869Y-45771142D01*
X113755176Y-45762620D01*
X113709552Y-45755394D01*
X113697929Y-45752987D01*
X113669928Y-45745798D01*
X113653188Y-45741500D01*
X113631741Y-45741500D01*
X113612031Y-45739949D01*
X113598677Y-45737834D01*
X113590848Y-45736594D01*
X113544859Y-45740941D01*
X113533004Y-45741500D01*
X86080224Y-45741500D01*
X86012103Y-45721498D01*
X86006163Y-45717436D01*
X86005909Y-45717251D01*
X85947267Y-45674645D01*
X85862094Y-45612763D01*
X85862093Y-45612762D01*
X85856752Y-45608882D01*
X85850724Y-45606198D01*
X85850722Y-45606197D01*
X85688319Y-45533891D01*
X85688318Y-45533891D01*
X85682288Y-45531206D01*
X85566889Y-45506677D01*
X85501944Y-45492872D01*
X85501939Y-45492872D01*
X85495487Y-45491500D01*
X85304513Y-45491500D01*
X85298061Y-45492872D01*
X85298056Y-45492872D01*
X85233111Y-45506677D01*
X85117712Y-45531206D01*
X85111682Y-45533891D01*
X85111681Y-45533891D01*
X84949278Y-45606197D01*
X84949276Y-45606198D01*
X84943248Y-45608882D01*
X84788747Y-45721134D01*
X84784326Y-45726044D01*
X84784325Y-45726045D01*
X84674589Y-45847920D01*
X84660960Y-45863056D01*
X84565473Y-46028444D01*
X84506458Y-46210072D01*
X84505768Y-46216633D01*
X84505768Y-46216635D01*
X84491322Y-46354087D01*
X84486496Y-46400000D01*
X84487186Y-46406565D01*
X84505270Y-46578621D01*
X84506458Y-46589928D01*
X84565473Y-46771556D01*
X84660960Y-46936944D01*
X84665378Y-46941851D01*
X84665379Y-46941852D01*
X84686843Y-46965690D01*
X84717561Y-47029697D01*
X84708796Y-47100151D01*
X84686843Y-47134310D01*
X84674589Y-47147920D01*
X84660960Y-47163056D01*
X84565473Y-47328444D01*
X84506458Y-47510072D01*
X84486496Y-47700000D01*
X84487186Y-47706565D01*
X84502920Y-47856262D01*
X84506458Y-47889928D01*
X84565473Y-48071556D01*
X84660960Y-48236944D01*
X84665378Y-48241851D01*
X84665379Y-48241852D01*
X84703299Y-48283966D01*
X84788747Y-48378866D01*
X84943248Y-48491118D01*
X84949276Y-48493802D01*
X84949278Y-48493803D01*
X85111681Y-48566109D01*
X85117712Y-48568794D01*
X85211113Y-48588647D01*
X85298056Y-48607128D01*
X85298061Y-48607128D01*
X85304513Y-48608500D01*
X85495487Y-48608500D01*
X85501939Y-48607128D01*
X85501944Y-48607128D01*
X85588887Y-48588647D01*
X85682288Y-48568794D01*
X85688319Y-48566109D01*
X85850722Y-48493803D01*
X85850724Y-48493802D01*
X85856752Y-48491118D01*
X85890127Y-48466870D01*
X86004693Y-48383632D01*
X86006163Y-48382564D01*
X86073031Y-48358706D01*
X86080224Y-48358500D01*
X91263480Y-48358500D01*
X91331601Y-48378502D01*
X91378094Y-48432158D01*
X91388790Y-48471329D01*
X91401785Y-48594970D01*
X91406458Y-48639428D01*
X91465473Y-48821056D01*
X91468776Y-48826778D01*
X91468777Y-48826779D01*
X91502686Y-48885510D01*
X91560960Y-48986444D01*
X91688747Y-49128366D01*
X91843248Y-49240618D01*
X91849276Y-49243302D01*
X91849278Y-49243303D01*
X92011681Y-49315609D01*
X92017712Y-49318294D01*
X92111112Y-49338147D01*
X92198056Y-49356628D01*
X92198061Y-49356628D01*
X92204513Y-49358000D01*
X92225050Y-49358000D01*
X92293171Y-49378002D01*
X92314145Y-49394905D01*
X94504595Y-51585354D01*
X94538620Y-51647666D01*
X94541500Y-51674449D01*
X94541500Y-60725241D01*
X94521498Y-60793362D01*
X94509136Y-60809551D01*
X94460960Y-60863056D01*
X94365473Y-61028444D01*
X94306458Y-61210072D01*
X94286496Y-61400000D01*
X94287186Y-61406565D01*
X94305129Y-61577279D01*
X94306458Y-61589928D01*
X94365473Y-61771556D01*
X94368776Y-61777278D01*
X94368777Y-61777279D01*
X94390080Y-61814177D01*
X94460960Y-61936944D01*
X94465378Y-61941851D01*
X94465379Y-61941852D01*
X94579678Y-62068794D01*
X94588747Y-62078866D01*
X94743248Y-62191118D01*
X94749276Y-62193802D01*
X94749278Y-62193803D01*
X94796252Y-62214717D01*
X94917712Y-62268794D01*
X95006728Y-62287715D01*
X95098056Y-62307128D01*
X95098061Y-62307128D01*
X95104513Y-62308500D01*
X95295487Y-62308500D01*
X95301939Y-62307128D01*
X95301944Y-62307128D01*
X95393272Y-62287715D01*
X95482288Y-62268794D01*
X95603748Y-62214717D01*
X95650722Y-62193803D01*
X95650724Y-62193802D01*
X95656752Y-62191118D01*
X95811253Y-62078866D01*
X95820322Y-62068794D01*
X95934621Y-61941852D01*
X95934622Y-61941851D01*
X95939040Y-61936944D01*
X96009920Y-61814177D01*
X96031223Y-61777279D01*
X96031224Y-61777278D01*
X96034527Y-61771556D01*
X96093542Y-61589928D01*
X96094872Y-61577279D01*
X96112814Y-61406565D01*
X96113504Y-61400000D01*
X96093542Y-61210072D01*
X96034527Y-61028444D01*
X95939040Y-60863056D01*
X95890864Y-60809551D01*
X95860146Y-60745544D01*
X95858500Y-60725241D01*
X95858500Y-51431556D01*
X95859059Y-51419700D01*
X95859059Y-51419697D01*
X95860788Y-51411963D01*
X95858562Y-51341131D01*
X95858500Y-51337173D01*
X95858500Y-51308068D01*
X95857944Y-51303668D01*
X95857012Y-51291830D01*
X95855811Y-51253594D01*
X95855562Y-51245669D01*
X95849580Y-51225079D01*
X95845570Y-51205716D01*
X95843875Y-51192296D01*
X95843875Y-51192295D01*
X95842882Y-51184436D01*
X95839966Y-51177071D01*
X95839965Y-51177067D01*
X95825874Y-51141479D01*
X95822035Y-51130269D01*
X95809145Y-51085900D01*
X95798229Y-51067443D01*
X95789534Y-51049693D01*
X95781635Y-51029744D01*
X95774109Y-51019385D01*
X95754477Y-50992364D01*
X95747960Y-50982443D01*
X95745555Y-50978376D01*
X95724452Y-50942693D01*
X95709291Y-50927532D01*
X95696449Y-50912497D01*
X95683841Y-50895143D01*
X95648241Y-50865692D01*
X95639462Y-50857703D01*
X93355355Y-48573595D01*
X93321329Y-48511283D01*
X93326394Y-48440467D01*
X93368941Y-48383632D01*
X93435461Y-48358821D01*
X93444450Y-48358500D01*
X112175050Y-48358500D01*
X112243171Y-48378502D01*
X112264145Y-48395405D01*
X115554595Y-51685855D01*
X115588621Y-51748167D01*
X115591500Y-51774950D01*
X115591500Y-53718134D01*
X115598255Y-53780316D01*
X115649385Y-53916705D01*
X115736739Y-54033261D01*
X115853295Y-54120615D01*
X115989684Y-54171745D01*
X116051866Y-54178500D01*
X118348134Y-54178500D01*
X118410316Y-54171745D01*
X118546705Y-54120615D01*
X118663261Y-54033261D01*
X118750615Y-53916705D01*
X118801745Y-53780316D01*
X118808500Y-53718134D01*
X118808500Y-53440420D01*
X118828502Y-53372299D01*
X118882158Y-53325806D01*
X118952432Y-53315702D01*
X119015491Y-53343898D01*
X119139089Y-53447609D01*
X119144481Y-53450573D01*
X119144485Y-53450576D01*
X119300375Y-53536277D01*
X119320995Y-53547613D01*
X119518861Y-53610379D01*
X119524978Y-53611065D01*
X119524982Y-53611066D01*
X119601598Y-53619659D01*
X119680413Y-53628500D01*
X119792237Y-53628500D01*
X119795293Y-53628200D01*
X119795300Y-53628200D01*
X119940466Y-53613966D01*
X119940469Y-53613965D01*
X119946592Y-53613365D01*
X120078546Y-53573526D01*
X120139407Y-53555152D01*
X120139410Y-53555151D01*
X120145315Y-53553368D01*
X120156139Y-53547613D01*
X120226217Y-53510351D01*
X120306347Y-53467745D01*
X120375883Y-53453425D01*
X120442124Y-53478972D01*
X120484037Y-53536277D01*
X120491500Y-53578996D01*
X120491500Y-57592452D01*
X120471498Y-57660573D01*
X120417842Y-57707066D01*
X120347568Y-57717170D01*
X120284509Y-57688974D01*
X120245629Y-57656350D01*
X120240911Y-57652391D01*
X120235519Y-57649427D01*
X120235515Y-57649424D01*
X120064402Y-57555354D01*
X120059005Y-57552387D01*
X119861139Y-57489621D01*
X119855022Y-57488935D01*
X119855018Y-57488934D01*
X119778402Y-57480341D01*
X119699587Y-57471500D01*
X119587763Y-57471500D01*
X119584707Y-57471800D01*
X119584700Y-57471800D01*
X119439534Y-57486034D01*
X119439531Y-57486035D01*
X119433408Y-57486635D01*
X119301454Y-57526474D01*
X119240593Y-57544848D01*
X119240590Y-57544849D01*
X119234685Y-57546632D01*
X119229240Y-57549527D01*
X119229238Y-57549528D01*
X119056847Y-57641191D01*
X119056845Y-57641192D01*
X119051401Y-57644087D01*
X119036365Y-57656350D01*
X118895311Y-57771390D01*
X118895308Y-57771393D01*
X118890536Y-57775285D01*
X118886608Y-57780033D01*
X118886607Y-57780034D01*
X118782637Y-57905711D01*
X118723803Y-57945449D01*
X118652825Y-57947070D01*
X118592238Y-57910061D01*
X118569144Y-57873613D01*
X118539511Y-57802072D01*
X118539509Y-57802068D01*
X118537616Y-57797498D01*
X118405328Y-57581624D01*
X118240898Y-57389102D01*
X118048376Y-57224672D01*
X117832502Y-57092384D01*
X117827932Y-57090491D01*
X117827928Y-57090489D01*
X117603164Y-56997389D01*
X117603162Y-56997388D01*
X117598591Y-56995495D01*
X117513968Y-56975179D01*
X117357216Y-56937546D01*
X117357210Y-56937545D01*
X117352403Y-56936391D01*
X117100000Y-56916526D01*
X116847597Y-56936391D01*
X116842790Y-56937545D01*
X116842784Y-56937546D01*
X116686032Y-56975179D01*
X116601409Y-56995495D01*
X116596838Y-56997388D01*
X116596836Y-56997389D01*
X116372072Y-57090489D01*
X116372068Y-57090491D01*
X116367498Y-57092384D01*
X116151624Y-57224672D01*
X115959102Y-57389102D01*
X115794672Y-57581624D01*
X115662384Y-57797498D01*
X115660491Y-57802068D01*
X115660489Y-57802072D01*
X115600429Y-57947070D01*
X115565495Y-58031409D01*
X115506391Y-58277597D01*
X115486526Y-58530000D01*
X115506391Y-58782403D01*
X115565495Y-59028591D01*
X115567388Y-59033162D01*
X115567389Y-59033164D01*
X115660488Y-59257924D01*
X115662384Y-59262502D01*
X115664970Y-59266722D01*
X115738913Y-59387386D01*
X115757451Y-59455920D01*
X115735995Y-59523596D01*
X115707047Y-59554046D01*
X115636739Y-59606739D01*
X115549385Y-59723295D01*
X115498255Y-59859684D01*
X115491500Y-59921866D01*
X115491500Y-62218134D01*
X115498255Y-62280316D01*
X115549385Y-62416705D01*
X115636739Y-62533261D01*
X115753295Y-62620615D01*
X115889684Y-62671745D01*
X115951866Y-62678500D01*
X118248134Y-62678500D01*
X118310316Y-62671745D01*
X118446705Y-62620615D01*
X118563261Y-62533261D01*
X118650615Y-62416705D01*
X118701745Y-62280316D01*
X118708500Y-62218134D01*
X118708500Y-61940420D01*
X118728502Y-61872299D01*
X118782158Y-61825806D01*
X118852432Y-61815702D01*
X118915491Y-61843898D01*
X118951312Y-61873955D01*
X119039089Y-61947609D01*
X119044481Y-61950573D01*
X119044485Y-61950576D01*
X119118231Y-61991118D01*
X119220995Y-62047613D01*
X119418861Y-62110379D01*
X119424978Y-62111065D01*
X119424982Y-62111066D01*
X119501598Y-62119659D01*
X119580413Y-62128500D01*
X119692237Y-62128500D01*
X119695293Y-62128200D01*
X119695300Y-62128200D01*
X119840466Y-62113966D01*
X119840469Y-62113965D01*
X119846592Y-62113365D01*
X119978546Y-62073526D01*
X120039407Y-62055152D01*
X120039410Y-62055151D01*
X120045315Y-62053368D01*
X120052635Y-62049476D01*
X120223153Y-61958809D01*
X120223155Y-61958808D01*
X120228599Y-61955913D01*
X120233374Y-61952019D01*
X120233384Y-61952012D01*
X120285865Y-61909209D01*
X120351296Y-61881655D01*
X120421238Y-61893851D01*
X120473483Y-61941923D01*
X120491500Y-62006852D01*
X120491500Y-82650633D01*
X120490000Y-82670018D01*
X120487690Y-82684851D01*
X120487690Y-82684855D01*
X120486309Y-82693724D01*
X120488136Y-82707694D01*
X120488439Y-82710010D01*
X120489233Y-82734590D01*
X120476713Y-82925596D01*
X120474562Y-82941936D01*
X120432067Y-83155576D01*
X120427803Y-83171489D01*
X120372734Y-83333717D01*
X120357785Y-83377756D01*
X120351478Y-83392982D01*
X120281549Y-83534787D01*
X120255138Y-83588343D01*
X120246897Y-83602617D01*
X120125883Y-83783726D01*
X120115850Y-83796801D01*
X119972227Y-83960572D01*
X119960572Y-83972227D01*
X119796801Y-84115850D01*
X119783726Y-84125883D01*
X119744385Y-84152170D01*
X119602613Y-84246899D01*
X119588347Y-84255136D01*
X119488392Y-84304428D01*
X119392982Y-84351478D01*
X119377758Y-84357784D01*
X119171489Y-84427803D01*
X119155579Y-84432066D01*
X119101511Y-84442821D01*
X118941936Y-84474562D01*
X118925596Y-84476713D01*
X118811727Y-84484177D01*
X118741763Y-84488763D01*
X118718650Y-84487733D01*
X118715146Y-84487690D01*
X118706276Y-84486309D01*
X118697374Y-84487473D01*
X118697372Y-84487473D01*
X118683915Y-84489233D01*
X118674714Y-84490436D01*
X118658379Y-84491500D01*
X111378406Y-84491500D01*
X111310285Y-84471498D01*
X111263792Y-84417842D01*
X111253688Y-84347568D01*
X111267569Y-84305575D01*
X111350514Y-84152170D01*
X111411898Y-83953871D01*
X111413429Y-83939303D01*
X111432952Y-83753554D01*
X111432952Y-83753552D01*
X111433596Y-83747425D01*
X111414782Y-83540697D01*
X111412298Y-83532255D01*
X111357912Y-83347469D01*
X111356173Y-83341560D01*
X111260001Y-83157600D01*
X111129929Y-82995823D01*
X111125211Y-82991865D01*
X111125209Y-82991862D01*
X110994119Y-82881864D01*
X110954793Y-82822755D01*
X110953667Y-82751767D01*
X110991098Y-82691439D01*
X111026892Y-82668935D01*
X111057919Y-82656083D01*
X111097928Y-82639511D01*
X111097932Y-82639509D01*
X111102502Y-82637616D01*
X111318376Y-82505328D01*
X111510898Y-82340898D01*
X111675328Y-82148376D01*
X111807616Y-81932502D01*
X111904505Y-81698591D01*
X111963609Y-81452403D01*
X111983474Y-81200000D01*
X111963609Y-80947597D01*
X111904505Y-80701409D01*
X111807616Y-80467498D01*
X111675328Y-80251624D01*
X111510898Y-80059102D01*
X111318376Y-79894672D01*
X111102502Y-79762384D01*
X111097932Y-79760491D01*
X111097928Y-79760489D01*
X110873164Y-79667389D01*
X110873162Y-79667388D01*
X110868591Y-79665495D01*
X110783968Y-79645179D01*
X110627216Y-79607546D01*
X110627210Y-79607545D01*
X110622403Y-79606391D01*
X110370000Y-79586526D01*
X110117597Y-79606391D01*
X110112790Y-79607545D01*
X110112784Y-79607546D01*
X109956032Y-79645179D01*
X109871409Y-79665495D01*
X109866838Y-79667388D01*
X109866836Y-79667389D01*
X109642072Y-79760489D01*
X109642068Y-79760491D01*
X109637498Y-79762384D01*
X109633278Y-79764970D01*
X109512614Y-79838913D01*
X109444080Y-79857451D01*
X109376404Y-79835995D01*
X109345953Y-79807046D01*
X109293261Y-79736739D01*
X109176705Y-79649385D01*
X109040316Y-79598255D01*
X108978134Y-79591500D01*
X106681866Y-79591500D01*
X106619684Y-79598255D01*
X106483295Y-79649385D01*
X106366739Y-79736739D01*
X106279385Y-79853295D01*
X106228255Y-79989684D01*
X106221500Y-80051866D01*
X106221500Y-82348134D01*
X106228255Y-82410316D01*
X106279385Y-82546705D01*
X106366739Y-82663261D01*
X106483295Y-82750615D01*
X106619684Y-82801745D01*
X106681866Y-82808500D01*
X106959022Y-82808500D01*
X107027143Y-82828502D01*
X107073636Y-82882158D01*
X107083740Y-82952432D01*
X107056106Y-83014815D01*
X106948217Y-83145230D01*
X106945288Y-83150647D01*
X106945286Y-83150650D01*
X106852416Y-83322410D01*
X106852414Y-83322415D01*
X106849486Y-83327830D01*
X106788102Y-83526129D01*
X106787458Y-83532254D01*
X106787458Y-83532255D01*
X106785926Y-83546836D01*
X106766404Y-83732575D01*
X106785218Y-83939303D01*
X106786956Y-83945209D01*
X106786957Y-83945213D01*
X106793305Y-83966782D01*
X106843827Y-84138440D01*
X106846681Y-84143899D01*
X106932013Y-84307125D01*
X106945847Y-84376761D01*
X106919837Y-84442821D01*
X106862241Y-84484333D01*
X106820351Y-84491500D01*
X63349367Y-84491500D01*
X63329982Y-84490000D01*
X63315149Y-84487690D01*
X63315145Y-84487690D01*
X63306276Y-84486309D01*
X63289988Y-84488439D01*
X63265411Y-84489233D01*
X63220801Y-84486309D01*
X63074404Y-84476713D01*
X63058064Y-84474562D01*
X62898489Y-84442821D01*
X62844421Y-84432066D01*
X62828511Y-84427803D01*
X62622242Y-84357784D01*
X62607018Y-84351478D01*
X62511608Y-84304428D01*
X62411653Y-84255136D01*
X62397387Y-84246899D01*
X62255615Y-84152170D01*
X62216274Y-84125883D01*
X62203199Y-84115850D01*
X62039428Y-83972227D01*
X62027773Y-83960572D01*
X61884150Y-83796801D01*
X61874117Y-83783726D01*
X61753103Y-83602617D01*
X61744862Y-83588343D01*
X61718452Y-83534787D01*
X61648522Y-83392982D01*
X61642215Y-83377756D01*
X61627266Y-83333717D01*
X61572197Y-83171489D01*
X61567933Y-83155576D01*
X61525438Y-82941936D01*
X61523287Y-82925596D01*
X61511476Y-82745407D01*
X61512650Y-82722232D01*
X61512334Y-82722204D01*
X61512770Y-82717344D01*
X61513576Y-82712552D01*
X61513729Y-82700000D01*
X61509773Y-82672376D01*
X61508500Y-82654514D01*
X61508500Y-75426695D01*
X62137251Y-75426695D01*
X62137548Y-75431848D01*
X62137548Y-75431851D01*
X62143011Y-75526590D01*
X62150110Y-75649715D01*
X62151247Y-75654761D01*
X62151248Y-75654767D01*
X62171119Y-75742939D01*
X62199222Y-75867639D01*
X62283266Y-76074616D01*
X62399987Y-76265088D01*
X62546250Y-76433938D01*
X62550230Y-76437242D01*
X62554981Y-76441187D01*
X62594616Y-76500090D01*
X62596113Y-76571071D01*
X62558997Y-76631593D01*
X62518724Y-76656112D01*
X62403295Y-76699385D01*
X62286739Y-76786739D01*
X62199385Y-76903295D01*
X62148255Y-77039684D01*
X62141500Y-77101866D01*
X62141500Y-78898134D01*
X62148255Y-78960316D01*
X62199385Y-79096705D01*
X62286739Y-79213261D01*
X62403295Y-79300615D01*
X62539684Y-79351745D01*
X62601866Y-79358500D01*
X64398134Y-79358500D01*
X64460316Y-79351745D01*
X64596705Y-79300615D01*
X64713261Y-79213261D01*
X64800615Y-79096705D01*
X64851745Y-78960316D01*
X64858500Y-78898134D01*
X64858500Y-77101866D01*
X64851745Y-77039684D01*
X64800615Y-76903295D01*
X64713261Y-76786739D01*
X64596705Y-76699385D01*
X64584132Y-76694672D01*
X64478203Y-76654960D01*
X64421439Y-76612318D01*
X64396739Y-76545756D01*
X64411947Y-76476408D01*
X64433493Y-76447727D01*
X64534435Y-76347137D01*
X64538096Y-76343489D01*
X64597594Y-76260689D01*
X64665435Y-76166277D01*
X64668453Y-76162077D01*
X64767430Y-75961811D01*
X64832370Y-75748069D01*
X64861529Y-75526590D01*
X64863156Y-75460000D01*
X64844852Y-75237361D01*
X64790431Y-75020702D01*
X64701354Y-74815840D01*
X64612506Y-74678502D01*
X64582822Y-74632617D01*
X64582820Y-74632614D01*
X64580014Y-74628277D01*
X64429670Y-74463051D01*
X64425619Y-74459852D01*
X64425615Y-74459848D01*
X64258414Y-74327800D01*
X64258410Y-74327798D01*
X64254359Y-74324598D01*
X64058789Y-74216638D01*
X64053920Y-74214914D01*
X64053916Y-74214912D01*
X63853087Y-74143795D01*
X63853083Y-74143794D01*
X63848212Y-74142069D01*
X63843119Y-74141162D01*
X63843116Y-74141161D01*
X63633373Y-74103800D01*
X63633367Y-74103799D01*
X63628284Y-74102894D01*
X63554452Y-74101992D01*
X63410081Y-74100228D01*
X63410079Y-74100228D01*
X63404911Y-74100165D01*
X63184091Y-74133955D01*
X62971756Y-74203357D01*
X62773607Y-74306507D01*
X62769474Y-74309610D01*
X62769471Y-74309612D01*
X62599100Y-74437530D01*
X62594965Y-74440635D01*
X62440629Y-74602138D01*
X62314743Y-74786680D01*
X62220688Y-74989305D01*
X62160989Y-75204570D01*
X62137251Y-75426695D01*
X61508500Y-75426695D01*
X61508500Y-70346695D01*
X62137251Y-70346695D01*
X62137548Y-70351848D01*
X62137548Y-70351851D01*
X62143011Y-70446590D01*
X62150110Y-70569715D01*
X62151247Y-70574761D01*
X62151248Y-70574767D01*
X62171119Y-70662939D01*
X62199222Y-70787639D01*
X62283266Y-70994616D01*
X62296759Y-71016635D01*
X62393165Y-71173955D01*
X62399987Y-71185088D01*
X62546250Y-71353938D01*
X62718126Y-71496632D01*
X62911000Y-71609338D01*
X63119692Y-71689030D01*
X63124760Y-71690061D01*
X63124763Y-71690062D01*
X63232017Y-71711883D01*
X63338597Y-71733567D01*
X63343772Y-71733757D01*
X63343774Y-71733757D01*
X63556673Y-71741564D01*
X63556677Y-71741564D01*
X63561837Y-71741753D01*
X63566957Y-71741097D01*
X63566959Y-71741097D01*
X63778288Y-71714025D01*
X63778289Y-71714025D01*
X63783416Y-71713368D01*
X63788366Y-71711883D01*
X63992429Y-71650661D01*
X63992434Y-71650659D01*
X63997384Y-71649174D01*
X64197994Y-71550896D01*
X64379860Y-71421173D01*
X64392578Y-71408500D01*
X64534435Y-71267137D01*
X64538096Y-71263489D01*
X64597594Y-71180689D01*
X64665435Y-71086277D01*
X64668453Y-71082077D01*
X64688334Y-71041852D01*
X64765136Y-70886453D01*
X64765137Y-70886451D01*
X64767430Y-70881811D01*
X64799900Y-70774940D01*
X64830865Y-70673023D01*
X64830865Y-70673021D01*
X64832370Y-70668069D01*
X64861529Y-70446590D01*
X64861611Y-70443240D01*
X64863074Y-70383365D01*
X64863074Y-70383361D01*
X64863156Y-70380000D01*
X64848358Y-70200000D01*
X68286496Y-70200000D01*
X68287186Y-70206565D01*
X68305415Y-70380000D01*
X68306458Y-70389928D01*
X68365473Y-70571556D01*
X68460960Y-70736944D01*
X68534137Y-70818215D01*
X68564853Y-70882221D01*
X68566500Y-70902524D01*
X68566500Y-73821233D01*
X68565973Y-73832416D01*
X68564298Y-73839909D01*
X68564547Y-73847835D01*
X68564547Y-73847836D01*
X68566438Y-73907986D01*
X68566500Y-73911945D01*
X68566500Y-73939856D01*
X68566997Y-73943790D01*
X68566997Y-73943791D01*
X68567005Y-73943856D01*
X68567938Y-73955693D01*
X68569327Y-73999889D01*
X68574978Y-74019339D01*
X68578987Y-74038700D01*
X68581526Y-74058797D01*
X68584445Y-74066170D01*
X68584446Y-74066173D01*
X68585788Y-74069564D01*
X68586328Y-74073504D01*
X68586416Y-74073848D01*
X68586376Y-74073858D01*
X68593946Y-74129116D01*
X68586496Y-74200000D01*
X68587186Y-74206565D01*
X68605129Y-74377279D01*
X68606458Y-74389928D01*
X68665473Y-74571556D01*
X68668776Y-74577278D01*
X68668777Y-74577279D01*
X68696015Y-74624457D01*
X68760960Y-74736944D01*
X68765378Y-74741851D01*
X68765379Y-74741852D01*
X68879678Y-74868794D01*
X68888747Y-74878866D01*
X68927646Y-74907128D01*
X69034291Y-74984610D01*
X69043248Y-74991118D01*
X69049276Y-74993802D01*
X69049278Y-74993803D01*
X69211681Y-75066109D01*
X69217712Y-75068794D01*
X69311113Y-75088647D01*
X69398056Y-75107128D01*
X69398061Y-75107128D01*
X69404513Y-75108500D01*
X69595487Y-75108500D01*
X69601939Y-75107128D01*
X69601944Y-75107128D01*
X69688887Y-75088647D01*
X69782288Y-75068794D01*
X69788319Y-75066109D01*
X69950722Y-74993803D01*
X69950724Y-74993802D01*
X69956752Y-74991118D01*
X69965710Y-74984610D01*
X70072354Y-74907128D01*
X70111253Y-74878866D01*
X70120322Y-74868794D01*
X70234621Y-74741852D01*
X70234622Y-74741851D01*
X70239040Y-74736944D01*
X70303985Y-74624457D01*
X70331223Y-74577279D01*
X70331224Y-74577278D01*
X70334527Y-74571556D01*
X70393542Y-74389928D01*
X70394872Y-74377279D01*
X70412814Y-74206565D01*
X70413504Y-74200000D01*
X70409300Y-74160000D01*
X94226496Y-74160000D01*
X94227186Y-74166565D01*
X94242221Y-74309612D01*
X94246458Y-74349928D01*
X94305473Y-74531556D01*
X94400960Y-74696944D01*
X94405378Y-74701851D01*
X94405379Y-74701852D01*
X94485986Y-74791375D01*
X94528747Y-74838866D01*
X94683248Y-74951118D01*
X94689276Y-74953802D01*
X94689278Y-74953803D01*
X94851681Y-75026109D01*
X94857712Y-75028794D01*
X94951112Y-75048647D01*
X95038056Y-75067128D01*
X95038061Y-75067128D01*
X95044513Y-75068500D01*
X95235487Y-75068500D01*
X95241939Y-75067128D01*
X95241944Y-75067128D01*
X95328888Y-75048647D01*
X95422288Y-75028794D01*
X95428319Y-75026109D01*
X95590722Y-74953803D01*
X95590724Y-74953802D01*
X95596752Y-74951118D01*
X95751253Y-74838866D01*
X95876118Y-74700190D01*
X95936563Y-74662950D01*
X95969753Y-74658500D01*
X104319776Y-74658500D01*
X104387897Y-74678502D01*
X104393834Y-74682562D01*
X104405759Y-74691226D01*
X104537140Y-74786680D01*
X104543248Y-74791118D01*
X104549276Y-74793802D01*
X104549278Y-74793803D01*
X104711681Y-74866109D01*
X104717712Y-74868794D01*
X104783365Y-74882749D01*
X104898056Y-74907128D01*
X104898061Y-74907128D01*
X104904513Y-74908500D01*
X105095487Y-74908500D01*
X105101939Y-74907128D01*
X105101944Y-74907128D01*
X105216635Y-74882749D01*
X105282288Y-74868794D01*
X105288319Y-74866109D01*
X105450722Y-74793803D01*
X105450724Y-74793802D01*
X105456752Y-74791118D01*
X105462861Y-74786680D01*
X105512157Y-74750864D01*
X105611253Y-74678866D01*
X105652896Y-74632617D01*
X105734621Y-74541852D01*
X105734622Y-74541851D01*
X105739040Y-74536944D01*
X105834527Y-74371556D01*
X105893542Y-74189928D01*
X105903169Y-74098337D01*
X105912814Y-74006565D01*
X105913504Y-74000000D01*
X105911048Y-73976635D01*
X105894232Y-73816635D01*
X105894232Y-73816633D01*
X105893542Y-73810072D01*
X105834527Y-73628444D01*
X105739040Y-73463056D01*
X105689918Y-73408500D01*
X105654181Y-73368810D01*
X105623463Y-73304803D01*
X105632228Y-73234349D01*
X105677691Y-73179818D01*
X105747817Y-73158500D01*
X108219776Y-73158500D01*
X108287897Y-73178502D01*
X108293834Y-73182562D01*
X108330060Y-73208882D01*
X108417184Y-73272181D01*
X108443248Y-73291118D01*
X108449276Y-73293802D01*
X108449278Y-73293803D01*
X108611681Y-73366109D01*
X108617712Y-73368794D01*
X108704719Y-73387288D01*
X108798056Y-73407128D01*
X108798061Y-73407128D01*
X108804513Y-73408500D01*
X108995487Y-73408500D01*
X109001939Y-73407128D01*
X109001944Y-73407128D01*
X109095281Y-73387288D01*
X109182288Y-73368794D01*
X109188319Y-73366109D01*
X109350722Y-73293803D01*
X109350724Y-73293802D01*
X109356752Y-73291118D01*
X109382817Y-73272181D01*
X109412157Y-73250864D01*
X109511253Y-73178866D01*
X109532354Y-73155431D01*
X109634621Y-73041852D01*
X109634622Y-73041851D01*
X109639040Y-73036944D01*
X109734527Y-72871556D01*
X109793542Y-72689928D01*
X109813504Y-72500000D01*
X109793542Y-72310072D01*
X109769187Y-72235115D01*
X109767159Y-72164147D01*
X109803822Y-72103350D01*
X109862820Y-72072933D01*
X109875826Y-72070168D01*
X109875830Y-72070167D01*
X109882288Y-72068794D01*
X109888319Y-72066109D01*
X110050722Y-71993803D01*
X110050724Y-71993802D01*
X110056752Y-71991118D01*
X110211253Y-71878866D01*
X110339040Y-71736944D01*
X110397314Y-71636010D01*
X110431223Y-71577279D01*
X110431224Y-71577278D01*
X110434527Y-71571556D01*
X110493542Y-71389928D01*
X110496046Y-71366109D01*
X110512814Y-71206565D01*
X110513504Y-71200000D01*
X110510767Y-71173955D01*
X110494232Y-71016635D01*
X110494232Y-71016633D01*
X110493542Y-71010072D01*
X110434527Y-70828444D01*
X110339040Y-70663056D01*
X110254996Y-70569715D01*
X110215675Y-70526045D01*
X110215674Y-70526044D01*
X110211253Y-70521134D01*
X110056752Y-70408882D01*
X110050724Y-70406198D01*
X110050722Y-70406197D01*
X109888319Y-70333891D01*
X109888318Y-70333891D01*
X109882288Y-70331206D01*
X109782861Y-70310072D01*
X109701944Y-70292872D01*
X109701939Y-70292872D01*
X109695487Y-70291500D01*
X109504513Y-70291500D01*
X109498061Y-70292872D01*
X109498056Y-70292872D01*
X109417139Y-70310072D01*
X109317712Y-70331206D01*
X109311682Y-70333891D01*
X109311681Y-70333891D01*
X109149278Y-70406197D01*
X109149276Y-70406198D01*
X109143248Y-70408882D01*
X109137907Y-70412762D01*
X109137906Y-70412763D01*
X109086781Y-70449908D01*
X108994092Y-70517251D01*
X108993837Y-70517436D01*
X108926969Y-70541294D01*
X108919776Y-70541500D01*
X97924949Y-70541500D01*
X97856828Y-70521498D01*
X97835854Y-70504595D01*
X96442970Y-69111710D01*
X96408944Y-69049398D01*
X96406755Y-69035786D01*
X96405394Y-69022831D01*
X96393542Y-68910072D01*
X96379258Y-68866109D01*
X96365392Y-68823436D01*
X96363364Y-68752469D01*
X96400027Y-68691671D01*
X96463739Y-68660345D01*
X96485225Y-68658500D01*
X107919776Y-68658500D01*
X107987897Y-68678502D01*
X107993834Y-68682562D01*
X108045874Y-68720371D01*
X108065636Y-68734729D01*
X108143248Y-68791118D01*
X108149276Y-68793802D01*
X108149278Y-68793803D01*
X108311681Y-68866109D01*
X108317712Y-68868794D01*
X108411113Y-68888647D01*
X108498056Y-68907128D01*
X108498061Y-68907128D01*
X108504513Y-68908500D01*
X108695487Y-68908500D01*
X108701939Y-68907128D01*
X108701944Y-68907128D01*
X108788887Y-68888647D01*
X108882288Y-68868794D01*
X108888319Y-68866109D01*
X109050722Y-68793803D01*
X109050724Y-68793802D01*
X109056752Y-68791118D01*
X109211253Y-68678866D01*
X109315529Y-68563056D01*
X109334621Y-68541852D01*
X109334622Y-68541851D01*
X109339040Y-68536944D01*
X109434527Y-68371556D01*
X109493542Y-68189928D01*
X109503393Y-68096206D01*
X109512814Y-68006565D01*
X109513504Y-68000000D01*
X109493542Y-67810072D01*
X109434527Y-67628444D01*
X109339040Y-67463056D01*
X109211253Y-67321134D01*
X109080375Y-67226045D01*
X109062094Y-67212763D01*
X109062093Y-67212762D01*
X109056752Y-67208882D01*
X109050724Y-67206198D01*
X109050722Y-67206197D01*
X108888319Y-67133891D01*
X108888318Y-67133891D01*
X108882288Y-67131206D01*
X108788888Y-67111353D01*
X108701944Y-67092872D01*
X108701939Y-67092872D01*
X108695487Y-67091500D01*
X108504513Y-67091500D01*
X108498061Y-67092872D01*
X108498056Y-67092872D01*
X108411112Y-67111353D01*
X108317712Y-67131206D01*
X108311682Y-67133891D01*
X108311681Y-67133891D01*
X108149278Y-67206197D01*
X108149276Y-67206198D01*
X108143248Y-67208882D01*
X108137907Y-67212762D01*
X108137906Y-67212763D01*
X108045874Y-67279629D01*
X107994092Y-67317251D01*
X107993837Y-67317436D01*
X107926969Y-67341294D01*
X107919776Y-67341500D01*
X97437556Y-67341500D01*
X97369435Y-67321498D01*
X97322942Y-67267842D01*
X97312838Y-67197568D01*
X97342332Y-67132988D01*
X97363495Y-67113564D01*
X97369940Y-67108882D01*
X97385217Y-67097782D01*
X97405909Y-67082749D01*
X97405911Y-67082747D01*
X97411253Y-67078866D01*
X97539040Y-66936944D01*
X97613197Y-66808500D01*
X97631223Y-66777279D01*
X97631224Y-66777278D01*
X97634527Y-66771556D01*
X97693542Y-66589928D01*
X97706755Y-66464213D01*
X97733768Y-66398558D01*
X97742970Y-66388290D01*
X97785855Y-66345405D01*
X97848167Y-66311379D01*
X97874950Y-66308500D01*
X109514057Y-66308500D01*
X109582178Y-66328502D01*
X109623176Y-66371500D01*
X109660960Y-66436944D01*
X109788747Y-66578866D01*
X109943248Y-66691118D01*
X109949276Y-66693802D01*
X109949278Y-66693803D01*
X110109799Y-66765271D01*
X110117712Y-66768794D01*
X110211112Y-66788647D01*
X110298056Y-66807128D01*
X110298061Y-66807128D01*
X110304513Y-66808500D01*
X110495487Y-66808500D01*
X110501939Y-66807128D01*
X110501944Y-66807128D01*
X110588888Y-66788647D01*
X110682288Y-66768794D01*
X110690201Y-66765271D01*
X110850722Y-66693803D01*
X110850724Y-66693802D01*
X110856752Y-66691118D01*
X111011253Y-66578866D01*
X111139040Y-66436944D01*
X111234527Y-66271556D01*
X111293542Y-66089928D01*
X111313504Y-65900000D01*
X111293542Y-65710072D01*
X111234527Y-65528444D01*
X111213990Y-65492872D01*
X111142341Y-65368774D01*
X111139040Y-65363056D01*
X111011253Y-65221134D01*
X110856752Y-65108882D01*
X110850724Y-65106198D01*
X110850722Y-65106197D01*
X110688319Y-65033891D01*
X110688318Y-65033891D01*
X110682288Y-65031206D01*
X110556318Y-65004430D01*
X110501944Y-64992872D01*
X110501939Y-64992872D01*
X110495487Y-64991500D01*
X110304513Y-64991500D01*
X110298059Y-64992872D01*
X110298057Y-64992872D01*
X110297512Y-64992988D01*
X110294398Y-64993650D01*
X110248955Y-64992697D01*
X110248732Y-64994465D01*
X110240867Y-64993471D01*
X110233188Y-64991500D01*
X110211741Y-64991500D01*
X110192031Y-64989949D01*
X110178677Y-64987834D01*
X110170848Y-64986594D01*
X110124859Y-64990941D01*
X110113004Y-64991500D01*
X97632056Y-64991500D01*
X97620200Y-64990941D01*
X97620197Y-64990941D01*
X97612463Y-64989212D01*
X97557446Y-64990941D01*
X97541631Y-64991438D01*
X97537673Y-64991500D01*
X97508568Y-64991500D01*
X97504168Y-64992056D01*
X97492336Y-64992988D01*
X97446169Y-64994438D01*
X97425579Y-65000420D01*
X97406218Y-65004430D01*
X97399230Y-65005312D01*
X97392796Y-65006125D01*
X97392795Y-65006125D01*
X97384936Y-65007118D01*
X97377571Y-65010034D01*
X97377567Y-65010035D01*
X97341979Y-65024126D01*
X97330769Y-65027965D01*
X97286400Y-65040855D01*
X97267943Y-65051771D01*
X97250193Y-65060466D01*
X97230244Y-65068365D01*
X97223833Y-65073023D01*
X97223831Y-65073024D01*
X97192864Y-65095523D01*
X97182946Y-65102038D01*
X97143193Y-65125548D01*
X97128032Y-65140709D01*
X97113000Y-65153548D01*
X97095643Y-65166159D01*
X97090590Y-65172267D01*
X97066194Y-65201757D01*
X97058204Y-65210537D01*
X96814146Y-65454595D01*
X96751834Y-65488621D01*
X96725051Y-65491500D01*
X96704513Y-65491500D01*
X96698061Y-65492872D01*
X96698056Y-65492872D01*
X96611112Y-65511353D01*
X96517712Y-65531206D01*
X96511682Y-65533891D01*
X96511681Y-65533891D01*
X96349278Y-65606197D01*
X96349276Y-65606198D01*
X96343248Y-65608882D01*
X96188747Y-65721134D01*
X96060960Y-65863056D01*
X95965473Y-66028444D01*
X95906458Y-66210072D01*
X95886496Y-66400000D01*
X95906458Y-66589928D01*
X95965473Y-66771556D01*
X95968776Y-66777278D01*
X95968777Y-66777279D01*
X96036735Y-66894986D01*
X96053473Y-66963982D01*
X96030252Y-67031073D01*
X95974445Y-67074960D01*
X95903770Y-67081709D01*
X95876371Y-67073094D01*
X95782288Y-67031206D01*
X95688888Y-67011353D01*
X95601944Y-66992872D01*
X95601939Y-66992872D01*
X95595487Y-66991500D01*
X95404513Y-66991500D01*
X95398061Y-66992872D01*
X95398056Y-66992872D01*
X95311112Y-67011353D01*
X95217712Y-67031206D01*
X95211682Y-67033891D01*
X95211681Y-67033891D01*
X95049278Y-67106197D01*
X95049276Y-67106198D01*
X95043248Y-67108882D01*
X94888747Y-67221134D01*
X94884326Y-67226044D01*
X94884325Y-67226045D01*
X94780555Y-67341294D01*
X94760960Y-67363056D01*
X94665473Y-67528444D01*
X94606458Y-67710072D01*
X94605768Y-67716633D01*
X94605768Y-67716635D01*
X94595948Y-67810072D01*
X94586496Y-67900000D01*
X94606458Y-68089928D01*
X94665473Y-68271556D01*
X94668776Y-68277278D01*
X94668777Y-68277279D01*
X94760960Y-68436944D01*
X94758223Y-68438524D01*
X94777649Y-68492347D01*
X94761822Y-68561557D01*
X94760886Y-68563013D01*
X94760960Y-68563056D01*
X94665473Y-68728444D01*
X94606458Y-68910072D01*
X94586496Y-69100000D01*
X94587186Y-69106565D01*
X94600119Y-69229612D01*
X94606458Y-69289928D01*
X94665473Y-69471556D01*
X94760960Y-69636944D01*
X94765378Y-69641851D01*
X94765379Y-69641852D01*
X94831863Y-69715690D01*
X94862581Y-69779697D01*
X94853816Y-69850151D01*
X94831863Y-69884310D01*
X94781088Y-69940702D01*
X94760960Y-69963056D01*
X94665473Y-70128444D01*
X94606458Y-70310072D01*
X94605768Y-70316633D01*
X94605768Y-70316635D01*
X94591761Y-70449908D01*
X94586496Y-70500000D01*
X94587186Y-70506565D01*
X94604235Y-70668774D01*
X94606458Y-70689928D01*
X94665473Y-70871556D01*
X94760960Y-71036944D01*
X94765378Y-71041851D01*
X94765379Y-71041852D01*
X94884325Y-71173955D01*
X94888747Y-71178866D01*
X95043248Y-71291118D01*
X95049276Y-71293802D01*
X95049278Y-71293803D01*
X95191761Y-71357240D01*
X95217712Y-71368794D01*
X95286263Y-71383365D01*
X95398056Y-71407128D01*
X95398061Y-71407128D01*
X95404513Y-71408500D01*
X95425050Y-71408500D01*
X95493171Y-71428502D01*
X95514145Y-71445405D01*
X96976345Y-72907605D01*
X96984335Y-72916385D01*
X96988584Y-72923080D01*
X96994362Y-72928506D01*
X96994363Y-72928507D01*
X97040257Y-72971604D01*
X97043099Y-72974359D01*
X97063667Y-72994927D01*
X97067170Y-72997644D01*
X97076195Y-73005352D01*
X97109867Y-73036972D01*
X97116818Y-73040793D01*
X97116819Y-73040794D01*
X97128658Y-73047303D01*
X97145182Y-73058157D01*
X97155865Y-73066443D01*
X97162132Y-73071304D01*
X97169407Y-73074452D01*
X97204536Y-73089654D01*
X97215181Y-73094869D01*
X97233768Y-73105087D01*
X97283825Y-73155431D01*
X97298718Y-73224848D01*
X97273717Y-73291297D01*
X97216760Y-73333681D01*
X97173065Y-73341500D01*
X95562034Y-73341500D01*
X95510786Y-73330607D01*
X95428323Y-73293892D01*
X95428315Y-73293889D01*
X95422288Y-73291206D01*
X95328888Y-73271353D01*
X95241944Y-73252872D01*
X95241939Y-73252872D01*
X95235487Y-73251500D01*
X95044513Y-73251500D01*
X95038061Y-73252872D01*
X95038056Y-73252872D01*
X94951112Y-73271353D01*
X94857712Y-73291206D01*
X94851682Y-73293891D01*
X94851681Y-73293891D01*
X94689278Y-73366197D01*
X94689276Y-73366198D01*
X94683248Y-73368882D01*
X94677907Y-73372762D01*
X94677906Y-73372763D01*
X94630607Y-73407128D01*
X94528747Y-73481134D01*
X94400960Y-73623056D01*
X94305473Y-73788444D01*
X94246458Y-73970072D01*
X94245768Y-73976633D01*
X94245768Y-73976635D01*
X94228476Y-74141161D01*
X94226496Y-74160000D01*
X70409300Y-74160000D01*
X70406731Y-74135562D01*
X70394232Y-74016635D01*
X70394232Y-74016633D01*
X70393542Y-74010072D01*
X70334527Y-73828444D01*
X70239040Y-73663056D01*
X70208173Y-73628774D01*
X70115675Y-73526045D01*
X70115674Y-73526044D01*
X70111253Y-73521134D01*
X69956752Y-73408882D01*
X69950724Y-73406198D01*
X69950722Y-73406197D01*
X69908251Y-73387288D01*
X69854155Y-73341308D01*
X69833500Y-73272181D01*
X69833500Y-70902524D01*
X69853502Y-70834403D01*
X69865858Y-70818221D01*
X69939040Y-70736944D01*
X70034527Y-70571556D01*
X70093542Y-70389928D01*
X70094586Y-70380000D01*
X70112814Y-70206565D01*
X70113504Y-70200000D01*
X70105382Y-70122721D01*
X70094232Y-70016635D01*
X70094232Y-70016633D01*
X70093542Y-70010072D01*
X70034527Y-69828444D01*
X69939040Y-69663056D01*
X69839601Y-69552617D01*
X69815675Y-69526045D01*
X69815674Y-69526044D01*
X69811253Y-69521134D01*
X69656752Y-69408882D01*
X69650724Y-69406198D01*
X69650722Y-69406197D01*
X69488319Y-69333891D01*
X69488318Y-69333891D01*
X69482288Y-69331206D01*
X69388887Y-69311353D01*
X69301944Y-69292872D01*
X69301939Y-69292872D01*
X69295487Y-69291500D01*
X69104513Y-69291500D01*
X69098061Y-69292872D01*
X69098056Y-69292872D01*
X69011113Y-69311353D01*
X68917712Y-69331206D01*
X68911682Y-69333891D01*
X68911681Y-69333891D01*
X68749278Y-69406197D01*
X68749276Y-69406198D01*
X68743248Y-69408882D01*
X68588747Y-69521134D01*
X68584326Y-69526044D01*
X68584325Y-69526045D01*
X68560400Y-69552617D01*
X68460960Y-69663056D01*
X68365473Y-69828444D01*
X68306458Y-70010072D01*
X68305768Y-70016633D01*
X68305768Y-70016635D01*
X68294618Y-70122721D01*
X68286496Y-70200000D01*
X64848358Y-70200000D01*
X64844852Y-70157361D01*
X64790431Y-69940702D01*
X64701354Y-69735840D01*
X64580014Y-69548277D01*
X64429670Y-69383051D01*
X64425619Y-69379852D01*
X64425615Y-69379848D01*
X64258414Y-69247800D01*
X64258410Y-69247798D01*
X64254359Y-69244598D01*
X64058789Y-69136638D01*
X64053920Y-69134914D01*
X64053916Y-69134912D01*
X63853087Y-69063795D01*
X63853083Y-69063794D01*
X63848212Y-69062069D01*
X63843119Y-69061162D01*
X63843116Y-69061161D01*
X63633373Y-69023800D01*
X63633367Y-69023799D01*
X63628284Y-69022894D01*
X63554452Y-69021992D01*
X63410081Y-69020228D01*
X63410079Y-69020228D01*
X63404911Y-69020165D01*
X63184091Y-69053955D01*
X62971756Y-69123357D01*
X62773607Y-69226507D01*
X62769474Y-69229610D01*
X62769471Y-69229612D01*
X62599100Y-69357530D01*
X62594965Y-69360635D01*
X62440629Y-69522138D01*
X62314743Y-69706680D01*
X62220688Y-69909305D01*
X62160989Y-70124570D01*
X62137251Y-70346695D01*
X61508500Y-70346695D01*
X61508500Y-61200000D01*
X85386496Y-61200000D01*
X85406458Y-61389928D01*
X85465473Y-61571556D01*
X85560960Y-61736944D01*
X85565378Y-61741851D01*
X85565379Y-61741852D01*
X85656656Y-61843225D01*
X85688747Y-61878866D01*
X85775537Y-61941923D01*
X85831867Y-61982849D01*
X85843248Y-61991118D01*
X85849276Y-61993802D01*
X85849278Y-61993803D01*
X85983064Y-62053368D01*
X86017712Y-62068794D01*
X86083365Y-62082749D01*
X86198056Y-62107128D01*
X86198061Y-62107128D01*
X86204513Y-62108500D01*
X86395487Y-62108500D01*
X86401939Y-62107128D01*
X86401944Y-62107128D01*
X86516635Y-62082749D01*
X86582288Y-62068794D01*
X86616936Y-62053368D01*
X86750722Y-61993803D01*
X86750724Y-61993802D01*
X86756752Y-61991118D01*
X86766637Y-61983936D01*
X86905909Y-61882749D01*
X86905911Y-61882747D01*
X86911253Y-61878866D01*
X86915675Y-61873955D01*
X86915687Y-61873944D01*
X86979694Y-61843225D01*
X87050148Y-61851987D01*
X87084313Y-61873944D01*
X87084325Y-61873955D01*
X87088747Y-61878866D01*
X87094089Y-61882747D01*
X87094091Y-61882749D01*
X87233363Y-61983936D01*
X87243248Y-61991118D01*
X87249276Y-61993802D01*
X87249278Y-61993803D01*
X87383064Y-62053368D01*
X87417712Y-62068794D01*
X87483365Y-62082749D01*
X87598056Y-62107128D01*
X87598061Y-62107128D01*
X87604513Y-62108500D01*
X87795487Y-62108500D01*
X87801939Y-62107128D01*
X87801944Y-62107128D01*
X87916635Y-62082749D01*
X87982288Y-62068794D01*
X88016936Y-62053368D01*
X88150722Y-61993803D01*
X88150724Y-61993802D01*
X88156752Y-61991118D01*
X88162093Y-61987237D01*
X88167811Y-61983936D01*
X88169233Y-61986399D01*
X88224357Y-61966748D01*
X88293504Y-61982849D01*
X88325149Y-62008233D01*
X88388747Y-62078866D01*
X88543248Y-62191118D01*
X88549276Y-62193802D01*
X88549278Y-62193803D01*
X88596252Y-62214717D01*
X88717712Y-62268794D01*
X88806728Y-62287715D01*
X88898056Y-62307128D01*
X88898061Y-62307128D01*
X88904513Y-62308500D01*
X89095487Y-62308500D01*
X89101939Y-62307128D01*
X89101944Y-62307128D01*
X89193272Y-62287715D01*
X89282288Y-62268794D01*
X89403748Y-62214717D01*
X89450722Y-62193803D01*
X89450724Y-62193802D01*
X89456752Y-62191118D01*
X89611253Y-62078866D01*
X89620322Y-62068794D01*
X89734621Y-61941852D01*
X89734622Y-61941851D01*
X89739040Y-61936944D01*
X89809920Y-61814177D01*
X89831223Y-61777279D01*
X89831224Y-61777278D01*
X89834527Y-61771556D01*
X89893542Y-61589928D01*
X89894872Y-61577279D01*
X89912814Y-61406565D01*
X89913504Y-61400000D01*
X89893542Y-61210072D01*
X89834527Y-61028444D01*
X89739040Y-60863056D01*
X89690864Y-60809551D01*
X89640864Y-60754020D01*
X89610146Y-60690013D01*
X89608500Y-60669710D01*
X89608500Y-50730290D01*
X89628502Y-50662169D01*
X89640864Y-50645980D01*
X89734621Y-50541852D01*
X89734622Y-50541851D01*
X89739040Y-50536944D01*
X89834527Y-50371556D01*
X89893542Y-50189928D01*
X89913504Y-50000000D01*
X89893542Y-49810072D01*
X89834527Y-49628444D01*
X89739040Y-49463056D01*
X89713986Y-49435230D01*
X89615675Y-49326045D01*
X89615674Y-49326044D01*
X89611253Y-49321134D01*
X89456752Y-49208882D01*
X89450724Y-49206198D01*
X89450722Y-49206197D01*
X89288319Y-49133891D01*
X89288318Y-49133891D01*
X89282288Y-49131206D01*
X89188887Y-49111353D01*
X89101944Y-49092872D01*
X89101939Y-49092872D01*
X89095487Y-49091500D01*
X88904513Y-49091500D01*
X88898061Y-49092872D01*
X88898056Y-49092872D01*
X88811113Y-49111353D01*
X88717712Y-49131206D01*
X88711682Y-49133891D01*
X88711681Y-49133891D01*
X88549278Y-49206197D01*
X88549276Y-49206198D01*
X88543248Y-49208882D01*
X88537910Y-49212760D01*
X88537907Y-49212762D01*
X88531235Y-49217610D01*
X88464367Y-49241468D01*
X88395215Y-49225386D01*
X88348056Y-49178672D01*
X88339040Y-49163056D01*
X88265719Y-49081624D01*
X88215675Y-49026045D01*
X88215674Y-49026044D01*
X88211253Y-49021134D01*
X88056752Y-48908882D01*
X88050724Y-48906198D01*
X88050722Y-48906197D01*
X87888319Y-48833891D01*
X87888318Y-48833891D01*
X87882288Y-48831206D01*
X87788887Y-48811353D01*
X87701944Y-48792872D01*
X87701939Y-48792872D01*
X87695487Y-48791500D01*
X87504513Y-48791500D01*
X87498061Y-48792872D01*
X87498056Y-48792872D01*
X87411113Y-48811353D01*
X87317712Y-48831206D01*
X87311682Y-48833891D01*
X87311681Y-48833891D01*
X87149278Y-48906197D01*
X87149276Y-48906198D01*
X87143248Y-48908882D01*
X87029739Y-48991352D01*
X87024061Y-48995477D01*
X86957194Y-49019335D01*
X86888042Y-49003255D01*
X86875939Y-48995477D01*
X86870262Y-48991352D01*
X86756752Y-48908882D01*
X86750724Y-48906198D01*
X86750722Y-48906197D01*
X86588319Y-48833891D01*
X86588318Y-48833891D01*
X86582288Y-48831206D01*
X86488887Y-48811353D01*
X86401944Y-48792872D01*
X86401939Y-48792872D01*
X86395487Y-48791500D01*
X86204513Y-48791500D01*
X86198061Y-48792872D01*
X86198056Y-48792872D01*
X86111113Y-48811353D01*
X86017712Y-48831206D01*
X86011682Y-48833891D01*
X86011681Y-48833891D01*
X85849278Y-48906197D01*
X85849276Y-48906198D01*
X85843248Y-48908882D01*
X85688747Y-49021134D01*
X85684326Y-49026044D01*
X85684325Y-49026045D01*
X85634282Y-49081624D01*
X85560960Y-49163056D01*
X85465473Y-49328444D01*
X85406458Y-49510072D01*
X85386496Y-49700000D01*
X85406458Y-49889928D01*
X85465473Y-50071556D01*
X85560960Y-50236944D01*
X85565378Y-50241851D01*
X85565379Y-50241852D01*
X85609136Y-50290449D01*
X85639854Y-50354456D01*
X85641500Y-50374759D01*
X85641500Y-60525241D01*
X85621498Y-60593362D01*
X85609136Y-60609551D01*
X85560960Y-60663056D01*
X85465473Y-60828444D01*
X85406458Y-61010072D01*
X85405768Y-61016633D01*
X85405768Y-61016635D01*
X85404527Y-61028444D01*
X85386496Y-61200000D01*
X61508500Y-61200000D01*
X61508500Y-48302852D01*
X61528502Y-48234731D01*
X61582158Y-48188238D01*
X61652432Y-48178134D01*
X61695202Y-48192438D01*
X61735595Y-48214645D01*
X61735601Y-48214647D01*
X61740995Y-48217613D01*
X61938861Y-48280379D01*
X61944978Y-48281065D01*
X61944982Y-48281066D01*
X62021598Y-48289659D01*
X62100413Y-48298500D01*
X62212237Y-48298500D01*
X62215293Y-48298200D01*
X62215300Y-48298200D01*
X62360466Y-48283966D01*
X62360469Y-48283965D01*
X62366592Y-48283365D01*
X62504092Y-48241852D01*
X62559407Y-48225152D01*
X62559410Y-48225151D01*
X62565315Y-48223368D01*
X62572635Y-48219476D01*
X62743153Y-48128809D01*
X62743155Y-48128808D01*
X62748599Y-48125913D01*
X62822954Y-48065271D01*
X62904689Y-47998610D01*
X62904692Y-47998607D01*
X62909464Y-47994715D01*
X62924349Y-47976722D01*
X63017363Y-47864289D01*
X63076197Y-47824551D01*
X63147175Y-47822930D01*
X63207762Y-47859939D01*
X63230856Y-47896387D01*
X63260229Y-47967299D01*
X63262384Y-47972502D01*
X63394672Y-48188376D01*
X63559102Y-48380898D01*
X63751624Y-48545328D01*
X63967498Y-48677616D01*
X63972068Y-48679509D01*
X63972072Y-48679511D01*
X64081101Y-48724672D01*
X64201409Y-48774505D01*
X64272199Y-48791500D01*
X64442784Y-48832454D01*
X64442790Y-48832455D01*
X64447597Y-48833609D01*
X64700000Y-48853474D01*
X64952403Y-48833609D01*
X64957210Y-48832455D01*
X64957216Y-48832454D01*
X65127801Y-48791500D01*
X65198591Y-48774505D01*
X65318899Y-48724672D01*
X65427928Y-48679511D01*
X65427932Y-48679509D01*
X65432502Y-48677616D01*
X65648376Y-48545328D01*
X65840898Y-48380898D01*
X66005328Y-48188376D01*
X66137616Y-47972502D01*
X66139511Y-47967927D01*
X66139831Y-47967299D01*
X66188578Y-47915683D01*
X66252099Y-47898500D01*
X66993901Y-47898500D01*
X67051103Y-47912233D01*
X67068100Y-47920893D01*
X67068102Y-47920894D01*
X67075168Y-47924494D01*
X67082906Y-47926224D01*
X67082913Y-47926226D01*
X67083982Y-47926465D01*
X67106527Y-47933790D01*
X67107540Y-47934228D01*
X67107542Y-47934228D01*
X67114824Y-47937380D01*
X67122656Y-47938620D01*
X67122658Y-47938621D01*
X67153365Y-47943484D01*
X67172660Y-47946540D01*
X67180420Y-47948021D01*
X67218960Y-47956635D01*
X67222385Y-47957401D01*
X67237537Y-47960788D01*
X67245460Y-47960539D01*
X67245461Y-47960539D01*
X67245657Y-47960533D01*
X67246562Y-47960504D01*
X67270238Y-47961994D01*
X67279152Y-47963406D01*
X67287044Y-47962660D01*
X67337426Y-47957898D01*
X67345324Y-47957401D01*
X67385163Y-47956149D01*
X67403831Y-47955562D01*
X67412497Y-47953045D01*
X67435799Y-47948599D01*
X67436223Y-47948559D01*
X67444789Y-47947749D01*
X67499867Y-47927920D01*
X67507386Y-47925477D01*
X67555991Y-47911356D01*
X67555993Y-47911355D01*
X67563600Y-47909145D01*
X67571378Y-47904545D01*
X67592823Y-47894454D01*
X67601329Y-47891392D01*
X67649747Y-47858486D01*
X67656422Y-47854250D01*
X67706807Y-47824453D01*
X67713191Y-47818069D01*
X67731463Y-47802952D01*
X67732377Y-47802331D01*
X67732378Y-47802330D01*
X67738935Y-47797874D01*
X67777646Y-47753965D01*
X67783065Y-47748195D01*
X68402564Y-47128696D01*
X69035854Y-46495405D01*
X69098166Y-46461380D01*
X69124949Y-46458500D01*
X80119776Y-46458500D01*
X80187897Y-46478502D01*
X80193834Y-46482562D01*
X80343248Y-46591118D01*
X80349276Y-46593802D01*
X80349278Y-46593803D01*
X80502805Y-46662157D01*
X80517712Y-46668794D01*
X80611113Y-46688647D01*
X80698056Y-46707128D01*
X80698061Y-46707128D01*
X80704513Y-46708500D01*
X80895487Y-46708500D01*
X80901939Y-46707128D01*
X80901944Y-46707128D01*
X80988887Y-46688647D01*
X81082288Y-46668794D01*
X81097195Y-46662157D01*
X81250722Y-46593803D01*
X81250724Y-46593802D01*
X81256752Y-46591118D01*
X81411253Y-46478866D01*
X81415675Y-46473955D01*
X81534621Y-46341852D01*
X81534622Y-46341851D01*
X81539040Y-46336944D01*
X81634527Y-46171556D01*
X81693542Y-45989928D01*
X81701910Y-45910316D01*
X81712814Y-45806565D01*
X81713504Y-45800000D01*
X81707563Y-45743472D01*
X81694232Y-45616635D01*
X81694232Y-45616633D01*
X81693542Y-45610072D01*
X81634527Y-45428444D01*
X81539040Y-45263056D01*
X81411253Y-45121134D01*
X81377246Y-45096426D01*
X81333893Y-45040206D01*
X81327816Y-44969470D01*
X81342188Y-44931491D01*
X81431223Y-44777279D01*
X81431224Y-44777278D01*
X81434527Y-44771556D01*
X81493542Y-44589928D01*
X81513504Y-44400000D01*
X81493542Y-44210072D01*
X81434527Y-44028444D01*
X81339040Y-43863056D01*
X81211253Y-43721134D01*
X81056752Y-43608882D01*
X81050724Y-43606198D01*
X81050722Y-43606197D01*
X80888319Y-43533891D01*
X80888318Y-43533891D01*
X80882288Y-43531206D01*
X80788888Y-43511353D01*
X80701944Y-43492872D01*
X80701939Y-43492872D01*
X80695487Y-43491500D01*
X80504513Y-43491500D01*
X80498061Y-43492872D01*
X80498056Y-43492872D01*
X80411113Y-43511353D01*
X80317712Y-43531206D01*
X80311682Y-43533891D01*
X80311681Y-43533891D01*
X80149278Y-43606197D01*
X80149276Y-43606198D01*
X80143248Y-43608882D01*
X79988747Y-43721134D01*
X79860960Y-43863056D01*
X79857659Y-43868774D01*
X79794308Y-43978500D01*
X79742925Y-44027493D01*
X79685189Y-44041500D01*
X66434500Y-44041500D01*
X66366379Y-44021498D01*
X66319886Y-43967842D01*
X66308500Y-43915500D01*
X66308500Y-43551866D01*
X66301745Y-43489684D01*
X66250615Y-43353295D01*
X66163261Y-43236739D01*
X66046705Y-43149385D01*
X65910316Y-43098255D01*
X65848134Y-43091500D01*
X63551866Y-43091500D01*
X63489684Y-43098255D01*
X63353295Y-43149385D01*
X63236739Y-43236739D01*
X63149385Y-43353295D01*
X63098255Y-43489684D01*
X63091500Y-43551866D01*
X63091500Y-43829580D01*
X63071498Y-43897701D01*
X63017842Y-43944194D01*
X62947568Y-43954298D01*
X62884509Y-43926102D01*
X62809374Y-43863056D01*
X62760911Y-43822391D01*
X62755519Y-43819427D01*
X62755515Y-43819424D01*
X62584402Y-43725354D01*
X62579005Y-43722387D01*
X62381139Y-43659621D01*
X62375022Y-43658935D01*
X62375018Y-43658934D01*
X62298402Y-43650341D01*
X62219587Y-43641500D01*
X62107763Y-43641500D01*
X62104707Y-43641800D01*
X62104700Y-43641800D01*
X61959534Y-43656034D01*
X61959531Y-43656035D01*
X61953408Y-43656635D01*
X61821454Y-43696474D01*
X61760593Y-43714848D01*
X61760590Y-43714849D01*
X61754685Y-43716632D01*
X61749240Y-43719527D01*
X61749238Y-43719528D01*
X61693654Y-43749083D01*
X61624116Y-43763403D01*
X61557876Y-43737856D01*
X61515963Y-43680551D01*
X61508500Y-43637832D01*
X61508500Y-39932852D01*
X61528502Y-39864731D01*
X61582158Y-39818238D01*
X61652432Y-39808134D01*
X61695202Y-39822438D01*
X61735595Y-39844645D01*
X61735601Y-39844647D01*
X61740995Y-39847613D01*
X61938861Y-39910379D01*
X61944978Y-39911065D01*
X61944982Y-39911066D01*
X62021598Y-39919659D01*
X62100413Y-39928500D01*
X62212237Y-39928500D01*
X62215293Y-39928200D01*
X62215300Y-39928200D01*
X62360466Y-39913966D01*
X62360469Y-39913965D01*
X62366592Y-39913365D01*
X62498546Y-39873526D01*
X62559407Y-39855152D01*
X62559410Y-39855151D01*
X62565315Y-39853368D01*
X62572635Y-39849476D01*
X62743153Y-39758809D01*
X62743155Y-39758808D01*
X62748599Y-39755913D01*
X62852031Y-39671556D01*
X62904689Y-39628610D01*
X62904692Y-39628607D01*
X62909464Y-39624715D01*
X62913393Y-39619966D01*
X63017363Y-39494289D01*
X63076197Y-39454551D01*
X63147175Y-39452930D01*
X63207762Y-39489939D01*
X63230856Y-39526387D01*
X63260229Y-39597299D01*
X63262384Y-39602502D01*
X63394672Y-39818376D01*
X63559102Y-40010898D01*
X63751624Y-40175328D01*
X63967498Y-40307616D01*
X63972068Y-40309509D01*
X63972072Y-40309511D01*
X64196836Y-40402611D01*
X64201409Y-40404505D01*
X64282762Y-40424036D01*
X64442784Y-40462454D01*
X64442790Y-40462455D01*
X64447597Y-40463609D01*
X64700000Y-40483474D01*
X64952403Y-40463609D01*
X64957210Y-40462455D01*
X64957216Y-40462454D01*
X65117238Y-40424036D01*
X65198591Y-40404505D01*
X65203164Y-40402611D01*
X65427928Y-40309511D01*
X65427932Y-40309509D01*
X65432502Y-40307616D01*
X65648376Y-40175328D01*
X65840898Y-40010898D01*
X66005328Y-39818376D01*
X66137616Y-39602502D01*
X66139511Y-39597927D01*
X66139831Y-39597299D01*
X66188578Y-39545683D01*
X66252099Y-39528500D01*
X71127447Y-39528500D01*
X71195568Y-39548502D01*
X71242061Y-39602158D01*
X71247280Y-39615564D01*
X71265473Y-39671556D01*
X71360960Y-39836944D01*
X71365378Y-39841851D01*
X71365379Y-39841852D01*
X71426172Y-39909369D01*
X71488747Y-39978866D01*
X71643248Y-40091118D01*
X71649276Y-40093802D01*
X71649278Y-40093803D01*
X71677673Y-40106445D01*
X71817712Y-40168794D01*
X71911113Y-40188647D01*
X71998056Y-40207128D01*
X71998061Y-40207128D01*
X72004513Y-40208500D01*
X72195487Y-40208500D01*
X72201939Y-40207128D01*
X72201944Y-40207128D01*
X72288887Y-40188647D01*
X72382288Y-40168794D01*
X72522327Y-40106445D01*
X72550722Y-40093803D01*
X72550724Y-40093802D01*
X72556752Y-40091118D01*
X72711253Y-39978866D01*
X72773828Y-39909369D01*
X72834621Y-39841852D01*
X72834622Y-39841851D01*
X72839040Y-39836944D01*
X72863993Y-39793724D01*
X88586309Y-39793724D01*
X88587474Y-39802628D01*
X88587792Y-39805062D01*
X88588535Y-39812406D01*
X88603041Y-40015230D01*
X88603997Y-40019624D01*
X88645084Y-40208500D01*
X88648908Y-40226079D01*
X88650480Y-40230294D01*
X88650481Y-40230297D01*
X88672554Y-40289477D01*
X88724315Y-40428254D01*
X88827728Y-40617640D01*
X88957040Y-40790381D01*
X89109619Y-40942960D01*
X89282360Y-41072272D01*
X89471746Y-41175685D01*
X89563534Y-41209920D01*
X89669703Y-41249519D01*
X89669706Y-41249520D01*
X89673921Y-41251092D01*
X89678311Y-41252047D01*
X89678318Y-41252049D01*
X89818082Y-41282452D01*
X89884770Y-41296959D01*
X90059535Y-41309459D01*
X90071446Y-41310884D01*
X90082648Y-41312769D01*
X90082655Y-41312770D01*
X90087448Y-41313576D01*
X90093724Y-41313652D01*
X90095140Y-41313670D01*
X90095143Y-41313670D01*
X90100000Y-41313729D01*
X90127624Y-41309773D01*
X90145486Y-41308500D01*
X97091377Y-41308500D01*
X97092148Y-41308502D01*
X97169721Y-41308976D01*
X97198152Y-41300850D01*
X97214915Y-41297272D01*
X97244187Y-41293080D01*
X97267564Y-41282451D01*
X97285087Y-41276004D01*
X97309771Y-41268949D01*
X97317365Y-41264157D01*
X97317368Y-41264156D01*
X97334780Y-41253170D01*
X97349865Y-41245030D01*
X97376782Y-41232792D01*
X97396235Y-41216030D01*
X97411239Y-41204927D01*
X97432958Y-41191224D01*
X97438897Y-41184499D01*
X97438901Y-41184496D01*
X97452532Y-41169062D01*
X97464724Y-41157018D01*
X97480327Y-41143573D01*
X97480329Y-41143570D01*
X97487127Y-41137713D01*
X97501094Y-41116165D01*
X97512385Y-41101291D01*
X97523431Y-41088783D01*
X97523432Y-41088782D01*
X97529378Y-41082049D01*
X97541943Y-41055287D01*
X97550263Y-41040309D01*
X97561471Y-41023017D01*
X97561473Y-41023012D01*
X97566352Y-41015485D01*
X97568922Y-41006892D01*
X97568924Y-41006887D01*
X97573711Y-40990880D01*
X97580372Y-40973436D01*
X97587467Y-40958324D01*
X97587468Y-40958322D01*
X97591281Y-40950200D01*
X97595830Y-40920983D01*
X97599613Y-40904268D01*
X97605515Y-40884534D01*
X97605516Y-40884528D01*
X97608086Y-40875934D01*
X97608296Y-40841494D01*
X97608329Y-40840711D01*
X97608500Y-40839614D01*
X97608500Y-40808623D01*
X97608502Y-40807853D01*
X97608952Y-40734215D01*
X97608952Y-40734214D01*
X97608976Y-40730279D01*
X97608592Y-40728935D01*
X97608500Y-40727590D01*
X97608500Y-37723638D01*
X97628502Y-37655517D01*
X97682158Y-37609024D01*
X97752432Y-37598920D01*
X97815491Y-37627116D01*
X97824564Y-37634729D01*
X97959089Y-37747609D01*
X97964481Y-37750573D01*
X97964485Y-37750576D01*
X98126179Y-37839468D01*
X98140995Y-37847613D01*
X98338861Y-37910379D01*
X98344978Y-37911065D01*
X98344982Y-37911066D01*
X98421598Y-37919659D01*
X98500413Y-37928500D01*
X98612237Y-37928500D01*
X98615293Y-37928200D01*
X98615300Y-37928200D01*
X98760466Y-37913966D01*
X98760469Y-37913965D01*
X98766592Y-37913365D01*
X98898546Y-37873526D01*
X98959407Y-37855152D01*
X98959410Y-37855151D01*
X98965315Y-37853368D01*
X98972635Y-37849476D01*
X99143153Y-37758809D01*
X99143155Y-37758808D01*
X99148599Y-37755913D01*
X99297186Y-37634729D01*
X99304689Y-37628610D01*
X99304692Y-37628607D01*
X99309464Y-37624715D01*
X99373165Y-37547715D01*
X99437855Y-37469518D01*
X99441783Y-37464770D01*
X99444714Y-37459350D01*
X99537584Y-37287590D01*
X99537586Y-37287585D01*
X99540514Y-37282170D01*
X99601898Y-37083871D01*
X99602682Y-37076409D01*
X99622952Y-36883554D01*
X99622952Y-36883552D01*
X99623596Y-36877425D01*
X99609498Y-36722512D01*
X99605341Y-36676836D01*
X99605340Y-36676833D01*
X99604782Y-36670697D01*
X99598317Y-36648728D01*
X99547912Y-36477469D01*
X99546173Y-36471560D01*
X99450001Y-36287600D01*
X99319929Y-36125823D01*
X99307371Y-36115285D01*
X99165629Y-35996350D01*
X99160911Y-35992391D01*
X99155519Y-35989427D01*
X99155515Y-35989424D01*
X98984402Y-35895354D01*
X98979005Y-35892387D01*
X98781139Y-35829621D01*
X98775022Y-35828935D01*
X98775018Y-35828934D01*
X98698402Y-35820341D01*
X98619587Y-35811500D01*
X98507763Y-35811500D01*
X98504707Y-35811800D01*
X98504700Y-35811800D01*
X98359534Y-35826034D01*
X98359531Y-35826035D01*
X98353408Y-35826635D01*
X98248209Y-35858396D01*
X98160593Y-35884848D01*
X98160590Y-35884849D01*
X98154685Y-35886632D01*
X98149240Y-35889527D01*
X98149238Y-35889528D01*
X97976847Y-35981191D01*
X97976845Y-35981192D01*
X97971401Y-35984087D01*
X97837327Y-36093435D01*
X97814136Y-36112349D01*
X97748704Y-36139903D01*
X97678763Y-36127708D01*
X97626517Y-36079635D01*
X97608500Y-36014706D01*
X97608500Y-35183638D01*
X97628502Y-35115517D01*
X97682158Y-35069024D01*
X97752432Y-35058920D01*
X97815491Y-35087116D01*
X97845486Y-35112285D01*
X97959089Y-35207609D01*
X97964481Y-35210573D01*
X97964485Y-35210576D01*
X98135598Y-35304646D01*
X98140995Y-35307613D01*
X98338861Y-35370379D01*
X98344978Y-35371065D01*
X98344982Y-35371066D01*
X98421598Y-35379659D01*
X98500413Y-35388500D01*
X98612237Y-35388500D01*
X98615293Y-35388200D01*
X98615300Y-35388200D01*
X98760466Y-35373966D01*
X98760469Y-35373965D01*
X98766592Y-35373365D01*
X98898546Y-35333526D01*
X98959407Y-35315152D01*
X98959410Y-35315151D01*
X98965315Y-35313368D01*
X98972635Y-35309476D01*
X99143153Y-35218809D01*
X99143155Y-35218808D01*
X99148599Y-35215913D01*
X99153380Y-35212013D01*
X99153384Y-35212011D01*
X99285865Y-35103963D01*
X99351296Y-35076409D01*
X99421238Y-35088605D01*
X99473483Y-35136677D01*
X99491500Y-35201606D01*
X99491500Y-35478134D01*
X99498255Y-35540316D01*
X99549385Y-35676705D01*
X99636739Y-35793261D01*
X99753295Y-35880615D01*
X99889684Y-35931745D01*
X99951866Y-35938500D01*
X102248134Y-35938500D01*
X102310316Y-35931745D01*
X102446705Y-35880615D01*
X102563261Y-35793261D01*
X102650615Y-35676705D01*
X102701745Y-35540316D01*
X102708500Y-35478134D01*
X102708500Y-33181866D01*
X102701745Y-33119684D01*
X102650615Y-32983295D01*
X102563261Y-32866739D01*
X102446705Y-32779385D01*
X102310316Y-32728255D01*
X102248134Y-32721500D01*
X99951866Y-32721500D01*
X99889684Y-32728255D01*
X99753295Y-32779385D01*
X99636739Y-32866739D01*
X99549385Y-32983295D01*
X99498255Y-33119684D01*
X99491500Y-33181866D01*
X99491500Y-33459580D01*
X99471498Y-33527701D01*
X99417842Y-33574194D01*
X99347568Y-33584298D01*
X99284509Y-33556102D01*
X99187505Y-33474706D01*
X99160911Y-33452391D01*
X99155519Y-33449427D01*
X99155515Y-33449424D01*
X98984402Y-33355354D01*
X98979005Y-33352387D01*
X98781139Y-33289621D01*
X98775022Y-33288935D01*
X98775018Y-33288934D01*
X98698402Y-33280341D01*
X98619587Y-33271500D01*
X98507763Y-33271500D01*
X98504707Y-33271800D01*
X98504700Y-33271800D01*
X98359534Y-33286034D01*
X98359531Y-33286035D01*
X98353408Y-33286635D01*
X98227193Y-33324741D01*
X98160593Y-33344848D01*
X98160590Y-33344849D01*
X98154685Y-33346632D01*
X98149240Y-33349527D01*
X98149238Y-33349528D01*
X97976847Y-33441191D01*
X97976845Y-33441192D01*
X97971401Y-33444087D01*
X97834057Y-33556102D01*
X97814136Y-33572349D01*
X97748704Y-33599903D01*
X97678763Y-33587708D01*
X97626517Y-33539635D01*
X97608500Y-33474706D01*
X97608500Y-30808623D01*
X97608502Y-30807853D01*
X97608921Y-30739254D01*
X97608976Y-30730279D01*
X97600850Y-30701847D01*
X97597272Y-30685085D01*
X97594352Y-30664698D01*
X97593080Y-30655813D01*
X97582451Y-30632436D01*
X97576004Y-30614913D01*
X97571416Y-30598862D01*
X97568949Y-30590229D01*
X97564156Y-30582632D01*
X97553170Y-30565220D01*
X97545030Y-30550135D01*
X97532792Y-30523218D01*
X97516030Y-30503765D01*
X97504927Y-30488761D01*
X97491224Y-30467042D01*
X97484499Y-30461103D01*
X97484496Y-30461099D01*
X97469062Y-30447468D01*
X97457018Y-30435276D01*
X97443573Y-30419673D01*
X97443570Y-30419671D01*
X97437713Y-30412873D01*
X97416165Y-30398906D01*
X97401291Y-30387615D01*
X97388783Y-30376569D01*
X97388782Y-30376568D01*
X97382049Y-30370622D01*
X97355287Y-30358057D01*
X97340309Y-30349737D01*
X97323017Y-30338529D01*
X97323012Y-30338527D01*
X97315485Y-30333648D01*
X97306892Y-30331078D01*
X97306887Y-30331076D01*
X97290880Y-30326289D01*
X97273436Y-30319628D01*
X97258324Y-30312533D01*
X97258322Y-30312532D01*
X97250200Y-30308719D01*
X97241333Y-30307338D01*
X97241332Y-30307338D01*
X97231690Y-30305837D01*
X97220983Y-30304170D01*
X97204268Y-30300387D01*
X97184534Y-30294485D01*
X97184528Y-30294484D01*
X97175934Y-30291914D01*
X97166963Y-30291859D01*
X97166962Y-30291859D01*
X97156903Y-30291798D01*
X97141494Y-30291704D01*
X97140711Y-30291671D01*
X97139614Y-30291500D01*
X97108623Y-30291500D01*
X97107853Y-30291498D01*
X97034215Y-30291048D01*
X97034214Y-30291048D01*
X97030279Y-30291024D01*
X97028935Y-30291408D01*
X97027590Y-30291500D01*
X90153250Y-30291500D01*
X90132345Y-30289754D01*
X90117344Y-30287230D01*
X90117341Y-30287230D01*
X90112552Y-30286424D01*
X90106313Y-30286348D01*
X90104860Y-30286330D01*
X90104857Y-30286330D01*
X90100000Y-30286271D01*
X90085210Y-30288389D01*
X90076357Y-30289338D01*
X89921877Y-30300387D01*
X89884770Y-30303041D01*
X89836810Y-30313474D01*
X89678318Y-30347951D01*
X89678311Y-30347953D01*
X89673921Y-30348908D01*
X89669706Y-30350480D01*
X89669703Y-30350481D01*
X89584774Y-30382158D01*
X89471746Y-30424315D01*
X89282360Y-30527728D01*
X89109619Y-30657040D01*
X88957040Y-30809619D01*
X88827728Y-30982360D01*
X88724315Y-31171746D01*
X88697240Y-31244337D01*
X88671373Y-31313691D01*
X88648908Y-31373921D01*
X88647953Y-31378311D01*
X88647951Y-31378318D01*
X88616336Y-31523655D01*
X88603041Y-31584770D01*
X88595470Y-31690631D01*
X88589988Y-31767275D01*
X88588808Y-31777675D01*
X88587690Y-31784851D01*
X88587690Y-31784855D01*
X88586309Y-31793724D01*
X88587473Y-31802626D01*
X88587473Y-31802628D01*
X88590436Y-31825283D01*
X88591500Y-31841621D01*
X88591500Y-39750633D01*
X88590000Y-39770018D01*
X88587690Y-39784851D01*
X88587690Y-39784855D01*
X88586309Y-39793724D01*
X72863993Y-39793724D01*
X72934527Y-39671556D01*
X72993542Y-39489928D01*
X73013504Y-39300000D01*
X72993542Y-39110072D01*
X72934527Y-38928444D01*
X72839040Y-38763056D01*
X72813157Y-38734310D01*
X72782439Y-38670303D01*
X72791204Y-38599849D01*
X72813157Y-38565690D01*
X72834621Y-38541852D01*
X72834622Y-38541851D01*
X72839040Y-38536944D01*
X72934527Y-38371556D01*
X72993542Y-38189928D01*
X72998572Y-38142076D01*
X73012814Y-38006565D01*
X73013504Y-38000000D01*
X73011880Y-37984551D01*
X72994232Y-37816635D01*
X72994232Y-37816633D01*
X72993542Y-37810072D01*
X72934527Y-37628444D01*
X72839040Y-37463056D01*
X72771640Y-37388200D01*
X72715675Y-37326045D01*
X72715674Y-37326044D01*
X72711253Y-37321134D01*
X72612157Y-37249136D01*
X72562094Y-37212763D01*
X72562093Y-37212762D01*
X72556752Y-37208882D01*
X72550724Y-37206198D01*
X72550722Y-37206197D01*
X72388319Y-37133891D01*
X72388318Y-37133891D01*
X72382288Y-37131206D01*
X72288887Y-37111353D01*
X72201944Y-37092872D01*
X72201939Y-37092872D01*
X72195487Y-37091500D01*
X72174950Y-37091500D01*
X72106829Y-37071498D01*
X72085855Y-37054595D01*
X70953655Y-35922395D01*
X70945665Y-35913615D01*
X70945663Y-35913613D01*
X70941416Y-35906920D01*
X70929100Y-35895354D01*
X70889743Y-35858396D01*
X70886901Y-35855641D01*
X70866333Y-35835073D01*
X70862826Y-35832353D01*
X70853804Y-35824647D01*
X70825913Y-35798456D01*
X70820133Y-35793028D01*
X70813181Y-35789206D01*
X70801342Y-35782697D01*
X70784818Y-35771843D01*
X70774132Y-35763555D01*
X70767868Y-35758696D01*
X70760596Y-35755549D01*
X70760594Y-35755548D01*
X70725465Y-35740346D01*
X70714805Y-35735124D01*
X70681284Y-35716695D01*
X70681282Y-35716694D01*
X70674337Y-35712876D01*
X70653559Y-35707541D01*
X70634869Y-35701142D01*
X70615176Y-35692620D01*
X70569552Y-35685394D01*
X70557929Y-35682987D01*
X70529928Y-35675798D01*
X70513188Y-35671500D01*
X70491741Y-35671500D01*
X70472031Y-35669949D01*
X70450848Y-35666594D01*
X70404859Y-35670941D01*
X70393004Y-35671500D01*
X66434500Y-35671500D01*
X66366379Y-35651498D01*
X66319886Y-35597842D01*
X66308500Y-35545500D01*
X66308500Y-35181866D01*
X66301745Y-35119684D01*
X66250615Y-34983295D01*
X66163261Y-34866739D01*
X66046705Y-34779385D01*
X65910316Y-34728255D01*
X65848134Y-34721500D01*
X63551866Y-34721500D01*
X63489684Y-34728255D01*
X63353295Y-34779385D01*
X63236739Y-34866739D01*
X63149385Y-34983295D01*
X63098255Y-35119684D01*
X63091500Y-35181866D01*
X63091500Y-35459580D01*
X63071498Y-35527701D01*
X63017842Y-35574194D01*
X62947568Y-35584298D01*
X62884509Y-35556102D01*
X62786195Y-35473607D01*
X62760911Y-35452391D01*
X62755519Y-35449427D01*
X62755515Y-35449424D01*
X62584402Y-35355354D01*
X62579005Y-35352387D01*
X62381139Y-35289621D01*
X62375022Y-35288935D01*
X62375018Y-35288934D01*
X62298402Y-35280341D01*
X62219587Y-35271500D01*
X62107763Y-35271500D01*
X62104707Y-35271800D01*
X62104700Y-35271800D01*
X61959534Y-35286034D01*
X61959531Y-35286035D01*
X61953408Y-35286635D01*
X61864863Y-35313368D01*
X61760593Y-35344848D01*
X61760590Y-35344849D01*
X61754685Y-35346632D01*
X61749240Y-35349527D01*
X61749238Y-35349528D01*
X61693654Y-35379083D01*
X61624116Y-35393403D01*
X61557876Y-35367856D01*
X61515963Y-35310551D01*
X61508500Y-35267832D01*
X61508500Y-27353250D01*
X61510246Y-27332345D01*
X61512770Y-27317344D01*
X61512770Y-27317341D01*
X61513576Y-27312552D01*
X61513729Y-27300000D01*
X61513040Y-27295188D01*
X61513039Y-27295174D01*
X61512004Y-27287949D01*
X61511001Y-27261845D01*
X61523287Y-27074404D01*
X61525438Y-27058064D01*
X61553177Y-26918610D01*
X61567934Y-26844421D01*
X61572197Y-26828511D01*
X61642216Y-26622242D01*
X61648522Y-26607018D01*
X61744862Y-26411657D01*
X61753103Y-26397383D01*
X61768814Y-26373871D01*
X61874117Y-26216274D01*
X61884150Y-26203199D01*
X62027773Y-26039428D01*
X62039428Y-26027773D01*
X62203199Y-25884150D01*
X62216274Y-25874117D01*
X62375883Y-25767469D01*
X62397387Y-25753101D01*
X62411653Y-25744864D01*
X62511608Y-25695572D01*
X62607018Y-25648522D01*
X62622244Y-25642215D01*
X62828511Y-25572197D01*
X62844421Y-25567934D01*
X62953836Y-25546170D01*
X63058064Y-25525438D01*
X63074404Y-25523287D01*
X63196561Y-25515280D01*
X63258237Y-25511237D01*
X63281350Y-25512267D01*
X63284854Y-25512310D01*
X63293724Y-25513691D01*
X63302626Y-25512527D01*
X63302628Y-25512527D01*
X63319449Y-25510327D01*
X63325286Y-25509564D01*
X63341621Y-25508500D01*
X81197524Y-25508500D01*
X81265645Y-25528502D01*
G37*
G04 #@! TD.AperFunction*
M02*
