%TF.GenerationSoftware,KiCad,Pcbnew,(6.0.8)*%
%TF.CreationDate,2022-11-27T13:06:36-05:00*%
%TF.ProjectId,miura_board,6d697572-615f-4626-9f61-72642e6b6963,rev?*%
%TF.SameCoordinates,Original*%
%TF.FileFunction,Copper,L2,Inr*%
%TF.FilePolarity,Positive*%
%FSLAX46Y46*%
G04 Gerber Fmt 4.6, Leading zero omitted, Abs format (unit mm)*
G04 Created by KiCad (PCBNEW (6.0.8)) date 2022-11-27 13:06:36*
%MOMM*%
%LPD*%
G01*
G04 APERTURE LIST*
%TA.AperFunction,ComponentPad*%
%ADD10R,2.200000X2.200000*%
%TD*%
%TA.AperFunction,ComponentPad*%
%ADD11C,2.200000*%
%TD*%
%TA.AperFunction,ComponentPad*%
%ADD12C,3.800000*%
%TD*%
%TA.AperFunction,ComponentPad*%
%ADD13R,1.700000X1.700000*%
%TD*%
%TA.AperFunction,ComponentPad*%
%ADD14O,1.700000X1.700000*%
%TD*%
%TA.AperFunction,ViaPad*%
%ADD15C,0.800000*%
%TD*%
G04 APERTURE END LIST*
D10*
%TO.N,/IO34*%
%TO.C,J7*%
X105030000Y-80600000D03*
D11*
%TO.N,/IO35*%
X107570000Y-80600000D03*
%TD*%
%TO.N,/IO2*%
%TO.C,J2*%
X65400000Y-44440000D03*
D10*
%TO.N,/IO15*%
X65400000Y-41900000D03*
%TD*%
D12*
%TO.N,GND*%
%TO.C,H4*%
X61500000Y-84500000D03*
%TD*%
D13*
%TO.N,TXD0*%
%TO.C,J4*%
X63680000Y-79800000D03*
D14*
%TO.N,RXD0*%
X63680000Y-77260000D03*
%TO.N,GND*%
X63680000Y-74720000D03*
%TO.N,+3V3*%
X63680000Y-72180000D03*
%TD*%
D12*
%TO.N,GND*%
%TO.C,H1*%
X112700000Y-36800000D03*
%TD*%
D10*
%TO.N,/IO32*%
%TO.C,J3*%
X108600000Y-69570000D03*
D11*
%TO.N,/IO33*%
X108600000Y-67030000D03*
%TD*%
D12*
%TO.N,GND*%
%TO.C,H3*%
X61500000Y-36800000D03*
%TD*%
D10*
%TO.N,/IO14*%
%TO.C,J8*%
X108600000Y-62170000D03*
D11*
%TO.N,/IO27*%
X108600000Y-59630000D03*
%TD*%
D10*
%TO.N,VBAT*%
%TO.C,J5*%
X90300000Y-39130000D03*
D11*
%TO.N,GND*%
X90300000Y-41670000D03*
%TD*%
D12*
%TO.N,GND*%
%TO.C,H2*%
X112500000Y-84548970D03*
%TD*%
D11*
%TO.N,/IO25*%
%TO.C,J1*%
X65400000Y-51270000D03*
D10*
%TO.N,/IO26*%
X65400000Y-48730000D03*
%TD*%
%TO.N,/IO12*%
%TO.C,J6*%
X77600000Y-40700000D03*
D11*
%TO.N,/IO13*%
X75060000Y-40700000D03*
%TD*%
D15*
%TO.N,+3V3*%
X102500000Y-64800000D03*
%TO.N,GND*%
X72700000Y-56100000D03*
%TO.N,+3V3*%
X67100000Y-63000000D03*
%TO.N,GND*%
X69900000Y-71000000D03*
X66700000Y-71200000D03*
X64400000Y-66900000D03*
X62700000Y-63200000D03*
X64000000Y-62000000D03*
%TO.N,+3V3*%
X64900000Y-69400000D03*
%TO.N,SCL*%
X71100000Y-70200000D03*
%TO.N,GND*%
X69200000Y-56800000D03*
X63400000Y-56900000D03*
X72700000Y-76700000D03*
%TO.N,SCL*%
X72000000Y-74200000D03*
%TO.N,GND*%
X85500000Y-72200000D03*
X90900000Y-70700000D03*
X78600000Y-51500000D03*
X87800000Y-52800000D03*
%TO.N,+3V3*%
X76800000Y-49600000D03*
X93200000Y-80200000D03*
%TO.N,/IO14*%
X104600000Y-78200000D03*
%TO.N,/IO27*%
X104800000Y-75800000D03*
%TO.N,GND*%
X77000000Y-68300000D03*
X77800000Y-66100000D03*
%TO.N,+3V3*%
X79900000Y-71200000D03*
%TO.N,GND*%
X89800000Y-56200000D03*
%TO.N,MOTOR_A32_IN*%
X87800000Y-69800000D03*
%TO.N,MOTOR_A31_IN*%
X88200000Y-71100000D03*
%TO.N,GND*%
X90300000Y-76700000D03*
X99300000Y-75600000D03*
%TO.N,MOTOR_B31_IN*%
X87100000Y-63100000D03*
%TO.N,MOTOR_B32_IN*%
X85500000Y-62100000D03*
%TO.N,GND*%
X76700000Y-56300000D03*
%TO.N,MOTOR_B11_IN*%
X88700000Y-61000000D03*
%TO.N,MOTOR_B12_IN*%
X86800000Y-61300000D03*
%TO.N,MOTOR_SUPPLY*%
X81200000Y-44300000D03*
%TO.N,MOTOR_A12_IN*%
X79500000Y-56500000D03*
%TO.N,MOTOR_A11_IN*%
X78300000Y-56500000D03*
%TO.N,GND*%
X96800000Y-62800000D03*
%TO.N,MOTOR_A22_IN*%
X94993750Y-70400000D03*
%TO.N,MOTOR_A21_IN*%
X95093750Y-69100000D03*
%TO.N,MOTOR_B22_IN*%
X95093750Y-67800000D03*
%TO.N,MOTOR_B21_IN*%
X94993750Y-66500000D03*
%TO.N,GND*%
X98900000Y-68100000D03*
X101093750Y-67400000D03*
X105300000Y-49000000D03*
X105300000Y-54200000D03*
X74900000Y-47400000D03*
X83500000Y-44300000D03*
%TO.N,+3V3*%
X103700000Y-54200000D03*
%TO.N,GND*%
X94100000Y-48850000D03*
X88300000Y-48850000D03*
X97300000Y-82500000D03*
X99400000Y-82500000D03*
X95200000Y-82600000D03*
X90300000Y-48850000D03*
X92300000Y-48850000D03*
X103000000Y-46450000D03*
X101400000Y-82500000D03*
%TD*%
%TA.AperFunction,Conductor*%
%TO.N,GND*%
G36*
X61609382Y-34975016D02*
G01*
X61710759Y-34981530D01*
X61728611Y-34983968D01*
X61960471Y-35032730D01*
X61977792Y-35037690D01*
X62200333Y-35119026D01*
X62216770Y-35126405D01*
X62294442Y-35168186D01*
X62425430Y-35238648D01*
X62440631Y-35248286D01*
X62631161Y-35389151D01*
X62644840Y-35400865D01*
X62813320Y-35567456D01*
X62825192Y-35581006D01*
X62842129Y-35603382D01*
X62948618Y-35744067D01*
X62957647Y-35759304D01*
X62962199Y-35766498D01*
X62965875Y-35774688D01*
X62971701Y-35781516D01*
X63000618Y-35815406D01*
X63005568Y-35821591D01*
X63163985Y-36032813D01*
X64098972Y-37279461D01*
X64177541Y-37384220D01*
X64183301Y-37392582D01*
X64208776Y-37432958D01*
X64225890Y-37448072D01*
X64248702Y-37468219D01*
X64254358Y-37473533D01*
X64292048Y-37511198D01*
X64299924Y-37515506D01*
X64305442Y-37519639D01*
X64311223Y-37523436D01*
X64317951Y-37529378D01*
X64366173Y-37552018D01*
X64373083Y-37555526D01*
X64419836Y-37581101D01*
X64428598Y-37583024D01*
X64435064Y-37585446D01*
X64441677Y-37587468D01*
X64449800Y-37591281D01*
X64502446Y-37599478D01*
X64510075Y-37600908D01*
X64562106Y-37612329D01*
X64613688Y-37608795D01*
X64622300Y-37608500D01*
X73951714Y-37608500D01*
X74019835Y-37628502D01*
X74066328Y-37682158D01*
X74076432Y-37752432D01*
X74072081Y-37771753D01*
X74018102Y-37946129D01*
X74017458Y-37952254D01*
X74017458Y-37952255D01*
X73998065Y-38136775D01*
X73996404Y-38152575D01*
X73998313Y-38173554D01*
X74014060Y-38346574D01*
X74015218Y-38359303D01*
X74016956Y-38365209D01*
X74016957Y-38365213D01*
X74037100Y-38433652D01*
X74073827Y-38558440D01*
X74169999Y-38742400D01*
X74300071Y-38904177D01*
X74304789Y-38908135D01*
X74304791Y-38908138D01*
X74435881Y-39018136D01*
X74475207Y-39077245D01*
X74476333Y-39148233D01*
X74438902Y-39208561D01*
X74403108Y-39231065D01*
X74389411Y-39236739D01*
X74332072Y-39260489D01*
X74332068Y-39260491D01*
X74327498Y-39262384D01*
X74111624Y-39394672D01*
X73919102Y-39559102D01*
X73754672Y-39751624D01*
X73622384Y-39967498D01*
X73620491Y-39972068D01*
X73620489Y-39972072D01*
X73538663Y-40169619D01*
X73525495Y-40201409D01*
X73524340Y-40206221D01*
X73468998Y-40436739D01*
X73466391Y-40447597D01*
X73446526Y-40700000D01*
X73466391Y-40952403D01*
X73525495Y-41198591D01*
X73527388Y-41203162D01*
X73527389Y-41203164D01*
X73555720Y-41271560D01*
X73622384Y-41432502D01*
X73754672Y-41648376D01*
X73919102Y-41840898D01*
X74111624Y-42005328D01*
X74327498Y-42137616D01*
X74332068Y-42139509D01*
X74332072Y-42139511D01*
X74402401Y-42168642D01*
X74561409Y-42234505D01*
X74628513Y-42250615D01*
X74802784Y-42292454D01*
X74802790Y-42292455D01*
X74807597Y-42293609D01*
X75060000Y-42313474D01*
X75312403Y-42293609D01*
X75317210Y-42292455D01*
X75317216Y-42292454D01*
X75491487Y-42250615D01*
X75558591Y-42234505D01*
X75717599Y-42168642D01*
X75787928Y-42139511D01*
X75787932Y-42139509D01*
X75792502Y-42137616D01*
X75874137Y-42087590D01*
X75917386Y-42061087D01*
X75985920Y-42042549D01*
X76053596Y-42064005D01*
X76084046Y-42092953D01*
X76136739Y-42163261D01*
X76253295Y-42250615D01*
X76389684Y-42301745D01*
X76451866Y-42308500D01*
X78748134Y-42308500D01*
X78810316Y-42301745D01*
X78921271Y-42260150D01*
X78992077Y-42254967D01*
X79054446Y-42288888D01*
X79088576Y-42351143D01*
X79091500Y-42378132D01*
X79091500Y-43291377D01*
X79091498Y-43292147D01*
X79091024Y-43369721D01*
X79093491Y-43378352D01*
X79099150Y-43398153D01*
X79102728Y-43414915D01*
X79106920Y-43444187D01*
X79110634Y-43452355D01*
X79110634Y-43452356D01*
X79117548Y-43467562D01*
X79123996Y-43485086D01*
X79131051Y-43509771D01*
X79135843Y-43517365D01*
X79135844Y-43517368D01*
X79146830Y-43534780D01*
X79154969Y-43549863D01*
X79167208Y-43576782D01*
X79173069Y-43583584D01*
X79183970Y-43596235D01*
X79195073Y-43611239D01*
X79208776Y-43632958D01*
X79215501Y-43638897D01*
X79215504Y-43638901D01*
X79230938Y-43652532D01*
X79242982Y-43664724D01*
X79256427Y-43680327D01*
X79256430Y-43680329D01*
X79262287Y-43687127D01*
X79269816Y-43692007D01*
X79269817Y-43692008D01*
X79283835Y-43701094D01*
X79298709Y-43712385D01*
X79311217Y-43723431D01*
X79317951Y-43729378D01*
X79344711Y-43741942D01*
X79359691Y-43750263D01*
X79376983Y-43761471D01*
X79376988Y-43761473D01*
X79384515Y-43766352D01*
X79393108Y-43768922D01*
X79393113Y-43768924D01*
X79409120Y-43773711D01*
X79426564Y-43780372D01*
X79441676Y-43787467D01*
X79441678Y-43787468D01*
X79449800Y-43791281D01*
X79458667Y-43792662D01*
X79458668Y-43792662D01*
X79461353Y-43793080D01*
X79479017Y-43795830D01*
X79495732Y-43799613D01*
X79515466Y-43805515D01*
X79515472Y-43805516D01*
X79524066Y-43808086D01*
X79533037Y-43808141D01*
X79533038Y-43808141D01*
X79543097Y-43808202D01*
X79558506Y-43808296D01*
X79559289Y-43808329D01*
X79560386Y-43808500D01*
X79591377Y-43808500D01*
X79592147Y-43808502D01*
X79665785Y-43808952D01*
X79665786Y-43808952D01*
X79669721Y-43808976D01*
X79671065Y-43808592D01*
X79672410Y-43808500D01*
X80231021Y-43808500D01*
X80299142Y-43828502D01*
X80345635Y-43882158D01*
X80355739Y-43952432D01*
X80350854Y-43973436D01*
X80306458Y-44110072D01*
X80286496Y-44300000D01*
X80287186Y-44306565D01*
X80301729Y-44444930D01*
X80306458Y-44489928D01*
X80365473Y-44671556D01*
X80460960Y-44836944D01*
X80465378Y-44841851D01*
X80465379Y-44841852D01*
X80552483Y-44938591D01*
X80588747Y-44978866D01*
X80743248Y-45091118D01*
X80749276Y-45093802D01*
X80749278Y-45093803D01*
X80755082Y-45096387D01*
X80917712Y-45168794D01*
X81011113Y-45188647D01*
X81098056Y-45207128D01*
X81098061Y-45207128D01*
X81104513Y-45208500D01*
X81295487Y-45208500D01*
X81301939Y-45207128D01*
X81301944Y-45207128D01*
X81388887Y-45188647D01*
X81482288Y-45168794D01*
X81644918Y-45096387D01*
X81650722Y-45093803D01*
X81650724Y-45093802D01*
X81656752Y-45091118D01*
X81811253Y-44978866D01*
X81847517Y-44938591D01*
X81934621Y-44841852D01*
X81934622Y-44841851D01*
X81939040Y-44836944D01*
X82034527Y-44671556D01*
X82093542Y-44489928D01*
X82098272Y-44444930D01*
X82112814Y-44306565D01*
X82113504Y-44300000D01*
X82093542Y-44110072D01*
X82049146Y-43973436D01*
X82047118Y-43902469D01*
X82083781Y-43841671D01*
X82147493Y-43810345D01*
X82168979Y-43808500D01*
X86691377Y-43808500D01*
X86692148Y-43808502D01*
X86769721Y-43808976D01*
X86798152Y-43800850D01*
X86814915Y-43797272D01*
X86815753Y-43797152D01*
X86844187Y-43793080D01*
X86867564Y-43782451D01*
X86885087Y-43776004D01*
X86909771Y-43768949D01*
X86917365Y-43764157D01*
X86917368Y-43764156D01*
X86934780Y-43753170D01*
X86949865Y-43745030D01*
X86976782Y-43732792D01*
X86996235Y-43716030D01*
X87011239Y-43704927D01*
X87032958Y-43691224D01*
X87038897Y-43684499D01*
X87038901Y-43684496D01*
X87052532Y-43669062D01*
X87064724Y-43657018D01*
X87080327Y-43643573D01*
X87080329Y-43643570D01*
X87087127Y-43637713D01*
X87101094Y-43616165D01*
X87112385Y-43601291D01*
X87123431Y-43588783D01*
X87123432Y-43588782D01*
X87129378Y-43582049D01*
X87141943Y-43555287D01*
X87150263Y-43540309D01*
X87161471Y-43523017D01*
X87161473Y-43523012D01*
X87166352Y-43515485D01*
X87168922Y-43506892D01*
X87168924Y-43506887D01*
X87173711Y-43490880D01*
X87180372Y-43473436D01*
X87187467Y-43458324D01*
X87187468Y-43458322D01*
X87191281Y-43450200D01*
X87195830Y-43420983D01*
X87199613Y-43404268D01*
X87205515Y-43384534D01*
X87205516Y-43384528D01*
X87208086Y-43375934D01*
X87208164Y-43363261D01*
X87208296Y-43341503D01*
X87208329Y-43340711D01*
X87208500Y-43339614D01*
X87208500Y-43308623D01*
X87208502Y-43307853D01*
X87208952Y-43234215D01*
X87208952Y-43234214D01*
X87208976Y-43230279D01*
X87208592Y-43228935D01*
X87208500Y-43227590D01*
X87208500Y-42777740D01*
X87228502Y-42709619D01*
X87282158Y-42663126D01*
X87352432Y-42653022D01*
X87372598Y-42657638D01*
X87389899Y-42663126D01*
X87538861Y-42710379D01*
X87544978Y-42711065D01*
X87544982Y-42711066D01*
X87621598Y-42719659D01*
X87700413Y-42728500D01*
X87812237Y-42728500D01*
X87815293Y-42728200D01*
X87815300Y-42728200D01*
X87960466Y-42713966D01*
X87960469Y-42713965D01*
X87966592Y-42713365D01*
X88098546Y-42673526D01*
X88159407Y-42655152D01*
X88159410Y-42655151D01*
X88165315Y-42653368D01*
X88170762Y-42650472D01*
X88343153Y-42558809D01*
X88343155Y-42558808D01*
X88348599Y-42555913D01*
X88423568Y-42494770D01*
X88504689Y-42428610D01*
X88504692Y-42428607D01*
X88509464Y-42424715D01*
X88641783Y-42264770D01*
X88644714Y-42259350D01*
X88737584Y-42087590D01*
X88737586Y-42087585D01*
X88740514Y-42082170D01*
X88801898Y-41883871D01*
X88802542Y-41877745D01*
X88822952Y-41683554D01*
X88822952Y-41683552D01*
X88823596Y-41677425D01*
X88804782Y-41470697D01*
X88792195Y-41427928D01*
X88747912Y-41277469D01*
X88746173Y-41271560D01*
X88650001Y-41087600D01*
X88519929Y-40925823D01*
X88439597Y-40858416D01*
X88365629Y-40796350D01*
X88360911Y-40792391D01*
X88355519Y-40789427D01*
X88355515Y-40789424D01*
X88184402Y-40695354D01*
X88179005Y-40692387D01*
X87981139Y-40629621D01*
X87975022Y-40628935D01*
X87975018Y-40628934D01*
X87898402Y-40620341D01*
X87819587Y-40611500D01*
X87707763Y-40611500D01*
X87704707Y-40611800D01*
X87704700Y-40611800D01*
X87559534Y-40626034D01*
X87559531Y-40626035D01*
X87553408Y-40626635D01*
X87494752Y-40644344D01*
X87370917Y-40681731D01*
X87299923Y-40682272D01*
X87239906Y-40644344D01*
X87209923Y-40579989D01*
X87208500Y-40561109D01*
X87208500Y-40237740D01*
X87228502Y-40169619D01*
X87282158Y-40123126D01*
X87352432Y-40113022D01*
X87372599Y-40117638D01*
X87538861Y-40170379D01*
X87544978Y-40171065D01*
X87544982Y-40171066D01*
X87621598Y-40179659D01*
X87700413Y-40188500D01*
X87812237Y-40188500D01*
X87815293Y-40188200D01*
X87815300Y-40188200D01*
X87960466Y-40173966D01*
X87960469Y-40173965D01*
X87966592Y-40173365D01*
X88098546Y-40133526D01*
X88159407Y-40115152D01*
X88159410Y-40115151D01*
X88165315Y-40113368D01*
X88170762Y-40110472D01*
X88343153Y-40018809D01*
X88343155Y-40018808D01*
X88348599Y-40015913D01*
X88353380Y-40012013D01*
X88353384Y-40012011D01*
X88485865Y-39903963D01*
X88551296Y-39876409D01*
X88621238Y-39888605D01*
X88673483Y-39936677D01*
X88691500Y-40001606D01*
X88691500Y-40278134D01*
X88698255Y-40340316D01*
X88749385Y-40476705D01*
X88836739Y-40593261D01*
X88953295Y-40680615D01*
X89089684Y-40731745D01*
X89151866Y-40738500D01*
X91448134Y-40738500D01*
X91510316Y-40731745D01*
X91646705Y-40680615D01*
X91763261Y-40593261D01*
X91850615Y-40476705D01*
X91901745Y-40340316D01*
X91908500Y-40278134D01*
X91908500Y-37981866D01*
X91901745Y-37919684D01*
X91850615Y-37783295D01*
X91852833Y-37782463D01*
X91840410Y-37725645D01*
X91865149Y-37659099D01*
X91921940Y-37616491D01*
X91966098Y-37608500D01*
X109568421Y-37608500D01*
X109580771Y-37609107D01*
X109613695Y-37612350D01*
X109613697Y-37612350D01*
X109622633Y-37613230D01*
X109680443Y-37602332D01*
X109685920Y-37601424D01*
X109744187Y-37593080D01*
X109752289Y-37589397D01*
X109753729Y-37589051D01*
X109755647Y-37588444D01*
X109757026Y-37587897D01*
X109765769Y-37586249D01*
X109773764Y-37582180D01*
X109773766Y-37582179D01*
X109818221Y-37559552D01*
X109823182Y-37557163D01*
X109876782Y-37532792D01*
X109883524Y-37526983D01*
X109884808Y-37526248D01*
X109886472Y-37525132D01*
X109887646Y-37524216D01*
X109895580Y-37520178D01*
X109902117Y-37514023D01*
X109902120Y-37514021D01*
X109938418Y-37479845D01*
X109942543Y-37476129D01*
X109980326Y-37443573D01*
X109987127Y-37437713D01*
X110012154Y-37399101D01*
X110018426Y-37390279D01*
X110019976Y-37388287D01*
X111074233Y-36032813D01*
X111363230Y-35661246D01*
X111380069Y-35643471D01*
X111381671Y-35642080D01*
X111381673Y-35642078D01*
X111388448Y-35636194D01*
X111393301Y-35628642D01*
X111396837Y-35623140D01*
X111412539Y-35603382D01*
X111557116Y-35454824D01*
X111570387Y-35442986D01*
X111754628Y-35300667D01*
X111769425Y-35290821D01*
X111971886Y-35175847D01*
X111987910Y-35168189D01*
X112204529Y-35082868D01*
X112221494Y-35077535D01*
X112388678Y-35037690D01*
X112447953Y-35023563D01*
X112465499Y-35020671D01*
X112697311Y-34999118D01*
X112715078Y-34998725D01*
X112869420Y-35006223D01*
X112947625Y-35010022D01*
X112965282Y-35012137D01*
X113009706Y-35020671D01*
X113193900Y-35056056D01*
X113211079Y-35060634D01*
X113431252Y-35136307D01*
X113447619Y-35143259D01*
X113654937Y-35249169D01*
X113670160Y-35258354D01*
X113860511Y-35392403D01*
X113874280Y-35403632D01*
X114043869Y-35563149D01*
X114055925Y-35576212D01*
X114201359Y-35758005D01*
X114211460Y-35772640D01*
X114329852Y-35973097D01*
X114337792Y-35989009D01*
X114426783Y-36204133D01*
X114432404Y-36221005D01*
X114490222Y-36446517D01*
X114493412Y-36464011D01*
X114518907Y-36695418D01*
X114519602Y-36713188D01*
X114512264Y-36945876D01*
X114510451Y-36963564D01*
X114474184Y-37171386D01*
X114470428Y-37192906D01*
X114466143Y-37210160D01*
X114406257Y-37394553D01*
X114394229Y-37431589D01*
X114387557Y-37448071D01*
X114293920Y-37639328D01*
X114285188Y-37657163D01*
X114276263Y-37672539D01*
X114215813Y-37761560D01*
X114145477Y-37865139D01*
X114134475Y-37879107D01*
X114091586Y-37926288D01*
X113977874Y-38051378D01*
X113965013Y-38063660D01*
X113785718Y-38212169D01*
X113771273Y-38222507D01*
X113644933Y-38300054D01*
X113600777Y-38327157D01*
X113583225Y-38335376D01*
X113576915Y-38338563D01*
X113568411Y-38341432D01*
X113506248Y-38384870D01*
X113505535Y-38385365D01*
X112212366Y-39274418D01*
X111923064Y-39473313D01*
X111918916Y-39476046D01*
X111867042Y-39508776D01*
X111843467Y-39535470D01*
X111840451Y-39538885D01*
X111831389Y-39548140D01*
X111816801Y-39561582D01*
X111801840Y-39575367D01*
X111794085Y-39588252D01*
X111780573Y-39606684D01*
X111770622Y-39617951D01*
X111766808Y-39626074D01*
X111766807Y-39626076D01*
X111753549Y-39654315D01*
X111747451Y-39665738D01*
X111726731Y-39700166D01*
X111722902Y-39714716D01*
X111715110Y-39736187D01*
X111708719Y-39749800D01*
X111707338Y-39758670D01*
X111707336Y-39758676D01*
X111702536Y-39789500D01*
X111699890Y-39802172D01*
X111691950Y-39832349D01*
X111691949Y-39832355D01*
X111689667Y-39841029D01*
X111689911Y-39850000D01*
X111691453Y-39906681D01*
X111691500Y-39910107D01*
X111691500Y-58522260D01*
X111671498Y-58590381D01*
X111617842Y-58636874D01*
X111547568Y-58646978D01*
X111527402Y-58642362D01*
X111367012Y-58591484D01*
X111361139Y-58589621D01*
X111355022Y-58588935D01*
X111355018Y-58588934D01*
X111278402Y-58580341D01*
X111199587Y-58571500D01*
X111087763Y-58571500D01*
X111084707Y-58571800D01*
X111084700Y-58571800D01*
X110939534Y-58586034D01*
X110939531Y-58586035D01*
X110933408Y-58586635D01*
X110801454Y-58626474D01*
X110740593Y-58644848D01*
X110740590Y-58644849D01*
X110734685Y-58646632D01*
X110729240Y-58649527D01*
X110729238Y-58649528D01*
X110556847Y-58741191D01*
X110556845Y-58741192D01*
X110551401Y-58744087D01*
X110546622Y-58747985D01*
X110395311Y-58871390D01*
X110395308Y-58871393D01*
X110390536Y-58875285D01*
X110386608Y-58880033D01*
X110386607Y-58880034D01*
X110282637Y-59005711D01*
X110223803Y-59045449D01*
X110152825Y-59047070D01*
X110092238Y-59010061D01*
X110069144Y-58973613D01*
X110039511Y-58902072D01*
X110039509Y-58902068D01*
X110037616Y-58897498D01*
X109905328Y-58681624D01*
X109740898Y-58489102D01*
X109548376Y-58324672D01*
X109332502Y-58192384D01*
X109327932Y-58190491D01*
X109327928Y-58190489D01*
X109103164Y-58097389D01*
X109103162Y-58097388D01*
X109098591Y-58095495D01*
X109013968Y-58075179D01*
X108857216Y-58037546D01*
X108857210Y-58037545D01*
X108852403Y-58036391D01*
X108600000Y-58016526D01*
X108347597Y-58036391D01*
X108342790Y-58037545D01*
X108342784Y-58037546D01*
X108186032Y-58075179D01*
X108101409Y-58095495D01*
X108096838Y-58097388D01*
X108096836Y-58097389D01*
X107872072Y-58190489D01*
X107872068Y-58190491D01*
X107867498Y-58192384D01*
X107651624Y-58324672D01*
X107459102Y-58489102D01*
X107294672Y-58681624D01*
X107162384Y-58897498D01*
X107160491Y-58902068D01*
X107160489Y-58902072D01*
X107100429Y-59047070D01*
X107065495Y-59131409D01*
X107006391Y-59377597D01*
X106986526Y-59630000D01*
X107006391Y-59882403D01*
X107065495Y-60128591D01*
X107067388Y-60133162D01*
X107067389Y-60133164D01*
X107160488Y-60357924D01*
X107162384Y-60362502D01*
X107164970Y-60366722D01*
X107238913Y-60487386D01*
X107257451Y-60555920D01*
X107235995Y-60623596D01*
X107207047Y-60654046D01*
X107136739Y-60706739D01*
X107049385Y-60823295D01*
X106998255Y-60959684D01*
X106991500Y-61021866D01*
X106991500Y-63318134D01*
X106998255Y-63380316D01*
X107049385Y-63516705D01*
X107136739Y-63633261D01*
X107253295Y-63720615D01*
X107389684Y-63771745D01*
X107451866Y-63778500D01*
X109748134Y-63778500D01*
X109810316Y-63771745D01*
X109946705Y-63720615D01*
X110063261Y-63633261D01*
X110150615Y-63516705D01*
X110201745Y-63380316D01*
X110208500Y-63318134D01*
X110208500Y-63040420D01*
X110228502Y-62972299D01*
X110282158Y-62925806D01*
X110352432Y-62915702D01*
X110415491Y-62943898D01*
X110539089Y-63047609D01*
X110544481Y-63050573D01*
X110544485Y-63050576D01*
X110646329Y-63106565D01*
X110720995Y-63147613D01*
X110918861Y-63210379D01*
X110924978Y-63211065D01*
X110924982Y-63211066D01*
X111001598Y-63219659D01*
X111080413Y-63228500D01*
X111192237Y-63228500D01*
X111195293Y-63228200D01*
X111195300Y-63228200D01*
X111340466Y-63213966D01*
X111340469Y-63213965D01*
X111346592Y-63213365D01*
X111436313Y-63186277D01*
X111529083Y-63158269D01*
X111600077Y-63157728D01*
X111660094Y-63195656D01*
X111690077Y-63260011D01*
X111691500Y-63278891D01*
X111691500Y-65922260D01*
X111671498Y-65990381D01*
X111617842Y-66036874D01*
X111547568Y-66046978D01*
X111527402Y-66042362D01*
X111367012Y-65991484D01*
X111361139Y-65989621D01*
X111355022Y-65988935D01*
X111355018Y-65988934D01*
X111278402Y-65980341D01*
X111199587Y-65971500D01*
X111087763Y-65971500D01*
X111084707Y-65971800D01*
X111084700Y-65971800D01*
X110939534Y-65986034D01*
X110939531Y-65986035D01*
X110933408Y-65986635D01*
X110801454Y-66026474D01*
X110740593Y-66044848D01*
X110740590Y-66044849D01*
X110734685Y-66046632D01*
X110729240Y-66049527D01*
X110729238Y-66049528D01*
X110556847Y-66141191D01*
X110556845Y-66141192D01*
X110551401Y-66144087D01*
X110546622Y-66147985D01*
X110395311Y-66271390D01*
X110395308Y-66271393D01*
X110390536Y-66275285D01*
X110386608Y-66280033D01*
X110386607Y-66280034D01*
X110282637Y-66405711D01*
X110223803Y-66445449D01*
X110152825Y-66447070D01*
X110092238Y-66410061D01*
X110069144Y-66373613D01*
X110039511Y-66302072D01*
X110039509Y-66302068D01*
X110037616Y-66297498D01*
X109905328Y-66081624D01*
X109740898Y-65889102D01*
X109548376Y-65724672D01*
X109332502Y-65592384D01*
X109327932Y-65590491D01*
X109327928Y-65590489D01*
X109103164Y-65497389D01*
X109103162Y-65497388D01*
X109098591Y-65495495D01*
X109008870Y-65473955D01*
X108857216Y-65437546D01*
X108857210Y-65437545D01*
X108852403Y-65436391D01*
X108600000Y-65416526D01*
X108347597Y-65436391D01*
X108342790Y-65437545D01*
X108342784Y-65437546D01*
X108191130Y-65473955D01*
X108101409Y-65495495D01*
X108096838Y-65497388D01*
X108096836Y-65497389D01*
X107872072Y-65590489D01*
X107872068Y-65590491D01*
X107867498Y-65592384D01*
X107651624Y-65724672D01*
X107459102Y-65889102D01*
X107294672Y-66081624D01*
X107162384Y-66297498D01*
X107160491Y-66302068D01*
X107160489Y-66302072D01*
X107067389Y-66526836D01*
X107065495Y-66531409D01*
X107006391Y-66777597D01*
X106986526Y-67030000D01*
X107006391Y-67282403D01*
X107065495Y-67528591D01*
X107067388Y-67533162D01*
X107067389Y-67533164D01*
X107160488Y-67757924D01*
X107162384Y-67762502D01*
X107164970Y-67766722D01*
X107238913Y-67887386D01*
X107257451Y-67955920D01*
X107235995Y-68023596D01*
X107207047Y-68054046D01*
X107136739Y-68106739D01*
X107049385Y-68223295D01*
X106998255Y-68359684D01*
X106991500Y-68421866D01*
X106991500Y-70718134D01*
X106998255Y-70780316D01*
X107049385Y-70916705D01*
X107136739Y-71033261D01*
X107253295Y-71120615D01*
X107389684Y-71171745D01*
X107451866Y-71178500D01*
X109748134Y-71178500D01*
X109810316Y-71171745D01*
X109946705Y-71120615D01*
X110063261Y-71033261D01*
X110150615Y-70916705D01*
X110201745Y-70780316D01*
X110208500Y-70718134D01*
X110208500Y-70440420D01*
X110228502Y-70372299D01*
X110282158Y-70325806D01*
X110352432Y-70315702D01*
X110415491Y-70343898D01*
X110539089Y-70447609D01*
X110544481Y-70450573D01*
X110544485Y-70450576D01*
X110603008Y-70482749D01*
X110720995Y-70547613D01*
X110918861Y-70610379D01*
X110924978Y-70611065D01*
X110924982Y-70611066D01*
X111001598Y-70619659D01*
X111080413Y-70628500D01*
X111192237Y-70628500D01*
X111195293Y-70628200D01*
X111195300Y-70628200D01*
X111340466Y-70613966D01*
X111340469Y-70613965D01*
X111346592Y-70613365D01*
X111436313Y-70586277D01*
X111529083Y-70558269D01*
X111600077Y-70557728D01*
X111660094Y-70595656D01*
X111690077Y-70660011D01*
X111691500Y-70678891D01*
X111691500Y-81590437D01*
X111691460Y-81593604D01*
X111689790Y-81660026D01*
X111692093Y-81668706D01*
X111698927Y-81694465D01*
X111701868Y-81708913D01*
X111706920Y-81744187D01*
X111710636Y-81752360D01*
X111710637Y-81752363D01*
X111715035Y-81762035D01*
X111722119Y-81781869D01*
X111727145Y-81800811D01*
X111731787Y-81808488D01*
X111731790Y-81808495D01*
X111745579Y-81831299D01*
X111752457Y-81844342D01*
X111763489Y-81868604D01*
X111763491Y-81868608D01*
X111767208Y-81876782D01*
X111780005Y-81891634D01*
X111792366Y-81908675D01*
X111802512Y-81925455D01*
X111828771Y-81949550D01*
X111839029Y-81960133D01*
X111862287Y-81987127D01*
X111922652Y-82026255D01*
X111923939Y-82027101D01*
X113392534Y-83006163D01*
X113658459Y-83183446D01*
X113661415Y-83185696D01*
X113663800Y-83188443D01*
X113676726Y-83196750D01*
X113696566Y-83212533D01*
X113848049Y-83360238D01*
X113860017Y-83373706D01*
X114004330Y-83561618D01*
X114014251Y-83576651D01*
X114130293Y-83783235D01*
X114137962Y-83799517D01*
X114223350Y-84020533D01*
X114228625Y-84037761D01*
X114281615Y-84268688D01*
X114284379Y-84286493D01*
X114303889Y-84522622D01*
X114304085Y-84540637D01*
X114289719Y-84777127D01*
X114287344Y-84794986D01*
X114239391Y-85027027D01*
X114234496Y-85044352D01*
X114233880Y-85046056D01*
X114153940Y-85267171D01*
X114146619Y-85283633D01*
X114035109Y-85492682D01*
X114025514Y-85507932D01*
X114012763Y-85525307D01*
X113885323Y-85698945D01*
X113873659Y-85712662D01*
X113707653Y-85881730D01*
X113694149Y-85893645D01*
X113505736Y-86037300D01*
X113490664Y-86047172D01*
X113387175Y-86104830D01*
X113304579Y-86150847D01*
X113283686Y-86162487D01*
X113267359Y-86170108D01*
X113046055Y-86254720D01*
X113028810Y-86259935D01*
X112797686Y-86312121D01*
X112779899Y-86314819D01*
X112543685Y-86333508D01*
X112525679Y-86333641D01*
X112289229Y-86318449D01*
X112271380Y-86316011D01*
X112039520Y-86267251D01*
X112022201Y-86262293D01*
X111799665Y-86180961D01*
X111783228Y-86173582D01*
X111770773Y-86166882D01*
X111574567Y-86061341D01*
X111559359Y-86051698D01*
X111368834Y-85910840D01*
X111355154Y-85899124D01*
X111186674Y-85732537D01*
X111174801Y-85718986D01*
X111166217Y-85707645D01*
X111097588Y-85616980D01*
X111051387Y-85555944D01*
X111042325Y-85540652D01*
X111037798Y-85533498D01*
X111034122Y-85525307D01*
X111011033Y-85498248D01*
X111002044Y-85486354D01*
X110028410Y-84025903D01*
X110026686Y-84023246D01*
X109996014Y-83974634D01*
X109991224Y-83967042D01*
X109964521Y-83943459D01*
X109954056Y-83933065D01*
X109936272Y-83913202D01*
X109936270Y-83913200D01*
X109930287Y-83906518D01*
X109913632Y-83896167D01*
X109896737Y-83883594D01*
X109888777Y-83876564D01*
X109882049Y-83870622D01*
X109849799Y-83855481D01*
X109836842Y-83848444D01*
X109814203Y-83834374D01*
X109814196Y-83834371D01*
X109806574Y-83829634D01*
X109787687Y-83824375D01*
X109767942Y-83817049D01*
X109759478Y-83813075D01*
X109758324Y-83812533D01*
X109758322Y-83812532D01*
X109750200Y-83808719D01*
X109714991Y-83803237D01*
X109700584Y-83800120D01*
X109666255Y-83790561D01*
X109594400Y-83791489D01*
X109592773Y-83791500D01*
X108632476Y-83791500D01*
X108564355Y-83771498D01*
X108517862Y-83717842D01*
X108507758Y-83647568D01*
X108521640Y-83605572D01*
X108537275Y-83576655D01*
X108550514Y-83552170D01*
X108611898Y-83353871D01*
X108613429Y-83339303D01*
X108632952Y-83153554D01*
X108632952Y-83153552D01*
X108633596Y-83147425D01*
X108614782Y-82940697D01*
X108612298Y-82932255D01*
X108557912Y-82747469D01*
X108556173Y-82741560D01*
X108460001Y-82557600D01*
X108329929Y-82395823D01*
X108325211Y-82391865D01*
X108325209Y-82391862D01*
X108194119Y-82281864D01*
X108154793Y-82222755D01*
X108153667Y-82151767D01*
X108191098Y-82091439D01*
X108226892Y-82068935D01*
X108257919Y-82056083D01*
X108297928Y-82039511D01*
X108297932Y-82039509D01*
X108302502Y-82037616D01*
X108518376Y-81905328D01*
X108710898Y-81740898D01*
X108875328Y-81548376D01*
X109007616Y-81332502D01*
X109013555Y-81318166D01*
X109102611Y-81103164D01*
X109102612Y-81103162D01*
X109104505Y-81098591D01*
X109124991Y-81013261D01*
X109162454Y-80857216D01*
X109162455Y-80857210D01*
X109163609Y-80852403D01*
X109183474Y-80600000D01*
X109163609Y-80347597D01*
X109104505Y-80101409D01*
X109102611Y-80096836D01*
X109009511Y-79872072D01*
X109009509Y-79872068D01*
X109007616Y-79867498D01*
X108875328Y-79651624D01*
X108710898Y-79459102D01*
X108518376Y-79294672D01*
X108302502Y-79162384D01*
X108297932Y-79160491D01*
X108297928Y-79160489D01*
X108073164Y-79067389D01*
X108073162Y-79067388D01*
X108068591Y-79065495D01*
X107983968Y-79045179D01*
X107827216Y-79007546D01*
X107827210Y-79007545D01*
X107822403Y-79006391D01*
X107570000Y-78986526D01*
X107317597Y-79006391D01*
X107312790Y-79007545D01*
X107312784Y-79007546D01*
X107156032Y-79045179D01*
X107071409Y-79065495D01*
X107066838Y-79067388D01*
X107066836Y-79067389D01*
X106842072Y-79160489D01*
X106842068Y-79160491D01*
X106837498Y-79162384D01*
X106833278Y-79164970D01*
X106712614Y-79238913D01*
X106644080Y-79257451D01*
X106576404Y-79235995D01*
X106545953Y-79207046D01*
X106493261Y-79136739D01*
X106376705Y-79049385D01*
X106240316Y-78998255D01*
X106178134Y-78991500D01*
X105392837Y-78991500D01*
X105324716Y-78971498D01*
X105278223Y-78917842D01*
X105268119Y-78847568D01*
X105299199Y-78781192D01*
X105339040Y-78736944D01*
X105434527Y-78571556D01*
X105493542Y-78389928D01*
X105494940Y-78376632D01*
X105512814Y-78206565D01*
X105513504Y-78200000D01*
X105507123Y-78139292D01*
X105494232Y-78016635D01*
X105494232Y-78016633D01*
X105493542Y-78010072D01*
X105434527Y-77828444D01*
X105339040Y-77663056D01*
X105211253Y-77521134D01*
X105056752Y-77408882D01*
X105050724Y-77406198D01*
X105050722Y-77406197D01*
X104888319Y-77333891D01*
X104888318Y-77333891D01*
X104882288Y-77331206D01*
X104788887Y-77311353D01*
X104701944Y-77292872D01*
X104701939Y-77292872D01*
X104695487Y-77291500D01*
X104504513Y-77291500D01*
X104498061Y-77292872D01*
X104498056Y-77292872D01*
X104411113Y-77311353D01*
X104317712Y-77331206D01*
X104311682Y-77333891D01*
X104311681Y-77333891D01*
X104149278Y-77406197D01*
X104149276Y-77406198D01*
X104143248Y-77408882D01*
X103988747Y-77521134D01*
X103860960Y-77663056D01*
X103765473Y-77828444D01*
X103706458Y-78010072D01*
X103705768Y-78016633D01*
X103705768Y-78016635D01*
X103692877Y-78139292D01*
X103686496Y-78200000D01*
X103687186Y-78206565D01*
X103705061Y-78376632D01*
X103706458Y-78389928D01*
X103765473Y-78571556D01*
X103860960Y-78736944D01*
X103906849Y-78787909D01*
X103937565Y-78851915D01*
X103928800Y-78922368D01*
X103883337Y-78976899D01*
X103834969Y-78994512D01*
X103835222Y-78995575D01*
X103827540Y-78997402D01*
X103819684Y-78998255D01*
X103683295Y-79049385D01*
X103566739Y-79136739D01*
X103479385Y-79253295D01*
X103428255Y-79389684D01*
X103421500Y-79451866D01*
X103421500Y-81748134D01*
X103428255Y-81810316D01*
X103479385Y-81946705D01*
X103566739Y-82063261D01*
X103683295Y-82150615D01*
X103819684Y-82201745D01*
X103881866Y-82208500D01*
X104159022Y-82208500D01*
X104227143Y-82228502D01*
X104273636Y-82282158D01*
X104283740Y-82352432D01*
X104256106Y-82414815D01*
X104148217Y-82545230D01*
X104145288Y-82550647D01*
X104145286Y-82550650D01*
X104052416Y-82722410D01*
X104052414Y-82722415D01*
X104049486Y-82727830D01*
X103988102Y-82926129D01*
X103987458Y-82932254D01*
X103987458Y-82932255D01*
X103975861Y-83042600D01*
X103966404Y-83132575D01*
X103985218Y-83339303D01*
X103986956Y-83345209D01*
X103986957Y-83345213D01*
X103991379Y-83360238D01*
X104043827Y-83538440D01*
X104046683Y-83543903D01*
X104079734Y-83607124D01*
X104093569Y-83676760D01*
X104067559Y-83742821D01*
X104009963Y-83784333D01*
X103968073Y-83791500D01*
X64640366Y-83791500D01*
X64624527Y-83790500D01*
X64591684Y-83786338D01*
X64565635Y-83790500D01*
X64524813Y-83797022D01*
X64522797Y-83797327D01*
X64489462Y-83802101D01*
X64455813Y-83806920D01*
X64451992Y-83808657D01*
X64447851Y-83809319D01*
X64386629Y-83838360D01*
X64384874Y-83839175D01*
X64331205Y-83863576D01*
X64331199Y-83863579D01*
X64323218Y-83867208D01*
X64320039Y-83869947D01*
X64316249Y-83871745D01*
X64309704Y-83877572D01*
X64309697Y-83877577D01*
X64265697Y-83916748D01*
X64264166Y-83918089D01*
X64219676Y-83956425D01*
X64212873Y-83962287D01*
X64207988Y-83969824D01*
X64192729Y-83993364D01*
X64184261Y-84004929D01*
X63757926Y-84522622D01*
X62841336Y-85635624D01*
X62826693Y-85650655D01*
X62818338Y-85657910D01*
X62818336Y-85657913D01*
X62811560Y-85663797D01*
X62806707Y-85671348D01*
X62806703Y-85671353D01*
X62803255Y-85676718D01*
X62787472Y-85696558D01*
X62639768Y-85848040D01*
X62626301Y-85860007D01*
X62567098Y-85905473D01*
X62438393Y-86004314D01*
X62423356Y-86014238D01*
X62216786Y-86130270D01*
X62200487Y-86137948D01*
X61979474Y-86223334D01*
X61962261Y-86228604D01*
X61731324Y-86281594D01*
X61713528Y-86284356D01*
X61477402Y-86303866D01*
X61459387Y-86304062D01*
X61275330Y-86292881D01*
X61222901Y-86289696D01*
X61205042Y-86287321D01*
X61187100Y-86283613D01*
X60973010Y-86239369D01*
X60955678Y-86234472D01*
X60768724Y-86166882D01*
X60732863Y-86153917D01*
X60716405Y-86146598D01*
X60507351Y-86035084D01*
X60492117Y-86025500D01*
X60301100Y-85885305D01*
X60287384Y-85873642D01*
X60118319Y-85707639D01*
X60106404Y-85694135D01*
X59962751Y-85505726D01*
X59952879Y-85490654D01*
X59837566Y-85283681D01*
X59829945Y-85267355D01*
X59745334Y-85046056D01*
X59740119Y-85028810D01*
X59687933Y-84797696D01*
X59685232Y-84779882D01*
X59666546Y-84543704D01*
X59666412Y-84525688D01*
X59681602Y-84289244D01*
X59684040Y-84271392D01*
X59732798Y-84039538D01*
X59737757Y-84022217D01*
X59775812Y-83918089D01*
X59819087Y-83799681D01*
X59826461Y-83783255D01*
X59938696Y-83574601D01*
X59948343Y-83559384D01*
X59968196Y-83532531D01*
X60089201Y-83368858D01*
X60100912Y-83355183D01*
X60267498Y-83186700D01*
X60281047Y-83174829D01*
X60336868Y-83132575D01*
X60444220Y-83051313D01*
X60458924Y-83042600D01*
X60458921Y-83042596D01*
X60466508Y-83037795D01*
X60474698Y-83034119D01*
X60494569Y-83017163D01*
X60509570Y-83006166D01*
X62007933Y-82069689D01*
X62008801Y-82069226D01*
X62009771Y-82068949D01*
X62078493Y-82025589D01*
X62100467Y-82011855D01*
X62101007Y-82011399D01*
X62101336Y-82011176D01*
X62125366Y-81996014D01*
X62132958Y-81991224D01*
X62150340Y-81971542D01*
X62163525Y-81958651D01*
X62183602Y-81941712D01*
X62188563Y-81934230D01*
X62188566Y-81934226D01*
X62199620Y-81917553D01*
X62210193Y-81903772D01*
X62223438Y-81888775D01*
X62223439Y-81888774D01*
X62229378Y-81882049D01*
X62240540Y-81858276D01*
X62249579Y-81842200D01*
X62264090Y-81820313D01*
X62272683Y-81792627D01*
X62278963Y-81776435D01*
X62291281Y-81750200D01*
X62295321Y-81724251D01*
X62299483Y-81706288D01*
X62307270Y-81681203D01*
X62307847Y-81646181D01*
X62308007Y-81642776D01*
X62308500Y-81639614D01*
X62308500Y-81607673D01*
X62308517Y-81605595D01*
X62309524Y-81544539D01*
X62309672Y-81535565D01*
X62308728Y-81532127D01*
X62308500Y-81528507D01*
X62308500Y-81146558D01*
X62328502Y-81078437D01*
X62382158Y-81031944D01*
X62452432Y-81021840D01*
X62510065Y-81045732D01*
X62583295Y-81100615D01*
X62719684Y-81151745D01*
X62781866Y-81158500D01*
X64578134Y-81158500D01*
X64640316Y-81151745D01*
X64776705Y-81100615D01*
X64893261Y-81013261D01*
X64980615Y-80896705D01*
X65031745Y-80760316D01*
X65038500Y-80698134D01*
X65038500Y-80200000D01*
X92286496Y-80200000D01*
X92306458Y-80389928D01*
X92365473Y-80571556D01*
X92368776Y-80577278D01*
X92368777Y-80577279D01*
X92402686Y-80636010D01*
X92460960Y-80736944D01*
X92465378Y-80741851D01*
X92465379Y-80741852D01*
X92482004Y-80760316D01*
X92588747Y-80878866D01*
X92743248Y-80991118D01*
X92749276Y-80993802D01*
X92749278Y-80993803D01*
X92911681Y-81066109D01*
X92917712Y-81068794D01*
X93011113Y-81088647D01*
X93098056Y-81107128D01*
X93098061Y-81107128D01*
X93104513Y-81108500D01*
X93295487Y-81108500D01*
X93301939Y-81107128D01*
X93301944Y-81107128D01*
X93388887Y-81088647D01*
X93482288Y-81068794D01*
X93488319Y-81066109D01*
X93650722Y-80993803D01*
X93650724Y-80993802D01*
X93656752Y-80991118D01*
X93811253Y-80878866D01*
X93917996Y-80760316D01*
X93934621Y-80741852D01*
X93934622Y-80741851D01*
X93939040Y-80736944D01*
X93997314Y-80636010D01*
X94031223Y-80577279D01*
X94031224Y-80577278D01*
X94034527Y-80571556D01*
X94093542Y-80389928D01*
X94113504Y-80200000D01*
X94093542Y-80010072D01*
X94034527Y-79828444D01*
X93939040Y-79663056D01*
X93811253Y-79521134D01*
X93656752Y-79408882D01*
X93650724Y-79406198D01*
X93650722Y-79406197D01*
X93488319Y-79333891D01*
X93488318Y-79333891D01*
X93482288Y-79331206D01*
X93388012Y-79311167D01*
X93301944Y-79292872D01*
X93301939Y-79292872D01*
X93295487Y-79291500D01*
X93104513Y-79291500D01*
X93098061Y-79292872D01*
X93098056Y-79292872D01*
X93011988Y-79311167D01*
X92917712Y-79331206D01*
X92911682Y-79333891D01*
X92911681Y-79333891D01*
X92749278Y-79406197D01*
X92749276Y-79406198D01*
X92743248Y-79408882D01*
X92588747Y-79521134D01*
X92460960Y-79663056D01*
X92365473Y-79828444D01*
X92306458Y-80010072D01*
X92286496Y-80200000D01*
X65038500Y-80200000D01*
X65038500Y-78901866D01*
X65031745Y-78839684D01*
X64980615Y-78703295D01*
X64893261Y-78586739D01*
X64776705Y-78499385D01*
X64764132Y-78494672D01*
X64658203Y-78454960D01*
X64601439Y-78412318D01*
X64576739Y-78345756D01*
X64591947Y-78276408D01*
X64613493Y-78247727D01*
X64714435Y-78147137D01*
X64718096Y-78143489D01*
X64848453Y-77962077D01*
X64947430Y-77761811D01*
X65012370Y-77548069D01*
X65041529Y-77326590D01*
X65042353Y-77292872D01*
X65043074Y-77263365D01*
X65043074Y-77263361D01*
X65043156Y-77260000D01*
X65024852Y-77037361D01*
X64970431Y-76820702D01*
X64881354Y-76615840D01*
X64841906Y-76554862D01*
X64762822Y-76432617D01*
X64762820Y-76432614D01*
X64760014Y-76428277D01*
X64609670Y-76263051D01*
X64605619Y-76259852D01*
X64605615Y-76259848D01*
X64438414Y-76127800D01*
X64438410Y-76127798D01*
X64434359Y-76124598D01*
X64238789Y-76016638D01*
X64233920Y-76014914D01*
X64233916Y-76014912D01*
X64033087Y-75943795D01*
X64033083Y-75943794D01*
X64028212Y-75942069D01*
X64023119Y-75941162D01*
X64023116Y-75941161D01*
X63813373Y-75903800D01*
X63813367Y-75903799D01*
X63808284Y-75902894D01*
X63734452Y-75901992D01*
X63590081Y-75900228D01*
X63590079Y-75900228D01*
X63584911Y-75900165D01*
X63364091Y-75933955D01*
X63151756Y-76003357D01*
X62953607Y-76106507D01*
X62949474Y-76109610D01*
X62949471Y-76109612D01*
X62859347Y-76177279D01*
X62774965Y-76240635D01*
X62620629Y-76402138D01*
X62617715Y-76406410D01*
X62617714Y-76406411D01*
X62538588Y-76522406D01*
X62483677Y-76567409D01*
X62413152Y-76575580D01*
X62349405Y-76544326D01*
X62312675Y-76483569D01*
X62308500Y-76451402D01*
X62308500Y-75800000D01*
X103886496Y-75800000D01*
X103906458Y-75989928D01*
X103965473Y-76171556D01*
X104060960Y-76336944D01*
X104065378Y-76341851D01*
X104065379Y-76341852D01*
X104147104Y-76432617D01*
X104188747Y-76478866D01*
X104278845Y-76544326D01*
X104337140Y-76586680D01*
X104343248Y-76591118D01*
X104349276Y-76593802D01*
X104349278Y-76593803D01*
X104511681Y-76666109D01*
X104517712Y-76668794D01*
X104611112Y-76688647D01*
X104698056Y-76707128D01*
X104698061Y-76707128D01*
X104704513Y-76708500D01*
X104895487Y-76708500D01*
X104901939Y-76707128D01*
X104901944Y-76707128D01*
X104988888Y-76688647D01*
X105082288Y-76668794D01*
X105088319Y-76666109D01*
X105250722Y-76593803D01*
X105250724Y-76593802D01*
X105256752Y-76591118D01*
X105262861Y-76586680D01*
X105321155Y-76544326D01*
X105411253Y-76478866D01*
X105452896Y-76432617D01*
X105534621Y-76341852D01*
X105534622Y-76341851D01*
X105539040Y-76336944D01*
X105634527Y-76171556D01*
X105693542Y-75989928D01*
X105713504Y-75800000D01*
X105693542Y-75610072D01*
X105634527Y-75428444D01*
X105539040Y-75263056D01*
X105411253Y-75121134D01*
X105256752Y-75008882D01*
X105250724Y-75006198D01*
X105250722Y-75006197D01*
X105088319Y-74933891D01*
X105088318Y-74933891D01*
X105082288Y-74931206D01*
X104988888Y-74911353D01*
X104901944Y-74892872D01*
X104901939Y-74892872D01*
X104895487Y-74891500D01*
X104704513Y-74891500D01*
X104698061Y-74892872D01*
X104698056Y-74892872D01*
X104611112Y-74911353D01*
X104517712Y-74931206D01*
X104511682Y-74933891D01*
X104511681Y-74933891D01*
X104349278Y-75006197D01*
X104349276Y-75006198D01*
X104343248Y-75008882D01*
X104188747Y-75121134D01*
X104060960Y-75263056D01*
X103965473Y-75428444D01*
X103906458Y-75610072D01*
X103886496Y-75800000D01*
X62308500Y-75800000D01*
X62308500Y-74200000D01*
X71086496Y-74200000D01*
X71106458Y-74389928D01*
X71165473Y-74571556D01*
X71260960Y-74736944D01*
X71388747Y-74878866D01*
X71543248Y-74991118D01*
X71549276Y-74993802D01*
X71549278Y-74993803D01*
X71711681Y-75066109D01*
X71717712Y-75068794D01*
X71811113Y-75088647D01*
X71898056Y-75107128D01*
X71898061Y-75107128D01*
X71904513Y-75108500D01*
X72095487Y-75108500D01*
X72101939Y-75107128D01*
X72101944Y-75107128D01*
X72188887Y-75088647D01*
X72282288Y-75068794D01*
X72288319Y-75066109D01*
X72450722Y-74993803D01*
X72450724Y-74993802D01*
X72456752Y-74991118D01*
X72611253Y-74878866D01*
X72739040Y-74736944D01*
X72834527Y-74571556D01*
X72893542Y-74389928D01*
X72913504Y-74200000D01*
X72893542Y-74010072D01*
X72834527Y-73828444D01*
X72739040Y-73663056D01*
X72629819Y-73541753D01*
X72615675Y-73526045D01*
X72615674Y-73526044D01*
X72611253Y-73521134D01*
X72456752Y-73408882D01*
X72450724Y-73406198D01*
X72450722Y-73406197D01*
X72288319Y-73333891D01*
X72288318Y-73333891D01*
X72282288Y-73331206D01*
X72188887Y-73311353D01*
X72101944Y-73292872D01*
X72101939Y-73292872D01*
X72095487Y-73291500D01*
X71904513Y-73291500D01*
X71898061Y-73292872D01*
X71898056Y-73292872D01*
X71811113Y-73311353D01*
X71717712Y-73331206D01*
X71711682Y-73333891D01*
X71711681Y-73333891D01*
X71549278Y-73406197D01*
X71549276Y-73406198D01*
X71543248Y-73408882D01*
X71388747Y-73521134D01*
X71384326Y-73526044D01*
X71384325Y-73526045D01*
X71370182Y-73541753D01*
X71260960Y-73663056D01*
X71165473Y-73828444D01*
X71106458Y-74010072D01*
X71086496Y-74200000D01*
X62308500Y-74200000D01*
X62308500Y-72988824D01*
X62328502Y-72920703D01*
X62382158Y-72874210D01*
X62452432Y-72864106D01*
X62517012Y-72893600D01*
X62541933Y-72922990D01*
X62577287Y-72980683D01*
X62577291Y-72980688D01*
X62579987Y-72985088D01*
X62726250Y-73153938D01*
X62898126Y-73296632D01*
X63091000Y-73409338D01*
X63299692Y-73489030D01*
X63304760Y-73490061D01*
X63304763Y-73490062D01*
X63412017Y-73511883D01*
X63518597Y-73533567D01*
X63523772Y-73533757D01*
X63523774Y-73533757D01*
X63736673Y-73541564D01*
X63736677Y-73541564D01*
X63741837Y-73541753D01*
X63746957Y-73541097D01*
X63746959Y-73541097D01*
X63958288Y-73514025D01*
X63958289Y-73514025D01*
X63963416Y-73513368D01*
X63968366Y-73511883D01*
X64172429Y-73450661D01*
X64172434Y-73450659D01*
X64177384Y-73449174D01*
X64377994Y-73350896D01*
X64559860Y-73221173D01*
X64718096Y-73063489D01*
X64848453Y-72882077D01*
X64947430Y-72681811D01*
X65012370Y-72468069D01*
X65041529Y-72246590D01*
X65043156Y-72180000D01*
X65024852Y-71957361D01*
X64970431Y-71740702D01*
X64881354Y-71535840D01*
X64835701Y-71465271D01*
X64762822Y-71352617D01*
X64762820Y-71352614D01*
X64760014Y-71348277D01*
X64625092Y-71200000D01*
X78986496Y-71200000D01*
X78987186Y-71206565D01*
X79002537Y-71352617D01*
X79006458Y-71389928D01*
X79065473Y-71571556D01*
X79160960Y-71736944D01*
X79288747Y-71878866D01*
X79443248Y-71991118D01*
X79449276Y-71993802D01*
X79449278Y-71993803D01*
X79611681Y-72066109D01*
X79617712Y-72068794D01*
X79711113Y-72088647D01*
X79798056Y-72107128D01*
X79798061Y-72107128D01*
X79804513Y-72108500D01*
X79995487Y-72108500D01*
X80001939Y-72107128D01*
X80001944Y-72107128D01*
X80088887Y-72088647D01*
X80182288Y-72068794D01*
X80188319Y-72066109D01*
X80350722Y-71993803D01*
X80350724Y-71993802D01*
X80356752Y-71991118D01*
X80511253Y-71878866D01*
X80639040Y-71736944D01*
X80734527Y-71571556D01*
X80793542Y-71389928D01*
X80797464Y-71352617D01*
X80812814Y-71206565D01*
X80813504Y-71200000D01*
X80810243Y-71168971D01*
X80794232Y-71016635D01*
X80794232Y-71016633D01*
X80793542Y-71010072D01*
X80734527Y-70828444D01*
X80729784Y-70820228D01*
X80681699Y-70736944D01*
X80639040Y-70663056D01*
X80592695Y-70611584D01*
X80515675Y-70526045D01*
X80515674Y-70526044D01*
X80511253Y-70521134D01*
X80380375Y-70426045D01*
X80362094Y-70412763D01*
X80362093Y-70412762D01*
X80356752Y-70408882D01*
X80350724Y-70406198D01*
X80350722Y-70406197D01*
X80188319Y-70333891D01*
X80188318Y-70333891D01*
X80182288Y-70331206D01*
X80088887Y-70311353D01*
X80001944Y-70292872D01*
X80001939Y-70292872D01*
X79995487Y-70291500D01*
X79804513Y-70291500D01*
X79798061Y-70292872D01*
X79798056Y-70292872D01*
X79711113Y-70311353D01*
X79617712Y-70331206D01*
X79611682Y-70333891D01*
X79611681Y-70333891D01*
X79449278Y-70406197D01*
X79449276Y-70406198D01*
X79443248Y-70408882D01*
X79437907Y-70412762D01*
X79437906Y-70412763D01*
X79419625Y-70426045D01*
X79288747Y-70521134D01*
X79284326Y-70526044D01*
X79284325Y-70526045D01*
X79207306Y-70611584D01*
X79160960Y-70663056D01*
X79118301Y-70736944D01*
X79070217Y-70820228D01*
X79065473Y-70828444D01*
X79006458Y-71010072D01*
X79005768Y-71016633D01*
X79005768Y-71016635D01*
X78989757Y-71168971D01*
X78986496Y-71200000D01*
X64625092Y-71200000D01*
X64609670Y-71183051D01*
X64605619Y-71179852D01*
X64605615Y-71179848D01*
X64438414Y-71047800D01*
X64438410Y-71047798D01*
X64434359Y-71044598D01*
X64400816Y-71026081D01*
X64360442Y-71003794D01*
X64238789Y-70936638D01*
X64233920Y-70934914D01*
X64233916Y-70934912D01*
X64033087Y-70863795D01*
X64033083Y-70863794D01*
X64028212Y-70862069D01*
X64023119Y-70861162D01*
X64023116Y-70861161D01*
X63813373Y-70823800D01*
X63813367Y-70823799D01*
X63808284Y-70822894D01*
X63734452Y-70821992D01*
X63590081Y-70820228D01*
X63590079Y-70820228D01*
X63584911Y-70820165D01*
X63364091Y-70853955D01*
X63151756Y-70923357D01*
X63073455Y-70964118D01*
X63021589Y-70991118D01*
X62953607Y-71026507D01*
X62949474Y-71029610D01*
X62949471Y-71029612D01*
X62779100Y-71157530D01*
X62774965Y-71160635D01*
X62620629Y-71322138D01*
X62617715Y-71326410D01*
X62617714Y-71326411D01*
X62538588Y-71442406D01*
X62483677Y-71487409D01*
X62413152Y-71495580D01*
X62349405Y-71464326D01*
X62312675Y-71403569D01*
X62308500Y-71371402D01*
X62308500Y-69400000D01*
X63986496Y-69400000D01*
X63987186Y-69406565D01*
X63999228Y-69521134D01*
X64006458Y-69589928D01*
X64065473Y-69771556D01*
X64160960Y-69936944D01*
X64165378Y-69941851D01*
X64165379Y-69941852D01*
X64208667Y-69989928D01*
X64288747Y-70078866D01*
X64443248Y-70191118D01*
X64449276Y-70193802D01*
X64449278Y-70193803D01*
X64500560Y-70216635D01*
X64617712Y-70268794D01*
X64711113Y-70288647D01*
X64798056Y-70307128D01*
X64798061Y-70307128D01*
X64804513Y-70308500D01*
X64995487Y-70308500D01*
X65001939Y-70307128D01*
X65001944Y-70307128D01*
X65088887Y-70288647D01*
X65182288Y-70268794D01*
X65299440Y-70216635D01*
X65336803Y-70200000D01*
X70186496Y-70200000D01*
X70187186Y-70206565D01*
X70199719Y-70325806D01*
X70206458Y-70389928D01*
X70265473Y-70571556D01*
X70268776Y-70577278D01*
X70268777Y-70577279D01*
X70288284Y-70611066D01*
X70360960Y-70736944D01*
X70365378Y-70741851D01*
X70365379Y-70741852D01*
X70439165Y-70823800D01*
X70488747Y-70878866D01*
X70643248Y-70991118D01*
X70649276Y-70993802D01*
X70649278Y-70993803D01*
X70770558Y-71047800D01*
X70817712Y-71068794D01*
X70883365Y-71082749D01*
X70998056Y-71107128D01*
X70998061Y-71107128D01*
X71004513Y-71108500D01*
X71195487Y-71108500D01*
X71201939Y-71107128D01*
X71201944Y-71107128D01*
X71316635Y-71082749D01*
X71382288Y-71068794D01*
X71429442Y-71047800D01*
X71550722Y-70993803D01*
X71550724Y-70993802D01*
X71556752Y-70991118D01*
X71711253Y-70878866D01*
X71760835Y-70823800D01*
X71834621Y-70741852D01*
X71834622Y-70741851D01*
X71839040Y-70736944D01*
X71911716Y-70611066D01*
X71931223Y-70577279D01*
X71931224Y-70577278D01*
X71934527Y-70571556D01*
X71993542Y-70389928D01*
X72000282Y-70325806D01*
X72012814Y-70206565D01*
X72013504Y-70200000D01*
X72001181Y-70082749D01*
X71994232Y-70016635D01*
X71994232Y-70016633D01*
X71993542Y-70010072D01*
X71934527Y-69828444D01*
X71918105Y-69800000D01*
X86886496Y-69800000D01*
X86906458Y-69989928D01*
X86965473Y-70171556D01*
X87060960Y-70336944D01*
X87065378Y-70341851D01*
X87065379Y-70341852D01*
X87184325Y-70473955D01*
X87188747Y-70478866D01*
X87241579Y-70517251D01*
X87324263Y-70577325D01*
X87367617Y-70633548D01*
X87373692Y-70704284D01*
X87366585Y-70726518D01*
X87365473Y-70728444D01*
X87363433Y-70734724D01*
X87363432Y-70734725D01*
X87335671Y-70820165D01*
X87306458Y-70910072D01*
X87305768Y-70916633D01*
X87305768Y-70916635D01*
X87295948Y-71010072D01*
X87286496Y-71100000D01*
X87287186Y-71106565D01*
X87303955Y-71266109D01*
X87306458Y-71289928D01*
X87365473Y-71471556D01*
X87460960Y-71636944D01*
X87588747Y-71778866D01*
X87687843Y-71850864D01*
X87726385Y-71878866D01*
X87743248Y-71891118D01*
X87749276Y-71893802D01*
X87749278Y-71893803D01*
X87911681Y-71966109D01*
X87917712Y-71968794D01*
X88004479Y-71987237D01*
X88098056Y-72007128D01*
X88098061Y-72007128D01*
X88104513Y-72008500D01*
X88295487Y-72008500D01*
X88301939Y-72007128D01*
X88301944Y-72007128D01*
X88395521Y-71987237D01*
X88482288Y-71968794D01*
X88488319Y-71966109D01*
X88650722Y-71893803D01*
X88650724Y-71893802D01*
X88656752Y-71891118D01*
X88673616Y-71878866D01*
X88712157Y-71850864D01*
X88811253Y-71778866D01*
X88939040Y-71636944D01*
X89034527Y-71471556D01*
X89093542Y-71289928D01*
X89096046Y-71266109D01*
X89112814Y-71106565D01*
X89113504Y-71100000D01*
X89104052Y-71010072D01*
X89094232Y-70916635D01*
X89094232Y-70916633D01*
X89093542Y-70910072D01*
X89034527Y-70728444D01*
X88939040Y-70563056D01*
X88860330Y-70475639D01*
X88815675Y-70426045D01*
X88815674Y-70426044D01*
X88811253Y-70421134D01*
X88782165Y-70400000D01*
X94080246Y-70400000D01*
X94080936Y-70406565D01*
X94098879Y-70577279D01*
X94100208Y-70589928D01*
X94159223Y-70771556D01*
X94162526Y-70777278D01*
X94162527Y-70777279D01*
X94188763Y-70822721D01*
X94254710Y-70936944D01*
X94259128Y-70941851D01*
X94259129Y-70941852D01*
X94373428Y-71068794D01*
X94382497Y-71078866D01*
X94444298Y-71123767D01*
X94511508Y-71172598D01*
X94536998Y-71191118D01*
X94543026Y-71193802D01*
X94543028Y-71193803D01*
X94705431Y-71266109D01*
X94711462Y-71268794D01*
X94780013Y-71283365D01*
X94891806Y-71307128D01*
X94891811Y-71307128D01*
X94898263Y-71308500D01*
X95089237Y-71308500D01*
X95095689Y-71307128D01*
X95095694Y-71307128D01*
X95207487Y-71283365D01*
X95276038Y-71268794D01*
X95282069Y-71266109D01*
X95444472Y-71193803D01*
X95444474Y-71193802D01*
X95450502Y-71191118D01*
X95475993Y-71172598D01*
X95543202Y-71123767D01*
X95605003Y-71078866D01*
X95614072Y-71068794D01*
X95728371Y-70941852D01*
X95728372Y-70941851D01*
X95732790Y-70936944D01*
X95798737Y-70822721D01*
X95824973Y-70777279D01*
X95824974Y-70777278D01*
X95828277Y-70771556D01*
X95887292Y-70589928D01*
X95888622Y-70577279D01*
X95906564Y-70406565D01*
X95907254Y-70400000D01*
X95901358Y-70343898D01*
X95887982Y-70216635D01*
X95887982Y-70216633D01*
X95887292Y-70210072D01*
X95828277Y-70028444D01*
X95809665Y-69996206D01*
X95738089Y-69872234D01*
X95721351Y-69803239D01*
X95744571Y-69736147D01*
X95753560Y-69724938D01*
X95832790Y-69636944D01*
X95928277Y-69471556D01*
X95987292Y-69289928D01*
X95989516Y-69268774D01*
X96006564Y-69106565D01*
X96007254Y-69100000D01*
X95994140Y-68975230D01*
X95987982Y-68916635D01*
X95987982Y-68916633D01*
X95987292Y-68910072D01*
X95928277Y-68728444D01*
X95832790Y-68563056D01*
X95806907Y-68534310D01*
X95776189Y-68470303D01*
X95784954Y-68399849D01*
X95806907Y-68365690D01*
X95828371Y-68341852D01*
X95828372Y-68341851D01*
X95832790Y-68336944D01*
X95928277Y-68171556D01*
X95987292Y-67989928D01*
X95990867Y-67955920D01*
X96006564Y-67806565D01*
X96007254Y-67800000D01*
X95987292Y-67610072D01*
X95928277Y-67428444D01*
X95832790Y-67263056D01*
X95753570Y-67175074D01*
X95722855Y-67111069D01*
X95731618Y-67040616D01*
X95738089Y-67027766D01*
X95824973Y-66877279D01*
X95824974Y-66877278D01*
X95828277Y-66871556D01*
X95887292Y-66689928D01*
X95907254Y-66500000D01*
X95901521Y-66445449D01*
X95887982Y-66316635D01*
X95887982Y-66316633D01*
X95887292Y-66310072D01*
X95828277Y-66128444D01*
X95732790Y-65963056D01*
X95605003Y-65821134D01*
X95450502Y-65708882D01*
X95444474Y-65706198D01*
X95444472Y-65706197D01*
X95282069Y-65633891D01*
X95282068Y-65633891D01*
X95276038Y-65631206D01*
X95182638Y-65611353D01*
X95095694Y-65592872D01*
X95095689Y-65592872D01*
X95089237Y-65591500D01*
X94898263Y-65591500D01*
X94891811Y-65592872D01*
X94891806Y-65592872D01*
X94804862Y-65611353D01*
X94711462Y-65631206D01*
X94705432Y-65633891D01*
X94705431Y-65633891D01*
X94543028Y-65706197D01*
X94543026Y-65706198D01*
X94536998Y-65708882D01*
X94382497Y-65821134D01*
X94254710Y-65963056D01*
X94159223Y-66128444D01*
X94100208Y-66310072D01*
X94099518Y-66316633D01*
X94099518Y-66316635D01*
X94085979Y-66445449D01*
X94080246Y-66500000D01*
X94100208Y-66689928D01*
X94159223Y-66871556D01*
X94254710Y-67036944D01*
X94333930Y-67124926D01*
X94364645Y-67188931D01*
X94355882Y-67259384D01*
X94349411Y-67272234D01*
X94259223Y-67428444D01*
X94200208Y-67610072D01*
X94180246Y-67800000D01*
X94180936Y-67806565D01*
X94196634Y-67955920D01*
X94200208Y-67989928D01*
X94259223Y-68171556D01*
X94354710Y-68336944D01*
X94359128Y-68341851D01*
X94359129Y-68341852D01*
X94380593Y-68365690D01*
X94411311Y-68429697D01*
X94402546Y-68500151D01*
X94380593Y-68534310D01*
X94354710Y-68563056D01*
X94259223Y-68728444D01*
X94200208Y-68910072D01*
X94199518Y-68916633D01*
X94199518Y-68916635D01*
X94193360Y-68975230D01*
X94180246Y-69100000D01*
X94180936Y-69106565D01*
X94197985Y-69268774D01*
X94200208Y-69289928D01*
X94259223Y-69471556D01*
X94262526Y-69477278D01*
X94262527Y-69477279D01*
X94349411Y-69627766D01*
X94366149Y-69696761D01*
X94342929Y-69763853D01*
X94333940Y-69775062D01*
X94254710Y-69863056D01*
X94159223Y-70028444D01*
X94100208Y-70210072D01*
X94099518Y-70216633D01*
X94099518Y-70216635D01*
X94086142Y-70343898D01*
X94080246Y-70400000D01*
X88782165Y-70400000D01*
X88744038Y-70372299D01*
X88675737Y-70322675D01*
X88632383Y-70266452D01*
X88626308Y-70195716D01*
X88633415Y-70173482D01*
X88634527Y-70171556D01*
X88693542Y-69989928D01*
X88713504Y-69800000D01*
X88696882Y-69641847D01*
X88694232Y-69616635D01*
X88694232Y-69616633D01*
X88693542Y-69610072D01*
X88634527Y-69428444D01*
X88539040Y-69263056D01*
X88497243Y-69216635D01*
X88415675Y-69126045D01*
X88415674Y-69126044D01*
X88411253Y-69121134D01*
X88256752Y-69008882D01*
X88250724Y-69006198D01*
X88250722Y-69006197D01*
X88088319Y-68933891D01*
X88088318Y-68933891D01*
X88082288Y-68931206D01*
X87982861Y-68910072D01*
X87901944Y-68892872D01*
X87901939Y-68892872D01*
X87895487Y-68891500D01*
X87704513Y-68891500D01*
X87698061Y-68892872D01*
X87698056Y-68892872D01*
X87617139Y-68910072D01*
X87517712Y-68931206D01*
X87511682Y-68933891D01*
X87511681Y-68933891D01*
X87349278Y-69006197D01*
X87349276Y-69006198D01*
X87343248Y-69008882D01*
X87188747Y-69121134D01*
X87184326Y-69126044D01*
X87184325Y-69126045D01*
X87102758Y-69216635D01*
X87060960Y-69263056D01*
X86965473Y-69428444D01*
X86906458Y-69610072D01*
X86905768Y-69616633D01*
X86905768Y-69616635D01*
X86903118Y-69641847D01*
X86886496Y-69800000D01*
X71918105Y-69800000D01*
X71918080Y-69799956D01*
X71860395Y-69700044D01*
X71839040Y-69663056D01*
X71819944Y-69641847D01*
X71715675Y-69526045D01*
X71715674Y-69526044D01*
X71711253Y-69521134D01*
X71556752Y-69408882D01*
X71550724Y-69406198D01*
X71550722Y-69406197D01*
X71388319Y-69333891D01*
X71388318Y-69333891D01*
X71382288Y-69331206D01*
X71288887Y-69311353D01*
X71201944Y-69292872D01*
X71201939Y-69292872D01*
X71195487Y-69291500D01*
X71004513Y-69291500D01*
X70998061Y-69292872D01*
X70998056Y-69292872D01*
X70911113Y-69311353D01*
X70817712Y-69331206D01*
X70811682Y-69333891D01*
X70811681Y-69333891D01*
X70649278Y-69406197D01*
X70649276Y-69406198D01*
X70643248Y-69408882D01*
X70488747Y-69521134D01*
X70484326Y-69526044D01*
X70484325Y-69526045D01*
X70380057Y-69641847D01*
X70360960Y-69663056D01*
X70339605Y-69700044D01*
X70281921Y-69799956D01*
X70265473Y-69828444D01*
X70206458Y-70010072D01*
X70205768Y-70016633D01*
X70205768Y-70016635D01*
X70198819Y-70082749D01*
X70186496Y-70200000D01*
X65336803Y-70200000D01*
X65350722Y-70193803D01*
X65350724Y-70193802D01*
X65356752Y-70191118D01*
X65511253Y-70078866D01*
X65591333Y-69989928D01*
X65634621Y-69941852D01*
X65634622Y-69941851D01*
X65639040Y-69936944D01*
X65734527Y-69771556D01*
X65793542Y-69589928D01*
X65800773Y-69521134D01*
X65812814Y-69406565D01*
X65813504Y-69400000D01*
X65793542Y-69210072D01*
X65734527Y-69028444D01*
X65639040Y-68863056D01*
X65511253Y-68721134D01*
X65356752Y-68608882D01*
X65350724Y-68606198D01*
X65350722Y-68606197D01*
X65188319Y-68533891D01*
X65188318Y-68533891D01*
X65182288Y-68531206D01*
X65088887Y-68511353D01*
X65001944Y-68492872D01*
X65001939Y-68492872D01*
X64995487Y-68491500D01*
X64804513Y-68491500D01*
X64798061Y-68492872D01*
X64798056Y-68492872D01*
X64711113Y-68511353D01*
X64617712Y-68531206D01*
X64611682Y-68533891D01*
X64611681Y-68533891D01*
X64449278Y-68606197D01*
X64449276Y-68606198D01*
X64443248Y-68608882D01*
X64288747Y-68721134D01*
X64160960Y-68863056D01*
X64065473Y-69028444D01*
X64006458Y-69210072D01*
X63986496Y-69400000D01*
X62308500Y-69400000D01*
X62308500Y-64800000D01*
X101586496Y-64800000D01*
X101606458Y-64989928D01*
X101665473Y-65171556D01*
X101760960Y-65336944D01*
X101888747Y-65478866D01*
X102043248Y-65591118D01*
X102049276Y-65593802D01*
X102049278Y-65593803D01*
X102139318Y-65633891D01*
X102217712Y-65668794D01*
X102311113Y-65688647D01*
X102398056Y-65707128D01*
X102398061Y-65707128D01*
X102404513Y-65708500D01*
X102595487Y-65708500D01*
X102601939Y-65707128D01*
X102601944Y-65707128D01*
X102688887Y-65688647D01*
X102782288Y-65668794D01*
X102860682Y-65633891D01*
X102950722Y-65593803D01*
X102950724Y-65593802D01*
X102956752Y-65591118D01*
X103111253Y-65478866D01*
X103239040Y-65336944D01*
X103334527Y-65171556D01*
X103393542Y-64989928D01*
X103413504Y-64800000D01*
X103393542Y-64610072D01*
X103334527Y-64428444D01*
X103239040Y-64263056D01*
X103111253Y-64121134D01*
X102956752Y-64008882D01*
X102950724Y-64006198D01*
X102950722Y-64006197D01*
X102788319Y-63933891D01*
X102788318Y-63933891D01*
X102782288Y-63931206D01*
X102688888Y-63911353D01*
X102601944Y-63892872D01*
X102601939Y-63892872D01*
X102595487Y-63891500D01*
X102404513Y-63891500D01*
X102398061Y-63892872D01*
X102398056Y-63892872D01*
X102311112Y-63911353D01*
X102217712Y-63931206D01*
X102211682Y-63933891D01*
X102211681Y-63933891D01*
X102049278Y-64006197D01*
X102049276Y-64006198D01*
X102043248Y-64008882D01*
X101888747Y-64121134D01*
X101760960Y-64263056D01*
X101665473Y-64428444D01*
X101606458Y-64610072D01*
X101586496Y-64800000D01*
X62308500Y-64800000D01*
X62308500Y-63000000D01*
X66186496Y-63000000D01*
X66187186Y-63006565D01*
X66203131Y-63158269D01*
X66206458Y-63189928D01*
X66265473Y-63371556D01*
X66268776Y-63377278D01*
X66268777Y-63377279D01*
X66274802Y-63387715D01*
X66360960Y-63536944D01*
X66488747Y-63678866D01*
X66550548Y-63723767D01*
X66626385Y-63778866D01*
X66643248Y-63791118D01*
X66649276Y-63793802D01*
X66649278Y-63793803D01*
X66811681Y-63866109D01*
X66817712Y-63868794D01*
X66904479Y-63887237D01*
X66998056Y-63907128D01*
X66998061Y-63907128D01*
X67004513Y-63908500D01*
X67195487Y-63908500D01*
X67201939Y-63907128D01*
X67201944Y-63907128D01*
X67295521Y-63887237D01*
X67382288Y-63868794D01*
X67388319Y-63866109D01*
X67550722Y-63793803D01*
X67550724Y-63793802D01*
X67556752Y-63791118D01*
X67573616Y-63778866D01*
X67649452Y-63723767D01*
X67711253Y-63678866D01*
X67839040Y-63536944D01*
X67925198Y-63387715D01*
X67931223Y-63377279D01*
X67931224Y-63377278D01*
X67934527Y-63371556D01*
X67993542Y-63189928D01*
X67996870Y-63158269D01*
X68012814Y-63006565D01*
X68013504Y-63000000D01*
X68004052Y-62910072D01*
X67994232Y-62816635D01*
X67994232Y-62816633D01*
X67993542Y-62810072D01*
X67934527Y-62628444D01*
X67839040Y-62463056D01*
X67711253Y-62321134D01*
X67556752Y-62208882D01*
X67550724Y-62206198D01*
X67550722Y-62206197D01*
X67388319Y-62133891D01*
X67388318Y-62133891D01*
X67382288Y-62131206D01*
X67266362Y-62106565D01*
X67235477Y-62100000D01*
X84586496Y-62100000D01*
X84606458Y-62289928D01*
X84665473Y-62471556D01*
X84760960Y-62636944D01*
X84888747Y-62778866D01*
X85043248Y-62891118D01*
X85049276Y-62893802D01*
X85049278Y-62893803D01*
X85161794Y-62943898D01*
X85217712Y-62968794D01*
X85311113Y-62988647D01*
X85398056Y-63007128D01*
X85398061Y-63007128D01*
X85404513Y-63008500D01*
X85595487Y-63008500D01*
X85601939Y-63007128D01*
X85601944Y-63007128D01*
X85688887Y-62988647D01*
X85782288Y-62968794D01*
X85838206Y-62943898D01*
X85950722Y-62893803D01*
X85950724Y-62893802D01*
X85956752Y-62891118D01*
X86000309Y-62859472D01*
X86067174Y-62835615D01*
X86136326Y-62851695D01*
X86185806Y-62902608D01*
X86199678Y-62974579D01*
X86186496Y-63100000D01*
X86187186Y-63106565D01*
X86203314Y-63260011D01*
X86206458Y-63289928D01*
X86265473Y-63471556D01*
X86360960Y-63636944D01*
X86365378Y-63641851D01*
X86365379Y-63641852D01*
X86482335Y-63771745D01*
X86488747Y-63778866D01*
X86643248Y-63891118D01*
X86649276Y-63893802D01*
X86649278Y-63893803D01*
X86739318Y-63933891D01*
X86817712Y-63968794D01*
X86911112Y-63988647D01*
X86998056Y-64007128D01*
X86998061Y-64007128D01*
X87004513Y-64008500D01*
X87195487Y-64008500D01*
X87201939Y-64007128D01*
X87201944Y-64007128D01*
X87288888Y-63988647D01*
X87382288Y-63968794D01*
X87460682Y-63933891D01*
X87550722Y-63893803D01*
X87550724Y-63893802D01*
X87556752Y-63891118D01*
X87711253Y-63778866D01*
X87717665Y-63771745D01*
X87834621Y-63641852D01*
X87834622Y-63641851D01*
X87839040Y-63636944D01*
X87934527Y-63471556D01*
X87993542Y-63289928D01*
X87996687Y-63260011D01*
X88012814Y-63106565D01*
X88013504Y-63100000D01*
X88007998Y-63047609D01*
X87994232Y-62916635D01*
X87994232Y-62916633D01*
X87993542Y-62910072D01*
X87934527Y-62728444D01*
X87839040Y-62563056D01*
X87711253Y-62421134D01*
X87580375Y-62326045D01*
X87562094Y-62312763D01*
X87562093Y-62312762D01*
X87556752Y-62308882D01*
X87550724Y-62306198D01*
X87550722Y-62306197D01*
X87384269Y-62232088D01*
X87330173Y-62186108D01*
X87309524Y-62118181D01*
X87328876Y-62049873D01*
X87361457Y-62015045D01*
X87405909Y-61982749D01*
X87405911Y-61982747D01*
X87411253Y-61978866D01*
X87539040Y-61836944D01*
X87634527Y-61671556D01*
X87692616Y-61492778D01*
X87732690Y-61434173D01*
X87798087Y-61406536D01*
X87868043Y-61418643D01*
X87921568Y-61468715D01*
X87960960Y-61536944D01*
X88088747Y-61678866D01*
X88243248Y-61791118D01*
X88249276Y-61793802D01*
X88249278Y-61793803D01*
X88333332Y-61831226D01*
X88417712Y-61868794D01*
X88511112Y-61888647D01*
X88598056Y-61907128D01*
X88598061Y-61907128D01*
X88604513Y-61908500D01*
X88795487Y-61908500D01*
X88801939Y-61907128D01*
X88801944Y-61907128D01*
X88888888Y-61888647D01*
X88982288Y-61868794D01*
X89066668Y-61831226D01*
X89150722Y-61793803D01*
X89150724Y-61793802D01*
X89156752Y-61791118D01*
X89311253Y-61678866D01*
X89439040Y-61536944D01*
X89534527Y-61371556D01*
X89593542Y-61189928D01*
X89599881Y-61129621D01*
X89612814Y-61006565D01*
X89613504Y-61000000D01*
X89599402Y-60865827D01*
X89594232Y-60816635D01*
X89594232Y-60816633D01*
X89593542Y-60810072D01*
X89534527Y-60628444D01*
X89528653Y-60618269D01*
X89464763Y-60507609D01*
X89439040Y-60463056D01*
X89344383Y-60357928D01*
X89315675Y-60326045D01*
X89315674Y-60326044D01*
X89311253Y-60321134D01*
X89186182Y-60230264D01*
X89162094Y-60212763D01*
X89162093Y-60212762D01*
X89156752Y-60208882D01*
X89150724Y-60206198D01*
X89150722Y-60206197D01*
X88988319Y-60133891D01*
X88988318Y-60133891D01*
X88982288Y-60131206D01*
X88888888Y-60111353D01*
X88801944Y-60092872D01*
X88801939Y-60092872D01*
X88795487Y-60091500D01*
X88604513Y-60091500D01*
X88598061Y-60092872D01*
X88598056Y-60092872D01*
X88511112Y-60111353D01*
X88417712Y-60131206D01*
X88411682Y-60133891D01*
X88411681Y-60133891D01*
X88249278Y-60206197D01*
X88249276Y-60206198D01*
X88243248Y-60208882D01*
X88237907Y-60212762D01*
X88237906Y-60212763D01*
X88213818Y-60230264D01*
X88088747Y-60321134D01*
X88084326Y-60326044D01*
X88084325Y-60326045D01*
X88055618Y-60357928D01*
X87960960Y-60463056D01*
X87935237Y-60507609D01*
X87871348Y-60618269D01*
X87865473Y-60628444D01*
X87841781Y-60701360D01*
X87807384Y-60807222D01*
X87767310Y-60865827D01*
X87701913Y-60893464D01*
X87631957Y-60881357D01*
X87578432Y-60831285D01*
X87542341Y-60768774D01*
X87539040Y-60763056D01*
X87471640Y-60688200D01*
X87415675Y-60626045D01*
X87415674Y-60626044D01*
X87411253Y-60621134D01*
X87256752Y-60508882D01*
X87250724Y-60506198D01*
X87250722Y-60506197D01*
X87088319Y-60433891D01*
X87088318Y-60433891D01*
X87082288Y-60431206D01*
X86988887Y-60411353D01*
X86901944Y-60392872D01*
X86901939Y-60392872D01*
X86895487Y-60391500D01*
X86704513Y-60391500D01*
X86698061Y-60392872D01*
X86698056Y-60392872D01*
X86611113Y-60411353D01*
X86517712Y-60431206D01*
X86511682Y-60433891D01*
X86511681Y-60433891D01*
X86349278Y-60506197D01*
X86349276Y-60506198D01*
X86343248Y-60508882D01*
X86188747Y-60621134D01*
X86184326Y-60626044D01*
X86184325Y-60626045D01*
X86128361Y-60688200D01*
X86060960Y-60763056D01*
X85965473Y-60928444D01*
X85906458Y-61110072D01*
X85905768Y-61116636D01*
X85904394Y-61123100D01*
X85902807Y-61122763D01*
X85878912Y-61180854D01*
X85820693Y-61221488D01*
X85754413Y-61225281D01*
X85701256Y-61213982D01*
X85601944Y-61192872D01*
X85601939Y-61192872D01*
X85595487Y-61191500D01*
X85404513Y-61191500D01*
X85398061Y-61192872D01*
X85398056Y-61192872D01*
X85311113Y-61211353D01*
X85217712Y-61231206D01*
X85211682Y-61233891D01*
X85211681Y-61233891D01*
X85049278Y-61306197D01*
X85049276Y-61306198D01*
X85043248Y-61308882D01*
X84888747Y-61421134D01*
X84884326Y-61426044D01*
X84884325Y-61426045D01*
X84824239Y-61492778D01*
X84760960Y-61563056D01*
X84665473Y-61728444D01*
X84606458Y-61910072D01*
X84605768Y-61916633D01*
X84605768Y-61916635D01*
X84598819Y-61982749D01*
X84586496Y-62100000D01*
X67235477Y-62100000D01*
X67201944Y-62092872D01*
X67201939Y-62092872D01*
X67195487Y-62091500D01*
X67004513Y-62091500D01*
X66998061Y-62092872D01*
X66998056Y-62092872D01*
X66933638Y-62106565D01*
X66817712Y-62131206D01*
X66811682Y-62133891D01*
X66811681Y-62133891D01*
X66649278Y-62206197D01*
X66649276Y-62206198D01*
X66643248Y-62208882D01*
X66488747Y-62321134D01*
X66360960Y-62463056D01*
X66265473Y-62628444D01*
X66206458Y-62810072D01*
X66205768Y-62816633D01*
X66205768Y-62816635D01*
X66195948Y-62910072D01*
X66186496Y-63000000D01*
X62308500Y-63000000D01*
X62308500Y-56500000D01*
X77386496Y-56500000D01*
X77406458Y-56689928D01*
X77465473Y-56871556D01*
X77560960Y-57036944D01*
X77688747Y-57178866D01*
X77843248Y-57291118D01*
X77849276Y-57293802D01*
X77849278Y-57293803D01*
X78011681Y-57366109D01*
X78017712Y-57368794D01*
X78111112Y-57388647D01*
X78198056Y-57407128D01*
X78198061Y-57407128D01*
X78204513Y-57408500D01*
X78395487Y-57408500D01*
X78401939Y-57407128D01*
X78401944Y-57407128D01*
X78488888Y-57388647D01*
X78582288Y-57368794D01*
X78588319Y-57366109D01*
X78750722Y-57293803D01*
X78750724Y-57293802D01*
X78756752Y-57291118D01*
X78762094Y-57287237D01*
X78825939Y-57240851D01*
X78892807Y-57216992D01*
X78961959Y-57233073D01*
X78974061Y-57240851D01*
X79037906Y-57287237D01*
X79043248Y-57291118D01*
X79049276Y-57293802D01*
X79049278Y-57293803D01*
X79211681Y-57366109D01*
X79217712Y-57368794D01*
X79311112Y-57388647D01*
X79398056Y-57407128D01*
X79398061Y-57407128D01*
X79404513Y-57408500D01*
X79595487Y-57408500D01*
X79601939Y-57407128D01*
X79601944Y-57407128D01*
X79688888Y-57388647D01*
X79782288Y-57368794D01*
X79788319Y-57366109D01*
X79950722Y-57293803D01*
X79950724Y-57293802D01*
X79956752Y-57291118D01*
X80111253Y-57178866D01*
X80239040Y-57036944D01*
X80334527Y-56871556D01*
X80393542Y-56689928D01*
X80413504Y-56500000D01*
X80393542Y-56310072D01*
X80334527Y-56128444D01*
X80239040Y-55963056D01*
X80111253Y-55821134D01*
X79956752Y-55708882D01*
X79950724Y-55706198D01*
X79950722Y-55706197D01*
X79788319Y-55633891D01*
X79788318Y-55633891D01*
X79782288Y-55631206D01*
X79688888Y-55611353D01*
X79601944Y-55592872D01*
X79601939Y-55592872D01*
X79595487Y-55591500D01*
X79404513Y-55591500D01*
X79398061Y-55592872D01*
X79398056Y-55592872D01*
X79311113Y-55611353D01*
X79217712Y-55631206D01*
X79211682Y-55633891D01*
X79211681Y-55633891D01*
X79049278Y-55706197D01*
X79049276Y-55706198D01*
X79043248Y-55708882D01*
X79037907Y-55712762D01*
X79037906Y-55712763D01*
X78974061Y-55759149D01*
X78907193Y-55783008D01*
X78838041Y-55766927D01*
X78825939Y-55759149D01*
X78762094Y-55712763D01*
X78762093Y-55712762D01*
X78756752Y-55708882D01*
X78750724Y-55706198D01*
X78750722Y-55706197D01*
X78588319Y-55633891D01*
X78588318Y-55633891D01*
X78582288Y-55631206D01*
X78488888Y-55611353D01*
X78401944Y-55592872D01*
X78401939Y-55592872D01*
X78395487Y-55591500D01*
X78204513Y-55591500D01*
X78198061Y-55592872D01*
X78198056Y-55592872D01*
X78111113Y-55611353D01*
X78017712Y-55631206D01*
X78011682Y-55633891D01*
X78011681Y-55633891D01*
X77849278Y-55706197D01*
X77849276Y-55706198D01*
X77843248Y-55708882D01*
X77688747Y-55821134D01*
X77560960Y-55963056D01*
X77465473Y-56128444D01*
X77406458Y-56310072D01*
X77386496Y-56500000D01*
X62308500Y-56500000D01*
X62308500Y-54200000D01*
X102786496Y-54200000D01*
X102806458Y-54389928D01*
X102865473Y-54571556D01*
X102960960Y-54736944D01*
X103088747Y-54878866D01*
X103243248Y-54991118D01*
X103249276Y-54993802D01*
X103249278Y-54993803D01*
X103411681Y-55066109D01*
X103417712Y-55068794D01*
X103511113Y-55088647D01*
X103598056Y-55107128D01*
X103598061Y-55107128D01*
X103604513Y-55108500D01*
X103795487Y-55108500D01*
X103801939Y-55107128D01*
X103801944Y-55107128D01*
X103888887Y-55088647D01*
X103982288Y-55068794D01*
X103988319Y-55066109D01*
X104150722Y-54993803D01*
X104150724Y-54993802D01*
X104156752Y-54991118D01*
X104311253Y-54878866D01*
X104439040Y-54736944D01*
X104534527Y-54571556D01*
X104593542Y-54389928D01*
X104613504Y-54200000D01*
X104593542Y-54010072D01*
X104534527Y-53828444D01*
X104439040Y-53663056D01*
X104311253Y-53521134D01*
X104156752Y-53408882D01*
X104150724Y-53406198D01*
X104150722Y-53406197D01*
X103988319Y-53333891D01*
X103988318Y-53333891D01*
X103982288Y-53331206D01*
X103888888Y-53311353D01*
X103801944Y-53292872D01*
X103801939Y-53292872D01*
X103795487Y-53291500D01*
X103604513Y-53291500D01*
X103598061Y-53292872D01*
X103598056Y-53292872D01*
X103511113Y-53311353D01*
X103417712Y-53331206D01*
X103411682Y-53333891D01*
X103411681Y-53333891D01*
X103249278Y-53406197D01*
X103249276Y-53406198D01*
X103243248Y-53408882D01*
X103088747Y-53521134D01*
X102960960Y-53663056D01*
X102865473Y-53828444D01*
X102806458Y-54010072D01*
X102786496Y-54200000D01*
X62308500Y-54200000D01*
X62308500Y-52377740D01*
X62328502Y-52309619D01*
X62382158Y-52263126D01*
X62452432Y-52253022D01*
X62472599Y-52257638D01*
X62638861Y-52310379D01*
X62644978Y-52311065D01*
X62644982Y-52311066D01*
X62721598Y-52319659D01*
X62800413Y-52328500D01*
X62912237Y-52328500D01*
X62915293Y-52328200D01*
X62915300Y-52328200D01*
X63060466Y-52313966D01*
X63060469Y-52313965D01*
X63066592Y-52313365D01*
X63198546Y-52273526D01*
X63259407Y-52255152D01*
X63259410Y-52255151D01*
X63265315Y-52253368D01*
X63270762Y-52250472D01*
X63443153Y-52158809D01*
X63443155Y-52158808D01*
X63448599Y-52155913D01*
X63508471Y-52107083D01*
X63604689Y-52028610D01*
X63604692Y-52028607D01*
X63609464Y-52024715D01*
X63624349Y-52006722D01*
X63717363Y-51894289D01*
X63776197Y-51854551D01*
X63847175Y-51852930D01*
X63907762Y-51889939D01*
X63930856Y-51926387D01*
X63962384Y-52002502D01*
X64094672Y-52218376D01*
X64259102Y-52410898D01*
X64451624Y-52575328D01*
X64667498Y-52707616D01*
X64672068Y-52709509D01*
X64672072Y-52709511D01*
X64896836Y-52802611D01*
X64901409Y-52804505D01*
X64986032Y-52824821D01*
X65142784Y-52862454D01*
X65142790Y-52862455D01*
X65147597Y-52863609D01*
X65400000Y-52883474D01*
X65652403Y-52863609D01*
X65657210Y-52862455D01*
X65657216Y-52862454D01*
X65813968Y-52824821D01*
X65898591Y-52804505D01*
X65903164Y-52802611D01*
X66127928Y-52709511D01*
X66127932Y-52709509D01*
X66132502Y-52707616D01*
X66348376Y-52575328D01*
X66540898Y-52410898D01*
X66705328Y-52218376D01*
X66837616Y-52002502D01*
X66882440Y-51894289D01*
X66932611Y-51773164D01*
X66932612Y-51773162D01*
X66934505Y-51768591D01*
X66993609Y-51522403D01*
X67013474Y-51270000D01*
X66993609Y-51017597D01*
X66934505Y-50771409D01*
X66882223Y-50645189D01*
X66839511Y-50542072D01*
X66839509Y-50542068D01*
X66837616Y-50537498D01*
X66761087Y-50412614D01*
X66742549Y-50344080D01*
X66764005Y-50276404D01*
X66792954Y-50245953D01*
X66814746Y-50229621D01*
X66863261Y-50193261D01*
X66950615Y-50076705D01*
X67001745Y-49940316D01*
X67008500Y-49878134D01*
X67008500Y-49600000D01*
X75886496Y-49600000D01*
X75887186Y-49606565D01*
X75904476Y-49771066D01*
X75906458Y-49789928D01*
X75965473Y-49971556D01*
X76060960Y-50136944D01*
X76065378Y-50141851D01*
X76065379Y-50141852D01*
X76128444Y-50211893D01*
X76188747Y-50278866D01*
X76343248Y-50391118D01*
X76349276Y-50393802D01*
X76349278Y-50393803D01*
X76511681Y-50466109D01*
X76517712Y-50468794D01*
X76611112Y-50488647D01*
X76698056Y-50507128D01*
X76698061Y-50507128D01*
X76704513Y-50508500D01*
X76895487Y-50508500D01*
X76901939Y-50507128D01*
X76901944Y-50507128D01*
X76988888Y-50488647D01*
X77082288Y-50468794D01*
X77088319Y-50466109D01*
X77250722Y-50393803D01*
X77250724Y-50393802D01*
X77256752Y-50391118D01*
X77411253Y-50278866D01*
X77471556Y-50211893D01*
X77534621Y-50141852D01*
X77534622Y-50141851D01*
X77539040Y-50136944D01*
X77634527Y-49971556D01*
X77693542Y-49789928D01*
X77695525Y-49771066D01*
X77712814Y-49606565D01*
X77713504Y-49600000D01*
X77693542Y-49410072D01*
X77634527Y-49228444D01*
X77539040Y-49063056D01*
X77411253Y-48921134D01*
X77256752Y-48808882D01*
X77250724Y-48806198D01*
X77250722Y-48806197D01*
X77088319Y-48733891D01*
X77088318Y-48733891D01*
X77082288Y-48731206D01*
X76988887Y-48711353D01*
X76901944Y-48692872D01*
X76901939Y-48692872D01*
X76895487Y-48691500D01*
X76704513Y-48691500D01*
X76698061Y-48692872D01*
X76698056Y-48692872D01*
X76611113Y-48711353D01*
X76517712Y-48731206D01*
X76511682Y-48733891D01*
X76511681Y-48733891D01*
X76349278Y-48806197D01*
X76349276Y-48806198D01*
X76343248Y-48808882D01*
X76188747Y-48921134D01*
X76060960Y-49063056D01*
X75965473Y-49228444D01*
X75906458Y-49410072D01*
X75886496Y-49600000D01*
X67008500Y-49600000D01*
X67008500Y-47581866D01*
X67001745Y-47519684D01*
X66950615Y-47383295D01*
X66863261Y-47266739D01*
X66746705Y-47179385D01*
X66610316Y-47128255D01*
X66548134Y-47121500D01*
X64251866Y-47121500D01*
X64189684Y-47128255D01*
X64053295Y-47179385D01*
X63936739Y-47266739D01*
X63849385Y-47383295D01*
X63798255Y-47519684D01*
X63791500Y-47581866D01*
X63791500Y-47859580D01*
X63771498Y-47927701D01*
X63717842Y-47974194D01*
X63647568Y-47984298D01*
X63584509Y-47956102D01*
X63538821Y-47917765D01*
X63460911Y-47852391D01*
X63455519Y-47849427D01*
X63455515Y-47849424D01*
X63284402Y-47755354D01*
X63279005Y-47752387D01*
X63081139Y-47689621D01*
X63075022Y-47688935D01*
X63075018Y-47688934D01*
X62998402Y-47680341D01*
X62919587Y-47671500D01*
X62807763Y-47671500D01*
X62804707Y-47671800D01*
X62804700Y-47671800D01*
X62659534Y-47686034D01*
X62659531Y-47686035D01*
X62653408Y-47686635D01*
X62594752Y-47704344D01*
X62470917Y-47741731D01*
X62399923Y-47742272D01*
X62339906Y-47704344D01*
X62309923Y-47639989D01*
X62308500Y-47621109D01*
X62308500Y-45547740D01*
X62328502Y-45479619D01*
X62382158Y-45433126D01*
X62452432Y-45423022D01*
X62472599Y-45427638D01*
X62638861Y-45480379D01*
X62644978Y-45481065D01*
X62644982Y-45481066D01*
X62721598Y-45489659D01*
X62800413Y-45498500D01*
X62912237Y-45498500D01*
X62915293Y-45498200D01*
X62915300Y-45498200D01*
X63060466Y-45483966D01*
X63060469Y-45483965D01*
X63066592Y-45483365D01*
X63198546Y-45443526D01*
X63259407Y-45425152D01*
X63259410Y-45425151D01*
X63265315Y-45423368D01*
X63270762Y-45420472D01*
X63443153Y-45328809D01*
X63443155Y-45328808D01*
X63448599Y-45325913D01*
X63508471Y-45277083D01*
X63604689Y-45198610D01*
X63604692Y-45198607D01*
X63609464Y-45194715D01*
X63624349Y-45176722D01*
X63717363Y-45064289D01*
X63776197Y-45024551D01*
X63847175Y-45022930D01*
X63907762Y-45059939D01*
X63930856Y-45096387D01*
X63962384Y-45172502D01*
X64094672Y-45388376D01*
X64259102Y-45580898D01*
X64451624Y-45745328D01*
X64667498Y-45877616D01*
X64672068Y-45879509D01*
X64672072Y-45879511D01*
X64896836Y-45972611D01*
X64901409Y-45974505D01*
X64986032Y-45994821D01*
X65142784Y-46032454D01*
X65142790Y-46032455D01*
X65147597Y-46033609D01*
X65400000Y-46053474D01*
X65652403Y-46033609D01*
X65657210Y-46032455D01*
X65657216Y-46032454D01*
X65813968Y-45994821D01*
X65898591Y-45974505D01*
X65903164Y-45972611D01*
X66127928Y-45879511D01*
X66127932Y-45879509D01*
X66132502Y-45877616D01*
X66348376Y-45745328D01*
X66540898Y-45580898D01*
X66705328Y-45388376D01*
X66837616Y-45172502D01*
X66871327Y-45091118D01*
X66932611Y-44943164D01*
X66932612Y-44943162D01*
X66934505Y-44938591D01*
X66993609Y-44692403D01*
X67013474Y-44440000D01*
X66993609Y-44187597D01*
X66934505Y-43941409D01*
X66918376Y-43902469D01*
X66839511Y-43712072D01*
X66839509Y-43712068D01*
X66837616Y-43707498D01*
X66790237Y-43630183D01*
X66761087Y-43582614D01*
X66742549Y-43514080D01*
X66764005Y-43446404D01*
X66792954Y-43415953D01*
X66797567Y-43412496D01*
X66863261Y-43363261D01*
X66950615Y-43246705D01*
X67001745Y-43110316D01*
X67008500Y-43048134D01*
X67008500Y-40751866D01*
X67001745Y-40689684D01*
X66950615Y-40553295D01*
X66863261Y-40436739D01*
X66746705Y-40349385D01*
X66610316Y-40298255D01*
X66548134Y-40291500D01*
X64251866Y-40291500D01*
X64189684Y-40298255D01*
X64053295Y-40349385D01*
X63936739Y-40436739D01*
X63849385Y-40553295D01*
X63798255Y-40689684D01*
X63791500Y-40751866D01*
X63791500Y-41029580D01*
X63771498Y-41097701D01*
X63717842Y-41144194D01*
X63647568Y-41154298D01*
X63584509Y-41126102D01*
X63532902Y-41082799D01*
X63460911Y-41022391D01*
X63455519Y-41019427D01*
X63455515Y-41019424D01*
X63284402Y-40925354D01*
X63279005Y-40922387D01*
X63081139Y-40859621D01*
X63075022Y-40858935D01*
X63075018Y-40858934D01*
X62998402Y-40850341D01*
X62919587Y-40841500D01*
X62807763Y-40841500D01*
X62804707Y-40841800D01*
X62804700Y-40841800D01*
X62659534Y-40856034D01*
X62659531Y-40856035D01*
X62653408Y-40856635D01*
X62594752Y-40874344D01*
X62470917Y-40911731D01*
X62399923Y-40912272D01*
X62339906Y-40874344D01*
X62309923Y-40809989D01*
X62308500Y-40791109D01*
X62308500Y-39931579D01*
X62309107Y-39919229D01*
X62312350Y-39886305D01*
X62312350Y-39886303D01*
X62313230Y-39877367D01*
X62302332Y-39819557D01*
X62301424Y-39814080D01*
X62294352Y-39764696D01*
X62293080Y-39755813D01*
X62289397Y-39747711D01*
X62289051Y-39746271D01*
X62288444Y-39744353D01*
X62287897Y-39742974D01*
X62286249Y-39734231D01*
X62259550Y-39681775D01*
X62257163Y-39676818D01*
X62232792Y-39623218D01*
X62226983Y-39616476D01*
X62226248Y-39615192D01*
X62225132Y-39613528D01*
X62224216Y-39612354D01*
X62220178Y-39604420D01*
X62214023Y-39597883D01*
X62214021Y-39597880D01*
X62179845Y-39561582D01*
X62176129Y-39557457D01*
X62143573Y-39519674D01*
X62137713Y-39512873D01*
X62099097Y-39487843D01*
X62090274Y-39481570D01*
X61999756Y-39411167D01*
X60361250Y-38136774D01*
X60343476Y-38119937D01*
X60336195Y-38111553D01*
X60323276Y-38103250D01*
X60303436Y-38087468D01*
X60151942Y-37939756D01*
X60139974Y-37926288D01*
X60020002Y-37770075D01*
X59995662Y-37738383D01*
X59985739Y-37723348D01*
X59869697Y-37516768D01*
X59862019Y-37500468D01*
X59776632Y-37279461D01*
X59771357Y-37262233D01*
X59718365Y-37031304D01*
X59715601Y-37013499D01*
X59696089Y-36777368D01*
X59695893Y-36759353D01*
X59710257Y-36522862D01*
X59712632Y-36505001D01*
X59760584Y-36272967D01*
X59765483Y-36255629D01*
X59846036Y-36032813D01*
X59853357Y-36016350D01*
X59856069Y-36011267D01*
X59964868Y-35807299D01*
X59974462Y-35792050D01*
X59994341Y-35764965D01*
X60114655Y-35601035D01*
X60126318Y-35587319D01*
X60292326Y-35418249D01*
X60305830Y-35406334D01*
X60444418Y-35300667D01*
X60494248Y-35262674D01*
X60509317Y-35252805D01*
X60716297Y-35137490D01*
X60732623Y-35129869D01*
X60953930Y-35045256D01*
X60971176Y-35040041D01*
X61202287Y-34987858D01*
X61220101Y-34985156D01*
X61296300Y-34979128D01*
X61456302Y-34966470D01*
X61474313Y-34966337D01*
X61609382Y-34975016D01*
G37*
%TD.AperFunction*%
%TD*%
M02*
