%TF.GenerationSoftware,KiCad,Pcbnew,(6.0.8)*%
%TF.CreationDate,2022-10-29T16:07:17-04:00*%
%TF.ProjectId,miura_board,6d697572-615f-4626-9f61-72642e6b6963,rev?*%
%TF.SameCoordinates,Original*%
%TF.FileFunction,Drillmap*%
%TF.FilePolarity,Positive*%
%FSLAX45Y45*%
G04 Gerber Fmt 4.5, Leading zero omitted, Abs format (unit mm)*
G04 Created by KiCad (PCBNEW (6.0.8)) date 2022-10-29 16:07:17*
%MOMM*%
%LPD*%
G01*
G04 APERTURE LIST*
%ADD10C,0.100000*%
%ADD11C,0.200000*%
%ADD12C,0.040000*%
%ADD13C,0.110000*%
%ADD14C,0.220000*%
G04 APERTURE END LIST*
D10*
X8910000Y-3180000D02*
X8910000Y-3980000D01*
X9710000Y-4080000D02*
X9010000Y-4080000D01*
X9710000Y-3080000D02*
X9010000Y-3080000D01*
X8910000Y-3980000D02*
G75*
G03*
X9010000Y-4080000I100000J0D01*
G01*
X9710000Y-3080000D02*
X9710000Y-4080000D01*
X9010000Y-3080000D02*
G75*
G03*
X8910000Y-3180000I0J-100000D01*
G01*
X11870000Y-8500000D02*
G75*
G03*
X12100000Y-8270000I0J230000D01*
G01*
X11870000Y-2500000D02*
X6330000Y-2500000D01*
X12100000Y-2730000D02*
G75*
G03*
X11870000Y-2500000I-230000J0D01*
G01*
X6330000Y-8500000D02*
X11870000Y-8500000D01*
X6100000Y-8270000D02*
G75*
G03*
X6330000Y-8500000I230000J0D01*
G01*
X6330000Y-2500000D02*
G75*
G03*
X6100000Y-2730000I0J-230000D01*
G01*
X12100000Y-2730000D02*
X12100000Y-8270000D01*
X6100000Y-8270000D02*
X6100000Y-2730000D01*
D11*
D12*
X6370000Y-6000000D02*
X6410000Y-6040000D01*
X6410000Y-6000000D02*
X6370000Y-6040000D01*
X6440000Y-6570000D02*
X6480000Y-6610000D01*
X6480000Y-6570000D02*
X6440000Y-6610000D01*
X6620000Y-5360000D02*
X6660000Y-5400000D01*
X6660000Y-5360000D02*
X6620000Y-5400000D01*
X6690000Y-6780000D02*
X6730000Y-6820000D01*
X6730000Y-6780000D02*
X6690000Y-6820000D01*
X6900000Y-7000000D02*
X6940000Y-7040000D01*
X6940000Y-7000000D02*
X6900000Y-7040000D01*
X6930000Y-7400000D02*
X6970000Y-7440000D01*
X6970000Y-7400000D02*
X6930000Y-7440000D01*
X7190000Y-3780000D02*
X7230000Y-3820000D01*
X7230000Y-3780000D02*
X7190000Y-3820000D01*
X7190000Y-3910000D02*
X7230000Y-3950000D01*
X7230000Y-3910000D02*
X7190000Y-3950000D01*
X7250000Y-7650000D02*
X7290000Y-7690000D01*
X7290000Y-7650000D02*
X7250000Y-7690000D01*
X7280000Y-5260000D02*
X7320000Y-5300000D01*
X7320000Y-5260000D02*
X7280000Y-5300000D01*
X7515050Y-3720000D02*
X7555050Y-3760000D01*
X7555050Y-3720000D02*
X7515050Y-3760000D01*
X7520000Y-3590000D02*
X7560000Y-3630000D01*
X7560000Y-3590000D02*
X7520000Y-3630000D01*
X8040000Y-4420000D02*
X8080000Y-4460000D01*
X8080000Y-4420000D02*
X8040000Y-4460000D01*
X8060000Y-4560000D02*
X8100000Y-4600000D01*
X8100000Y-4560000D02*
X8060000Y-4600000D01*
X8130000Y-3660000D02*
X8170000Y-3700000D01*
X8170000Y-3660000D02*
X8130000Y-3700000D01*
X8410000Y-7270000D02*
X8450000Y-7310000D01*
X8450000Y-7270000D02*
X8410000Y-7310000D01*
X8520000Y-4620000D02*
X8560000Y-4660000D01*
X8560000Y-4620000D02*
X8520000Y-4660000D01*
X8520000Y-4750000D02*
X8560000Y-4790000D01*
X8560000Y-4750000D02*
X8520000Y-4790000D01*
X8610000Y-4950000D02*
X8650000Y-4990000D01*
X8650000Y-4950000D02*
X8610000Y-4990000D01*
X8610000Y-6100000D02*
X8650000Y-6140000D01*
X8650000Y-6100000D02*
X8610000Y-6140000D01*
X8740000Y-4950000D02*
X8780000Y-4990000D01*
X8780000Y-4950000D02*
X8740000Y-4990000D01*
X8750000Y-6100000D02*
X8790000Y-6140000D01*
X8790000Y-6100000D02*
X8750000Y-6140000D01*
X8880000Y-4980000D02*
X8920000Y-5020000D01*
X8920000Y-4980000D02*
X8880000Y-5020000D01*
X8880000Y-6120000D02*
X8920000Y-6160000D01*
X8920000Y-6120000D02*
X8880000Y-6160000D01*
X8950000Y-5580000D02*
X8990000Y-5620000D01*
X8990000Y-5580000D02*
X8950000Y-5620000D01*
X9010000Y-7650000D02*
X9050000Y-7690000D01*
X9050000Y-7650000D02*
X9010000Y-7690000D01*
X9070000Y-4510000D02*
X9110000Y-4550000D01*
X9110000Y-4510000D02*
X9070000Y-4550000D01*
X9210000Y-4824950D02*
X9250000Y-4864950D01*
X9250000Y-4824950D02*
X9210000Y-4864950D01*
X9494000Y-7396000D02*
X9534000Y-7436000D01*
X9534000Y-7396000D02*
X9494000Y-7436000D01*
X9500000Y-6120000D02*
X9540000Y-6160000D01*
X9540000Y-6120000D02*
X9500000Y-6160000D01*
X9530000Y-6770000D02*
X9570000Y-6810000D01*
X9570000Y-6770000D02*
X9530000Y-6810000D01*
X9530000Y-6890000D02*
X9570000Y-6930000D01*
X9570000Y-6890000D02*
X9530000Y-6930000D01*
X9530000Y-7030000D02*
X9570000Y-7070000D01*
X9570000Y-7030000D02*
X9530000Y-7070000D01*
X9580000Y-8240000D02*
X9620000Y-8280000D01*
X9620000Y-8240000D02*
X9580000Y-8280000D01*
X9640000Y-4830000D02*
X9680000Y-4870000D01*
X9680000Y-4830000D02*
X9640000Y-4870000D01*
X9660000Y-6620000D02*
X9700000Y-6660000D01*
X9700000Y-6620000D02*
X9660000Y-6660000D01*
X9790000Y-8230000D02*
X9830000Y-8270000D01*
X9830000Y-8230000D02*
X9790000Y-8270000D01*
X10000000Y-8230000D02*
X10040000Y-8270000D01*
X10040000Y-8230000D02*
X10000000Y-8270000D01*
X10080000Y-4000000D02*
X10120000Y-4040000D01*
X10120000Y-4000000D02*
X10080000Y-4040000D01*
X10080000Y-5230000D02*
X10120000Y-5270000D01*
X10120000Y-5230000D02*
X10080000Y-5270000D01*
X10200000Y-8230000D02*
X10240000Y-8270000D01*
X10240000Y-8230000D02*
X10200000Y-8270000D01*
X10400000Y-7540000D02*
X10440000Y-7580000D01*
X10440000Y-7540000D02*
X10400000Y-7580000D01*
X10410000Y-6960000D02*
X10450000Y-7000000D01*
X10450000Y-6960000D02*
X10410000Y-7000000D01*
X10480000Y-7380000D02*
X10520000Y-7420000D01*
X10520000Y-7380000D02*
X10480000Y-7420000D01*
X10490000Y-4830000D02*
X10530000Y-4870000D01*
X10530000Y-4830000D02*
X10490000Y-4870000D01*
X10630000Y-4480000D02*
X10670000Y-4520000D01*
X10670000Y-4480000D02*
X10630000Y-4520000D01*
X10830000Y-4480000D02*
X10870000Y-4520000D01*
X10870000Y-4480000D02*
X10830000Y-4520000D01*
X10840000Y-6780000D02*
X10880000Y-6820000D01*
X10880000Y-6780000D02*
X10840000Y-6820000D01*
X10870000Y-7230000D02*
X10910000Y-7270000D01*
X10910000Y-7230000D02*
X10870000Y-7270000D01*
X10940000Y-7100000D02*
X10980000Y-7140000D01*
X10980000Y-7100000D02*
X10940000Y-7140000D01*
X11020000Y-6570000D02*
X11060000Y-6610000D01*
X11060000Y-6570000D02*
X11020000Y-6610000D01*
X11030000Y-4480000D02*
X11070000Y-4520000D01*
X11070000Y-4480000D02*
X11030000Y-4520000D01*
X11120000Y-3020000D02*
X11160000Y-3060000D01*
X11160000Y-3020000D02*
X11120000Y-3060000D01*
X11210000Y-4480000D02*
X11250000Y-4520000D01*
X11250000Y-4480000D02*
X11210000Y-4520000D01*
X11310000Y-3240000D02*
X11350000Y-3280000D01*
X11350000Y-3240000D02*
X11310000Y-3280000D01*
X11340000Y-7000000D02*
X11380000Y-7040000D01*
X11380000Y-7000000D02*
X11340000Y-7040000D01*
X11860000Y-3080000D02*
X11900000Y-3120000D01*
X11900000Y-3080000D02*
X11860000Y-3120000D01*
X11860000Y-3620000D02*
X11900000Y-3660000D01*
X11900000Y-3620000D02*
X11860000Y-3660000D01*
X11860000Y-3850000D02*
X11900000Y-3890000D01*
X11900000Y-3850000D02*
X11860000Y-3890000D01*
D10*
X6400000Y-7038000D02*
G75*
G03*
X6400000Y-7038000I-50000J0D01*
G01*
X6400000Y-7292000D02*
G75*
G03*
X6400000Y-7292000I-50000J0D01*
G01*
X6400000Y-7546000D02*
G75*
G03*
X6400000Y-7546000I-50000J0D01*
G01*
X6400000Y-7800000D02*
G75*
G03*
X6400000Y-7800000I-50000J0D01*
G01*
D13*
X6470000Y-3578000D02*
X6470000Y-3688000D01*
X6415000Y-3633000D02*
X6525000Y-3633000D01*
X6470000Y-3832000D02*
X6470000Y-3942000D01*
X6415000Y-3887000D02*
X6525000Y-3887000D01*
X6470000Y-4415000D02*
X6470000Y-4525000D01*
X6415000Y-4470000D02*
X6525000Y-4470000D01*
X6470000Y-4669000D02*
X6470000Y-4779000D01*
X6415000Y-4724000D02*
X6525000Y-4724000D01*
X8226000Y-2815000D02*
X8226000Y-2925000D01*
X8171000Y-2870000D02*
X8281000Y-2870000D01*
X8480000Y-2815000D02*
X8480000Y-2925000D01*
X8425000Y-2870000D02*
X8535000Y-2870000D01*
X10110000Y-3378000D02*
X10110000Y-3488000D01*
X10055000Y-3433000D02*
X10165000Y-3433000D01*
X10110000Y-3632000D02*
X10110000Y-3742000D01*
X10055000Y-3687000D02*
X10165000Y-3687000D01*
X10783000Y-8065000D02*
X10783000Y-8175000D01*
X10728000Y-8120000D02*
X10838000Y-8120000D01*
X11037000Y-8065000D02*
X11037000Y-8175000D01*
X10982000Y-8120000D02*
X11092000Y-8120000D01*
X11710000Y-5798000D02*
X11710000Y-5908000D01*
X11655000Y-5853000D02*
X11765000Y-5853000D01*
X11710000Y-6052000D02*
X11710000Y-6162000D01*
X11655000Y-6107000D02*
X11765000Y-6107000D01*
X11720000Y-4948000D02*
X11720000Y-5058000D01*
X11665000Y-5003000D02*
X11775000Y-5003000D01*
X11720000Y-5202000D02*
X11720000Y-5312000D01*
X11665000Y-5257000D02*
X11775000Y-5257000D01*
D14*
X6407782Y-2807782D02*
X6407782Y-2652218D01*
X6252217Y-2652218D01*
X6252217Y-2807782D01*
X6407782Y-2807782D01*
X6407782Y-8347782D02*
X6407782Y-8192217D01*
X6252217Y-8192217D01*
X6252217Y-8347782D01*
X6407782Y-8347782D01*
X11947782Y-2807782D02*
X11947782Y-2652218D01*
X11792217Y-2652218D01*
X11792217Y-2807782D01*
X11947782Y-2807782D01*
X11947782Y-8347782D02*
X11947782Y-8192217D01*
X11792217Y-8192217D01*
X11792217Y-8347782D01*
X11947782Y-8347782D01*
D11*
X6352619Y-8815476D02*
X6352619Y-8615476D01*
X6400238Y-8615476D01*
X6428809Y-8625000D01*
X6447857Y-8644048D01*
X6457381Y-8663095D01*
X6466905Y-8701190D01*
X6466905Y-8729762D01*
X6457381Y-8767857D01*
X6447857Y-8786905D01*
X6428809Y-8805952D01*
X6400238Y-8815476D01*
X6352619Y-8815476D01*
X6552619Y-8815476D02*
X6552619Y-8682143D01*
X6552619Y-8720238D02*
X6562143Y-8701190D01*
X6571667Y-8691667D01*
X6590714Y-8682143D01*
X6609762Y-8682143D01*
X6676428Y-8815476D02*
X6676428Y-8682143D01*
X6676428Y-8615476D02*
X6666905Y-8625000D01*
X6676428Y-8634524D01*
X6685952Y-8625000D01*
X6676428Y-8615476D01*
X6676428Y-8634524D01*
X6800238Y-8815476D02*
X6781190Y-8805952D01*
X6771667Y-8786905D01*
X6771667Y-8615476D01*
X6905000Y-8815476D02*
X6885952Y-8805952D01*
X6876428Y-8786905D01*
X6876428Y-8615476D01*
X7133571Y-8815476D02*
X7133571Y-8615476D01*
X7200238Y-8758333D01*
X7266905Y-8615476D01*
X7266905Y-8815476D01*
X7447857Y-8815476D02*
X7447857Y-8710714D01*
X7438333Y-8691667D01*
X7419286Y-8682143D01*
X7381190Y-8682143D01*
X7362143Y-8691667D01*
X7447857Y-8805952D02*
X7428809Y-8815476D01*
X7381190Y-8815476D01*
X7362143Y-8805952D01*
X7352619Y-8786905D01*
X7352619Y-8767857D01*
X7362143Y-8748810D01*
X7381190Y-8739286D01*
X7428809Y-8739286D01*
X7447857Y-8729762D01*
X7543095Y-8682143D02*
X7543095Y-8882143D01*
X7543095Y-8691667D02*
X7562143Y-8682143D01*
X7600238Y-8682143D01*
X7619286Y-8691667D01*
X7628809Y-8701190D01*
X7638333Y-8720238D01*
X7638333Y-8777381D01*
X7628809Y-8796429D01*
X7619286Y-8805952D01*
X7600238Y-8815476D01*
X7562143Y-8815476D01*
X7543095Y-8805952D01*
X7724048Y-8796429D02*
X7733571Y-8805952D01*
X7724048Y-8815476D01*
X7714524Y-8805952D01*
X7724048Y-8796429D01*
X7724048Y-8815476D01*
X7724048Y-8691667D02*
X7733571Y-8701190D01*
X7724048Y-8710714D01*
X7714524Y-8701190D01*
X7724048Y-8691667D01*
X7724048Y-8710714D01*
D12*
X6055000Y-9125000D02*
X6095000Y-9165000D01*
X6095000Y-9125000D02*
X6055000Y-9165000D01*
D11*
X6390714Y-9035476D02*
X6409762Y-9035476D01*
X6428809Y-9045000D01*
X6438333Y-9054524D01*
X6447857Y-9073571D01*
X6457381Y-9111667D01*
X6457381Y-9159286D01*
X6447857Y-9197381D01*
X6438333Y-9216429D01*
X6428809Y-9225952D01*
X6409762Y-9235476D01*
X6390714Y-9235476D01*
X6371667Y-9225952D01*
X6362143Y-9216429D01*
X6352619Y-9197381D01*
X6343095Y-9159286D01*
X6343095Y-9111667D01*
X6352619Y-9073571D01*
X6362143Y-9054524D01*
X6371667Y-9045000D01*
X6390714Y-9035476D01*
X6543095Y-9216429D02*
X6552619Y-9225952D01*
X6543095Y-9235476D01*
X6533571Y-9225952D01*
X6543095Y-9216429D01*
X6543095Y-9235476D01*
X6724048Y-9102143D02*
X6724048Y-9235476D01*
X6676428Y-9025952D02*
X6628809Y-9168810D01*
X6752619Y-9168810D01*
X6866905Y-9035476D02*
X6885952Y-9035476D01*
X6905000Y-9045000D01*
X6914524Y-9054524D01*
X6924048Y-9073571D01*
X6933571Y-9111667D01*
X6933571Y-9159286D01*
X6924048Y-9197381D01*
X6914524Y-9216429D01*
X6905000Y-9225952D01*
X6885952Y-9235476D01*
X6866905Y-9235476D01*
X6847857Y-9225952D01*
X6838333Y-9216429D01*
X6828809Y-9197381D01*
X6819286Y-9159286D01*
X6819286Y-9111667D01*
X6828809Y-9073571D01*
X6838333Y-9054524D01*
X6847857Y-9045000D01*
X6866905Y-9035476D01*
X7057381Y-9035476D02*
X7076428Y-9035476D01*
X7095476Y-9045000D01*
X7105000Y-9054524D01*
X7114524Y-9073571D01*
X7124048Y-9111667D01*
X7124048Y-9159286D01*
X7114524Y-9197381D01*
X7105000Y-9216429D01*
X7095476Y-9225952D01*
X7076428Y-9235476D01*
X7057381Y-9235476D01*
X7038333Y-9225952D01*
X7028809Y-9216429D01*
X7019286Y-9197381D01*
X7009762Y-9159286D01*
X7009762Y-9111667D01*
X7019286Y-9073571D01*
X7028809Y-9054524D01*
X7038333Y-9045000D01*
X7057381Y-9035476D01*
X7209762Y-9235476D02*
X7209762Y-9102143D01*
X7209762Y-9121190D02*
X7219286Y-9111667D01*
X7238333Y-9102143D01*
X7266905Y-9102143D01*
X7285952Y-9111667D01*
X7295476Y-9130714D01*
X7295476Y-9235476D01*
X7295476Y-9130714D02*
X7305000Y-9111667D01*
X7324048Y-9102143D01*
X7352619Y-9102143D01*
X7371667Y-9111667D01*
X7381190Y-9130714D01*
X7381190Y-9235476D01*
X7476428Y-9235476D02*
X7476428Y-9102143D01*
X7476428Y-9121190D02*
X7485952Y-9111667D01*
X7505000Y-9102143D01*
X7533571Y-9102143D01*
X7552619Y-9111667D01*
X7562143Y-9130714D01*
X7562143Y-9235476D01*
X7562143Y-9130714D02*
X7571667Y-9111667D01*
X7590714Y-9102143D01*
X7619286Y-9102143D01*
X7638333Y-9111667D01*
X7647857Y-9130714D01*
X7647857Y-9235476D01*
X8038333Y-9025952D02*
X7866905Y-9283095D01*
X8295476Y-9035476D02*
X8314524Y-9035476D01*
X8333571Y-9045000D01*
X8343095Y-9054524D01*
X8352619Y-9073571D01*
X8362143Y-9111667D01*
X8362143Y-9159286D01*
X8352619Y-9197381D01*
X8343095Y-9216429D01*
X8333571Y-9225952D01*
X8314524Y-9235476D01*
X8295476Y-9235476D01*
X8276428Y-9225952D01*
X8266905Y-9216429D01*
X8257381Y-9197381D01*
X8247857Y-9159286D01*
X8247857Y-9111667D01*
X8257381Y-9073571D01*
X8266905Y-9054524D01*
X8276428Y-9045000D01*
X8295476Y-9035476D01*
X8447857Y-9216429D02*
X8457381Y-9225952D01*
X8447857Y-9235476D01*
X8438333Y-9225952D01*
X8447857Y-9216429D01*
X8447857Y-9235476D01*
X8581190Y-9035476D02*
X8600238Y-9035476D01*
X8619286Y-9045000D01*
X8628810Y-9054524D01*
X8638333Y-9073571D01*
X8647857Y-9111667D01*
X8647857Y-9159286D01*
X8638333Y-9197381D01*
X8628810Y-9216429D01*
X8619286Y-9225952D01*
X8600238Y-9235476D01*
X8581190Y-9235476D01*
X8562143Y-9225952D01*
X8552619Y-9216429D01*
X8543095Y-9197381D01*
X8533571Y-9159286D01*
X8533571Y-9111667D01*
X8543095Y-9073571D01*
X8552619Y-9054524D01*
X8562143Y-9045000D01*
X8581190Y-9035476D01*
X8838333Y-9235476D02*
X8724048Y-9235476D01*
X8781190Y-9235476D02*
X8781190Y-9035476D01*
X8762143Y-9064048D01*
X8743095Y-9083095D01*
X8724048Y-9092619D01*
X9019286Y-9035476D02*
X8924048Y-9035476D01*
X8914524Y-9130714D01*
X8924048Y-9121190D01*
X8943095Y-9111667D01*
X8990714Y-9111667D01*
X9009762Y-9121190D01*
X9019286Y-9130714D01*
X9028810Y-9149762D01*
X9028810Y-9197381D01*
X9019286Y-9216429D01*
X9009762Y-9225952D01*
X8990714Y-9235476D01*
X8943095Y-9235476D01*
X8924048Y-9225952D01*
X8914524Y-9216429D01*
X9095476Y-9035476D02*
X9228810Y-9035476D01*
X9143095Y-9235476D01*
X9295476Y-9035476D02*
X9295476Y-9073571D01*
X9371667Y-9035476D02*
X9371667Y-9073571D01*
X9666905Y-9311667D02*
X9657381Y-9302143D01*
X9638333Y-9273571D01*
X9628810Y-9254524D01*
X9619286Y-9225952D01*
X9609762Y-9178333D01*
X9609762Y-9140238D01*
X9619286Y-9092619D01*
X9628810Y-9064048D01*
X9638333Y-9045000D01*
X9657381Y-9016429D01*
X9666905Y-9006905D01*
X9838333Y-9035476D02*
X9743095Y-9035476D01*
X9733571Y-9130714D01*
X9743095Y-9121190D01*
X9762143Y-9111667D01*
X9809762Y-9111667D01*
X9828810Y-9121190D01*
X9838333Y-9130714D01*
X9847857Y-9149762D01*
X9847857Y-9197381D01*
X9838333Y-9216429D01*
X9828810Y-9225952D01*
X9809762Y-9235476D01*
X9762143Y-9235476D01*
X9743095Y-9225952D01*
X9733571Y-9216429D01*
X9943095Y-9235476D02*
X9981190Y-9235476D01*
X10000238Y-9225952D01*
X10009762Y-9216429D01*
X10028810Y-9187857D01*
X10038333Y-9149762D01*
X10038333Y-9073571D01*
X10028810Y-9054524D01*
X10019286Y-9045000D01*
X10000238Y-9035476D01*
X9962143Y-9035476D01*
X9943095Y-9045000D01*
X9933571Y-9054524D01*
X9924048Y-9073571D01*
X9924048Y-9121190D01*
X9933571Y-9140238D01*
X9943095Y-9149762D01*
X9962143Y-9159286D01*
X10000238Y-9159286D01*
X10019286Y-9149762D01*
X10028810Y-9140238D01*
X10038333Y-9121190D01*
X10276429Y-9235476D02*
X10276429Y-9035476D01*
X10362143Y-9235476D02*
X10362143Y-9130714D01*
X10352619Y-9111667D01*
X10333571Y-9102143D01*
X10305000Y-9102143D01*
X10285952Y-9111667D01*
X10276429Y-9121190D01*
X10485952Y-9235476D02*
X10466905Y-9225952D01*
X10457381Y-9216429D01*
X10447857Y-9197381D01*
X10447857Y-9140238D01*
X10457381Y-9121190D01*
X10466905Y-9111667D01*
X10485952Y-9102143D01*
X10514524Y-9102143D01*
X10533571Y-9111667D01*
X10543095Y-9121190D01*
X10552619Y-9140238D01*
X10552619Y-9197381D01*
X10543095Y-9216429D01*
X10533571Y-9225952D01*
X10514524Y-9235476D01*
X10485952Y-9235476D01*
X10666905Y-9235476D02*
X10647857Y-9225952D01*
X10638333Y-9206905D01*
X10638333Y-9035476D01*
X10819286Y-9225952D02*
X10800238Y-9235476D01*
X10762143Y-9235476D01*
X10743095Y-9225952D01*
X10733571Y-9206905D01*
X10733571Y-9130714D01*
X10743095Y-9111667D01*
X10762143Y-9102143D01*
X10800238Y-9102143D01*
X10819286Y-9111667D01*
X10828810Y-9130714D01*
X10828810Y-9149762D01*
X10733571Y-9168810D01*
X10905000Y-9225952D02*
X10924048Y-9235476D01*
X10962143Y-9235476D01*
X10981190Y-9225952D01*
X10990714Y-9206905D01*
X10990714Y-9197381D01*
X10981190Y-9178333D01*
X10962143Y-9168810D01*
X10933571Y-9168810D01*
X10914524Y-9159286D01*
X10905000Y-9140238D01*
X10905000Y-9130714D01*
X10914524Y-9111667D01*
X10933571Y-9102143D01*
X10962143Y-9102143D01*
X10981190Y-9111667D01*
X11057381Y-9311667D02*
X11066905Y-9302143D01*
X11085952Y-9273571D01*
X11095476Y-9254524D01*
X11105000Y-9225952D01*
X11114524Y-9178333D01*
X11114524Y-9140238D01*
X11105000Y-9092619D01*
X11095476Y-9064048D01*
X11085952Y-9045000D01*
X11066905Y-9016429D01*
X11057381Y-9006905D01*
D10*
X6095000Y-9409000D02*
G75*
G03*
X6095000Y-9409000I-50000J0D01*
G01*
D11*
X6457381Y-9499476D02*
X6343095Y-9499476D01*
X6400238Y-9499476D02*
X6400238Y-9299476D01*
X6381190Y-9328048D01*
X6362143Y-9347095D01*
X6343095Y-9356619D01*
X6543095Y-9480429D02*
X6552619Y-9489952D01*
X6543095Y-9499476D01*
X6533571Y-9489952D01*
X6543095Y-9480429D01*
X6543095Y-9499476D01*
X6676428Y-9299476D02*
X6695476Y-9299476D01*
X6714524Y-9309000D01*
X6724048Y-9318524D01*
X6733571Y-9337571D01*
X6743095Y-9375667D01*
X6743095Y-9423286D01*
X6733571Y-9461381D01*
X6724048Y-9480429D01*
X6714524Y-9489952D01*
X6695476Y-9499476D01*
X6676428Y-9499476D01*
X6657381Y-9489952D01*
X6647857Y-9480429D01*
X6638333Y-9461381D01*
X6628809Y-9423286D01*
X6628809Y-9375667D01*
X6638333Y-9337571D01*
X6647857Y-9318524D01*
X6657381Y-9309000D01*
X6676428Y-9299476D01*
X6866905Y-9299476D02*
X6885952Y-9299476D01*
X6905000Y-9309000D01*
X6914524Y-9318524D01*
X6924048Y-9337571D01*
X6933571Y-9375667D01*
X6933571Y-9423286D01*
X6924048Y-9461381D01*
X6914524Y-9480429D01*
X6905000Y-9489952D01*
X6885952Y-9499476D01*
X6866905Y-9499476D01*
X6847857Y-9489952D01*
X6838333Y-9480429D01*
X6828809Y-9461381D01*
X6819286Y-9423286D01*
X6819286Y-9375667D01*
X6828809Y-9337571D01*
X6838333Y-9318524D01*
X6847857Y-9309000D01*
X6866905Y-9299476D01*
X7057381Y-9299476D02*
X7076428Y-9299476D01*
X7095476Y-9309000D01*
X7105000Y-9318524D01*
X7114524Y-9337571D01*
X7124048Y-9375667D01*
X7124048Y-9423286D01*
X7114524Y-9461381D01*
X7105000Y-9480429D01*
X7095476Y-9489952D01*
X7076428Y-9499476D01*
X7057381Y-9499476D01*
X7038333Y-9489952D01*
X7028809Y-9480429D01*
X7019286Y-9461381D01*
X7009762Y-9423286D01*
X7009762Y-9375667D01*
X7019286Y-9337571D01*
X7028809Y-9318524D01*
X7038333Y-9309000D01*
X7057381Y-9299476D01*
X7209762Y-9499476D02*
X7209762Y-9366143D01*
X7209762Y-9385190D02*
X7219286Y-9375667D01*
X7238333Y-9366143D01*
X7266905Y-9366143D01*
X7285952Y-9375667D01*
X7295476Y-9394714D01*
X7295476Y-9499476D01*
X7295476Y-9394714D02*
X7305000Y-9375667D01*
X7324048Y-9366143D01*
X7352619Y-9366143D01*
X7371667Y-9375667D01*
X7381190Y-9394714D01*
X7381190Y-9499476D01*
X7476428Y-9499476D02*
X7476428Y-9366143D01*
X7476428Y-9385190D02*
X7485952Y-9375667D01*
X7505000Y-9366143D01*
X7533571Y-9366143D01*
X7552619Y-9375667D01*
X7562143Y-9394714D01*
X7562143Y-9499476D01*
X7562143Y-9394714D02*
X7571667Y-9375667D01*
X7590714Y-9366143D01*
X7619286Y-9366143D01*
X7638333Y-9375667D01*
X7647857Y-9394714D01*
X7647857Y-9499476D01*
X8038333Y-9289952D02*
X7866905Y-9547095D01*
X8295476Y-9299476D02*
X8314524Y-9299476D01*
X8333571Y-9309000D01*
X8343095Y-9318524D01*
X8352619Y-9337571D01*
X8362143Y-9375667D01*
X8362143Y-9423286D01*
X8352619Y-9461381D01*
X8343095Y-9480429D01*
X8333571Y-9489952D01*
X8314524Y-9499476D01*
X8295476Y-9499476D01*
X8276428Y-9489952D01*
X8266905Y-9480429D01*
X8257381Y-9461381D01*
X8247857Y-9423286D01*
X8247857Y-9375667D01*
X8257381Y-9337571D01*
X8266905Y-9318524D01*
X8276428Y-9309000D01*
X8295476Y-9299476D01*
X8447857Y-9480429D02*
X8457381Y-9489952D01*
X8447857Y-9499476D01*
X8438333Y-9489952D01*
X8447857Y-9480429D01*
X8447857Y-9499476D01*
X8581190Y-9299476D02*
X8600238Y-9299476D01*
X8619286Y-9309000D01*
X8628810Y-9318524D01*
X8638333Y-9337571D01*
X8647857Y-9375667D01*
X8647857Y-9423286D01*
X8638333Y-9461381D01*
X8628810Y-9480429D01*
X8619286Y-9489952D01*
X8600238Y-9499476D01*
X8581190Y-9499476D01*
X8562143Y-9489952D01*
X8552619Y-9480429D01*
X8543095Y-9461381D01*
X8533571Y-9423286D01*
X8533571Y-9375667D01*
X8543095Y-9337571D01*
X8552619Y-9318524D01*
X8562143Y-9309000D01*
X8581190Y-9299476D01*
X8714524Y-9299476D02*
X8838333Y-9299476D01*
X8771667Y-9375667D01*
X8800238Y-9375667D01*
X8819286Y-9385190D01*
X8828810Y-9394714D01*
X8838333Y-9413762D01*
X8838333Y-9461381D01*
X8828810Y-9480429D01*
X8819286Y-9489952D01*
X8800238Y-9499476D01*
X8743095Y-9499476D01*
X8724048Y-9489952D01*
X8714524Y-9480429D01*
X8933571Y-9499476D02*
X8971667Y-9499476D01*
X8990714Y-9489952D01*
X9000238Y-9480429D01*
X9019286Y-9451857D01*
X9028810Y-9413762D01*
X9028810Y-9337571D01*
X9019286Y-9318524D01*
X9009762Y-9309000D01*
X8990714Y-9299476D01*
X8952619Y-9299476D01*
X8933571Y-9309000D01*
X8924048Y-9318524D01*
X8914524Y-9337571D01*
X8914524Y-9385190D01*
X8924048Y-9404238D01*
X8933571Y-9413762D01*
X8952619Y-9423286D01*
X8990714Y-9423286D01*
X9009762Y-9413762D01*
X9019286Y-9404238D01*
X9028810Y-9385190D01*
X9200238Y-9366143D02*
X9200238Y-9499476D01*
X9152619Y-9289952D02*
X9105000Y-9432810D01*
X9228810Y-9432810D01*
X9295476Y-9299476D02*
X9295476Y-9337571D01*
X9371667Y-9299476D02*
X9371667Y-9337571D01*
X9666905Y-9575667D02*
X9657381Y-9566143D01*
X9638333Y-9537571D01*
X9628810Y-9518524D01*
X9619286Y-9489952D01*
X9609762Y-9442333D01*
X9609762Y-9404238D01*
X9619286Y-9356619D01*
X9628810Y-9328048D01*
X9638333Y-9309000D01*
X9657381Y-9280429D01*
X9666905Y-9270905D01*
X9828810Y-9366143D02*
X9828810Y-9499476D01*
X9781190Y-9289952D02*
X9733571Y-9432810D01*
X9857381Y-9432810D01*
X10085952Y-9499476D02*
X10085952Y-9299476D01*
X10171667Y-9499476D02*
X10171667Y-9394714D01*
X10162143Y-9375667D01*
X10143095Y-9366143D01*
X10114524Y-9366143D01*
X10095476Y-9375667D01*
X10085952Y-9385190D01*
X10295476Y-9499476D02*
X10276429Y-9489952D01*
X10266905Y-9480429D01*
X10257381Y-9461381D01*
X10257381Y-9404238D01*
X10266905Y-9385190D01*
X10276429Y-9375667D01*
X10295476Y-9366143D01*
X10324048Y-9366143D01*
X10343095Y-9375667D01*
X10352619Y-9385190D01*
X10362143Y-9404238D01*
X10362143Y-9461381D01*
X10352619Y-9480429D01*
X10343095Y-9489952D01*
X10324048Y-9499476D01*
X10295476Y-9499476D01*
X10476429Y-9499476D02*
X10457381Y-9489952D01*
X10447857Y-9470905D01*
X10447857Y-9299476D01*
X10628810Y-9489952D02*
X10609762Y-9499476D01*
X10571667Y-9499476D01*
X10552619Y-9489952D01*
X10543095Y-9470905D01*
X10543095Y-9394714D01*
X10552619Y-9375667D01*
X10571667Y-9366143D01*
X10609762Y-9366143D01*
X10628810Y-9375667D01*
X10638333Y-9394714D01*
X10638333Y-9413762D01*
X10543095Y-9432810D01*
X10714524Y-9489952D02*
X10733571Y-9499476D01*
X10771667Y-9499476D01*
X10790714Y-9489952D01*
X10800238Y-9470905D01*
X10800238Y-9461381D01*
X10790714Y-9442333D01*
X10771667Y-9432810D01*
X10743095Y-9432810D01*
X10724048Y-9423286D01*
X10714524Y-9404238D01*
X10714524Y-9394714D01*
X10724048Y-9375667D01*
X10743095Y-9366143D01*
X10771667Y-9366143D01*
X10790714Y-9375667D01*
X10866905Y-9575667D02*
X10876429Y-9566143D01*
X10895476Y-9537571D01*
X10905000Y-9518524D01*
X10914524Y-9489952D01*
X10924048Y-9442333D01*
X10924048Y-9404238D01*
X10914524Y-9356619D01*
X10905000Y-9328048D01*
X10895476Y-9309000D01*
X10876429Y-9280429D01*
X10866905Y-9270905D01*
D13*
X6040000Y-9618000D02*
X6040000Y-9728000D01*
X5985000Y-9673000D02*
X6095000Y-9673000D01*
D11*
X6457381Y-9763476D02*
X6343095Y-9763476D01*
X6400238Y-9763476D02*
X6400238Y-9563476D01*
X6381190Y-9592048D01*
X6362143Y-9611095D01*
X6343095Y-9620619D01*
X6543095Y-9744429D02*
X6552619Y-9753952D01*
X6543095Y-9763476D01*
X6533571Y-9753952D01*
X6543095Y-9744429D01*
X6543095Y-9763476D01*
X6743095Y-9763476D02*
X6628809Y-9763476D01*
X6685952Y-9763476D02*
X6685952Y-9563476D01*
X6666905Y-9592048D01*
X6647857Y-9611095D01*
X6628809Y-9620619D01*
X6866905Y-9563476D02*
X6885952Y-9563476D01*
X6905000Y-9573000D01*
X6914524Y-9582524D01*
X6924048Y-9601571D01*
X6933571Y-9639667D01*
X6933571Y-9687286D01*
X6924048Y-9725381D01*
X6914524Y-9744429D01*
X6905000Y-9753952D01*
X6885952Y-9763476D01*
X6866905Y-9763476D01*
X6847857Y-9753952D01*
X6838333Y-9744429D01*
X6828809Y-9725381D01*
X6819286Y-9687286D01*
X6819286Y-9639667D01*
X6828809Y-9601571D01*
X6838333Y-9582524D01*
X6847857Y-9573000D01*
X6866905Y-9563476D01*
X7057381Y-9563476D02*
X7076428Y-9563476D01*
X7095476Y-9573000D01*
X7105000Y-9582524D01*
X7114524Y-9601571D01*
X7124048Y-9639667D01*
X7124048Y-9687286D01*
X7114524Y-9725381D01*
X7105000Y-9744429D01*
X7095476Y-9753952D01*
X7076428Y-9763476D01*
X7057381Y-9763476D01*
X7038333Y-9753952D01*
X7028809Y-9744429D01*
X7019286Y-9725381D01*
X7009762Y-9687286D01*
X7009762Y-9639667D01*
X7019286Y-9601571D01*
X7028809Y-9582524D01*
X7038333Y-9573000D01*
X7057381Y-9563476D01*
X7209762Y-9763476D02*
X7209762Y-9630143D01*
X7209762Y-9649190D02*
X7219286Y-9639667D01*
X7238333Y-9630143D01*
X7266905Y-9630143D01*
X7285952Y-9639667D01*
X7295476Y-9658714D01*
X7295476Y-9763476D01*
X7295476Y-9658714D02*
X7305000Y-9639667D01*
X7324048Y-9630143D01*
X7352619Y-9630143D01*
X7371667Y-9639667D01*
X7381190Y-9658714D01*
X7381190Y-9763476D01*
X7476428Y-9763476D02*
X7476428Y-9630143D01*
X7476428Y-9649190D02*
X7485952Y-9639667D01*
X7505000Y-9630143D01*
X7533571Y-9630143D01*
X7552619Y-9639667D01*
X7562143Y-9658714D01*
X7562143Y-9763476D01*
X7562143Y-9658714D02*
X7571667Y-9639667D01*
X7590714Y-9630143D01*
X7619286Y-9630143D01*
X7638333Y-9639667D01*
X7647857Y-9658714D01*
X7647857Y-9763476D01*
X8038333Y-9553952D02*
X7866905Y-9811095D01*
X8295476Y-9563476D02*
X8314524Y-9563476D01*
X8333571Y-9573000D01*
X8343095Y-9582524D01*
X8352619Y-9601571D01*
X8362143Y-9639667D01*
X8362143Y-9687286D01*
X8352619Y-9725381D01*
X8343095Y-9744429D01*
X8333571Y-9753952D01*
X8314524Y-9763476D01*
X8295476Y-9763476D01*
X8276428Y-9753952D01*
X8266905Y-9744429D01*
X8257381Y-9725381D01*
X8247857Y-9687286D01*
X8247857Y-9639667D01*
X8257381Y-9601571D01*
X8266905Y-9582524D01*
X8276428Y-9573000D01*
X8295476Y-9563476D01*
X8447857Y-9744429D02*
X8457381Y-9753952D01*
X8447857Y-9763476D01*
X8438333Y-9753952D01*
X8447857Y-9744429D01*
X8447857Y-9763476D01*
X8581190Y-9563476D02*
X8600238Y-9563476D01*
X8619286Y-9573000D01*
X8628810Y-9582524D01*
X8638333Y-9601571D01*
X8647857Y-9639667D01*
X8647857Y-9687286D01*
X8638333Y-9725381D01*
X8628810Y-9744429D01*
X8619286Y-9753952D01*
X8600238Y-9763476D01*
X8581190Y-9763476D01*
X8562143Y-9753952D01*
X8552619Y-9744429D01*
X8543095Y-9725381D01*
X8533571Y-9687286D01*
X8533571Y-9639667D01*
X8543095Y-9601571D01*
X8552619Y-9582524D01*
X8562143Y-9573000D01*
X8581190Y-9563476D01*
X8819286Y-9630143D02*
X8819286Y-9763476D01*
X8771667Y-9553952D02*
X8724048Y-9696810D01*
X8847857Y-9696810D01*
X8905000Y-9563476D02*
X9028810Y-9563476D01*
X8962143Y-9639667D01*
X8990714Y-9639667D01*
X9009762Y-9649190D01*
X9019286Y-9658714D01*
X9028810Y-9677762D01*
X9028810Y-9725381D01*
X9019286Y-9744429D01*
X9009762Y-9753952D01*
X8990714Y-9763476D01*
X8933571Y-9763476D01*
X8914524Y-9753952D01*
X8905000Y-9744429D01*
X9095476Y-9563476D02*
X9219286Y-9563476D01*
X9152619Y-9639667D01*
X9181190Y-9639667D01*
X9200238Y-9649190D01*
X9209762Y-9658714D01*
X9219286Y-9677762D01*
X9219286Y-9725381D01*
X9209762Y-9744429D01*
X9200238Y-9753952D01*
X9181190Y-9763476D01*
X9124048Y-9763476D01*
X9105000Y-9753952D01*
X9095476Y-9744429D01*
X9295476Y-9563476D02*
X9295476Y-9601571D01*
X9371667Y-9563476D02*
X9371667Y-9601571D01*
X9666905Y-9839667D02*
X9657381Y-9830143D01*
X9638333Y-9801571D01*
X9628810Y-9782524D01*
X9619286Y-9753952D01*
X9609762Y-9706333D01*
X9609762Y-9668238D01*
X9619286Y-9620619D01*
X9628810Y-9592048D01*
X9638333Y-9573000D01*
X9657381Y-9544429D01*
X9666905Y-9534905D01*
X9847857Y-9763476D02*
X9733571Y-9763476D01*
X9790714Y-9763476D02*
X9790714Y-9563476D01*
X9771667Y-9592048D01*
X9752619Y-9611095D01*
X9733571Y-9620619D01*
X10019286Y-9630143D02*
X10019286Y-9763476D01*
X9971667Y-9553952D02*
X9924048Y-9696810D01*
X10047857Y-9696810D01*
X10276429Y-9763476D02*
X10276429Y-9563476D01*
X10362143Y-9763476D02*
X10362143Y-9658714D01*
X10352619Y-9639667D01*
X10333571Y-9630143D01*
X10305000Y-9630143D01*
X10285952Y-9639667D01*
X10276429Y-9649190D01*
X10485952Y-9763476D02*
X10466905Y-9753952D01*
X10457381Y-9744429D01*
X10447857Y-9725381D01*
X10447857Y-9668238D01*
X10457381Y-9649190D01*
X10466905Y-9639667D01*
X10485952Y-9630143D01*
X10514524Y-9630143D01*
X10533571Y-9639667D01*
X10543095Y-9649190D01*
X10552619Y-9668238D01*
X10552619Y-9725381D01*
X10543095Y-9744429D01*
X10533571Y-9753952D01*
X10514524Y-9763476D01*
X10485952Y-9763476D01*
X10666905Y-9763476D02*
X10647857Y-9753952D01*
X10638333Y-9734905D01*
X10638333Y-9563476D01*
X10819286Y-9753952D02*
X10800238Y-9763476D01*
X10762143Y-9763476D01*
X10743095Y-9753952D01*
X10733571Y-9734905D01*
X10733571Y-9658714D01*
X10743095Y-9639667D01*
X10762143Y-9630143D01*
X10800238Y-9630143D01*
X10819286Y-9639667D01*
X10828810Y-9658714D01*
X10828810Y-9677762D01*
X10733571Y-9696810D01*
X10905000Y-9753952D02*
X10924048Y-9763476D01*
X10962143Y-9763476D01*
X10981190Y-9753952D01*
X10990714Y-9734905D01*
X10990714Y-9725381D01*
X10981190Y-9706333D01*
X10962143Y-9696810D01*
X10933571Y-9696810D01*
X10914524Y-9687286D01*
X10905000Y-9668238D01*
X10905000Y-9658714D01*
X10914524Y-9639667D01*
X10933571Y-9630143D01*
X10962143Y-9630143D01*
X10981190Y-9639667D01*
X11057381Y-9839667D02*
X11066905Y-9830143D01*
X11085952Y-9801571D01*
X11095476Y-9782524D01*
X11105000Y-9753952D01*
X11114524Y-9706333D01*
X11114524Y-9668238D01*
X11105000Y-9620619D01*
X11095476Y-9592048D01*
X11085952Y-9573000D01*
X11066905Y-9544429D01*
X11057381Y-9534905D01*
X6065711Y-10007711D02*
X6065711Y-9866289D01*
X5924289Y-9866289D01*
X5924289Y-10007711D01*
X6065711Y-10007711D01*
X6343095Y-9846524D02*
X6352619Y-9837000D01*
X6371667Y-9827476D01*
X6419286Y-9827476D01*
X6438333Y-9837000D01*
X6447857Y-9846524D01*
X6457381Y-9865571D01*
X6457381Y-9884619D01*
X6447857Y-9913190D01*
X6333571Y-10027476D01*
X6457381Y-10027476D01*
X6543095Y-10008429D02*
X6552619Y-10017952D01*
X6543095Y-10027476D01*
X6533571Y-10017952D01*
X6543095Y-10008429D01*
X6543095Y-10027476D01*
X6628809Y-9846524D02*
X6638333Y-9837000D01*
X6657381Y-9827476D01*
X6705000Y-9827476D01*
X6724048Y-9837000D01*
X6733571Y-9846524D01*
X6743095Y-9865571D01*
X6743095Y-9884619D01*
X6733571Y-9913190D01*
X6619286Y-10027476D01*
X6743095Y-10027476D01*
X6866905Y-9827476D02*
X6885952Y-9827476D01*
X6905000Y-9837000D01*
X6914524Y-9846524D01*
X6924048Y-9865571D01*
X6933571Y-9903667D01*
X6933571Y-9951286D01*
X6924048Y-9989381D01*
X6914524Y-10008429D01*
X6905000Y-10017952D01*
X6885952Y-10027476D01*
X6866905Y-10027476D01*
X6847857Y-10017952D01*
X6838333Y-10008429D01*
X6828809Y-9989381D01*
X6819286Y-9951286D01*
X6819286Y-9903667D01*
X6828809Y-9865571D01*
X6838333Y-9846524D01*
X6847857Y-9837000D01*
X6866905Y-9827476D01*
X7057381Y-9827476D02*
X7076428Y-9827476D01*
X7095476Y-9837000D01*
X7105000Y-9846524D01*
X7114524Y-9865571D01*
X7124048Y-9903667D01*
X7124048Y-9951286D01*
X7114524Y-9989381D01*
X7105000Y-10008429D01*
X7095476Y-10017952D01*
X7076428Y-10027476D01*
X7057381Y-10027476D01*
X7038333Y-10017952D01*
X7028809Y-10008429D01*
X7019286Y-9989381D01*
X7009762Y-9951286D01*
X7009762Y-9903667D01*
X7019286Y-9865571D01*
X7028809Y-9846524D01*
X7038333Y-9837000D01*
X7057381Y-9827476D01*
X7209762Y-10027476D02*
X7209762Y-9894143D01*
X7209762Y-9913190D02*
X7219286Y-9903667D01*
X7238333Y-9894143D01*
X7266905Y-9894143D01*
X7285952Y-9903667D01*
X7295476Y-9922714D01*
X7295476Y-10027476D01*
X7295476Y-9922714D02*
X7305000Y-9903667D01*
X7324048Y-9894143D01*
X7352619Y-9894143D01*
X7371667Y-9903667D01*
X7381190Y-9922714D01*
X7381190Y-10027476D01*
X7476428Y-10027476D02*
X7476428Y-9894143D01*
X7476428Y-9913190D02*
X7485952Y-9903667D01*
X7505000Y-9894143D01*
X7533571Y-9894143D01*
X7552619Y-9903667D01*
X7562143Y-9922714D01*
X7562143Y-10027476D01*
X7562143Y-9922714D02*
X7571667Y-9903667D01*
X7590714Y-9894143D01*
X7619286Y-9894143D01*
X7638333Y-9903667D01*
X7647857Y-9922714D01*
X7647857Y-10027476D01*
X8038333Y-9817952D02*
X7866905Y-10075095D01*
X8295476Y-9827476D02*
X8314524Y-9827476D01*
X8333571Y-9837000D01*
X8343095Y-9846524D01*
X8352619Y-9865571D01*
X8362143Y-9903667D01*
X8362143Y-9951286D01*
X8352619Y-9989381D01*
X8343095Y-10008429D01*
X8333571Y-10017952D01*
X8314524Y-10027476D01*
X8295476Y-10027476D01*
X8276428Y-10017952D01*
X8266905Y-10008429D01*
X8257381Y-9989381D01*
X8247857Y-9951286D01*
X8247857Y-9903667D01*
X8257381Y-9865571D01*
X8266905Y-9846524D01*
X8276428Y-9837000D01*
X8295476Y-9827476D01*
X8447857Y-10008429D02*
X8457381Y-10017952D01*
X8447857Y-10027476D01*
X8438333Y-10017952D01*
X8447857Y-10008429D01*
X8447857Y-10027476D01*
X8581190Y-9827476D02*
X8600238Y-9827476D01*
X8619286Y-9837000D01*
X8628810Y-9846524D01*
X8638333Y-9865571D01*
X8647857Y-9903667D01*
X8647857Y-9951286D01*
X8638333Y-9989381D01*
X8628810Y-10008429D01*
X8619286Y-10017952D01*
X8600238Y-10027476D01*
X8581190Y-10027476D01*
X8562143Y-10017952D01*
X8552619Y-10008429D01*
X8543095Y-9989381D01*
X8533571Y-9951286D01*
X8533571Y-9903667D01*
X8543095Y-9865571D01*
X8552619Y-9846524D01*
X8562143Y-9837000D01*
X8581190Y-9827476D01*
X8762143Y-9913190D02*
X8743095Y-9903667D01*
X8733571Y-9894143D01*
X8724048Y-9875095D01*
X8724048Y-9865571D01*
X8733571Y-9846524D01*
X8743095Y-9837000D01*
X8762143Y-9827476D01*
X8800238Y-9827476D01*
X8819286Y-9837000D01*
X8828810Y-9846524D01*
X8838333Y-9865571D01*
X8838333Y-9875095D01*
X8828810Y-9894143D01*
X8819286Y-9903667D01*
X8800238Y-9913190D01*
X8762143Y-9913190D01*
X8743095Y-9922714D01*
X8733571Y-9932238D01*
X8724048Y-9951286D01*
X8724048Y-9989381D01*
X8733571Y-10008429D01*
X8743095Y-10017952D01*
X8762143Y-10027476D01*
X8800238Y-10027476D01*
X8819286Y-10017952D01*
X8828810Y-10008429D01*
X8838333Y-9989381D01*
X8838333Y-9951286D01*
X8828810Y-9932238D01*
X8819286Y-9922714D01*
X8800238Y-9913190D01*
X9009762Y-9827476D02*
X8971667Y-9827476D01*
X8952619Y-9837000D01*
X8943095Y-9846524D01*
X8924048Y-9875095D01*
X8914524Y-9913190D01*
X8914524Y-9989381D01*
X8924048Y-10008429D01*
X8933571Y-10017952D01*
X8952619Y-10027476D01*
X8990714Y-10027476D01*
X9009762Y-10017952D01*
X9019286Y-10008429D01*
X9028810Y-9989381D01*
X9028810Y-9941762D01*
X9019286Y-9922714D01*
X9009762Y-9913190D01*
X8990714Y-9903667D01*
X8952619Y-9903667D01*
X8933571Y-9913190D01*
X8924048Y-9922714D01*
X8914524Y-9941762D01*
X9200238Y-9827476D02*
X9162143Y-9827476D01*
X9143095Y-9837000D01*
X9133571Y-9846524D01*
X9114524Y-9875095D01*
X9105000Y-9913190D01*
X9105000Y-9989381D01*
X9114524Y-10008429D01*
X9124048Y-10017952D01*
X9143095Y-10027476D01*
X9181190Y-10027476D01*
X9200238Y-10017952D01*
X9209762Y-10008429D01*
X9219286Y-9989381D01*
X9219286Y-9941762D01*
X9209762Y-9922714D01*
X9200238Y-9913190D01*
X9181190Y-9903667D01*
X9143095Y-9903667D01*
X9124048Y-9913190D01*
X9114524Y-9922714D01*
X9105000Y-9941762D01*
X9295476Y-9827476D02*
X9295476Y-9865571D01*
X9371667Y-9827476D02*
X9371667Y-9865571D01*
X9666905Y-10103667D02*
X9657381Y-10094143D01*
X9638333Y-10065571D01*
X9628810Y-10046524D01*
X9619286Y-10017952D01*
X9609762Y-9970333D01*
X9609762Y-9932238D01*
X9619286Y-9884619D01*
X9628810Y-9856048D01*
X9638333Y-9837000D01*
X9657381Y-9808429D01*
X9666905Y-9798905D01*
X9828810Y-9894143D02*
X9828810Y-10027476D01*
X9781190Y-9817952D02*
X9733571Y-9960810D01*
X9857381Y-9960810D01*
X10085952Y-10027476D02*
X10085952Y-9827476D01*
X10171667Y-10027476D02*
X10171667Y-9922714D01*
X10162143Y-9903667D01*
X10143095Y-9894143D01*
X10114524Y-9894143D01*
X10095476Y-9903667D01*
X10085952Y-9913190D01*
X10295476Y-10027476D02*
X10276429Y-10017952D01*
X10266905Y-10008429D01*
X10257381Y-9989381D01*
X10257381Y-9932238D01*
X10266905Y-9913190D01*
X10276429Y-9903667D01*
X10295476Y-9894143D01*
X10324048Y-9894143D01*
X10343095Y-9903667D01*
X10352619Y-9913190D01*
X10362143Y-9932238D01*
X10362143Y-9989381D01*
X10352619Y-10008429D01*
X10343095Y-10017952D01*
X10324048Y-10027476D01*
X10295476Y-10027476D01*
X10476429Y-10027476D02*
X10457381Y-10017952D01*
X10447857Y-9998905D01*
X10447857Y-9827476D01*
X10628810Y-10017952D02*
X10609762Y-10027476D01*
X10571667Y-10027476D01*
X10552619Y-10017952D01*
X10543095Y-9998905D01*
X10543095Y-9922714D01*
X10552619Y-9903667D01*
X10571667Y-9894143D01*
X10609762Y-9894143D01*
X10628810Y-9903667D01*
X10638333Y-9922714D01*
X10638333Y-9941762D01*
X10543095Y-9960810D01*
X10714524Y-10017952D02*
X10733571Y-10027476D01*
X10771667Y-10027476D01*
X10790714Y-10017952D01*
X10800238Y-9998905D01*
X10800238Y-9989381D01*
X10790714Y-9970333D01*
X10771667Y-9960810D01*
X10743095Y-9960810D01*
X10724048Y-9951286D01*
X10714524Y-9932238D01*
X10714524Y-9922714D01*
X10724048Y-9903667D01*
X10743095Y-9894143D01*
X10771667Y-9894143D01*
X10790714Y-9903667D01*
X10866905Y-10103667D02*
X10876429Y-10094143D01*
X10895476Y-10065571D01*
X10905000Y-10046524D01*
X10914524Y-10017952D01*
X10924048Y-9970333D01*
X10924048Y-9932238D01*
X10914524Y-9884619D01*
X10905000Y-9856048D01*
X10895476Y-9837000D01*
X10876429Y-9808429D01*
X10866905Y-9798905D01*
M02*
