%TF.GenerationSoftware,KiCad,Pcbnew,(6.0.8)*%
%TF.CreationDate,2022-11-27T13:06:36-05:00*%
%TF.ProjectId,miura_board,6d697572-615f-4626-9f61-72642e6b6963,rev?*%
%TF.SameCoordinates,Original*%
%TF.FileFunction,Legend,Top*%
%TF.FilePolarity,Positive*%
%FSLAX46Y46*%
G04 Gerber Fmt 4.6, Leading zero omitted, Abs format (unit mm)*
G04 Created by KiCad (PCBNEW (6.0.8)) date 2022-11-27 13:06:36*
%MOMM*%
%LPD*%
G01*
G04 APERTURE LIST*
G04 Aperture macros list*
%AMRoundRect*
0 Rectangle with rounded corners*
0 $1 Rounding radius*
0 $2 $3 $4 $5 $6 $7 $8 $9 X,Y pos of 4 corners*
0 Add a 4 corners polygon primitive as box body*
4,1,4,$2,$3,$4,$5,$6,$7,$8,$9,$2,$3,0*
0 Add four circle primitives for the rounded corners*
1,1,$1+$1,$2,$3*
1,1,$1+$1,$4,$5*
1,1,$1+$1,$6,$7*
1,1,$1+$1,$8,$9*
0 Add four rect primitives between the rounded corners*
20,1,$1+$1,$2,$3,$4,$5,0*
20,1,$1+$1,$4,$5,$6,$7,0*
20,1,$1+$1,$6,$7,$8,$9,0*
20,1,$1+$1,$8,$9,$2,$3,0*%
G04 Aperture macros list end*
%ADD10C,0.150000*%
%ADD11C,0.120000*%
%ADD12C,0.500000*%
%ADD13RoundRect,0.225000X0.250000X-0.225000X0.250000X0.225000X-0.250000X0.225000X-0.250000X-0.225000X0*%
%ADD14RoundRect,0.225000X-0.250000X0.225000X-0.250000X-0.225000X0.250000X-0.225000X0.250000X0.225000X0*%
%ADD15C,1.100000*%
%ADD16R,2.200000X2.200000*%
%ADD17C,2.200000*%
%ADD18R,3.556000X3.556000*%
%ADD19O,2.500000X0.900000*%
%ADD20O,0.900000X2.500000*%
%ADD21R,1.000000X2.750000*%
%ADD22C,3.800000*%
%ADD23RoundRect,0.225000X-0.225000X-0.250000X0.225000X-0.250000X0.225000X0.250000X-0.225000X0.250000X0*%
%ADD24R,1.700000X1.700000*%
%ADD25O,1.700000X1.700000*%
%ADD26RoundRect,0.225000X0.335876X0.017678X0.017678X0.335876X-0.335876X-0.017678X-0.017678X-0.335876X0*%
%ADD27RoundRect,0.237500X0.237500X-0.250000X0.237500X0.250000X-0.237500X0.250000X-0.237500X-0.250000X0*%
%ADD28RoundRect,0.075000X0.194454X0.300520X-0.300520X-0.194454X-0.194454X-0.300520X0.300520X0.194454X0*%
%ADD29RoundRect,0.075000X-0.300520X0.194454X0.194454X-0.300520X0.300520X-0.194454X-0.194454X0.300520X0*%
%ADD30R,2.750000X1.000000*%
%ADD31R,1.500000X2.000000*%
%ADD32R,3.800000X2.000000*%
%ADD33R,1.200000X2.200000*%
%ADD34R,5.800000X6.400000*%
G04 APERTURE END LIST*
D10*
X71441421Y-66600000D02*
G75*
G03*
X71441421Y-66600000I-141421J0D01*
G01*
X94438095Y-39132857D02*
X95961904Y-39132857D01*
X95200000Y-39894761D02*
X95200000Y-38370952D01*
X94438095Y-42352857D02*
X95961904Y-42352857D01*
X65438095Y-79752380D02*
X66009523Y-79752380D01*
X65723809Y-80752380D02*
X65723809Y-79752380D01*
X66247619Y-79752380D02*
X66914285Y-80752380D01*
X66914285Y-79752380D02*
X66247619Y-80752380D01*
X65938095Y-74600000D02*
X65842857Y-74552380D01*
X65700000Y-74552380D01*
X65557142Y-74600000D01*
X65461904Y-74695238D01*
X65414285Y-74790476D01*
X65366666Y-74980952D01*
X65366666Y-75123809D01*
X65414285Y-75314285D01*
X65461904Y-75409523D01*
X65557142Y-75504761D01*
X65700000Y-75552380D01*
X65795238Y-75552380D01*
X65938095Y-75504761D01*
X65985714Y-75457142D01*
X65985714Y-75123809D01*
X65795238Y-75123809D01*
X66414285Y-75552380D02*
X66414285Y-74552380D01*
X66985714Y-75552380D01*
X66985714Y-74552380D01*
X67461904Y-75552380D02*
X67461904Y-74552380D01*
X67700000Y-74552380D01*
X67842857Y-74600000D01*
X67938095Y-74695238D01*
X67985714Y-74790476D01*
X68033333Y-74980952D01*
X68033333Y-75123809D01*
X67985714Y-75314285D01*
X67938095Y-75409523D01*
X67842857Y-75504761D01*
X67700000Y-75552380D01*
X67461904Y-75552380D01*
X71542857Y-54828571D02*
X71685714Y-54876190D01*
X71733333Y-54923809D01*
X71780952Y-55019047D01*
X71780952Y-55161904D01*
X71733333Y-55257142D01*
X71685714Y-55304761D01*
X71590476Y-55352380D01*
X71209523Y-55352380D01*
X71209523Y-54352380D01*
X71542857Y-54352380D01*
X71638095Y-54400000D01*
X71685714Y-54447619D01*
X71733333Y-54542857D01*
X71733333Y-54638095D01*
X71685714Y-54733333D01*
X71638095Y-54780952D01*
X71542857Y-54828571D01*
X71209523Y-54828571D01*
X72400000Y-54352380D02*
X72590476Y-54352380D01*
X72685714Y-54400000D01*
X72780952Y-54495238D01*
X72828571Y-54685714D01*
X72828571Y-55019047D01*
X72780952Y-55209523D01*
X72685714Y-55304761D01*
X72590476Y-55352380D01*
X72400000Y-55352380D01*
X72304761Y-55304761D01*
X72209523Y-55209523D01*
X72161904Y-55019047D01*
X72161904Y-54685714D01*
X72209523Y-54495238D01*
X72304761Y-54400000D01*
X72400000Y-54352380D01*
X73447619Y-54352380D02*
X73638095Y-54352380D01*
X73733333Y-54400000D01*
X73828571Y-54495238D01*
X73876190Y-54685714D01*
X73876190Y-55019047D01*
X73828571Y-55209523D01*
X73733333Y-55304761D01*
X73638095Y-55352380D01*
X73447619Y-55352380D01*
X73352380Y-55304761D01*
X73257142Y-55209523D01*
X73209523Y-55019047D01*
X73209523Y-54685714D01*
X73257142Y-54495238D01*
X73352380Y-54400000D01*
X73447619Y-54352380D01*
X74161904Y-54352380D02*
X74733333Y-54352380D01*
X74447619Y-55352380D02*
X74447619Y-54352380D01*
X66233333Y-77852380D02*
X65900000Y-77376190D01*
X65661904Y-77852380D02*
X65661904Y-76852380D01*
X66042857Y-76852380D01*
X66138095Y-76900000D01*
X66185714Y-76947619D01*
X66233333Y-77042857D01*
X66233333Y-77185714D01*
X66185714Y-77280952D01*
X66138095Y-77328571D01*
X66042857Y-77376190D01*
X65661904Y-77376190D01*
X66566666Y-76852380D02*
X67233333Y-77852380D01*
X67233333Y-76852380D02*
X66566666Y-77852380D01*
X104947619Y-73552380D02*
X104614285Y-73076190D01*
X104376190Y-73552380D02*
X104376190Y-72552380D01*
X104757142Y-72552380D01*
X104852380Y-72600000D01*
X104900000Y-72647619D01*
X104947619Y-72742857D01*
X104947619Y-72885714D01*
X104900000Y-72980952D01*
X104852380Y-73028571D01*
X104757142Y-73076190D01*
X104376190Y-73076190D01*
X105376190Y-73028571D02*
X105709523Y-73028571D01*
X105852380Y-73552380D02*
X105376190Y-73552380D01*
X105376190Y-72552380D01*
X105852380Y-72552380D01*
X106233333Y-73504761D02*
X106376190Y-73552380D01*
X106614285Y-73552380D01*
X106709523Y-73504761D01*
X106757142Y-73457142D01*
X106804761Y-73361904D01*
X106804761Y-73266666D01*
X106757142Y-73171428D01*
X106709523Y-73123809D01*
X106614285Y-73076190D01*
X106423809Y-73028571D01*
X106328571Y-72980952D01*
X106280952Y-72933333D01*
X106233333Y-72838095D01*
X106233333Y-72742857D01*
X106280952Y-72647619D01*
X106328571Y-72600000D01*
X106423809Y-72552380D01*
X106661904Y-72552380D01*
X106804761Y-72600000D01*
X107233333Y-73028571D02*
X107566666Y-73028571D01*
X107709523Y-73552380D02*
X107233333Y-73552380D01*
X107233333Y-72552380D01*
X107709523Y-72552380D01*
X107995238Y-72552380D02*
X108566666Y-72552380D01*
X108280952Y-73552380D02*
X108280952Y-72552380D01*
X98379857Y-66992857D02*
X95079857Y-66992857D01*
X97437000Y-65892857D01*
X95079857Y-64792857D01*
X98379857Y-64792857D01*
X98379857Y-63221428D02*
X96179857Y-63221428D01*
X95079857Y-63221428D02*
X95237000Y-63378571D01*
X95394142Y-63221428D01*
X95237000Y-63064285D01*
X95079857Y-63221428D01*
X95394142Y-63221428D01*
X96179857Y-60235714D02*
X98379857Y-60235714D01*
X96179857Y-61650000D02*
X97908428Y-61650000D01*
X98222714Y-61492857D01*
X98379857Y-61178571D01*
X98379857Y-60707142D01*
X98222714Y-60392857D01*
X98065571Y-60235714D01*
X98379857Y-58664285D02*
X96179857Y-58664285D01*
X96808428Y-58664285D02*
X96494142Y-58507142D01*
X96337000Y-58350000D01*
X96179857Y-58035714D01*
X96179857Y-57721428D01*
X98379857Y-55207142D02*
X96651285Y-55207142D01*
X96337000Y-55364285D01*
X96179857Y-55678571D01*
X96179857Y-56307142D01*
X96337000Y-56621428D01*
X98222714Y-55207142D02*
X98379857Y-55521428D01*
X98379857Y-56307142D01*
X98222714Y-56621428D01*
X97908428Y-56778571D01*
X97594142Y-56778571D01*
X97279857Y-56621428D01*
X97122714Y-56307142D01*
X97122714Y-55521428D01*
X96965571Y-55207142D01*
X101964285Y-63300000D02*
X102121428Y-62828571D01*
X102278571Y-62671428D01*
X102592857Y-62514285D01*
X103064285Y-62514285D01*
X103378571Y-62671428D01*
X103535714Y-62828571D01*
X103692857Y-63142857D01*
X103692857Y-64400000D01*
X100392857Y-64400000D01*
X100392857Y-63300000D01*
X100550000Y-62985714D01*
X100707142Y-62828571D01*
X101021428Y-62671428D01*
X101335714Y-62671428D01*
X101650000Y-62828571D01*
X101807142Y-62985714D01*
X101964285Y-63300000D01*
X101964285Y-64400000D01*
X103692857Y-60628571D02*
X103535714Y-60942857D01*
X103378571Y-61100000D01*
X103064285Y-61257142D01*
X102121428Y-61257142D01*
X101807142Y-61100000D01*
X101650000Y-60942857D01*
X101492857Y-60628571D01*
X101492857Y-60157142D01*
X101650000Y-59842857D01*
X101807142Y-59685714D01*
X102121428Y-59528571D01*
X103064285Y-59528571D01*
X103378571Y-59685714D01*
X103535714Y-59842857D01*
X103692857Y-60157142D01*
X103692857Y-60628571D01*
X101492857Y-58585714D02*
X101492857Y-57328571D01*
X100392857Y-58114285D02*
X103221428Y-58114285D01*
X103535714Y-57957142D01*
X103692857Y-57642857D01*
X103692857Y-57328571D01*
X65561904Y-72152380D02*
X66180952Y-72152380D01*
X65847619Y-72533333D01*
X65990476Y-72533333D01*
X66085714Y-72580952D01*
X66133333Y-72628571D01*
X66180952Y-72723809D01*
X66180952Y-72961904D01*
X66133333Y-73057142D01*
X66085714Y-73104761D01*
X65990476Y-73152380D01*
X65704761Y-73152380D01*
X65609523Y-73104761D01*
X65561904Y-73057142D01*
X66466666Y-72152380D02*
X66800000Y-73152380D01*
X67133333Y-72152380D01*
X67371428Y-72152380D02*
X67990476Y-72152380D01*
X67657142Y-72533333D01*
X67800000Y-72533333D01*
X67895238Y-72580952D01*
X67942857Y-72628571D01*
X67990476Y-72723809D01*
X67990476Y-72961904D01*
X67942857Y-73057142D01*
X67895238Y-73104761D01*
X67800000Y-73152380D01*
X67514285Y-73152380D01*
X67419047Y-73104761D01*
X67371428Y-73057142D01*
X98595238Y-39337380D02*
X98595238Y-38337380D01*
X98833333Y-38337380D01*
X98976190Y-38385000D01*
X99071428Y-38480238D01*
X99119047Y-38575476D01*
X99166666Y-38765952D01*
X99166666Y-38908809D01*
X99119047Y-39099285D01*
X99071428Y-39194523D01*
X98976190Y-39289761D01*
X98833333Y-39337380D01*
X98595238Y-39337380D01*
X100023809Y-39337380D02*
X100023809Y-38813571D01*
X99976190Y-38718333D01*
X99880952Y-38670714D01*
X99690476Y-38670714D01*
X99595238Y-38718333D01*
X100023809Y-39289761D02*
X99928571Y-39337380D01*
X99690476Y-39337380D01*
X99595238Y-39289761D01*
X99547619Y-39194523D01*
X99547619Y-39099285D01*
X99595238Y-39004047D01*
X99690476Y-38956428D01*
X99928571Y-38956428D01*
X100023809Y-38908809D01*
X100500000Y-38670714D02*
X100500000Y-39670714D01*
X100500000Y-38718333D02*
X100595238Y-38670714D01*
X100785714Y-38670714D01*
X100880952Y-38718333D01*
X100928571Y-38765952D01*
X100976190Y-38861190D01*
X100976190Y-39146904D01*
X100928571Y-39242142D01*
X100880952Y-39289761D01*
X100785714Y-39337380D01*
X100595238Y-39337380D01*
X100500000Y-39289761D01*
X101404761Y-39337380D02*
X101404761Y-38337380D01*
X101833333Y-39337380D02*
X101833333Y-38813571D01*
X101785714Y-38718333D01*
X101690476Y-38670714D01*
X101547619Y-38670714D01*
X101452380Y-38718333D01*
X101404761Y-38765952D01*
X102309523Y-38670714D02*
X102309523Y-39337380D01*
X102309523Y-38765952D02*
X102357142Y-38718333D01*
X102452380Y-38670714D01*
X102595238Y-38670714D01*
X102690476Y-38718333D01*
X102738095Y-38813571D01*
X102738095Y-39337380D01*
X103595238Y-39289761D02*
X103500000Y-39337380D01*
X103309523Y-39337380D01*
X103214285Y-39289761D01*
X103166666Y-39194523D01*
X103166666Y-38813571D01*
X103214285Y-38718333D01*
X103309523Y-38670714D01*
X103500000Y-38670714D01*
X103595238Y-38718333D01*
X103642857Y-38813571D01*
X103642857Y-38908809D01*
X103166666Y-39004047D01*
X105166666Y-38813571D02*
X105309523Y-38861190D01*
X105357142Y-38908809D01*
X105404761Y-39004047D01*
X105404761Y-39146904D01*
X105357142Y-39242142D01*
X105309523Y-39289761D01*
X105214285Y-39337380D01*
X104833333Y-39337380D01*
X104833333Y-38337380D01*
X105166666Y-38337380D01*
X105261904Y-38385000D01*
X105309523Y-38432619D01*
X105357142Y-38527857D01*
X105357142Y-38623095D01*
X105309523Y-38718333D01*
X105261904Y-38765952D01*
X105166666Y-38813571D01*
X104833333Y-38813571D01*
X106261904Y-39337380D02*
X106261904Y-38813571D01*
X106214285Y-38718333D01*
X106119047Y-38670714D01*
X105928571Y-38670714D01*
X105833333Y-38718333D01*
X106261904Y-39289761D02*
X106166666Y-39337380D01*
X105928571Y-39337380D01*
X105833333Y-39289761D01*
X105785714Y-39194523D01*
X105785714Y-39099285D01*
X105833333Y-39004047D01*
X105928571Y-38956428D01*
X106166666Y-38956428D01*
X106261904Y-38908809D01*
X106738095Y-39337380D02*
X106738095Y-38670714D01*
X106738095Y-38861190D02*
X106785714Y-38765952D01*
X106833333Y-38718333D01*
X106928571Y-38670714D01*
X107023809Y-38670714D01*
X107357142Y-39337380D02*
X107357142Y-38670714D01*
X107357142Y-38861190D02*
X107404761Y-38765952D01*
X107452380Y-38718333D01*
X107547619Y-38670714D01*
X107642857Y-38670714D01*
X108357142Y-39289761D02*
X108261904Y-39337380D01*
X108071428Y-39337380D01*
X107976190Y-39289761D01*
X107928571Y-39194523D01*
X107928571Y-38813571D01*
X107976190Y-38718333D01*
X108071428Y-38670714D01*
X108261904Y-38670714D01*
X108357142Y-38718333D01*
X108404761Y-38813571D01*
X108404761Y-38908809D01*
X107928571Y-39004047D01*
X108690476Y-38670714D02*
X109071428Y-38670714D01*
X108833333Y-38337380D02*
X108833333Y-39194523D01*
X108880952Y-39289761D01*
X108976190Y-39337380D01*
X109071428Y-39337380D01*
X109261904Y-38670714D02*
X109642857Y-38670714D01*
X109404761Y-38337380D02*
X109404761Y-39194523D01*
X109452380Y-39289761D01*
X109547619Y-39337380D01*
X109642857Y-39337380D01*
X110119047Y-39337380D02*
X110023809Y-39289761D01*
X109976190Y-39242142D01*
X109928571Y-39146904D01*
X109928571Y-38861190D01*
X109976190Y-38765952D01*
X110023809Y-38718333D01*
X110119047Y-38670714D01*
X110261904Y-38670714D01*
X110357142Y-38718333D01*
X110404761Y-38765952D01*
X110452380Y-38861190D01*
X110452380Y-39146904D01*
X110404761Y-39242142D01*
X110357142Y-39289761D01*
X110261904Y-39337380D01*
X110119047Y-39337380D01*
X100261904Y-40947380D02*
X100261904Y-39947380D01*
X100500000Y-39947380D01*
X100642857Y-39995000D01*
X100738095Y-40090238D01*
X100785714Y-40185476D01*
X100833333Y-40375952D01*
X100833333Y-40518809D01*
X100785714Y-40709285D01*
X100738095Y-40804523D01*
X100642857Y-40899761D01*
X100500000Y-40947380D01*
X100261904Y-40947380D01*
X101690476Y-40947380D02*
X101690476Y-40423571D01*
X101642857Y-40328333D01*
X101547619Y-40280714D01*
X101357142Y-40280714D01*
X101261904Y-40328333D01*
X101690476Y-40899761D02*
X101595238Y-40947380D01*
X101357142Y-40947380D01*
X101261904Y-40899761D01*
X101214285Y-40804523D01*
X101214285Y-40709285D01*
X101261904Y-40614047D01*
X101357142Y-40566428D01*
X101595238Y-40566428D01*
X101690476Y-40518809D01*
X102166666Y-40947380D02*
X102166666Y-40280714D01*
X102166666Y-40471190D02*
X102214285Y-40375952D01*
X102261904Y-40328333D01*
X102357142Y-40280714D01*
X102452380Y-40280714D01*
X102785714Y-40947380D02*
X102785714Y-40280714D01*
X102785714Y-40471190D02*
X102833333Y-40375952D01*
X102880952Y-40328333D01*
X102976190Y-40280714D01*
X103071428Y-40280714D01*
X103785714Y-40899761D02*
X103690476Y-40947380D01*
X103500000Y-40947380D01*
X103404761Y-40899761D01*
X103357142Y-40804523D01*
X103357142Y-40423571D01*
X103404761Y-40328333D01*
X103500000Y-40280714D01*
X103690476Y-40280714D01*
X103785714Y-40328333D01*
X103833333Y-40423571D01*
X103833333Y-40518809D01*
X103357142Y-40614047D01*
X104261904Y-40280714D02*
X104261904Y-40947380D01*
X104261904Y-40375952D02*
X104309523Y-40328333D01*
X104404761Y-40280714D01*
X104547619Y-40280714D01*
X104642857Y-40328333D01*
X104690476Y-40423571D01*
X104690476Y-40947380D01*
X106500000Y-40852142D02*
X106452380Y-40899761D01*
X106309523Y-40947380D01*
X106214285Y-40947380D01*
X106071428Y-40899761D01*
X105976190Y-40804523D01*
X105928571Y-40709285D01*
X105880952Y-40518809D01*
X105880952Y-40375952D01*
X105928571Y-40185476D01*
X105976190Y-40090238D01*
X106071428Y-39995000D01*
X106214285Y-39947380D01*
X106309523Y-39947380D01*
X106452380Y-39995000D01*
X106500000Y-40042619D01*
X106928571Y-40947380D02*
X106928571Y-39947380D01*
X107357142Y-40947380D02*
X107357142Y-40423571D01*
X107309523Y-40328333D01*
X107214285Y-40280714D01*
X107071428Y-40280714D01*
X106976190Y-40328333D01*
X106928571Y-40375952D01*
X107833333Y-40947380D02*
X107833333Y-40280714D01*
X107833333Y-39947380D02*
X107785714Y-39995000D01*
X107833333Y-40042619D01*
X107880952Y-39995000D01*
X107833333Y-39947380D01*
X107833333Y-40042619D01*
X108738095Y-40280714D02*
X108738095Y-40947380D01*
X108309523Y-40280714D02*
X108309523Y-40804523D01*
X108357142Y-40899761D01*
X108452380Y-40947380D01*
X108595238Y-40947380D01*
X108690476Y-40899761D01*
X108738095Y-40852142D01*
X101071428Y-42557380D02*
X100595238Y-42557380D01*
X100595238Y-41557380D01*
X101404761Y-42557380D02*
X101404761Y-41890714D01*
X101404761Y-41557380D02*
X101357142Y-41605000D01*
X101404761Y-41652619D01*
X101452380Y-41605000D01*
X101404761Y-41557380D01*
X101404761Y-41652619D01*
X101785714Y-41890714D02*
X102309523Y-41890714D01*
X101785714Y-42557380D01*
X102309523Y-42557380D01*
X103119047Y-42557380D02*
X103119047Y-42033571D01*
X103071428Y-41938333D01*
X102976190Y-41890714D01*
X102785714Y-41890714D01*
X102690476Y-41938333D01*
X103119047Y-42509761D02*
X103023809Y-42557380D01*
X102785714Y-42557380D01*
X102690476Y-42509761D01*
X102642857Y-42414523D01*
X102642857Y-42319285D01*
X102690476Y-42224047D01*
X102785714Y-42176428D01*
X103023809Y-42176428D01*
X103119047Y-42128809D01*
X104928571Y-42462142D02*
X104880952Y-42509761D01*
X104738095Y-42557380D01*
X104642857Y-42557380D01*
X104500000Y-42509761D01*
X104404761Y-42414523D01*
X104357142Y-42319285D01*
X104309523Y-42128809D01*
X104309523Y-41985952D01*
X104357142Y-41795476D01*
X104404761Y-41700238D01*
X104500000Y-41605000D01*
X104642857Y-41557380D01*
X104738095Y-41557380D01*
X104880952Y-41605000D01*
X104928571Y-41652619D01*
X105500000Y-42557380D02*
X105404761Y-42509761D01*
X105357142Y-42462142D01*
X105309523Y-42366904D01*
X105309523Y-42081190D01*
X105357142Y-41985952D01*
X105404761Y-41938333D01*
X105500000Y-41890714D01*
X105642857Y-41890714D01*
X105738095Y-41938333D01*
X105785714Y-41985952D01*
X105833333Y-42081190D01*
X105833333Y-42366904D01*
X105785714Y-42462142D01*
X105738095Y-42509761D01*
X105642857Y-42557380D01*
X105500000Y-42557380D01*
X106119047Y-41890714D02*
X106500000Y-41890714D01*
X106261904Y-41557380D02*
X106261904Y-42414523D01*
X106309523Y-42509761D01*
X106404761Y-42557380D01*
X106500000Y-42557380D01*
X106690476Y-41890714D02*
X107071428Y-41890714D01*
X106833333Y-41557380D02*
X106833333Y-42414523D01*
X106880952Y-42509761D01*
X106976190Y-42557380D01*
X107071428Y-42557380D01*
X107785714Y-42509761D02*
X107690476Y-42557380D01*
X107500000Y-42557380D01*
X107404761Y-42509761D01*
X107357142Y-42414523D01*
X107357142Y-42033571D01*
X107404761Y-41938333D01*
X107500000Y-41890714D01*
X107690476Y-41890714D01*
X107785714Y-41938333D01*
X107833333Y-42033571D01*
X107833333Y-42128809D01*
X107357142Y-42224047D01*
X108261904Y-42557380D02*
X108261904Y-41890714D01*
X108261904Y-42081190D02*
X108309523Y-41985952D01*
X108357142Y-41938333D01*
X108452380Y-41890714D01*
X108547619Y-41890714D01*
X97190476Y-44167380D02*
X97190476Y-43167380D01*
X97428571Y-43167380D01*
X97571428Y-43215000D01*
X97666666Y-43310238D01*
X97714285Y-43405476D01*
X97761904Y-43595952D01*
X97761904Y-43738809D01*
X97714285Y-43929285D01*
X97666666Y-44024523D01*
X97571428Y-44119761D01*
X97428571Y-44167380D01*
X97190476Y-44167380D01*
X98619047Y-43500714D02*
X98619047Y-44167380D01*
X98190476Y-43500714D02*
X98190476Y-44024523D01*
X98238095Y-44119761D01*
X98333333Y-44167380D01*
X98476190Y-44167380D01*
X98571428Y-44119761D01*
X98619047Y-44072142D01*
X99000000Y-43500714D02*
X99238095Y-44167380D01*
X99476190Y-43500714D02*
X99238095Y-44167380D01*
X99142857Y-44405476D01*
X99095238Y-44453095D01*
X99000000Y-44500714D01*
X100619047Y-44167380D02*
X100619047Y-43167380D01*
X101000000Y-43167380D01*
X101095238Y-43215000D01*
X101142857Y-43262619D01*
X101190476Y-43357857D01*
X101190476Y-43500714D01*
X101142857Y-43595952D01*
X101095238Y-43643571D01*
X101000000Y-43691190D01*
X100619047Y-43691190D01*
X101619047Y-44167380D02*
X101619047Y-43167380D01*
X102047619Y-44167380D02*
X102047619Y-43643571D01*
X102000000Y-43548333D01*
X101904761Y-43500714D01*
X101761904Y-43500714D01*
X101666666Y-43548333D01*
X101619047Y-43595952D01*
X102952380Y-43500714D02*
X102952380Y-44167380D01*
X102523809Y-43500714D02*
X102523809Y-44024523D01*
X102571428Y-44119761D01*
X102666666Y-44167380D01*
X102809523Y-44167380D01*
X102904761Y-44119761D01*
X102952380Y-44072142D01*
X103571428Y-44167380D02*
X103476190Y-44119761D01*
X103428571Y-44072142D01*
X103380952Y-43976904D01*
X103380952Y-43691190D01*
X103428571Y-43595952D01*
X103476190Y-43548333D01*
X103571428Y-43500714D01*
X103714285Y-43500714D01*
X103809523Y-43548333D01*
X103857142Y-43595952D01*
X103904761Y-43691190D01*
X103904761Y-43976904D01*
X103857142Y-44072142D01*
X103809523Y-44119761D01*
X103714285Y-44167380D01*
X103571428Y-44167380D01*
X104333333Y-43500714D02*
X104333333Y-44167380D01*
X104333333Y-43595952D02*
X104380952Y-43548333D01*
X104476190Y-43500714D01*
X104619047Y-43500714D01*
X104714285Y-43548333D01*
X104761904Y-43643571D01*
X104761904Y-44167380D01*
X105666666Y-43500714D02*
X105666666Y-44310238D01*
X105619047Y-44405476D01*
X105571428Y-44453095D01*
X105476190Y-44500714D01*
X105333333Y-44500714D01*
X105238095Y-44453095D01*
X105666666Y-44119761D02*
X105571428Y-44167380D01*
X105380952Y-44167380D01*
X105285714Y-44119761D01*
X105238095Y-44072142D01*
X105190476Y-43976904D01*
X105190476Y-43691190D01*
X105238095Y-43595952D01*
X105285714Y-43548333D01*
X105380952Y-43500714D01*
X105571428Y-43500714D01*
X105666666Y-43548333D01*
X106904761Y-44167380D02*
X106904761Y-43167380D01*
X107476190Y-44167380D01*
X107476190Y-43167380D01*
X108380952Y-43500714D02*
X108380952Y-44310238D01*
X108333333Y-44405476D01*
X108285714Y-44453095D01*
X108190476Y-44500714D01*
X108047619Y-44500714D01*
X107952380Y-44453095D01*
X108380952Y-44119761D02*
X108285714Y-44167380D01*
X108095238Y-44167380D01*
X108000000Y-44119761D01*
X107952380Y-44072142D01*
X107904761Y-43976904D01*
X107904761Y-43691190D01*
X107952380Y-43595952D01*
X108000000Y-43548333D01*
X108095238Y-43500714D01*
X108285714Y-43500714D01*
X108380952Y-43548333D01*
X109285714Y-43500714D02*
X109285714Y-44167380D01*
X108857142Y-43500714D02*
X108857142Y-44024523D01*
X108904761Y-44119761D01*
X109000000Y-44167380D01*
X109142857Y-44167380D01*
X109238095Y-44119761D01*
X109285714Y-44072142D01*
X109666666Y-43500714D02*
X109904761Y-44167380D01*
X110142857Y-43500714D02*
X109904761Y-44167380D01*
X109809523Y-44405476D01*
X109761904Y-44453095D01*
X109666666Y-44500714D01*
X110904761Y-44119761D02*
X110809523Y-44167380D01*
X110619047Y-44167380D01*
X110523809Y-44119761D01*
X110476190Y-44024523D01*
X110476190Y-43643571D01*
X110523809Y-43548333D01*
X110619047Y-43500714D01*
X110809523Y-43500714D01*
X110904761Y-43548333D01*
X110952380Y-43643571D01*
X110952380Y-43738809D01*
X110476190Y-43834047D01*
X111380952Y-43500714D02*
X111380952Y-44167380D01*
X111380952Y-43595952D02*
X111428571Y-43548333D01*
X111523809Y-43500714D01*
X111666666Y-43500714D01*
X111761904Y-43548333D01*
X111809523Y-43643571D01*
X111809523Y-44167380D01*
%TO.C,C7*%
X103857142Y-68866666D02*
X103904761Y-68914285D01*
X103952380Y-69057142D01*
X103952380Y-69152380D01*
X103904761Y-69295238D01*
X103809523Y-69390476D01*
X103714285Y-69438095D01*
X103523809Y-69485714D01*
X103380952Y-69485714D01*
X103190476Y-69438095D01*
X103095238Y-69390476D01*
X103000000Y-69295238D01*
X102952380Y-69152380D01*
X102952380Y-69057142D01*
X103000000Y-68914285D01*
X103047619Y-68866666D01*
X102952380Y-68533333D02*
X102952380Y-67866666D01*
X103952380Y-68295238D01*
%TO.C,C1*%
X92657142Y-51116666D02*
X92704761Y-51164285D01*
X92752380Y-51307142D01*
X92752380Y-51402380D01*
X92704761Y-51545238D01*
X92609523Y-51640476D01*
X92514285Y-51688095D01*
X92323809Y-51735714D01*
X92180952Y-51735714D01*
X91990476Y-51688095D01*
X91895238Y-51640476D01*
X91800000Y-51545238D01*
X91752380Y-51402380D01*
X91752380Y-51307142D01*
X91800000Y-51164285D01*
X91847619Y-51116666D01*
X92752380Y-50164285D02*
X92752380Y-50735714D01*
X92752380Y-50450000D02*
X91752380Y-50450000D01*
X91895238Y-50545238D01*
X91990476Y-50640476D01*
X92038095Y-50735714D01*
%TO.C,C4*%
X94457142Y-51016666D02*
X94504761Y-51064285D01*
X94552380Y-51207142D01*
X94552380Y-51302380D01*
X94504761Y-51445238D01*
X94409523Y-51540476D01*
X94314285Y-51588095D01*
X94123809Y-51635714D01*
X93980952Y-51635714D01*
X93790476Y-51588095D01*
X93695238Y-51540476D01*
X93600000Y-51445238D01*
X93552380Y-51302380D01*
X93552380Y-51207142D01*
X93600000Y-51064285D01*
X93647619Y-51016666D01*
X93885714Y-50159523D02*
X94552380Y-50159523D01*
X93504761Y-50397619D02*
X94219047Y-50635714D01*
X94219047Y-50016666D01*
%TO.C,U1*%
X72838095Y-81652380D02*
X72838095Y-82461904D01*
X72885714Y-82557142D01*
X72933333Y-82604761D01*
X73028571Y-82652380D01*
X73219047Y-82652380D01*
X73314285Y-82604761D01*
X73361904Y-82557142D01*
X73409523Y-82461904D01*
X73409523Y-81652380D01*
X74409523Y-82652380D02*
X73838095Y-82652380D01*
X74123809Y-82652380D02*
X74123809Y-81652380D01*
X74028571Y-81795238D01*
X73933333Y-81890476D01*
X73838095Y-81938095D01*
X78721571Y-77156380D02*
X78721571Y-76823047D01*
X79245380Y-76680190D02*
X79245380Y-77156380D01*
X78245380Y-77156380D01*
X78245380Y-76680190D01*
X79197761Y-76299238D02*
X79245380Y-76156380D01*
X79245380Y-75918285D01*
X79197761Y-75823047D01*
X79150142Y-75775428D01*
X79054904Y-75727809D01*
X78959666Y-75727809D01*
X78864428Y-75775428D01*
X78816809Y-75823047D01*
X78769190Y-75918285D01*
X78721571Y-76108761D01*
X78673952Y-76204000D01*
X78626333Y-76251619D01*
X78531095Y-76299238D01*
X78435857Y-76299238D01*
X78340619Y-76251619D01*
X78293000Y-76204000D01*
X78245380Y-76108761D01*
X78245380Y-75870666D01*
X78293000Y-75727809D01*
X79245380Y-75299238D02*
X78245380Y-75299238D01*
X78245380Y-74918285D01*
X78293000Y-74823047D01*
X78340619Y-74775428D01*
X78435857Y-74727809D01*
X78578714Y-74727809D01*
X78673952Y-74775428D01*
X78721571Y-74823047D01*
X78769190Y-74918285D01*
X78769190Y-75299238D01*
X78245380Y-74394476D02*
X78245380Y-73775428D01*
X78626333Y-74108761D01*
X78626333Y-73965904D01*
X78673952Y-73870666D01*
X78721571Y-73823047D01*
X78816809Y-73775428D01*
X79054904Y-73775428D01*
X79150142Y-73823047D01*
X79197761Y-73870666D01*
X79245380Y-73965904D01*
X79245380Y-74251619D01*
X79197761Y-74346857D01*
X79150142Y-74394476D01*
X78340619Y-73394476D02*
X78293000Y-73346857D01*
X78245380Y-73251619D01*
X78245380Y-73013523D01*
X78293000Y-72918285D01*
X78340619Y-72870666D01*
X78435857Y-72823047D01*
X78531095Y-72823047D01*
X78673952Y-72870666D01*
X79245380Y-73442095D01*
X79245380Y-72823047D01*
X78864428Y-72394476D02*
X78864428Y-71632571D01*
X78245380Y-71251619D02*
X79245380Y-71013523D01*
X78531095Y-70823047D01*
X79245380Y-70632571D01*
X78245380Y-70394476D01*
X79245380Y-69442095D02*
X78769190Y-69775428D01*
X79245380Y-70013523D02*
X78245380Y-70013523D01*
X78245380Y-69632571D01*
X78293000Y-69537333D01*
X78340619Y-69489714D01*
X78435857Y-69442095D01*
X78578714Y-69442095D01*
X78673952Y-69489714D01*
X78721571Y-69537333D01*
X78769190Y-69632571D01*
X78769190Y-70013523D01*
X78245380Y-68823047D02*
X78245380Y-68632571D01*
X78293000Y-68537333D01*
X78388238Y-68442095D01*
X78578714Y-68394476D01*
X78912047Y-68394476D01*
X79102523Y-68442095D01*
X79197761Y-68537333D01*
X79245380Y-68632571D01*
X79245380Y-68823047D01*
X79197761Y-68918285D01*
X79102523Y-69013523D01*
X78912047Y-69061142D01*
X78578714Y-69061142D01*
X78388238Y-69013523D01*
X78293000Y-68918285D01*
X78245380Y-68823047D01*
X78245380Y-67775428D02*
X78245380Y-67584952D01*
X78293000Y-67489714D01*
X78388238Y-67394476D01*
X78578714Y-67346857D01*
X78912047Y-67346857D01*
X79102523Y-67394476D01*
X79197761Y-67489714D01*
X79245380Y-67584952D01*
X79245380Y-67775428D01*
X79197761Y-67870666D01*
X79102523Y-67965904D01*
X78912047Y-68013523D01*
X78578714Y-68013523D01*
X78388238Y-67965904D01*
X78293000Y-67870666D01*
X78245380Y-67775428D01*
X79245380Y-66918285D02*
X78245380Y-66918285D01*
X78959666Y-66584952D01*
X78245380Y-66251619D01*
X79245380Y-66251619D01*
X77070571Y-77132428D02*
X77070571Y-76799095D01*
X77594380Y-76656238D02*
X77594380Y-77132428D01*
X76594380Y-77132428D01*
X76594380Y-76656238D01*
X77546761Y-76275285D02*
X77594380Y-76180047D01*
X77594380Y-75989571D01*
X77546761Y-75894333D01*
X77451523Y-75846714D01*
X77403904Y-75846714D01*
X77308666Y-75894333D01*
X77261047Y-75989571D01*
X77261047Y-76132428D01*
X77213428Y-76227666D01*
X77118190Y-76275285D01*
X77070571Y-76275285D01*
X76975333Y-76227666D01*
X76927714Y-76132428D01*
X76927714Y-75989571D01*
X76975333Y-75894333D01*
X76927714Y-75418142D02*
X77927714Y-75418142D01*
X76975333Y-75418142D02*
X76927714Y-75322904D01*
X76927714Y-75132428D01*
X76975333Y-75037190D01*
X77022952Y-74989571D01*
X77118190Y-74941952D01*
X77403904Y-74941952D01*
X77499142Y-74989571D01*
X77546761Y-75037190D01*
X77594380Y-75132428D01*
X77594380Y-75322904D01*
X77546761Y-75418142D01*
X77594380Y-74513380D02*
X76927714Y-74513380D01*
X77118190Y-74513380D02*
X77022952Y-74465761D01*
X76975333Y-74418142D01*
X76927714Y-74322904D01*
X76927714Y-74227666D01*
X77546761Y-73513380D02*
X77594380Y-73608619D01*
X77594380Y-73799095D01*
X77546761Y-73894333D01*
X77451523Y-73941952D01*
X77070571Y-73941952D01*
X76975333Y-73894333D01*
X76927714Y-73799095D01*
X76927714Y-73608619D01*
X76975333Y-73513380D01*
X77070571Y-73465761D01*
X77165809Y-73465761D01*
X77261047Y-73941952D01*
X77546761Y-73084809D02*
X77594380Y-72989571D01*
X77594380Y-72799095D01*
X77546761Y-72703857D01*
X77451523Y-72656238D01*
X77403904Y-72656238D01*
X77308666Y-72703857D01*
X77261047Y-72799095D01*
X77261047Y-72941952D01*
X77213428Y-73037190D01*
X77118190Y-73084809D01*
X77070571Y-73084809D01*
X76975333Y-73037190D01*
X76927714Y-72941952D01*
X76927714Y-72799095D01*
X76975333Y-72703857D01*
X77546761Y-72275285D02*
X77594380Y-72180047D01*
X77594380Y-71989571D01*
X77546761Y-71894333D01*
X77451523Y-71846714D01*
X77403904Y-71846714D01*
X77308666Y-71894333D01*
X77261047Y-71989571D01*
X77261047Y-72132428D01*
X77213428Y-72227666D01*
X77118190Y-72275285D01*
X77070571Y-72275285D01*
X76975333Y-72227666D01*
X76927714Y-72132428D01*
X76927714Y-71989571D01*
X76975333Y-71894333D01*
X77594380Y-71418142D02*
X76927714Y-71418142D01*
X76594380Y-71418142D02*
X76642000Y-71465761D01*
X76689619Y-71418142D01*
X76642000Y-71370523D01*
X76594380Y-71418142D01*
X76689619Y-71418142D01*
X76927714Y-71084809D02*
X76927714Y-70703857D01*
X77594380Y-70941952D02*
X76737238Y-70941952D01*
X76642000Y-70894333D01*
X76594380Y-70799095D01*
X76594380Y-70703857D01*
X77546761Y-69656238D02*
X77594380Y-69513380D01*
X77594380Y-69275285D01*
X77546761Y-69180047D01*
X77499142Y-69132428D01*
X77403904Y-69084809D01*
X77308666Y-69084809D01*
X77213428Y-69132428D01*
X77165809Y-69180047D01*
X77118190Y-69275285D01*
X77070571Y-69465761D01*
X77022952Y-69561000D01*
X76975333Y-69608619D01*
X76880095Y-69656238D01*
X76784857Y-69656238D01*
X76689619Y-69608619D01*
X76642000Y-69561000D01*
X76594380Y-69465761D01*
X76594380Y-69227666D01*
X76642000Y-69084809D01*
X76927714Y-68751476D02*
X77594380Y-68513380D01*
X76927714Y-68275285D02*
X77594380Y-68513380D01*
X77832476Y-68608619D01*
X77880095Y-68656238D01*
X77927714Y-68751476D01*
X77546761Y-67941952D02*
X77594380Y-67846714D01*
X77594380Y-67656238D01*
X77546761Y-67561000D01*
X77451523Y-67513380D01*
X77403904Y-67513380D01*
X77308666Y-67561000D01*
X77261047Y-67656238D01*
X77261047Y-67799095D01*
X77213428Y-67894333D01*
X77118190Y-67941952D01*
X77070571Y-67941952D01*
X76975333Y-67894333D01*
X76927714Y-67799095D01*
X76927714Y-67656238D01*
X76975333Y-67561000D01*
X76927714Y-67227666D02*
X76927714Y-66846714D01*
X76594380Y-67084809D02*
X77451523Y-67084809D01*
X77546761Y-67037190D01*
X77594380Y-66941952D01*
X77594380Y-66846714D01*
X77546761Y-66132428D02*
X77594380Y-66227666D01*
X77594380Y-66418142D01*
X77546761Y-66513380D01*
X77451523Y-66561000D01*
X77070571Y-66561000D01*
X76975333Y-66513380D01*
X76927714Y-66418142D01*
X76927714Y-66227666D01*
X76975333Y-66132428D01*
X77070571Y-66084809D01*
X77165809Y-66084809D01*
X77261047Y-66561000D01*
X77594380Y-65656238D02*
X76927714Y-65656238D01*
X77022952Y-65656238D02*
X76975333Y-65608619D01*
X76927714Y-65513380D01*
X76927714Y-65370523D01*
X76975333Y-65275285D01*
X77070571Y-65227666D01*
X77594380Y-65227666D01*
X77070571Y-65227666D02*
X76975333Y-65180047D01*
X76927714Y-65084809D01*
X76927714Y-64941952D01*
X76975333Y-64846714D01*
X77070571Y-64799095D01*
X77594380Y-64799095D01*
X77546761Y-64370523D02*
X77594380Y-64275285D01*
X77594380Y-64084809D01*
X77546761Y-63989571D01*
X77451523Y-63941952D01*
X77403904Y-63941952D01*
X77308666Y-63989571D01*
X77261047Y-64084809D01*
X77261047Y-64227666D01*
X77213428Y-64322904D01*
X77118190Y-64370523D01*
X77070571Y-64370523D01*
X76975333Y-64322904D01*
X76927714Y-64227666D01*
X76927714Y-64084809D01*
X76975333Y-63989571D01*
%TO.C,C14*%
X73757142Y-59042857D02*
X73804761Y-59090476D01*
X73852380Y-59233333D01*
X73852380Y-59328571D01*
X73804761Y-59471428D01*
X73709523Y-59566666D01*
X73614285Y-59614285D01*
X73423809Y-59661904D01*
X73280952Y-59661904D01*
X73090476Y-59614285D01*
X72995238Y-59566666D01*
X72900000Y-59471428D01*
X72852380Y-59328571D01*
X72852380Y-59233333D01*
X72900000Y-59090476D01*
X72947619Y-59042857D01*
X73852380Y-58090476D02*
X73852380Y-58661904D01*
X73852380Y-58376190D02*
X72852380Y-58376190D01*
X72995238Y-58471428D01*
X73090476Y-58566666D01*
X73138095Y-58661904D01*
X73185714Y-57233333D02*
X73852380Y-57233333D01*
X72804761Y-57471428D02*
X73519047Y-57709523D01*
X73519047Y-57090476D01*
%TO.C,C11*%
X99857142Y-83442857D02*
X99904761Y-83490476D01*
X99952380Y-83633333D01*
X99952380Y-83728571D01*
X99904761Y-83871428D01*
X99809523Y-83966666D01*
X99714285Y-84014285D01*
X99523809Y-84061904D01*
X99380952Y-84061904D01*
X99190476Y-84014285D01*
X99095238Y-83966666D01*
X99000000Y-83871428D01*
X98952380Y-83728571D01*
X98952380Y-83633333D01*
X99000000Y-83490476D01*
X99047619Y-83442857D01*
X99952380Y-82490476D02*
X99952380Y-83061904D01*
X99952380Y-82776190D02*
X98952380Y-82776190D01*
X99095238Y-82871428D01*
X99190476Y-82966666D01*
X99238095Y-83061904D01*
X99952380Y-81538095D02*
X99952380Y-82109523D01*
X99952380Y-81823809D02*
X98952380Y-81823809D01*
X99095238Y-81919047D01*
X99190476Y-82014285D01*
X99238095Y-82109523D01*
%TO.C,C3*%
X88657142Y-51116666D02*
X88704761Y-51164285D01*
X88752380Y-51307142D01*
X88752380Y-51402380D01*
X88704761Y-51545238D01*
X88609523Y-51640476D01*
X88514285Y-51688095D01*
X88323809Y-51735714D01*
X88180952Y-51735714D01*
X87990476Y-51688095D01*
X87895238Y-51640476D01*
X87800000Y-51545238D01*
X87752380Y-51402380D01*
X87752380Y-51307142D01*
X87800000Y-51164285D01*
X87847619Y-51116666D01*
X87752380Y-50783333D02*
X87752380Y-50164285D01*
X88133333Y-50497619D01*
X88133333Y-50354761D01*
X88180952Y-50259523D01*
X88228571Y-50211904D01*
X88323809Y-50164285D01*
X88561904Y-50164285D01*
X88657142Y-50211904D01*
X88704761Y-50259523D01*
X88752380Y-50354761D01*
X88752380Y-50640476D01*
X88704761Y-50735714D01*
X88657142Y-50783333D01*
%TO.C,H4*%
X60738095Y-88452380D02*
X60738095Y-87452380D01*
X60738095Y-87928571D02*
X61309523Y-87928571D01*
X61309523Y-88452380D02*
X61309523Y-87452380D01*
X62214285Y-87785714D02*
X62214285Y-88452380D01*
X61976190Y-87404761D02*
X61738095Y-88119047D01*
X62357142Y-88119047D01*
%TO.C,C8*%
X107058333Y-50707142D02*
X107010714Y-50754761D01*
X106867857Y-50802380D01*
X106772619Y-50802380D01*
X106629761Y-50754761D01*
X106534523Y-50659523D01*
X106486904Y-50564285D01*
X106439285Y-50373809D01*
X106439285Y-50230952D01*
X106486904Y-50040476D01*
X106534523Y-49945238D01*
X106629761Y-49850000D01*
X106772619Y-49802380D01*
X106867857Y-49802380D01*
X107010714Y-49850000D01*
X107058333Y-49897619D01*
X107629761Y-50230952D02*
X107534523Y-50183333D01*
X107486904Y-50135714D01*
X107439285Y-50040476D01*
X107439285Y-49992857D01*
X107486904Y-49897619D01*
X107534523Y-49850000D01*
X107629761Y-49802380D01*
X107820238Y-49802380D01*
X107915476Y-49850000D01*
X107963095Y-49897619D01*
X108010714Y-49992857D01*
X108010714Y-50040476D01*
X107963095Y-50135714D01*
X107915476Y-50183333D01*
X107820238Y-50230952D01*
X107629761Y-50230952D01*
X107534523Y-50278571D01*
X107486904Y-50326190D01*
X107439285Y-50421428D01*
X107439285Y-50611904D01*
X107486904Y-50707142D01*
X107534523Y-50754761D01*
X107629761Y-50802380D01*
X107820238Y-50802380D01*
X107915476Y-50754761D01*
X107963095Y-50707142D01*
X108010714Y-50611904D01*
X108010714Y-50421428D01*
X107963095Y-50326190D01*
X107915476Y-50278571D01*
X107820238Y-50230952D01*
%TO.C,C6*%
X76757142Y-49466666D02*
X76804761Y-49514285D01*
X76852380Y-49657142D01*
X76852380Y-49752380D01*
X76804761Y-49895238D01*
X76709523Y-49990476D01*
X76614285Y-50038095D01*
X76423809Y-50085714D01*
X76280952Y-50085714D01*
X76090476Y-50038095D01*
X75995238Y-49990476D01*
X75900000Y-49895238D01*
X75852380Y-49752380D01*
X75852380Y-49657142D01*
X75900000Y-49514285D01*
X75947619Y-49466666D01*
X75852380Y-48609523D02*
X75852380Y-48800000D01*
X75900000Y-48895238D01*
X75947619Y-48942857D01*
X76090476Y-49038095D01*
X76280952Y-49085714D01*
X76661904Y-49085714D01*
X76757142Y-49038095D01*
X76804761Y-48990476D01*
X76852380Y-48895238D01*
X76852380Y-48704761D01*
X76804761Y-48609523D01*
X76757142Y-48561904D01*
X76661904Y-48514285D01*
X76423809Y-48514285D01*
X76328571Y-48561904D01*
X76280952Y-48609523D01*
X76233333Y-48704761D01*
X76233333Y-48895238D01*
X76280952Y-48990476D01*
X76328571Y-49038095D01*
X76423809Y-49085714D01*
%TO.C,H1*%
X112038095Y-33852380D02*
X112038095Y-32852380D01*
X112038095Y-33328571D02*
X112609523Y-33328571D01*
X112609523Y-33852380D02*
X112609523Y-32852380D01*
X113609523Y-33852380D02*
X113038095Y-33852380D01*
X113323809Y-33852380D02*
X113323809Y-32852380D01*
X113228571Y-32995238D01*
X113133333Y-33090476D01*
X113038095Y-33138095D01*
%TO.C,C15*%
X67707106Y-62302030D02*
X67774450Y-62302030D01*
X67909137Y-62369374D01*
X67976480Y-62436717D01*
X68043824Y-62571404D01*
X68043824Y-62706091D01*
X68010152Y-62807106D01*
X67909137Y-62975465D01*
X67808122Y-63076480D01*
X67639763Y-63177496D01*
X67538748Y-63211167D01*
X67404061Y-63211167D01*
X67269374Y-63143824D01*
X67202030Y-63076480D01*
X67134687Y-62941793D01*
X67134687Y-62874450D01*
X67101015Y-61561251D02*
X67505076Y-61965312D01*
X67303045Y-61763282D02*
X66595938Y-62470389D01*
X66764297Y-62436717D01*
X66898984Y-62436717D01*
X67000000Y-62470389D01*
X65754145Y-61628595D02*
X66090862Y-61965312D01*
X66461251Y-61662267D01*
X66393908Y-61662267D01*
X66292893Y-61628595D01*
X66124534Y-61460236D01*
X66090862Y-61359221D01*
X66090862Y-61291877D01*
X66124534Y-61190862D01*
X66292893Y-61022503D01*
X66393908Y-60988832D01*
X66461251Y-60988832D01*
X66562267Y-61022503D01*
X66730625Y-61190862D01*
X66764297Y-61291877D01*
X66764297Y-61359221D01*
%TO.C,C5*%
X79157142Y-49366666D02*
X79204761Y-49414285D01*
X79252380Y-49557142D01*
X79252380Y-49652380D01*
X79204761Y-49795238D01*
X79109523Y-49890476D01*
X79014285Y-49938095D01*
X78823809Y-49985714D01*
X78680952Y-49985714D01*
X78490476Y-49938095D01*
X78395238Y-49890476D01*
X78300000Y-49795238D01*
X78252380Y-49652380D01*
X78252380Y-49557142D01*
X78300000Y-49414285D01*
X78347619Y-49366666D01*
X78252380Y-48461904D02*
X78252380Y-48938095D01*
X78728571Y-48985714D01*
X78680952Y-48938095D01*
X78633333Y-48842857D01*
X78633333Y-48604761D01*
X78680952Y-48509523D01*
X78728571Y-48461904D01*
X78823809Y-48414285D01*
X79061904Y-48414285D01*
X79157142Y-48461904D01*
X79204761Y-48509523D01*
X79252380Y-48604761D01*
X79252380Y-48842857D01*
X79204761Y-48938095D01*
X79157142Y-48985714D01*
%TO.C,C10*%
X101957142Y-83442857D02*
X102004761Y-83490476D01*
X102052380Y-83633333D01*
X102052380Y-83728571D01*
X102004761Y-83871428D01*
X101909523Y-83966666D01*
X101814285Y-84014285D01*
X101623809Y-84061904D01*
X101480952Y-84061904D01*
X101290476Y-84014285D01*
X101195238Y-83966666D01*
X101100000Y-83871428D01*
X101052380Y-83728571D01*
X101052380Y-83633333D01*
X101100000Y-83490476D01*
X101147619Y-83442857D01*
X102052380Y-82490476D02*
X102052380Y-83061904D01*
X102052380Y-82776190D02*
X101052380Y-82776190D01*
X101195238Y-82871428D01*
X101290476Y-82966666D01*
X101338095Y-83061904D01*
X101052380Y-81871428D02*
X101052380Y-81776190D01*
X101100000Y-81680952D01*
X101147619Y-81633333D01*
X101242857Y-81585714D01*
X101433333Y-81538095D01*
X101671428Y-81538095D01*
X101861904Y-81585714D01*
X101957142Y-81633333D01*
X102004761Y-81680952D01*
X102052380Y-81776190D01*
X102052380Y-81871428D01*
X102004761Y-81966666D01*
X101957142Y-82014285D01*
X101861904Y-82061904D01*
X101671428Y-82109523D01*
X101433333Y-82109523D01*
X101242857Y-82061904D01*
X101147619Y-82014285D01*
X101100000Y-81966666D01*
X101052380Y-81871428D01*
%TO.C,H3*%
X60738095Y-33452380D02*
X60738095Y-32452380D01*
X60738095Y-32928571D02*
X61309523Y-32928571D01*
X61309523Y-33452380D02*
X61309523Y-32452380D01*
X61690476Y-32452380D02*
X62309523Y-32452380D01*
X61976190Y-32833333D01*
X62119047Y-32833333D01*
X62214285Y-32880952D01*
X62261904Y-32928571D01*
X62309523Y-33023809D01*
X62309523Y-33261904D01*
X62261904Y-33357142D01*
X62214285Y-33404761D01*
X62119047Y-33452380D01*
X61833333Y-33452380D01*
X61738095Y-33404761D01*
X61690476Y-33357142D01*
%TO.C,R1*%
X105352380Y-75966666D02*
X104876190Y-76300000D01*
X105352380Y-76538095D02*
X104352380Y-76538095D01*
X104352380Y-76157142D01*
X104400000Y-76061904D01*
X104447619Y-76014285D01*
X104542857Y-75966666D01*
X104685714Y-75966666D01*
X104780952Y-76014285D01*
X104828571Y-76061904D01*
X104876190Y-76157142D01*
X104876190Y-76538095D01*
X105352380Y-75014285D02*
X105352380Y-75585714D01*
X105352380Y-75300000D02*
X104352380Y-75300000D01*
X104495238Y-75395238D01*
X104590476Y-75490476D01*
X104638095Y-75585714D01*
%TO.C,U6*%
X68574026Y-63951522D02*
X69146446Y-64523942D01*
X69247461Y-64557614D01*
X69314805Y-64557614D01*
X69415820Y-64523942D01*
X69550507Y-64389255D01*
X69584179Y-64288240D01*
X69584179Y-64220896D01*
X69550507Y-64119881D01*
X68978087Y-63547461D01*
X69617851Y-62907698D02*
X69483164Y-63042385D01*
X69449492Y-63143400D01*
X69449492Y-63210744D01*
X69483164Y-63379103D01*
X69584179Y-63547461D01*
X69853553Y-63816835D01*
X69954568Y-63850507D01*
X70021912Y-63850507D01*
X70122927Y-63816835D01*
X70257614Y-63682148D01*
X70291286Y-63581133D01*
X70291286Y-63513790D01*
X70257614Y-63412774D01*
X70089255Y-63244416D01*
X69988240Y-63210744D01*
X69920896Y-63210744D01*
X69819881Y-63244416D01*
X69685194Y-63379103D01*
X69651522Y-63480118D01*
X69651522Y-63547461D01*
X69685194Y-63648477D01*
%TO.C,C12*%
X97657142Y-83442857D02*
X97704761Y-83490476D01*
X97752380Y-83633333D01*
X97752380Y-83728571D01*
X97704761Y-83871428D01*
X97609523Y-83966666D01*
X97514285Y-84014285D01*
X97323809Y-84061904D01*
X97180952Y-84061904D01*
X96990476Y-84014285D01*
X96895238Y-83966666D01*
X96800000Y-83871428D01*
X96752380Y-83728571D01*
X96752380Y-83633333D01*
X96800000Y-83490476D01*
X96847619Y-83442857D01*
X97752380Y-82490476D02*
X97752380Y-83061904D01*
X97752380Y-82776190D02*
X96752380Y-82776190D01*
X96895238Y-82871428D01*
X96990476Y-82966666D01*
X97038095Y-83061904D01*
X96847619Y-82109523D02*
X96800000Y-82061904D01*
X96752380Y-81966666D01*
X96752380Y-81728571D01*
X96800000Y-81633333D01*
X96847619Y-81585714D01*
X96942857Y-81538095D01*
X97038095Y-81538095D01*
X97180952Y-81585714D01*
X97752380Y-82157142D01*
X97752380Y-81538095D01*
%TO.C,U5*%
X102638095Y-47752380D02*
X102638095Y-48561904D01*
X102685714Y-48657142D01*
X102733333Y-48704761D01*
X102828571Y-48752380D01*
X103019047Y-48752380D01*
X103114285Y-48704761D01*
X103161904Y-48657142D01*
X103209523Y-48561904D01*
X103209523Y-47752380D01*
X104161904Y-47752380D02*
X103685714Y-47752380D01*
X103638095Y-48228571D01*
X103685714Y-48180952D01*
X103780952Y-48133333D01*
X104019047Y-48133333D01*
X104114285Y-48180952D01*
X104161904Y-48228571D01*
X104209523Y-48323809D01*
X104209523Y-48561904D01*
X104161904Y-48657142D01*
X104114285Y-48704761D01*
X104019047Y-48752380D01*
X103780952Y-48752380D01*
X103685714Y-48704761D01*
X103638095Y-48657142D01*
%TO.C,C9*%
X107458333Y-53207142D02*
X107410714Y-53254761D01*
X107267857Y-53302380D01*
X107172619Y-53302380D01*
X107029761Y-53254761D01*
X106934523Y-53159523D01*
X106886904Y-53064285D01*
X106839285Y-52873809D01*
X106839285Y-52730952D01*
X106886904Y-52540476D01*
X106934523Y-52445238D01*
X107029761Y-52350000D01*
X107172619Y-52302380D01*
X107267857Y-52302380D01*
X107410714Y-52350000D01*
X107458333Y-52397619D01*
X107934523Y-53302380D02*
X108125000Y-53302380D01*
X108220238Y-53254761D01*
X108267857Y-53207142D01*
X108363095Y-53064285D01*
X108410714Y-52873809D01*
X108410714Y-52492857D01*
X108363095Y-52397619D01*
X108315476Y-52350000D01*
X108220238Y-52302380D01*
X108029761Y-52302380D01*
X107934523Y-52350000D01*
X107886904Y-52397619D01*
X107839285Y-52492857D01*
X107839285Y-52730952D01*
X107886904Y-52826190D01*
X107934523Y-52873809D01*
X108029761Y-52921428D01*
X108220238Y-52921428D01*
X108315476Y-52873809D01*
X108363095Y-52826190D01*
X108410714Y-52730952D01*
%TO.C,C2*%
X90757142Y-51116666D02*
X90804761Y-51164285D01*
X90852380Y-51307142D01*
X90852380Y-51402380D01*
X90804761Y-51545238D01*
X90709523Y-51640476D01*
X90614285Y-51688095D01*
X90423809Y-51735714D01*
X90280952Y-51735714D01*
X90090476Y-51688095D01*
X89995238Y-51640476D01*
X89900000Y-51545238D01*
X89852380Y-51402380D01*
X89852380Y-51307142D01*
X89900000Y-51164285D01*
X89947619Y-51116666D01*
X89947619Y-50735714D02*
X89900000Y-50688095D01*
X89852380Y-50592857D01*
X89852380Y-50354761D01*
X89900000Y-50259523D01*
X89947619Y-50211904D01*
X90042857Y-50164285D01*
X90138095Y-50164285D01*
X90280952Y-50211904D01*
X90852380Y-50783333D01*
X90852380Y-50164285D01*
%TO.C,H2*%
X111738095Y-88601350D02*
X111738095Y-87601350D01*
X111738095Y-88077541D02*
X112309523Y-88077541D01*
X112309523Y-88601350D02*
X112309523Y-87601350D01*
X112738095Y-87696589D02*
X112785714Y-87648970D01*
X112880952Y-87601350D01*
X113119047Y-87601350D01*
X113214285Y-87648970D01*
X113261904Y-87696589D01*
X113309523Y-87791827D01*
X113309523Y-87887065D01*
X113261904Y-88029922D01*
X112690476Y-88601350D01*
X113309523Y-88601350D01*
%TO.C,U7*%
X78652380Y-55661904D02*
X79461904Y-55661904D01*
X79557142Y-55614285D01*
X79604761Y-55566666D01*
X79652380Y-55471428D01*
X79652380Y-55280952D01*
X79604761Y-55185714D01*
X79557142Y-55138095D01*
X79461904Y-55090476D01*
X78652380Y-55090476D01*
X78652380Y-54709523D02*
X78652380Y-54042857D01*
X79652380Y-54471428D01*
%TO.C,C16*%
X63807106Y-66202030D02*
X63874450Y-66202030D01*
X64009137Y-66269374D01*
X64076480Y-66336717D01*
X64143824Y-66471404D01*
X64143824Y-66606091D01*
X64110152Y-66707106D01*
X64009137Y-66875465D01*
X63908122Y-66976480D01*
X63739763Y-67077496D01*
X63638748Y-67111167D01*
X63504061Y-67111167D01*
X63369374Y-67043824D01*
X63302030Y-66976480D01*
X63234687Y-66841793D01*
X63234687Y-66774450D01*
X63201015Y-65461251D02*
X63605076Y-65865312D01*
X63403045Y-65663282D02*
X62695938Y-66370389D01*
X62864297Y-66336717D01*
X62998984Y-66336717D01*
X63100000Y-66370389D01*
X61887816Y-65562267D02*
X62022503Y-65696954D01*
X62123519Y-65730625D01*
X62190862Y-65730625D01*
X62359221Y-65696954D01*
X62527580Y-65595938D01*
X62796954Y-65326564D01*
X62830625Y-65225549D01*
X62830625Y-65158206D01*
X62796954Y-65057190D01*
X62662267Y-64922503D01*
X62561251Y-64888832D01*
X62493908Y-64888832D01*
X62392893Y-64922503D01*
X62224534Y-65090862D01*
X62190862Y-65191877D01*
X62190862Y-65259221D01*
X62224534Y-65360236D01*
X62359221Y-65494923D01*
X62460236Y-65528595D01*
X62527580Y-65528595D01*
X62628595Y-65494923D01*
%TO.C,C13*%
X95657142Y-83442857D02*
X95704761Y-83490476D01*
X95752380Y-83633333D01*
X95752380Y-83728571D01*
X95704761Y-83871428D01*
X95609523Y-83966666D01*
X95514285Y-84014285D01*
X95323809Y-84061904D01*
X95180952Y-84061904D01*
X94990476Y-84014285D01*
X94895238Y-83966666D01*
X94800000Y-83871428D01*
X94752380Y-83728571D01*
X94752380Y-83633333D01*
X94800000Y-83490476D01*
X94847619Y-83442857D01*
X95752380Y-82490476D02*
X95752380Y-83061904D01*
X95752380Y-82776190D02*
X94752380Y-82776190D01*
X94895238Y-82871428D01*
X94990476Y-82966666D01*
X95038095Y-83061904D01*
X94752380Y-82157142D02*
X94752380Y-81538095D01*
X95133333Y-81871428D01*
X95133333Y-81728571D01*
X95180952Y-81633333D01*
X95228571Y-81585714D01*
X95323809Y-81538095D01*
X95561904Y-81538095D01*
X95657142Y-81585714D01*
X95704761Y-81633333D01*
X95752380Y-81728571D01*
X95752380Y-82014285D01*
X95704761Y-82109523D01*
X95657142Y-82157142D01*
D11*
%TO.C,C7*%
X102890000Y-71540580D02*
X102890000Y-71259420D01*
X103910000Y-71540580D02*
X103910000Y-71259420D01*
%TO.C,C1*%
X91790000Y-46534420D02*
X91790000Y-46815580D01*
X92810000Y-46534420D02*
X92810000Y-46815580D01*
%TO.C,J7*%
X105820000Y-83200000D02*
X106780000Y-83200000D01*
X105820000Y-83760000D02*
X106780000Y-83760000D01*
X103230000Y-83260000D02*
X103230000Y-84000000D01*
X103230000Y-84000000D02*
X103730000Y-84000000D01*
X108360000Y-83760000D02*
X109130000Y-83760000D01*
X103470000Y-83200000D02*
X104240000Y-83200000D01*
X103470000Y-77900000D02*
X109130000Y-77900000D01*
X108360000Y-83200000D02*
X109130000Y-83200000D01*
X109130000Y-77440000D02*
X109130000Y-83760000D01*
X103470000Y-77440000D02*
X109130000Y-77440000D01*
X103470000Y-77440000D02*
X103470000Y-83760000D01*
X103470000Y-83760000D02*
X104240000Y-83760000D01*
%TO.C,J2*%
X68100000Y-40340000D02*
X68100000Y-46000000D01*
X62240000Y-42690000D02*
X62240000Y-43650000D01*
X62800000Y-40340000D02*
X62800000Y-41110000D01*
X62240000Y-40340000D02*
X62240000Y-41110000D01*
X68560000Y-46000000D02*
X62240000Y-46000000D01*
X68560000Y-40340000D02*
X68560000Y-46000000D01*
X62800000Y-42690000D02*
X62800000Y-43650000D01*
X62740000Y-40100000D02*
X62000000Y-40100000D01*
X62800000Y-45230000D02*
X62800000Y-46000000D01*
X62240000Y-45230000D02*
X62240000Y-46000000D01*
X68560000Y-40340000D02*
X62240000Y-40340000D01*
X62000000Y-40100000D02*
X62000000Y-40600000D01*
%TO.C,C4*%
X94610000Y-46509420D02*
X94610000Y-46790580D01*
X93590000Y-46509420D02*
X93590000Y-46790580D01*
D12*
%TO.C,U1*%
X94189981Y-78054000D02*
G75*
G03*
X94189981Y-78054000I-283981J0D01*
G01*
D10*
X75000000Y-78200000D02*
X93000000Y-78200000D01*
X75000000Y-84200000D02*
X93000000Y-84200000D01*
X75000000Y-84200000D02*
X75000000Y-58700000D01*
X75000000Y-58700000D02*
X93000000Y-58700000D01*
X93000000Y-84200000D02*
X93000000Y-58700000D01*
D11*
%TO.C,C14*%
X72210000Y-58640580D02*
X72210000Y-58359420D01*
X71190000Y-58640580D02*
X71190000Y-58359420D01*
%TO.C,C11*%
X98890000Y-79659420D02*
X98890000Y-79940580D01*
X99910000Y-79659420D02*
X99910000Y-79940580D01*
%TO.C,SW1*%
X97670000Y-69550000D02*
X100370000Y-69550000D01*
X102120000Y-75850000D02*
X102120000Y-69550000D01*
X101670000Y-75850000D02*
X102120000Y-75850000D01*
X95920000Y-75850000D02*
X95920000Y-69550000D01*
X100370000Y-75850000D02*
X97670000Y-75850000D01*
X102120000Y-69550000D02*
X101720000Y-69550000D01*
X96370000Y-75850000D02*
X95920000Y-75850000D01*
X95920000Y-69550000D02*
X96370000Y-69550000D01*
%TO.C,C3*%
X87790000Y-46509420D02*
X87790000Y-46790580D01*
X88810000Y-46509420D02*
X88810000Y-46790580D01*
%TO.C,C8*%
X104384420Y-50860000D02*
X104665580Y-50860000D01*
X104384420Y-49840000D02*
X104665580Y-49840000D01*
%TO.C,J4*%
X65010000Y-78530000D02*
X65010000Y-70850000D01*
X65010000Y-78530000D02*
X62350000Y-78530000D01*
X65010000Y-81130000D02*
X63680000Y-81130000D01*
X65010000Y-79800000D02*
X65010000Y-81130000D01*
X65010000Y-70850000D02*
X62350000Y-70850000D01*
X62350000Y-78530000D02*
X62350000Y-70850000D01*
%TO.C,C6*%
X75890000Y-46459420D02*
X75890000Y-46740580D01*
X76910000Y-46459420D02*
X76910000Y-46740580D01*
%TO.C,C15*%
X65238781Y-63960030D02*
X65039970Y-63761219D01*
X65960030Y-63238781D02*
X65761219Y-63039970D01*
%TO.C,C5*%
X78290000Y-46459420D02*
X78290000Y-46740580D01*
X79310000Y-46459420D02*
X79310000Y-46740580D01*
%TO.C,J3*%
X111760000Y-68780000D02*
X111760000Y-67820000D01*
X105900000Y-71130000D02*
X105900000Y-65470000D01*
X111200000Y-71130000D02*
X111200000Y-70360000D01*
X105440000Y-65470000D02*
X111760000Y-65470000D01*
X112000000Y-71370000D02*
X112000000Y-70870000D01*
X111260000Y-71370000D02*
X112000000Y-71370000D01*
X111760000Y-66240000D02*
X111760000Y-65470000D01*
X105440000Y-71130000D02*
X111760000Y-71130000D01*
X111200000Y-66240000D02*
X111200000Y-65470000D01*
X111760000Y-71130000D02*
X111760000Y-70360000D01*
X111200000Y-68780000D02*
X111200000Y-67820000D01*
X105440000Y-71130000D02*
X105440000Y-65470000D01*
%TO.C,C10*%
X100990000Y-79659420D02*
X100990000Y-79940580D01*
X102010000Y-79659420D02*
X102010000Y-79940580D01*
%TO.C,R1*%
X102877500Y-75254724D02*
X102877500Y-74745276D01*
X103922500Y-75254724D02*
X103922500Y-74745276D01*
D10*
%TO.C,U6*%
X68200000Y-64859441D02*
X67828769Y-65230672D01*
X65159441Y-67900000D02*
X65530672Y-67528769D01*
X71240559Y-67900000D02*
X70869328Y-68271231D01*
X68200000Y-64859441D02*
X68571231Y-65230672D01*
X65159441Y-67900000D02*
X65530672Y-68271231D01*
X68200000Y-70940559D02*
X68571231Y-70569328D01*
X68200000Y-70940559D02*
X67828769Y-70569328D01*
D11*
%TO.C,J8*%
X105440000Y-63730000D02*
X111760000Y-63730000D01*
X112000000Y-63970000D02*
X112000000Y-63470000D01*
X111200000Y-58840000D02*
X111200000Y-58070000D01*
X111200000Y-61380000D02*
X111200000Y-60420000D01*
X105440000Y-58070000D02*
X111760000Y-58070000D01*
X111760000Y-63730000D02*
X111760000Y-62960000D01*
X105900000Y-63730000D02*
X105900000Y-58070000D01*
X111260000Y-63970000D02*
X112000000Y-63970000D01*
X105440000Y-63730000D02*
X105440000Y-58070000D01*
X111760000Y-61380000D02*
X111760000Y-60420000D01*
X111200000Y-63730000D02*
X111200000Y-62960000D01*
X111760000Y-58840000D02*
X111760000Y-58070000D01*
%TO.C,SW2*%
X69450000Y-54300000D02*
X63150000Y-54300000D01*
X63150000Y-60500000D02*
X63150000Y-60050000D01*
X69450000Y-54750000D02*
X69450000Y-54300000D01*
X69450000Y-60500000D02*
X63150000Y-60500000D01*
X69450000Y-56050000D02*
X69450000Y-58750000D01*
X63150000Y-54300000D02*
X63150000Y-54700000D01*
X69450000Y-60050000D02*
X69450000Y-60500000D01*
X63150000Y-58750000D02*
X63150000Y-56050000D01*
%TO.C,C12*%
X97810000Y-79659420D02*
X97810000Y-79940580D01*
X96790000Y-79659420D02*
X96790000Y-79940580D01*
%TO.C,U5*%
X102210000Y-51460000D02*
X100950000Y-51460000D01*
X102210000Y-45450000D02*
X102210000Y-51460000D01*
X95390000Y-47700000D02*
X95390000Y-51460000D01*
X95390000Y-51460000D02*
X96650000Y-51460000D01*
%TO.C,J5*%
X87140000Y-39920000D02*
X87140000Y-40880000D01*
X87640000Y-37330000D02*
X86900000Y-37330000D01*
X93460000Y-37570000D02*
X93460000Y-43230000D01*
X87700000Y-37570000D02*
X87700000Y-38340000D01*
X93460000Y-43230000D02*
X87140000Y-43230000D01*
X87700000Y-39920000D02*
X87700000Y-40880000D01*
X87140000Y-37570000D02*
X87140000Y-38340000D01*
X87700000Y-42460000D02*
X87700000Y-43230000D01*
X86900000Y-37330000D02*
X86900000Y-37830000D01*
X93460000Y-37570000D02*
X87140000Y-37570000D01*
X87140000Y-42460000D02*
X87140000Y-43230000D01*
X93000000Y-37570000D02*
X93000000Y-43230000D01*
%TO.C,C9*%
X104384420Y-53260000D02*
X104665580Y-53260000D01*
X104384420Y-52240000D02*
X104665580Y-52240000D01*
%TO.C,C2*%
X90810000Y-46509420D02*
X90810000Y-46790580D01*
X89790000Y-46509420D02*
X89790000Y-46790580D01*
%TO.C,U7*%
X80050000Y-48130000D02*
X80320000Y-48130000D01*
X86680000Y-48130000D02*
X86680000Y-45300000D01*
X86950000Y-48130000D02*
X86680000Y-48130000D01*
X86950000Y-49630000D02*
X86950000Y-48130000D01*
X80050000Y-49630000D02*
X80050000Y-48130000D01*
X80320000Y-48130000D02*
X80320000Y-47030000D01*
%TO.C,C16*%
X64760030Y-64438781D02*
X64561219Y-64239970D01*
X64038781Y-65160030D02*
X63839970Y-64961219D01*
%TO.C,J1*%
X62800000Y-49520000D02*
X62800000Y-50480000D01*
X62000000Y-46930000D02*
X62000000Y-47430000D01*
X68100000Y-47170000D02*
X68100000Y-52830000D01*
X62240000Y-49520000D02*
X62240000Y-50480000D01*
X62800000Y-52060000D02*
X62800000Y-52830000D01*
X62240000Y-52060000D02*
X62240000Y-52830000D01*
X62240000Y-47170000D02*
X62240000Y-47940000D01*
X62740000Y-46930000D02*
X62000000Y-46930000D01*
X62800000Y-47170000D02*
X62800000Y-47940000D01*
X68560000Y-47170000D02*
X62240000Y-47170000D01*
X68560000Y-52830000D02*
X62240000Y-52830000D01*
X68560000Y-47170000D02*
X68560000Y-52830000D01*
%TO.C,J6*%
X76810000Y-38100000D02*
X75850000Y-38100000D01*
X74270000Y-38100000D02*
X73500000Y-38100000D01*
X79160000Y-38100000D02*
X78390000Y-38100000D01*
X73500000Y-43860000D02*
X73500000Y-37540000D01*
X79400000Y-38040000D02*
X79400000Y-37300000D01*
X76810000Y-37540000D02*
X75850000Y-37540000D01*
X74270000Y-37540000D02*
X73500000Y-37540000D01*
X79160000Y-43400000D02*
X73500000Y-43400000D01*
X79160000Y-37540000D02*
X78390000Y-37540000D01*
X79160000Y-43860000D02*
X73500000Y-43860000D01*
X79400000Y-37300000D02*
X78900000Y-37300000D01*
X79160000Y-43860000D02*
X79160000Y-37540000D01*
%TO.C,C13*%
X95710000Y-79659420D02*
X95710000Y-79940580D01*
X94690000Y-79659420D02*
X94690000Y-79940580D01*
%TD*%
%LPC*%
D13*
%TO.C,C7*%
X103400000Y-70625000D03*
X103400000Y-72175000D03*
%TD*%
D14*
%TO.C,C1*%
X92300000Y-45900000D03*
X92300000Y-47450000D03*
%TD*%
D15*
%TO.C,J7*%
X105030000Y-83140000D03*
X107570000Y-83140000D03*
D16*
X105030000Y-80600000D03*
D17*
X107570000Y-80600000D03*
%TD*%
%TO.C,J2*%
X65400000Y-44440000D03*
D16*
X65400000Y-41900000D03*
D15*
X62860000Y-44440000D03*
X62860000Y-41900000D03*
%TD*%
D14*
%TO.C,C4*%
X94100000Y-45875000D03*
X94100000Y-47425000D03*
%TD*%
D18*
%TO.C,U1*%
X85100000Y-69500000D03*
D19*
X75000000Y-76700000D03*
X75000000Y-75430000D03*
X75000000Y-74160000D03*
X75000000Y-72890000D03*
X75000000Y-71620000D03*
X75000000Y-70350000D03*
X75000000Y-69080000D03*
X75000000Y-67810000D03*
X75000000Y-66540000D03*
X75000000Y-65270000D03*
X75000000Y-64000000D03*
X75000000Y-62730000D03*
X75000000Y-61460000D03*
X75000000Y-60190000D03*
D20*
X78285000Y-58700000D03*
X79555000Y-58700000D03*
X80825000Y-58700000D03*
X82095000Y-58700000D03*
X83365000Y-58700000D03*
X84635000Y-58700000D03*
X85905000Y-58700000D03*
X87175000Y-58700000D03*
X88445000Y-58700000D03*
X89715000Y-58700000D03*
D19*
X93000000Y-60190000D03*
X93000000Y-61460000D03*
X93000000Y-62730000D03*
X93000000Y-64000000D03*
X93000000Y-65270000D03*
X93000000Y-66540000D03*
X93000000Y-67810000D03*
X93000000Y-69080000D03*
X93000000Y-70350000D03*
X93000000Y-71620000D03*
X93000000Y-72890000D03*
X93000000Y-74160000D03*
X93000000Y-75430000D03*
X93000000Y-76700000D03*
%TD*%
D13*
%TO.C,C14*%
X71700000Y-59275000D03*
X71700000Y-57725000D03*
%TD*%
D14*
%TO.C,C11*%
X99400000Y-79025000D03*
X99400000Y-80575000D03*
%TD*%
D21*
%TO.C,SW1*%
X97020000Y-69820000D03*
X97020000Y-75580000D03*
X101020000Y-75580000D03*
X101020000Y-69820000D03*
%TD*%
D14*
%TO.C,C3*%
X88300000Y-45875000D03*
X88300000Y-47425000D03*
%TD*%
D22*
%TO.C,H4*%
X61500000Y-84500000D03*
%TD*%
D23*
%TO.C,C8*%
X103750000Y-50350000D03*
X105300000Y-50350000D03*
%TD*%
D24*
%TO.C,J4*%
X63680000Y-79800000D03*
D25*
X63680000Y-77260000D03*
X63680000Y-74720000D03*
X63680000Y-72180000D03*
%TD*%
D14*
%TO.C,C6*%
X76400000Y-47375000D03*
X76400000Y-45825000D03*
%TD*%
D22*
%TO.C,H1*%
X112700000Y-36800000D03*
%TD*%
D26*
%TO.C,C15*%
X64951992Y-62951992D03*
X66048008Y-64048008D03*
%TD*%
D14*
%TO.C,C5*%
X78800000Y-47375000D03*
X78800000Y-45825000D03*
%TD*%
D15*
%TO.C,J3*%
X111140000Y-67030000D03*
X111140000Y-69570000D03*
D16*
X108600000Y-69570000D03*
D17*
X108600000Y-67030000D03*
%TD*%
D14*
%TO.C,C10*%
X101500000Y-79025000D03*
X101500000Y-80575000D03*
%TD*%
D22*
%TO.C,H3*%
X61500000Y-36800000D03*
%TD*%
D27*
%TO.C,R1*%
X103400000Y-75912500D03*
X103400000Y-74087500D03*
%TD*%
D28*
%TO.C,U6*%
X70462742Y-67405025D03*
X70109188Y-67051472D03*
X69755635Y-66697918D03*
X69402082Y-66344365D03*
X69048528Y-65990812D03*
X68694975Y-65637258D03*
D29*
X67705025Y-65637258D03*
X67351472Y-65990812D03*
X66997918Y-66344365D03*
X66644365Y-66697918D03*
X66290812Y-67051472D03*
X65937258Y-67405025D03*
D28*
X65937258Y-68394975D03*
X66290812Y-68748528D03*
X66644365Y-69102082D03*
X66997918Y-69455635D03*
X67351472Y-69809188D03*
X67705025Y-70162742D03*
D29*
X68694975Y-70162742D03*
X69048528Y-69809188D03*
X69402082Y-69455635D03*
X69755635Y-69102082D03*
X70109188Y-68748528D03*
X70462742Y-68394975D03*
%TD*%
D15*
%TO.C,J8*%
X111140000Y-59630000D03*
X111140000Y-62170000D03*
D16*
X108600000Y-62170000D03*
D17*
X108600000Y-59630000D03*
%TD*%
D30*
%TO.C,SW2*%
X69180000Y-55400000D03*
X63420000Y-55400000D03*
X63420000Y-59400000D03*
X69180000Y-59400000D03*
%TD*%
D14*
%TO.C,C12*%
X97300000Y-79025000D03*
X97300000Y-80575000D03*
%TD*%
D31*
%TO.C,U5*%
X101100000Y-46400000D03*
X98800000Y-46400000D03*
D32*
X98800000Y-52700000D03*
D31*
X96500000Y-46400000D03*
%TD*%
D15*
%TO.C,J5*%
X87760000Y-41670000D03*
X87760000Y-39130000D03*
D16*
X90300000Y-39130000D03*
D17*
X90300000Y-41670000D03*
%TD*%
D23*
%TO.C,C9*%
X103750000Y-52750000D03*
X105300000Y-52750000D03*
%TD*%
D14*
%TO.C,C2*%
X90300000Y-45875000D03*
X90300000Y-47425000D03*
%TD*%
D22*
%TO.C,H2*%
X112500000Y-84548970D03*
%TD*%
D33*
%TO.C,U7*%
X85780000Y-46400000D03*
X83500000Y-46400000D03*
D34*
X83500000Y-52700000D03*
D33*
X81220000Y-46400000D03*
%TD*%
D26*
%TO.C,C16*%
X63751992Y-64151992D03*
X64848008Y-65248008D03*
%TD*%
D17*
%TO.C,J1*%
X65400000Y-51270000D03*
D16*
X65400000Y-48730000D03*
D15*
X62860000Y-48730000D03*
X62860000Y-51270000D03*
%TD*%
%TO.C,J6*%
X77600000Y-38160000D03*
X75060000Y-38160000D03*
D16*
X77600000Y-40700000D03*
D17*
X75060000Y-40700000D03*
%TD*%
D14*
%TO.C,C13*%
X95200000Y-79025000D03*
X95200000Y-80575000D03*
%TD*%
M02*
