%TF.GenerationSoftware,KiCad,Pcbnew,(6.0.8)*%
%TF.CreationDate,2022-11-27T13:06:36-05:00*%
%TF.ProjectId,miura_board,6d697572-615f-4626-9f61-72642e6b6963,rev?*%
%TF.SameCoordinates,Original*%
%TF.FileFunction,Legend,Bot*%
%TF.FilePolarity,Positive*%
%FSLAX46Y46*%
G04 Gerber Fmt 4.6, Leading zero omitted, Abs format (unit mm)*
G04 Created by KiCad (PCBNEW (6.0.8)) date 2022-11-27 13:06:36*
%MOMM*%
%LPD*%
G01*
G04 APERTURE LIST*
G04 Aperture macros list*
%AMRoundRect*
0 Rectangle with rounded corners*
0 $1 Rounding radius*
0 $2 $3 $4 $5 $6 $7 $8 $9 X,Y pos of 4 corners*
0 Add a 4 corners polygon primitive as box body*
4,1,4,$2,$3,$4,$5,$6,$7,$8,$9,$2,$3,0*
0 Add four circle primitives for the rounded corners*
1,1,$1+$1,$2,$3*
1,1,$1+$1,$4,$5*
1,1,$1+$1,$6,$7*
1,1,$1+$1,$8,$9*
0 Add four rect primitives between the rounded corners*
20,1,$1+$1,$2,$3,$4,$5,0*
20,1,$1+$1,$4,$5,$6,$7,0*
20,1,$1+$1,$6,$7,$8,$9,0*
20,1,$1+$1,$8,$9,$2,$3,0*%
G04 Aperture macros list end*
%ADD10C,0.150000*%
%ADD11C,0.120000*%
%ADD12RoundRect,0.225000X-0.250000X0.225000X-0.250000X-0.225000X0.250000X-0.225000X0.250000X0.225000X0*%
%ADD13C,1.100000*%
%ADD14R,2.200000X2.200000*%
%ADD15C,2.200000*%
%ADD16RoundRect,0.100000X-0.637500X-0.100000X0.637500X-0.100000X0.637500X0.100000X-0.637500X0.100000X0*%
%ADD17C,3.800000*%
%ADD18RoundRect,0.100000X0.637500X0.100000X-0.637500X0.100000X-0.637500X-0.100000X0.637500X-0.100000X0*%
%ADD19RoundRect,0.225000X-0.225000X-0.250000X0.225000X-0.250000X0.225000X0.250000X-0.225000X0.250000X0*%
%ADD20R,1.700000X1.700000*%
%ADD21O,1.700000X1.700000*%
%ADD22RoundRect,0.225000X0.250000X-0.225000X0.250000X0.225000X-0.250000X0.225000X-0.250000X-0.225000X0*%
%ADD23RoundRect,0.225000X0.225000X0.250000X-0.225000X0.250000X-0.225000X-0.250000X0.225000X-0.250000X0*%
%ADD24RoundRect,0.100000X-0.100000X0.637500X-0.100000X-0.637500X0.100000X-0.637500X0.100000X0.637500X0*%
G04 APERTURE END LIST*
D10*
X77641421Y-48300000D02*
G75*
G03*
X77641421Y-48300000I-141421J0D01*
G01*
X103741421Y-65200000D02*
G75*
G03*
X103741421Y-65200000I-141421J0D01*
G01*
X80641421Y-70700000D02*
G75*
G03*
X80641421Y-70700000I-141421J0D01*
G01*
X109025238Y-78714285D02*
X109025238Y-77785714D01*
X108263333Y-78285714D01*
X108263333Y-78071428D01*
X108168095Y-77928571D01*
X108072857Y-77857142D01*
X107882380Y-77785714D01*
X107406190Y-77785714D01*
X107215714Y-77857142D01*
X107120476Y-77928571D01*
X107025238Y-78071428D01*
X107025238Y-78500000D01*
X107120476Y-78642857D01*
X107215714Y-78714285D01*
X108358571Y-76500000D02*
X107025238Y-76500000D01*
X109120476Y-76857142D02*
X107691904Y-77214285D01*
X107691904Y-76285714D01*
X105805238Y-78714285D02*
X105805238Y-77785714D01*
X105043333Y-78285714D01*
X105043333Y-78071428D01*
X104948095Y-77928571D01*
X104852857Y-77857142D01*
X104662380Y-77785714D01*
X104186190Y-77785714D01*
X103995714Y-77857142D01*
X103900476Y-77928571D01*
X103805238Y-78071428D01*
X103805238Y-78500000D01*
X103900476Y-78642857D01*
X103995714Y-78714285D01*
X105805238Y-76428571D02*
X105805238Y-77142857D01*
X104852857Y-77214285D01*
X104948095Y-77142857D01*
X105043333Y-77000000D01*
X105043333Y-76642857D01*
X104948095Y-76500000D01*
X104852857Y-76428571D01*
X104662380Y-76357142D01*
X104186190Y-76357142D01*
X103995714Y-76428571D01*
X103900476Y-76500000D01*
X103805238Y-76642857D01*
X103805238Y-77000000D01*
X103900476Y-77142857D01*
X103995714Y-77214285D01*
X106814285Y-65784761D02*
X105885714Y-65784761D01*
X106385714Y-66546666D01*
X106171428Y-66546666D01*
X106028571Y-66641904D01*
X105957142Y-66737142D01*
X105885714Y-66927619D01*
X105885714Y-67403809D01*
X105957142Y-67594285D01*
X106028571Y-67689523D01*
X106171428Y-67784761D01*
X106600000Y-67784761D01*
X106742857Y-67689523D01*
X106814285Y-67594285D01*
X105385714Y-65784761D02*
X104457142Y-65784761D01*
X104957142Y-66546666D01*
X104742857Y-66546666D01*
X104600000Y-66641904D01*
X104528571Y-66737142D01*
X104457142Y-66927619D01*
X104457142Y-67403809D01*
X104528571Y-67594285D01*
X104600000Y-67689523D01*
X104742857Y-67784761D01*
X105171428Y-67784761D01*
X105314285Y-67689523D01*
X105385714Y-67594285D01*
X106814285Y-69004761D02*
X105885714Y-69004761D01*
X106385714Y-69766666D01*
X106171428Y-69766666D01*
X106028571Y-69861904D01*
X105957142Y-69957142D01*
X105885714Y-70147619D01*
X105885714Y-70623809D01*
X105957142Y-70814285D01*
X106028571Y-70909523D01*
X106171428Y-71004761D01*
X106600000Y-71004761D01*
X106742857Y-70909523D01*
X106814285Y-70814285D01*
X105314285Y-69195238D02*
X105242857Y-69100000D01*
X105100000Y-69004761D01*
X104742857Y-69004761D01*
X104600000Y-69100000D01*
X104528571Y-69195238D01*
X104457142Y-69385714D01*
X104457142Y-69576190D01*
X104528571Y-69861904D01*
X105385714Y-71004761D01*
X104457142Y-71004761D01*
X106742857Y-58485238D02*
X106671428Y-58390000D01*
X106528571Y-58294761D01*
X106171428Y-58294761D01*
X106028571Y-58390000D01*
X105957142Y-58485238D01*
X105885714Y-58675714D01*
X105885714Y-58866190D01*
X105957142Y-59151904D01*
X106814285Y-60294761D01*
X105885714Y-60294761D01*
X104600000Y-58294761D02*
X104885714Y-58294761D01*
X105028571Y-58390000D01*
X105100000Y-58485238D01*
X105242857Y-58770952D01*
X105314285Y-59151904D01*
X105314285Y-59913809D01*
X105242857Y-60104285D01*
X105171428Y-60199523D01*
X105028571Y-60294761D01*
X104742857Y-60294761D01*
X104600000Y-60199523D01*
X104528571Y-60104285D01*
X104457142Y-59913809D01*
X104457142Y-59437619D01*
X104528571Y-59247142D01*
X104600000Y-59151904D01*
X104742857Y-59056666D01*
X105028571Y-59056666D01*
X105171428Y-59151904D01*
X105242857Y-59247142D01*
X105314285Y-59437619D01*
X105885714Y-63514761D02*
X106742857Y-63514761D01*
X106314285Y-63514761D02*
X106314285Y-61514761D01*
X106457142Y-61800476D01*
X106600000Y-61990952D01*
X106742857Y-62086190D01*
X104600000Y-62181428D02*
X104600000Y-63514761D01*
X104957142Y-61419523D02*
X105314285Y-62848095D01*
X104385714Y-62848095D01*
X77005238Y-44085714D02*
X77005238Y-44942857D01*
X77005238Y-44514285D02*
X79005238Y-44514285D01*
X78719523Y-44657142D01*
X78529047Y-44800000D01*
X78433809Y-44942857D01*
X78814761Y-43514285D02*
X78910000Y-43442857D01*
X79005238Y-43300000D01*
X79005238Y-42942857D01*
X78910000Y-42800000D01*
X78814761Y-42728571D01*
X78624285Y-42657142D01*
X78433809Y-42657142D01*
X78148095Y-42728571D01*
X77005238Y-43585714D01*
X77005238Y-42657142D01*
X73785238Y-44085714D02*
X73785238Y-44942857D01*
X73785238Y-44514285D02*
X75785238Y-44514285D01*
X75499523Y-44657142D01*
X75309047Y-44800000D01*
X75213809Y-44942857D01*
X75785238Y-43585714D02*
X75785238Y-42657142D01*
X75023333Y-43157142D01*
X75023333Y-42942857D01*
X74928095Y-42800000D01*
X74832857Y-42728571D01*
X74642380Y-42657142D01*
X74166190Y-42657142D01*
X73975714Y-42728571D01*
X73880476Y-42800000D01*
X73785238Y-42942857D01*
X73785238Y-43371428D01*
X73880476Y-43514285D01*
X73975714Y-43585714D01*
X69285714Y-42594761D02*
X70142857Y-42594761D01*
X69714285Y-42594761D02*
X69714285Y-40594761D01*
X69857142Y-40880476D01*
X70000000Y-41070952D01*
X70142857Y-41166190D01*
X67928571Y-40594761D02*
X68642857Y-40594761D01*
X68714285Y-41547142D01*
X68642857Y-41451904D01*
X68500000Y-41356666D01*
X68142857Y-41356666D01*
X68000000Y-41451904D01*
X67928571Y-41547142D01*
X67857142Y-41737619D01*
X67857142Y-42213809D01*
X67928571Y-42404285D01*
X68000000Y-42499523D01*
X68142857Y-42594761D01*
X68500000Y-42594761D01*
X68642857Y-42499523D01*
X68714285Y-42404285D01*
X69428571Y-44005238D02*
X69357142Y-43910000D01*
X69214285Y-43814761D01*
X68857142Y-43814761D01*
X68714285Y-43910000D01*
X68642857Y-44005238D01*
X68571428Y-44195714D01*
X68571428Y-44386190D01*
X68642857Y-44671904D01*
X69500000Y-45814761D01*
X68571428Y-45814761D01*
X70342857Y-47585238D02*
X70271428Y-47490000D01*
X70128571Y-47394761D01*
X69771428Y-47394761D01*
X69628571Y-47490000D01*
X69557142Y-47585238D01*
X69485714Y-47775714D01*
X69485714Y-47966190D01*
X69557142Y-48251904D01*
X70414285Y-49394761D01*
X69485714Y-49394761D01*
X68200000Y-47394761D02*
X68485714Y-47394761D01*
X68628571Y-47490000D01*
X68700000Y-47585238D01*
X68842857Y-47870952D01*
X68914285Y-48251904D01*
X68914285Y-49013809D01*
X68842857Y-49204285D01*
X68771428Y-49299523D01*
X68628571Y-49394761D01*
X68342857Y-49394761D01*
X68200000Y-49299523D01*
X68128571Y-49204285D01*
X68057142Y-49013809D01*
X68057142Y-48537619D01*
X68128571Y-48347142D01*
X68200000Y-48251904D01*
X68342857Y-48156666D01*
X68628571Y-48156666D01*
X68771428Y-48251904D01*
X68842857Y-48347142D01*
X68914285Y-48537619D01*
X70342857Y-50805238D02*
X70271428Y-50710000D01*
X70128571Y-50614761D01*
X69771428Y-50614761D01*
X69628571Y-50710000D01*
X69557142Y-50805238D01*
X69485714Y-50995714D01*
X69485714Y-51186190D01*
X69557142Y-51471904D01*
X70414285Y-52614761D01*
X69485714Y-52614761D01*
X68128571Y-50614761D02*
X68842857Y-50614761D01*
X68914285Y-51567142D01*
X68842857Y-51471904D01*
X68700000Y-51376666D01*
X68342857Y-51376666D01*
X68200000Y-51471904D01*
X68128571Y-51567142D01*
X68057142Y-51757619D01*
X68057142Y-52233809D01*
X68128571Y-52424285D01*
X68200000Y-52519523D01*
X68342857Y-52614761D01*
X68700000Y-52614761D01*
X68842857Y-52519523D01*
X68914285Y-52424285D01*
%TO.C,C22*%
X89857142Y-71057142D02*
X89904761Y-71009523D01*
X89952380Y-70866666D01*
X89952380Y-70771428D01*
X89904761Y-70628571D01*
X89809523Y-70533333D01*
X89714285Y-70485714D01*
X89523809Y-70438095D01*
X89380952Y-70438095D01*
X89190476Y-70485714D01*
X89095238Y-70533333D01*
X89000000Y-70628571D01*
X88952380Y-70771428D01*
X88952380Y-70866666D01*
X89000000Y-71009523D01*
X89047619Y-71057142D01*
X89047619Y-71438095D02*
X89000000Y-71485714D01*
X88952380Y-71580952D01*
X88952380Y-71819047D01*
X89000000Y-71914285D01*
X89047619Y-71961904D01*
X89142857Y-72009523D01*
X89238095Y-72009523D01*
X89380952Y-71961904D01*
X89952380Y-71390476D01*
X89952380Y-72009523D01*
X89047619Y-72390476D02*
X89000000Y-72438095D01*
X88952380Y-72533333D01*
X88952380Y-72771428D01*
X89000000Y-72866666D01*
X89047619Y-72914285D01*
X89142857Y-72961904D01*
X89238095Y-72961904D01*
X89380952Y-72914285D01*
X89952380Y-72342857D01*
X89952380Y-72961904D01*
%TO.C,C20*%
X100357142Y-62957142D02*
X100404761Y-62909523D01*
X100452380Y-62766666D01*
X100452380Y-62671428D01*
X100404761Y-62528571D01*
X100309523Y-62433333D01*
X100214285Y-62385714D01*
X100023809Y-62338095D01*
X99880952Y-62338095D01*
X99690476Y-62385714D01*
X99595238Y-62433333D01*
X99500000Y-62528571D01*
X99452380Y-62671428D01*
X99452380Y-62766666D01*
X99500000Y-62909523D01*
X99547619Y-62957142D01*
X99547619Y-63338095D02*
X99500000Y-63385714D01*
X99452380Y-63480952D01*
X99452380Y-63719047D01*
X99500000Y-63814285D01*
X99547619Y-63861904D01*
X99642857Y-63909523D01*
X99738095Y-63909523D01*
X99880952Y-63861904D01*
X100452380Y-63290476D01*
X100452380Y-63909523D01*
X99452380Y-64528571D02*
X99452380Y-64623809D01*
X99500000Y-64719047D01*
X99547619Y-64766666D01*
X99642857Y-64814285D01*
X99833333Y-64861904D01*
X100071428Y-64861904D01*
X100261904Y-64814285D01*
X100357142Y-64766666D01*
X100404761Y-64719047D01*
X100452380Y-64623809D01*
X100452380Y-64528571D01*
X100404761Y-64433333D01*
X100357142Y-64385714D01*
X100261904Y-64338095D01*
X100071428Y-64290476D01*
X99833333Y-64290476D01*
X99642857Y-64338095D01*
X99547619Y-64385714D01*
X99500000Y-64433333D01*
X99452380Y-64528571D01*
%TO.C,U8*%
X83461904Y-70402380D02*
X83461904Y-71211904D01*
X83414285Y-71307142D01*
X83366666Y-71354761D01*
X83271428Y-71402380D01*
X83080952Y-71402380D01*
X82985714Y-71354761D01*
X82938095Y-71307142D01*
X82890476Y-71211904D01*
X82890476Y-70402380D01*
X82271428Y-70830952D02*
X82366666Y-70783333D01*
X82414285Y-70735714D01*
X82461904Y-70640476D01*
X82461904Y-70592857D01*
X82414285Y-70497619D01*
X82366666Y-70450000D01*
X82271428Y-70402380D01*
X82080952Y-70402380D01*
X81985714Y-70450000D01*
X81938095Y-70497619D01*
X81890476Y-70592857D01*
X81890476Y-70640476D01*
X81938095Y-70735714D01*
X81985714Y-70783333D01*
X82080952Y-70830952D01*
X82271428Y-70830952D01*
X82366666Y-70878571D01*
X82414285Y-70926190D01*
X82461904Y-71021428D01*
X82461904Y-71211904D01*
X82414285Y-71307142D01*
X82366666Y-71354761D01*
X82271428Y-71402380D01*
X82080952Y-71402380D01*
X81985714Y-71354761D01*
X81938095Y-71307142D01*
X81890476Y-71211904D01*
X81890476Y-71021428D01*
X81938095Y-70926190D01*
X81985714Y-70878571D01*
X82080952Y-70830952D01*
%TO.C,U4*%
X101855654Y-71752380D02*
X101855654Y-72561904D01*
X101808035Y-72657142D01*
X101760416Y-72704761D01*
X101665178Y-72752380D01*
X101474702Y-72752380D01*
X101379464Y-72704761D01*
X101331845Y-72657142D01*
X101284226Y-72561904D01*
X101284226Y-71752380D01*
X100379464Y-72085714D02*
X100379464Y-72752380D01*
X100617559Y-71704761D02*
X100855654Y-72419047D01*
X100236607Y-72419047D01*
%TO.C,C17*%
X78942857Y-57957142D02*
X78990476Y-58004761D01*
X79133333Y-58052380D01*
X79228571Y-58052380D01*
X79371428Y-58004761D01*
X79466666Y-57909523D01*
X79514285Y-57814285D01*
X79561904Y-57623809D01*
X79561904Y-57480952D01*
X79514285Y-57290476D01*
X79466666Y-57195238D01*
X79371428Y-57100000D01*
X79228571Y-57052380D01*
X79133333Y-57052380D01*
X78990476Y-57100000D01*
X78942857Y-57147619D01*
X77990476Y-58052380D02*
X78561904Y-58052380D01*
X78276190Y-58052380D02*
X78276190Y-57052380D01*
X78371428Y-57195238D01*
X78466666Y-57290476D01*
X78561904Y-57338095D01*
X77657142Y-57052380D02*
X76990476Y-57052380D01*
X77419047Y-58052380D01*
%TO.C,C18*%
X75257142Y-53216562D02*
X75304761Y-53168943D01*
X75352380Y-53026086D01*
X75352380Y-52930848D01*
X75304761Y-52787991D01*
X75209523Y-52692753D01*
X75114285Y-52645134D01*
X74923809Y-52597515D01*
X74780952Y-52597515D01*
X74590476Y-52645134D01*
X74495238Y-52692753D01*
X74400000Y-52787991D01*
X74352380Y-52930848D01*
X74352380Y-53026086D01*
X74400000Y-53168943D01*
X74447619Y-53216562D01*
X75352380Y-54168943D02*
X75352380Y-53597515D01*
X75352380Y-53883229D02*
X74352380Y-53883229D01*
X74495238Y-53787991D01*
X74590476Y-53692753D01*
X74638095Y-53597515D01*
X74780952Y-54740372D02*
X74733333Y-54645134D01*
X74685714Y-54597515D01*
X74590476Y-54549896D01*
X74542857Y-54549896D01*
X74447619Y-54597515D01*
X74400000Y-54645134D01*
X74352380Y-54740372D01*
X74352380Y-54930848D01*
X74400000Y-55026086D01*
X74447619Y-55073705D01*
X74542857Y-55121324D01*
X74590476Y-55121324D01*
X74685714Y-55073705D01*
X74733333Y-55026086D01*
X74780952Y-54930848D01*
X74780952Y-54740372D01*
X74828571Y-54645134D01*
X74876190Y-54597515D01*
X74971428Y-54549896D01*
X75161904Y-54549896D01*
X75257142Y-54597515D01*
X75304761Y-54645134D01*
X75352380Y-54740372D01*
X75352380Y-54930848D01*
X75304761Y-55026086D01*
X75257142Y-55073705D01*
X75161904Y-55121324D01*
X74971428Y-55121324D01*
X74876190Y-55073705D01*
X74828571Y-55026086D01*
X74780952Y-54930848D01*
%TO.C,C21*%
X89242857Y-64727142D02*
X89290476Y-64774761D01*
X89433333Y-64822380D01*
X89528571Y-64822380D01*
X89671428Y-64774761D01*
X89766666Y-64679523D01*
X89814285Y-64584285D01*
X89861904Y-64393809D01*
X89861904Y-64250952D01*
X89814285Y-64060476D01*
X89766666Y-63965238D01*
X89671428Y-63870000D01*
X89528571Y-63822380D01*
X89433333Y-63822380D01*
X89290476Y-63870000D01*
X89242857Y-63917619D01*
X88861904Y-63917619D02*
X88814285Y-63870000D01*
X88719047Y-63822380D01*
X88480952Y-63822380D01*
X88385714Y-63870000D01*
X88338095Y-63917619D01*
X88290476Y-64012857D01*
X88290476Y-64108095D01*
X88338095Y-64250952D01*
X88909523Y-64822380D01*
X88290476Y-64822380D01*
X87338095Y-64822380D02*
X87909523Y-64822380D01*
X87623809Y-64822380D02*
X87623809Y-63822380D01*
X87719047Y-63965238D01*
X87814285Y-64060476D01*
X87909523Y-64108095D01*
%TO.C,U3*%
X76452380Y-50338095D02*
X77261904Y-50338095D01*
X77357142Y-50385714D01*
X77404761Y-50433333D01*
X77452380Y-50528571D01*
X77452380Y-50719047D01*
X77404761Y-50814285D01*
X77357142Y-50861904D01*
X77261904Y-50909523D01*
X76452380Y-50909523D01*
X76452380Y-51290476D02*
X76452380Y-51909523D01*
X76833333Y-51576190D01*
X76833333Y-51719047D01*
X76880952Y-51814285D01*
X76928571Y-51861904D01*
X77023809Y-51909523D01*
X77261904Y-51909523D01*
X77357142Y-51861904D01*
X77404761Y-51814285D01*
X77452380Y-51719047D01*
X77452380Y-51433333D01*
X77404761Y-51338095D01*
X77357142Y-51290476D01*
%TO.C,C19*%
X98942857Y-74857142D02*
X98990476Y-74904761D01*
X99133333Y-74952380D01*
X99228571Y-74952380D01*
X99371428Y-74904761D01*
X99466666Y-74809523D01*
X99514285Y-74714285D01*
X99561904Y-74523809D01*
X99561904Y-74380952D01*
X99514285Y-74190476D01*
X99466666Y-74095238D01*
X99371428Y-74000000D01*
X99228571Y-73952380D01*
X99133333Y-73952380D01*
X98990476Y-74000000D01*
X98942857Y-74047619D01*
X97990476Y-74952380D02*
X98561904Y-74952380D01*
X98276190Y-74952380D02*
X98276190Y-73952380D01*
X98371428Y-74095238D01*
X98466666Y-74190476D01*
X98561904Y-74238095D01*
X97514285Y-74952380D02*
X97323809Y-74952380D01*
X97228571Y-74904761D01*
X97180952Y-74857142D01*
X97085714Y-74714285D01*
X97038095Y-74523809D01*
X97038095Y-74142857D01*
X97085714Y-74047619D01*
X97133333Y-74000000D01*
X97228571Y-73952380D01*
X97419047Y-73952380D01*
X97514285Y-74000000D01*
X97561904Y-74047619D01*
X97609523Y-74142857D01*
X97609523Y-74380952D01*
X97561904Y-74476190D01*
X97514285Y-74523809D01*
X97419047Y-74571428D01*
X97228571Y-74571428D01*
X97133333Y-74523809D01*
X97085714Y-74476190D01*
X97038095Y-74380952D01*
D11*
%TO.C,C22*%
X88990000Y-68559420D02*
X88990000Y-68840580D01*
X90010000Y-68559420D02*
X90010000Y-68840580D01*
%TO.C,C20*%
X97890000Y-63459420D02*
X97890000Y-63740580D01*
X98910000Y-63459420D02*
X98910000Y-63740580D01*
%TO.C,U8*%
X82700000Y-70235000D02*
X79100000Y-70235000D01*
X82700000Y-64765000D02*
X80500000Y-64765000D01*
X82700000Y-70235000D02*
X84900000Y-70235000D01*
X82700000Y-64765000D02*
X84900000Y-64765000D01*
%TO.C,U4*%
X99793750Y-65665000D02*
X103393750Y-65665000D01*
X99793750Y-71135000D02*
X101993750Y-71135000D01*
X99793750Y-71135000D02*
X97593750Y-71135000D01*
X99793750Y-65665000D02*
X97593750Y-65665000D01*
%TO.C,C17*%
X81259420Y-56890000D02*
X81540580Y-56890000D01*
X81259420Y-57910000D02*
X81540580Y-57910000D01*
%TO.C,C18*%
X76190000Y-54140580D02*
X76190000Y-53859420D01*
X77210000Y-54140580D02*
X77210000Y-53859420D01*
%TO.C,C21*%
X88740580Y-65290000D02*
X88459420Y-65290000D01*
X88740580Y-66310000D02*
X88459420Y-66310000D01*
%TO.C,U3*%
X83335000Y-51800000D02*
X83335000Y-49600000D01*
X83335000Y-51800000D02*
X83335000Y-54000000D01*
X77865000Y-51800000D02*
X77865000Y-54000000D01*
X77865000Y-51800000D02*
X77865000Y-48200000D01*
%TO.C,C19*%
X98485580Y-71990000D02*
X98204420Y-71990000D01*
X98485580Y-73010000D02*
X98204420Y-73010000D01*
%TD*%
%LPC*%
D12*
%TO.C,C22*%
X89500000Y-67925000D03*
X89500000Y-69475000D03*
%TD*%
D13*
%TO.C,J7*%
X105030000Y-83140000D03*
X107570000Y-83140000D03*
D14*
X105030000Y-80600000D03*
D15*
X107570000Y-80600000D03*
%TD*%
%TO.C,J2*%
X65400000Y-44440000D03*
D14*
X65400000Y-41900000D03*
D13*
X62860000Y-44440000D03*
X62860000Y-41900000D03*
%TD*%
D12*
%TO.C,C20*%
X98400000Y-64375000D03*
X98400000Y-62825000D03*
%TD*%
D16*
%TO.C,U8*%
X79837500Y-69775000D03*
X79837500Y-69125000D03*
X79837500Y-68475000D03*
X79837500Y-67825000D03*
X79837500Y-67175000D03*
X79837500Y-66525000D03*
X79837500Y-65875000D03*
X79837500Y-65225000D03*
X85562500Y-65225000D03*
X85562500Y-65875000D03*
X85562500Y-66525000D03*
X85562500Y-67175000D03*
X85562500Y-67825000D03*
X85562500Y-68475000D03*
X85562500Y-69125000D03*
X85562500Y-69775000D03*
%TD*%
D17*
%TO.C,H4*%
X61500000Y-84500000D03*
%TD*%
D18*
%TO.C,U4*%
X102656250Y-66125000D03*
X102656250Y-66775000D03*
X102656250Y-67425000D03*
X102656250Y-68075000D03*
X102656250Y-68725000D03*
X102656250Y-69375000D03*
X102656250Y-70025000D03*
X102656250Y-70675000D03*
X96931250Y-70675000D03*
X96931250Y-70025000D03*
X96931250Y-69375000D03*
X96931250Y-68725000D03*
X96931250Y-68075000D03*
X96931250Y-67425000D03*
X96931250Y-66775000D03*
X96931250Y-66125000D03*
%TD*%
D19*
%TO.C,C17*%
X80625000Y-57400000D03*
X82175000Y-57400000D03*
%TD*%
D20*
%TO.C,J4*%
X63680000Y-79800000D03*
D21*
X63680000Y-77260000D03*
X63680000Y-74720000D03*
X63680000Y-72180000D03*
%TD*%
D22*
%TO.C,C18*%
X76700000Y-53225000D03*
X76700000Y-54775000D03*
%TD*%
D23*
%TO.C,C21*%
X89375000Y-65800000D03*
X87825000Y-65800000D03*
%TD*%
D17*
%TO.C,H1*%
X112700000Y-36800000D03*
%TD*%
D24*
%TO.C,U3*%
X78325000Y-48937500D03*
X78975000Y-48937500D03*
X79625000Y-48937500D03*
X80275000Y-48937500D03*
X80925000Y-48937500D03*
X81575000Y-48937500D03*
X82225000Y-48937500D03*
X82875000Y-48937500D03*
X82875000Y-54662500D03*
X82225000Y-54662500D03*
X81575000Y-54662500D03*
X80925000Y-54662500D03*
X80275000Y-54662500D03*
X79625000Y-54662500D03*
X78975000Y-54662500D03*
X78325000Y-54662500D03*
%TD*%
D23*
%TO.C,C19*%
X97570000Y-72500000D03*
X99120000Y-72500000D03*
%TD*%
D13*
%TO.C,J3*%
X111140000Y-67030000D03*
X111140000Y-69570000D03*
D14*
X108600000Y-69570000D03*
D15*
X108600000Y-67030000D03*
%TD*%
D17*
%TO.C,H3*%
X61500000Y-36800000D03*
%TD*%
D13*
%TO.C,J8*%
X111140000Y-59630000D03*
X111140000Y-62170000D03*
D14*
X108600000Y-62170000D03*
D15*
X108600000Y-59630000D03*
%TD*%
D13*
%TO.C,J5*%
X87760000Y-41670000D03*
X87760000Y-39130000D03*
D14*
X90300000Y-39130000D03*
D15*
X90300000Y-41670000D03*
%TD*%
D17*
%TO.C,H2*%
X112500000Y-84548970D03*
%TD*%
D15*
%TO.C,J1*%
X65400000Y-51270000D03*
D14*
X65400000Y-48730000D03*
D13*
X62860000Y-48730000D03*
X62860000Y-51270000D03*
%TD*%
%TO.C,J6*%
X77600000Y-38160000D03*
X75060000Y-38160000D03*
D14*
X77600000Y-40700000D03*
D15*
X75060000Y-40700000D03*
%TD*%
M02*
