M48
; DRILL file {KiCad (6.0.8)} date Sat Oct 29 16:07:16 2022
; FORMAT={-:-/ absolute / metric / decimal}
; #@! TF.CreationDate,2022-10-29T16:07:16-04:00
; #@! TF.GenerationSoftware,Kicad,Pcbnew,(6.0.8)
; #@! TF.FileFunction,Plated,1,2,PTH
FMAT,2
METRIC
; #@! TA.AperFunction,Plated,PTH,ViaDrill
T1C0.400
; #@! TA.AperFunction,Plated,PTH,ComponentDrill
T2C1.000
; #@! TA.AperFunction,Plated,PTH,ComponentDrill
T3C1.100
; #@! TA.AperFunction,Plated,PTH,ComponentDrill
T4C2.200
%
G90
G05
T1
X63.9Y-60.2
X64.6Y-65.9
X66.4Y-53.8
X67.1Y-68.0
X69.2Y-70.2
X69.5Y-74.2
X72.1Y-38.0
X72.1Y-39.3
X72.7Y-76.7
X73.0Y-52.8
X75.35Y-37.4
X75.4Y-36.1
X80.6Y-44.4
X80.8Y-45.8
X81.5Y-36.8
X84.3Y-72.9
X85.4Y-46.4
X85.4Y-47.7
X86.3Y-49.7
X86.3Y-61.2
X87.6Y-49.7
X87.7Y-61.2
X89.0Y-50.0
X89.0Y-61.4
X89.7Y-56.0
X90.3Y-76.7
X90.9Y-45.3
X92.3Y-48.45
X95.14Y-74.16
X95.2Y-61.4
X95.5Y-67.9
X95.5Y-69.1
X95.5Y-70.5
X96.0Y-82.6
X96.6Y-48.5
X96.8Y-66.4
X98.1Y-82.5
X100.2Y-82.5
X101.0Y-40.2
X101.0Y-52.5
X102.2Y-82.5
X104.2Y-75.6
X104.3Y-69.8
X105.0Y-74.0
X105.1Y-48.5
X106.5Y-45.0
X108.5Y-45.0
X108.6Y-68.0
X108.9Y-72.5
X109.6Y-71.2
X110.4Y-65.9
X110.5Y-45.0
X111.4Y-30.4
X112.3Y-45.0
X113.3Y-32.6
X113.6Y-70.2
X118.8Y-31.0
X118.8Y-36.4
X118.8Y-38.7
T2
X63.5Y-70.38
X63.5Y-72.92
X63.5Y-75.46
X63.5Y-78.0
T3
X64.7Y-36.33
X64.7Y-38.87
X64.7Y-44.7
X64.7Y-47.24
X82.26Y-28.7
X84.8Y-28.7
X101.1Y-34.33
X101.1Y-36.87
X107.83Y-81.2
X110.37Y-81.2
X117.1Y-58.53
X117.1Y-61.07
X117.2Y-50.03
X117.2Y-52.57
T4
X63.3Y-27.3
X63.3Y-82.7
X118.7Y-27.3
X118.7Y-82.7
T0
M30
