%TF.GenerationSoftware,KiCad,Pcbnew,(6.0.8)*%
%TF.CreationDate,2022-11-27T13:06:36-05:00*%
%TF.ProjectId,miura_board,6d697572-615f-4626-9f61-72642e6b6963,rev?*%
%TF.SameCoordinates,Original*%
%TF.FileFunction,Paste,Bot*%
%TF.FilePolarity,Positive*%
%FSLAX46Y46*%
G04 Gerber Fmt 4.6, Leading zero omitted, Abs format (unit mm)*
G04 Created by KiCad (PCBNEW (6.0.8)) date 2022-11-27 13:06:36*
%MOMM*%
%LPD*%
G01*
G04 APERTURE LIST*
G04 Aperture macros list*
%AMRoundRect*
0 Rectangle with rounded corners*
0 $1 Rounding radius*
0 $2 $3 $4 $5 $6 $7 $8 $9 X,Y pos of 4 corners*
0 Add a 4 corners polygon primitive as box body*
4,1,4,$2,$3,$4,$5,$6,$7,$8,$9,$2,$3,0*
0 Add four circle primitives for the rounded corners*
1,1,$1+$1,$2,$3*
1,1,$1+$1,$4,$5*
1,1,$1+$1,$6,$7*
1,1,$1+$1,$8,$9*
0 Add four rect primitives between the rounded corners*
20,1,$1+$1,$2,$3,$4,$5,0*
20,1,$1+$1,$4,$5,$6,$7,0*
20,1,$1+$1,$6,$7,$8,$9,0*
20,1,$1+$1,$8,$9,$2,$3,0*%
G04 Aperture macros list end*
%ADD10RoundRect,0.225000X-0.250000X0.225000X-0.250000X-0.225000X0.250000X-0.225000X0.250000X0.225000X0*%
%ADD11RoundRect,0.100000X-0.637500X-0.100000X0.637500X-0.100000X0.637500X0.100000X-0.637500X0.100000X0*%
%ADD12RoundRect,0.100000X0.637500X0.100000X-0.637500X0.100000X-0.637500X-0.100000X0.637500X-0.100000X0*%
%ADD13RoundRect,0.225000X-0.225000X-0.250000X0.225000X-0.250000X0.225000X0.250000X-0.225000X0.250000X0*%
%ADD14RoundRect,0.225000X0.250000X-0.225000X0.250000X0.225000X-0.250000X0.225000X-0.250000X-0.225000X0*%
%ADD15RoundRect,0.225000X0.225000X0.250000X-0.225000X0.250000X-0.225000X-0.250000X0.225000X-0.250000X0*%
%ADD16RoundRect,0.100000X-0.100000X0.637500X-0.100000X-0.637500X0.100000X-0.637500X0.100000X0.637500X0*%
G04 APERTURE END LIST*
D10*
%TO.C,C22*%
X89500000Y-67925000D03*
X89500000Y-69475000D03*
%TD*%
%TO.C,C20*%
X98400000Y-64375000D03*
X98400000Y-62825000D03*
%TD*%
D11*
%TO.C,U8*%
X79837500Y-69775000D03*
X79837500Y-69125000D03*
X79837500Y-68475000D03*
X79837500Y-67825000D03*
X79837500Y-67175000D03*
X79837500Y-66525000D03*
X79837500Y-65875000D03*
X79837500Y-65225000D03*
X85562500Y-65225000D03*
X85562500Y-65875000D03*
X85562500Y-66525000D03*
X85562500Y-67175000D03*
X85562500Y-67825000D03*
X85562500Y-68475000D03*
X85562500Y-69125000D03*
X85562500Y-69775000D03*
%TD*%
D12*
%TO.C,U4*%
X102656250Y-66125000D03*
X102656250Y-66775000D03*
X102656250Y-67425000D03*
X102656250Y-68075000D03*
X102656250Y-68725000D03*
X102656250Y-69375000D03*
X102656250Y-70025000D03*
X102656250Y-70675000D03*
X96931250Y-70675000D03*
X96931250Y-70025000D03*
X96931250Y-69375000D03*
X96931250Y-68725000D03*
X96931250Y-68075000D03*
X96931250Y-67425000D03*
X96931250Y-66775000D03*
X96931250Y-66125000D03*
%TD*%
D13*
%TO.C,C17*%
X80625000Y-57400000D03*
X82175000Y-57400000D03*
%TD*%
D14*
%TO.C,C18*%
X76700000Y-53225000D03*
X76700000Y-54775000D03*
%TD*%
D15*
%TO.C,C21*%
X89375000Y-65800000D03*
X87825000Y-65800000D03*
%TD*%
D16*
%TO.C,U3*%
X78325000Y-48937500D03*
X78975000Y-48937500D03*
X79625000Y-48937500D03*
X80275000Y-48937500D03*
X80925000Y-48937500D03*
X81575000Y-48937500D03*
X82225000Y-48937500D03*
X82875000Y-48937500D03*
X82875000Y-54662500D03*
X82225000Y-54662500D03*
X81575000Y-54662500D03*
X80925000Y-54662500D03*
X80275000Y-54662500D03*
X79625000Y-54662500D03*
X78975000Y-54662500D03*
X78325000Y-54662500D03*
%TD*%
D15*
%TO.C,C19*%
X97570000Y-72500000D03*
X99120000Y-72500000D03*
%TD*%
M02*
