%TF.GenerationSoftware,KiCad,Pcbnew,(6.0.8)*%
%TF.CreationDate,2022-11-27T13:06:36-05:00*%
%TF.ProjectId,miura_board,6d697572-615f-4626-9f61-72642e6b6963,rev?*%
%TF.SameCoordinates,Original*%
%TF.FileFunction,Copper,L3,Inr*%
%TF.FilePolarity,Positive*%
%FSLAX46Y46*%
G04 Gerber Fmt 4.6, Leading zero omitted, Abs format (unit mm)*
G04 Created by KiCad (PCBNEW (6.0.8)) date 2022-11-27 13:06:36*
%MOMM*%
%LPD*%
G01*
G04 APERTURE LIST*
%TA.AperFunction,ComponentPad*%
%ADD10R,2.200000X2.200000*%
%TD*%
%TA.AperFunction,ComponentPad*%
%ADD11C,2.200000*%
%TD*%
%TA.AperFunction,ComponentPad*%
%ADD12C,3.800000*%
%TD*%
%TA.AperFunction,ComponentPad*%
%ADD13R,1.700000X1.700000*%
%TD*%
%TA.AperFunction,ComponentPad*%
%ADD14O,1.700000X1.700000*%
%TD*%
%TA.AperFunction,ViaPad*%
%ADD15C,0.800000*%
%TD*%
G04 APERTURE END LIST*
D10*
%TO.N,/IO34*%
%TO.C,J7*%
X105030000Y-80600000D03*
D11*
%TO.N,/IO35*%
X107570000Y-80600000D03*
%TD*%
%TO.N,/IO2*%
%TO.C,J2*%
X65400000Y-44440000D03*
D10*
%TO.N,/IO15*%
X65400000Y-41900000D03*
%TD*%
D12*
%TO.N,GND*%
%TO.C,H4*%
X61500000Y-84500000D03*
%TD*%
D13*
%TO.N,TXD0*%
%TO.C,J4*%
X63680000Y-79800000D03*
D14*
%TO.N,RXD0*%
X63680000Y-77260000D03*
%TO.N,GND*%
X63680000Y-74720000D03*
%TO.N,+3V3*%
X63680000Y-72180000D03*
%TD*%
D12*
%TO.N,GND*%
%TO.C,H1*%
X112700000Y-36800000D03*
%TD*%
D10*
%TO.N,/IO32*%
%TO.C,J3*%
X108600000Y-69570000D03*
D11*
%TO.N,/IO33*%
X108600000Y-67030000D03*
%TD*%
D12*
%TO.N,GND*%
%TO.C,H3*%
X61500000Y-36800000D03*
%TD*%
D10*
%TO.N,/IO14*%
%TO.C,J8*%
X108600000Y-62170000D03*
D11*
%TO.N,/IO27*%
X108600000Y-59630000D03*
%TD*%
D10*
%TO.N,VBAT*%
%TO.C,J5*%
X90300000Y-39130000D03*
D11*
%TO.N,GND*%
X90300000Y-41670000D03*
%TD*%
D12*
%TO.N,GND*%
%TO.C,H2*%
X112500000Y-84548970D03*
%TD*%
D11*
%TO.N,/IO25*%
%TO.C,J1*%
X65400000Y-51270000D03*
D10*
%TO.N,/IO26*%
X65400000Y-48730000D03*
%TD*%
%TO.N,/IO12*%
%TO.C,J6*%
X77600000Y-40700000D03*
D11*
%TO.N,/IO13*%
X75060000Y-40700000D03*
%TD*%
D15*
%TO.N,+3V3*%
X102500000Y-64800000D03*
%TO.N,GND*%
X72700000Y-56100000D03*
%TO.N,+3V3*%
X67100000Y-63000000D03*
%TO.N,GND*%
X69900000Y-71000000D03*
X66700000Y-71200000D03*
X64400000Y-66900000D03*
X62700000Y-63200000D03*
X64000000Y-62000000D03*
%TO.N,+3V3*%
X64900000Y-69400000D03*
%TO.N,SCL*%
X71100000Y-70200000D03*
%TO.N,GND*%
X69200000Y-56800000D03*
X63400000Y-56900000D03*
X72700000Y-76700000D03*
%TO.N,SCL*%
X72000000Y-74200000D03*
%TO.N,GND*%
X85500000Y-72200000D03*
X90900000Y-70700000D03*
X78600000Y-51500000D03*
X87800000Y-52800000D03*
%TO.N,+3V3*%
X76800000Y-49600000D03*
X93200000Y-80200000D03*
%TO.N,/IO14*%
X104600000Y-78200000D03*
%TO.N,/IO27*%
X104800000Y-75800000D03*
%TO.N,GND*%
X77000000Y-68300000D03*
X77800000Y-66100000D03*
%TO.N,+3V3*%
X79900000Y-71200000D03*
%TO.N,GND*%
X89800000Y-56200000D03*
%TO.N,MOTOR_A32_IN*%
X87800000Y-69800000D03*
%TO.N,MOTOR_A31_IN*%
X88200000Y-71100000D03*
%TO.N,GND*%
X90300000Y-76700000D03*
X99300000Y-75600000D03*
%TO.N,MOTOR_B31_IN*%
X87100000Y-63100000D03*
%TO.N,MOTOR_B32_IN*%
X85500000Y-62100000D03*
%TO.N,GND*%
X76700000Y-56300000D03*
%TO.N,MOTOR_B11_IN*%
X88700000Y-61000000D03*
%TO.N,MOTOR_B12_IN*%
X86800000Y-61300000D03*
%TO.N,MOTOR_SUPPLY*%
X81200000Y-44300000D03*
%TO.N,MOTOR_A12_IN*%
X79500000Y-56500000D03*
%TO.N,MOTOR_A11_IN*%
X78300000Y-56500000D03*
%TO.N,GND*%
X96800000Y-62800000D03*
%TO.N,MOTOR_A22_IN*%
X94993750Y-70400000D03*
%TO.N,MOTOR_A21_IN*%
X95093750Y-69100000D03*
%TO.N,MOTOR_B22_IN*%
X95093750Y-67800000D03*
%TO.N,MOTOR_B21_IN*%
X94993750Y-66500000D03*
%TO.N,GND*%
X98900000Y-68100000D03*
X101093750Y-67400000D03*
X105300000Y-49000000D03*
X105300000Y-54200000D03*
X74900000Y-47400000D03*
X83500000Y-44300000D03*
%TO.N,+3V3*%
X103700000Y-54200000D03*
%TO.N,GND*%
X94100000Y-48850000D03*
X88300000Y-48850000D03*
X97300000Y-82500000D03*
X99400000Y-82500000D03*
X95200000Y-82600000D03*
X90300000Y-48850000D03*
X92300000Y-48850000D03*
X103000000Y-46450000D03*
X101400000Y-82500000D03*
%TD*%
%TA.AperFunction,Conductor*%
%TO.N,+3V3*%
G36*
X64020138Y-37210559D02*
G01*
X64079955Y-37254107D01*
X64177541Y-37384221D01*
X64183301Y-37392582D01*
X64208776Y-37432958D01*
X64248702Y-37468219D01*
X64254358Y-37473533D01*
X64292048Y-37511198D01*
X64299924Y-37515506D01*
X64305442Y-37519639D01*
X64311223Y-37523436D01*
X64317951Y-37529378D01*
X64366173Y-37552018D01*
X64373083Y-37555526D01*
X64419836Y-37581101D01*
X64428598Y-37583024D01*
X64435064Y-37585446D01*
X64441677Y-37587468D01*
X64449800Y-37591281D01*
X64502446Y-37599478D01*
X64510075Y-37600908D01*
X64562106Y-37612329D01*
X64613688Y-37608795D01*
X64622300Y-37608500D01*
X73951714Y-37608500D01*
X74019835Y-37628502D01*
X74066328Y-37682158D01*
X74076432Y-37752432D01*
X74072081Y-37771753D01*
X74018102Y-37946129D01*
X74017458Y-37952254D01*
X74017458Y-37952255D01*
X74003021Y-38089621D01*
X73996404Y-38152575D01*
X74015218Y-38359303D01*
X74016956Y-38365209D01*
X74016957Y-38365213D01*
X74060473Y-38513068D01*
X74073827Y-38558440D01*
X74169999Y-38742400D01*
X74300071Y-38904177D01*
X74304789Y-38908135D01*
X74304791Y-38908138D01*
X74435881Y-39018136D01*
X74475207Y-39077245D01*
X74476333Y-39148233D01*
X74438902Y-39208561D01*
X74403108Y-39231065D01*
X74389411Y-39236739D01*
X74332072Y-39260489D01*
X74332068Y-39260491D01*
X74327498Y-39262384D01*
X74111624Y-39394672D01*
X73919102Y-39559102D01*
X73754672Y-39751624D01*
X73622384Y-39967498D01*
X73620491Y-39972068D01*
X73620489Y-39972072D01*
X73538663Y-40169619D01*
X73525495Y-40201409D01*
X73524340Y-40206221D01*
X73468998Y-40436739D01*
X73466391Y-40447597D01*
X73446526Y-40700000D01*
X73466391Y-40952403D01*
X73525495Y-41198591D01*
X73527388Y-41203162D01*
X73527389Y-41203164D01*
X73618254Y-41422531D01*
X73622384Y-41432502D01*
X73754672Y-41648376D01*
X73919102Y-41840898D01*
X74111624Y-42005328D01*
X74327498Y-42137616D01*
X74332068Y-42139509D01*
X74332072Y-42139511D01*
X74556836Y-42232611D01*
X74561409Y-42234505D01*
X74628513Y-42250615D01*
X74802784Y-42292454D01*
X74802790Y-42292455D01*
X74807597Y-42293609D01*
X75060000Y-42313474D01*
X75312403Y-42293609D01*
X75317210Y-42292455D01*
X75317216Y-42292454D01*
X75491487Y-42250615D01*
X75558591Y-42234505D01*
X75563164Y-42232611D01*
X75787928Y-42139511D01*
X75787932Y-42139509D01*
X75792502Y-42137616D01*
X75865384Y-42092954D01*
X75917386Y-42061087D01*
X75985920Y-42042549D01*
X76053596Y-42064005D01*
X76084046Y-42092953D01*
X76136739Y-42163261D01*
X76253295Y-42250615D01*
X76389684Y-42301745D01*
X76451866Y-42308500D01*
X78748134Y-42308500D01*
X78810316Y-42301745D01*
X78921271Y-42260150D01*
X78992077Y-42254967D01*
X79054446Y-42288888D01*
X79088576Y-42351143D01*
X79091500Y-42378132D01*
X79091500Y-43291377D01*
X79091498Y-43292147D01*
X79091024Y-43369721D01*
X79093491Y-43378352D01*
X79099150Y-43398153D01*
X79102728Y-43414915D01*
X79106920Y-43444187D01*
X79110634Y-43452355D01*
X79110634Y-43452356D01*
X79117548Y-43467562D01*
X79123996Y-43485086D01*
X79131051Y-43509771D01*
X79135843Y-43517365D01*
X79135844Y-43517368D01*
X79146830Y-43534780D01*
X79154969Y-43549863D01*
X79167208Y-43576782D01*
X79173069Y-43583584D01*
X79183970Y-43596235D01*
X79195073Y-43611239D01*
X79208776Y-43632958D01*
X79215501Y-43638897D01*
X79215504Y-43638901D01*
X79230938Y-43652532D01*
X79242982Y-43664724D01*
X79256427Y-43680327D01*
X79256430Y-43680329D01*
X79262287Y-43687127D01*
X79269816Y-43692007D01*
X79269817Y-43692008D01*
X79283835Y-43701094D01*
X79298709Y-43712385D01*
X79311217Y-43723431D01*
X79317951Y-43729378D01*
X79344711Y-43741942D01*
X79359691Y-43750263D01*
X79376983Y-43761471D01*
X79376988Y-43761473D01*
X79384515Y-43766352D01*
X79393108Y-43768922D01*
X79393113Y-43768924D01*
X79409120Y-43773711D01*
X79426564Y-43780372D01*
X79441676Y-43787467D01*
X79441678Y-43787468D01*
X79449800Y-43791281D01*
X79458667Y-43792662D01*
X79458668Y-43792662D01*
X79461353Y-43793080D01*
X79479017Y-43795830D01*
X79495732Y-43799613D01*
X79515466Y-43805515D01*
X79515472Y-43805516D01*
X79524066Y-43808086D01*
X79533037Y-43808141D01*
X79533038Y-43808141D01*
X79543097Y-43808202D01*
X79558506Y-43808296D01*
X79559289Y-43808329D01*
X79560386Y-43808500D01*
X79591377Y-43808500D01*
X79592147Y-43808502D01*
X79665785Y-43808952D01*
X79665786Y-43808952D01*
X79669721Y-43808976D01*
X79671065Y-43808592D01*
X79672410Y-43808500D01*
X80231021Y-43808500D01*
X80299142Y-43828502D01*
X80345635Y-43882158D01*
X80355739Y-43952432D01*
X80350854Y-43973436D01*
X80306458Y-44110072D01*
X80286496Y-44300000D01*
X80287186Y-44306565D01*
X80301729Y-44444930D01*
X80306458Y-44489928D01*
X80365473Y-44671556D01*
X80460960Y-44836944D01*
X80465378Y-44841851D01*
X80465379Y-44841852D01*
X80552483Y-44938591D01*
X80588747Y-44978866D01*
X80743248Y-45091118D01*
X80749276Y-45093802D01*
X80749278Y-45093803D01*
X80755082Y-45096387D01*
X80917712Y-45168794D01*
X81011113Y-45188647D01*
X81098056Y-45207128D01*
X81098061Y-45207128D01*
X81104513Y-45208500D01*
X81295487Y-45208500D01*
X81301939Y-45207128D01*
X81301944Y-45207128D01*
X81388887Y-45188647D01*
X81482288Y-45168794D01*
X81644918Y-45096387D01*
X81650722Y-45093803D01*
X81650724Y-45093802D01*
X81656752Y-45091118D01*
X81811253Y-44978866D01*
X81847517Y-44938591D01*
X81934621Y-44841852D01*
X81934622Y-44841851D01*
X81939040Y-44836944D01*
X82034527Y-44671556D01*
X82093542Y-44489928D01*
X82098272Y-44444930D01*
X82112814Y-44306565D01*
X82113504Y-44300000D01*
X82093542Y-44110072D01*
X82049146Y-43973436D01*
X82047118Y-43902469D01*
X82083781Y-43841671D01*
X82147493Y-43810345D01*
X82168979Y-43808500D01*
X82531021Y-43808500D01*
X82599142Y-43828502D01*
X82645635Y-43882158D01*
X82655739Y-43952432D01*
X82650854Y-43973436D01*
X82606458Y-44110072D01*
X82586496Y-44300000D01*
X82587186Y-44306565D01*
X82601729Y-44444930D01*
X82606458Y-44489928D01*
X82665473Y-44671556D01*
X82760960Y-44836944D01*
X82765378Y-44841851D01*
X82765379Y-44841852D01*
X82852483Y-44938591D01*
X82888747Y-44978866D01*
X83043248Y-45091118D01*
X83049276Y-45093802D01*
X83049278Y-45093803D01*
X83055082Y-45096387D01*
X83217712Y-45168794D01*
X83311113Y-45188647D01*
X83398056Y-45207128D01*
X83398061Y-45207128D01*
X83404513Y-45208500D01*
X83595487Y-45208500D01*
X83601939Y-45207128D01*
X83601944Y-45207128D01*
X83688887Y-45188647D01*
X83782288Y-45168794D01*
X83944918Y-45096387D01*
X83950722Y-45093803D01*
X83950724Y-45093802D01*
X83956752Y-45091118D01*
X84111253Y-44978866D01*
X84147517Y-44938591D01*
X84234621Y-44841852D01*
X84234622Y-44841851D01*
X84239040Y-44836944D01*
X84334527Y-44671556D01*
X84393542Y-44489928D01*
X84398272Y-44444930D01*
X84412814Y-44306565D01*
X84413504Y-44300000D01*
X84393542Y-44110072D01*
X84349146Y-43973436D01*
X84347118Y-43902469D01*
X84383781Y-43841671D01*
X84447493Y-43810345D01*
X84468979Y-43808500D01*
X86691377Y-43808500D01*
X86692148Y-43808502D01*
X86769721Y-43808976D01*
X86798152Y-43800850D01*
X86814915Y-43797272D01*
X86815753Y-43797152D01*
X86844187Y-43793080D01*
X86867564Y-43782451D01*
X86885087Y-43776004D01*
X86909771Y-43768949D01*
X86917365Y-43764157D01*
X86917368Y-43764156D01*
X86934780Y-43753170D01*
X86949865Y-43745030D01*
X86976782Y-43732792D01*
X86996235Y-43716030D01*
X87011239Y-43704927D01*
X87032958Y-43691224D01*
X87038897Y-43684499D01*
X87038901Y-43684496D01*
X87052532Y-43669062D01*
X87064724Y-43657018D01*
X87080327Y-43643573D01*
X87080329Y-43643570D01*
X87087127Y-43637713D01*
X87101094Y-43616165D01*
X87112385Y-43601291D01*
X87123431Y-43588783D01*
X87123432Y-43588782D01*
X87129378Y-43582049D01*
X87141943Y-43555287D01*
X87150263Y-43540309D01*
X87161471Y-43523017D01*
X87161473Y-43523012D01*
X87166352Y-43515485D01*
X87168922Y-43506892D01*
X87168924Y-43506887D01*
X87173711Y-43490880D01*
X87180372Y-43473436D01*
X87187467Y-43458324D01*
X87187468Y-43458322D01*
X87191281Y-43450200D01*
X87195830Y-43420983D01*
X87199613Y-43404268D01*
X87205515Y-43384534D01*
X87205516Y-43384528D01*
X87208086Y-43375934D01*
X87208164Y-43363261D01*
X87208296Y-43341503D01*
X87208329Y-43340711D01*
X87208500Y-43339614D01*
X87208500Y-43308623D01*
X87208502Y-43307853D01*
X87208952Y-43234215D01*
X87208952Y-43234214D01*
X87208976Y-43230279D01*
X87208592Y-43228935D01*
X87208500Y-43227590D01*
X87208500Y-42777740D01*
X87228502Y-42709619D01*
X87282158Y-42663126D01*
X87352432Y-42653022D01*
X87372598Y-42657638D01*
X87389899Y-42663126D01*
X87538861Y-42710379D01*
X87544978Y-42711065D01*
X87544982Y-42711066D01*
X87621598Y-42719659D01*
X87700413Y-42728500D01*
X87812237Y-42728500D01*
X87815293Y-42728200D01*
X87815300Y-42728200D01*
X87960466Y-42713966D01*
X87960469Y-42713965D01*
X87966592Y-42713365D01*
X88098546Y-42673526D01*
X88159407Y-42655152D01*
X88159410Y-42655151D01*
X88165315Y-42653368D01*
X88170762Y-42650472D01*
X88343153Y-42558809D01*
X88343155Y-42558808D01*
X88348599Y-42555913D01*
X88423568Y-42494770D01*
X88504689Y-42428610D01*
X88504692Y-42428607D01*
X88509464Y-42424715D01*
X88524349Y-42406722D01*
X88617363Y-42294289D01*
X88676197Y-42254551D01*
X88747175Y-42252930D01*
X88807762Y-42289939D01*
X88830856Y-42326387D01*
X88852290Y-42378132D01*
X88862384Y-42402502D01*
X88994672Y-42618376D01*
X89159102Y-42810898D01*
X89351624Y-42975328D01*
X89567498Y-43107616D01*
X89572068Y-43109509D01*
X89572072Y-43109511D01*
X89796836Y-43202611D01*
X89801409Y-43204505D01*
X89886032Y-43224821D01*
X90042784Y-43262454D01*
X90042790Y-43262455D01*
X90047597Y-43263609D01*
X90300000Y-43283474D01*
X90552403Y-43263609D01*
X90557210Y-43262455D01*
X90557216Y-43262454D01*
X90713968Y-43224821D01*
X90798591Y-43204505D01*
X90803164Y-43202611D01*
X91027928Y-43109511D01*
X91027932Y-43109509D01*
X91032502Y-43107616D01*
X91248376Y-42975328D01*
X91440898Y-42810898D01*
X91605328Y-42618376D01*
X91737616Y-42402502D01*
X91747711Y-42378132D01*
X91832611Y-42173164D01*
X91832612Y-42173162D01*
X91834505Y-42168591D01*
X91893609Y-41922403D01*
X91913474Y-41670000D01*
X91893609Y-41417597D01*
X91888660Y-41396980D01*
X91854821Y-41256032D01*
X91834505Y-41171409D01*
X91828049Y-41155823D01*
X91739511Y-40942072D01*
X91739509Y-40942068D01*
X91737616Y-40937498D01*
X91724829Y-40916632D01*
X91661087Y-40812614D01*
X91642549Y-40744080D01*
X91664005Y-40676404D01*
X91692954Y-40645953D01*
X91714746Y-40629621D01*
X91763261Y-40593261D01*
X91850615Y-40476705D01*
X91901745Y-40340316D01*
X91908500Y-40278134D01*
X91908500Y-37981866D01*
X91901745Y-37919684D01*
X91850615Y-37783295D01*
X91852833Y-37782463D01*
X91840410Y-37725645D01*
X91865149Y-37659099D01*
X91921940Y-37616491D01*
X91966098Y-37608500D01*
X109568421Y-37608500D01*
X109580771Y-37609107D01*
X109613695Y-37612350D01*
X109613697Y-37612350D01*
X109622633Y-37613230D01*
X109680443Y-37602332D01*
X109685920Y-37601424D01*
X109744187Y-37593080D01*
X109752289Y-37589397D01*
X109753729Y-37589051D01*
X109755647Y-37588444D01*
X109757026Y-37587897D01*
X109765769Y-37586249D01*
X109773764Y-37582180D01*
X109773766Y-37582179D01*
X109818221Y-37559552D01*
X109823182Y-37557163D01*
X109876782Y-37532792D01*
X109883524Y-37526983D01*
X109884808Y-37526248D01*
X109886472Y-37525132D01*
X109887646Y-37524216D01*
X109895580Y-37520178D01*
X109902117Y-37514023D01*
X109902120Y-37514021D01*
X109938418Y-37479845D01*
X109942543Y-37476129D01*
X109980326Y-37443573D01*
X109987127Y-37437713D01*
X110012157Y-37399097D01*
X110018421Y-37390286D01*
X110122239Y-37256806D01*
X110179847Y-37215316D01*
X110250745Y-37211558D01*
X110312419Y-37246727D01*
X110345463Y-37310553D01*
X110362555Y-37400154D01*
X110456206Y-37688381D01*
X110457893Y-37691967D01*
X110457895Y-37691971D01*
X110473741Y-37725645D01*
X110585242Y-37962598D01*
X110587366Y-37965944D01*
X110587366Y-37965945D01*
X110595314Y-37978469D01*
X110747630Y-38218480D01*
X110750149Y-38221525D01*
X110750152Y-38221529D01*
X110778959Y-38256350D01*
X110940808Y-38451992D01*
X111161729Y-38659450D01*
X111406910Y-38837584D01*
X111410379Y-38839491D01*
X111410382Y-38839493D01*
X111669014Y-38981678D01*
X111672483Y-38983585D01*
X111676152Y-38985038D01*
X111676157Y-38985040D01*
X111950591Y-39093696D01*
X111954261Y-39095149D01*
X111958083Y-39096130D01*
X111958082Y-39096130D01*
X112063673Y-39123241D01*
X112124679Y-39159556D01*
X112156368Y-39223088D01*
X112148678Y-39293667D01*
X112103720Y-39349112D01*
X111923063Y-39473313D01*
X111918916Y-39476046D01*
X111867042Y-39508776D01*
X111843467Y-39535470D01*
X111840451Y-39538885D01*
X111831389Y-39548140D01*
X111816801Y-39561582D01*
X111801840Y-39575367D01*
X111794085Y-39588252D01*
X111780573Y-39606684D01*
X111770622Y-39617951D01*
X111766808Y-39626074D01*
X111766807Y-39626076D01*
X111753549Y-39654315D01*
X111747451Y-39665738D01*
X111726731Y-39700166D01*
X111722902Y-39714716D01*
X111715110Y-39736187D01*
X111708719Y-39749800D01*
X111707338Y-39758670D01*
X111707336Y-39758676D01*
X111702536Y-39789500D01*
X111699890Y-39802172D01*
X111691950Y-39832349D01*
X111691949Y-39832355D01*
X111689667Y-39841029D01*
X111689911Y-39850000D01*
X111691453Y-39906681D01*
X111691500Y-39910107D01*
X111691500Y-58522260D01*
X111671498Y-58590381D01*
X111617842Y-58636874D01*
X111547568Y-58646978D01*
X111527402Y-58642362D01*
X111367012Y-58591484D01*
X111361139Y-58589621D01*
X111355022Y-58588935D01*
X111355018Y-58588934D01*
X111278402Y-58580341D01*
X111199587Y-58571500D01*
X111087763Y-58571500D01*
X111084707Y-58571800D01*
X111084700Y-58571800D01*
X110939534Y-58586034D01*
X110939531Y-58586035D01*
X110933408Y-58586635D01*
X110801454Y-58626474D01*
X110740593Y-58644848D01*
X110740590Y-58644849D01*
X110734685Y-58646632D01*
X110729240Y-58649527D01*
X110729238Y-58649528D01*
X110556847Y-58741191D01*
X110556845Y-58741192D01*
X110551401Y-58744087D01*
X110546622Y-58747985D01*
X110395311Y-58871390D01*
X110395308Y-58871393D01*
X110390536Y-58875285D01*
X110386608Y-58880033D01*
X110386607Y-58880034D01*
X110282637Y-59005711D01*
X110223803Y-59045449D01*
X110152825Y-59047070D01*
X110092238Y-59010061D01*
X110069144Y-58973613D01*
X110039511Y-58902072D01*
X110039509Y-58902068D01*
X110037616Y-58897498D01*
X109905328Y-58681624D01*
X109740898Y-58489102D01*
X109548376Y-58324672D01*
X109332502Y-58192384D01*
X109327932Y-58190491D01*
X109327928Y-58190489D01*
X109103164Y-58097389D01*
X109103162Y-58097388D01*
X109098591Y-58095495D01*
X109013968Y-58075179D01*
X108857216Y-58037546D01*
X108857210Y-58037545D01*
X108852403Y-58036391D01*
X108600000Y-58016526D01*
X108347597Y-58036391D01*
X108342790Y-58037545D01*
X108342784Y-58037546D01*
X108186032Y-58075179D01*
X108101409Y-58095495D01*
X108096838Y-58097388D01*
X108096836Y-58097389D01*
X107872072Y-58190489D01*
X107872068Y-58190491D01*
X107867498Y-58192384D01*
X107651624Y-58324672D01*
X107459102Y-58489102D01*
X107294672Y-58681624D01*
X107162384Y-58897498D01*
X107160491Y-58902068D01*
X107160489Y-58902072D01*
X107100429Y-59047070D01*
X107065495Y-59131409D01*
X107006391Y-59377597D01*
X106986526Y-59630000D01*
X107006391Y-59882403D01*
X107065495Y-60128591D01*
X107067388Y-60133162D01*
X107067389Y-60133164D01*
X107160488Y-60357924D01*
X107162384Y-60362502D01*
X107164970Y-60366722D01*
X107238913Y-60487386D01*
X107257451Y-60555920D01*
X107235995Y-60623596D01*
X107207047Y-60654046D01*
X107136739Y-60706739D01*
X107049385Y-60823295D01*
X106998255Y-60959684D01*
X106991500Y-61021866D01*
X106991500Y-63318134D01*
X106998255Y-63380316D01*
X107049385Y-63516705D01*
X107136739Y-63633261D01*
X107253295Y-63720615D01*
X107389684Y-63771745D01*
X107451866Y-63778500D01*
X109748134Y-63778500D01*
X109810316Y-63771745D01*
X109946705Y-63720615D01*
X110063261Y-63633261D01*
X110150615Y-63516705D01*
X110201745Y-63380316D01*
X110208500Y-63318134D01*
X110208500Y-63040420D01*
X110228502Y-62972299D01*
X110282158Y-62925806D01*
X110352432Y-62915702D01*
X110415491Y-62943898D01*
X110539089Y-63047609D01*
X110544481Y-63050573D01*
X110544485Y-63050576D01*
X110646329Y-63106565D01*
X110720995Y-63147613D01*
X110918861Y-63210379D01*
X110924978Y-63211065D01*
X110924982Y-63211066D01*
X111001598Y-63219659D01*
X111080413Y-63228500D01*
X111192237Y-63228500D01*
X111195293Y-63228200D01*
X111195300Y-63228200D01*
X111340466Y-63213966D01*
X111340469Y-63213965D01*
X111346592Y-63213365D01*
X111466117Y-63177279D01*
X111529083Y-63158269D01*
X111600077Y-63157728D01*
X111660094Y-63195656D01*
X111690077Y-63260011D01*
X111691500Y-63278891D01*
X111691500Y-65922260D01*
X111671498Y-65990381D01*
X111617842Y-66036874D01*
X111547568Y-66046978D01*
X111527402Y-66042362D01*
X111367012Y-65991484D01*
X111361139Y-65989621D01*
X111355022Y-65988935D01*
X111355018Y-65988934D01*
X111278402Y-65980341D01*
X111199587Y-65971500D01*
X111087763Y-65971500D01*
X111084707Y-65971800D01*
X111084700Y-65971800D01*
X110939534Y-65986034D01*
X110939531Y-65986035D01*
X110933408Y-65986635D01*
X110801454Y-66026474D01*
X110740593Y-66044848D01*
X110740590Y-66044849D01*
X110734685Y-66046632D01*
X110729240Y-66049527D01*
X110729238Y-66049528D01*
X110556847Y-66141191D01*
X110556845Y-66141192D01*
X110551401Y-66144087D01*
X110546622Y-66147985D01*
X110395311Y-66271390D01*
X110395308Y-66271393D01*
X110390536Y-66275285D01*
X110386608Y-66280033D01*
X110386607Y-66280034D01*
X110282637Y-66405711D01*
X110223803Y-66445449D01*
X110152825Y-66447070D01*
X110092238Y-66410061D01*
X110069144Y-66373613D01*
X110039511Y-66302072D01*
X110039509Y-66302068D01*
X110037616Y-66297498D01*
X109905328Y-66081624D01*
X109740898Y-65889102D01*
X109548376Y-65724672D01*
X109332502Y-65592384D01*
X109327932Y-65590491D01*
X109327928Y-65590489D01*
X109103164Y-65497389D01*
X109103162Y-65497388D01*
X109098591Y-65495495D01*
X109013968Y-65475179D01*
X108857216Y-65437546D01*
X108857210Y-65437545D01*
X108852403Y-65436391D01*
X108600000Y-65416526D01*
X108347597Y-65436391D01*
X108342790Y-65437545D01*
X108342784Y-65437546D01*
X108186032Y-65475179D01*
X108101409Y-65495495D01*
X108096838Y-65497388D01*
X108096836Y-65497389D01*
X107872072Y-65590489D01*
X107872068Y-65590491D01*
X107867498Y-65592384D01*
X107651624Y-65724672D01*
X107459102Y-65889102D01*
X107294672Y-66081624D01*
X107162384Y-66297498D01*
X107160491Y-66302068D01*
X107160489Y-66302072D01*
X107067389Y-66526836D01*
X107065495Y-66531409D01*
X107064340Y-66536221D01*
X107020879Y-66717251D01*
X107006391Y-66777597D01*
X106986526Y-67030000D01*
X107006391Y-67282403D01*
X107007545Y-67287210D01*
X107007546Y-67287216D01*
X107032912Y-67392872D01*
X107065495Y-67528591D01*
X107067388Y-67533162D01*
X107067389Y-67533164D01*
X107160488Y-67757924D01*
X107162384Y-67762502D01*
X107164970Y-67766722D01*
X107238913Y-67887386D01*
X107257451Y-67955920D01*
X107235995Y-68023596D01*
X107207047Y-68054046D01*
X107136739Y-68106739D01*
X107049385Y-68223295D01*
X106998255Y-68359684D01*
X106991500Y-68421866D01*
X106991500Y-70718134D01*
X106998255Y-70780316D01*
X107049385Y-70916705D01*
X107136739Y-71033261D01*
X107253295Y-71120615D01*
X107389684Y-71171745D01*
X107451866Y-71178500D01*
X109748134Y-71178500D01*
X109810316Y-71171745D01*
X109946705Y-71120615D01*
X110063261Y-71033261D01*
X110150615Y-70916705D01*
X110201745Y-70780316D01*
X110208500Y-70718134D01*
X110208500Y-70440420D01*
X110228502Y-70372299D01*
X110282158Y-70325806D01*
X110352432Y-70315702D01*
X110415491Y-70343898D01*
X110539089Y-70447609D01*
X110544481Y-70450573D01*
X110544485Y-70450576D01*
X110652708Y-70510072D01*
X110720995Y-70547613D01*
X110918861Y-70610379D01*
X110924978Y-70611065D01*
X110924982Y-70611066D01*
X111001598Y-70619659D01*
X111080413Y-70628500D01*
X111192237Y-70628500D01*
X111195293Y-70628200D01*
X111195300Y-70628200D01*
X111340466Y-70613966D01*
X111340469Y-70613965D01*
X111346592Y-70613365D01*
X111436313Y-70586277D01*
X111529083Y-70558269D01*
X111600077Y-70557728D01*
X111660094Y-70595656D01*
X111690077Y-70660011D01*
X111691500Y-70678891D01*
X111691500Y-81590437D01*
X111691460Y-81593604D01*
X111689790Y-81660026D01*
X111692093Y-81668706D01*
X111698927Y-81694465D01*
X111701868Y-81708913D01*
X111702756Y-81715113D01*
X111706920Y-81744187D01*
X111710636Y-81752360D01*
X111710637Y-81752363D01*
X111715035Y-81762035D01*
X111722119Y-81781869D01*
X111727145Y-81800811D01*
X111731787Y-81808488D01*
X111731790Y-81808495D01*
X111745579Y-81831299D01*
X111752457Y-81844342D01*
X111763489Y-81868604D01*
X111763491Y-81868608D01*
X111767208Y-81876782D01*
X111780005Y-81891634D01*
X111792366Y-81908675D01*
X111802512Y-81925455D01*
X111828771Y-81949550D01*
X111839029Y-81960133D01*
X111862287Y-81987127D01*
X111869821Y-81992010D01*
X111869824Y-81992013D01*
X111885201Y-82001980D01*
X111931484Y-82055817D01*
X111941314Y-82126129D01*
X111911569Y-82190595D01*
X111848001Y-82229753D01*
X111758085Y-82252839D01*
X111758082Y-82252840D01*
X111754261Y-82253821D01*
X111750592Y-82255274D01*
X111750591Y-82255274D01*
X111476157Y-82363930D01*
X111476152Y-82363932D01*
X111472483Y-82365385D01*
X111469015Y-82367291D01*
X111469014Y-82367292D01*
X111227621Y-82500000D01*
X111206910Y-82511386D01*
X111166863Y-82540482D01*
X110970201Y-82683365D01*
X110961729Y-82689520D01*
X110740808Y-82896978D01*
X110625018Y-83036944D01*
X110588142Y-83081520D01*
X110547630Y-83130490D01*
X110385242Y-83386372D01*
X110345812Y-83470166D01*
X110281365Y-83607124D01*
X110256206Y-83660589D01*
X110254980Y-83664361D01*
X110254980Y-83664362D01*
X110179082Y-83897951D01*
X110139008Y-83956557D01*
X110073612Y-83984194D01*
X110003655Y-83972087D01*
X109975843Y-83953458D01*
X109964522Y-83943460D01*
X109954056Y-83933065D01*
X109936272Y-83913202D01*
X109936270Y-83913200D01*
X109930287Y-83906518D01*
X109913632Y-83896167D01*
X109896737Y-83883594D01*
X109888777Y-83876564D01*
X109882049Y-83870622D01*
X109849799Y-83855481D01*
X109836842Y-83848444D01*
X109814203Y-83834374D01*
X109814196Y-83834371D01*
X109806574Y-83829634D01*
X109787687Y-83824375D01*
X109767942Y-83817049D01*
X109759478Y-83813075D01*
X109758324Y-83812533D01*
X109758322Y-83812532D01*
X109750200Y-83808719D01*
X109714991Y-83803237D01*
X109700584Y-83800120D01*
X109666255Y-83790561D01*
X109594400Y-83791489D01*
X109592773Y-83791500D01*
X108632476Y-83791500D01*
X108564355Y-83771498D01*
X108517862Y-83717842D01*
X108507758Y-83647568D01*
X108521640Y-83605572D01*
X108547583Y-83557590D01*
X108550514Y-83552170D01*
X108611898Y-83353871D01*
X108613981Y-83334055D01*
X108632952Y-83153554D01*
X108632952Y-83153552D01*
X108633596Y-83147425D01*
X108618111Y-82977279D01*
X108615341Y-82946836D01*
X108615340Y-82946833D01*
X108614782Y-82940697D01*
X108612298Y-82932255D01*
X108557912Y-82747469D01*
X108556173Y-82741560D01*
X108460001Y-82557600D01*
X108329929Y-82395823D01*
X108325211Y-82391865D01*
X108325209Y-82391862D01*
X108194119Y-82281864D01*
X108154793Y-82222755D01*
X108153667Y-82151767D01*
X108191098Y-82091439D01*
X108226892Y-82068935D01*
X108257919Y-82056083D01*
X108297928Y-82039511D01*
X108297932Y-82039509D01*
X108302502Y-82037616D01*
X108518376Y-81905328D01*
X108710898Y-81740898D01*
X108875328Y-81548376D01*
X109007616Y-81332502D01*
X109013555Y-81318166D01*
X109102611Y-81103164D01*
X109102612Y-81103162D01*
X109104505Y-81098591D01*
X109124991Y-81013261D01*
X109162454Y-80857216D01*
X109162455Y-80857210D01*
X109163609Y-80852403D01*
X109183474Y-80600000D01*
X109163609Y-80347597D01*
X109104505Y-80101409D01*
X109007616Y-79867498D01*
X108875328Y-79651624D01*
X108710898Y-79459102D01*
X108518376Y-79294672D01*
X108302502Y-79162384D01*
X108297932Y-79160491D01*
X108297928Y-79160489D01*
X108073164Y-79067389D01*
X108073162Y-79067388D01*
X108068591Y-79065495D01*
X107983968Y-79045179D01*
X107827216Y-79007546D01*
X107827210Y-79007545D01*
X107822403Y-79006391D01*
X107570000Y-78986526D01*
X107317597Y-79006391D01*
X107312790Y-79007545D01*
X107312784Y-79007546D01*
X107156032Y-79045179D01*
X107071409Y-79065495D01*
X107066838Y-79067388D01*
X107066836Y-79067389D01*
X106842072Y-79160489D01*
X106842068Y-79160491D01*
X106837498Y-79162384D01*
X106833278Y-79164970D01*
X106712614Y-79238913D01*
X106644080Y-79257451D01*
X106576404Y-79235995D01*
X106545953Y-79207046D01*
X106493261Y-79136739D01*
X106376705Y-79049385D01*
X106240316Y-78998255D01*
X106178134Y-78991500D01*
X105392837Y-78991500D01*
X105324716Y-78971498D01*
X105278223Y-78917842D01*
X105268119Y-78847568D01*
X105299199Y-78781192D01*
X105339040Y-78736944D01*
X105434527Y-78571556D01*
X105493542Y-78389928D01*
X105494940Y-78376632D01*
X105512814Y-78206565D01*
X105513504Y-78200000D01*
X105507123Y-78139292D01*
X105494232Y-78016635D01*
X105494232Y-78016633D01*
X105493542Y-78010072D01*
X105434527Y-77828444D01*
X105339040Y-77663056D01*
X105211253Y-77521134D01*
X105056752Y-77408882D01*
X105050724Y-77406198D01*
X105050722Y-77406197D01*
X104888319Y-77333891D01*
X104888318Y-77333891D01*
X104882288Y-77331206D01*
X104788887Y-77311353D01*
X104701944Y-77292872D01*
X104701939Y-77292872D01*
X104695487Y-77291500D01*
X104504513Y-77291500D01*
X104498061Y-77292872D01*
X104498056Y-77292872D01*
X104411113Y-77311353D01*
X104317712Y-77331206D01*
X104311682Y-77333891D01*
X104311681Y-77333891D01*
X104149278Y-77406197D01*
X104149276Y-77406198D01*
X104143248Y-77408882D01*
X103988747Y-77521134D01*
X103860960Y-77663056D01*
X103765473Y-77828444D01*
X103706458Y-78010072D01*
X103705768Y-78016633D01*
X103705768Y-78016635D01*
X103692877Y-78139292D01*
X103686496Y-78200000D01*
X103687186Y-78206565D01*
X103705061Y-78376632D01*
X103706458Y-78389928D01*
X103765473Y-78571556D01*
X103860960Y-78736944D01*
X103906849Y-78787909D01*
X103937565Y-78851915D01*
X103928800Y-78922368D01*
X103883337Y-78976899D01*
X103834969Y-78994512D01*
X103835222Y-78995575D01*
X103827540Y-78997402D01*
X103819684Y-78998255D01*
X103683295Y-79049385D01*
X103566739Y-79136739D01*
X103479385Y-79253295D01*
X103428255Y-79389684D01*
X103421500Y-79451866D01*
X103421500Y-81748134D01*
X103428255Y-81810316D01*
X103479385Y-81946705D01*
X103566739Y-82063261D01*
X103683295Y-82150615D01*
X103819684Y-82201745D01*
X103881866Y-82208500D01*
X104159022Y-82208500D01*
X104227143Y-82228502D01*
X104273636Y-82282158D01*
X104283740Y-82352432D01*
X104256106Y-82414815D01*
X104148217Y-82545230D01*
X104145288Y-82550647D01*
X104145286Y-82550650D01*
X104052416Y-82722410D01*
X104052414Y-82722415D01*
X104049486Y-82727830D01*
X103988102Y-82926129D01*
X103987458Y-82932254D01*
X103987458Y-82932255D01*
X103971419Y-83084864D01*
X103966404Y-83132575D01*
X103968313Y-83153554D01*
X103980480Y-83287237D01*
X103985218Y-83339303D01*
X103986956Y-83345209D01*
X103986957Y-83345213D01*
X104011576Y-83428861D01*
X104043827Y-83538440D01*
X104046683Y-83543903D01*
X104079734Y-83607124D01*
X104093569Y-83676760D01*
X104067559Y-83742821D01*
X104009963Y-83784333D01*
X103968073Y-83791500D01*
X64640366Y-83791500D01*
X64624527Y-83790500D01*
X64591684Y-83786338D01*
X64565635Y-83790500D01*
X64524813Y-83797022D01*
X64522797Y-83797327D01*
X64489462Y-83802101D01*
X64455813Y-83806920D01*
X64451992Y-83808657D01*
X64447851Y-83809319D01*
X64386629Y-83838360D01*
X64384874Y-83839175D01*
X64331205Y-83863576D01*
X64331199Y-83863579D01*
X64323218Y-83867208D01*
X64320039Y-83869947D01*
X64316249Y-83871745D01*
X64309704Y-83877572D01*
X64309697Y-83877577D01*
X64265697Y-83916748D01*
X64264166Y-83918089D01*
X64223119Y-83953458D01*
X64212873Y-83962287D01*
X64207988Y-83969824D01*
X64192729Y-83993364D01*
X64184261Y-84004929D01*
X64089659Y-84119803D01*
X64030914Y-84159672D01*
X63959940Y-84161452D01*
X63899270Y-84124578D01*
X63868628Y-84063314D01*
X63864495Y-84041645D01*
X63837445Y-83899846D01*
X63743794Y-83611619D01*
X63713050Y-83546283D01*
X63676586Y-83468794D01*
X63614758Y-83337402D01*
X63612069Y-83333164D01*
X63494195Y-83147425D01*
X63452370Y-83081520D01*
X63259192Y-82848008D01*
X63087940Y-82687192D01*
X63041158Y-82643261D01*
X63041157Y-82643261D01*
X63038271Y-82640550D01*
X62982459Y-82600000D01*
X94286496Y-82600000D01*
X94287186Y-82606565D01*
X94300801Y-82736101D01*
X94306458Y-82789928D01*
X94365473Y-82971556D01*
X94460960Y-83136944D01*
X94465378Y-83141851D01*
X94465379Y-83141852D01*
X94470397Y-83147425D01*
X94588747Y-83278866D01*
X94664708Y-83334055D01*
X94736716Y-83386372D01*
X94743248Y-83391118D01*
X94749276Y-83393802D01*
X94749278Y-83393803D01*
X94911681Y-83466109D01*
X94917712Y-83468794D01*
X95011112Y-83488647D01*
X95098056Y-83507128D01*
X95098061Y-83507128D01*
X95104513Y-83508500D01*
X95295487Y-83508500D01*
X95301939Y-83507128D01*
X95301944Y-83507128D01*
X95388888Y-83488647D01*
X95482288Y-83468794D01*
X95488319Y-83466109D01*
X95650722Y-83393803D01*
X95650724Y-83393802D01*
X95656752Y-83391118D01*
X95663285Y-83386372D01*
X95735292Y-83334055D01*
X95811253Y-83278866D01*
X95929603Y-83147425D01*
X95934621Y-83141852D01*
X95934622Y-83141851D01*
X95939040Y-83136944D01*
X96034527Y-82971556D01*
X96093542Y-82789928D01*
X96099200Y-82736101D01*
X96112814Y-82606565D01*
X96113504Y-82600000D01*
X96111215Y-82578217D01*
X96102994Y-82500000D01*
X96386496Y-82500000D01*
X96387186Y-82506565D01*
X96402993Y-82656956D01*
X96406458Y-82689928D01*
X96465473Y-82871556D01*
X96468776Y-82877278D01*
X96468777Y-82877279D01*
X96493583Y-82920244D01*
X96560960Y-83036944D01*
X96688747Y-83178866D01*
X96787843Y-83250864D01*
X96826385Y-83278866D01*
X96843248Y-83291118D01*
X96849276Y-83293802D01*
X96849278Y-83293803D01*
X96955258Y-83340988D01*
X97017712Y-83368794D01*
X97100410Y-83386372D01*
X97198056Y-83407128D01*
X97198061Y-83407128D01*
X97204513Y-83408500D01*
X97395487Y-83408500D01*
X97401939Y-83407128D01*
X97401944Y-83407128D01*
X97499590Y-83386372D01*
X97582288Y-83368794D01*
X97644742Y-83340988D01*
X97750722Y-83293803D01*
X97750724Y-83293802D01*
X97756752Y-83291118D01*
X97773616Y-83278866D01*
X97812157Y-83250864D01*
X97911253Y-83178866D01*
X98039040Y-83036944D01*
X98106417Y-82920244D01*
X98131223Y-82877279D01*
X98131224Y-82877278D01*
X98134527Y-82871556D01*
X98193542Y-82689928D01*
X98197008Y-82656956D01*
X98212814Y-82506565D01*
X98213504Y-82500000D01*
X98486496Y-82500000D01*
X98487186Y-82506565D01*
X98502993Y-82656956D01*
X98506458Y-82689928D01*
X98565473Y-82871556D01*
X98568776Y-82877278D01*
X98568777Y-82877279D01*
X98593583Y-82920244D01*
X98660960Y-83036944D01*
X98788747Y-83178866D01*
X98887843Y-83250864D01*
X98926385Y-83278866D01*
X98943248Y-83291118D01*
X98949276Y-83293802D01*
X98949278Y-83293803D01*
X99055258Y-83340988D01*
X99117712Y-83368794D01*
X99200410Y-83386372D01*
X99298056Y-83407128D01*
X99298061Y-83407128D01*
X99304513Y-83408500D01*
X99495487Y-83408500D01*
X99501939Y-83407128D01*
X99501944Y-83407128D01*
X99599590Y-83386372D01*
X99682288Y-83368794D01*
X99744742Y-83340988D01*
X99850722Y-83293803D01*
X99850724Y-83293802D01*
X99856752Y-83291118D01*
X99873616Y-83278866D01*
X99912157Y-83250864D01*
X100011253Y-83178866D01*
X100139040Y-83036944D01*
X100206417Y-82920244D01*
X100231223Y-82877279D01*
X100231224Y-82877278D01*
X100234527Y-82871556D01*
X100280167Y-82731090D01*
X100320241Y-82672486D01*
X100385637Y-82644849D01*
X100455594Y-82656956D01*
X100507900Y-82704962D01*
X100519832Y-82731089D01*
X100565473Y-82871556D01*
X100568776Y-82877278D01*
X100568777Y-82877279D01*
X100593583Y-82920244D01*
X100660960Y-83036944D01*
X100788747Y-83178866D01*
X100887843Y-83250864D01*
X100926385Y-83278866D01*
X100943248Y-83291118D01*
X100949276Y-83293802D01*
X100949278Y-83293803D01*
X101055258Y-83340988D01*
X101117712Y-83368794D01*
X101200410Y-83386372D01*
X101298056Y-83407128D01*
X101298061Y-83407128D01*
X101304513Y-83408500D01*
X101495487Y-83408500D01*
X101501939Y-83407128D01*
X101501944Y-83407128D01*
X101599590Y-83386372D01*
X101682288Y-83368794D01*
X101744742Y-83340988D01*
X101850722Y-83293803D01*
X101850724Y-83293802D01*
X101856752Y-83291118D01*
X101873616Y-83278866D01*
X101912157Y-83250864D01*
X102011253Y-83178866D01*
X102139040Y-83036944D01*
X102206417Y-82920244D01*
X102231223Y-82877279D01*
X102231224Y-82877278D01*
X102234527Y-82871556D01*
X102293542Y-82689928D01*
X102297008Y-82656956D01*
X102312814Y-82506565D01*
X102313504Y-82500000D01*
X102303780Y-82407479D01*
X102294232Y-82316635D01*
X102294232Y-82316633D01*
X102293542Y-82310072D01*
X102234527Y-82128444D01*
X102139040Y-81963056D01*
X102113082Y-81934226D01*
X102015675Y-81826045D01*
X102015674Y-81826044D01*
X102011253Y-81821134D01*
X101905345Y-81744187D01*
X101862094Y-81712763D01*
X101862093Y-81712762D01*
X101856752Y-81708882D01*
X101850724Y-81706198D01*
X101850722Y-81706197D01*
X101688319Y-81633891D01*
X101688318Y-81633891D01*
X101682288Y-81631206D01*
X101566649Y-81606626D01*
X101501944Y-81592872D01*
X101501939Y-81592872D01*
X101495487Y-81591500D01*
X101304513Y-81591500D01*
X101298061Y-81592872D01*
X101298056Y-81592872D01*
X101233351Y-81606626D01*
X101117712Y-81631206D01*
X101111682Y-81633891D01*
X101111681Y-81633891D01*
X100949278Y-81706197D01*
X100949276Y-81706198D01*
X100943248Y-81708882D01*
X100937907Y-81712762D01*
X100937906Y-81712763D01*
X100894655Y-81744187D01*
X100788747Y-81821134D01*
X100784326Y-81826044D01*
X100784325Y-81826045D01*
X100686919Y-81934226D01*
X100660960Y-81963056D01*
X100565473Y-82128444D01*
X100532556Y-82229753D01*
X100519833Y-82268909D01*
X100479759Y-82327514D01*
X100414363Y-82355151D01*
X100344406Y-82343044D01*
X100292100Y-82295038D01*
X100280167Y-82268909D01*
X100267445Y-82229753D01*
X100234527Y-82128444D01*
X100139040Y-81963056D01*
X100113082Y-81934226D01*
X100015675Y-81826045D01*
X100015674Y-81826044D01*
X100011253Y-81821134D01*
X99905345Y-81744187D01*
X99862094Y-81712763D01*
X99862093Y-81712762D01*
X99856752Y-81708882D01*
X99850724Y-81706198D01*
X99850722Y-81706197D01*
X99688319Y-81633891D01*
X99688318Y-81633891D01*
X99682288Y-81631206D01*
X99566649Y-81606626D01*
X99501944Y-81592872D01*
X99501939Y-81592872D01*
X99495487Y-81591500D01*
X99304513Y-81591500D01*
X99298061Y-81592872D01*
X99298056Y-81592872D01*
X99233351Y-81606626D01*
X99117712Y-81631206D01*
X99111682Y-81633891D01*
X99111681Y-81633891D01*
X98949278Y-81706197D01*
X98949276Y-81706198D01*
X98943248Y-81708882D01*
X98937907Y-81712762D01*
X98937906Y-81712763D01*
X98894655Y-81744187D01*
X98788747Y-81821134D01*
X98784326Y-81826044D01*
X98784325Y-81826045D01*
X98686919Y-81934226D01*
X98660960Y-81963056D01*
X98565473Y-82128444D01*
X98506458Y-82310072D01*
X98505768Y-82316633D01*
X98505768Y-82316635D01*
X98496220Y-82407479D01*
X98486496Y-82500000D01*
X98213504Y-82500000D01*
X98203780Y-82407479D01*
X98194232Y-82316635D01*
X98194232Y-82316633D01*
X98193542Y-82310072D01*
X98134527Y-82128444D01*
X98039040Y-81963056D01*
X98013082Y-81934226D01*
X97915675Y-81826045D01*
X97915674Y-81826044D01*
X97911253Y-81821134D01*
X97805345Y-81744187D01*
X97762094Y-81712763D01*
X97762093Y-81712762D01*
X97756752Y-81708882D01*
X97750724Y-81706198D01*
X97750722Y-81706197D01*
X97588319Y-81633891D01*
X97588318Y-81633891D01*
X97582288Y-81631206D01*
X97466649Y-81606626D01*
X97401944Y-81592872D01*
X97401939Y-81592872D01*
X97395487Y-81591500D01*
X97204513Y-81591500D01*
X97198061Y-81592872D01*
X97198056Y-81592872D01*
X97133351Y-81606626D01*
X97017712Y-81631206D01*
X97011682Y-81633891D01*
X97011681Y-81633891D01*
X96849278Y-81706197D01*
X96849276Y-81706198D01*
X96843248Y-81708882D01*
X96837907Y-81712762D01*
X96837906Y-81712763D01*
X96794655Y-81744187D01*
X96688747Y-81821134D01*
X96684326Y-81826044D01*
X96684325Y-81826045D01*
X96586919Y-81934226D01*
X96560960Y-81963056D01*
X96465473Y-82128444D01*
X96406458Y-82310072D01*
X96405768Y-82316633D01*
X96405768Y-82316635D01*
X96396220Y-82407479D01*
X96386496Y-82500000D01*
X96102994Y-82500000D01*
X96094232Y-82416635D01*
X96094232Y-82416633D01*
X96093542Y-82410072D01*
X96034527Y-82228444D01*
X96021745Y-82206304D01*
X95993172Y-82156816D01*
X95939040Y-82063056D01*
X95932762Y-82056083D01*
X95815675Y-81926045D01*
X95815674Y-81926044D01*
X95811253Y-81921134D01*
X95680375Y-81826045D01*
X95662094Y-81812763D01*
X95662093Y-81812762D01*
X95656752Y-81808882D01*
X95650724Y-81806198D01*
X95650722Y-81806197D01*
X95488319Y-81733891D01*
X95488318Y-81733891D01*
X95482288Y-81731206D01*
X95388888Y-81711353D01*
X95301944Y-81692872D01*
X95301939Y-81692872D01*
X95295487Y-81691500D01*
X95104513Y-81691500D01*
X95098061Y-81692872D01*
X95098056Y-81692872D01*
X95011112Y-81711353D01*
X94917712Y-81731206D01*
X94911682Y-81733891D01*
X94911681Y-81733891D01*
X94749278Y-81806197D01*
X94749276Y-81806198D01*
X94743248Y-81808882D01*
X94737907Y-81812762D01*
X94737906Y-81812763D01*
X94719625Y-81826045D01*
X94588747Y-81921134D01*
X94584326Y-81926044D01*
X94584325Y-81926045D01*
X94467239Y-82056083D01*
X94460960Y-82063056D01*
X94406828Y-82156816D01*
X94378256Y-82206304D01*
X94365473Y-82228444D01*
X94306458Y-82410072D01*
X94305768Y-82416633D01*
X94305768Y-82416635D01*
X94288785Y-82578217D01*
X94286496Y-82600000D01*
X62982459Y-82600000D01*
X62793090Y-82462416D01*
X62709816Y-82416635D01*
X62530986Y-82318322D01*
X62530985Y-82318321D01*
X62527517Y-82316415D01*
X62523848Y-82314962D01*
X62523843Y-82314960D01*
X62249409Y-82206304D01*
X62249408Y-82206304D01*
X62245739Y-82204851D01*
X62241918Y-82203870D01*
X62241915Y-82203869D01*
X62199360Y-82192943D01*
X62138353Y-82156629D01*
X62106664Y-82093097D01*
X62114354Y-82022518D01*
X62136247Y-81987500D01*
X62150346Y-81971536D01*
X62163525Y-81958651D01*
X62183602Y-81941712D01*
X62188563Y-81934230D01*
X62188566Y-81934226D01*
X62199620Y-81917553D01*
X62210193Y-81903772D01*
X62223438Y-81888775D01*
X62223439Y-81888774D01*
X62229378Y-81882049D01*
X62240540Y-81858276D01*
X62249579Y-81842200D01*
X62264090Y-81820313D01*
X62268472Y-81806197D01*
X62272683Y-81792628D01*
X62278963Y-81776435D01*
X62291281Y-81750200D01*
X62295321Y-81724251D01*
X62299483Y-81706288D01*
X62307270Y-81681203D01*
X62307847Y-81646181D01*
X62308007Y-81642776D01*
X62308500Y-81639614D01*
X62308500Y-81607673D01*
X62308517Y-81605595D01*
X62309524Y-81544539D01*
X62309672Y-81535565D01*
X62308728Y-81532127D01*
X62308500Y-81528507D01*
X62308500Y-81146558D01*
X62328502Y-81078437D01*
X62382158Y-81031944D01*
X62452432Y-81021840D01*
X62510065Y-81045732D01*
X62583295Y-81100615D01*
X62719684Y-81151745D01*
X62781866Y-81158500D01*
X64578134Y-81158500D01*
X64640316Y-81151745D01*
X64776705Y-81100615D01*
X64893261Y-81013261D01*
X64980615Y-80896705D01*
X65031745Y-80760316D01*
X65038500Y-80698134D01*
X65038500Y-78901866D01*
X65031745Y-78839684D01*
X64980615Y-78703295D01*
X64893261Y-78586739D01*
X64776705Y-78499385D01*
X64764132Y-78494672D01*
X64658203Y-78454960D01*
X64601439Y-78412318D01*
X64576739Y-78345756D01*
X64591947Y-78276408D01*
X64613493Y-78247727D01*
X64714435Y-78147137D01*
X64718096Y-78143489D01*
X64848453Y-77962077D01*
X64947430Y-77761811D01*
X64994010Y-77608500D01*
X65010865Y-77553023D01*
X65010865Y-77553021D01*
X65012370Y-77548069D01*
X65041529Y-77326590D01*
X65042353Y-77292872D01*
X65043074Y-77263365D01*
X65043074Y-77263361D01*
X65043156Y-77260000D01*
X65024852Y-77037361D01*
X64970431Y-76820702D01*
X64917948Y-76700000D01*
X71786496Y-76700000D01*
X71787186Y-76706565D01*
X71799710Y-76825720D01*
X71806458Y-76889928D01*
X71865473Y-77071556D01*
X71960960Y-77236944D01*
X71965378Y-77241851D01*
X71965379Y-77241852D01*
X72044598Y-77329834D01*
X72088747Y-77378866D01*
X72243248Y-77491118D01*
X72249276Y-77493802D01*
X72249278Y-77493803D01*
X72411681Y-77566109D01*
X72417712Y-77568794D01*
X72511112Y-77588647D01*
X72598056Y-77607128D01*
X72598061Y-77607128D01*
X72604513Y-77608500D01*
X72795487Y-77608500D01*
X72801939Y-77607128D01*
X72801944Y-77607128D01*
X72888888Y-77588647D01*
X72982288Y-77568794D01*
X72988319Y-77566109D01*
X73150722Y-77493803D01*
X73150724Y-77493802D01*
X73156752Y-77491118D01*
X73311253Y-77378866D01*
X73355402Y-77329834D01*
X73434621Y-77241852D01*
X73434622Y-77241851D01*
X73439040Y-77236944D01*
X73534527Y-77071556D01*
X73593542Y-76889928D01*
X73600291Y-76825720D01*
X73612814Y-76706565D01*
X73613504Y-76700000D01*
X89386496Y-76700000D01*
X89387186Y-76706565D01*
X89399710Y-76825720D01*
X89406458Y-76889928D01*
X89465473Y-77071556D01*
X89560960Y-77236944D01*
X89565378Y-77241851D01*
X89565379Y-77241852D01*
X89644598Y-77329834D01*
X89688747Y-77378866D01*
X89843248Y-77491118D01*
X89849276Y-77493802D01*
X89849278Y-77493803D01*
X90011681Y-77566109D01*
X90017712Y-77568794D01*
X90111112Y-77588647D01*
X90198056Y-77607128D01*
X90198061Y-77607128D01*
X90204513Y-77608500D01*
X90395487Y-77608500D01*
X90401939Y-77607128D01*
X90401944Y-77607128D01*
X90488888Y-77588647D01*
X90582288Y-77568794D01*
X90588319Y-77566109D01*
X90750722Y-77493803D01*
X90750724Y-77493802D01*
X90756752Y-77491118D01*
X90911253Y-77378866D01*
X90955402Y-77329834D01*
X91034621Y-77241852D01*
X91034622Y-77241851D01*
X91039040Y-77236944D01*
X91134527Y-77071556D01*
X91193542Y-76889928D01*
X91200291Y-76825720D01*
X91212814Y-76706565D01*
X91213504Y-76700000D01*
X91197142Y-76544326D01*
X91194232Y-76516635D01*
X91194232Y-76516633D01*
X91193542Y-76510072D01*
X91134527Y-76328444D01*
X91039040Y-76163056D01*
X91007296Y-76127800D01*
X90915675Y-76026045D01*
X90915674Y-76026044D01*
X90911253Y-76021134D01*
X90756752Y-75908882D01*
X90750724Y-75906198D01*
X90750722Y-75906197D01*
X90588319Y-75833891D01*
X90588318Y-75833891D01*
X90582288Y-75831206D01*
X90466362Y-75806565D01*
X90401944Y-75792872D01*
X90401939Y-75792872D01*
X90395487Y-75791500D01*
X90204513Y-75791500D01*
X90198061Y-75792872D01*
X90198056Y-75792872D01*
X90133638Y-75806565D01*
X90017712Y-75831206D01*
X90011682Y-75833891D01*
X90011681Y-75833891D01*
X89849278Y-75906197D01*
X89849276Y-75906198D01*
X89843248Y-75908882D01*
X89688747Y-76021134D01*
X89684326Y-76026044D01*
X89684325Y-76026045D01*
X89592705Y-76127800D01*
X89560960Y-76163056D01*
X89465473Y-76328444D01*
X89406458Y-76510072D01*
X89405768Y-76516633D01*
X89405768Y-76516635D01*
X89402858Y-76544326D01*
X89386496Y-76700000D01*
X73613504Y-76700000D01*
X73597142Y-76544326D01*
X73594232Y-76516635D01*
X73594232Y-76516633D01*
X73593542Y-76510072D01*
X73534527Y-76328444D01*
X73439040Y-76163056D01*
X73407296Y-76127800D01*
X73315675Y-76026045D01*
X73315674Y-76026044D01*
X73311253Y-76021134D01*
X73156752Y-75908882D01*
X73150724Y-75906198D01*
X73150722Y-75906197D01*
X72988319Y-75833891D01*
X72988318Y-75833891D01*
X72982288Y-75831206D01*
X72866362Y-75806565D01*
X72801944Y-75792872D01*
X72801939Y-75792872D01*
X72795487Y-75791500D01*
X72604513Y-75791500D01*
X72598061Y-75792872D01*
X72598056Y-75792872D01*
X72533638Y-75806565D01*
X72417712Y-75831206D01*
X72411682Y-75833891D01*
X72411681Y-75833891D01*
X72249278Y-75906197D01*
X72249276Y-75906198D01*
X72243248Y-75908882D01*
X72088747Y-76021134D01*
X72084326Y-76026044D01*
X72084325Y-76026045D01*
X71992705Y-76127800D01*
X71960960Y-76163056D01*
X71865473Y-76328444D01*
X71806458Y-76510072D01*
X71805768Y-76516633D01*
X71805768Y-76516635D01*
X71802858Y-76544326D01*
X71786496Y-76700000D01*
X64917948Y-76700000D01*
X64881354Y-76615840D01*
X64841906Y-76554862D01*
X64762822Y-76432617D01*
X64762820Y-76432614D01*
X64760014Y-76428277D01*
X64609670Y-76263051D01*
X64605619Y-76259852D01*
X64605615Y-76259848D01*
X64438414Y-76127800D01*
X64438410Y-76127798D01*
X64434359Y-76124598D01*
X64393053Y-76101796D01*
X64343084Y-76051364D01*
X64328312Y-75981921D01*
X64353428Y-75915516D01*
X64380780Y-75888909D01*
X64424603Y-75857650D01*
X64559860Y-75761173D01*
X64718096Y-75603489D01*
X64720603Y-75600000D01*
X98386496Y-75600000D01*
X98387186Y-75606565D01*
X98395959Y-75690031D01*
X98406458Y-75789928D01*
X98465473Y-75971556D01*
X98560960Y-76136944D01*
X98688747Y-76278866D01*
X98843248Y-76391118D01*
X98849276Y-76393802D01*
X98849278Y-76393803D01*
X99011681Y-76466109D01*
X99017712Y-76468794D01*
X99083365Y-76482749D01*
X99198056Y-76507128D01*
X99198061Y-76507128D01*
X99204513Y-76508500D01*
X99395487Y-76508500D01*
X99401939Y-76507128D01*
X99401944Y-76507128D01*
X99516635Y-76482749D01*
X99582288Y-76468794D01*
X99588319Y-76466109D01*
X99750722Y-76393803D01*
X99750724Y-76393802D01*
X99756752Y-76391118D01*
X99911253Y-76278866D01*
X100039040Y-76136944D01*
X100134527Y-75971556D01*
X100190269Y-75800000D01*
X103886496Y-75800000D01*
X103887186Y-75806565D01*
X103905129Y-75977279D01*
X103906458Y-75989928D01*
X103965473Y-76171556D01*
X104060960Y-76336944D01*
X104065378Y-76341851D01*
X104065379Y-76341852D01*
X104179678Y-76468794D01*
X104188747Y-76478866D01*
X104278845Y-76544326D01*
X104337140Y-76586680D01*
X104343248Y-76591118D01*
X104349276Y-76593802D01*
X104349278Y-76593803D01*
X104511681Y-76666109D01*
X104517712Y-76668794D01*
X104611112Y-76688647D01*
X104698056Y-76707128D01*
X104698061Y-76707128D01*
X104704513Y-76708500D01*
X104895487Y-76708500D01*
X104901939Y-76707128D01*
X104901944Y-76707128D01*
X104988888Y-76688647D01*
X105082288Y-76668794D01*
X105088319Y-76666109D01*
X105250722Y-76593803D01*
X105250724Y-76593802D01*
X105256752Y-76591118D01*
X105262861Y-76586680D01*
X105321155Y-76544326D01*
X105411253Y-76478866D01*
X105420322Y-76468794D01*
X105534621Y-76341852D01*
X105534622Y-76341851D01*
X105539040Y-76336944D01*
X105634527Y-76171556D01*
X105693542Y-75989928D01*
X105694872Y-75977279D01*
X105712814Y-75806565D01*
X105713504Y-75800000D01*
X105693542Y-75610072D01*
X105634527Y-75428444D01*
X105620476Y-75404106D01*
X105542341Y-75268774D01*
X105539040Y-75263056D01*
X105411253Y-75121134D01*
X105256752Y-75008882D01*
X105250724Y-75006198D01*
X105250722Y-75006197D01*
X105088319Y-74933891D01*
X105088318Y-74933891D01*
X105082288Y-74931206D01*
X104988888Y-74911353D01*
X104901944Y-74892872D01*
X104901939Y-74892872D01*
X104895487Y-74891500D01*
X104704513Y-74891500D01*
X104698061Y-74892872D01*
X104698056Y-74892872D01*
X104611112Y-74911353D01*
X104517712Y-74931206D01*
X104511682Y-74933891D01*
X104511681Y-74933891D01*
X104349278Y-75006197D01*
X104349276Y-75006198D01*
X104343248Y-75008882D01*
X104188747Y-75121134D01*
X104060960Y-75263056D01*
X104057659Y-75268774D01*
X103979525Y-75404106D01*
X103965473Y-75428444D01*
X103906458Y-75610072D01*
X103886496Y-75800000D01*
X100190269Y-75800000D01*
X100193542Y-75789928D01*
X100204042Y-75690031D01*
X100212814Y-75606565D01*
X100213504Y-75600000D01*
X100199104Y-75462990D01*
X100194232Y-75416635D01*
X100194232Y-75416633D01*
X100193542Y-75410072D01*
X100134527Y-75228444D01*
X100130698Y-75221811D01*
X100072571Y-75121134D01*
X100039040Y-75063056D01*
X99984911Y-75002939D01*
X99915675Y-74926045D01*
X99915674Y-74926044D01*
X99911253Y-74921134D01*
X99756752Y-74808882D01*
X99750724Y-74806198D01*
X99750722Y-74806197D01*
X99588319Y-74733891D01*
X99588318Y-74733891D01*
X99582288Y-74731206D01*
X99488887Y-74711353D01*
X99401944Y-74692872D01*
X99401939Y-74692872D01*
X99395487Y-74691500D01*
X99204513Y-74691500D01*
X99198061Y-74692872D01*
X99198056Y-74692872D01*
X99111113Y-74711353D01*
X99017712Y-74731206D01*
X99011682Y-74733891D01*
X99011681Y-74733891D01*
X98849278Y-74806197D01*
X98849276Y-74806198D01*
X98843248Y-74808882D01*
X98688747Y-74921134D01*
X98684326Y-74926044D01*
X98684325Y-74926045D01*
X98615090Y-75002939D01*
X98560960Y-75063056D01*
X98527429Y-75121134D01*
X98469303Y-75221811D01*
X98465473Y-75228444D01*
X98406458Y-75410072D01*
X98405768Y-75416633D01*
X98405768Y-75416635D01*
X98400896Y-75462990D01*
X98386496Y-75600000D01*
X64720603Y-75600000D01*
X64725321Y-75593435D01*
X64845435Y-75426277D01*
X64848453Y-75422077D01*
X64947430Y-75221811D01*
X65012370Y-75008069D01*
X65041529Y-74786590D01*
X65043156Y-74720000D01*
X65024852Y-74497361D01*
X64970431Y-74280702D01*
X64935341Y-74200000D01*
X71086496Y-74200000D01*
X71106458Y-74389928D01*
X71165473Y-74571556D01*
X71260960Y-74736944D01*
X71265378Y-74741851D01*
X71265379Y-74741852D01*
X71325733Y-74808882D01*
X71388747Y-74878866D01*
X71543248Y-74991118D01*
X71549276Y-74993802D01*
X71549278Y-74993803D01*
X71704824Y-75063056D01*
X71717712Y-75068794D01*
X71811113Y-75088647D01*
X71898056Y-75107128D01*
X71898061Y-75107128D01*
X71904513Y-75108500D01*
X72095487Y-75108500D01*
X72101939Y-75107128D01*
X72101944Y-75107128D01*
X72188887Y-75088647D01*
X72282288Y-75068794D01*
X72295176Y-75063056D01*
X72450722Y-74993803D01*
X72450724Y-74993802D01*
X72456752Y-74991118D01*
X72611253Y-74878866D01*
X72674267Y-74808882D01*
X72734621Y-74741852D01*
X72734622Y-74741851D01*
X72739040Y-74736944D01*
X72834527Y-74571556D01*
X72893542Y-74389928D01*
X72913504Y-74200000D01*
X72900954Y-74080590D01*
X72894232Y-74016635D01*
X72894232Y-74016633D01*
X72893542Y-74010072D01*
X72834527Y-73828444D01*
X72739040Y-73663056D01*
X72611253Y-73521134D01*
X72456752Y-73408882D01*
X72450724Y-73406198D01*
X72450722Y-73406197D01*
X72288319Y-73333891D01*
X72288318Y-73333891D01*
X72282288Y-73331206D01*
X72188887Y-73311353D01*
X72101944Y-73292872D01*
X72101939Y-73292872D01*
X72095487Y-73291500D01*
X71904513Y-73291500D01*
X71898061Y-73292872D01*
X71898056Y-73292872D01*
X71811113Y-73311353D01*
X71717712Y-73331206D01*
X71711682Y-73333891D01*
X71711681Y-73333891D01*
X71549278Y-73406197D01*
X71549276Y-73406198D01*
X71543248Y-73408882D01*
X71388747Y-73521134D01*
X71260960Y-73663056D01*
X71165473Y-73828444D01*
X71106458Y-74010072D01*
X71105768Y-74016633D01*
X71105768Y-74016635D01*
X71099046Y-74080590D01*
X71086496Y-74200000D01*
X64935341Y-74200000D01*
X64881354Y-74075840D01*
X64838807Y-74010072D01*
X64762822Y-73892617D01*
X64762820Y-73892614D01*
X64760014Y-73888277D01*
X64609670Y-73723051D01*
X64605619Y-73719852D01*
X64605615Y-73719848D01*
X64438414Y-73587800D01*
X64438410Y-73587798D01*
X64434359Y-73584598D01*
X64238789Y-73476638D01*
X64233920Y-73474914D01*
X64233916Y-73474912D01*
X64033087Y-73403795D01*
X64033083Y-73403794D01*
X64028212Y-73402069D01*
X64023119Y-73401162D01*
X64023116Y-73401161D01*
X63813373Y-73363800D01*
X63813367Y-73363799D01*
X63808284Y-73362894D01*
X63734452Y-73361992D01*
X63590081Y-73360228D01*
X63590079Y-73360228D01*
X63584911Y-73360165D01*
X63364091Y-73393955D01*
X63151756Y-73463357D01*
X62953607Y-73566507D01*
X62949474Y-73569610D01*
X62949471Y-73569612D01*
X62779100Y-73697530D01*
X62774965Y-73700635D01*
X62620629Y-73862138D01*
X62617715Y-73866410D01*
X62617714Y-73866411D01*
X62538588Y-73982406D01*
X62483677Y-74027409D01*
X62413152Y-74035580D01*
X62349405Y-74004326D01*
X62312675Y-73943569D01*
X62308500Y-73911402D01*
X62308500Y-72200000D01*
X84586496Y-72200000D01*
X84606458Y-72389928D01*
X84665473Y-72571556D01*
X84760960Y-72736944D01*
X84888747Y-72878866D01*
X85043248Y-72991118D01*
X85049276Y-72993802D01*
X85049278Y-72993803D01*
X85211681Y-73066109D01*
X85217712Y-73068794D01*
X85311113Y-73088647D01*
X85398056Y-73107128D01*
X85398061Y-73107128D01*
X85404513Y-73108500D01*
X85595487Y-73108500D01*
X85601939Y-73107128D01*
X85601944Y-73107128D01*
X85688887Y-73088647D01*
X85782288Y-73068794D01*
X85788319Y-73066109D01*
X85950722Y-72993803D01*
X85950724Y-72993802D01*
X85956752Y-72991118D01*
X86111253Y-72878866D01*
X86239040Y-72736944D01*
X86334527Y-72571556D01*
X86393542Y-72389928D01*
X86413504Y-72200000D01*
X86393542Y-72010072D01*
X86334527Y-71828444D01*
X86239040Y-71663056D01*
X86111253Y-71521134D01*
X85956752Y-71408882D01*
X85950724Y-71406198D01*
X85950722Y-71406197D01*
X85788319Y-71333891D01*
X85788318Y-71333891D01*
X85782288Y-71331206D01*
X85688887Y-71311353D01*
X85601944Y-71292872D01*
X85601939Y-71292872D01*
X85595487Y-71291500D01*
X85404513Y-71291500D01*
X85398061Y-71292872D01*
X85398056Y-71292872D01*
X85311113Y-71311353D01*
X85217712Y-71331206D01*
X85211682Y-71333891D01*
X85211681Y-71333891D01*
X85049278Y-71406197D01*
X85049276Y-71406198D01*
X85043248Y-71408882D01*
X84888747Y-71521134D01*
X84760960Y-71663056D01*
X84665473Y-71828444D01*
X84606458Y-72010072D01*
X84586496Y-72200000D01*
X62308500Y-72200000D01*
X62308500Y-71200000D01*
X65786496Y-71200000D01*
X65787186Y-71206565D01*
X65805129Y-71377279D01*
X65806458Y-71389928D01*
X65865473Y-71571556D01*
X65868776Y-71577278D01*
X65868777Y-71577279D01*
X65886803Y-71608500D01*
X65960960Y-71736944D01*
X65965378Y-71741851D01*
X65965379Y-71741852D01*
X66079678Y-71868794D01*
X66088747Y-71878866D01*
X66243248Y-71991118D01*
X66249276Y-71993802D01*
X66249278Y-71993803D01*
X66300560Y-72016635D01*
X66417712Y-72068794D01*
X66511113Y-72088647D01*
X66598056Y-72107128D01*
X66598061Y-72107128D01*
X66604513Y-72108500D01*
X66795487Y-72108500D01*
X66801939Y-72107128D01*
X66801944Y-72107128D01*
X66888887Y-72088647D01*
X66982288Y-72068794D01*
X67099440Y-72016635D01*
X67150722Y-71993803D01*
X67150724Y-71993802D01*
X67156752Y-71991118D01*
X67311253Y-71878866D01*
X67320322Y-71868794D01*
X67434621Y-71741852D01*
X67434622Y-71741851D01*
X67439040Y-71736944D01*
X67513197Y-71608500D01*
X67531223Y-71577279D01*
X67531224Y-71577278D01*
X67534527Y-71571556D01*
X67593542Y-71389928D01*
X67594872Y-71377279D01*
X67612814Y-71206565D01*
X67613504Y-71200000D01*
X67601181Y-71082749D01*
X67594232Y-71016635D01*
X67594232Y-71016633D01*
X67593542Y-71010072D01*
X67590269Y-71000000D01*
X68986496Y-71000000D01*
X68987186Y-71006565D01*
X69004637Y-71172598D01*
X69006458Y-71189928D01*
X69065473Y-71371556D01*
X69160960Y-71536944D01*
X69288747Y-71678866D01*
X69387843Y-71750864D01*
X69426385Y-71778866D01*
X69443248Y-71791118D01*
X69449276Y-71793802D01*
X69449278Y-71793803D01*
X69541200Y-71834729D01*
X69617712Y-71868794D01*
X69683365Y-71882749D01*
X69798056Y-71907128D01*
X69798061Y-71907128D01*
X69804513Y-71908500D01*
X69995487Y-71908500D01*
X70001939Y-71907128D01*
X70001944Y-71907128D01*
X70116635Y-71882749D01*
X70182288Y-71868794D01*
X70258800Y-71834729D01*
X70350722Y-71793803D01*
X70350724Y-71793802D01*
X70356752Y-71791118D01*
X70373616Y-71778866D01*
X70412157Y-71750864D01*
X70511253Y-71678866D01*
X70639040Y-71536944D01*
X70734527Y-71371556D01*
X70776671Y-71241852D01*
X70791500Y-71196213D01*
X70791500Y-71196212D01*
X70793475Y-71190133D01*
X70793477Y-71190130D01*
X70793542Y-71189928D01*
X70793579Y-71189940D01*
X70826077Y-71129745D01*
X70888227Y-71095423D01*
X70941794Y-71095169D01*
X70998049Y-71107127D01*
X70998058Y-71107128D01*
X71004513Y-71108500D01*
X71195487Y-71108500D01*
X71201939Y-71107128D01*
X71201944Y-71107128D01*
X71316635Y-71082749D01*
X71382288Y-71068794D01*
X71462097Y-71033261D01*
X71550722Y-70993803D01*
X71550724Y-70993802D01*
X71556752Y-70991118D01*
X71711253Y-70878866D01*
X71839040Y-70736944D01*
X71911716Y-70611066D01*
X71931223Y-70577279D01*
X71931224Y-70577278D01*
X71934527Y-70571556D01*
X71993542Y-70389928D01*
X72000282Y-70325806D01*
X72012814Y-70206565D01*
X72013504Y-70200000D01*
X72006129Y-70129834D01*
X71994232Y-70016635D01*
X71994232Y-70016633D01*
X71993542Y-70010072D01*
X71934527Y-69828444D01*
X71918105Y-69800000D01*
X86886496Y-69800000D01*
X86906458Y-69989928D01*
X86965473Y-70171556D01*
X87060960Y-70336944D01*
X87065378Y-70341851D01*
X87065379Y-70341852D01*
X87170092Y-70458148D01*
X87188747Y-70478866D01*
X87231698Y-70510072D01*
X87324263Y-70577325D01*
X87367617Y-70633548D01*
X87373692Y-70704284D01*
X87366585Y-70726518D01*
X87365473Y-70728444D01*
X87363433Y-70734724D01*
X87363432Y-70734725D01*
X87340990Y-70803794D01*
X87306458Y-70910072D01*
X87305768Y-70916633D01*
X87305768Y-70916635D01*
X87296316Y-71006565D01*
X87286496Y-71100000D01*
X87287186Y-71106565D01*
X87303955Y-71266109D01*
X87306458Y-71289928D01*
X87365473Y-71471556D01*
X87460960Y-71636944D01*
X87588747Y-71778866D01*
X87609306Y-71793803D01*
X87726385Y-71878866D01*
X87743248Y-71891118D01*
X87749276Y-71893802D01*
X87749278Y-71893803D01*
X87911681Y-71966109D01*
X87917712Y-71968794D01*
X88004479Y-71987237D01*
X88098056Y-72007128D01*
X88098061Y-72007128D01*
X88104513Y-72008500D01*
X88295487Y-72008500D01*
X88301939Y-72007128D01*
X88301944Y-72007128D01*
X88395521Y-71987237D01*
X88482288Y-71968794D01*
X88488319Y-71966109D01*
X88650722Y-71893803D01*
X88650724Y-71893802D01*
X88656752Y-71891118D01*
X88673616Y-71878866D01*
X88790694Y-71793803D01*
X88811253Y-71778866D01*
X88939040Y-71636944D01*
X89034527Y-71471556D01*
X89093542Y-71289928D01*
X89096046Y-71266109D01*
X89112814Y-71106565D01*
X89113504Y-71100000D01*
X89103684Y-71006565D01*
X89094232Y-70916635D01*
X89094232Y-70916633D01*
X89093542Y-70910072D01*
X89034527Y-70728444D01*
X89018105Y-70700000D01*
X89986496Y-70700000D01*
X90006458Y-70889928D01*
X90065473Y-71071556D01*
X90068776Y-71077278D01*
X90068777Y-71077279D01*
X90102686Y-71136010D01*
X90160960Y-71236944D01*
X90165378Y-71241851D01*
X90165379Y-71241852D01*
X90208667Y-71289928D01*
X90288747Y-71378866D01*
X90443248Y-71491118D01*
X90449276Y-71493802D01*
X90449278Y-71493803D01*
X90533332Y-71531226D01*
X90617712Y-71568794D01*
X90711112Y-71588647D01*
X90798056Y-71607128D01*
X90798061Y-71607128D01*
X90804513Y-71608500D01*
X90995487Y-71608500D01*
X91001939Y-71607128D01*
X91001944Y-71607128D01*
X91088888Y-71588647D01*
X91182288Y-71568794D01*
X91266668Y-71531226D01*
X91350722Y-71493803D01*
X91350724Y-71493802D01*
X91356752Y-71491118D01*
X91511253Y-71378866D01*
X91591333Y-71289928D01*
X91634621Y-71241852D01*
X91634622Y-71241851D01*
X91639040Y-71236944D01*
X91697314Y-71136010D01*
X91731223Y-71077279D01*
X91731224Y-71077278D01*
X91734527Y-71071556D01*
X91793542Y-70889928D01*
X91813504Y-70700000D01*
X91801245Y-70583365D01*
X91794232Y-70516635D01*
X91794232Y-70516633D01*
X91793542Y-70510072D01*
X91757777Y-70400000D01*
X94080246Y-70400000D01*
X94080936Y-70406565D01*
X94098879Y-70577279D01*
X94100208Y-70589928D01*
X94159223Y-70771556D01*
X94162526Y-70777278D01*
X94162527Y-70777279D01*
X94168552Y-70787715D01*
X94254710Y-70936944D01*
X94259128Y-70941851D01*
X94259129Y-70941852D01*
X94373428Y-71068794D01*
X94382497Y-71078866D01*
X94444298Y-71123767D01*
X94511508Y-71172598D01*
X94536998Y-71191118D01*
X94543026Y-71193802D01*
X94543028Y-71193803D01*
X94627082Y-71231226D01*
X94711462Y-71268794D01*
X94780013Y-71283365D01*
X94891806Y-71307128D01*
X94891811Y-71307128D01*
X94898263Y-71308500D01*
X95089237Y-71308500D01*
X95095689Y-71307128D01*
X95095694Y-71307128D01*
X95207487Y-71283365D01*
X95276038Y-71268794D01*
X95360418Y-71231226D01*
X95444472Y-71193803D01*
X95444474Y-71193802D01*
X95450502Y-71191118D01*
X95475993Y-71172598D01*
X95543202Y-71123767D01*
X95605003Y-71078866D01*
X95614072Y-71068794D01*
X95728371Y-70941852D01*
X95728372Y-70941851D01*
X95732790Y-70936944D01*
X95818948Y-70787715D01*
X95824973Y-70777279D01*
X95824974Y-70777278D01*
X95828277Y-70771556D01*
X95887292Y-70589928D01*
X95888622Y-70577279D01*
X95906564Y-70406565D01*
X95907254Y-70400000D01*
X95901358Y-70343898D01*
X95887982Y-70216635D01*
X95887982Y-70216633D01*
X95887292Y-70210072D01*
X95828277Y-70028444D01*
X95809665Y-69996206D01*
X95738089Y-69872234D01*
X95721351Y-69803239D01*
X95744571Y-69736147D01*
X95753560Y-69724938D01*
X95832790Y-69636944D01*
X95928277Y-69471556D01*
X95987292Y-69289928D01*
X95989516Y-69268774D01*
X96006564Y-69106565D01*
X96007254Y-69100000D01*
X95994931Y-68982749D01*
X95987982Y-68916635D01*
X95987982Y-68916633D01*
X95987292Y-68910072D01*
X95928277Y-68728444D01*
X95832790Y-68563056D01*
X95806907Y-68534310D01*
X95776189Y-68470303D01*
X95784954Y-68399849D01*
X95806907Y-68365690D01*
X95828371Y-68341852D01*
X95828372Y-68341851D01*
X95832790Y-68336944D01*
X95928277Y-68171556D01*
X95951527Y-68100000D01*
X97986496Y-68100000D01*
X97987186Y-68106565D01*
X98003955Y-68266109D01*
X98006458Y-68289928D01*
X98065473Y-68471556D01*
X98160960Y-68636944D01*
X98288747Y-68778866D01*
X98443248Y-68891118D01*
X98449276Y-68893802D01*
X98449278Y-68893803D01*
X98539318Y-68933891D01*
X98617712Y-68968794D01*
X98683365Y-68982749D01*
X98798056Y-69007128D01*
X98798061Y-69007128D01*
X98804513Y-69008500D01*
X98995487Y-69008500D01*
X99001939Y-69007128D01*
X99001944Y-69007128D01*
X99116635Y-68982749D01*
X99182288Y-68968794D01*
X99260682Y-68933891D01*
X99350722Y-68893803D01*
X99350724Y-68893802D01*
X99356752Y-68891118D01*
X99511253Y-68778866D01*
X99639040Y-68636944D01*
X99734527Y-68471556D01*
X99793542Y-68289928D01*
X99796046Y-68266109D01*
X99812814Y-68106565D01*
X99813504Y-68100000D01*
X99796882Y-67941852D01*
X99794232Y-67916635D01*
X99794232Y-67916633D01*
X99793542Y-67910072D01*
X99734527Y-67728444D01*
X99639040Y-67563056D01*
X99522740Y-67433891D01*
X99515675Y-67426045D01*
X99515674Y-67426044D01*
X99511253Y-67421134D01*
X99482165Y-67400000D01*
X100180246Y-67400000D01*
X100180936Y-67406565D01*
X100197985Y-67568774D01*
X100200208Y-67589928D01*
X100259223Y-67771556D01*
X100262526Y-67777278D01*
X100262527Y-67777279D01*
X100280553Y-67808500D01*
X100354710Y-67936944D01*
X100359128Y-67941851D01*
X100359129Y-67941852D01*
X100420018Y-68009476D01*
X100482497Y-68078866D01*
X100636998Y-68191118D01*
X100643026Y-68193802D01*
X100643028Y-68193803D01*
X100805431Y-68266109D01*
X100811462Y-68268794D01*
X100880013Y-68283365D01*
X100991806Y-68307128D01*
X100991811Y-68307128D01*
X100998263Y-68308500D01*
X101189237Y-68308500D01*
X101195689Y-68307128D01*
X101195694Y-68307128D01*
X101307487Y-68283365D01*
X101376038Y-68268794D01*
X101382069Y-68266109D01*
X101544472Y-68193803D01*
X101544474Y-68193802D01*
X101550502Y-68191118D01*
X101705003Y-68078866D01*
X101767482Y-68009476D01*
X101828371Y-67941852D01*
X101828372Y-67941851D01*
X101832790Y-67936944D01*
X101906947Y-67808500D01*
X101924973Y-67777279D01*
X101924974Y-67777278D01*
X101928277Y-67771556D01*
X101987292Y-67589928D01*
X101989516Y-67568774D01*
X102006564Y-67406565D01*
X102007254Y-67400000D01*
X101994356Y-67277279D01*
X101987982Y-67216635D01*
X101987982Y-67216633D01*
X101987292Y-67210072D01*
X101928277Y-67028444D01*
X101832790Y-66863056D01*
X101755843Y-66777597D01*
X101709425Y-66726045D01*
X101709424Y-66726044D01*
X101705003Y-66721134D01*
X101550502Y-66608882D01*
X101544474Y-66606198D01*
X101544472Y-66606197D01*
X101382069Y-66533891D01*
X101382068Y-66533891D01*
X101376038Y-66531206D01*
X101260112Y-66506565D01*
X101195694Y-66492872D01*
X101195689Y-66492872D01*
X101189237Y-66491500D01*
X100998263Y-66491500D01*
X100991811Y-66492872D01*
X100991806Y-66492872D01*
X100927388Y-66506565D01*
X100811462Y-66531206D01*
X100805432Y-66533891D01*
X100805431Y-66533891D01*
X100643028Y-66606197D01*
X100643026Y-66606198D01*
X100636998Y-66608882D01*
X100482497Y-66721134D01*
X100478076Y-66726044D01*
X100478075Y-66726045D01*
X100431658Y-66777597D01*
X100354710Y-66863056D01*
X100259223Y-67028444D01*
X100200208Y-67210072D01*
X100199518Y-67216633D01*
X100199518Y-67216635D01*
X100193144Y-67277279D01*
X100180246Y-67400000D01*
X99482165Y-67400000D01*
X99356752Y-67308882D01*
X99350724Y-67306198D01*
X99350722Y-67306197D01*
X99188319Y-67233891D01*
X99188318Y-67233891D01*
X99182288Y-67231206D01*
X99082861Y-67210072D01*
X99001944Y-67192872D01*
X99001939Y-67192872D01*
X98995487Y-67191500D01*
X98804513Y-67191500D01*
X98798061Y-67192872D01*
X98798056Y-67192872D01*
X98717139Y-67210072D01*
X98617712Y-67231206D01*
X98611682Y-67233891D01*
X98611681Y-67233891D01*
X98449278Y-67306197D01*
X98449276Y-67306198D01*
X98443248Y-67308882D01*
X98288747Y-67421134D01*
X98284326Y-67426044D01*
X98284325Y-67426045D01*
X98277261Y-67433891D01*
X98160960Y-67563056D01*
X98065473Y-67728444D01*
X98006458Y-67910072D01*
X98005768Y-67916633D01*
X98005768Y-67916635D01*
X98003118Y-67941852D01*
X97986496Y-68100000D01*
X95951527Y-68100000D01*
X95987292Y-67989928D01*
X95990867Y-67955920D01*
X96006564Y-67806565D01*
X96007254Y-67800000D01*
X95987292Y-67610072D01*
X95928277Y-67428444D01*
X95907740Y-67392872D01*
X95859248Y-67308882D01*
X95832790Y-67263056D01*
X95753570Y-67175074D01*
X95722855Y-67111069D01*
X95731618Y-67040616D01*
X95738089Y-67027766D01*
X95824973Y-66877279D01*
X95824974Y-66877278D01*
X95828277Y-66871556D01*
X95887292Y-66689928D01*
X95907254Y-66500000D01*
X95901521Y-66445449D01*
X95887982Y-66316635D01*
X95887982Y-66316633D01*
X95887292Y-66310072D01*
X95828277Y-66128444D01*
X95732790Y-65963056D01*
X95690993Y-65916635D01*
X95609425Y-65826045D01*
X95609424Y-65826044D01*
X95605003Y-65821134D01*
X95450502Y-65708882D01*
X95444474Y-65706198D01*
X95444472Y-65706197D01*
X95282069Y-65633891D01*
X95282068Y-65633891D01*
X95276038Y-65631206D01*
X95182638Y-65611353D01*
X95095694Y-65592872D01*
X95095689Y-65592872D01*
X95089237Y-65591500D01*
X94898263Y-65591500D01*
X94891811Y-65592872D01*
X94891806Y-65592872D01*
X94804862Y-65611353D01*
X94711462Y-65631206D01*
X94705432Y-65633891D01*
X94705431Y-65633891D01*
X94543028Y-65706197D01*
X94543026Y-65706198D01*
X94536998Y-65708882D01*
X94382497Y-65821134D01*
X94378076Y-65826044D01*
X94378075Y-65826045D01*
X94296508Y-65916635D01*
X94254710Y-65963056D01*
X94159223Y-66128444D01*
X94100208Y-66310072D01*
X94099518Y-66316633D01*
X94099518Y-66316635D01*
X94085979Y-66445449D01*
X94080246Y-66500000D01*
X94100208Y-66689928D01*
X94159223Y-66871556D01*
X94254710Y-67036944D01*
X94333930Y-67124926D01*
X94364645Y-67188931D01*
X94355882Y-67259384D01*
X94349411Y-67272234D01*
X94279761Y-67392872D01*
X94259223Y-67428444D01*
X94200208Y-67610072D01*
X94180246Y-67800000D01*
X94180936Y-67806565D01*
X94196634Y-67955920D01*
X94200208Y-67989928D01*
X94259223Y-68171556D01*
X94354710Y-68336944D01*
X94359128Y-68341851D01*
X94359129Y-68341852D01*
X94380593Y-68365690D01*
X94411311Y-68429697D01*
X94402546Y-68500151D01*
X94380593Y-68534310D01*
X94354710Y-68563056D01*
X94259223Y-68728444D01*
X94200208Y-68910072D01*
X94199518Y-68916633D01*
X94199518Y-68916635D01*
X94192569Y-68982749D01*
X94180246Y-69100000D01*
X94180936Y-69106565D01*
X94197985Y-69268774D01*
X94200208Y-69289928D01*
X94259223Y-69471556D01*
X94262526Y-69477278D01*
X94262527Y-69477279D01*
X94349411Y-69627766D01*
X94366149Y-69696761D01*
X94342929Y-69763853D01*
X94333940Y-69775062D01*
X94254710Y-69863056D01*
X94159223Y-70028444D01*
X94100208Y-70210072D01*
X94099518Y-70216633D01*
X94099518Y-70216635D01*
X94086142Y-70343898D01*
X94080246Y-70400000D01*
X91757777Y-70400000D01*
X91734527Y-70328444D01*
X91727171Y-70315702D01*
X91664160Y-70206565D01*
X91639040Y-70163056D01*
X91511253Y-70021134D01*
X91356752Y-69908882D01*
X91350724Y-69906198D01*
X91350722Y-69906197D01*
X91188319Y-69833891D01*
X91188318Y-69833891D01*
X91182288Y-69831206D01*
X91066362Y-69806565D01*
X91001944Y-69792872D01*
X91001939Y-69792872D01*
X90995487Y-69791500D01*
X90804513Y-69791500D01*
X90798061Y-69792872D01*
X90798056Y-69792872D01*
X90733638Y-69806565D01*
X90617712Y-69831206D01*
X90611682Y-69833891D01*
X90611681Y-69833891D01*
X90449278Y-69906197D01*
X90449276Y-69906198D01*
X90443248Y-69908882D01*
X90288747Y-70021134D01*
X90160960Y-70163056D01*
X90135840Y-70206565D01*
X90072830Y-70315702D01*
X90065473Y-70328444D01*
X90006458Y-70510072D01*
X90005768Y-70516633D01*
X90005768Y-70516635D01*
X89998755Y-70583365D01*
X89986496Y-70700000D01*
X89018105Y-70700000D01*
X88939040Y-70563056D01*
X88897243Y-70516635D01*
X88815675Y-70426045D01*
X88815674Y-70426044D01*
X88811253Y-70421134D01*
X88744038Y-70372299D01*
X88675737Y-70322675D01*
X88632383Y-70266452D01*
X88626308Y-70195716D01*
X88633415Y-70173482D01*
X88634527Y-70171556D01*
X88648084Y-70129834D01*
X88691502Y-69996206D01*
X88693542Y-69989928D01*
X88713504Y-69800000D01*
X88696882Y-69641847D01*
X88694232Y-69616635D01*
X88694232Y-69616633D01*
X88693542Y-69610072D01*
X88634527Y-69428444D01*
X88539040Y-69263056D01*
X88411253Y-69121134D01*
X88256752Y-69008882D01*
X88250724Y-69006198D01*
X88250722Y-69006197D01*
X88088319Y-68933891D01*
X88088318Y-68933891D01*
X88082288Y-68931206D01*
X87982861Y-68910072D01*
X87901944Y-68892872D01*
X87901939Y-68892872D01*
X87895487Y-68891500D01*
X87704513Y-68891500D01*
X87698061Y-68892872D01*
X87698056Y-68892872D01*
X87617139Y-68910072D01*
X87517712Y-68931206D01*
X87511682Y-68933891D01*
X87511681Y-68933891D01*
X87349278Y-69006197D01*
X87349276Y-69006198D01*
X87343248Y-69008882D01*
X87188747Y-69121134D01*
X87060960Y-69263056D01*
X86965473Y-69428444D01*
X86906458Y-69610072D01*
X86905768Y-69616633D01*
X86905768Y-69616635D01*
X86903118Y-69641847D01*
X86886496Y-69800000D01*
X71918105Y-69800000D01*
X71918080Y-69799956D01*
X71860395Y-69700044D01*
X71839040Y-69663056D01*
X71819944Y-69641847D01*
X71715675Y-69526045D01*
X71715674Y-69526044D01*
X71711253Y-69521134D01*
X71556752Y-69408882D01*
X71550724Y-69406198D01*
X71550722Y-69406197D01*
X71388319Y-69333891D01*
X71388318Y-69333891D01*
X71382288Y-69331206D01*
X71288887Y-69311353D01*
X71201944Y-69292872D01*
X71201939Y-69292872D01*
X71195487Y-69291500D01*
X71004513Y-69291500D01*
X70998061Y-69292872D01*
X70998056Y-69292872D01*
X70911113Y-69311353D01*
X70817712Y-69331206D01*
X70811682Y-69333891D01*
X70811681Y-69333891D01*
X70649278Y-69406197D01*
X70649276Y-69406198D01*
X70643248Y-69408882D01*
X70488747Y-69521134D01*
X70484326Y-69526044D01*
X70484325Y-69526045D01*
X70380057Y-69641847D01*
X70360960Y-69663056D01*
X70339605Y-69700044D01*
X70281921Y-69799956D01*
X70265473Y-69828444D01*
X70206525Y-70009867D01*
X70206523Y-70009870D01*
X70206458Y-70010072D01*
X70206421Y-70010060D01*
X70173923Y-70070255D01*
X70111773Y-70104577D01*
X70058206Y-70104831D01*
X70001951Y-70092873D01*
X70001942Y-70092872D01*
X69995487Y-70091500D01*
X69804513Y-70091500D01*
X69798061Y-70092872D01*
X69798056Y-70092872D01*
X69711112Y-70111353D01*
X69617712Y-70131206D01*
X69611682Y-70133891D01*
X69611681Y-70133891D01*
X69449278Y-70206197D01*
X69449276Y-70206198D01*
X69443248Y-70208882D01*
X69288747Y-70321134D01*
X69284326Y-70326044D01*
X69284325Y-70326045D01*
X69174869Y-70447609D01*
X69160960Y-70463056D01*
X69065473Y-70628444D01*
X69006458Y-70810072D01*
X69005768Y-70816633D01*
X69005768Y-70816635D01*
X68987837Y-70987237D01*
X68986496Y-71000000D01*
X67590269Y-71000000D01*
X67534527Y-70828444D01*
X67439040Y-70663056D01*
X67392695Y-70611584D01*
X67315675Y-70526045D01*
X67315674Y-70526044D01*
X67311253Y-70521134D01*
X67180375Y-70426045D01*
X67162094Y-70412763D01*
X67162093Y-70412762D01*
X67156752Y-70408882D01*
X67150724Y-70406198D01*
X67150722Y-70406197D01*
X66988319Y-70333891D01*
X66988318Y-70333891D01*
X66982288Y-70331206D01*
X66888887Y-70311353D01*
X66801944Y-70292872D01*
X66801939Y-70292872D01*
X66795487Y-70291500D01*
X66604513Y-70291500D01*
X66598061Y-70292872D01*
X66598056Y-70292872D01*
X66511113Y-70311353D01*
X66417712Y-70331206D01*
X66411682Y-70333891D01*
X66411681Y-70333891D01*
X66249278Y-70406197D01*
X66249276Y-70406198D01*
X66243248Y-70408882D01*
X66237907Y-70412762D01*
X66237906Y-70412763D01*
X66219625Y-70426045D01*
X66088747Y-70521134D01*
X66084326Y-70526044D01*
X66084325Y-70526045D01*
X66007306Y-70611584D01*
X65960960Y-70663056D01*
X65865473Y-70828444D01*
X65806458Y-71010072D01*
X65805768Y-71016633D01*
X65805768Y-71016635D01*
X65798819Y-71082749D01*
X65786496Y-71200000D01*
X62308500Y-71200000D01*
X62308500Y-68300000D01*
X76086496Y-68300000D01*
X76087186Y-68306565D01*
X76105129Y-68477279D01*
X76106458Y-68489928D01*
X76165473Y-68671556D01*
X76168776Y-68677278D01*
X76168777Y-68677279D01*
X76180968Y-68698394D01*
X76260960Y-68836944D01*
X76265378Y-68841851D01*
X76265379Y-68841852D01*
X76379678Y-68968794D01*
X76388747Y-68978866D01*
X76543248Y-69091118D01*
X76549276Y-69093802D01*
X76549278Y-69093803D01*
X76711681Y-69166109D01*
X76717712Y-69168794D01*
X76811112Y-69188647D01*
X76898056Y-69207128D01*
X76898061Y-69207128D01*
X76904513Y-69208500D01*
X77095487Y-69208500D01*
X77101939Y-69207128D01*
X77101944Y-69207128D01*
X77188888Y-69188647D01*
X77282288Y-69168794D01*
X77288319Y-69166109D01*
X77450722Y-69093803D01*
X77450724Y-69093802D01*
X77456752Y-69091118D01*
X77611253Y-68978866D01*
X77620322Y-68968794D01*
X77734621Y-68841852D01*
X77734622Y-68841851D01*
X77739040Y-68836944D01*
X77819032Y-68698394D01*
X77831223Y-68677279D01*
X77831224Y-68677278D01*
X77834527Y-68671556D01*
X77893542Y-68489928D01*
X77894872Y-68477279D01*
X77912814Y-68306565D01*
X77913504Y-68300000D01*
X77893542Y-68110072D01*
X77834527Y-67928444D01*
X77739040Y-67763056D01*
X77676685Y-67693803D01*
X77615675Y-67626045D01*
X77615674Y-67626044D01*
X77611253Y-67621134D01*
X77456752Y-67508882D01*
X77450724Y-67506198D01*
X77450722Y-67506197D01*
X77288319Y-67433891D01*
X77288318Y-67433891D01*
X77282288Y-67431206D01*
X77166362Y-67406565D01*
X77101944Y-67392872D01*
X77101939Y-67392872D01*
X77095487Y-67391500D01*
X76904513Y-67391500D01*
X76898061Y-67392872D01*
X76898056Y-67392872D01*
X76833638Y-67406565D01*
X76717712Y-67431206D01*
X76711682Y-67433891D01*
X76711681Y-67433891D01*
X76549278Y-67506197D01*
X76549276Y-67506198D01*
X76543248Y-67508882D01*
X76388747Y-67621134D01*
X76384326Y-67626044D01*
X76384325Y-67626045D01*
X76323316Y-67693803D01*
X76260960Y-67763056D01*
X76165473Y-67928444D01*
X76106458Y-68110072D01*
X76086496Y-68300000D01*
X62308500Y-68300000D01*
X62308500Y-66900000D01*
X63486496Y-66900000D01*
X63487186Y-66906565D01*
X63501405Y-67041847D01*
X63506458Y-67089928D01*
X63565473Y-67271556D01*
X63568776Y-67277278D01*
X63568777Y-67277279D01*
X63574514Y-67287216D01*
X63660960Y-67436944D01*
X63665378Y-67441851D01*
X63665379Y-67441852D01*
X63725733Y-67508882D01*
X63788747Y-67578866D01*
X63943248Y-67691118D01*
X63949276Y-67693802D01*
X63949278Y-67693803D01*
X64104824Y-67763056D01*
X64117712Y-67768794D01*
X64211113Y-67788647D01*
X64298056Y-67807128D01*
X64298061Y-67807128D01*
X64304513Y-67808500D01*
X64495487Y-67808500D01*
X64501939Y-67807128D01*
X64501944Y-67807128D01*
X64588887Y-67788647D01*
X64682288Y-67768794D01*
X64695176Y-67763056D01*
X64850722Y-67693803D01*
X64850724Y-67693802D01*
X64856752Y-67691118D01*
X65011253Y-67578866D01*
X65074267Y-67508882D01*
X65134621Y-67441852D01*
X65134622Y-67441851D01*
X65139040Y-67436944D01*
X65225486Y-67287216D01*
X65231223Y-67277279D01*
X65231224Y-67277278D01*
X65234527Y-67271556D01*
X65293542Y-67089928D01*
X65298596Y-67041847D01*
X65312814Y-66906565D01*
X65313504Y-66900000D01*
X65301158Y-66782531D01*
X65294232Y-66716635D01*
X65294232Y-66716633D01*
X65293542Y-66710072D01*
X65234527Y-66528444D01*
X65213990Y-66492872D01*
X65142341Y-66368774D01*
X65139040Y-66363056D01*
X65097243Y-66316635D01*
X65015675Y-66226045D01*
X65015674Y-66226044D01*
X65011253Y-66221134D01*
X64856752Y-66108882D01*
X64850724Y-66106198D01*
X64850722Y-66106197D01*
X64836803Y-66100000D01*
X76886496Y-66100000D01*
X76887186Y-66106565D01*
X76904510Y-66271390D01*
X76906458Y-66289928D01*
X76965473Y-66471556D01*
X77060960Y-66636944D01*
X77065378Y-66641851D01*
X77065379Y-66641852D01*
X77108667Y-66689928D01*
X77188747Y-66778866D01*
X77343248Y-66891118D01*
X77349276Y-66893802D01*
X77349278Y-66893803D01*
X77511681Y-66966109D01*
X77517712Y-66968794D01*
X77611113Y-66988647D01*
X77698056Y-67007128D01*
X77698061Y-67007128D01*
X77704513Y-67008500D01*
X77895487Y-67008500D01*
X77901939Y-67007128D01*
X77901944Y-67007128D01*
X77988887Y-66988647D01*
X78082288Y-66968794D01*
X78088319Y-66966109D01*
X78250722Y-66893803D01*
X78250724Y-66893802D01*
X78256752Y-66891118D01*
X78411253Y-66778866D01*
X78491333Y-66689928D01*
X78534621Y-66641852D01*
X78534622Y-66641851D01*
X78539040Y-66636944D01*
X78634527Y-66471556D01*
X78693542Y-66289928D01*
X78695491Y-66271390D01*
X78712814Y-66106565D01*
X78713504Y-66100000D01*
X78693542Y-65910072D01*
X78634527Y-65728444D01*
X78539040Y-65563056D01*
X78426031Y-65437546D01*
X78415675Y-65426045D01*
X78415674Y-65426044D01*
X78411253Y-65421134D01*
X78256752Y-65308882D01*
X78250724Y-65306198D01*
X78250722Y-65306197D01*
X78088319Y-65233891D01*
X78088318Y-65233891D01*
X78082288Y-65231206D01*
X77988887Y-65211353D01*
X77901944Y-65192872D01*
X77901939Y-65192872D01*
X77895487Y-65191500D01*
X77704513Y-65191500D01*
X77698061Y-65192872D01*
X77698056Y-65192872D01*
X77611113Y-65211353D01*
X77517712Y-65231206D01*
X77511682Y-65233891D01*
X77511681Y-65233891D01*
X77349278Y-65306197D01*
X77349276Y-65306198D01*
X77343248Y-65308882D01*
X77188747Y-65421134D01*
X77184326Y-65426044D01*
X77184325Y-65426045D01*
X77173970Y-65437546D01*
X77060960Y-65563056D01*
X76965473Y-65728444D01*
X76906458Y-65910072D01*
X76886496Y-66100000D01*
X64836803Y-66100000D01*
X64688319Y-66033891D01*
X64688318Y-66033891D01*
X64682288Y-66031206D01*
X64588888Y-66011353D01*
X64501944Y-65992872D01*
X64501939Y-65992872D01*
X64495487Y-65991500D01*
X64304513Y-65991500D01*
X64298061Y-65992872D01*
X64298056Y-65992872D01*
X64211112Y-66011353D01*
X64117712Y-66031206D01*
X64111682Y-66033891D01*
X64111681Y-66033891D01*
X63949278Y-66106197D01*
X63949276Y-66106198D01*
X63943248Y-66108882D01*
X63788747Y-66221134D01*
X63784326Y-66226044D01*
X63784325Y-66226045D01*
X63702758Y-66316635D01*
X63660960Y-66363056D01*
X63657659Y-66368774D01*
X63586011Y-66492872D01*
X63565473Y-66528444D01*
X63506458Y-66710072D01*
X63505768Y-66716633D01*
X63505768Y-66716635D01*
X63498842Y-66782531D01*
X63486496Y-66900000D01*
X62308500Y-66900000D01*
X62308500Y-64201178D01*
X62328502Y-64133057D01*
X62382158Y-64086564D01*
X62452432Y-64076460D01*
X62460697Y-64077931D01*
X62598056Y-64107128D01*
X62598061Y-64107128D01*
X62604513Y-64108500D01*
X62795487Y-64108500D01*
X62801939Y-64107128D01*
X62801944Y-64107128D01*
X62898687Y-64086564D01*
X62982288Y-64068794D01*
X63091500Y-64020170D01*
X63150722Y-63993803D01*
X63150724Y-63993802D01*
X63156752Y-63991118D01*
X63311253Y-63878866D01*
X63439040Y-63736944D01*
X63534527Y-63571556D01*
X63593542Y-63389928D01*
X63603393Y-63296206D01*
X63612814Y-63206565D01*
X63613504Y-63200000D01*
X63593644Y-63011043D01*
X63606416Y-62941205D01*
X63654918Y-62889358D01*
X63723751Y-62871964D01*
X63745147Y-62874625D01*
X63804479Y-62887237D01*
X63898056Y-62907128D01*
X63898061Y-62907128D01*
X63904513Y-62908500D01*
X64095487Y-62908500D01*
X64101939Y-62907128D01*
X64101944Y-62907128D01*
X64195521Y-62887237D01*
X64282288Y-62868794D01*
X64288319Y-62866109D01*
X64450722Y-62793803D01*
X64450724Y-62793802D01*
X64456752Y-62791118D01*
X64473616Y-62778866D01*
X64550892Y-62722721D01*
X64611253Y-62678866D01*
X64739040Y-62536944D01*
X64834527Y-62371556D01*
X64893542Y-62189928D01*
X64900773Y-62121134D01*
X64902994Y-62100000D01*
X84586496Y-62100000D01*
X84587186Y-62106565D01*
X84604235Y-62268774D01*
X84606458Y-62289928D01*
X84665473Y-62471556D01*
X84760960Y-62636944D01*
X84888747Y-62778866D01*
X85043248Y-62891118D01*
X85049276Y-62893802D01*
X85049278Y-62893803D01*
X85161794Y-62943898D01*
X85217712Y-62968794D01*
X85286263Y-62983365D01*
X85398056Y-63007128D01*
X85398061Y-63007128D01*
X85404513Y-63008500D01*
X85595487Y-63008500D01*
X85601939Y-63007128D01*
X85601944Y-63007128D01*
X85713737Y-62983365D01*
X85782288Y-62968794D01*
X85838206Y-62943898D01*
X85950722Y-62893803D01*
X85950724Y-62893802D01*
X85956752Y-62891118D01*
X86000309Y-62859472D01*
X86067174Y-62835615D01*
X86136326Y-62851695D01*
X86185806Y-62902608D01*
X86199678Y-62974579D01*
X86186496Y-63100000D01*
X86187186Y-63106565D01*
X86203314Y-63260011D01*
X86206458Y-63289928D01*
X86265473Y-63471556D01*
X86360960Y-63636944D01*
X86365378Y-63641851D01*
X86365379Y-63641852D01*
X86482335Y-63771745D01*
X86488747Y-63778866D01*
X86587843Y-63850864D01*
X86626385Y-63878866D01*
X86643248Y-63891118D01*
X86649276Y-63893802D01*
X86649278Y-63893803D01*
X86811681Y-63966109D01*
X86817712Y-63968794D01*
X86904479Y-63987237D01*
X86998056Y-64007128D01*
X86998061Y-64007128D01*
X87004513Y-64008500D01*
X87195487Y-64008500D01*
X87201939Y-64007128D01*
X87201944Y-64007128D01*
X87295521Y-63987237D01*
X87382288Y-63968794D01*
X87388319Y-63966109D01*
X87550722Y-63893803D01*
X87550724Y-63893802D01*
X87556752Y-63891118D01*
X87573616Y-63878866D01*
X87612157Y-63850864D01*
X87711253Y-63778866D01*
X87717665Y-63771745D01*
X87834621Y-63641852D01*
X87834622Y-63641851D01*
X87839040Y-63636944D01*
X87934527Y-63471556D01*
X87993542Y-63289928D01*
X87996687Y-63260011D01*
X88012814Y-63106565D01*
X88013504Y-63100000D01*
X88007998Y-63047609D01*
X87994232Y-62916635D01*
X87994232Y-62916633D01*
X87993542Y-62910072D01*
X87957777Y-62800000D01*
X95886496Y-62800000D01*
X95887186Y-62806565D01*
X95903955Y-62966109D01*
X95906458Y-62989928D01*
X95965473Y-63171556D01*
X95968776Y-63177278D01*
X95968777Y-63177279D01*
X95988284Y-63211066D01*
X96060960Y-63336944D01*
X96065378Y-63341851D01*
X96065379Y-63341852D01*
X96106674Y-63387715D01*
X96188747Y-63478866D01*
X96343248Y-63591118D01*
X96349276Y-63593802D01*
X96349278Y-63593803D01*
X96433332Y-63631226D01*
X96517712Y-63668794D01*
X96611113Y-63688647D01*
X96698056Y-63707128D01*
X96698061Y-63707128D01*
X96704513Y-63708500D01*
X96895487Y-63708500D01*
X96901939Y-63707128D01*
X96901944Y-63707128D01*
X96988887Y-63688647D01*
X97082288Y-63668794D01*
X97166668Y-63631226D01*
X97250722Y-63593803D01*
X97250724Y-63593802D01*
X97256752Y-63591118D01*
X97411253Y-63478866D01*
X97493326Y-63387715D01*
X97534621Y-63341852D01*
X97534622Y-63341851D01*
X97539040Y-63336944D01*
X97611716Y-63211066D01*
X97631223Y-63177279D01*
X97631224Y-63177278D01*
X97634527Y-63171556D01*
X97693542Y-62989928D01*
X97696046Y-62966109D01*
X97712814Y-62806565D01*
X97713504Y-62800000D01*
X97701181Y-62682749D01*
X97694232Y-62616635D01*
X97694232Y-62616633D01*
X97693542Y-62610072D01*
X97634527Y-62428444D01*
X97539040Y-62263056D01*
X97411253Y-62121134D01*
X97256752Y-62008882D01*
X97250724Y-62006198D01*
X97250722Y-62006197D01*
X97088319Y-61933891D01*
X97088318Y-61933891D01*
X97082288Y-61931206D01*
X96982861Y-61910072D01*
X96901944Y-61892872D01*
X96901939Y-61892872D01*
X96895487Y-61891500D01*
X96704513Y-61891500D01*
X96698061Y-61892872D01*
X96698056Y-61892872D01*
X96617139Y-61910072D01*
X96517712Y-61931206D01*
X96511682Y-61933891D01*
X96511681Y-61933891D01*
X96349278Y-62006197D01*
X96349276Y-62006198D01*
X96343248Y-62008882D01*
X96188747Y-62121134D01*
X96060960Y-62263056D01*
X95965473Y-62428444D01*
X95906458Y-62610072D01*
X95905768Y-62616633D01*
X95905768Y-62616635D01*
X95898819Y-62682749D01*
X95886496Y-62800000D01*
X87957777Y-62800000D01*
X87934527Y-62728444D01*
X87839040Y-62563056D01*
X87711253Y-62421134D01*
X87556752Y-62308882D01*
X87550724Y-62306198D01*
X87550722Y-62306197D01*
X87384269Y-62232088D01*
X87330173Y-62186108D01*
X87309524Y-62118181D01*
X87328876Y-62049873D01*
X87361457Y-62015045D01*
X87405909Y-61982749D01*
X87405911Y-61982747D01*
X87411253Y-61978866D01*
X87539040Y-61836944D01*
X87634527Y-61671556D01*
X87692616Y-61492778D01*
X87732690Y-61434173D01*
X87798087Y-61406536D01*
X87868043Y-61418643D01*
X87921568Y-61468715D01*
X87960960Y-61536944D01*
X88088747Y-61678866D01*
X88243248Y-61791118D01*
X88249276Y-61793802D01*
X88249278Y-61793803D01*
X88300560Y-61816635D01*
X88417712Y-61868794D01*
X88511112Y-61888647D01*
X88598056Y-61907128D01*
X88598061Y-61907128D01*
X88604513Y-61908500D01*
X88795487Y-61908500D01*
X88801939Y-61907128D01*
X88801944Y-61907128D01*
X88888888Y-61888647D01*
X88982288Y-61868794D01*
X89099440Y-61816635D01*
X89150722Y-61793803D01*
X89150724Y-61793802D01*
X89156752Y-61791118D01*
X89311253Y-61678866D01*
X89439040Y-61536944D01*
X89534527Y-61371556D01*
X89593542Y-61189928D01*
X89599881Y-61129621D01*
X89612814Y-61006565D01*
X89613504Y-61000000D01*
X89599402Y-60865827D01*
X89594232Y-60816635D01*
X89594232Y-60816633D01*
X89593542Y-60810072D01*
X89534527Y-60628444D01*
X89528653Y-60618269D01*
X89464763Y-60507609D01*
X89439040Y-60463056D01*
X89344383Y-60357928D01*
X89315675Y-60326045D01*
X89315674Y-60326044D01*
X89311253Y-60321134D01*
X89186182Y-60230264D01*
X89162094Y-60212763D01*
X89162093Y-60212762D01*
X89156752Y-60208882D01*
X89150724Y-60206198D01*
X89150722Y-60206197D01*
X88988319Y-60133891D01*
X88988318Y-60133891D01*
X88982288Y-60131206D01*
X88888888Y-60111353D01*
X88801944Y-60092872D01*
X88801939Y-60092872D01*
X88795487Y-60091500D01*
X88604513Y-60091500D01*
X88598061Y-60092872D01*
X88598056Y-60092872D01*
X88511112Y-60111353D01*
X88417712Y-60131206D01*
X88411682Y-60133891D01*
X88411681Y-60133891D01*
X88249278Y-60206197D01*
X88249276Y-60206198D01*
X88243248Y-60208882D01*
X88237907Y-60212762D01*
X88237906Y-60212763D01*
X88213818Y-60230264D01*
X88088747Y-60321134D01*
X88084326Y-60326044D01*
X88084325Y-60326045D01*
X88055618Y-60357928D01*
X87960960Y-60463056D01*
X87935237Y-60507609D01*
X87871348Y-60618269D01*
X87865473Y-60628444D01*
X87841781Y-60701360D01*
X87807384Y-60807222D01*
X87767310Y-60865827D01*
X87701913Y-60893464D01*
X87631957Y-60881357D01*
X87578432Y-60831285D01*
X87542341Y-60768774D01*
X87539040Y-60763056D01*
X87471640Y-60688200D01*
X87415675Y-60626045D01*
X87415674Y-60626044D01*
X87411253Y-60621134D01*
X87256752Y-60508882D01*
X87250724Y-60506198D01*
X87250722Y-60506197D01*
X87088319Y-60433891D01*
X87088318Y-60433891D01*
X87082288Y-60431206D01*
X86988887Y-60411353D01*
X86901944Y-60392872D01*
X86901939Y-60392872D01*
X86895487Y-60391500D01*
X86704513Y-60391500D01*
X86698061Y-60392872D01*
X86698056Y-60392872D01*
X86611113Y-60411353D01*
X86517712Y-60431206D01*
X86511682Y-60433891D01*
X86511681Y-60433891D01*
X86349278Y-60506197D01*
X86349276Y-60506198D01*
X86343248Y-60508882D01*
X86188747Y-60621134D01*
X86184326Y-60626044D01*
X86184325Y-60626045D01*
X86128361Y-60688200D01*
X86060960Y-60763056D01*
X85965473Y-60928444D01*
X85906458Y-61110072D01*
X85905768Y-61116636D01*
X85904394Y-61123100D01*
X85902807Y-61122763D01*
X85878912Y-61180854D01*
X85820693Y-61221488D01*
X85754413Y-61225281D01*
X85695521Y-61212763D01*
X85601944Y-61192872D01*
X85601939Y-61192872D01*
X85595487Y-61191500D01*
X85404513Y-61191500D01*
X85398061Y-61192872D01*
X85398056Y-61192872D01*
X85311113Y-61211353D01*
X85217712Y-61231206D01*
X85211682Y-61233891D01*
X85211681Y-61233891D01*
X85049278Y-61306197D01*
X85049276Y-61306198D01*
X85043248Y-61308882D01*
X85037907Y-61312762D01*
X85037906Y-61312763D01*
X85019625Y-61326045D01*
X84888747Y-61421134D01*
X84884326Y-61426044D01*
X84884325Y-61426045D01*
X84824239Y-61492778D01*
X84760960Y-61563056D01*
X84665473Y-61728444D01*
X84606458Y-61910072D01*
X84605768Y-61916633D01*
X84605768Y-61916635D01*
X84598819Y-61982749D01*
X84586496Y-62100000D01*
X64902994Y-62100000D01*
X64912814Y-62006565D01*
X64913504Y-62000000D01*
X64903743Y-61907128D01*
X64894232Y-61816635D01*
X64894232Y-61816633D01*
X64893542Y-61810072D01*
X64834527Y-61628444D01*
X64739040Y-61463056D01*
X64699051Y-61418643D01*
X64615675Y-61326045D01*
X64615674Y-61326044D01*
X64611253Y-61321134D01*
X64456752Y-61208882D01*
X64450724Y-61206198D01*
X64450722Y-61206197D01*
X64288319Y-61133891D01*
X64288318Y-61133891D01*
X64282288Y-61131206D01*
X64182861Y-61110072D01*
X64101944Y-61092872D01*
X64101939Y-61092872D01*
X64095487Y-61091500D01*
X63904513Y-61091500D01*
X63898061Y-61092872D01*
X63898056Y-61092872D01*
X63817139Y-61110072D01*
X63717712Y-61131206D01*
X63711682Y-61133891D01*
X63711681Y-61133891D01*
X63549278Y-61206197D01*
X63549276Y-61206198D01*
X63543248Y-61208882D01*
X63388747Y-61321134D01*
X63384326Y-61326044D01*
X63384325Y-61326045D01*
X63300950Y-61418643D01*
X63260960Y-61463056D01*
X63165473Y-61628444D01*
X63106458Y-61810072D01*
X63105768Y-61816633D01*
X63105768Y-61816635D01*
X63096257Y-61907128D01*
X63086496Y-62000000D01*
X63087186Y-62006565D01*
X63106356Y-62188957D01*
X63093584Y-62258795D01*
X63045082Y-62310642D01*
X62976249Y-62328036D01*
X62954853Y-62325375D01*
X62885543Y-62310642D01*
X62801944Y-62292872D01*
X62801939Y-62292872D01*
X62795487Y-62291500D01*
X62604513Y-62291500D01*
X62598061Y-62292872D01*
X62598056Y-62292872D01*
X62460697Y-62322069D01*
X62389906Y-62316667D01*
X62333274Y-62273850D01*
X62308780Y-62207212D01*
X62308500Y-62198822D01*
X62308500Y-57276207D01*
X62328502Y-57208086D01*
X62382158Y-57161593D01*
X62452432Y-57151489D01*
X62517012Y-57180983D01*
X62554332Y-57237269D01*
X62565473Y-57271556D01*
X62660960Y-57436944D01*
X62788747Y-57578866D01*
X62943248Y-57691118D01*
X62949276Y-57693802D01*
X62949278Y-57693803D01*
X63111681Y-57766109D01*
X63117712Y-57768794D01*
X63211112Y-57788647D01*
X63298056Y-57807128D01*
X63298061Y-57807128D01*
X63304513Y-57808500D01*
X63495487Y-57808500D01*
X63501939Y-57807128D01*
X63501944Y-57807128D01*
X63588888Y-57788647D01*
X63682288Y-57768794D01*
X63688319Y-57766109D01*
X63850722Y-57693803D01*
X63850724Y-57693802D01*
X63856752Y-57691118D01*
X64011253Y-57578866D01*
X64139040Y-57436944D01*
X64234527Y-57271556D01*
X64293542Y-57089928D01*
X64296046Y-57066109D01*
X64312814Y-56906565D01*
X64313504Y-56900000D01*
X64309854Y-56865271D01*
X64302994Y-56800000D01*
X68286496Y-56800000D01*
X68287186Y-56806565D01*
X68305706Y-56982769D01*
X68306458Y-56989928D01*
X68365473Y-57171556D01*
X68368776Y-57177278D01*
X68368777Y-57177279D01*
X68400990Y-57233073D01*
X68460960Y-57336944D01*
X68588747Y-57478866D01*
X68687843Y-57550864D01*
X68726385Y-57578866D01*
X68743248Y-57591118D01*
X68749276Y-57593802D01*
X68749278Y-57593803D01*
X68911681Y-57666109D01*
X68917712Y-57668794D01*
X69004479Y-57687237D01*
X69098056Y-57707128D01*
X69098061Y-57707128D01*
X69104513Y-57708500D01*
X69295487Y-57708500D01*
X69301939Y-57707128D01*
X69301944Y-57707128D01*
X69395521Y-57687237D01*
X69482288Y-57668794D01*
X69488319Y-57666109D01*
X69650722Y-57593803D01*
X69650724Y-57593802D01*
X69656752Y-57591118D01*
X69673616Y-57578866D01*
X69712157Y-57550864D01*
X69811253Y-57478866D01*
X69939040Y-57336944D01*
X69999010Y-57233073D01*
X70031223Y-57177279D01*
X70031224Y-57177278D01*
X70034527Y-57171556D01*
X70093542Y-56989928D01*
X70094295Y-56982769D01*
X70112814Y-56806565D01*
X70113504Y-56800000D01*
X70110767Y-56773955D01*
X70094232Y-56616635D01*
X70094232Y-56616633D01*
X70093542Y-56610072D01*
X70034527Y-56428444D01*
X69939040Y-56263056D01*
X69811253Y-56121134D01*
X69782165Y-56100000D01*
X71786496Y-56100000D01*
X71787186Y-56106565D01*
X71804235Y-56268774D01*
X71806458Y-56289928D01*
X71865473Y-56471556D01*
X71960960Y-56636944D01*
X71965378Y-56641851D01*
X71965379Y-56641852D01*
X72008667Y-56689928D01*
X72088747Y-56778866D01*
X72187843Y-56850864D01*
X72226385Y-56878866D01*
X72243248Y-56891118D01*
X72249276Y-56893802D01*
X72249278Y-56893803D01*
X72409386Y-56965087D01*
X72417712Y-56968794D01*
X72486263Y-56983365D01*
X72598056Y-57007128D01*
X72598061Y-57007128D01*
X72604513Y-57008500D01*
X72795487Y-57008500D01*
X72801939Y-57007128D01*
X72801944Y-57007128D01*
X72913737Y-56983365D01*
X72982288Y-56968794D01*
X72990614Y-56965087D01*
X73150722Y-56893803D01*
X73150724Y-56893802D01*
X73156752Y-56891118D01*
X73173616Y-56878866D01*
X73212157Y-56850864D01*
X73311253Y-56778866D01*
X73391333Y-56689928D01*
X73434621Y-56641852D01*
X73434622Y-56641851D01*
X73439040Y-56636944D01*
X73534527Y-56471556D01*
X73590269Y-56300000D01*
X75786496Y-56300000D01*
X75787186Y-56306565D01*
X75805129Y-56477279D01*
X75806458Y-56489928D01*
X75865473Y-56671556D01*
X75960960Y-56836944D01*
X75965378Y-56841851D01*
X75965379Y-56841852D01*
X76079678Y-56968794D01*
X76088747Y-56978866D01*
X76243248Y-57091118D01*
X76249276Y-57093802D01*
X76249278Y-57093803D01*
X76378844Y-57151489D01*
X76417712Y-57168794D01*
X76483365Y-57182749D01*
X76598056Y-57207128D01*
X76598061Y-57207128D01*
X76604513Y-57208500D01*
X76795487Y-57208500D01*
X76801939Y-57207128D01*
X76801944Y-57207128D01*
X76916635Y-57182749D01*
X76982288Y-57168794D01*
X77021156Y-57151489D01*
X77150722Y-57093803D01*
X77150724Y-57093802D01*
X77156752Y-57091118D01*
X77311253Y-56978866D01*
X77320322Y-56968794D01*
X77326929Y-56961457D01*
X77387375Y-56924218D01*
X77458359Y-56925571D01*
X77517343Y-56965087D01*
X77529682Y-56982769D01*
X77560960Y-57036944D01*
X77565378Y-57041851D01*
X77565379Y-57041852D01*
X77679678Y-57168794D01*
X77688747Y-57178866D01*
X77843248Y-57291118D01*
X77849276Y-57293802D01*
X77849278Y-57293803D01*
X77933332Y-57331226D01*
X78017712Y-57368794D01*
X78111112Y-57388647D01*
X78198056Y-57407128D01*
X78198061Y-57407128D01*
X78204513Y-57408500D01*
X78395487Y-57408500D01*
X78401939Y-57407128D01*
X78401944Y-57407128D01*
X78488888Y-57388647D01*
X78582288Y-57368794D01*
X78666668Y-57331226D01*
X78750722Y-57293803D01*
X78750724Y-57293802D01*
X78756752Y-57291118D01*
X78775800Y-57277279D01*
X78825939Y-57240851D01*
X78892807Y-57216992D01*
X78961959Y-57233073D01*
X78974061Y-57240851D01*
X79024200Y-57277279D01*
X79043248Y-57291118D01*
X79049276Y-57293802D01*
X79049278Y-57293803D01*
X79133332Y-57331226D01*
X79217712Y-57368794D01*
X79311112Y-57388647D01*
X79398056Y-57407128D01*
X79398061Y-57407128D01*
X79404513Y-57408500D01*
X79595487Y-57408500D01*
X79601939Y-57407128D01*
X79601944Y-57407128D01*
X79688888Y-57388647D01*
X79782288Y-57368794D01*
X79866668Y-57331226D01*
X79950722Y-57293803D01*
X79950724Y-57293802D01*
X79956752Y-57291118D01*
X80111253Y-57178866D01*
X80120322Y-57168794D01*
X80234621Y-57041852D01*
X80234622Y-57041851D01*
X80239040Y-57036944D01*
X80334527Y-56871556D01*
X80393542Y-56689928D01*
X80394872Y-56677279D01*
X80412814Y-56506565D01*
X80413504Y-56500000D01*
X80393542Y-56310072D01*
X80357777Y-56200000D01*
X88886496Y-56200000D01*
X88887186Y-56206565D01*
X88904235Y-56368774D01*
X88906458Y-56389928D01*
X88965473Y-56571556D01*
X89060960Y-56736944D01*
X89188747Y-56878866D01*
X89253031Y-56925571D01*
X89331757Y-56982769D01*
X89343248Y-56991118D01*
X89349276Y-56993802D01*
X89349278Y-56993803D01*
X89433332Y-57031226D01*
X89517712Y-57068794D01*
X89586263Y-57083365D01*
X89698056Y-57107128D01*
X89698061Y-57107128D01*
X89704513Y-57108500D01*
X89895487Y-57108500D01*
X89901939Y-57107128D01*
X89901944Y-57107128D01*
X90013737Y-57083365D01*
X90082288Y-57068794D01*
X90166668Y-57031226D01*
X90250722Y-56993803D01*
X90250724Y-56993802D01*
X90256752Y-56991118D01*
X90268244Y-56982769D01*
X90346969Y-56925571D01*
X90411253Y-56878866D01*
X90539040Y-56736944D01*
X90634527Y-56571556D01*
X90693542Y-56389928D01*
X90695766Y-56368774D01*
X90712814Y-56206565D01*
X90713504Y-56200000D01*
X90703645Y-56106197D01*
X90694232Y-56016635D01*
X90694232Y-56016633D01*
X90693542Y-56010072D01*
X90634527Y-55828444D01*
X90608295Y-55783008D01*
X90594519Y-55759149D01*
X90539040Y-55663056D01*
X90411253Y-55521134D01*
X90280375Y-55426045D01*
X90262094Y-55412763D01*
X90262093Y-55412762D01*
X90256752Y-55408882D01*
X90250724Y-55406198D01*
X90250722Y-55406197D01*
X90088319Y-55333891D01*
X90088318Y-55333891D01*
X90082288Y-55331206D01*
X89988888Y-55311353D01*
X89901944Y-55292872D01*
X89901939Y-55292872D01*
X89895487Y-55291500D01*
X89704513Y-55291500D01*
X89698061Y-55292872D01*
X89698056Y-55292872D01*
X89611112Y-55311353D01*
X89517712Y-55331206D01*
X89511682Y-55333891D01*
X89511681Y-55333891D01*
X89349278Y-55406197D01*
X89349276Y-55406198D01*
X89343248Y-55408882D01*
X89337907Y-55412762D01*
X89337906Y-55412763D01*
X89319625Y-55426045D01*
X89188747Y-55521134D01*
X89060960Y-55663056D01*
X89005481Y-55759149D01*
X88991706Y-55783008D01*
X88965473Y-55828444D01*
X88906458Y-56010072D01*
X88905768Y-56016633D01*
X88905768Y-56016635D01*
X88896355Y-56106197D01*
X88886496Y-56200000D01*
X80357777Y-56200000D01*
X80334527Y-56128444D01*
X80239040Y-55963056D01*
X80197243Y-55916635D01*
X80115675Y-55826045D01*
X80115674Y-55826044D01*
X80111253Y-55821134D01*
X79956752Y-55708882D01*
X79950724Y-55706198D01*
X79950722Y-55706197D01*
X79788319Y-55633891D01*
X79788318Y-55633891D01*
X79782288Y-55631206D01*
X79688888Y-55611353D01*
X79601944Y-55592872D01*
X79601939Y-55592872D01*
X79595487Y-55591500D01*
X79404513Y-55591500D01*
X79398061Y-55592872D01*
X79398056Y-55592872D01*
X79311113Y-55611353D01*
X79217712Y-55631206D01*
X79211682Y-55633891D01*
X79211681Y-55633891D01*
X79049278Y-55706197D01*
X79049276Y-55706198D01*
X79043248Y-55708882D01*
X79037907Y-55712762D01*
X79037906Y-55712763D01*
X78974061Y-55759149D01*
X78907193Y-55783008D01*
X78838041Y-55766927D01*
X78825939Y-55759149D01*
X78762094Y-55712763D01*
X78762093Y-55712762D01*
X78756752Y-55708882D01*
X78750724Y-55706198D01*
X78750722Y-55706197D01*
X78588319Y-55633891D01*
X78588318Y-55633891D01*
X78582288Y-55631206D01*
X78488888Y-55611353D01*
X78401944Y-55592872D01*
X78401939Y-55592872D01*
X78395487Y-55591500D01*
X78204513Y-55591500D01*
X78198061Y-55592872D01*
X78198056Y-55592872D01*
X78111113Y-55611353D01*
X78017712Y-55631206D01*
X78011682Y-55633891D01*
X78011681Y-55633891D01*
X77849278Y-55706197D01*
X77849276Y-55706198D01*
X77843248Y-55708882D01*
X77688747Y-55821134D01*
X77684325Y-55826045D01*
X77684323Y-55826047D01*
X77673071Y-55838543D01*
X77612625Y-55875782D01*
X77541641Y-55874429D01*
X77482657Y-55834913D01*
X77470318Y-55817231D01*
X77442341Y-55768774D01*
X77439040Y-55763056D01*
X77322740Y-55633891D01*
X77315675Y-55626045D01*
X77315674Y-55626044D01*
X77311253Y-55621134D01*
X77180375Y-55526045D01*
X77162094Y-55512763D01*
X77162093Y-55512762D01*
X77156752Y-55508882D01*
X77150724Y-55506198D01*
X77150722Y-55506197D01*
X76988319Y-55433891D01*
X76988318Y-55433891D01*
X76982288Y-55431206D01*
X76888887Y-55411353D01*
X76801944Y-55392872D01*
X76801939Y-55392872D01*
X76795487Y-55391500D01*
X76604513Y-55391500D01*
X76598061Y-55392872D01*
X76598056Y-55392872D01*
X76511113Y-55411353D01*
X76417712Y-55431206D01*
X76411682Y-55433891D01*
X76411681Y-55433891D01*
X76249278Y-55506197D01*
X76249276Y-55506198D01*
X76243248Y-55508882D01*
X76237907Y-55512762D01*
X76237906Y-55512763D01*
X76219625Y-55526045D01*
X76088747Y-55621134D01*
X76084326Y-55626044D01*
X76084325Y-55626045D01*
X76077261Y-55633891D01*
X75960960Y-55763056D01*
X75902686Y-55863990D01*
X75886011Y-55892872D01*
X75865473Y-55928444D01*
X75806458Y-56110072D01*
X75805768Y-56116633D01*
X75805768Y-56116635D01*
X75804779Y-56126045D01*
X75786496Y-56300000D01*
X73590269Y-56300000D01*
X73593542Y-56289928D01*
X73595766Y-56268774D01*
X73612814Y-56106565D01*
X73613504Y-56100000D01*
X73603645Y-56006197D01*
X73594232Y-55916635D01*
X73594232Y-55916633D01*
X73593542Y-55910072D01*
X73534527Y-55728444D01*
X73439040Y-55563056D01*
X73322740Y-55433891D01*
X73315675Y-55426045D01*
X73315674Y-55426044D01*
X73311253Y-55421134D01*
X73156752Y-55308882D01*
X73150724Y-55306198D01*
X73150722Y-55306197D01*
X72988319Y-55233891D01*
X72988318Y-55233891D01*
X72982288Y-55231206D01*
X72888887Y-55211353D01*
X72801944Y-55192872D01*
X72801939Y-55192872D01*
X72795487Y-55191500D01*
X72604513Y-55191500D01*
X72598061Y-55192872D01*
X72598056Y-55192872D01*
X72511113Y-55211353D01*
X72417712Y-55231206D01*
X72411682Y-55233891D01*
X72411681Y-55233891D01*
X72249278Y-55306197D01*
X72249276Y-55306198D01*
X72243248Y-55308882D01*
X72088747Y-55421134D01*
X72084326Y-55426044D01*
X72084325Y-55426045D01*
X72077261Y-55433891D01*
X71960960Y-55563056D01*
X71865473Y-55728444D01*
X71806458Y-55910072D01*
X71805768Y-55916633D01*
X71805768Y-55916635D01*
X71796355Y-56006197D01*
X71786496Y-56100000D01*
X69782165Y-56100000D01*
X69656752Y-56008882D01*
X69650724Y-56006198D01*
X69650722Y-56006197D01*
X69488319Y-55933891D01*
X69488318Y-55933891D01*
X69482288Y-55931206D01*
X69382861Y-55910072D01*
X69301944Y-55892872D01*
X69301939Y-55892872D01*
X69295487Y-55891500D01*
X69104513Y-55891500D01*
X69098061Y-55892872D01*
X69098056Y-55892872D01*
X69017139Y-55910072D01*
X68917712Y-55931206D01*
X68911682Y-55933891D01*
X68911681Y-55933891D01*
X68749278Y-56006197D01*
X68749276Y-56006198D01*
X68743248Y-56008882D01*
X68588747Y-56121134D01*
X68460960Y-56263056D01*
X68365473Y-56428444D01*
X68306458Y-56610072D01*
X68305768Y-56616633D01*
X68305768Y-56616635D01*
X68289233Y-56773955D01*
X68286496Y-56800000D01*
X64302994Y-56800000D01*
X64294232Y-56716635D01*
X64294232Y-56716633D01*
X64293542Y-56710072D01*
X64234527Y-56528444D01*
X64139040Y-56363056D01*
X64097243Y-56316635D01*
X64015675Y-56226045D01*
X64015674Y-56226044D01*
X64011253Y-56221134D01*
X63875800Y-56122721D01*
X63862094Y-56112763D01*
X63862093Y-56112762D01*
X63856752Y-56108882D01*
X63850724Y-56106198D01*
X63850722Y-56106197D01*
X63688319Y-56033891D01*
X63688318Y-56033891D01*
X63682288Y-56031206D01*
X63582861Y-56010072D01*
X63501944Y-55992872D01*
X63501939Y-55992872D01*
X63495487Y-55991500D01*
X63304513Y-55991500D01*
X63298061Y-55992872D01*
X63298056Y-55992872D01*
X63217139Y-56010072D01*
X63117712Y-56031206D01*
X63111682Y-56033891D01*
X63111681Y-56033891D01*
X62949278Y-56106197D01*
X62949276Y-56106198D01*
X62943248Y-56108882D01*
X62937907Y-56112762D01*
X62937906Y-56112763D01*
X62924200Y-56122721D01*
X62788747Y-56221134D01*
X62784326Y-56226044D01*
X62784325Y-56226045D01*
X62702758Y-56316635D01*
X62660960Y-56363056D01*
X62565473Y-56528444D01*
X62563432Y-56534726D01*
X62554333Y-56562730D01*
X62514259Y-56621335D01*
X62448862Y-56648972D01*
X62378906Y-56636865D01*
X62326600Y-56588859D01*
X62308500Y-56523793D01*
X62308500Y-54200000D01*
X104386496Y-54200000D01*
X104406458Y-54389928D01*
X104465473Y-54571556D01*
X104560960Y-54736944D01*
X104688747Y-54878866D01*
X104843248Y-54991118D01*
X104849276Y-54993802D01*
X104849278Y-54993803D01*
X105011681Y-55066109D01*
X105017712Y-55068794D01*
X105111113Y-55088647D01*
X105198056Y-55107128D01*
X105198061Y-55107128D01*
X105204513Y-55108500D01*
X105395487Y-55108500D01*
X105401939Y-55107128D01*
X105401944Y-55107128D01*
X105488887Y-55088647D01*
X105582288Y-55068794D01*
X105588319Y-55066109D01*
X105750722Y-54993803D01*
X105750724Y-54993802D01*
X105756752Y-54991118D01*
X105911253Y-54878866D01*
X106039040Y-54736944D01*
X106134527Y-54571556D01*
X106193542Y-54389928D01*
X106213504Y-54200000D01*
X106193542Y-54010072D01*
X106134527Y-53828444D01*
X106039040Y-53663056D01*
X105976685Y-53593803D01*
X105915675Y-53526045D01*
X105915674Y-53526044D01*
X105911253Y-53521134D01*
X105756752Y-53408882D01*
X105750724Y-53406198D01*
X105750722Y-53406197D01*
X105588319Y-53333891D01*
X105588318Y-53333891D01*
X105582288Y-53331206D01*
X105488888Y-53311353D01*
X105401944Y-53292872D01*
X105401939Y-53292872D01*
X105395487Y-53291500D01*
X105204513Y-53291500D01*
X105198061Y-53292872D01*
X105198056Y-53292872D01*
X105111113Y-53311353D01*
X105017712Y-53331206D01*
X105011682Y-53333891D01*
X105011681Y-53333891D01*
X104849278Y-53406197D01*
X104849276Y-53406198D01*
X104843248Y-53408882D01*
X104688747Y-53521134D01*
X104684326Y-53526044D01*
X104684325Y-53526045D01*
X104623316Y-53593803D01*
X104560960Y-53663056D01*
X104465473Y-53828444D01*
X104406458Y-54010072D01*
X104386496Y-54200000D01*
X62308500Y-54200000D01*
X62308500Y-52377740D01*
X62328502Y-52309619D01*
X62382158Y-52263126D01*
X62452432Y-52253022D01*
X62472599Y-52257638D01*
X62638861Y-52310379D01*
X62644978Y-52311065D01*
X62644982Y-52311066D01*
X62721598Y-52319659D01*
X62800413Y-52328500D01*
X62912237Y-52328500D01*
X62915293Y-52328200D01*
X62915300Y-52328200D01*
X63060466Y-52313966D01*
X63060469Y-52313965D01*
X63066592Y-52313365D01*
X63214287Y-52268774D01*
X63259407Y-52255152D01*
X63259410Y-52255151D01*
X63265315Y-52253368D01*
X63270762Y-52250472D01*
X63443153Y-52158809D01*
X63443155Y-52158808D01*
X63448599Y-52155913D01*
X63508471Y-52107083D01*
X63604689Y-52028610D01*
X63604692Y-52028607D01*
X63609464Y-52024715D01*
X63619352Y-52012763D01*
X63717363Y-51894289D01*
X63776197Y-51854551D01*
X63847175Y-51852930D01*
X63907762Y-51889939D01*
X63930856Y-51926387D01*
X63962384Y-52002502D01*
X64094672Y-52218376D01*
X64259102Y-52410898D01*
X64451624Y-52575328D01*
X64667498Y-52707616D01*
X64672068Y-52709509D01*
X64672072Y-52709511D01*
X64896836Y-52802611D01*
X64901409Y-52804505D01*
X64986032Y-52824821D01*
X65142784Y-52862454D01*
X65142790Y-52862455D01*
X65147597Y-52863609D01*
X65400000Y-52883474D01*
X65652403Y-52863609D01*
X65657210Y-52862455D01*
X65657216Y-52862454D01*
X65813968Y-52824821D01*
X65898591Y-52804505D01*
X65903164Y-52802611D01*
X65909468Y-52800000D01*
X86886496Y-52800000D01*
X86887186Y-52806565D01*
X86895229Y-52883086D01*
X86906458Y-52989928D01*
X86965473Y-53171556D01*
X87060960Y-53336944D01*
X87065378Y-53341851D01*
X87065379Y-53341852D01*
X87125733Y-53408882D01*
X87188747Y-53478866D01*
X87343248Y-53591118D01*
X87349276Y-53593802D01*
X87349278Y-53593803D01*
X87504824Y-53663056D01*
X87517712Y-53668794D01*
X87611113Y-53688647D01*
X87698056Y-53707128D01*
X87698061Y-53707128D01*
X87704513Y-53708500D01*
X87895487Y-53708500D01*
X87901939Y-53707128D01*
X87901944Y-53707128D01*
X87988887Y-53688647D01*
X88082288Y-53668794D01*
X88095176Y-53663056D01*
X88250722Y-53593803D01*
X88250724Y-53593802D01*
X88256752Y-53591118D01*
X88411253Y-53478866D01*
X88474267Y-53408882D01*
X88534621Y-53341852D01*
X88534622Y-53341851D01*
X88539040Y-53336944D01*
X88634527Y-53171556D01*
X88693542Y-52989928D01*
X88704772Y-52883086D01*
X88712814Y-52806565D01*
X88713504Y-52800000D01*
X88693542Y-52610072D01*
X88634527Y-52428444D01*
X88539040Y-52263056D01*
X88530006Y-52253022D01*
X88415675Y-52126045D01*
X88415674Y-52126044D01*
X88411253Y-52121134D01*
X88256752Y-52008882D01*
X88250724Y-52006198D01*
X88250722Y-52006197D01*
X88088319Y-51933891D01*
X88088318Y-51933891D01*
X88082288Y-51931206D01*
X87988888Y-51911353D01*
X87901944Y-51892872D01*
X87901939Y-51892872D01*
X87895487Y-51891500D01*
X87704513Y-51891500D01*
X87698061Y-51892872D01*
X87698056Y-51892872D01*
X87611112Y-51911353D01*
X87517712Y-51931206D01*
X87511682Y-51933891D01*
X87511681Y-51933891D01*
X87349278Y-52006197D01*
X87349276Y-52006198D01*
X87343248Y-52008882D01*
X87188747Y-52121134D01*
X87184326Y-52126044D01*
X87184325Y-52126045D01*
X87069995Y-52253022D01*
X87060960Y-52263056D01*
X86965473Y-52428444D01*
X86906458Y-52610072D01*
X86886496Y-52800000D01*
X65909468Y-52800000D01*
X66127928Y-52709511D01*
X66127932Y-52709509D01*
X66132502Y-52707616D01*
X66348376Y-52575328D01*
X66540898Y-52410898D01*
X66705328Y-52218376D01*
X66837616Y-52002502D01*
X66882440Y-51894289D01*
X66932611Y-51773164D01*
X66932612Y-51773162D01*
X66934505Y-51768591D01*
X66993609Y-51522403D01*
X66995372Y-51500000D01*
X77686496Y-51500000D01*
X77687186Y-51506565D01*
X77705643Y-51682170D01*
X77706458Y-51689928D01*
X77765473Y-51871556D01*
X77860960Y-52036944D01*
X77865378Y-52041851D01*
X77865379Y-52041852D01*
X77984325Y-52173955D01*
X77988747Y-52178866D01*
X78143248Y-52291118D01*
X78149276Y-52293802D01*
X78149278Y-52293803D01*
X78311681Y-52366109D01*
X78317712Y-52368794D01*
X78411112Y-52388647D01*
X78498056Y-52407128D01*
X78498061Y-52407128D01*
X78504513Y-52408500D01*
X78695487Y-52408500D01*
X78701939Y-52407128D01*
X78701944Y-52407128D01*
X78788888Y-52388647D01*
X78882288Y-52368794D01*
X78888319Y-52366109D01*
X79050722Y-52293803D01*
X79050724Y-52293802D01*
X79056752Y-52291118D01*
X79211253Y-52178866D01*
X79215675Y-52173955D01*
X79334621Y-52041852D01*
X79334622Y-52041851D01*
X79339040Y-52036944D01*
X79434527Y-51871556D01*
X79493542Y-51689928D01*
X79494358Y-51682170D01*
X79512814Y-51506565D01*
X79513504Y-51500000D01*
X79493542Y-51310072D01*
X79434527Y-51128444D01*
X79339040Y-50963056D01*
X79211253Y-50821134D01*
X79056752Y-50708882D01*
X79050724Y-50706198D01*
X79050722Y-50706197D01*
X78888319Y-50633891D01*
X78888318Y-50633891D01*
X78882288Y-50631206D01*
X78788887Y-50611353D01*
X78701944Y-50592872D01*
X78701939Y-50592872D01*
X78695487Y-50591500D01*
X78504513Y-50591500D01*
X78498061Y-50592872D01*
X78498056Y-50592872D01*
X78411113Y-50611353D01*
X78317712Y-50631206D01*
X78311682Y-50633891D01*
X78311681Y-50633891D01*
X78149278Y-50706197D01*
X78149276Y-50706198D01*
X78143248Y-50708882D01*
X77988747Y-50821134D01*
X77860960Y-50963056D01*
X77765473Y-51128444D01*
X77706458Y-51310072D01*
X77686496Y-51500000D01*
X66995372Y-51500000D01*
X67013474Y-51270000D01*
X66993609Y-51017597D01*
X66934505Y-50771409D01*
X66910213Y-50712763D01*
X66839511Y-50542072D01*
X66839509Y-50542068D01*
X66837616Y-50537498D01*
X66761087Y-50412614D01*
X66742549Y-50344080D01*
X66764005Y-50276404D01*
X66792954Y-50245953D01*
X66814746Y-50229621D01*
X66863261Y-50193261D01*
X66950615Y-50076705D01*
X67001745Y-49940316D01*
X67008500Y-49878134D01*
X67008500Y-48850000D01*
X87386496Y-48850000D01*
X87387186Y-48856565D01*
X87402993Y-49006956D01*
X87406458Y-49039928D01*
X87465473Y-49221556D01*
X87468776Y-49227278D01*
X87468777Y-49227279D01*
X87502686Y-49286010D01*
X87560960Y-49386944D01*
X87565378Y-49391851D01*
X87565379Y-49391852D01*
X87648993Y-49484715D01*
X87688747Y-49528866D01*
X87843248Y-49641118D01*
X87849276Y-49643802D01*
X87849278Y-49643803D01*
X88005525Y-49713368D01*
X88017712Y-49718794D01*
X88111113Y-49738647D01*
X88198056Y-49757128D01*
X88198061Y-49757128D01*
X88204513Y-49758500D01*
X88395487Y-49758500D01*
X88401939Y-49757128D01*
X88401944Y-49757128D01*
X88488887Y-49738647D01*
X88582288Y-49718794D01*
X88594475Y-49713368D01*
X88750722Y-49643803D01*
X88750724Y-49643802D01*
X88756752Y-49641118D01*
X88911253Y-49528866D01*
X88951007Y-49484715D01*
X89034621Y-49391852D01*
X89034622Y-49391851D01*
X89039040Y-49386944D01*
X89097314Y-49286010D01*
X89131223Y-49227279D01*
X89131224Y-49227278D01*
X89134527Y-49221556D01*
X89180167Y-49081090D01*
X89220241Y-49022486D01*
X89285637Y-48994849D01*
X89355594Y-49006956D01*
X89407900Y-49054962D01*
X89419832Y-49081089D01*
X89465473Y-49221556D01*
X89468776Y-49227278D01*
X89468777Y-49227279D01*
X89502686Y-49286010D01*
X89560960Y-49386944D01*
X89565378Y-49391851D01*
X89565379Y-49391852D01*
X89648993Y-49484715D01*
X89688747Y-49528866D01*
X89843248Y-49641118D01*
X89849276Y-49643802D01*
X89849278Y-49643803D01*
X90005525Y-49713368D01*
X90017712Y-49718794D01*
X90111113Y-49738647D01*
X90198056Y-49757128D01*
X90198061Y-49757128D01*
X90204513Y-49758500D01*
X90395487Y-49758500D01*
X90401939Y-49757128D01*
X90401944Y-49757128D01*
X90488887Y-49738647D01*
X90582288Y-49718794D01*
X90594475Y-49713368D01*
X90750722Y-49643803D01*
X90750724Y-49643802D01*
X90756752Y-49641118D01*
X90911253Y-49528866D01*
X90951007Y-49484715D01*
X91034621Y-49391852D01*
X91034622Y-49391851D01*
X91039040Y-49386944D01*
X91097314Y-49286010D01*
X91131223Y-49227279D01*
X91131224Y-49227278D01*
X91134527Y-49221556D01*
X91180167Y-49081090D01*
X91220241Y-49022486D01*
X91285637Y-48994849D01*
X91355594Y-49006956D01*
X91407900Y-49054962D01*
X91419832Y-49081089D01*
X91465473Y-49221556D01*
X91468776Y-49227278D01*
X91468777Y-49227279D01*
X91502686Y-49286010D01*
X91560960Y-49386944D01*
X91565378Y-49391851D01*
X91565379Y-49391852D01*
X91648993Y-49484715D01*
X91688747Y-49528866D01*
X91843248Y-49641118D01*
X91849276Y-49643802D01*
X91849278Y-49643803D01*
X92005525Y-49713368D01*
X92017712Y-49718794D01*
X92111113Y-49738647D01*
X92198056Y-49757128D01*
X92198061Y-49757128D01*
X92204513Y-49758500D01*
X92395487Y-49758500D01*
X92401939Y-49757128D01*
X92401944Y-49757128D01*
X92488887Y-49738647D01*
X92582288Y-49718794D01*
X92594475Y-49713368D01*
X92750722Y-49643803D01*
X92750724Y-49643802D01*
X92756752Y-49641118D01*
X92911253Y-49528866D01*
X92951007Y-49484715D01*
X93034621Y-49391852D01*
X93034622Y-49391851D01*
X93039040Y-49386944D01*
X93090881Y-49297153D01*
X93142264Y-49248160D01*
X93211977Y-49234724D01*
X93277888Y-49261110D01*
X93309119Y-49297153D01*
X93360960Y-49386944D01*
X93365378Y-49391851D01*
X93365379Y-49391852D01*
X93448993Y-49484715D01*
X93488747Y-49528866D01*
X93643248Y-49641118D01*
X93649276Y-49643802D01*
X93649278Y-49643803D01*
X93805525Y-49713368D01*
X93817712Y-49718794D01*
X93911113Y-49738647D01*
X93998056Y-49757128D01*
X93998061Y-49757128D01*
X94004513Y-49758500D01*
X94195487Y-49758500D01*
X94201939Y-49757128D01*
X94201944Y-49757128D01*
X94288887Y-49738647D01*
X94382288Y-49718794D01*
X94394475Y-49713368D01*
X94550722Y-49643803D01*
X94550724Y-49643802D01*
X94556752Y-49641118D01*
X94711253Y-49528866D01*
X94751007Y-49484715D01*
X94834621Y-49391852D01*
X94834622Y-49391851D01*
X94839040Y-49386944D01*
X94897314Y-49286010D01*
X94931223Y-49227279D01*
X94931224Y-49227278D01*
X94934527Y-49221556D01*
X94993542Y-49039928D01*
X94997008Y-49006956D01*
X94997739Y-49000000D01*
X104386496Y-49000000D01*
X104406458Y-49189928D01*
X104465473Y-49371556D01*
X104560960Y-49536944D01*
X104565378Y-49541851D01*
X104565379Y-49541852D01*
X104657176Y-49643803D01*
X104688747Y-49678866D01*
X104843248Y-49791118D01*
X104849276Y-49793802D01*
X104849278Y-49793803D01*
X104947963Y-49837740D01*
X105017712Y-49868794D01*
X105077635Y-49881531D01*
X105198056Y-49907128D01*
X105198061Y-49907128D01*
X105204513Y-49908500D01*
X105395487Y-49908500D01*
X105401939Y-49907128D01*
X105401944Y-49907128D01*
X105522365Y-49881531D01*
X105582288Y-49868794D01*
X105652037Y-49837740D01*
X105750722Y-49793803D01*
X105750724Y-49793802D01*
X105756752Y-49791118D01*
X105911253Y-49678866D01*
X105942824Y-49643803D01*
X106034621Y-49541852D01*
X106034622Y-49541851D01*
X106039040Y-49536944D01*
X106134527Y-49371556D01*
X106193542Y-49189928D01*
X106213504Y-49000000D01*
X106193542Y-48810072D01*
X106134527Y-48628444D01*
X106039040Y-48463056D01*
X105911253Y-48321134D01*
X105756752Y-48208882D01*
X105750724Y-48206198D01*
X105750722Y-48206197D01*
X105588319Y-48133891D01*
X105588318Y-48133891D01*
X105582288Y-48131206D01*
X105488887Y-48111353D01*
X105401944Y-48092872D01*
X105401939Y-48092872D01*
X105395487Y-48091500D01*
X105204513Y-48091500D01*
X105198061Y-48092872D01*
X105198056Y-48092872D01*
X105111112Y-48111353D01*
X105017712Y-48131206D01*
X105011682Y-48133891D01*
X105011681Y-48133891D01*
X104849278Y-48206197D01*
X104849276Y-48206198D01*
X104843248Y-48208882D01*
X104688747Y-48321134D01*
X104560960Y-48463056D01*
X104465473Y-48628444D01*
X104406458Y-48810072D01*
X104386496Y-49000000D01*
X94997739Y-49000000D01*
X95012814Y-48856565D01*
X95013504Y-48850000D01*
X94998280Y-48705151D01*
X94994232Y-48666635D01*
X94994232Y-48666633D01*
X94993542Y-48660072D01*
X94934527Y-48478444D01*
X94926925Y-48465276D01*
X94842341Y-48318774D01*
X94839040Y-48313056D01*
X94833703Y-48307128D01*
X94715675Y-48176045D01*
X94715674Y-48176044D01*
X94711253Y-48171134D01*
X94556752Y-48058882D01*
X94550724Y-48056198D01*
X94550722Y-48056197D01*
X94388319Y-47983891D01*
X94388318Y-47983891D01*
X94382288Y-47981206D01*
X94264184Y-47956102D01*
X94201944Y-47942872D01*
X94201939Y-47942872D01*
X94195487Y-47941500D01*
X94004513Y-47941500D01*
X93998061Y-47942872D01*
X93998056Y-47942872D01*
X93935816Y-47956102D01*
X93817712Y-47981206D01*
X93811682Y-47983891D01*
X93811681Y-47983891D01*
X93649278Y-48056197D01*
X93649276Y-48056198D01*
X93643248Y-48058882D01*
X93488747Y-48171134D01*
X93484326Y-48176044D01*
X93484325Y-48176045D01*
X93366298Y-48307128D01*
X93360960Y-48313056D01*
X93357659Y-48318774D01*
X93309119Y-48402847D01*
X93257736Y-48451840D01*
X93188023Y-48465276D01*
X93122112Y-48438890D01*
X93090881Y-48402847D01*
X93042341Y-48318774D01*
X93039040Y-48313056D01*
X93033703Y-48307128D01*
X92915675Y-48176045D01*
X92915674Y-48176044D01*
X92911253Y-48171134D01*
X92756752Y-48058882D01*
X92750724Y-48056198D01*
X92750722Y-48056197D01*
X92588319Y-47983891D01*
X92588318Y-47983891D01*
X92582288Y-47981206D01*
X92464184Y-47956102D01*
X92401944Y-47942872D01*
X92401939Y-47942872D01*
X92395487Y-47941500D01*
X92204513Y-47941500D01*
X92198061Y-47942872D01*
X92198056Y-47942872D01*
X92135816Y-47956102D01*
X92017712Y-47981206D01*
X92011682Y-47983891D01*
X92011681Y-47983891D01*
X91849278Y-48056197D01*
X91849276Y-48056198D01*
X91843248Y-48058882D01*
X91688747Y-48171134D01*
X91684326Y-48176044D01*
X91684325Y-48176045D01*
X91566298Y-48307128D01*
X91560960Y-48313056D01*
X91557659Y-48318774D01*
X91473076Y-48465276D01*
X91465473Y-48478444D01*
X91463432Y-48484726D01*
X91419833Y-48618909D01*
X91379759Y-48677514D01*
X91314363Y-48705151D01*
X91244406Y-48693044D01*
X91192100Y-48645038D01*
X91180167Y-48618909D01*
X91136568Y-48484726D01*
X91134527Y-48478444D01*
X91126925Y-48465276D01*
X91042341Y-48318774D01*
X91039040Y-48313056D01*
X91033703Y-48307128D01*
X90915675Y-48176045D01*
X90915674Y-48176044D01*
X90911253Y-48171134D01*
X90756752Y-48058882D01*
X90750724Y-48056198D01*
X90750722Y-48056197D01*
X90588319Y-47983891D01*
X90588318Y-47983891D01*
X90582288Y-47981206D01*
X90464184Y-47956102D01*
X90401944Y-47942872D01*
X90401939Y-47942872D01*
X90395487Y-47941500D01*
X90204513Y-47941500D01*
X90198061Y-47942872D01*
X90198056Y-47942872D01*
X90135816Y-47956102D01*
X90017712Y-47981206D01*
X90011682Y-47983891D01*
X90011681Y-47983891D01*
X89849278Y-48056197D01*
X89849276Y-48056198D01*
X89843248Y-48058882D01*
X89688747Y-48171134D01*
X89684326Y-48176044D01*
X89684325Y-48176045D01*
X89566298Y-48307128D01*
X89560960Y-48313056D01*
X89557659Y-48318774D01*
X89473076Y-48465276D01*
X89465473Y-48478444D01*
X89463432Y-48484726D01*
X89419833Y-48618909D01*
X89379759Y-48677514D01*
X89314363Y-48705151D01*
X89244406Y-48693044D01*
X89192100Y-48645038D01*
X89180167Y-48618909D01*
X89136568Y-48484726D01*
X89134527Y-48478444D01*
X89126925Y-48465276D01*
X89042341Y-48318774D01*
X89039040Y-48313056D01*
X89033703Y-48307128D01*
X88915675Y-48176045D01*
X88915674Y-48176044D01*
X88911253Y-48171134D01*
X88756752Y-48058882D01*
X88750724Y-48056198D01*
X88750722Y-48056197D01*
X88588319Y-47983891D01*
X88588318Y-47983891D01*
X88582288Y-47981206D01*
X88464184Y-47956102D01*
X88401944Y-47942872D01*
X88401939Y-47942872D01*
X88395487Y-47941500D01*
X88204513Y-47941500D01*
X88198061Y-47942872D01*
X88198056Y-47942872D01*
X88135816Y-47956102D01*
X88017712Y-47981206D01*
X88011682Y-47983891D01*
X88011681Y-47983891D01*
X87849278Y-48056197D01*
X87849276Y-48056198D01*
X87843248Y-48058882D01*
X87688747Y-48171134D01*
X87684326Y-48176044D01*
X87684325Y-48176045D01*
X87566298Y-48307128D01*
X87560960Y-48313056D01*
X87557659Y-48318774D01*
X87473076Y-48465276D01*
X87465473Y-48478444D01*
X87406458Y-48660072D01*
X87405768Y-48666633D01*
X87405768Y-48666635D01*
X87401720Y-48705151D01*
X87386496Y-48850000D01*
X67008500Y-48850000D01*
X67008500Y-47581866D01*
X67001745Y-47519684D01*
X66956877Y-47400000D01*
X73986496Y-47400000D01*
X73987186Y-47406565D01*
X74005611Y-47581866D01*
X74006458Y-47589928D01*
X74065473Y-47771556D01*
X74160960Y-47936944D01*
X74165378Y-47941851D01*
X74165379Y-47941852D01*
X74203231Y-47983891D01*
X74288747Y-48078866D01*
X74443248Y-48191118D01*
X74449276Y-48193802D01*
X74449278Y-48193803D01*
X74611681Y-48266109D01*
X74617712Y-48268794D01*
X74711113Y-48288647D01*
X74798056Y-48307128D01*
X74798061Y-48307128D01*
X74804513Y-48308500D01*
X74995487Y-48308500D01*
X75001939Y-48307128D01*
X75001944Y-48307128D01*
X75088887Y-48288647D01*
X75182288Y-48268794D01*
X75188319Y-48266109D01*
X75350722Y-48193803D01*
X75350724Y-48193802D01*
X75356752Y-48191118D01*
X75511253Y-48078866D01*
X75596769Y-47983891D01*
X75634621Y-47941852D01*
X75634622Y-47941851D01*
X75639040Y-47936944D01*
X75734527Y-47771556D01*
X75793542Y-47589928D01*
X75794390Y-47581866D01*
X75812814Y-47406565D01*
X75813504Y-47400000D01*
X75793542Y-47210072D01*
X75734527Y-47028444D01*
X75639040Y-46863056D01*
X75511253Y-46721134D01*
X75356752Y-46608882D01*
X75350724Y-46606198D01*
X75350722Y-46606197D01*
X75188319Y-46533891D01*
X75188318Y-46533891D01*
X75182288Y-46531206D01*
X75088888Y-46511353D01*
X75001944Y-46492872D01*
X75001939Y-46492872D01*
X74995487Y-46491500D01*
X74804513Y-46491500D01*
X74798061Y-46492872D01*
X74798056Y-46492872D01*
X74711112Y-46511353D01*
X74617712Y-46531206D01*
X74611682Y-46533891D01*
X74611681Y-46533891D01*
X74449278Y-46606197D01*
X74449276Y-46606198D01*
X74443248Y-46608882D01*
X74288747Y-46721134D01*
X74160960Y-46863056D01*
X74065473Y-47028444D01*
X74006458Y-47210072D01*
X73986496Y-47400000D01*
X66956877Y-47400000D01*
X66950615Y-47383295D01*
X66863261Y-47266739D01*
X66746705Y-47179385D01*
X66610316Y-47128255D01*
X66548134Y-47121500D01*
X64251866Y-47121500D01*
X64189684Y-47128255D01*
X64053295Y-47179385D01*
X63936739Y-47266739D01*
X63849385Y-47383295D01*
X63798255Y-47519684D01*
X63791500Y-47581866D01*
X63791500Y-47859580D01*
X63771498Y-47927701D01*
X63717842Y-47974194D01*
X63647568Y-47984298D01*
X63584509Y-47956102D01*
X63538821Y-47917765D01*
X63460911Y-47852391D01*
X63455519Y-47849427D01*
X63455515Y-47849424D01*
X63284402Y-47755354D01*
X63279005Y-47752387D01*
X63081139Y-47689621D01*
X63075022Y-47688935D01*
X63075018Y-47688934D01*
X62998402Y-47680341D01*
X62919587Y-47671500D01*
X62807763Y-47671500D01*
X62804707Y-47671800D01*
X62804700Y-47671800D01*
X62659534Y-47686034D01*
X62659531Y-47686035D01*
X62653408Y-47686635D01*
X62594752Y-47704344D01*
X62470917Y-47741731D01*
X62399923Y-47742272D01*
X62339906Y-47704344D01*
X62309923Y-47639989D01*
X62308500Y-47621109D01*
X62308500Y-46450000D01*
X102086496Y-46450000D01*
X102106458Y-46639928D01*
X102165473Y-46821556D01*
X102260960Y-46986944D01*
X102388747Y-47128866D01*
X102543248Y-47241118D01*
X102549276Y-47243802D01*
X102549278Y-47243803D01*
X102711681Y-47316109D01*
X102717712Y-47318794D01*
X102811112Y-47338647D01*
X102898056Y-47357128D01*
X102898061Y-47357128D01*
X102904513Y-47358500D01*
X103095487Y-47358500D01*
X103101939Y-47357128D01*
X103101944Y-47357128D01*
X103188887Y-47338647D01*
X103282288Y-47318794D01*
X103288319Y-47316109D01*
X103450722Y-47243803D01*
X103450724Y-47243802D01*
X103456752Y-47241118D01*
X103611253Y-47128866D01*
X103739040Y-46986944D01*
X103834527Y-46821556D01*
X103893542Y-46639928D01*
X103913504Y-46450000D01*
X103893542Y-46260072D01*
X103834527Y-46078444D01*
X103808866Y-46033997D01*
X103797314Y-46013990D01*
X103739040Y-45913056D01*
X103611253Y-45771134D01*
X103456752Y-45658882D01*
X103450724Y-45656198D01*
X103450722Y-45656197D01*
X103288319Y-45583891D01*
X103288318Y-45583891D01*
X103282288Y-45581206D01*
X103188888Y-45561353D01*
X103101944Y-45542872D01*
X103101939Y-45542872D01*
X103095487Y-45541500D01*
X102904513Y-45541500D01*
X102898061Y-45542872D01*
X102898056Y-45542872D01*
X102811112Y-45561353D01*
X102717712Y-45581206D01*
X102711682Y-45583891D01*
X102711681Y-45583891D01*
X102549278Y-45656197D01*
X102549276Y-45656198D01*
X102543248Y-45658882D01*
X102388747Y-45771134D01*
X102260960Y-45913056D01*
X102202686Y-46013990D01*
X102191135Y-46033997D01*
X102165473Y-46078444D01*
X102106458Y-46260072D01*
X102086496Y-46450000D01*
X62308500Y-46450000D01*
X62308500Y-45547740D01*
X62328502Y-45479619D01*
X62382158Y-45433126D01*
X62452432Y-45423022D01*
X62472599Y-45427638D01*
X62638861Y-45480379D01*
X62644978Y-45481065D01*
X62644982Y-45481066D01*
X62721598Y-45489659D01*
X62800413Y-45498500D01*
X62912237Y-45498500D01*
X62915293Y-45498200D01*
X62915300Y-45498200D01*
X63060466Y-45483966D01*
X63060469Y-45483965D01*
X63066592Y-45483365D01*
X63198546Y-45443526D01*
X63259407Y-45425152D01*
X63259410Y-45425151D01*
X63265315Y-45423368D01*
X63270762Y-45420472D01*
X63443153Y-45328809D01*
X63443155Y-45328808D01*
X63448599Y-45325913D01*
X63508471Y-45277083D01*
X63604689Y-45198610D01*
X63604692Y-45198607D01*
X63609464Y-45194715D01*
X63624349Y-45176722D01*
X63717363Y-45064289D01*
X63776197Y-45024551D01*
X63847175Y-45022930D01*
X63907762Y-45059939D01*
X63930856Y-45096387D01*
X63962384Y-45172502D01*
X64094672Y-45388376D01*
X64259102Y-45580898D01*
X64451624Y-45745328D01*
X64667498Y-45877616D01*
X64672068Y-45879509D01*
X64672072Y-45879511D01*
X64766862Y-45918774D01*
X64901409Y-45974505D01*
X64986032Y-45994821D01*
X65142784Y-46032454D01*
X65142790Y-46032455D01*
X65147597Y-46033609D01*
X65400000Y-46053474D01*
X65652403Y-46033609D01*
X65657210Y-46032455D01*
X65657216Y-46032454D01*
X65813968Y-45994821D01*
X65898591Y-45974505D01*
X66033138Y-45918774D01*
X66127928Y-45879511D01*
X66127932Y-45879509D01*
X66132502Y-45877616D01*
X66348376Y-45745328D01*
X66540898Y-45580898D01*
X66705328Y-45388376D01*
X66837616Y-45172502D01*
X66871327Y-45091118D01*
X66932611Y-44943164D01*
X66932612Y-44943162D01*
X66934505Y-44938591D01*
X66993609Y-44692403D01*
X67013474Y-44440000D01*
X66993609Y-44187597D01*
X66934505Y-43941409D01*
X66918376Y-43902469D01*
X66839511Y-43712072D01*
X66839509Y-43712068D01*
X66837616Y-43707498D01*
X66790237Y-43630183D01*
X66761087Y-43582614D01*
X66742549Y-43514080D01*
X66764005Y-43446404D01*
X66792954Y-43415953D01*
X66797567Y-43412496D01*
X66863261Y-43363261D01*
X66950615Y-43246705D01*
X67001745Y-43110316D01*
X67008500Y-43048134D01*
X67008500Y-40751866D01*
X67001745Y-40689684D01*
X66950615Y-40553295D01*
X66863261Y-40436739D01*
X66746705Y-40349385D01*
X66610316Y-40298255D01*
X66548134Y-40291500D01*
X64251866Y-40291500D01*
X64189684Y-40298255D01*
X64053295Y-40349385D01*
X63936739Y-40436739D01*
X63849385Y-40553295D01*
X63798255Y-40689684D01*
X63791500Y-40751866D01*
X63791500Y-41029580D01*
X63771498Y-41097701D01*
X63717842Y-41144194D01*
X63647568Y-41154298D01*
X63584509Y-41126102D01*
X63517335Y-41069736D01*
X63460911Y-41022391D01*
X63455519Y-41019427D01*
X63455515Y-41019424D01*
X63284402Y-40925354D01*
X63279005Y-40922387D01*
X63081139Y-40859621D01*
X63075022Y-40858935D01*
X63075018Y-40858934D01*
X62998402Y-40850341D01*
X62919587Y-40841500D01*
X62807763Y-40841500D01*
X62804707Y-40841800D01*
X62804700Y-40841800D01*
X62659534Y-40856034D01*
X62659531Y-40856035D01*
X62653408Y-40856635D01*
X62594752Y-40874344D01*
X62470917Y-40911731D01*
X62399923Y-40912272D01*
X62339906Y-40874344D01*
X62309923Y-40809989D01*
X62308500Y-40791109D01*
X62308500Y-39931579D01*
X62309107Y-39919229D01*
X62312350Y-39886305D01*
X62312350Y-39886303D01*
X62313230Y-39877367D01*
X62302332Y-39819557D01*
X62301424Y-39814080D01*
X62294352Y-39764696D01*
X62293080Y-39755813D01*
X62289397Y-39747711D01*
X62289051Y-39746271D01*
X62288444Y-39744353D01*
X62287897Y-39742974D01*
X62286249Y-39734231D01*
X62259550Y-39681775D01*
X62257163Y-39676818D01*
X62232792Y-39623218D01*
X62226983Y-39616476D01*
X62226248Y-39615192D01*
X62225132Y-39613528D01*
X62224216Y-39612354D01*
X62220178Y-39604420D01*
X62214023Y-39597883D01*
X62214021Y-39597880D01*
X62179845Y-39561582D01*
X62176129Y-39557457D01*
X62143573Y-39519674D01*
X62137713Y-39512873D01*
X62099097Y-39487843D01*
X62090274Y-39481570D01*
X61958020Y-39378706D01*
X61916528Y-39321096D01*
X61912770Y-39250199D01*
X61947939Y-39188525D01*
X62004041Y-39157206D01*
X62241918Y-39096130D01*
X62241917Y-39096130D01*
X62245739Y-39095149D01*
X62249409Y-39093696D01*
X62523843Y-38985040D01*
X62523848Y-38985038D01*
X62527517Y-38983585D01*
X62530986Y-38981678D01*
X62789618Y-38839493D01*
X62789621Y-38839491D01*
X62793090Y-38837584D01*
X63038271Y-38659450D01*
X63259192Y-38451992D01*
X63421041Y-38256350D01*
X63449848Y-38221529D01*
X63449851Y-38221525D01*
X63452370Y-38218480D01*
X63604686Y-37978469D01*
X63612634Y-37965945D01*
X63612634Y-37965944D01*
X63614758Y-37962598D01*
X63726259Y-37725645D01*
X63742105Y-37691971D01*
X63742107Y-37691967D01*
X63743794Y-37688381D01*
X63837445Y-37400154D01*
X63855388Y-37306096D01*
X63887799Y-37242931D01*
X63949216Y-37207316D01*
X64020138Y-37210559D01*
G37*
%TD.AperFunction*%
%TD*%
M02*
