%TF.GenerationSoftware,KiCad,Pcbnew,(6.0.8)*%
%TF.CreationDate,2022-10-29T16:07:17-04:00*%
%TF.ProjectId,miura_board,6d697572-615f-4626-9f61-72642e6b6963,rev?*%
%TF.SameCoordinates,Original*%
%TF.FileFunction,Drillmap*%
%TF.FilePolarity,Positive*%
%FSLAX45Y45*%
G04 Gerber Fmt 4.5, Leading zero omitted, Abs format (unit mm)*
G04 Created by KiCad (PCBNEW (6.0.8)) date 2022-10-29 16:07:17*
%MOMM*%
%LPD*%
G01*
G04 APERTURE LIST*
%ADD10C,0.100000*%
%ADD11C,0.200000*%
%ADD12C,0.110000*%
G04 APERTURE END LIST*
D10*
X8910000Y-3180000D02*
X8910000Y-3980000D01*
X9710000Y-4080000D02*
X9010000Y-4080000D01*
X9710000Y-3080000D02*
X9010000Y-3080000D01*
X8910000Y-3980000D02*
G75*
G03*
X9010000Y-4080000I100000J0D01*
G01*
X9710000Y-3080000D02*
X9710000Y-4080000D01*
X9010000Y-3080000D02*
G75*
G03*
X8910000Y-3180000I0J-100000D01*
G01*
X11870000Y-8500000D02*
G75*
G03*
X12100000Y-8270000I0J230000D01*
G01*
X11870000Y-2500000D02*
X6330000Y-2500000D01*
X12100000Y-2730000D02*
G75*
G03*
X11870000Y-2500000I-230000J0D01*
G01*
X6330000Y-8500000D02*
X11870000Y-8500000D01*
X6100000Y-8270000D02*
G75*
G03*
X6330000Y-8500000I230000J0D01*
G01*
X6330000Y-2500000D02*
G75*
G03*
X6100000Y-2730000I0J-230000D01*
G01*
X12100000Y-2730000D02*
X12100000Y-8270000D01*
X6100000Y-8270000D02*
X6100000Y-2730000D01*
D11*
D12*
X6161000Y-3578000D02*
X6271000Y-3688000D01*
X6271000Y-3578000D02*
X6161000Y-3688000D01*
X6161000Y-3832000D02*
X6271000Y-3942000D01*
X6271000Y-3832000D02*
X6161000Y-3942000D01*
X6161000Y-4415000D02*
X6271000Y-4525000D01*
X6271000Y-4415000D02*
X6161000Y-4525000D01*
X6161000Y-4669000D02*
X6271000Y-4779000D01*
X6271000Y-4669000D02*
X6161000Y-4779000D01*
X8171000Y-2561000D02*
X8281000Y-2671000D01*
X8281000Y-2561000D02*
X8171000Y-2671000D01*
X8425000Y-2561000D02*
X8535000Y-2671000D01*
X8535000Y-2561000D02*
X8425000Y-2671000D01*
X9801000Y-3378000D02*
X9911000Y-3488000D01*
X9911000Y-3378000D02*
X9801000Y-3488000D01*
X9801000Y-3632000D02*
X9911000Y-3742000D01*
X9911000Y-3632000D02*
X9801000Y-3742000D01*
X10728000Y-8319000D02*
X10838000Y-8429000D01*
X10838000Y-8319000D02*
X10728000Y-8429000D01*
X10982000Y-8319000D02*
X11092000Y-8429000D01*
X11092000Y-8319000D02*
X10982000Y-8429000D01*
X11909000Y-5798000D02*
X12019000Y-5908000D01*
X12019000Y-5798000D02*
X11909000Y-5908000D01*
X11909000Y-6052000D02*
X12019000Y-6162000D01*
X12019000Y-6052000D02*
X11909000Y-6162000D01*
X11919000Y-4948000D02*
X12029000Y-5058000D01*
X12029000Y-4948000D02*
X11919000Y-5058000D01*
X11919000Y-5202000D02*
X12029000Y-5312000D01*
X12029000Y-5202000D02*
X11919000Y-5312000D01*
D11*
X6352619Y-8815476D02*
X6352619Y-8615476D01*
X6400238Y-8615476D01*
X6428809Y-8625000D01*
X6447857Y-8644048D01*
X6457381Y-8663095D01*
X6466905Y-8701190D01*
X6466905Y-8729762D01*
X6457381Y-8767857D01*
X6447857Y-8786905D01*
X6428809Y-8805952D01*
X6400238Y-8815476D01*
X6352619Y-8815476D01*
X6552619Y-8815476D02*
X6552619Y-8682143D01*
X6552619Y-8720238D02*
X6562143Y-8701190D01*
X6571667Y-8691667D01*
X6590714Y-8682143D01*
X6609762Y-8682143D01*
X6676428Y-8815476D02*
X6676428Y-8682143D01*
X6676428Y-8615476D02*
X6666905Y-8625000D01*
X6676428Y-8634524D01*
X6685952Y-8625000D01*
X6676428Y-8615476D01*
X6676428Y-8634524D01*
X6800238Y-8815476D02*
X6781190Y-8805952D01*
X6771667Y-8786905D01*
X6771667Y-8615476D01*
X6905000Y-8815476D02*
X6885952Y-8805952D01*
X6876428Y-8786905D01*
X6876428Y-8615476D01*
X7133571Y-8815476D02*
X7133571Y-8615476D01*
X7200238Y-8758333D01*
X7266905Y-8615476D01*
X7266905Y-8815476D01*
X7447857Y-8815476D02*
X7447857Y-8710714D01*
X7438333Y-8691667D01*
X7419286Y-8682143D01*
X7381190Y-8682143D01*
X7362143Y-8691667D01*
X7447857Y-8805952D02*
X7428809Y-8815476D01*
X7381190Y-8815476D01*
X7362143Y-8805952D01*
X7352619Y-8786905D01*
X7352619Y-8767857D01*
X7362143Y-8748810D01*
X7381190Y-8739286D01*
X7428809Y-8739286D01*
X7447857Y-8729762D01*
X7543095Y-8682143D02*
X7543095Y-8882143D01*
X7543095Y-8691667D02*
X7562143Y-8682143D01*
X7600238Y-8682143D01*
X7619286Y-8691667D01*
X7628809Y-8701190D01*
X7638333Y-8720238D01*
X7638333Y-8777381D01*
X7628809Y-8796429D01*
X7619286Y-8805952D01*
X7600238Y-8815476D01*
X7562143Y-8815476D01*
X7543095Y-8805952D01*
X7724048Y-8796429D02*
X7733571Y-8805952D01*
X7724048Y-8815476D01*
X7714524Y-8805952D01*
X7724048Y-8796429D01*
X7724048Y-8815476D01*
X7724048Y-8691667D02*
X7733571Y-8701190D01*
X7724048Y-8710714D01*
X7714524Y-8701190D01*
X7724048Y-8691667D01*
X7724048Y-8710714D01*
D12*
X5985000Y-9090000D02*
X6095000Y-9200000D01*
X6095000Y-9090000D02*
X5985000Y-9200000D01*
D11*
X6457381Y-9235476D02*
X6343095Y-9235476D01*
X6400238Y-9235476D02*
X6400238Y-9035476D01*
X6381190Y-9064048D01*
X6362143Y-9083095D01*
X6343095Y-9092619D01*
X6543095Y-9216429D02*
X6552619Y-9225952D01*
X6543095Y-9235476D01*
X6533571Y-9225952D01*
X6543095Y-9216429D01*
X6543095Y-9235476D01*
X6743095Y-9235476D02*
X6628809Y-9235476D01*
X6685952Y-9235476D02*
X6685952Y-9035476D01*
X6666905Y-9064048D01*
X6647857Y-9083095D01*
X6628809Y-9092619D01*
X6866905Y-9035476D02*
X6885952Y-9035476D01*
X6905000Y-9045000D01*
X6914524Y-9054524D01*
X6924048Y-9073571D01*
X6933571Y-9111667D01*
X6933571Y-9159286D01*
X6924048Y-9197381D01*
X6914524Y-9216429D01*
X6905000Y-9225952D01*
X6885952Y-9235476D01*
X6866905Y-9235476D01*
X6847857Y-9225952D01*
X6838333Y-9216429D01*
X6828809Y-9197381D01*
X6819286Y-9159286D01*
X6819286Y-9111667D01*
X6828809Y-9073571D01*
X6838333Y-9054524D01*
X6847857Y-9045000D01*
X6866905Y-9035476D01*
X7057381Y-9035476D02*
X7076428Y-9035476D01*
X7095476Y-9045000D01*
X7105000Y-9054524D01*
X7114524Y-9073571D01*
X7124048Y-9111667D01*
X7124048Y-9159286D01*
X7114524Y-9197381D01*
X7105000Y-9216429D01*
X7095476Y-9225952D01*
X7076428Y-9235476D01*
X7057381Y-9235476D01*
X7038333Y-9225952D01*
X7028809Y-9216429D01*
X7019286Y-9197381D01*
X7009762Y-9159286D01*
X7009762Y-9111667D01*
X7019286Y-9073571D01*
X7028809Y-9054524D01*
X7038333Y-9045000D01*
X7057381Y-9035476D01*
X7209762Y-9235476D02*
X7209762Y-9102143D01*
X7209762Y-9121190D02*
X7219286Y-9111667D01*
X7238333Y-9102143D01*
X7266905Y-9102143D01*
X7285952Y-9111667D01*
X7295476Y-9130714D01*
X7295476Y-9235476D01*
X7295476Y-9130714D02*
X7305000Y-9111667D01*
X7324048Y-9102143D01*
X7352619Y-9102143D01*
X7371667Y-9111667D01*
X7381190Y-9130714D01*
X7381190Y-9235476D01*
X7476428Y-9235476D02*
X7476428Y-9102143D01*
X7476428Y-9121190D02*
X7485952Y-9111667D01*
X7505000Y-9102143D01*
X7533571Y-9102143D01*
X7552619Y-9111667D01*
X7562143Y-9130714D01*
X7562143Y-9235476D01*
X7562143Y-9130714D02*
X7571667Y-9111667D01*
X7590714Y-9102143D01*
X7619286Y-9102143D01*
X7638333Y-9111667D01*
X7647857Y-9130714D01*
X7647857Y-9235476D01*
X8038333Y-9025952D02*
X7866905Y-9283095D01*
X8295476Y-9035476D02*
X8314524Y-9035476D01*
X8333571Y-9045000D01*
X8343095Y-9054524D01*
X8352619Y-9073571D01*
X8362143Y-9111667D01*
X8362143Y-9159286D01*
X8352619Y-9197381D01*
X8343095Y-9216429D01*
X8333571Y-9225952D01*
X8314524Y-9235476D01*
X8295476Y-9235476D01*
X8276428Y-9225952D01*
X8266905Y-9216429D01*
X8257381Y-9197381D01*
X8247857Y-9159286D01*
X8247857Y-9111667D01*
X8257381Y-9073571D01*
X8266905Y-9054524D01*
X8276428Y-9045000D01*
X8295476Y-9035476D01*
X8447857Y-9216429D02*
X8457381Y-9225952D01*
X8447857Y-9235476D01*
X8438333Y-9225952D01*
X8447857Y-9216429D01*
X8447857Y-9235476D01*
X8581190Y-9035476D02*
X8600238Y-9035476D01*
X8619286Y-9045000D01*
X8628810Y-9054524D01*
X8638333Y-9073571D01*
X8647857Y-9111667D01*
X8647857Y-9159286D01*
X8638333Y-9197381D01*
X8628810Y-9216429D01*
X8619286Y-9225952D01*
X8600238Y-9235476D01*
X8581190Y-9235476D01*
X8562143Y-9225952D01*
X8552619Y-9216429D01*
X8543095Y-9197381D01*
X8533571Y-9159286D01*
X8533571Y-9111667D01*
X8543095Y-9073571D01*
X8552619Y-9054524D01*
X8562143Y-9045000D01*
X8581190Y-9035476D01*
X8819286Y-9102143D02*
X8819286Y-9235476D01*
X8771667Y-9025952D02*
X8724048Y-9168810D01*
X8847857Y-9168810D01*
X8905000Y-9035476D02*
X9028810Y-9035476D01*
X8962143Y-9111667D01*
X8990714Y-9111667D01*
X9009762Y-9121190D01*
X9019286Y-9130714D01*
X9028810Y-9149762D01*
X9028810Y-9197381D01*
X9019286Y-9216429D01*
X9009762Y-9225952D01*
X8990714Y-9235476D01*
X8933571Y-9235476D01*
X8914524Y-9225952D01*
X8905000Y-9216429D01*
X9095476Y-9035476D02*
X9219286Y-9035476D01*
X9152619Y-9111667D01*
X9181190Y-9111667D01*
X9200238Y-9121190D01*
X9209762Y-9130714D01*
X9219286Y-9149762D01*
X9219286Y-9197381D01*
X9209762Y-9216429D01*
X9200238Y-9225952D01*
X9181190Y-9235476D01*
X9124048Y-9235476D01*
X9105000Y-9225952D01*
X9095476Y-9216429D01*
X9295476Y-9035476D02*
X9295476Y-9073571D01*
X9371667Y-9035476D02*
X9371667Y-9073571D01*
X9666905Y-9311667D02*
X9657381Y-9302143D01*
X9638333Y-9273571D01*
X9628810Y-9254524D01*
X9619286Y-9225952D01*
X9609762Y-9178333D01*
X9609762Y-9140238D01*
X9619286Y-9092619D01*
X9628810Y-9064048D01*
X9638333Y-9045000D01*
X9657381Y-9016429D01*
X9666905Y-9006905D01*
X9847857Y-9235476D02*
X9733571Y-9235476D01*
X9790714Y-9235476D02*
X9790714Y-9035476D01*
X9771667Y-9064048D01*
X9752619Y-9083095D01*
X9733571Y-9092619D01*
X10019286Y-9102143D02*
X10019286Y-9235476D01*
X9971667Y-9025952D02*
X9924048Y-9168810D01*
X10047857Y-9168810D01*
X10276429Y-9235476D02*
X10276429Y-9035476D01*
X10362143Y-9235476D02*
X10362143Y-9130714D01*
X10352619Y-9111667D01*
X10333571Y-9102143D01*
X10305000Y-9102143D01*
X10285952Y-9111667D01*
X10276429Y-9121190D01*
X10485952Y-9235476D02*
X10466905Y-9225952D01*
X10457381Y-9216429D01*
X10447857Y-9197381D01*
X10447857Y-9140238D01*
X10457381Y-9121190D01*
X10466905Y-9111667D01*
X10485952Y-9102143D01*
X10514524Y-9102143D01*
X10533571Y-9111667D01*
X10543095Y-9121190D01*
X10552619Y-9140238D01*
X10552619Y-9197381D01*
X10543095Y-9216429D01*
X10533571Y-9225952D01*
X10514524Y-9235476D01*
X10485952Y-9235476D01*
X10666905Y-9235476D02*
X10647857Y-9225952D01*
X10638333Y-9206905D01*
X10638333Y-9035476D01*
X10819286Y-9225952D02*
X10800238Y-9235476D01*
X10762143Y-9235476D01*
X10743095Y-9225952D01*
X10733571Y-9206905D01*
X10733571Y-9130714D01*
X10743095Y-9111667D01*
X10762143Y-9102143D01*
X10800238Y-9102143D01*
X10819286Y-9111667D01*
X10828810Y-9130714D01*
X10828810Y-9149762D01*
X10733571Y-9168810D01*
X10905000Y-9225952D02*
X10924048Y-9235476D01*
X10962143Y-9235476D01*
X10981190Y-9225952D01*
X10990714Y-9206905D01*
X10990714Y-9197381D01*
X10981190Y-9178333D01*
X10962143Y-9168810D01*
X10933571Y-9168810D01*
X10914524Y-9159286D01*
X10905000Y-9140238D01*
X10905000Y-9130714D01*
X10914524Y-9111667D01*
X10933571Y-9102143D01*
X10962143Y-9102143D01*
X10981190Y-9111667D01*
X11057381Y-9311667D02*
X11066905Y-9302143D01*
X11085952Y-9273571D01*
X11095476Y-9254524D01*
X11105000Y-9225952D01*
X11114524Y-9178333D01*
X11114524Y-9140238D01*
X11105000Y-9092619D01*
X11095476Y-9064048D01*
X11085952Y-9045000D01*
X11066905Y-9016429D01*
X11057381Y-9006905D01*
X11419286Y-9311667D02*
X11409762Y-9302143D01*
X11390714Y-9273571D01*
X11381190Y-9254524D01*
X11371667Y-9225952D01*
X11362143Y-9178333D01*
X11362143Y-9140238D01*
X11371667Y-9092619D01*
X11381190Y-9064048D01*
X11390714Y-9045000D01*
X11409762Y-9016429D01*
X11419286Y-9006905D01*
X11495476Y-9102143D02*
X11495476Y-9235476D01*
X11495476Y-9121190D02*
X11505000Y-9111667D01*
X11524048Y-9102143D01*
X11552619Y-9102143D01*
X11571667Y-9111667D01*
X11581190Y-9130714D01*
X11581190Y-9235476D01*
X11705000Y-9235476D02*
X11685952Y-9225952D01*
X11676428Y-9216429D01*
X11666905Y-9197381D01*
X11666905Y-9140238D01*
X11676428Y-9121190D01*
X11685952Y-9111667D01*
X11705000Y-9102143D01*
X11733571Y-9102143D01*
X11752619Y-9111667D01*
X11762143Y-9121190D01*
X11771667Y-9140238D01*
X11771667Y-9197381D01*
X11762143Y-9216429D01*
X11752619Y-9225952D01*
X11733571Y-9235476D01*
X11705000Y-9235476D01*
X11828809Y-9102143D02*
X11905000Y-9102143D01*
X11857381Y-9035476D02*
X11857381Y-9206905D01*
X11866905Y-9225952D01*
X11885952Y-9235476D01*
X11905000Y-9235476D01*
X12124048Y-9102143D02*
X12124048Y-9302143D01*
X12124048Y-9111667D02*
X12143095Y-9102143D01*
X12181190Y-9102143D01*
X12200238Y-9111667D01*
X12209762Y-9121190D01*
X12219286Y-9140238D01*
X12219286Y-9197381D01*
X12209762Y-9216429D01*
X12200238Y-9225952D01*
X12181190Y-9235476D01*
X12143095Y-9235476D01*
X12124048Y-9225952D01*
X12333571Y-9235476D02*
X12314524Y-9225952D01*
X12305000Y-9206905D01*
X12305000Y-9035476D01*
X12495476Y-9235476D02*
X12495476Y-9130714D01*
X12485952Y-9111667D01*
X12466905Y-9102143D01*
X12428809Y-9102143D01*
X12409762Y-9111667D01*
X12495476Y-9225952D02*
X12476428Y-9235476D01*
X12428809Y-9235476D01*
X12409762Y-9225952D01*
X12400238Y-9206905D01*
X12400238Y-9187857D01*
X12409762Y-9168810D01*
X12428809Y-9159286D01*
X12476428Y-9159286D01*
X12495476Y-9149762D01*
X12562143Y-9102143D02*
X12638333Y-9102143D01*
X12590714Y-9035476D02*
X12590714Y-9206905D01*
X12600238Y-9225952D01*
X12619286Y-9235476D01*
X12638333Y-9235476D01*
X12781190Y-9225952D02*
X12762143Y-9235476D01*
X12724048Y-9235476D01*
X12705000Y-9225952D01*
X12695476Y-9206905D01*
X12695476Y-9130714D01*
X12705000Y-9111667D01*
X12724048Y-9102143D01*
X12762143Y-9102143D01*
X12781190Y-9111667D01*
X12790714Y-9130714D01*
X12790714Y-9149762D01*
X12695476Y-9168810D01*
X12962143Y-9235476D02*
X12962143Y-9035476D01*
X12962143Y-9225952D02*
X12943095Y-9235476D01*
X12905000Y-9235476D01*
X12885952Y-9225952D01*
X12876428Y-9216429D01*
X12866905Y-9197381D01*
X12866905Y-9140238D01*
X12876428Y-9121190D01*
X12885952Y-9111667D01*
X12905000Y-9102143D01*
X12943095Y-9102143D01*
X12962143Y-9111667D01*
X13038333Y-9311667D02*
X13047857Y-9302143D01*
X13066905Y-9273571D01*
X13076428Y-9254524D01*
X13085952Y-9225952D01*
X13095476Y-9178333D01*
X13095476Y-9140238D01*
X13085952Y-9092619D01*
X13076428Y-9064048D01*
X13066905Y-9045000D01*
X13047857Y-9016429D01*
X13038333Y-9006905D01*
M02*
