M48
; DRILL file {KiCad (6.0.8)} date Sun Nov 27 13:07:10 2022
; FORMAT={-:-/ absolute / metric / decimal}
; #@! TF.CreationDate,2022-11-27T13:07:10-05:00
; #@! TF.GenerationSoftware,Kicad,Pcbnew,(6.0.8)
; #@! TF.FileFunction,Plated,1,4,PTH
FMAT,2
METRIC
; #@! TA.AperFunction,Plated,PTH,ViaDrill
T1C0.400
; #@! TA.AperFunction,Plated,PTH,ComponentDrill
T2C1.000
; #@! TA.AperFunction,Plated,PTH,ComponentDrill
T3C1.100
; #@! TA.AperFunction,Plated,PTH,ComponentDrill
T4C2.200
%
G90
G05
T1
X62.7Y-63.2
X63.4Y-56.9
X64.0Y-62.0
X64.4Y-66.9
X64.9Y-69.4
X66.7Y-71.2
X67.1Y-63.0
X69.2Y-56.8
X69.9Y-71.0
X71.1Y-70.2
X72.0Y-74.2
X72.7Y-56.1
X72.7Y-76.7
X74.9Y-47.4
X76.7Y-56.3
X76.8Y-49.6
X77.0Y-68.3
X77.8Y-66.1
X78.3Y-56.5
X78.6Y-51.5
X79.5Y-56.5
X79.9Y-71.2
X81.2Y-44.3
X83.5Y-44.3
X85.5Y-62.1
X85.5Y-72.2
X86.8Y-61.3
X87.1Y-63.1
X87.8Y-52.8
X87.8Y-69.8
X88.2Y-71.1
X88.3Y-48.85
X88.7Y-61.0
X89.8Y-56.2
X90.3Y-48.85
X90.3Y-76.7
X90.9Y-70.7
X92.3Y-48.85
X93.2Y-80.2
X94.1Y-48.85
X94.994Y-66.5
X94.994Y-70.4
X95.094Y-67.8
X95.094Y-69.1
X95.2Y-82.6
X96.8Y-62.8
X97.3Y-82.5
X98.9Y-68.1
X99.3Y-75.6
X99.4Y-82.5
X101.094Y-67.4
X101.4Y-82.5
X102.5Y-64.8
X103.0Y-46.45
X103.7Y-54.2
X104.6Y-78.2
X104.8Y-75.8
X105.3Y-49.0
X105.3Y-54.2
T2
X63.68Y-72.18
X63.68Y-74.72
X63.68Y-77.26
X63.68Y-79.8
T3
X65.4Y-41.9
X65.4Y-44.44
X65.4Y-48.73
X65.4Y-51.27
X75.06Y-40.7
X77.6Y-40.7
X90.3Y-39.13
X90.3Y-41.67
X105.03Y-80.6
X107.57Y-80.6
X108.6Y-59.63
X108.6Y-62.17
X108.6Y-67.03
X108.6Y-69.57
T4
X61.5Y-36.8
X61.5Y-84.5
X112.5Y-84.549
X112.7Y-36.8
T0
M30
