G04 #@! TF.GenerationSoftware,KiCad,Pcbnew,(6.0.8)*
G04 #@! TF.CreationDate,2022-10-29T16:07:11-04:00*
G04 #@! TF.ProjectId,miura_board,6d697572-615f-4626-9f61-72642e6b6963,rev?*
G04 #@! TF.SameCoordinates,Original*
G04 #@! TF.FileFunction,Legend,Top*
G04 #@! TF.FilePolarity,Positive*
%FSLAX46Y46*%
G04 Gerber Fmt 4.6, Leading zero omitted, Abs format (unit mm)*
G04 Created by KiCad (PCBNEW (6.0.8)) date 2022-10-29 16:07:11*
%MOMM*%
%LPD*%
G01*
G04 APERTURE LIST*
G04 Aperture macros list*
%AMRoundRect*
0 Rectangle with rounded corners*
0 $1 Rounding radius*
0 $2 $3 $4 $5 $6 $7 $8 $9 X,Y pos of 4 corners*
0 Add a 4 corners polygon primitive as box body*
4,1,4,$2,$3,$4,$5,$6,$7,$8,$9,$2,$3,0*
0 Add four circle primitives for the rounded corners*
1,1,$1+$1,$2,$3*
1,1,$1+$1,$4,$5*
1,1,$1+$1,$6,$7*
1,1,$1+$1,$8,$9*
0 Add four rect primitives between the rounded corners*
20,1,$1+$1,$2,$3,$4,$5,0*
20,1,$1+$1,$4,$5,$6,$7,0*
20,1,$1+$1,$6,$7,$8,$9,0*
20,1,$1+$1,$8,$9,$2,$3,0*%
G04 Aperture macros list end*
%ADD10C,0.300000*%
%ADD11C,0.150000*%
%ADD12C,0.120000*%
%ADD13C,0.500000*%
%ADD14RoundRect,0.225000X-0.250000X0.225000X-0.250000X-0.225000X0.250000X-0.225000X0.250000X0.225000X0*%
%ADD15C,1.100000*%
%ADD16R,2.200000X2.200000*%
%ADD17C,2.200000*%
%ADD18R,3.556000X3.556000*%
%ADD19O,2.500000X0.900000*%
%ADD20O,0.900000X2.500000*%
%ADD21RoundRect,0.225000X0.250000X-0.225000X0.250000X0.225000X-0.250000X0.225000X-0.250000X-0.225000X0*%
%ADD22RoundRect,0.100000X-0.637500X-0.100000X0.637500X-0.100000X0.637500X0.100000X-0.637500X0.100000X0*%
%ADD23R,1.000000X2.750000*%
%ADD24RoundRect,0.237500X0.250000X0.237500X-0.250000X0.237500X-0.250000X-0.237500X0.250000X-0.237500X0*%
%ADD25C,3.800000*%
%ADD26RoundRect,0.100000X0.637500X0.100000X-0.637500X0.100000X-0.637500X-0.100000X0.637500X-0.100000X0*%
%ADD27RoundRect,0.225000X-0.225000X-0.250000X0.225000X-0.250000X0.225000X0.250000X-0.225000X0.250000X0*%
%ADD28R,1.700000X1.700000*%
%ADD29O,1.700000X1.700000*%
%ADD30RoundRect,0.218750X-0.256250X0.218750X-0.256250X-0.218750X0.256250X-0.218750X0.256250X0.218750X0*%
%ADD31RoundRect,0.237500X0.237500X-0.250000X0.237500X0.250000X-0.237500X0.250000X-0.237500X-0.250000X0*%
%ADD32RoundRect,0.075000X0.350000X0.075000X-0.350000X0.075000X-0.350000X-0.075000X0.350000X-0.075000X0*%
%ADD33RoundRect,0.075000X-0.075000X0.350000X-0.075000X-0.350000X0.075000X-0.350000X0.075000X0.350000X0*%
%ADD34R,2.750000X1.000000*%
%ADD35R,1.500000X2.000000*%
%ADD36R,3.800000X2.000000*%
%ADD37R,1.200000X2.200000*%
%ADD38R,5.800000X6.400000*%
%ADD39RoundRect,0.225000X0.225000X0.250000X-0.225000X0.250000X-0.225000X-0.250000X0.225000X-0.250000X0*%
G04 APERTURE END LIST*
D10*
X80378571Y-76728571D02*
X81450000Y-76728571D01*
X81664285Y-76800000D01*
X81807142Y-76942857D01*
X81878571Y-77157142D01*
X81878571Y-77300000D01*
X81878571Y-75300000D02*
X81878571Y-76014285D01*
X80378571Y-76014285D01*
X81735714Y-73942857D02*
X81807142Y-74014285D01*
X81878571Y-74228571D01*
X81878571Y-74371428D01*
X81807142Y-74585714D01*
X81664285Y-74728571D01*
X81521428Y-74800000D01*
X81235714Y-74871428D01*
X81021428Y-74871428D01*
X80735714Y-74800000D01*
X80592857Y-74728571D01*
X80450000Y-74585714D01*
X80378571Y-74371428D01*
X80378571Y-74228571D01*
X80450000Y-74014285D01*
X80521428Y-73942857D01*
X80378571Y-72871428D02*
X81450000Y-72871428D01*
X81664285Y-72942857D01*
X81807142Y-73085714D01*
X81878571Y-73300000D01*
X81878571Y-73442857D01*
X81878571Y-71442857D02*
X81878571Y-72157142D01*
X80378571Y-72157142D01*
X81735714Y-70085714D02*
X81807142Y-70157142D01*
X81878571Y-70371428D01*
X81878571Y-70514285D01*
X81807142Y-70728571D01*
X81664285Y-70871428D01*
X81521428Y-70942857D01*
X81235714Y-71014285D01*
X81021428Y-71014285D01*
X80735714Y-70942857D01*
X80592857Y-70871428D01*
X80450000Y-70728571D01*
X80378571Y-70514285D01*
X80378571Y-70371428D01*
X80450000Y-70157142D01*
X80521428Y-70085714D01*
X80378571Y-69014285D02*
X81450000Y-69014285D01*
X81664285Y-69085714D01*
X81807142Y-69228571D01*
X81878571Y-69442857D01*
X81878571Y-69585714D01*
X81878571Y-67585714D02*
X81878571Y-68300000D01*
X80378571Y-68300000D01*
X81735714Y-66228571D02*
X81807142Y-66300000D01*
X81878571Y-66514285D01*
X81878571Y-66657142D01*
X81807142Y-66871428D01*
X81664285Y-67014285D01*
X81521428Y-67085714D01*
X81235714Y-67157142D01*
X81021428Y-67157142D01*
X80735714Y-67085714D01*
X80592857Y-67014285D01*
X80450000Y-66871428D01*
X80378571Y-66657142D01*
X80378571Y-66514285D01*
X80450000Y-66300000D01*
X80521428Y-66228571D01*
X80378571Y-65157142D02*
X81450000Y-65157142D01*
X81664285Y-65228571D01*
X81807142Y-65371428D01*
X81878571Y-65585714D01*
X81878571Y-65728571D01*
X81878571Y-63728571D02*
X81878571Y-64442857D01*
X80378571Y-64442857D01*
X81735714Y-62371428D02*
X81807142Y-62442857D01*
X81878571Y-62657142D01*
X81878571Y-62800000D01*
X81807142Y-63014285D01*
X81664285Y-63157142D01*
X81521428Y-63228571D01*
X81235714Y-63300000D01*
X81021428Y-63300000D01*
X80735714Y-63228571D01*
X80592857Y-63157142D01*
X80450000Y-63014285D01*
X80378571Y-62800000D01*
X80378571Y-62657142D01*
X80450000Y-62442857D01*
X80521428Y-62371428D01*
D11*
X65838095Y-77752380D02*
X66409523Y-77752380D01*
X66123809Y-78752380D02*
X66123809Y-77752380D01*
X66647619Y-77752380D02*
X67314285Y-78752380D01*
X67314285Y-77752380D02*
X66647619Y-78752380D01*
X66138095Y-72400000D02*
X66042857Y-72352380D01*
X65900000Y-72352380D01*
X65757142Y-72400000D01*
X65661904Y-72495238D01*
X65614285Y-72590476D01*
X65566666Y-72780952D01*
X65566666Y-72923809D01*
X65614285Y-73114285D01*
X65661904Y-73209523D01*
X65757142Y-73304761D01*
X65900000Y-73352380D01*
X65995238Y-73352380D01*
X66138095Y-73304761D01*
X66185714Y-73257142D01*
X66185714Y-72923809D01*
X65995238Y-72923809D01*
X66614285Y-73352380D02*
X66614285Y-72352380D01*
X67185714Y-73352380D01*
X67185714Y-72352380D01*
X67661904Y-73352380D02*
X67661904Y-72352380D01*
X67900000Y-72352380D01*
X68042857Y-72400000D01*
X68138095Y-72495238D01*
X68185714Y-72590476D01*
X68233333Y-72780952D01*
X68233333Y-72923809D01*
X68185714Y-73114285D01*
X68138095Y-73209523D01*
X68042857Y-73304761D01*
X67900000Y-73352380D01*
X67661904Y-73352380D01*
X64742857Y-50028571D02*
X64885714Y-50076190D01*
X64933333Y-50123809D01*
X64980952Y-50219047D01*
X64980952Y-50361904D01*
X64933333Y-50457142D01*
X64885714Y-50504761D01*
X64790476Y-50552380D01*
X64409523Y-50552380D01*
X64409523Y-49552380D01*
X64742857Y-49552380D01*
X64838095Y-49600000D01*
X64885714Y-49647619D01*
X64933333Y-49742857D01*
X64933333Y-49838095D01*
X64885714Y-49933333D01*
X64838095Y-49980952D01*
X64742857Y-50028571D01*
X64409523Y-50028571D01*
X65600000Y-49552380D02*
X65790476Y-49552380D01*
X65885714Y-49600000D01*
X65980952Y-49695238D01*
X66028571Y-49885714D01*
X66028571Y-50219047D01*
X65980952Y-50409523D01*
X65885714Y-50504761D01*
X65790476Y-50552380D01*
X65600000Y-50552380D01*
X65504761Y-50504761D01*
X65409523Y-50409523D01*
X65361904Y-50219047D01*
X65361904Y-49885714D01*
X65409523Y-49695238D01*
X65504761Y-49600000D01*
X65600000Y-49552380D01*
X66647619Y-49552380D02*
X66838095Y-49552380D01*
X66933333Y-49600000D01*
X67028571Y-49695238D01*
X67076190Y-49885714D01*
X67076190Y-50219047D01*
X67028571Y-50409523D01*
X66933333Y-50504761D01*
X66838095Y-50552380D01*
X66647619Y-50552380D01*
X66552380Y-50504761D01*
X66457142Y-50409523D01*
X66409523Y-50219047D01*
X66409523Y-49885714D01*
X66457142Y-49695238D01*
X66552380Y-49600000D01*
X66647619Y-49552380D01*
X67361904Y-49552380D02*
X67933333Y-49552380D01*
X67647619Y-50552380D02*
X67647619Y-49552380D01*
X66333333Y-75952380D02*
X66000000Y-75476190D01*
X65761904Y-75952380D02*
X65761904Y-74952380D01*
X66142857Y-74952380D01*
X66238095Y-75000000D01*
X66285714Y-75047619D01*
X66333333Y-75142857D01*
X66333333Y-75285714D01*
X66285714Y-75380952D01*
X66238095Y-75428571D01*
X66142857Y-75476190D01*
X65761904Y-75476190D01*
X66666666Y-74952380D02*
X67333333Y-75952380D01*
X67333333Y-74952380D02*
X66666666Y-75952380D01*
X99047619Y-67452380D02*
X98714285Y-66976190D01*
X98476190Y-67452380D02*
X98476190Y-66452380D01*
X98857142Y-66452380D01*
X98952380Y-66500000D01*
X99000000Y-66547619D01*
X99047619Y-66642857D01*
X99047619Y-66785714D01*
X99000000Y-66880952D01*
X98952380Y-66928571D01*
X98857142Y-66976190D01*
X98476190Y-66976190D01*
X99476190Y-66928571D02*
X99809523Y-66928571D01*
X99952380Y-67452380D02*
X99476190Y-67452380D01*
X99476190Y-66452380D01*
X99952380Y-66452380D01*
X100333333Y-67404761D02*
X100476190Y-67452380D01*
X100714285Y-67452380D01*
X100809523Y-67404761D01*
X100857142Y-67357142D01*
X100904761Y-67261904D01*
X100904761Y-67166666D01*
X100857142Y-67071428D01*
X100809523Y-67023809D01*
X100714285Y-66976190D01*
X100523809Y-66928571D01*
X100428571Y-66880952D01*
X100380952Y-66833333D01*
X100333333Y-66738095D01*
X100333333Y-66642857D01*
X100380952Y-66547619D01*
X100428571Y-66500000D01*
X100523809Y-66452380D01*
X100761904Y-66452380D01*
X100904761Y-66500000D01*
X101333333Y-66928571D02*
X101666666Y-66928571D01*
X101809523Y-67452380D02*
X101333333Y-67452380D01*
X101333333Y-66452380D01*
X101809523Y-66452380D01*
X102095238Y-66452380D02*
X102666666Y-66452380D01*
X102380952Y-67452380D02*
X102380952Y-66452380D01*
X98357142Y-57969523D02*
X98357142Y-53969523D01*
X99690476Y-56826666D01*
X101023809Y-53969523D01*
X101023809Y-57969523D01*
X102928571Y-57969523D02*
X102928571Y-55302857D01*
X102928571Y-53969523D02*
X102738095Y-54160000D01*
X102928571Y-54350476D01*
X103119047Y-54160000D01*
X102928571Y-53969523D01*
X102928571Y-54350476D01*
X106547619Y-55302857D02*
X106547619Y-57969523D01*
X104833333Y-55302857D02*
X104833333Y-57398095D01*
X105023809Y-57779047D01*
X105404761Y-57969523D01*
X105976190Y-57969523D01*
X106357142Y-57779047D01*
X106547619Y-57588571D01*
X108452380Y-57969523D02*
X108452380Y-55302857D01*
X108452380Y-56064761D02*
X108642857Y-55683809D01*
X108833333Y-55493333D01*
X109214285Y-55302857D01*
X109595238Y-55302857D01*
X112642857Y-57969523D02*
X112642857Y-55874285D01*
X112452380Y-55493333D01*
X112071428Y-55302857D01*
X111309523Y-55302857D01*
X110928571Y-55493333D01*
X112642857Y-57779047D02*
X112261904Y-57969523D01*
X111309523Y-57969523D01*
X110928571Y-57779047D01*
X110738095Y-57398095D01*
X110738095Y-57017142D01*
X110928571Y-56636190D01*
X111309523Y-56445714D01*
X112261904Y-56445714D01*
X112642857Y-56255238D01*
X102833333Y-62314285D02*
X103404761Y-62504761D01*
X103595238Y-62695238D01*
X103785714Y-63076190D01*
X103785714Y-63647619D01*
X103595238Y-64028571D01*
X103404761Y-64219047D01*
X103023809Y-64409523D01*
X101500000Y-64409523D01*
X101500000Y-60409523D01*
X102833333Y-60409523D01*
X103214285Y-60600000D01*
X103404761Y-60790476D01*
X103595238Y-61171428D01*
X103595238Y-61552380D01*
X103404761Y-61933333D01*
X103214285Y-62123809D01*
X102833333Y-62314285D01*
X101500000Y-62314285D01*
X106071428Y-64409523D02*
X105690476Y-64219047D01*
X105500000Y-64028571D01*
X105309523Y-63647619D01*
X105309523Y-62504761D01*
X105500000Y-62123809D01*
X105690476Y-61933333D01*
X106071428Y-61742857D01*
X106642857Y-61742857D01*
X107023809Y-61933333D01*
X107214285Y-62123809D01*
X107404761Y-62504761D01*
X107404761Y-63647619D01*
X107214285Y-64028571D01*
X107023809Y-64219047D01*
X106642857Y-64409523D01*
X106071428Y-64409523D01*
X108547619Y-61742857D02*
X110071428Y-61742857D01*
X109119047Y-60409523D02*
X109119047Y-63838095D01*
X109309523Y-64219047D01*
X109690476Y-64409523D01*
X110071428Y-64409523D01*
X65561904Y-69852380D02*
X66180952Y-69852380D01*
X65847619Y-70233333D01*
X65990476Y-70233333D01*
X66085714Y-70280952D01*
X66133333Y-70328571D01*
X66180952Y-70423809D01*
X66180952Y-70661904D01*
X66133333Y-70757142D01*
X66085714Y-70804761D01*
X65990476Y-70852380D01*
X65704761Y-70852380D01*
X65609523Y-70804761D01*
X65561904Y-70757142D01*
X66466666Y-69852380D02*
X66800000Y-70852380D01*
X67133333Y-69852380D01*
X67371428Y-69852380D02*
X67990476Y-69852380D01*
X67657142Y-70233333D01*
X67800000Y-70233333D01*
X67895238Y-70280952D01*
X67942857Y-70328571D01*
X67990476Y-70423809D01*
X67990476Y-70661904D01*
X67942857Y-70757142D01*
X67895238Y-70804761D01*
X67800000Y-70852380D01*
X67514285Y-70852380D01*
X67419047Y-70804761D01*
X67371428Y-70757142D01*
X66395238Y-26837380D02*
X66395238Y-25837380D01*
X66633333Y-25837380D01*
X66776190Y-25885000D01*
X66871428Y-25980238D01*
X66919047Y-26075476D01*
X66966666Y-26265952D01*
X66966666Y-26408809D01*
X66919047Y-26599285D01*
X66871428Y-26694523D01*
X66776190Y-26789761D01*
X66633333Y-26837380D01*
X66395238Y-26837380D01*
X67823809Y-26837380D02*
X67823809Y-26313571D01*
X67776190Y-26218333D01*
X67680952Y-26170714D01*
X67490476Y-26170714D01*
X67395238Y-26218333D01*
X67823809Y-26789761D02*
X67728571Y-26837380D01*
X67490476Y-26837380D01*
X67395238Y-26789761D01*
X67347619Y-26694523D01*
X67347619Y-26599285D01*
X67395238Y-26504047D01*
X67490476Y-26456428D01*
X67728571Y-26456428D01*
X67823809Y-26408809D01*
X68300000Y-26170714D02*
X68300000Y-27170714D01*
X68300000Y-26218333D02*
X68395238Y-26170714D01*
X68585714Y-26170714D01*
X68680952Y-26218333D01*
X68728571Y-26265952D01*
X68776190Y-26361190D01*
X68776190Y-26646904D01*
X68728571Y-26742142D01*
X68680952Y-26789761D01*
X68585714Y-26837380D01*
X68395238Y-26837380D01*
X68300000Y-26789761D01*
X69204761Y-26837380D02*
X69204761Y-25837380D01*
X69633333Y-26837380D02*
X69633333Y-26313571D01*
X69585714Y-26218333D01*
X69490476Y-26170714D01*
X69347619Y-26170714D01*
X69252380Y-26218333D01*
X69204761Y-26265952D01*
X70109523Y-26170714D02*
X70109523Y-26837380D01*
X70109523Y-26265952D02*
X70157142Y-26218333D01*
X70252380Y-26170714D01*
X70395238Y-26170714D01*
X70490476Y-26218333D01*
X70538095Y-26313571D01*
X70538095Y-26837380D01*
X71395238Y-26789761D02*
X71300000Y-26837380D01*
X71109523Y-26837380D01*
X71014285Y-26789761D01*
X70966666Y-26694523D01*
X70966666Y-26313571D01*
X71014285Y-26218333D01*
X71109523Y-26170714D01*
X71300000Y-26170714D01*
X71395238Y-26218333D01*
X71442857Y-26313571D01*
X71442857Y-26408809D01*
X70966666Y-26504047D01*
X72966666Y-26313571D02*
X73109523Y-26361190D01*
X73157142Y-26408809D01*
X73204761Y-26504047D01*
X73204761Y-26646904D01*
X73157142Y-26742142D01*
X73109523Y-26789761D01*
X73014285Y-26837380D01*
X72633333Y-26837380D01*
X72633333Y-25837380D01*
X72966666Y-25837380D01*
X73061904Y-25885000D01*
X73109523Y-25932619D01*
X73157142Y-26027857D01*
X73157142Y-26123095D01*
X73109523Y-26218333D01*
X73061904Y-26265952D01*
X72966666Y-26313571D01*
X72633333Y-26313571D01*
X74061904Y-26837380D02*
X74061904Y-26313571D01*
X74014285Y-26218333D01*
X73919047Y-26170714D01*
X73728571Y-26170714D01*
X73633333Y-26218333D01*
X74061904Y-26789761D02*
X73966666Y-26837380D01*
X73728571Y-26837380D01*
X73633333Y-26789761D01*
X73585714Y-26694523D01*
X73585714Y-26599285D01*
X73633333Y-26504047D01*
X73728571Y-26456428D01*
X73966666Y-26456428D01*
X74061904Y-26408809D01*
X74538095Y-26837380D02*
X74538095Y-26170714D01*
X74538095Y-26361190D02*
X74585714Y-26265952D01*
X74633333Y-26218333D01*
X74728571Y-26170714D01*
X74823809Y-26170714D01*
X75157142Y-26837380D02*
X75157142Y-26170714D01*
X75157142Y-26361190D02*
X75204761Y-26265952D01*
X75252380Y-26218333D01*
X75347619Y-26170714D01*
X75442857Y-26170714D01*
X76157142Y-26789761D02*
X76061904Y-26837380D01*
X75871428Y-26837380D01*
X75776190Y-26789761D01*
X75728571Y-26694523D01*
X75728571Y-26313571D01*
X75776190Y-26218333D01*
X75871428Y-26170714D01*
X76061904Y-26170714D01*
X76157142Y-26218333D01*
X76204761Y-26313571D01*
X76204761Y-26408809D01*
X75728571Y-26504047D01*
X76490476Y-26170714D02*
X76871428Y-26170714D01*
X76633333Y-25837380D02*
X76633333Y-26694523D01*
X76680952Y-26789761D01*
X76776190Y-26837380D01*
X76871428Y-26837380D01*
X77061904Y-26170714D02*
X77442857Y-26170714D01*
X77204761Y-25837380D02*
X77204761Y-26694523D01*
X77252380Y-26789761D01*
X77347619Y-26837380D01*
X77442857Y-26837380D01*
X77919047Y-26837380D02*
X77823809Y-26789761D01*
X77776190Y-26742142D01*
X77728571Y-26646904D01*
X77728571Y-26361190D01*
X77776190Y-26265952D01*
X77823809Y-26218333D01*
X77919047Y-26170714D01*
X78061904Y-26170714D01*
X78157142Y-26218333D01*
X78204761Y-26265952D01*
X78252380Y-26361190D01*
X78252380Y-26646904D01*
X78204761Y-26742142D01*
X78157142Y-26789761D01*
X78061904Y-26837380D01*
X77919047Y-26837380D01*
X68061904Y-28447380D02*
X68061904Y-27447380D01*
X68300000Y-27447380D01*
X68442857Y-27495000D01*
X68538095Y-27590238D01*
X68585714Y-27685476D01*
X68633333Y-27875952D01*
X68633333Y-28018809D01*
X68585714Y-28209285D01*
X68538095Y-28304523D01*
X68442857Y-28399761D01*
X68300000Y-28447380D01*
X68061904Y-28447380D01*
X69490476Y-28447380D02*
X69490476Y-27923571D01*
X69442857Y-27828333D01*
X69347619Y-27780714D01*
X69157142Y-27780714D01*
X69061904Y-27828333D01*
X69490476Y-28399761D02*
X69395238Y-28447380D01*
X69157142Y-28447380D01*
X69061904Y-28399761D01*
X69014285Y-28304523D01*
X69014285Y-28209285D01*
X69061904Y-28114047D01*
X69157142Y-28066428D01*
X69395238Y-28066428D01*
X69490476Y-28018809D01*
X69966666Y-28447380D02*
X69966666Y-27780714D01*
X69966666Y-27971190D02*
X70014285Y-27875952D01*
X70061904Y-27828333D01*
X70157142Y-27780714D01*
X70252380Y-27780714D01*
X70585714Y-28447380D02*
X70585714Y-27780714D01*
X70585714Y-27971190D02*
X70633333Y-27875952D01*
X70680952Y-27828333D01*
X70776190Y-27780714D01*
X70871428Y-27780714D01*
X71585714Y-28399761D02*
X71490476Y-28447380D01*
X71300000Y-28447380D01*
X71204761Y-28399761D01*
X71157142Y-28304523D01*
X71157142Y-27923571D01*
X71204761Y-27828333D01*
X71300000Y-27780714D01*
X71490476Y-27780714D01*
X71585714Y-27828333D01*
X71633333Y-27923571D01*
X71633333Y-28018809D01*
X71157142Y-28114047D01*
X72061904Y-27780714D02*
X72061904Y-28447380D01*
X72061904Y-27875952D02*
X72109523Y-27828333D01*
X72204761Y-27780714D01*
X72347619Y-27780714D01*
X72442857Y-27828333D01*
X72490476Y-27923571D01*
X72490476Y-28447380D01*
X74300000Y-28352142D02*
X74252380Y-28399761D01*
X74109523Y-28447380D01*
X74014285Y-28447380D01*
X73871428Y-28399761D01*
X73776190Y-28304523D01*
X73728571Y-28209285D01*
X73680952Y-28018809D01*
X73680952Y-27875952D01*
X73728571Y-27685476D01*
X73776190Y-27590238D01*
X73871428Y-27495000D01*
X74014285Y-27447380D01*
X74109523Y-27447380D01*
X74252380Y-27495000D01*
X74300000Y-27542619D01*
X74728571Y-28447380D02*
X74728571Y-27447380D01*
X75157142Y-28447380D02*
X75157142Y-27923571D01*
X75109523Y-27828333D01*
X75014285Y-27780714D01*
X74871428Y-27780714D01*
X74776190Y-27828333D01*
X74728571Y-27875952D01*
X75633333Y-28447380D02*
X75633333Y-27780714D01*
X75633333Y-27447380D02*
X75585714Y-27495000D01*
X75633333Y-27542619D01*
X75680952Y-27495000D01*
X75633333Y-27447380D01*
X75633333Y-27542619D01*
X76538095Y-27780714D02*
X76538095Y-28447380D01*
X76109523Y-27780714D02*
X76109523Y-28304523D01*
X76157142Y-28399761D01*
X76252380Y-28447380D01*
X76395238Y-28447380D01*
X76490476Y-28399761D01*
X76538095Y-28352142D01*
X68871428Y-30057380D02*
X68395238Y-30057380D01*
X68395238Y-29057380D01*
X69204761Y-30057380D02*
X69204761Y-29390714D01*
X69204761Y-29057380D02*
X69157142Y-29105000D01*
X69204761Y-29152619D01*
X69252380Y-29105000D01*
X69204761Y-29057380D01*
X69204761Y-29152619D01*
X69585714Y-29390714D02*
X70109523Y-29390714D01*
X69585714Y-30057380D01*
X70109523Y-30057380D01*
X70919047Y-30057380D02*
X70919047Y-29533571D01*
X70871428Y-29438333D01*
X70776190Y-29390714D01*
X70585714Y-29390714D01*
X70490476Y-29438333D01*
X70919047Y-30009761D02*
X70823809Y-30057380D01*
X70585714Y-30057380D01*
X70490476Y-30009761D01*
X70442857Y-29914523D01*
X70442857Y-29819285D01*
X70490476Y-29724047D01*
X70585714Y-29676428D01*
X70823809Y-29676428D01*
X70919047Y-29628809D01*
X72728571Y-29962142D02*
X72680952Y-30009761D01*
X72538095Y-30057380D01*
X72442857Y-30057380D01*
X72300000Y-30009761D01*
X72204761Y-29914523D01*
X72157142Y-29819285D01*
X72109523Y-29628809D01*
X72109523Y-29485952D01*
X72157142Y-29295476D01*
X72204761Y-29200238D01*
X72300000Y-29105000D01*
X72442857Y-29057380D01*
X72538095Y-29057380D01*
X72680952Y-29105000D01*
X72728571Y-29152619D01*
X73300000Y-30057380D02*
X73204761Y-30009761D01*
X73157142Y-29962142D01*
X73109523Y-29866904D01*
X73109523Y-29581190D01*
X73157142Y-29485952D01*
X73204761Y-29438333D01*
X73300000Y-29390714D01*
X73442857Y-29390714D01*
X73538095Y-29438333D01*
X73585714Y-29485952D01*
X73633333Y-29581190D01*
X73633333Y-29866904D01*
X73585714Y-29962142D01*
X73538095Y-30009761D01*
X73442857Y-30057380D01*
X73300000Y-30057380D01*
X73919047Y-29390714D02*
X74300000Y-29390714D01*
X74061904Y-29057380D02*
X74061904Y-29914523D01*
X74109523Y-30009761D01*
X74204761Y-30057380D01*
X74300000Y-30057380D01*
X74490476Y-29390714D02*
X74871428Y-29390714D01*
X74633333Y-29057380D02*
X74633333Y-29914523D01*
X74680952Y-30009761D01*
X74776190Y-30057380D01*
X74871428Y-30057380D01*
X75585714Y-30009761D02*
X75490476Y-30057380D01*
X75300000Y-30057380D01*
X75204761Y-30009761D01*
X75157142Y-29914523D01*
X75157142Y-29533571D01*
X75204761Y-29438333D01*
X75300000Y-29390714D01*
X75490476Y-29390714D01*
X75585714Y-29438333D01*
X75633333Y-29533571D01*
X75633333Y-29628809D01*
X75157142Y-29724047D01*
X76061904Y-30057380D02*
X76061904Y-29390714D01*
X76061904Y-29581190D02*
X76109523Y-29485952D01*
X76157142Y-29438333D01*
X76252380Y-29390714D01*
X76347619Y-29390714D01*
X64990476Y-31667380D02*
X64990476Y-30667380D01*
X65228571Y-30667380D01*
X65371428Y-30715000D01*
X65466666Y-30810238D01*
X65514285Y-30905476D01*
X65561904Y-31095952D01*
X65561904Y-31238809D01*
X65514285Y-31429285D01*
X65466666Y-31524523D01*
X65371428Y-31619761D01*
X65228571Y-31667380D01*
X64990476Y-31667380D01*
X66419047Y-31000714D02*
X66419047Y-31667380D01*
X65990476Y-31000714D02*
X65990476Y-31524523D01*
X66038095Y-31619761D01*
X66133333Y-31667380D01*
X66276190Y-31667380D01*
X66371428Y-31619761D01*
X66419047Y-31572142D01*
X66799999Y-31000714D02*
X67038095Y-31667380D01*
X67276190Y-31000714D02*
X67038095Y-31667380D01*
X66942857Y-31905476D01*
X66895238Y-31953095D01*
X66799999Y-32000714D01*
X68419047Y-31667380D02*
X68419047Y-30667380D01*
X68800000Y-30667380D01*
X68895238Y-30715000D01*
X68942857Y-30762619D01*
X68990476Y-30857857D01*
X68990476Y-31000714D01*
X68942857Y-31095952D01*
X68895238Y-31143571D01*
X68800000Y-31191190D01*
X68419047Y-31191190D01*
X69419047Y-31667380D02*
X69419047Y-30667380D01*
X69847619Y-31667380D02*
X69847619Y-31143571D01*
X69800000Y-31048333D01*
X69704761Y-31000714D01*
X69561904Y-31000714D01*
X69466666Y-31048333D01*
X69419047Y-31095952D01*
X70752380Y-31000714D02*
X70752380Y-31667380D01*
X70323809Y-31000714D02*
X70323809Y-31524523D01*
X70371428Y-31619761D01*
X70466666Y-31667380D01*
X70609523Y-31667380D01*
X70704761Y-31619761D01*
X70752380Y-31572142D01*
X71371428Y-31667380D02*
X71276190Y-31619761D01*
X71228571Y-31572142D01*
X71180952Y-31476904D01*
X71180952Y-31191190D01*
X71228571Y-31095952D01*
X71276190Y-31048333D01*
X71371428Y-31000714D01*
X71514285Y-31000714D01*
X71609523Y-31048333D01*
X71657142Y-31095952D01*
X71704761Y-31191190D01*
X71704761Y-31476904D01*
X71657142Y-31572142D01*
X71609523Y-31619761D01*
X71514285Y-31667380D01*
X71371428Y-31667380D01*
X72133333Y-31000714D02*
X72133333Y-31667380D01*
X72133333Y-31095952D02*
X72180952Y-31048333D01*
X72276190Y-31000714D01*
X72419047Y-31000714D01*
X72514285Y-31048333D01*
X72561904Y-31143571D01*
X72561904Y-31667380D01*
X73466666Y-31000714D02*
X73466666Y-31810238D01*
X73419047Y-31905476D01*
X73371428Y-31953095D01*
X73276190Y-32000714D01*
X73133333Y-32000714D01*
X73038095Y-31953095D01*
X73466666Y-31619761D02*
X73371428Y-31667380D01*
X73180952Y-31667380D01*
X73085714Y-31619761D01*
X73038095Y-31572142D01*
X72990476Y-31476904D01*
X72990476Y-31191190D01*
X73038095Y-31095952D01*
X73085714Y-31048333D01*
X73180952Y-31000714D01*
X73371428Y-31000714D01*
X73466666Y-31048333D01*
X74704761Y-31667380D02*
X74704761Y-30667380D01*
X75276190Y-31667380D01*
X75276190Y-30667380D01*
X76180952Y-31000714D02*
X76180952Y-31810238D01*
X76133333Y-31905476D01*
X76085714Y-31953095D01*
X75990476Y-32000714D01*
X75847619Y-32000714D01*
X75752380Y-31953095D01*
X76180952Y-31619761D02*
X76085714Y-31667380D01*
X75895238Y-31667380D01*
X75800000Y-31619761D01*
X75752380Y-31572142D01*
X75704761Y-31476904D01*
X75704761Y-31191190D01*
X75752380Y-31095952D01*
X75800000Y-31048333D01*
X75895238Y-31000714D01*
X76085714Y-31000714D01*
X76180952Y-31048333D01*
X77085714Y-31000714D02*
X77085714Y-31667380D01*
X76657142Y-31000714D02*
X76657142Y-31524523D01*
X76704761Y-31619761D01*
X76800000Y-31667380D01*
X76942857Y-31667380D01*
X77038095Y-31619761D01*
X77085714Y-31572142D01*
X77466666Y-31000714D02*
X77704761Y-31667380D01*
X77942857Y-31000714D02*
X77704761Y-31667380D01*
X77609523Y-31905476D01*
X77561904Y-31953095D01*
X77466666Y-32000714D01*
X78704761Y-31619761D02*
X78609523Y-31667380D01*
X78419047Y-31667380D01*
X78323809Y-31619761D01*
X78276190Y-31524523D01*
X78276190Y-31143571D01*
X78323809Y-31048333D01*
X78419047Y-31000714D01*
X78609523Y-31000714D01*
X78704761Y-31048333D01*
X78752380Y-31143571D01*
X78752380Y-31238809D01*
X78276190Y-31334047D01*
X79180952Y-31000714D02*
X79180952Y-31667380D01*
X79180952Y-31095952D02*
X79228571Y-31048333D01*
X79323809Y-31000714D01*
X79466666Y-31000714D01*
X79561904Y-31048333D01*
X79609523Y-31143571D01*
X79609523Y-31667380D01*
X110857142Y-47266666D02*
X110904761Y-47314285D01*
X110952380Y-47457142D01*
X110952380Y-47552380D01*
X110904761Y-47695238D01*
X110809523Y-47790476D01*
X110714285Y-47838095D01*
X110523809Y-47885714D01*
X110380952Y-47885714D01*
X110190476Y-47838095D01*
X110095238Y-47790476D01*
X110000000Y-47695238D01*
X109952380Y-47552380D01*
X109952380Y-47457142D01*
X110000000Y-47314285D01*
X110047619Y-47266666D01*
X110952380Y-46314285D02*
X110952380Y-46885714D01*
X110952380Y-46600000D02*
X109952380Y-46600000D01*
X110095238Y-46695238D01*
X110190476Y-46790476D01*
X110238095Y-46885714D01*
X113496666Y-80752380D02*
X113496666Y-81466666D01*
X113449047Y-81609523D01*
X113353809Y-81704761D01*
X113210952Y-81752380D01*
X113115714Y-81752380D01*
X113877619Y-80752380D02*
X114544285Y-80752380D01*
X114115714Y-81752380D01*
X68312380Y-37933333D02*
X69026666Y-37933333D01*
X69169523Y-37980952D01*
X69264761Y-38076190D01*
X69312380Y-38219047D01*
X69312380Y-38314285D01*
X68407619Y-37504761D02*
X68360000Y-37457142D01*
X68312380Y-37361904D01*
X68312380Y-37123809D01*
X68360000Y-37028571D01*
X68407619Y-36980952D01*
X68502857Y-36933333D01*
X68598095Y-36933333D01*
X68740952Y-36980952D01*
X69312380Y-37552380D01*
X69312380Y-36933333D01*
X112657142Y-47166666D02*
X112704761Y-47214285D01*
X112752380Y-47357142D01*
X112752380Y-47452380D01*
X112704761Y-47595238D01*
X112609523Y-47690476D01*
X112514285Y-47738095D01*
X112323809Y-47785714D01*
X112180952Y-47785714D01*
X111990476Y-47738095D01*
X111895238Y-47690476D01*
X111800000Y-47595238D01*
X111752380Y-47452380D01*
X111752380Y-47357142D01*
X111800000Y-47214285D01*
X111847619Y-47166666D01*
X112085714Y-46309523D02*
X112752380Y-46309523D01*
X111704761Y-46547619D02*
X112419047Y-46785714D01*
X112419047Y-46166666D01*
X71681095Y-79919380D02*
X71681095Y-80728904D01*
X71728714Y-80824142D01*
X71776333Y-80871761D01*
X71871571Y-80919380D01*
X72062047Y-80919380D01*
X72157285Y-80871761D01*
X72204904Y-80824142D01*
X72252523Y-80728904D01*
X72252523Y-79919380D01*
X73252523Y-80919380D02*
X72681095Y-80919380D01*
X72966809Y-80919380D02*
X72966809Y-79919380D01*
X72871571Y-80062238D01*
X72776333Y-80157476D01*
X72681095Y-80205095D01*
X78721571Y-77156380D02*
X78721571Y-76823047D01*
X79245380Y-76680190D02*
X79245380Y-77156380D01*
X78245380Y-77156380D01*
X78245380Y-76680190D01*
X79197761Y-76299238D02*
X79245380Y-76156380D01*
X79245380Y-75918285D01*
X79197761Y-75823047D01*
X79150142Y-75775428D01*
X79054904Y-75727809D01*
X78959666Y-75727809D01*
X78864428Y-75775428D01*
X78816809Y-75823047D01*
X78769190Y-75918285D01*
X78721571Y-76108761D01*
X78673952Y-76204000D01*
X78626333Y-76251619D01*
X78531095Y-76299238D01*
X78435857Y-76299238D01*
X78340619Y-76251619D01*
X78293000Y-76204000D01*
X78245380Y-76108761D01*
X78245380Y-75870666D01*
X78293000Y-75727809D01*
X79245380Y-75299238D02*
X78245380Y-75299238D01*
X78245380Y-74918285D01*
X78293000Y-74823047D01*
X78340619Y-74775428D01*
X78435857Y-74727809D01*
X78578714Y-74727809D01*
X78673952Y-74775428D01*
X78721571Y-74823047D01*
X78769190Y-74918285D01*
X78769190Y-75299238D01*
X78245380Y-74394476D02*
X78245380Y-73775428D01*
X78626333Y-74108761D01*
X78626333Y-73965904D01*
X78673952Y-73870666D01*
X78721571Y-73823047D01*
X78816809Y-73775428D01*
X79054904Y-73775428D01*
X79150142Y-73823047D01*
X79197761Y-73870666D01*
X79245380Y-73965904D01*
X79245380Y-74251619D01*
X79197761Y-74346857D01*
X79150142Y-74394476D01*
X78340619Y-73394476D02*
X78293000Y-73346857D01*
X78245380Y-73251619D01*
X78245380Y-73013523D01*
X78293000Y-72918285D01*
X78340619Y-72870666D01*
X78435857Y-72823047D01*
X78531095Y-72823047D01*
X78673952Y-72870666D01*
X79245380Y-73442095D01*
X79245380Y-72823047D01*
X78864428Y-72394476D02*
X78864428Y-71632571D01*
X78245380Y-71251619D02*
X79245380Y-71013523D01*
X78531095Y-70823047D01*
X79245380Y-70632571D01*
X78245380Y-70394476D01*
X79245380Y-69442095D02*
X78769190Y-69775428D01*
X79245380Y-70013523D02*
X78245380Y-70013523D01*
X78245380Y-69632571D01*
X78293000Y-69537333D01*
X78340619Y-69489714D01*
X78435857Y-69442095D01*
X78578714Y-69442095D01*
X78673952Y-69489714D01*
X78721571Y-69537333D01*
X78769190Y-69632571D01*
X78769190Y-70013523D01*
X78245380Y-68823047D02*
X78245380Y-68632571D01*
X78293000Y-68537333D01*
X78388238Y-68442095D01*
X78578714Y-68394476D01*
X78912047Y-68394476D01*
X79102523Y-68442095D01*
X79197761Y-68537333D01*
X79245380Y-68632571D01*
X79245380Y-68823047D01*
X79197761Y-68918285D01*
X79102523Y-69013523D01*
X78912047Y-69061142D01*
X78578714Y-69061142D01*
X78388238Y-69013523D01*
X78293000Y-68918285D01*
X78245380Y-68823047D01*
X78245380Y-67775428D02*
X78245380Y-67584952D01*
X78293000Y-67489714D01*
X78388238Y-67394476D01*
X78578714Y-67346857D01*
X78912047Y-67346857D01*
X79102523Y-67394476D01*
X79197761Y-67489714D01*
X79245380Y-67584952D01*
X79245380Y-67775428D01*
X79197761Y-67870666D01*
X79102523Y-67965904D01*
X78912047Y-68013523D01*
X78578714Y-68013523D01*
X78388238Y-67965904D01*
X78293000Y-67870666D01*
X78245380Y-67775428D01*
X79245380Y-66918285D02*
X78245380Y-66918285D01*
X78959666Y-66584952D01*
X78245380Y-66251619D01*
X79245380Y-66251619D01*
X77070571Y-77132428D02*
X77070571Y-76799095D01*
X77594380Y-76656238D02*
X77594380Y-77132428D01*
X76594380Y-77132428D01*
X76594380Y-76656238D01*
X77546761Y-76275285D02*
X77594380Y-76180047D01*
X77594380Y-75989571D01*
X77546761Y-75894333D01*
X77451523Y-75846714D01*
X77403904Y-75846714D01*
X77308666Y-75894333D01*
X77261047Y-75989571D01*
X77261047Y-76132428D01*
X77213428Y-76227666D01*
X77118190Y-76275285D01*
X77070571Y-76275285D01*
X76975333Y-76227666D01*
X76927714Y-76132428D01*
X76927714Y-75989571D01*
X76975333Y-75894333D01*
X76927714Y-75418142D02*
X77927714Y-75418142D01*
X76975333Y-75418142D02*
X76927714Y-75322904D01*
X76927714Y-75132428D01*
X76975333Y-75037190D01*
X77022952Y-74989571D01*
X77118190Y-74941952D01*
X77403904Y-74941952D01*
X77499142Y-74989571D01*
X77546761Y-75037190D01*
X77594380Y-75132428D01*
X77594380Y-75322904D01*
X77546761Y-75418142D01*
X77594380Y-74513380D02*
X76927714Y-74513380D01*
X77118190Y-74513380D02*
X77022952Y-74465761D01*
X76975333Y-74418142D01*
X76927714Y-74322904D01*
X76927714Y-74227666D01*
X77546761Y-73513380D02*
X77594380Y-73608619D01*
X77594380Y-73799095D01*
X77546761Y-73894333D01*
X77451523Y-73941952D01*
X77070571Y-73941952D01*
X76975333Y-73894333D01*
X76927714Y-73799095D01*
X76927714Y-73608619D01*
X76975333Y-73513380D01*
X77070571Y-73465761D01*
X77165809Y-73465761D01*
X77261047Y-73941952D01*
X77546761Y-73084809D02*
X77594380Y-72989571D01*
X77594380Y-72799095D01*
X77546761Y-72703857D01*
X77451523Y-72656238D01*
X77403904Y-72656238D01*
X77308666Y-72703857D01*
X77261047Y-72799095D01*
X77261047Y-72941952D01*
X77213428Y-73037190D01*
X77118190Y-73084809D01*
X77070571Y-73084809D01*
X76975333Y-73037190D01*
X76927714Y-72941952D01*
X76927714Y-72799095D01*
X76975333Y-72703857D01*
X77546761Y-72275285D02*
X77594380Y-72180047D01*
X77594380Y-71989571D01*
X77546761Y-71894333D01*
X77451523Y-71846714D01*
X77403904Y-71846714D01*
X77308666Y-71894333D01*
X77261047Y-71989571D01*
X77261047Y-72132428D01*
X77213428Y-72227666D01*
X77118190Y-72275285D01*
X77070571Y-72275285D01*
X76975333Y-72227666D01*
X76927714Y-72132428D01*
X76927714Y-71989571D01*
X76975333Y-71894333D01*
X77594380Y-71418142D02*
X76927714Y-71418142D01*
X76594380Y-71418142D02*
X76642000Y-71465761D01*
X76689619Y-71418142D01*
X76642000Y-71370523D01*
X76594380Y-71418142D01*
X76689619Y-71418142D01*
X76927714Y-71084809D02*
X76927714Y-70703857D01*
X77594380Y-70941952D02*
X76737238Y-70941952D01*
X76642000Y-70894333D01*
X76594380Y-70799095D01*
X76594380Y-70703857D01*
X77546761Y-69656238D02*
X77594380Y-69513380D01*
X77594380Y-69275285D01*
X77546761Y-69180047D01*
X77499142Y-69132428D01*
X77403904Y-69084809D01*
X77308666Y-69084809D01*
X77213428Y-69132428D01*
X77165809Y-69180047D01*
X77118190Y-69275285D01*
X77070571Y-69465761D01*
X77022952Y-69561000D01*
X76975333Y-69608619D01*
X76880095Y-69656238D01*
X76784857Y-69656238D01*
X76689619Y-69608619D01*
X76642000Y-69561000D01*
X76594380Y-69465761D01*
X76594380Y-69227666D01*
X76642000Y-69084809D01*
X76927714Y-68751476D02*
X77594380Y-68513380D01*
X76927714Y-68275285D02*
X77594380Y-68513380D01*
X77832476Y-68608619D01*
X77880095Y-68656238D01*
X77927714Y-68751476D01*
X77546761Y-67941952D02*
X77594380Y-67846714D01*
X77594380Y-67656238D01*
X77546761Y-67561000D01*
X77451523Y-67513380D01*
X77403904Y-67513380D01*
X77308666Y-67561000D01*
X77261047Y-67656238D01*
X77261047Y-67799095D01*
X77213428Y-67894333D01*
X77118190Y-67941952D01*
X77070571Y-67941952D01*
X76975333Y-67894333D01*
X76927714Y-67799095D01*
X76927714Y-67656238D01*
X76975333Y-67561000D01*
X76927714Y-67227666D02*
X76927714Y-66846714D01*
X76594380Y-67084809D02*
X77451523Y-67084809D01*
X77546761Y-67037190D01*
X77594380Y-66941952D01*
X77594380Y-66846714D01*
X77546761Y-66132428D02*
X77594380Y-66227666D01*
X77594380Y-66418142D01*
X77546761Y-66513380D01*
X77451523Y-66561000D01*
X77070571Y-66561000D01*
X76975333Y-66513380D01*
X76927714Y-66418142D01*
X76927714Y-66227666D01*
X76975333Y-66132428D01*
X77070571Y-66084809D01*
X77165809Y-66084809D01*
X77261047Y-66561000D01*
X77594380Y-65656238D02*
X76927714Y-65656238D01*
X77022952Y-65656238D02*
X76975333Y-65608619D01*
X76927714Y-65513380D01*
X76927714Y-65370523D01*
X76975333Y-65275285D01*
X77070571Y-65227666D01*
X77594380Y-65227666D01*
X77070571Y-65227666D02*
X76975333Y-65180047D01*
X76927714Y-65084809D01*
X76927714Y-64941952D01*
X76975333Y-64846714D01*
X77070571Y-64799095D01*
X77594380Y-64799095D01*
X77546761Y-64370523D02*
X77594380Y-64275285D01*
X77594380Y-64084809D01*
X77546761Y-63989571D01*
X77451523Y-63941952D01*
X77403904Y-63941952D01*
X77308666Y-63989571D01*
X77261047Y-64084809D01*
X77261047Y-64227666D01*
X77213428Y-64322904D01*
X77118190Y-64370523D01*
X77070571Y-64370523D01*
X76975333Y-64322904D01*
X76927714Y-64227666D01*
X76927714Y-64084809D01*
X76975333Y-63989571D01*
X75057142Y-55742857D02*
X75104761Y-55790476D01*
X75152380Y-55933333D01*
X75152380Y-56028571D01*
X75104761Y-56171428D01*
X75009523Y-56266666D01*
X74914285Y-56314285D01*
X74723809Y-56361904D01*
X74580952Y-56361904D01*
X74390476Y-56314285D01*
X74295238Y-56266666D01*
X74200000Y-56171428D01*
X74152380Y-56028571D01*
X74152380Y-55933333D01*
X74200000Y-55790476D01*
X74247619Y-55742857D01*
X75152380Y-54790476D02*
X75152380Y-55361904D01*
X75152380Y-55076190D02*
X74152380Y-55076190D01*
X74295238Y-55171428D01*
X74390476Y-55266666D01*
X74438095Y-55361904D01*
X74485714Y-53933333D02*
X75152380Y-53933333D01*
X74104761Y-54171428D02*
X74819047Y-54409523D01*
X74819047Y-53790476D01*
X100657142Y-83442857D02*
X100704761Y-83490476D01*
X100752380Y-83633333D01*
X100752380Y-83728571D01*
X100704761Y-83871428D01*
X100609523Y-83966666D01*
X100514285Y-84014285D01*
X100323809Y-84061904D01*
X100180952Y-84061904D01*
X99990476Y-84014285D01*
X99895238Y-83966666D01*
X99800000Y-83871428D01*
X99752380Y-83728571D01*
X99752380Y-83633333D01*
X99800000Y-83490476D01*
X99847619Y-83442857D01*
X100752380Y-82490476D02*
X100752380Y-83061904D01*
X100752380Y-82776190D02*
X99752380Y-82776190D01*
X99895238Y-82871428D01*
X99990476Y-82966666D01*
X100038095Y-83061904D01*
X100752380Y-81538095D02*
X100752380Y-82109523D01*
X100752380Y-81823809D02*
X99752380Y-81823809D01*
X99895238Y-81919047D01*
X99990476Y-82014285D01*
X100038095Y-82109523D01*
X85338095Y-42102380D02*
X85338095Y-42911904D01*
X85385714Y-43007142D01*
X85433333Y-43054761D01*
X85528571Y-43102380D01*
X85719047Y-43102380D01*
X85814285Y-43054761D01*
X85861904Y-43007142D01*
X85909523Y-42911904D01*
X85909523Y-42102380D01*
X86528571Y-42530952D02*
X86433333Y-42483333D01*
X86385714Y-42435714D01*
X86338095Y-42340476D01*
X86338095Y-42292857D01*
X86385714Y-42197619D01*
X86433333Y-42150000D01*
X86528571Y-42102380D01*
X86719047Y-42102380D01*
X86814285Y-42150000D01*
X86861904Y-42197619D01*
X86909523Y-42292857D01*
X86909523Y-42340476D01*
X86861904Y-42435714D01*
X86814285Y-42483333D01*
X86719047Y-42530952D01*
X86528571Y-42530952D01*
X86433333Y-42578571D01*
X86385714Y-42626190D01*
X86338095Y-42721428D01*
X86338095Y-42911904D01*
X86385714Y-43007142D01*
X86433333Y-43054761D01*
X86528571Y-43102380D01*
X86719047Y-43102380D01*
X86814285Y-43054761D01*
X86861904Y-43007142D01*
X86909523Y-42911904D01*
X86909523Y-42721428D01*
X86861904Y-42626190D01*
X86814285Y-42578571D01*
X86719047Y-42530952D01*
X106857142Y-47266666D02*
X106904761Y-47314285D01*
X106952380Y-47457142D01*
X106952380Y-47552380D01*
X106904761Y-47695238D01*
X106809523Y-47790476D01*
X106714285Y-47838095D01*
X106523809Y-47885714D01*
X106380952Y-47885714D01*
X106190476Y-47838095D01*
X106095238Y-47790476D01*
X106000000Y-47695238D01*
X105952380Y-47552380D01*
X105952380Y-47457142D01*
X106000000Y-47314285D01*
X106047619Y-47266666D01*
X105952380Y-46933333D02*
X105952380Y-46314285D01*
X106333333Y-46647619D01*
X106333333Y-46504761D01*
X106380952Y-46409523D01*
X106428571Y-46361904D01*
X106523809Y-46314285D01*
X106761904Y-46314285D01*
X106857142Y-46361904D01*
X106904761Y-46409523D01*
X106952380Y-46504761D01*
X106952380Y-46790476D01*
X106904761Y-46885714D01*
X106857142Y-46933333D01*
X115433333Y-29452380D02*
X115100000Y-28976190D01*
X114861904Y-29452380D02*
X114861904Y-28452380D01*
X115242857Y-28452380D01*
X115338095Y-28500000D01*
X115385714Y-28547619D01*
X115433333Y-28642857D01*
X115433333Y-28785714D01*
X115385714Y-28880952D01*
X115338095Y-28928571D01*
X115242857Y-28976190D01*
X114861904Y-28976190D01*
X115766666Y-28452380D02*
X116433333Y-28452380D01*
X116004761Y-29452380D01*
X62538095Y-86652380D02*
X62538095Y-85652380D01*
X62538095Y-86128571D02*
X63109523Y-86128571D01*
X63109523Y-86652380D02*
X63109523Y-85652380D01*
X64014285Y-85985714D02*
X64014285Y-86652380D01*
X63776190Y-85604761D02*
X63538095Y-86319047D01*
X64157142Y-86319047D01*
X113638095Y-65652380D02*
X113638095Y-66461904D01*
X113685714Y-66557142D01*
X113733333Y-66604761D01*
X113828571Y-66652380D01*
X114019047Y-66652380D01*
X114114285Y-66604761D01*
X114161904Y-66557142D01*
X114209523Y-66461904D01*
X114209523Y-65652380D01*
X115114285Y-65985714D02*
X115114285Y-66652380D01*
X114876190Y-65604761D02*
X114638095Y-66319047D01*
X115257142Y-66319047D01*
X118733333Y-36657142D02*
X118685714Y-36704761D01*
X118542857Y-36752380D01*
X118447619Y-36752380D01*
X118304761Y-36704761D01*
X118209523Y-36609523D01*
X118161904Y-36514285D01*
X118114285Y-36323809D01*
X118114285Y-36180952D01*
X118161904Y-35990476D01*
X118209523Y-35895238D01*
X118304761Y-35800000D01*
X118447619Y-35752380D01*
X118542857Y-35752380D01*
X118685714Y-35800000D01*
X118733333Y-35847619D01*
X119304761Y-36180952D02*
X119209523Y-36133333D01*
X119161904Y-36085714D01*
X119114285Y-35990476D01*
X119114285Y-35942857D01*
X119161904Y-35847619D01*
X119209523Y-35800000D01*
X119304761Y-35752380D01*
X119495238Y-35752380D01*
X119590476Y-35800000D01*
X119638095Y-35847619D01*
X119685714Y-35942857D01*
X119685714Y-35990476D01*
X119638095Y-36085714D01*
X119590476Y-36133333D01*
X119495238Y-36180952D01*
X119304761Y-36180952D01*
X119209523Y-36228571D01*
X119161904Y-36276190D01*
X119114285Y-36371428D01*
X119114285Y-36561904D01*
X119161904Y-36657142D01*
X119209523Y-36704761D01*
X119304761Y-36752380D01*
X119495238Y-36752380D01*
X119590476Y-36704761D01*
X119638095Y-36657142D01*
X119685714Y-36561904D01*
X119685714Y-36371428D01*
X119638095Y-36276190D01*
X119590476Y-36228571D01*
X119495238Y-36180952D01*
X65866666Y-79852380D02*
X65866666Y-80566666D01*
X65819047Y-80709523D01*
X65723809Y-80804761D01*
X65580952Y-80852380D01*
X65485714Y-80852380D01*
X66771428Y-80185714D02*
X66771428Y-80852380D01*
X66533333Y-79804761D02*
X66295238Y-80519047D01*
X66914285Y-80519047D01*
X91957142Y-45766666D02*
X92004761Y-45814285D01*
X92052380Y-45957142D01*
X92052380Y-46052380D01*
X92004761Y-46195238D01*
X91909523Y-46290476D01*
X91814285Y-46338095D01*
X91623809Y-46385714D01*
X91480952Y-46385714D01*
X91290476Y-46338095D01*
X91195238Y-46290476D01*
X91100000Y-46195238D01*
X91052380Y-46052380D01*
X91052380Y-45957142D01*
X91100000Y-45814285D01*
X91147619Y-45766666D01*
X91052380Y-44909523D02*
X91052380Y-45100000D01*
X91100000Y-45195238D01*
X91147619Y-45242857D01*
X91290476Y-45338095D01*
X91480952Y-45385714D01*
X91861904Y-45385714D01*
X91957142Y-45338095D01*
X92004761Y-45290476D01*
X92052380Y-45195238D01*
X92052380Y-45004761D01*
X92004761Y-44909523D01*
X91957142Y-44861904D01*
X91861904Y-44814285D01*
X91623809Y-44814285D01*
X91528571Y-44861904D01*
X91480952Y-44909523D01*
X91433333Y-45004761D01*
X91433333Y-45195238D01*
X91480952Y-45290476D01*
X91528571Y-45338095D01*
X91623809Y-45385714D01*
X118038095Y-24352380D02*
X118038095Y-23352380D01*
X118038095Y-23828571D02*
X118609523Y-23828571D01*
X118609523Y-24352380D02*
X118609523Y-23352380D01*
X119609523Y-24352380D02*
X119038095Y-24352380D01*
X119323809Y-24352380D02*
X119323809Y-23352380D01*
X119228571Y-23495238D01*
X119133333Y-23590476D01*
X119038095Y-23638095D01*
X63457142Y-66442857D02*
X63504761Y-66490476D01*
X63552380Y-66633333D01*
X63552380Y-66728571D01*
X63504761Y-66871428D01*
X63409523Y-66966666D01*
X63314285Y-67014285D01*
X63123809Y-67061904D01*
X62980952Y-67061904D01*
X62790476Y-67014285D01*
X62695238Y-66966666D01*
X62600000Y-66871428D01*
X62552380Y-66728571D01*
X62552380Y-66633333D01*
X62600000Y-66490476D01*
X62647619Y-66442857D01*
X63552380Y-65490476D02*
X63552380Y-66061904D01*
X63552380Y-65776190D02*
X62552380Y-65776190D01*
X62695238Y-65871428D01*
X62790476Y-65966666D01*
X62838095Y-66061904D01*
X62552380Y-64585714D02*
X62552380Y-65061904D01*
X63028571Y-65109523D01*
X62980952Y-65061904D01*
X62933333Y-64966666D01*
X62933333Y-64728571D01*
X62980952Y-64633333D01*
X63028571Y-64585714D01*
X63123809Y-64538095D01*
X63361904Y-64538095D01*
X63457142Y-64585714D01*
X63504761Y-64633333D01*
X63552380Y-64728571D01*
X63552380Y-64966666D01*
X63504761Y-65061904D01*
X63457142Y-65109523D01*
X75838095Y-33702380D02*
X75838095Y-34511904D01*
X75885714Y-34607142D01*
X75933333Y-34654761D01*
X76028571Y-34702380D01*
X76219047Y-34702380D01*
X76314285Y-34654761D01*
X76361904Y-34607142D01*
X76409523Y-34511904D01*
X76409523Y-33702380D01*
X76790476Y-33702380D02*
X77409523Y-33702380D01*
X77076190Y-34083333D01*
X77219047Y-34083333D01*
X77314285Y-34130952D01*
X77361904Y-34178571D01*
X77409523Y-34273809D01*
X77409523Y-34511904D01*
X77361904Y-34607142D01*
X77314285Y-34654761D01*
X77219047Y-34702380D01*
X76933333Y-34702380D01*
X76838095Y-34654761D01*
X76790476Y-34607142D01*
X94357142Y-45666666D02*
X94404761Y-45714285D01*
X94452380Y-45857142D01*
X94452380Y-45952380D01*
X94404761Y-46095238D01*
X94309523Y-46190476D01*
X94214285Y-46238095D01*
X94023809Y-46285714D01*
X93880952Y-46285714D01*
X93690476Y-46238095D01*
X93595238Y-46190476D01*
X93500000Y-46095238D01*
X93452380Y-45952380D01*
X93452380Y-45857142D01*
X93500000Y-45714285D01*
X93547619Y-45666666D01*
X93452380Y-44761904D02*
X93452380Y-45238095D01*
X93928571Y-45285714D01*
X93880952Y-45238095D01*
X93833333Y-45142857D01*
X93833333Y-44904761D01*
X93880952Y-44809523D01*
X93928571Y-44761904D01*
X94023809Y-44714285D01*
X94261904Y-44714285D01*
X94357142Y-44761904D01*
X94404761Y-44809523D01*
X94452380Y-44904761D01*
X94452380Y-45142857D01*
X94404761Y-45238095D01*
X94357142Y-45285714D01*
X116552380Y-55903333D02*
X117266666Y-55903333D01*
X117409523Y-55950952D01*
X117504761Y-56046190D01*
X117552380Y-56189047D01*
X117552380Y-56284285D01*
X116552380Y-55522380D02*
X116552380Y-54903333D01*
X116933333Y-55236666D01*
X116933333Y-55093809D01*
X116980952Y-54998571D01*
X117028571Y-54950952D01*
X117123809Y-54903333D01*
X117361904Y-54903333D01*
X117457142Y-54950952D01*
X117504761Y-54998571D01*
X117552380Y-55093809D01*
X117552380Y-55379523D01*
X117504761Y-55474761D01*
X117457142Y-55522380D01*
X102757142Y-83542857D02*
X102804761Y-83590476D01*
X102852380Y-83733333D01*
X102852380Y-83828571D01*
X102804761Y-83971428D01*
X102709523Y-84066666D01*
X102614285Y-84114285D01*
X102423809Y-84161904D01*
X102280952Y-84161904D01*
X102090476Y-84114285D01*
X101995238Y-84066666D01*
X101900000Y-83971428D01*
X101852380Y-83828571D01*
X101852380Y-83733333D01*
X101900000Y-83590476D01*
X101947619Y-83542857D01*
X102852380Y-82590476D02*
X102852380Y-83161904D01*
X102852380Y-82876190D02*
X101852380Y-82876190D01*
X101995238Y-82971428D01*
X102090476Y-83066666D01*
X102138095Y-83161904D01*
X101852380Y-81971428D02*
X101852380Y-81876190D01*
X101900000Y-81780952D01*
X101947619Y-81733333D01*
X102042857Y-81685714D01*
X102233333Y-81638095D01*
X102471428Y-81638095D01*
X102661904Y-81685714D01*
X102757142Y-81733333D01*
X102804761Y-81780952D01*
X102852380Y-81876190D01*
X102852380Y-81971428D01*
X102804761Y-82066666D01*
X102757142Y-82114285D01*
X102661904Y-82161904D01*
X102471428Y-82209523D01*
X102233333Y-82209523D01*
X102042857Y-82161904D01*
X101947619Y-82114285D01*
X101900000Y-82066666D01*
X101852380Y-81971428D01*
X62538095Y-23952380D02*
X62538095Y-22952380D01*
X62538095Y-23428571D02*
X63109523Y-23428571D01*
X63109523Y-23952380D02*
X63109523Y-22952380D01*
X63490476Y-22952380D02*
X64109523Y-22952380D01*
X63776190Y-23333333D01*
X63919047Y-23333333D01*
X64014285Y-23380952D01*
X64061904Y-23428571D01*
X64109523Y-23523809D01*
X64109523Y-23761904D01*
X64061904Y-23857142D01*
X64014285Y-23904761D01*
X63919047Y-23952380D01*
X63633333Y-23952380D01*
X63538095Y-23904761D01*
X63490476Y-23857142D01*
X116961904Y-33952380D02*
X116961904Y-32952380D01*
X117200000Y-32952380D01*
X117342857Y-33000000D01*
X117438095Y-33095238D01*
X117485714Y-33190476D01*
X117533333Y-33380952D01*
X117533333Y-33523809D01*
X117485714Y-33714285D01*
X117438095Y-33809523D01*
X117342857Y-33904761D01*
X117200000Y-33952380D01*
X116961904Y-33952380D01*
X118485714Y-33952380D02*
X117914285Y-33952380D01*
X118200000Y-33952380D02*
X118200000Y-32952380D01*
X118104761Y-33095238D01*
X118009523Y-33190476D01*
X117914285Y-33238095D01*
X108552380Y-75066666D02*
X108076190Y-75400000D01*
X108552380Y-75638095D02*
X107552380Y-75638095D01*
X107552380Y-75257142D01*
X107600000Y-75161904D01*
X107647619Y-75114285D01*
X107742857Y-75066666D01*
X107885714Y-75066666D01*
X107980952Y-75114285D01*
X108028571Y-75161904D01*
X108076190Y-75257142D01*
X108076190Y-75638095D01*
X108552380Y-74114285D02*
X108552380Y-74685714D01*
X108552380Y-74400000D02*
X107552380Y-74400000D01*
X107695238Y-74495238D01*
X107790476Y-74590476D01*
X107838095Y-74685714D01*
X69238095Y-60252380D02*
X69238095Y-61061904D01*
X69285714Y-61157142D01*
X69333333Y-61204761D01*
X69428571Y-61252380D01*
X69619047Y-61252380D01*
X69714285Y-61204761D01*
X69761904Y-61157142D01*
X69809523Y-61061904D01*
X69809523Y-60252380D01*
X70714285Y-60252380D02*
X70523809Y-60252380D01*
X70428571Y-60300000D01*
X70380952Y-60347619D01*
X70285714Y-60490476D01*
X70238095Y-60680952D01*
X70238095Y-61061904D01*
X70285714Y-61157142D01*
X70333333Y-61204761D01*
X70428571Y-61252380D01*
X70619047Y-61252380D01*
X70714285Y-61204761D01*
X70761904Y-61157142D01*
X70809523Y-61061904D01*
X70809523Y-60823809D01*
X70761904Y-60728571D01*
X70714285Y-60680952D01*
X70619047Y-60633333D01*
X70428571Y-60633333D01*
X70333333Y-60680952D01*
X70285714Y-60728571D01*
X70238095Y-60823809D01*
X116652380Y-47333333D02*
X117366666Y-47333333D01*
X117509523Y-47380952D01*
X117604761Y-47476190D01*
X117652380Y-47619047D01*
X117652380Y-47714285D01*
X117080952Y-46714285D02*
X117033333Y-46809523D01*
X116985714Y-46857142D01*
X116890476Y-46904761D01*
X116842857Y-46904761D01*
X116747619Y-46857142D01*
X116700000Y-46809523D01*
X116652380Y-46714285D01*
X116652380Y-46523809D01*
X116700000Y-46428571D01*
X116747619Y-46380952D01*
X116842857Y-46333333D01*
X116890476Y-46333333D01*
X116985714Y-46380952D01*
X117033333Y-46428571D01*
X117080952Y-46523809D01*
X117080952Y-46714285D01*
X117128571Y-46809523D01*
X117176190Y-46857142D01*
X117271428Y-46904761D01*
X117461904Y-46904761D01*
X117557142Y-46857142D01*
X117604761Y-46809523D01*
X117652380Y-46714285D01*
X117652380Y-46523809D01*
X117604761Y-46428571D01*
X117557142Y-46380952D01*
X117461904Y-46333333D01*
X117271428Y-46333333D01*
X117176190Y-46380952D01*
X117128571Y-46428571D01*
X117080952Y-46523809D01*
X98457142Y-83642857D02*
X98504761Y-83690476D01*
X98552380Y-83833333D01*
X98552380Y-83928571D01*
X98504761Y-84071428D01*
X98409523Y-84166666D01*
X98314285Y-84214285D01*
X98123809Y-84261904D01*
X97980952Y-84261904D01*
X97790476Y-84214285D01*
X97695238Y-84166666D01*
X97600000Y-84071428D01*
X97552380Y-83928571D01*
X97552380Y-83833333D01*
X97600000Y-83690476D01*
X97647619Y-83642857D01*
X98552380Y-82690476D02*
X98552380Y-83261904D01*
X98552380Y-82976190D02*
X97552380Y-82976190D01*
X97695238Y-83071428D01*
X97790476Y-83166666D01*
X97838095Y-83261904D01*
X97647619Y-82309523D02*
X97600000Y-82261904D01*
X97552380Y-82166666D01*
X97552380Y-81928571D01*
X97600000Y-81833333D01*
X97647619Y-81785714D01*
X97742857Y-81738095D01*
X97838095Y-81738095D01*
X97980952Y-81785714D01*
X98552380Y-82357142D01*
X98552380Y-81738095D01*
X108338095Y-30052380D02*
X108338095Y-30861904D01*
X108385714Y-30957142D01*
X108433333Y-31004761D01*
X108528571Y-31052380D01*
X108719047Y-31052380D01*
X108814285Y-31004761D01*
X108861904Y-30957142D01*
X108909523Y-30861904D01*
X108909523Y-30052380D01*
X109861904Y-30052380D02*
X109385714Y-30052380D01*
X109338095Y-30528571D01*
X109385714Y-30480952D01*
X109480952Y-30433333D01*
X109719047Y-30433333D01*
X109814285Y-30480952D01*
X109861904Y-30528571D01*
X109909523Y-30623809D01*
X109909523Y-30861904D01*
X109861904Y-30957142D01*
X109814285Y-31004761D01*
X109719047Y-31052380D01*
X109480952Y-31052380D01*
X109385714Y-31004761D01*
X109338095Y-30957142D01*
X100552380Y-31633333D02*
X101266666Y-31633333D01*
X101409523Y-31680952D01*
X101504761Y-31776190D01*
X101552380Y-31919047D01*
X101552380Y-32014285D01*
X100552380Y-30680952D02*
X100552380Y-31157142D01*
X101028571Y-31204761D01*
X100980952Y-31157142D01*
X100933333Y-31061904D01*
X100933333Y-30823809D01*
X100980952Y-30728571D01*
X101028571Y-30680952D01*
X101123809Y-30633333D01*
X101361904Y-30633333D01*
X101457142Y-30680952D01*
X101504761Y-30728571D01*
X101552380Y-30823809D01*
X101552380Y-31061904D01*
X101504761Y-31157142D01*
X101457142Y-31204761D01*
X119133333Y-39157142D02*
X119085714Y-39204761D01*
X118942857Y-39252380D01*
X118847619Y-39252380D01*
X118704761Y-39204761D01*
X118609523Y-39109523D01*
X118561904Y-39014285D01*
X118514285Y-38823809D01*
X118514285Y-38680952D01*
X118561904Y-38490476D01*
X118609523Y-38395238D01*
X118704761Y-38300000D01*
X118847619Y-38252380D01*
X118942857Y-38252380D01*
X119085714Y-38300000D01*
X119133333Y-38347619D01*
X119609523Y-39252380D02*
X119800000Y-39252380D01*
X119895238Y-39204761D01*
X119942857Y-39157142D01*
X120038095Y-39014285D01*
X120085714Y-38823809D01*
X120085714Y-38442857D01*
X120038095Y-38347619D01*
X119990476Y-38300000D01*
X119895238Y-38252380D01*
X119704761Y-38252380D01*
X119609523Y-38300000D01*
X119561904Y-38347619D01*
X119514285Y-38442857D01*
X119514285Y-38680952D01*
X119561904Y-38776190D01*
X119609523Y-38823809D01*
X119704761Y-38871428D01*
X119895238Y-38871428D01*
X119990476Y-38823809D01*
X120038095Y-38776190D01*
X120085714Y-38680952D01*
X108957142Y-47266666D02*
X109004761Y-47314285D01*
X109052380Y-47457142D01*
X109052380Y-47552380D01*
X109004761Y-47695238D01*
X108909523Y-47790476D01*
X108814285Y-47838095D01*
X108623809Y-47885714D01*
X108480952Y-47885714D01*
X108290476Y-47838095D01*
X108195238Y-47790476D01*
X108100000Y-47695238D01*
X108052380Y-47552380D01*
X108052380Y-47457142D01*
X108100000Y-47314285D01*
X108147619Y-47266666D01*
X108147619Y-46885714D02*
X108100000Y-46838095D01*
X108052380Y-46742857D01*
X108052380Y-46504761D01*
X108100000Y-46409523D01*
X108147619Y-46361904D01*
X108242857Y-46314285D01*
X108338095Y-46314285D01*
X108480952Y-46361904D01*
X109052380Y-46933333D01*
X109052380Y-46314285D01*
X117938095Y-86752380D02*
X117938095Y-85752380D01*
X117938095Y-86228571D02*
X118509523Y-86228571D01*
X118509523Y-86752380D02*
X118509523Y-85752380D01*
X118938095Y-85847619D02*
X118985714Y-85800000D01*
X119080952Y-85752380D01*
X119319047Y-85752380D01*
X119414285Y-85800000D01*
X119461904Y-85847619D01*
X119509523Y-85942857D01*
X119509523Y-86038095D01*
X119461904Y-86180952D01*
X118890476Y-86752380D01*
X119509523Y-86752380D01*
X96152380Y-51461904D02*
X96961904Y-51461904D01*
X97057142Y-51414285D01*
X97104761Y-51366666D01*
X97152380Y-51271428D01*
X97152380Y-51080952D01*
X97104761Y-50985714D01*
X97057142Y-50938095D01*
X96961904Y-50890476D01*
X96152380Y-50890476D01*
X96152380Y-50509523D02*
X96152380Y-49842857D01*
X97152380Y-50271428D01*
X65457142Y-58757142D02*
X65409523Y-58804761D01*
X65266666Y-58852380D01*
X65171428Y-58852380D01*
X65028571Y-58804761D01*
X64933333Y-58709523D01*
X64885714Y-58614285D01*
X64838095Y-58423809D01*
X64838095Y-58280952D01*
X64885714Y-58090476D01*
X64933333Y-57995238D01*
X65028571Y-57900000D01*
X65171428Y-57852380D01*
X65266666Y-57852380D01*
X65409523Y-57900000D01*
X65457142Y-57947619D01*
X66409523Y-58852380D02*
X65838095Y-58852380D01*
X66123809Y-58852380D02*
X66123809Y-57852380D01*
X66028571Y-57995238D01*
X65933333Y-58090476D01*
X65838095Y-58138095D01*
X67266666Y-57852380D02*
X67076190Y-57852380D01*
X66980952Y-57900000D01*
X66933333Y-57947619D01*
X66838095Y-58090476D01*
X66790476Y-58280952D01*
X66790476Y-58661904D01*
X66838095Y-58757142D01*
X66885714Y-58804761D01*
X66980952Y-58852380D01*
X67171428Y-58852380D01*
X67266666Y-58804761D01*
X67314285Y-58757142D01*
X67361904Y-58661904D01*
X67361904Y-58423809D01*
X67314285Y-58328571D01*
X67266666Y-58280952D01*
X67171428Y-58233333D01*
X66980952Y-58233333D01*
X66885714Y-58280952D01*
X66838095Y-58328571D01*
X66790476Y-58423809D01*
X68312380Y-46303333D02*
X69026666Y-46303333D01*
X69169523Y-46350952D01*
X69264761Y-46446190D01*
X69312380Y-46589047D01*
X69312380Y-46684285D01*
X69312380Y-45303333D02*
X69312380Y-45874761D01*
X69312380Y-45589047D02*
X68312380Y-45589047D01*
X68455238Y-45684285D01*
X68550476Y-45779523D01*
X68598095Y-45874761D01*
X83196666Y-32312380D02*
X83196666Y-33026666D01*
X83149047Y-33169523D01*
X83053809Y-33264761D01*
X82910952Y-33312380D01*
X82815714Y-33312380D01*
X84101428Y-32312380D02*
X83910952Y-32312380D01*
X83815714Y-32360000D01*
X83768095Y-32407619D01*
X83672857Y-32550476D01*
X83625238Y-32740952D01*
X83625238Y-33121904D01*
X83672857Y-33217142D01*
X83720476Y-33264761D01*
X83815714Y-33312380D01*
X84006190Y-33312380D01*
X84101428Y-33264761D01*
X84149047Y-33217142D01*
X84196666Y-33121904D01*
X84196666Y-32883809D01*
X84149047Y-32788571D01*
X84101428Y-32740952D01*
X84006190Y-32693333D01*
X83815714Y-32693333D01*
X83720476Y-32740952D01*
X83672857Y-32788571D01*
X83625238Y-32883809D01*
X108557142Y-71426086D02*
X108604761Y-71473705D01*
X108652380Y-71616562D01*
X108652380Y-71711800D01*
X108604761Y-71854658D01*
X108509523Y-71949896D01*
X108414285Y-71997515D01*
X108223809Y-72045134D01*
X108080952Y-72045134D01*
X107890476Y-71997515D01*
X107795238Y-71949896D01*
X107700000Y-71854658D01*
X107652380Y-71711800D01*
X107652380Y-71616562D01*
X107700000Y-71473705D01*
X107747619Y-71426086D01*
X107652380Y-71092753D02*
X107652380Y-70426086D01*
X108652380Y-70854658D01*
X96457142Y-83542857D02*
X96504761Y-83590476D01*
X96552380Y-83733333D01*
X96552380Y-83828571D01*
X96504761Y-83971428D01*
X96409523Y-84066666D01*
X96314285Y-84114285D01*
X96123809Y-84161904D01*
X95980952Y-84161904D01*
X95790476Y-84114285D01*
X95695238Y-84066666D01*
X95600000Y-83971428D01*
X95552380Y-83828571D01*
X95552380Y-83733333D01*
X95600000Y-83590476D01*
X95647619Y-83542857D01*
X96552380Y-82590476D02*
X96552380Y-83161904D01*
X96552380Y-82876190D02*
X95552380Y-82876190D01*
X95695238Y-82971428D01*
X95790476Y-83066666D01*
X95838095Y-83161904D01*
X95552380Y-82257142D02*
X95552380Y-81638095D01*
X95933333Y-81971428D01*
X95933333Y-81828571D01*
X95980952Y-81733333D01*
X96028571Y-81685714D01*
X96123809Y-81638095D01*
X96361904Y-81638095D01*
X96457142Y-81685714D01*
X96504761Y-81733333D01*
X96552380Y-81828571D01*
X96552380Y-82114285D01*
X96504761Y-82209523D01*
X96457142Y-82257142D01*
D12*
X109990000Y-42684420D02*
X109990000Y-42965580D01*
X111010000Y-42684420D02*
X111010000Y-42965580D01*
X108620000Y-83800000D02*
X109580000Y-83800000D01*
X108620000Y-84360000D02*
X109580000Y-84360000D01*
X106030000Y-83860000D02*
X106030000Y-84600000D01*
X106030000Y-84600000D02*
X106530000Y-84600000D01*
X111160000Y-84360000D02*
X111930000Y-84360000D01*
X106270000Y-83800000D02*
X107040000Y-83800000D01*
X106270000Y-78500000D02*
X111930000Y-78500000D01*
X111160000Y-83800000D02*
X111930000Y-83800000D01*
X111930000Y-78040000D02*
X111930000Y-84360000D01*
X106270000Y-78040000D02*
X111930000Y-78040000D01*
X106270000Y-78040000D02*
X106270000Y-84360000D01*
X106270000Y-84360000D02*
X107040000Y-84360000D01*
X61300000Y-34530000D02*
X61300000Y-35030000D01*
X67860000Y-34770000D02*
X61540000Y-34770000D01*
X61540000Y-39660000D02*
X61540000Y-40430000D01*
X62100000Y-39660000D02*
X62100000Y-40430000D01*
X62040000Y-34530000D02*
X61300000Y-34530000D01*
X62100000Y-37120000D02*
X62100000Y-38080000D01*
X67860000Y-34770000D02*
X67860000Y-40430000D01*
X67860000Y-40430000D02*
X61540000Y-40430000D01*
X61540000Y-34770000D02*
X61540000Y-35540000D01*
X62100000Y-34770000D02*
X62100000Y-35540000D01*
X61540000Y-37120000D02*
X61540000Y-38080000D01*
X67400000Y-34770000D02*
X67400000Y-40430000D01*
X112810000Y-42659420D02*
X112810000Y-42940580D01*
X111790000Y-42659420D02*
X111790000Y-42940580D01*
D13*
X94189981Y-78054000D02*
G75*
G03*
X94189981Y-78054000I-283981J0D01*
G01*
D11*
X75000000Y-78200000D02*
X93000000Y-78200000D01*
X75000000Y-84200000D02*
X93000000Y-84200000D01*
X75000000Y-84200000D02*
X75000000Y-58700000D01*
X75000000Y-58700000D02*
X93000000Y-58700000D01*
X93000000Y-84200000D02*
X93000000Y-58700000D01*
D12*
X73510000Y-55340580D02*
X73510000Y-55059420D01*
X72490000Y-55340580D02*
X72490000Y-55059420D01*
X99690000Y-79659420D02*
X99690000Y-79940580D01*
X100710000Y-79659420D02*
X100710000Y-79940580D01*
X86100000Y-43365000D02*
X82500000Y-43365000D01*
X86100000Y-48835000D02*
X83900000Y-48835000D01*
X86100000Y-43365000D02*
X88300000Y-43365000D01*
X86100000Y-48835000D02*
X88300000Y-48835000D01*
X98950000Y-69550000D02*
X101650000Y-69550000D01*
X103400000Y-75850000D02*
X103400000Y-69550000D01*
X102950000Y-75850000D02*
X103400000Y-75850000D01*
X97200000Y-75850000D02*
X97200000Y-69550000D01*
X101650000Y-75850000D02*
X98950000Y-75850000D01*
X103400000Y-69550000D02*
X103000000Y-69550000D01*
X97650000Y-75850000D02*
X97200000Y-75850000D01*
X97200000Y-69550000D02*
X97650000Y-69550000D01*
X105990000Y-42659420D02*
X105990000Y-42940580D01*
X107010000Y-42659420D02*
X107010000Y-42940580D01*
X116754724Y-30477500D02*
X116245276Y-30477500D01*
X116754724Y-31522500D02*
X116245276Y-31522500D01*
X114500000Y-72535000D02*
X118100000Y-72535000D01*
X114500000Y-67065000D02*
X116700000Y-67065000D01*
X114500000Y-67065000D02*
X112300000Y-67065000D01*
X114500000Y-72535000D02*
X112300000Y-72535000D01*
X116059420Y-36810000D02*
X116340580Y-36810000D01*
X116059420Y-35790000D02*
X116340580Y-35790000D01*
X64830000Y-76730000D02*
X64830000Y-69050000D01*
X64830000Y-76730000D02*
X62170000Y-76730000D01*
X64830000Y-79330000D02*
X63500000Y-79330000D01*
X64830000Y-78000000D02*
X64830000Y-79330000D01*
X64830000Y-69050000D02*
X62170000Y-69050000D01*
X62170000Y-76730000D02*
X62170000Y-69050000D01*
X92110000Y-42759420D02*
X92110000Y-43040580D01*
X91090000Y-42759420D02*
X91090000Y-43040580D01*
X63610000Y-62740580D02*
X63610000Y-62459420D01*
X62590000Y-62740580D02*
X62590000Y-62459420D01*
X76600000Y-40435000D02*
X74400000Y-40435000D01*
X76600000Y-40435000D02*
X78800000Y-40435000D01*
X76600000Y-34965000D02*
X78800000Y-34965000D01*
X76600000Y-34965000D02*
X73000000Y-34965000D01*
X94510000Y-42759420D02*
X94510000Y-43040580D01*
X93490000Y-42759420D02*
X93490000Y-43040580D01*
X120260000Y-60280000D02*
X120260000Y-59320000D01*
X114400000Y-62630000D02*
X114400000Y-56970000D01*
X119700000Y-62630000D02*
X119700000Y-61860000D01*
X113940000Y-56970000D02*
X120260000Y-56970000D01*
X120500000Y-62870000D02*
X120500000Y-62370000D01*
X119760000Y-62870000D02*
X120500000Y-62870000D01*
X120260000Y-57740000D02*
X120260000Y-56970000D01*
X113940000Y-62630000D02*
X120260000Y-62630000D01*
X119700000Y-57740000D02*
X119700000Y-56970000D01*
X120260000Y-62630000D02*
X120260000Y-61860000D01*
X119700000Y-60280000D02*
X119700000Y-59320000D01*
X113940000Y-62630000D02*
X113940000Y-56970000D01*
X101790000Y-79659420D02*
X101790000Y-79940580D01*
X102810000Y-79659420D02*
X102810000Y-79940580D01*
X116235000Y-34500000D02*
X116235000Y-32215000D01*
X114765000Y-32215000D02*
X114765000Y-34500000D01*
X116235000Y-32215000D02*
X114765000Y-32215000D01*
X105977500Y-75254724D02*
X105977500Y-74745276D01*
X107022500Y-75254724D02*
X107022500Y-74745276D01*
D11*
X70050000Y-62450000D02*
X69525000Y-62450000D01*
X65750000Y-62450000D02*
X66275000Y-62450000D01*
X70050000Y-66750000D02*
X69525000Y-66750000D01*
X70050000Y-62450000D02*
X70050000Y-62975000D01*
X65750000Y-62450000D02*
X65750000Y-62975000D01*
X65750000Y-66750000D02*
X66275000Y-66750000D01*
X65750000Y-66750000D02*
X65750000Y-66225000D01*
D12*
X114040000Y-54130000D02*
X120360000Y-54130000D01*
X120600000Y-54370000D02*
X120600000Y-53870000D01*
X119800000Y-49240000D02*
X119800000Y-48470000D01*
X119800000Y-51780000D02*
X119800000Y-50820000D01*
X114040000Y-48470000D02*
X120360000Y-48470000D01*
X120360000Y-54130000D02*
X120360000Y-53360000D01*
X114500000Y-54130000D02*
X114500000Y-48470000D01*
X119860000Y-54370000D02*
X120600000Y-54370000D01*
X114040000Y-54130000D02*
X114040000Y-48470000D01*
X120360000Y-51780000D02*
X120360000Y-50820000D01*
X119800000Y-54130000D02*
X119800000Y-53360000D01*
X120360000Y-49240000D02*
X120360000Y-48470000D01*
X63250000Y-55350000D02*
X63250000Y-52650000D01*
X69550000Y-56650000D02*
X69550000Y-57100000D01*
X63250000Y-50900000D02*
X63250000Y-51300000D01*
X69550000Y-52650000D02*
X69550000Y-55350000D01*
X69550000Y-57100000D02*
X63250000Y-57100000D01*
X69550000Y-51350000D02*
X69550000Y-50900000D01*
X63250000Y-57100000D02*
X63250000Y-56650000D01*
X69550000Y-50900000D02*
X63250000Y-50900000D01*
X98610000Y-79659420D02*
X98610000Y-79940580D01*
X97590000Y-79659420D02*
X97590000Y-79940580D01*
X112510000Y-37610000D02*
X111250000Y-37610000D01*
X112510000Y-31600000D02*
X112510000Y-37610000D01*
X105690000Y-33850000D02*
X105690000Y-37610000D01*
X105690000Y-37610000D02*
X106950000Y-37610000D01*
X103800000Y-32770000D02*
X103800000Y-38430000D01*
X97940000Y-37660000D02*
X97940000Y-38430000D01*
X104260000Y-32770000D02*
X97940000Y-32770000D01*
X97700000Y-32530000D02*
X97700000Y-33030000D01*
X98500000Y-37660000D02*
X98500000Y-38430000D01*
X97940000Y-32770000D02*
X97940000Y-33540000D01*
X98500000Y-35120000D02*
X98500000Y-36080000D01*
X104260000Y-38430000D02*
X97940000Y-38430000D01*
X98500000Y-32770000D02*
X98500000Y-33540000D01*
X104260000Y-32770000D02*
X104260000Y-38430000D01*
X98440000Y-32530000D02*
X97700000Y-32530000D01*
X97940000Y-35120000D02*
X97940000Y-36080000D01*
X116059420Y-39210000D02*
X116340580Y-39210000D01*
X116059420Y-38190000D02*
X116340580Y-38190000D01*
X109010000Y-42659420D02*
X109010000Y-42940580D01*
X107990000Y-42659420D02*
X107990000Y-42940580D01*
X97550000Y-43930000D02*
X97820000Y-43930000D01*
X104180000Y-43930000D02*
X104180000Y-41100000D01*
X104450000Y-43930000D02*
X104180000Y-43930000D01*
X104450000Y-45430000D02*
X104450000Y-43930000D01*
X97550000Y-45430000D02*
X97550000Y-43930000D01*
X97820000Y-43930000D02*
X97820000Y-42830000D01*
X66340580Y-60710000D02*
X66059420Y-60710000D01*
X66340580Y-59690000D02*
X66059420Y-59690000D01*
X67860000Y-43140000D02*
X67860000Y-48800000D01*
X67860000Y-48800000D02*
X61540000Y-48800000D01*
X67860000Y-43140000D02*
X61540000Y-43140000D01*
X62100000Y-43140000D02*
X62100000Y-43910000D01*
X62040000Y-42900000D02*
X61300000Y-42900000D01*
X61540000Y-43140000D02*
X61540000Y-43910000D01*
X61540000Y-48030000D02*
X61540000Y-48800000D01*
X62100000Y-48030000D02*
X62100000Y-48800000D01*
X61540000Y-45490000D02*
X61540000Y-46450000D01*
X67400000Y-43140000D02*
X67400000Y-48800000D01*
X61300000Y-42900000D02*
X61300000Y-43400000D01*
X62100000Y-45490000D02*
X62100000Y-46450000D01*
X84010000Y-26100000D02*
X83050000Y-26100000D01*
X81470000Y-26100000D02*
X80700000Y-26100000D01*
X86360000Y-26100000D02*
X85590000Y-26100000D01*
X80700000Y-31860000D02*
X80700000Y-25540000D01*
X86600000Y-26040000D02*
X86600000Y-25300000D01*
X84010000Y-25540000D02*
X83050000Y-25540000D01*
X81470000Y-25540000D02*
X80700000Y-25540000D01*
X86360000Y-31400000D02*
X80700000Y-31400000D01*
X86360000Y-25540000D02*
X85590000Y-25540000D01*
X86360000Y-31860000D02*
X80700000Y-31860000D01*
X86600000Y-25300000D02*
X86100000Y-25300000D01*
X86360000Y-31860000D02*
X86360000Y-25540000D01*
X107010000Y-71540580D02*
X107010000Y-71259420D01*
X105990000Y-71540580D02*
X105990000Y-71259420D01*
X96510000Y-79659420D02*
X96510000Y-79940580D01*
X95490000Y-79659420D02*
X95490000Y-79940580D01*
%LPC*%
D14*
X110500000Y-42050000D03*
X110500000Y-43600000D03*
D15*
X107830000Y-83740000D03*
X110370000Y-83740000D03*
D16*
X107830000Y-81200000D03*
D17*
X110370000Y-81200000D03*
D15*
X62160000Y-36330000D03*
X62160000Y-38870000D03*
D16*
X64700000Y-36330000D03*
D17*
X64700000Y-38870000D03*
D14*
X112300000Y-42025000D03*
X112300000Y-43575000D03*
D18*
X85100000Y-69500000D03*
D19*
X75000000Y-76700000D03*
X75000000Y-75430000D03*
X75000000Y-74160000D03*
X75000000Y-72890000D03*
X75000000Y-71620000D03*
X75000000Y-70350000D03*
X75000000Y-69080000D03*
X75000000Y-67810000D03*
X75000000Y-66540000D03*
X75000000Y-65270000D03*
X75000000Y-64000000D03*
X75000000Y-62730000D03*
X75000000Y-61460000D03*
X75000000Y-60190000D03*
D20*
X78285000Y-58700000D03*
X79555000Y-58700000D03*
X80825000Y-58700000D03*
X82095000Y-58700000D03*
X83365000Y-58700000D03*
X84635000Y-58700000D03*
X85905000Y-58700000D03*
X87175000Y-58700000D03*
X88445000Y-58700000D03*
X89715000Y-58700000D03*
D19*
X93000000Y-60190000D03*
X93000000Y-61460000D03*
X93000000Y-62730000D03*
X93000000Y-64000000D03*
X93000000Y-65270000D03*
X93000000Y-66540000D03*
X93000000Y-67810000D03*
X93000000Y-69080000D03*
X93000000Y-70350000D03*
X93000000Y-71620000D03*
X93000000Y-72890000D03*
X93000000Y-74160000D03*
X93000000Y-75430000D03*
X93000000Y-76700000D03*
D21*
X73000000Y-55975000D03*
X73000000Y-54425000D03*
D14*
X100200000Y-79025000D03*
X100200000Y-80575000D03*
D22*
X83237500Y-43825000D03*
X83237500Y-44475000D03*
X83237500Y-45125000D03*
X83237500Y-45775000D03*
X83237500Y-46425000D03*
X83237500Y-47075000D03*
X83237500Y-47725000D03*
X83237500Y-48375000D03*
X88962500Y-48375000D03*
X88962500Y-47725000D03*
X88962500Y-47075000D03*
X88962500Y-46425000D03*
X88962500Y-45775000D03*
X88962500Y-45125000D03*
X88962500Y-44475000D03*
X88962500Y-43825000D03*
D23*
X98300000Y-69820000D03*
X98300000Y-75580000D03*
X102300000Y-75580000D03*
X102300000Y-69820000D03*
D14*
X106500000Y-42025000D03*
X106500000Y-43575000D03*
D24*
X117412500Y-31000000D03*
X115587500Y-31000000D03*
D25*
X63300000Y-82700000D03*
D26*
X117362500Y-72075000D03*
X117362500Y-71425000D03*
X117362500Y-70775000D03*
X117362500Y-70125000D03*
X117362500Y-69475000D03*
X117362500Y-68825000D03*
X117362500Y-68175000D03*
X117362500Y-67525000D03*
X111637500Y-67525000D03*
X111637500Y-68175000D03*
X111637500Y-68825000D03*
X111637500Y-69475000D03*
X111637500Y-70125000D03*
X111637500Y-70775000D03*
X111637500Y-71425000D03*
X111637500Y-72075000D03*
D27*
X115425000Y-36300000D03*
X116975000Y-36300000D03*
D28*
X63500000Y-78000000D03*
D29*
X63500000Y-75460000D03*
X63500000Y-72920000D03*
X63500000Y-70380000D03*
D14*
X91600000Y-42125000D03*
X91600000Y-43675000D03*
D25*
X118700000Y-27300000D03*
D21*
X63100000Y-63375000D03*
X63100000Y-61825000D03*
D22*
X73737500Y-35425000D03*
X73737500Y-36075000D03*
X73737500Y-36725000D03*
X73737500Y-37375000D03*
X73737500Y-38025000D03*
X73737500Y-38675000D03*
X73737500Y-39325000D03*
X73737500Y-39975000D03*
X79462500Y-39975000D03*
X79462500Y-39325000D03*
X79462500Y-38675000D03*
X79462500Y-38025000D03*
X79462500Y-37375000D03*
X79462500Y-36725000D03*
X79462500Y-36075000D03*
X79462500Y-35425000D03*
D14*
X94000000Y-42125000D03*
X94000000Y-43675000D03*
D15*
X119640000Y-58530000D03*
X119640000Y-61070000D03*
D16*
X117100000Y-61070000D03*
D17*
X117100000Y-58530000D03*
D14*
X102300000Y-79025000D03*
X102300000Y-80575000D03*
D25*
X63300000Y-27300000D03*
D30*
X115500000Y-32912500D03*
X115500000Y-34487500D03*
D31*
X106500000Y-75912500D03*
X106500000Y-74087500D03*
D32*
X69850000Y-65850000D03*
X69850000Y-65350000D03*
X69850000Y-64850000D03*
X69850000Y-64350000D03*
X69850000Y-63850000D03*
X69850000Y-63350000D03*
D33*
X69150000Y-62650000D03*
X68650000Y-62650000D03*
X68150000Y-62650000D03*
X67650000Y-62650000D03*
X67150000Y-62650000D03*
X66650000Y-62650000D03*
D32*
X65950000Y-63350000D03*
X65950000Y-63850000D03*
X65950000Y-64350000D03*
X65950000Y-64850000D03*
X65950000Y-65350000D03*
X65950000Y-65850000D03*
D33*
X66650000Y-66550000D03*
X67150000Y-66550000D03*
X67650000Y-66550000D03*
X68150000Y-66550000D03*
X68650000Y-66550000D03*
X69150000Y-66550000D03*
D15*
X119740000Y-50030000D03*
X119740000Y-52570000D03*
D16*
X117200000Y-52570000D03*
D17*
X117200000Y-50030000D03*
D34*
X69280000Y-56000000D03*
X63520000Y-56000000D03*
X63520000Y-52000000D03*
X69280000Y-52000000D03*
D14*
X98100000Y-79025000D03*
X98100000Y-80575000D03*
D35*
X111400000Y-32550000D03*
X109100000Y-32550000D03*
D36*
X109100000Y-38850000D03*
D35*
X106800000Y-32550000D03*
D17*
X101100000Y-36870000D03*
D16*
X101100000Y-34330000D03*
D15*
X98560000Y-34330000D03*
X98560000Y-36870000D03*
D27*
X115425000Y-38700000D03*
X116975000Y-38700000D03*
D14*
X108500000Y-42025000D03*
X108500000Y-43575000D03*
D25*
X118700000Y-82700000D03*
D37*
X103280000Y-42200000D03*
X101000000Y-42200000D03*
D38*
X101000000Y-48500000D03*
D37*
X98720000Y-42200000D03*
D39*
X66975000Y-60200000D03*
X65425000Y-60200000D03*
D15*
X62160000Y-47240000D03*
X62160000Y-44700000D03*
D16*
X64700000Y-44700000D03*
D17*
X64700000Y-47240000D03*
D15*
X84800000Y-26160000D03*
X82260000Y-26160000D03*
D16*
X84800000Y-28700000D03*
D17*
X82260000Y-28700000D03*
D21*
X106500000Y-72175000D03*
X106500000Y-70625000D03*
D14*
X96000000Y-79025000D03*
X96000000Y-80575000D03*
M02*
