G04 #@! TF.GenerationSoftware,KiCad,Pcbnew,(6.0.2-0)*
G04 #@! TF.CreationDate,2023-02-28T15:21:07-05:00*
G04 #@! TF.ProjectId,daughter_board,64617567-6874-4657-925f-626f6172642e,rev?*
G04 #@! TF.SameCoordinates,Original*
G04 #@! TF.FileFunction,Legend,Top*
G04 #@! TF.FilePolarity,Positive*
%FSLAX46Y46*%
G04 Gerber Fmt 4.6, Leading zero omitted, Abs format (unit mm)*
G04 Created by KiCad (PCBNEW (6.0.2-0)) date 2023-02-28 15:21:07*
%MOMM*%
%LPD*%
G01*
G04 APERTURE LIST*
G04 Aperture macros list*
%AMRoundRect*
0 Rectangle with rounded corners*
0 $1 Rounding radius*
0 $2 $3 $4 $5 $6 $7 $8 $9 X,Y pos of 4 corners*
0 Add a 4 corners polygon primitive as box body*
4,1,4,$2,$3,$4,$5,$6,$7,$8,$9,$2,$3,0*
0 Add four circle primitives for the rounded corners*
1,1,$1+$1,$2,$3*
1,1,$1+$1,$4,$5*
1,1,$1+$1,$6,$7*
1,1,$1+$1,$8,$9*
0 Add four rect primitives between the rounded corners*
20,1,$1+$1,$2,$3,$4,$5,0*
20,1,$1+$1,$4,$5,$6,$7,0*
20,1,$1+$1,$6,$7,$8,$9,0*
20,1,$1+$1,$8,$9,$2,$3,0*%
%AMHorizOval*
0 Thick line with rounded ends*
0 $1 width*
0 $2 $3 position (X,Y) of the first rounded end (center of the circle)*
0 $4 $5 position (X,Y) of the second rounded end (center of the circle)*
0 Add line between two ends*
20,1,$1,$2,$3,$4,$5,0*
0 Add two circle primitives to create the rounded ends*
1,1,$1,$2,$3*
1,1,$1,$4,$5*%
%AMRotRect*
0 Rectangle, with rotation*
0 The origin of the aperture is its center*
0 $1 length*
0 $2 width*
0 $3 Rotation angle, in degrees counterclockwise*
0 Add horizontal line*
21,1,$1,$2,0,0,$3*%
G04 Aperture macros list end*
%ADD10C,0.150000*%
%ADD11C,0.120000*%
%ADD12C,0.100000*%
%ADD13RoundRect,0.140000X0.140000X0.170000X-0.140000X0.170000X-0.140000X-0.170000X0.140000X-0.170000X0*%
%ADD14RoundRect,0.135000X-0.135000X-0.185000X0.135000X-0.185000X0.135000X0.185000X-0.135000X0.185000X0*%
%ADD15RotRect,1.500000X0.550000X60.000000*%
%ADD16RotRect,1.500000X0.550000X150.000000*%
%ADD17RoundRect,0.135000X0.135000X0.185000X-0.135000X0.185000X-0.135000X-0.185000X0.135000X-0.185000X0*%
%ADD18RoundRect,0.140000X-0.077224X0.206244X-0.217224X-0.036244X0.077224X-0.206244X0.217224X0.036244X0*%
%ADD19C,3.800000*%
%ADD20RotRect,1.400000X1.200000X240.000000*%
%ADD21R,1.000000X1.000000*%
%ADD22O,1.000000X1.000000*%
%ADD23RoundRect,0.147500X-0.147500X-0.172500X0.147500X-0.172500X0.147500X0.172500X-0.147500X0.172500X0*%
%ADD24C,0.650000*%
%ADD25R,1.450000X0.600000*%
%ADD26R,1.450000X0.300000*%
%ADD27RoundRect,0.140000X0.206244X0.077224X-0.036244X0.217224X-0.206244X-0.077224X0.036244X-0.217224X0*%
%ADD28RotRect,1.000000X1.000000X60.000000*%
%ADD29HorizOval,1.000000X0.000000X0.000000X0.000000X0.000000X0*%
%ADD30RoundRect,0.140000X-0.206244X-0.077224X0.036244X-0.217224X0.206244X0.077224X-0.036244X0.217224X0*%
%ADD31RotRect,2.750000X1.000000X150.000000*%
G04 APERTURE END LIST*
D10*
X48112127Y-96800000D02*
G75*
G03*
X48112127Y-96800000I-142127J0D01*
G01*
X63748489Y-96350000D02*
G75*
G03*
X63748489Y-96350000I-98489J0D01*
G01*
X67743367Y-97439737D02*
X68776059Y-97651062D01*
X68076700Y-96862387D01*
X69109392Y-97073711D02*
X68243367Y-96573711D01*
X69028623Y-96642179D01*
X68576700Y-95996361D01*
X69442725Y-96496361D01*
X43623678Y-85947621D02*
X42757652Y-85447621D01*
X43542908Y-85516089D01*
X43090986Y-84870271D01*
X43957011Y-85370271D01*
X44158537Y-85211693D02*
X44539490Y-84551865D01*
X43805271Y-83633092D02*
X43900509Y-83468134D01*
X43989368Y-83409465D01*
X44119465Y-83374606D01*
X44308232Y-83428605D01*
X44596907Y-83595271D01*
X44738055Y-83731749D01*
X44772915Y-83861846D01*
X44766535Y-83968134D01*
X44671297Y-84133092D01*
X44582438Y-84191761D01*
X44452341Y-84226620D01*
X44263574Y-84172622D01*
X43974899Y-84005955D01*
X43833751Y-83869478D01*
X43798892Y-83739380D01*
X43805271Y-83633092D01*
X44736804Y-82686297D02*
X45314154Y-83019630D01*
X44522518Y-83057451D02*
X44976150Y-83319356D01*
X45082438Y-83325735D01*
X45171297Y-83267066D01*
X45242725Y-83143348D01*
X45249105Y-83037060D01*
X45231675Y-82972011D01*
X44903470Y-82397622D02*
X45093946Y-82067708D01*
X44686224Y-82107237D02*
X45428531Y-82535809D01*
X45534819Y-82542189D01*
X45623678Y-82483520D01*
X45671297Y-82401041D01*
X42503809Y-88782380D02*
X42503809Y-87782380D01*
X42837142Y-88496666D01*
X43170476Y-87782380D01*
X43170476Y-88782380D01*
X43408571Y-88877619D02*
X44170476Y-88877619D01*
X44599047Y-87782380D02*
X44789523Y-87782380D01*
X44884761Y-87830000D01*
X44980000Y-87925238D01*
X45027619Y-88115714D01*
X45027619Y-88449047D01*
X44980000Y-88639523D01*
X44884761Y-88734761D01*
X44789523Y-88782380D01*
X44599047Y-88782380D01*
X44503809Y-88734761D01*
X44408571Y-88639523D01*
X44360952Y-88449047D01*
X44360952Y-88115714D01*
X44408571Y-87925238D01*
X44503809Y-87830000D01*
X44599047Y-87782380D01*
X45884761Y-88115714D02*
X45884761Y-88782380D01*
X45456190Y-88115714D02*
X45456190Y-88639523D01*
X45503809Y-88734761D01*
X45599047Y-88782380D01*
X45741904Y-88782380D01*
X45837142Y-88734761D01*
X45884761Y-88687142D01*
X46218095Y-88115714D02*
X46599047Y-88115714D01*
X46360952Y-87782380D02*
X46360952Y-88639523D01*
X46408571Y-88734761D01*
X46503809Y-88782380D01*
X46599047Y-88782380D01*
X43118095Y-93520000D02*
X43022857Y-93472380D01*
X42880000Y-93472380D01*
X42737142Y-93520000D01*
X42641904Y-93615238D01*
X42594285Y-93710476D01*
X42546666Y-93900952D01*
X42546666Y-94043809D01*
X42594285Y-94234285D01*
X42641904Y-94329523D01*
X42737142Y-94424761D01*
X42880000Y-94472380D01*
X42975238Y-94472380D01*
X43118095Y-94424761D01*
X43165714Y-94377142D01*
X43165714Y-94043809D01*
X42975238Y-94043809D01*
X43594285Y-94472380D02*
X43594285Y-93472380D01*
X44165714Y-94472380D01*
X44165714Y-93472380D01*
X44641904Y-94472380D02*
X44641904Y-93472380D01*
X44880000Y-93472380D01*
X45022857Y-93520000D01*
X45118095Y-93615238D01*
X45165714Y-93710476D01*
X45213333Y-93900952D01*
X45213333Y-94043809D01*
X45165714Y-94234285D01*
X45118095Y-94329523D01*
X45022857Y-94424761D01*
X44880000Y-94472380D01*
X44641904Y-94472380D01*
X45516700Y-85028412D02*
X45826224Y-84492301D01*
X45989471Y-84971452D01*
X46060900Y-84847734D01*
X46149758Y-84789065D01*
X46214807Y-84771635D01*
X46321095Y-84778015D01*
X46527292Y-84897063D01*
X46585961Y-84985921D01*
X46603391Y-85050970D01*
X46597011Y-85157258D01*
X46454154Y-85404694D01*
X46365295Y-85463363D01*
X46300247Y-85480793D01*
X45969081Y-84244865D02*
X47001773Y-84456190D01*
X46302414Y-83667515D01*
X46421462Y-83461318D02*
X46730986Y-82925207D01*
X46894233Y-83404359D01*
X46965662Y-83280641D01*
X47054520Y-83221972D01*
X47119569Y-83204542D01*
X47225857Y-83210922D01*
X47432054Y-83329969D01*
X47490723Y-83418828D01*
X47508153Y-83483876D01*
X47501773Y-83590165D01*
X47358916Y-83837600D01*
X47270057Y-83896269D01*
X47205009Y-83913699D01*
X69106034Y-97719828D02*
X69017176Y-97778497D01*
X68945747Y-97902215D01*
X68915558Y-98049743D01*
X68950418Y-98179840D01*
X69009087Y-98268699D01*
X69150235Y-98405176D01*
X69273952Y-98476605D01*
X69462719Y-98530604D01*
X69569007Y-98536983D01*
X69699105Y-98502124D01*
X69811773Y-98402215D01*
X69859392Y-98319737D01*
X69889581Y-98172209D01*
X69872151Y-98107161D01*
X69583476Y-97940494D01*
X69488238Y-98105451D01*
X70168916Y-97783626D02*
X69302890Y-97283626D01*
X70454630Y-97288754D01*
X69588605Y-96788754D01*
X70692725Y-96876361D02*
X69826700Y-96376361D01*
X69945747Y-96170165D01*
X70058415Y-96070256D01*
X70188513Y-96035397D01*
X70294801Y-96041776D01*
X70483568Y-96095775D01*
X70607286Y-96167204D01*
X70748434Y-96303681D01*
X70807103Y-96392539D01*
X70841962Y-96522637D01*
X70811773Y-96670165D01*
X70692725Y-96876361D01*
X66265295Y-96613363D02*
X66377963Y-96513455D01*
X66497011Y-96307258D01*
X66503391Y-96200970D01*
X66485961Y-96135921D01*
X66427292Y-96047063D01*
X66344813Y-95999444D01*
X66238525Y-95993064D01*
X66173476Y-96010494D01*
X66084618Y-96069163D01*
X65948141Y-96210311D01*
X65859282Y-96268980D01*
X65794233Y-96286409D01*
X65687945Y-96280030D01*
X65605467Y-96232411D01*
X65546798Y-96143552D01*
X65529368Y-96078504D01*
X65535747Y-95972215D01*
X65654795Y-95766019D01*
X65767463Y-95666110D01*
X67009770Y-95228656D02*
X67027200Y-95293705D01*
X66997011Y-95441233D01*
X66949392Y-95523711D01*
X66836724Y-95623620D01*
X66706626Y-95658479D01*
X66600338Y-95652100D01*
X66411572Y-95598101D01*
X66287854Y-95526672D01*
X66146706Y-95390195D01*
X66088037Y-95301336D01*
X66053177Y-95171239D01*
X66083367Y-95023711D01*
X66130986Y-94941233D01*
X66243653Y-94841324D01*
X66308702Y-94823895D01*
X67544630Y-94492729D02*
X67306535Y-94905122D01*
X66440509Y-94405122D01*
X47549093Y-86036507D02*
X47715760Y-85747832D01*
X48240821Y-85886019D02*
X48002725Y-86298412D01*
X47136700Y-85798412D01*
X47374795Y-85386019D01*
X48455106Y-85514865D02*
X47589081Y-85014865D01*
X48740821Y-85019993D01*
X47874795Y-84519993D01*
X49182151Y-84065110D02*
X49199581Y-84130159D01*
X49169392Y-84277686D01*
X49121773Y-84360165D01*
X49009105Y-84460073D01*
X48879007Y-84494933D01*
X48772719Y-84488553D01*
X48583952Y-84434554D01*
X48460235Y-84363125D01*
X48319087Y-84226648D01*
X48260418Y-84137790D01*
X48225558Y-84007692D01*
X48255747Y-83860165D01*
X48303367Y-83777686D01*
X48416034Y-83677778D01*
X48481083Y-83660348D01*
X65033391Y-95973983D02*
X65146059Y-95874074D01*
X65265106Y-95667878D01*
X65271486Y-95561590D01*
X65254056Y-95496541D01*
X65195387Y-95407682D01*
X65112908Y-95360063D01*
X65006620Y-95353684D01*
X64941572Y-95371113D01*
X64852713Y-95429783D01*
X64716236Y-95570930D01*
X64627377Y-95629599D01*
X64562329Y-95647029D01*
X64456040Y-95640649D01*
X64373562Y-95593030D01*
X64314893Y-95504172D01*
X64297463Y-95439123D01*
X64303843Y-95332835D01*
X64422890Y-95126639D01*
X64535558Y-95026730D01*
X65574630Y-95131767D02*
X64708605Y-94631767D01*
X64827652Y-94425570D01*
X64940320Y-94325662D01*
X65070418Y-94290802D01*
X65176706Y-94297182D01*
X65365473Y-94351181D01*
X65489191Y-94422609D01*
X65630338Y-94559087D01*
X65689007Y-94647945D01*
X65723867Y-94778043D01*
X65693678Y-94925570D01*
X65574630Y-95131767D01*
X65803385Y-94164124D02*
X66041480Y-93751731D01*
X66003201Y-94389459D02*
X65303843Y-93600784D01*
X66336535Y-93812109D01*
X66636700Y-96838412D02*
X66946224Y-96302301D01*
X67109471Y-96781452D01*
X67180900Y-96657734D01*
X67269758Y-96599065D01*
X67334807Y-96581635D01*
X67441095Y-96588015D01*
X67647292Y-96707063D01*
X67705961Y-96795921D01*
X67723391Y-96860970D01*
X67717011Y-96967258D01*
X67574154Y-97214694D01*
X67485295Y-97273363D01*
X67420247Y-97290793D01*
X67089081Y-96054865D02*
X68121773Y-96266190D01*
X67422414Y-95477515D01*
X67541462Y-95271318D02*
X67850986Y-94735207D01*
X68014233Y-95214359D01*
X68085662Y-95090641D01*
X68174520Y-95031972D01*
X68239569Y-95014542D01*
X68345857Y-95020922D01*
X68552054Y-95139969D01*
X68610723Y-95228828D01*
X68628153Y-95293876D01*
X68621773Y-95400165D01*
X68478916Y-95647600D01*
X68390057Y-95706269D01*
X68325009Y-95723699D01*
X42571904Y-92058571D02*
X42905238Y-92058571D01*
X43048095Y-92582380D02*
X42571904Y-92582380D01*
X42571904Y-91582380D01*
X43048095Y-91582380D01*
X43476666Y-92582380D02*
X43476666Y-91582380D01*
X44048095Y-92582380D01*
X44048095Y-91582380D01*
X45095714Y-92487142D02*
X45048095Y-92534761D01*
X44905238Y-92582380D01*
X44810000Y-92582380D01*
X44667142Y-92534761D01*
X44571904Y-92439523D01*
X44524285Y-92344285D01*
X44476666Y-92153809D01*
X44476666Y-92010952D01*
X44524285Y-91820476D01*
X44571904Y-91725238D01*
X44667142Y-91630000D01*
X44810000Y-91582380D01*
X44905238Y-91582380D01*
X45048095Y-91630000D01*
X45095714Y-91677619D01*
X42551904Y-89712380D02*
X43170952Y-89712380D01*
X42837619Y-90093333D01*
X42980476Y-90093333D01*
X43075714Y-90140952D01*
X43123333Y-90188571D01*
X43170952Y-90283809D01*
X43170952Y-90521904D01*
X43123333Y-90617142D01*
X43075714Y-90664761D01*
X42980476Y-90712380D01*
X42694761Y-90712380D01*
X42599523Y-90664761D01*
X42551904Y-90617142D01*
X43456666Y-89712380D02*
X43790000Y-90712380D01*
X44123333Y-89712380D01*
X44361428Y-89712380D02*
X44980476Y-89712380D01*
X44647142Y-90093333D01*
X44790000Y-90093333D01*
X44885238Y-90140952D01*
X44932857Y-90188571D01*
X44980476Y-90283809D01*
X44980476Y-90521904D01*
X44932857Y-90617142D01*
X44885238Y-90664761D01*
X44790000Y-90712380D01*
X44504285Y-90712380D01*
X44409047Y-90664761D01*
X44361428Y-90617142D01*
X63842380Y-104623333D02*
X64556666Y-104623333D01*
X64699523Y-104670952D01*
X64794761Y-104766190D01*
X64842380Y-104909047D01*
X64842380Y-105004285D01*
X64270952Y-104004285D02*
X64223333Y-104099523D01*
X64175714Y-104147142D01*
X64080476Y-104194761D01*
X64032857Y-104194761D01*
X63937619Y-104147142D01*
X63890000Y-104099523D01*
X63842380Y-104004285D01*
X63842380Y-103813809D01*
X63890000Y-103718571D01*
X63937619Y-103670952D01*
X64032857Y-103623333D01*
X64080476Y-103623333D01*
X64175714Y-103670952D01*
X64223333Y-103718571D01*
X64270952Y-103813809D01*
X64270952Y-104004285D01*
X64318571Y-104099523D01*
X64366190Y-104147142D01*
X64461428Y-104194761D01*
X64651904Y-104194761D01*
X64747142Y-104147142D01*
X64794761Y-104099523D01*
X64842380Y-104004285D01*
X64842380Y-103813809D01*
X64794761Y-103718571D01*
X64747142Y-103670952D01*
X64651904Y-103623333D01*
X64461428Y-103623333D01*
X64366190Y-103670952D01*
X64318571Y-103718571D01*
X64270952Y-103813809D01*
X40466666Y-95182380D02*
X40466666Y-95896666D01*
X40419047Y-96039523D01*
X40323809Y-96134761D01*
X40180952Y-96182380D01*
X40085714Y-96182380D01*
X40847619Y-95182380D02*
X41466666Y-95182380D01*
X41133333Y-95563333D01*
X41276190Y-95563333D01*
X41371428Y-95610952D01*
X41419047Y-95658571D01*
X41466666Y-95753809D01*
X41466666Y-95991904D01*
X41419047Y-96087142D01*
X41371428Y-96134761D01*
X41276190Y-96182380D01*
X40990476Y-96182380D01*
X40895238Y-96134761D01*
X40847619Y-96087142D01*
X43379081Y-79144865D02*
X43997670Y-79502008D01*
X44097579Y-79614676D01*
X44132438Y-79744774D01*
X44102249Y-79892301D01*
X44054630Y-79974780D01*
X43569557Y-78814951D02*
X43902890Y-78237600D01*
X44554630Y-79108754D01*
X64469081Y-91154865D02*
X65087670Y-91512008D01*
X65187579Y-91624676D01*
X65222438Y-91754774D01*
X65192249Y-91902301D01*
X65144630Y-91984780D01*
X65835106Y-90788840D02*
X65549392Y-91283711D01*
X65692249Y-91036276D02*
X64826224Y-90536276D01*
X64902323Y-90690183D01*
X64937182Y-90820280D01*
X64930802Y-90926569D01*
X59852380Y-104443333D02*
X60566666Y-104443333D01*
X60709523Y-104490952D01*
X60804761Y-104586190D01*
X60852380Y-104729047D01*
X60852380Y-104824285D01*
X60185714Y-103538571D02*
X60852380Y-103538571D01*
X59804761Y-103776666D02*
X60519047Y-104014761D01*
X60519047Y-103395714D01*
D11*
X46217836Y-94690000D02*
X46002164Y-94690000D01*
X46217836Y-95410000D02*
X46002164Y-95410000D01*
X48576359Y-101740000D02*
X48883641Y-101740000D01*
X48576359Y-100980000D02*
X48883641Y-100980000D01*
D10*
X48680819Y-96324181D02*
X49018319Y-95739614D01*
X62819181Y-92535819D02*
X62481681Y-93120386D01*
X57644181Y-101499181D02*
X57981681Y-100914614D01*
X62819181Y-92535819D02*
X62234614Y-92198319D01*
X49178783Y-96611681D02*
X48541283Y-97715864D01*
X57644181Y-101499181D02*
X57059614Y-101161681D01*
X53855819Y-87360819D02*
X54440386Y-87698319D01*
X48680819Y-96324181D02*
X49178783Y-96611681D01*
X53855819Y-87360819D02*
X53518319Y-87945386D01*
D11*
X46623641Y-90650000D02*
X46316359Y-90650000D01*
X46623641Y-89890000D02*
X46316359Y-89890000D01*
X50542149Y-87186611D02*
X50434313Y-87373389D01*
X51165687Y-87546611D02*
X51057851Y-87733389D01*
X63721058Y-96802949D02*
X61721058Y-100267051D01*
X66578942Y-98452949D02*
X63721058Y-96802949D01*
X66845000Y-105400000D02*
X66845000Y-104853471D01*
X73130000Y-105400000D02*
X73130000Y-104597530D01*
X66845000Y-105400000D02*
X73130000Y-105400000D01*
X73130000Y-103982470D02*
X73130000Y-103180000D01*
X66845000Y-103726529D02*
X66845000Y-103180000D01*
X65325000Y-105400000D02*
X65325000Y-104290000D01*
X66845000Y-103180000D02*
X73130000Y-103180000D01*
X66085000Y-105400000D02*
X65325000Y-105400000D01*
D12*
X47550000Y-90270000D02*
G75*
G03*
X47550000Y-90270000I-50000J0D01*
G01*
D11*
X63013389Y-102295687D02*
X62826611Y-102187851D01*
X63373389Y-101672149D02*
X63186611Y-101564313D01*
X48576359Y-99860000D02*
X48883641Y-99860000D01*
X48576359Y-100620000D02*
X48883641Y-100620000D01*
X50025687Y-86856611D02*
X49917851Y-87043389D01*
X49402149Y-86496611D02*
X49294313Y-86683389D01*
X47493389Y-92855687D02*
X47306611Y-92747851D01*
X47853389Y-92232149D02*
X47666611Y-92124313D01*
X40236529Y-93275000D02*
X39690000Y-93275000D01*
X41910000Y-94795000D02*
X40800000Y-94795000D01*
X39690000Y-93275000D02*
X39690000Y-86990000D01*
X41910000Y-93275000D02*
X41910000Y-86990000D01*
X41910000Y-86990000D02*
X41107530Y-86990000D01*
X41910000Y-94035000D02*
X41910000Y-94795000D01*
X40492470Y-86990000D02*
X39690000Y-86990000D01*
X41910000Y-93275000D02*
X41363471Y-93275000D01*
X51633389Y-101195687D02*
X51446611Y-101087851D01*
X51993389Y-100572149D02*
X51806611Y-100464313D01*
X45763548Y-81763788D02*
X51206518Y-84906288D01*
X45763548Y-81763788D02*
X46036813Y-81290480D01*
X51206518Y-84906288D02*
X51607753Y-84211329D01*
X46600284Y-80314520D02*
X46873548Y-79841212D01*
X46873548Y-79841212D02*
X52316518Y-82983712D01*
X45105369Y-81383788D02*
X44447190Y-81003788D01*
X51915283Y-83678671D02*
X52316518Y-82983712D01*
X44447190Y-81003788D02*
X45002190Y-80042500D01*
X67669915Y-92382020D02*
X67943179Y-91908712D01*
X65516821Y-93071288D02*
X66071821Y-92110000D01*
X71176297Y-96338788D02*
X71577532Y-95643829D01*
X71885062Y-95111171D02*
X72286297Y-94416212D01*
X66833179Y-93831288D02*
X67106444Y-93357980D01*
X66175000Y-93451288D02*
X65516821Y-93071288D01*
X66833179Y-93831288D02*
X71176297Y-96338788D01*
X67943179Y-91908712D02*
X72286297Y-94416212D01*
X65966611Y-96764313D02*
X66153389Y-96872149D01*
X65606611Y-97387851D02*
X65793389Y-97495687D01*
X57945000Y-103000000D02*
X51660000Y-103000000D01*
X51660000Y-104417530D02*
X51660000Y-105220000D01*
X57945000Y-104673471D02*
X57945000Y-105220000D01*
X58705000Y-103000000D02*
X59465000Y-103000000D01*
X57945000Y-105220000D02*
X51660000Y-105220000D01*
X57945000Y-103000000D02*
X57945000Y-103546529D01*
X51660000Y-103000000D02*
X51660000Y-103802470D01*
X59465000Y-103000000D02*
X59465000Y-104110000D01*
X77517980Y-104459679D02*
X72062020Y-101309679D01*
X79742980Y-100605866D02*
X78392980Y-102944134D01*
X75162020Y-95940321D02*
X74962020Y-96286731D01*
X80392980Y-99480033D02*
X80617980Y-99090321D01*
X77742980Y-104069967D02*
X77517980Y-104459679D01*
X80617980Y-99090321D02*
X75162020Y-95940321D01*
X72937020Y-99794134D02*
X74287020Y-97455866D01*
X72062020Y-101309679D02*
X72287020Y-100919967D01*
%LPC*%
D13*
X46590000Y-95050000D03*
X45630000Y-95050000D03*
D14*
X48220000Y-101360000D03*
X49240000Y-101360000D03*
D15*
X49435898Y-97366345D03*
X50128719Y-97766345D03*
X50821539Y-98166345D03*
X51514359Y-98566345D03*
X52207180Y-98966345D03*
X52900000Y-99366345D03*
X53592820Y-99766345D03*
X54285641Y-100166345D03*
X54978461Y-100566345D03*
X55671281Y-100966345D03*
X56364102Y-101366345D03*
D16*
X58686345Y-100744102D03*
X59086345Y-100051281D03*
X59486345Y-99358461D03*
X59886345Y-98665641D03*
X60286345Y-97972820D03*
X60686345Y-97280000D03*
X61086345Y-96587180D03*
X61486345Y-95894359D03*
X61886345Y-95201539D03*
X62286345Y-94508719D03*
X62686345Y-93815898D03*
D15*
X62064102Y-91493655D03*
X61371281Y-91093655D03*
X60678461Y-90693655D03*
X59985641Y-90293655D03*
X59292820Y-89893655D03*
X58600000Y-89493655D03*
X57907180Y-89093655D03*
X57214359Y-88693655D03*
X56521539Y-88293655D03*
X55828719Y-87893655D03*
X55135898Y-87493655D03*
D16*
X52813655Y-88115898D03*
X52413655Y-88808719D03*
X52013655Y-89501539D03*
X51613655Y-90194359D03*
X51213655Y-90887180D03*
X50813655Y-91580000D03*
X50413655Y-92272820D03*
X50013655Y-92965641D03*
X49613655Y-93658461D03*
X49213655Y-94351281D03*
X48813655Y-95044102D03*
D17*
X46980000Y-90270000D03*
X45960000Y-90270000D03*
D18*
X51040000Y-87044308D03*
X50560000Y-87875692D03*
D19*
X84010000Y-103390000D03*
D20*
X63963878Y-97982372D03*
X62863878Y-99887628D03*
X64336122Y-100737628D03*
X65436122Y-98832372D03*
D21*
X66085000Y-104290000D03*
D22*
X67355000Y-104290000D03*
X68625000Y-104290000D03*
X69895000Y-104290000D03*
X71165000Y-104290000D03*
X72435000Y-104290000D03*
D23*
X48105000Y-90270000D03*
X49075000Y-90270000D03*
D24*
X45115000Y-97850000D03*
X45115000Y-103630000D03*
D25*
X46560000Y-97515000D03*
X46560000Y-98290000D03*
D26*
X46560000Y-98990000D03*
X46560000Y-99490000D03*
X46560000Y-99990000D03*
X46560000Y-100490000D03*
X46560000Y-100990000D03*
X46560000Y-101490000D03*
X46560000Y-101990000D03*
X46560000Y-102490000D03*
D25*
X46560000Y-103190000D03*
X46560000Y-103965000D03*
D27*
X63515692Y-102170000D03*
X62684308Y-101690000D03*
D14*
X48220000Y-100240000D03*
X49240000Y-100240000D03*
D18*
X49900000Y-86354308D03*
X49420000Y-87185692D03*
D27*
X47995692Y-92730000D03*
X47164308Y-92250000D03*
D21*
X40800000Y-94035000D03*
D22*
X40800000Y-92765000D03*
X40800000Y-91495000D03*
X40800000Y-90225000D03*
X40800000Y-88955000D03*
X40800000Y-87685000D03*
D27*
X52135692Y-101070000D03*
X51304308Y-100590000D03*
D28*
X45660369Y-80422500D03*
D29*
X46760221Y-81057500D03*
X47860074Y-81692500D03*
X48959926Y-82327500D03*
X50059778Y-82962500D03*
X51159630Y-83597500D03*
D28*
X66730000Y-92490000D03*
D29*
X67829852Y-93125000D03*
X68929705Y-93760000D03*
X70029557Y-94395000D03*
X71129409Y-95030000D03*
D30*
X65464308Y-96890000D03*
X66295692Y-97370000D03*
D21*
X58705000Y-104110000D03*
D22*
X57435000Y-104110000D03*
X56165000Y-104110000D03*
X54895000Y-104110000D03*
X53625000Y-104110000D03*
X52355000Y-104110000D03*
D19*
X41200000Y-78870000D03*
D31*
X72845847Y-100492051D03*
X77834153Y-103372051D03*
X74845847Y-97027949D03*
X79834153Y-99907949D03*
M02*
