  0
SECTION
  2
HEADER
  9
$ACADVER
  1
AC1009
  9
$DWGCODEPAGE
  3
ANSI_1251
  9
$HANDSEED
  5
26
  0
ENDSEC
  0
SECTION
  2
TABLES
  0
TABLE
  2
VPORT
 70
        1
  0
VPORT
  2
*ACTIVE
 70
     0
 10
0.0
 20
0.0
 11
1.0
 21
1.0
 12
1.0433076620101929
 22
0.59055149555206299
 13
0.0
 23
0.0
 14
1.0
 24
1.0
 15
0.0
 25
0.0
 16
0.0
 26
0.0
 36
1.0
 17
0.0
 27
0.0
 37
1.0
 40
1.181102991104126
 41
1.7666667003101593
 42
50.0
 43
0.0
 44
0.0
 50
0.0
 51
0.0
 71
     0
 72
   100
 73
     1
 74
     0
 75
     1
 76
     0
 77
     0
 78
     0
  0
ENDTAB
  0
TABLE
  2
LTYPE
 70
        1
  0
LTYPE
  2
CONTINUOUS
 70
     0
  3
Solid line
 72
    65
 73
     0
 40
0.0
  0
ENDTAB
  0
TABLE
  2
LAYER
 70
        1
  0
LAYER
  2
0
 70
     0
 62
     7
  6
CONTINUOUS
  0
ENDTAB
  0
TABLE
  2
STYLE
 70
        1
  0
STYLE
  2
Standard
 70
     0
 40
0.0
 41
0.0
 50
0.0
 71
     0
 42
0.0
  3
txt
  0
ENDTAB
  0
TABLE
  2
APPID
 70
        1
  0
APPID
  2
ACAD
 70
     0
  0
ENDTAB
  0
TABLE
  2
DIMSTYLE
 70
        0
  0
ENDTAB
  0
TABLE
  2
BLOCK_RECORD
 70
        0
  0
ENDTAB
  0
ENDSEC
  0
SECTION
  2
ENTITIES
  0
POLYLINE
  5
01
100
AcDbEntity
  8
0
 62
     7
100
AcDb3dPolyline
 66
     1
 10
0.0
 20
0.0
 30
0.0
 70
     8
  0
VERTEX
  5
02
100
AcDbEntity
  8
0
 62
     7
100
AcDbVertex
100
AcDb3dPolylineVertex
 10
45.40002974778929
 20
1283.7230609220726
 30
-5.0877114654455866
  0
VERTEX
  5
03
100
AcDbEntity
  8
0
 62
     7
100
AcDbVertex
100
AcDb3dPolylineVertex
 10
99.429528807652304
 20
1283.7230609220726
 30
-5.0877114654455866
  0
VERTEX
  5
04
100
AcDbEntity
  8
0
 62
     7
100
AcDbVertex
100
AcDb3dPolylineVertex
 10
45.40002974778929
 20
1283.7230609220726
 30
-7.6315671981683799
  0
VERTEX
  5
05
100
AcDbEntity
  8
0
 62
     7
100
AcDbVertex
100
AcDb3dPolylineVertex
 10
45.40002974778929
 20
1283.7230609220726
 30
-5.0877114654455866
  0
VERTEX
  5
06
100
AcDbEntity
  8
0
 62
     7
100
AcDbVertex
100
AcDb3dPolylineVertex
 10
45.40002974778929
 20
1283.7230609220726
 30
-7.6315671981683799
  0
VERTEX
  5
07
100
AcDbEntity
  8
0
 62
     7
100
AcDbVertex
100
AcDb3dPolylineVertex
 10
99.429528807652304
 20
1283.7230609220726
 30
-5.0877114654455866
  0
VERTEX
  5
08
100
AcDbEntity
  8
0
 62
     7
100
AcDbVertex
100
AcDb3dPolylineVertex
 10
99.429528807652304
 20
1283.7230609220726
 30
-7.6315671981683799
  0
VERTEX
  5
09
100
AcDbEntity
  8
0
 62
     7
100
AcDbVertex
100
AcDb3dPolylineVertex
 10
45.40002974778929
 20
1283.7230609220726
 30
-7.6315671981683799
  0
VERTEX
  5
0A
100
AcDbEntity
  8
0
 62
     7
100
AcDbVertex
100
AcDb3dPolylineVertex
 10
45.40002974778929
 20
1314.9170918445859
 30
-5.0877114654455866
  0
VERTEX
  5
0B
100
AcDbEntity
  8
0
 62
     7
100
AcDbVertex
100
AcDb3dPolylineVertex
 10
45.40002974778929
 20
1283.7230609220726
 30
-5.0877114654455866
  0
VERTEX
  5
0C
100
AcDbEntity
  8
0
 62
     7
100
AcDbVertex
100
AcDb3dPolylineVertex
 10
45.40002974778929
 20
1314.9170918445859
 30
-7.6315671981683799
  0
VERTEX
  5
0D
100
AcDbEntity
  8
0
 62
     7
100
AcDbVertex
100
AcDb3dPolylineVertex
 10
45.40002974778929
 20
1314.9170918445859
 30
-5.0877114654455866
  0
VERTEX
  5
0E
100
AcDbEntity
  8
0
 62
     7
100
AcDbVertex
100
AcDb3dPolylineVertex
 10
45.40002974778929
 20
1314.9170918445859
 30
-7.6315671981683799
  0
VERTEX
  5
0F
100
AcDbEntity
  8
0
 62
     7
100
AcDbVertex
100
AcDb3dPolylineVertex
 10
45.40002974778929
 20
1283.7230609220726
 30
-5.0877114654455866
  0
VERTEX
  5
10
100
AcDbEntity
  8
0
 62
     7
100
AcDbVertex
100
AcDb3dPolylineVertex
 10
45.40002974778929
 20
1283.7230609220726
 30
-7.6315671981683799
  0
VERTEX
  5
11
100
AcDbEntity
  8
0
 62
     7
100
AcDbVertex
100
AcDb3dPolylineVertex
 10
45.40002974778929
 20
1314.9170918445859
 30
-7.6315671981683799
  0
VERTEX
  5
12
100
AcDbEntity
  8
0
 62
     7
100
AcDbVertex
100
AcDb3dPolylineVertex
 10
99.429528807652304
 20
1283.7230609220726
 30
-5.0877114654455866
  0
VERTEX
  5
13
100
AcDbEntity
  8
0
 62
     7
100
AcDbVertex
100
AcDb3dPolylineVertex
 10
45.40002974778929
 20
1314.9170918445859
 30
-5.0877114654455866
  0
VERTEX
  5
14
100
AcDbEntity
  8
0
 62
     7
100
AcDbVertex
100
AcDb3dPolylineVertex
 10
99.429528807652304
 20
1283.7230609220726
 30
-7.6315671981683799
  0
VERTEX
  5
15
100
AcDbEntity
  8
0
 62
     7
100
AcDbVertex
100
AcDb3dPolylineVertex
 10
99.429528807652304
 20
1283.7230609220726
 30
-5.0877114654455866
  0
VERTEX
  5
16
100
AcDbEntity
  8
0
 62
     7
100
AcDbVertex
100
AcDb3dPolylineVertex
 10
99.429528807652304
 20
1283.7230609220726
 30
-7.6315671981683799
  0
VERTEX
  5
17
100
AcDbEntity
  8
0
 62
     7
100
AcDbVertex
100
AcDb3dPolylineVertex
 10
45.40002974778929
 20
1314.9170918445859
 30
-5.0877114654455866
  0
VERTEX
  5
18
100
AcDbEntity
  8
0
 62
     7
100
AcDbVertex
100
AcDb3dPolylineVertex
 10
45.40002974778929
 20
1314.9170918445859
 30
-7.6315671981683799
  0
VERTEX
  5
19
100
AcDbEntity
  8
0
 62
     7
100
AcDbVertex
100
AcDb3dPolylineVertex
 10
99.429528807652304
 20
1283.7230609220726
 30
-7.6315671981683799
  0
VERTEX
  5
1A
100
AcDbEntity
  8
0
 62
     7
100
AcDbVertex
100
AcDb3dPolylineVertex
 10
99.429528807652304
 20
1283.7230609220726
 30
-7.6315671981683799
  0
VERTEX
  5
1B
100
AcDbEntity
  8
0
 62
     7
100
AcDbVertex
100
AcDb3dPolylineVertex
 10
45.40002974778929
 20
1314.9170918445859
 30
-7.6315671981683799
  0
VERTEX
  5
1C
100
AcDbEntity
  8
0
 62
     7
100
AcDbVertex
100
AcDb3dPolylineVertex
 10
45.40002974778929
 20
1283.7230609220726
 30
-7.6315671981683799
  0
VERTEX
  5
1D
100
AcDbEntity
  8
0
 62
     7
100
AcDbVertex
100
AcDb3dPolylineVertex
 10
99.429528807652304
 20
1283.7230609220726
 30
-7.6315671981683799
  0
VERTEX
  5
1E
100
AcDbEntity
  8
0
 62
     7
100
AcDbVertex
100
AcDb3dPolylineVertex
 10
45.40002974778929
 20
1314.9170918445859
 30
-5.0877114654455866
  0
VERTEX
  5
1F
100
AcDbEntity
  8
0
 62
     7
100
AcDbVertex
100
AcDb3dPolylineVertex
 10
99.429528807652304
 20
1283.7230609220726
 30
-5.0877114654455866
  0
VERTEX
  5
20
100
AcDbEntity
  8
0
 62
     7
100
AcDbVertex
100
AcDb3dPolylineVertex
 10
45.40002974778929
 20
1283.7230609220726
 30
-5.0877114654455866
  0
VERTEX
  5
21
100
AcDbEntity
  8
0
 62
     7
100
AcDbVertex
100
AcDb3dPolylineVertex
 10
45.40002974778929
 20
1314.9170918445859
 30
-5.0877114654455866
  0
SEQEND
  5
22
100
AcDbEntity
  8
0
  0
ENDSEC
  0
EOF
